<svg class="main-svg" xmlns="http://www.w3.org/2000/svg" xmlns:xlink="http://www.w3.org/1999/xlink" width="1000" height="800" style="" viewBox="0 0 1000 800"><rect x="0" y="0" width="1000" height="800" style="fill: rgb(255, 255, 255); fill-opacity: 1;"/><defs id="defs-922a27"><g class="clips"><clipPath id="clip922a27xyplot" class="plotclip"><rect width="770" height="680"/></clipPath><clipPath class="axesclip" id="clip922a27x"><rect x="150" y="0" width="770" height="800"/></clipPath><clipPath class="axesclip" id="clip922a27y"><rect x="0" y="40" width="1000" height="680"/></clipPath><clipPath class="axesclip" id="clip922a27xy"><rect x="150" y="40" width="770" height="680"/></clipPath></g><g class="gradients"/><g class="patterns"/></defs><g class="bglayer"><rect class="bg" x="150" y="40" width="770" height="680" style="fill: rgb(255, 255, 255); fill-opacity: 1; stroke-width: 0;"/></g><g class="layer-below"><g class="imagelayer"/><g class="shapelayer"/></g><g class="cartesianlayer"><g class="subplot xy"><g class="layer-subplot"><g class="shapelayer"/><g class="imagelayer"/></g><g class="minor-gridlayer"><g class="x"/><g class="y"/></g><g class="gridlayer"><g class="x"/><g class="y"><path class="ygrid crisp" transform="translate(0,664.28)" d="M150,0h770" style="stroke: rgb(255, 255, 255); stroke-opacity: 1; stroke-width: 1px;"/><path class="ygrid crisp" transform="translate(0,588.47)" d="M150,0h770" style="stroke: rgb(255, 255, 255); stroke-opacity: 1; stroke-width: 1px;"/><path class="ygrid crisp" transform="translate(0,512.6600000000001)" d="M150,0h770" style="stroke: rgb(255, 255, 255); stroke-opacity: 1; stroke-width: 1px;"/><path class="ygrid crisp" transform="translate(0,436.86)" d="M150,0h770" style="stroke: rgb(255, 255, 255); stroke-opacity: 1; stroke-width: 1px;"/><path class="ygrid crisp" transform="translate(0,361.05)" d="M150,0h770" style="stroke: rgb(255, 255, 255); stroke-opacity: 1; stroke-width: 1px;"/><path class="ygrid crisp" transform="translate(0,285.24)" d="M150,0h770" style="stroke: rgb(255, 255, 255); stroke-opacity: 1; stroke-width: 1px;"/><path class="ygrid crisp" transform="translate(0,209.43)" d="M150,0h770" style="stroke: rgb(255, 255, 255); stroke-opacity: 1; stroke-width: 1px;"/><path class="ygrid crisp" transform="translate(0,133.62)" d="M150,0h770" style="stroke: rgb(255, 255, 255); stroke-opacity: 1; stroke-width: 1px;"/><path class="ygrid crisp" transform="translate(0,57.81)" d="M150,0h770" style="stroke: rgb(255, 255, 255); stroke-opacity: 1; stroke-width: 1px;"/></g></g><g class="zerolinelayer"/><path class="xlines-below"/><path class="ylines-below"/><g class="overlines-below"/><g class="xaxislayer-below"/><g class="yaxislayer-below"/><g class="overaxes-below"/><g class="plot" transform="translate(150,40)" clip-path="url(#clip922a27xyplot)"><g class="barlayer mlayer"><g class="trace bars" style="opacity: 1;"><g class="points"><g class="point"><path d="M538.42,321.05V55.72H615.61V321.05Z" style="vector-effect: non-scaling-stroke; opacity: 1; stroke-width: 0.5px; fill: rgb(0, 0, 0); fill-opacity: 1; stroke: rgb(229, 236, 246); stroke-opacity: 1;"/><text class="bartext bartext-outside" text-anchor="middle" data-notex="1" x="0" y="0" style="font-family: 'Open Sans', verdana, arial, sans-serif; font-size: 12px; fill: rgb(42, 63, 95); fill-opacity: 1; white-space: pre;" transform="translate(576.8509375,49.72)">7</text></g><g class="point"><path d="M634.91,321.05V283.14H712.11V321.05Z" style="vector-effect: non-scaling-stroke; opacity: 1; stroke-width: 0.5px; fill: rgb(0, 0, 0); fill-opacity: 1; stroke: rgb(229, 236, 246); stroke-opacity: 1;"/><text class="bartext bartext-outside" text-anchor="middle" data-notex="1" x="0" y="0" style="font-family: 'Open Sans', verdana, arial, sans-serif; font-size: 12px; fill: rgb(42, 63, 95); fill-opacity: 1; white-space: pre;" transform="translate(673.3459375,277.14)">1</text></g></g></g></g><g class="scatterlayer mlayer"><g class="trace scatter trace794778" style="stroke-miterlimit: 2; opacity: 1;"><g class="fills"/><g class="errorbars"/><g class="lines"/><g class="points"><path class="point" transform="translate(577.02,350.23)" d="M20,0A20,20 0 1,1 0,-20A20,20 0 0,1 20,0Z" style="opacity: 1; stroke-width: 0px; fill: rgb(201, 201, 201); fill-opacity: 1;"/><path class="point" transform="translate(577.02,496.16)" d="M20,0A20,20 0 1,1 0,-20A20,20 0 0,1 20,0Z" style="opacity: 1; stroke-width: 0px; fill: rgb(201, 201, 201); fill-opacity: 1;"/><path class="point" transform="translate(673.51,350.23)" d="M20,0A20,20 0 1,1 0,-20A20,20 0 0,1 20,0Z" style="opacity: 1; stroke-width: 0px; fill: rgb(201, 201, 201); fill-opacity: 1;"/><path class="point" transform="translate(673.51,496.16)" d="M20,0A20,20 0 1,1 0,-20A20,20 0 0,1 20,0Z" style="opacity: 1; stroke-width: 0px; fill: rgb(201, 201, 201); fill-opacity: 1;"/></g><g class="text"/></g><g class="trace scatter tracea421d9" style="stroke-miterlimit: 2; opacity: 1;"><g class="fills"/><g class="errorbars"/><g class="lines"/><g class="points"><path class="point" transform="translate(577.02,350.23)" d="M20,0A20,20 0 1,1 0,-20A20,20 0 0,1 20,0Z" style="opacity: 1; stroke-width: 0px; fill: rgb(0, 0, 0); fill-opacity: 1;"/></g><g class="text"/></g><g class="trace scatter trace38336b" style="stroke-miterlimit: 2; opacity: 1;"><g class="fills"/><g class="errorbars"/><g class="lines"/><g class="points"><path class="point" transform="translate(577.02,350.23)" d="M20,0A20,20 0 1,1 0,-20A20,20 0 0,1 20,0Z" style="opacity: 1; stroke-width: 0px; fill: rgb(0, 0, 0); fill-opacity: 1;"/><path class="point" transform="translate(577.02,496.16)" d="M20,0A20,20 0 1,1 0,-20A20,20 0 0,1 20,0Z" style="opacity: 1; stroke-width: 0px; fill: rgb(0, 0, 0); fill-opacity: 1;"/></g><g class="text"/></g><g class="trace scatter tracec7871c" style="stroke-miterlimit: 2; opacity: 1;"><g class="fills"/><g class="errorbars"/><g class="lines"/><g class="points"><path class="point" transform="translate(673.51,496.16)" d="M20,0A20,20 0 1,1 0,-20A20,20 0 0,1 20,0Z" style="opacity: 1; stroke-width: 0px; fill: rgb(0, 0, 0); fill-opacity: 1;"/></g><g class="text"/></g><g class="trace scatter trace12d0d9" style="stroke-miterlimit: 2; opacity: 1;"><g class="fills"/><g class="errorbars"/><g class="lines"/><g class="points"/><g class="text"><g class="textpoint" transform="translate(0,3)"><text x="532.63" y="350.23" text-anchor="end" style="font-family: 'Open Sans', verdana, arial, sans-serif; font-size: 12px; fill: rgb(42, 63, 95); fill-opacity: 1; white-space: pre;">m9-EX_ttdca_e3.19-myristic_acid_BAR-Function-1</text></g><g class="textpoint" transform="translate(0,3)"><text x="532.63" y="496.16" text-anchor="end" style="font-family: 'Open Sans', verdana, arial, sans-serif; font-size: 12px; fill: rgb(42, 63, 95); fill-opacity: 1; white-space: pre;">m9-EX_glc_e7.44-control_BAR-Function-1</text></g></g></g></g></g><g class="overplot"/><path class="xlines-above crisp" d="M0,0" style="fill: none;"/><path class="ylines-above crisp" d="M0,0" style="fill: none;"/><g class="overlines-above"/><g class="xaxislayer-above"/><g class="yaxislayer-above"/><g class="overaxes-above"/></g></g><g class="polarlayer"/><g class="smithlayer"/><g class="ternarylayer"/><g class="geolayer"/><g class="funnelarealayer"/><g class="pielayer"/><g class="iciclelayer"/><g class="treemaplayer"/><g class="sunburstlayer"/><g class="glimages"/><defs id="topdefs-922a27"><g class="clips"/></defs><g class="layer-above"><g class="imagelayer"/><g class="shapelayer"/></g><g class="infolayer"><g class="g-gtitle"><text class="gtitle" x="500" y="20" text-anchor="middle" dy="0em" style="font-family: 'Open Sans', verdana, arial, sans-serif; font-size: 17px; fill: rgb(42, 63, 95); opacity: 1; font-weight: normal; white-space: pre;"><tspan style="font-weight:bold">Intersections<tspan style="font-weight:bold"></tspan></tspan></text></g><g class="g-xtitle"/><g class="g-ytitle"/></g></svg>