<svg class="main-svg" xmlns="http://www.w3.org/2000/svg" xmlns:xlink="http://www.w3.org/1999/xlink" width="1000" height="800" style="" viewBox="0 0 1000 800"><rect x="0" y="0" width="1000" height="800" style="fill: rgb(255, 255, 255); fill-opacity: 1;"/><defs id="defs-943495"><g class="clips"><clipPath id="clip943495xyplot" class="plotclip"><rect width="770" height="680"/></clipPath><clipPath class="axesclip" id="clip943495x"><rect x="150" y="0" width="770" height="800"/></clipPath><clipPath class="axesclip" id="clip943495y"><rect x="0" y="40" width="1000" height="680"/></clipPath><clipPath class="axesclip" id="clip943495xy"><rect x="150" y="40" width="770" height="680"/></clipPath></g><g class="gradients"/><g class="patterns"/></defs><g class="bglayer"><rect class="bg" x="150" y="40" width="770" height="680" style="fill: rgb(255, 255, 255); fill-opacity: 1; stroke-width: 0;"/></g><g class="layer-below"><g class="imagelayer"/><g class="shapelayer"/></g><g class="cartesianlayer"><g class="subplot xy"><g class="layer-subplot"><g class="shapelayer"/><g class="imagelayer"/></g><g class="minor-gridlayer"><g class="x"/><g class="y"/></g><g class="gridlayer"><g class="x"/><g class="y"><path class="ygrid crisp" transform="translate(0,664.28)" d="M150,0h770" style="stroke: rgb(255, 255, 255); stroke-opacity: 1; stroke-width: 1px;"/><path class="ygrid crisp" transform="translate(0,588.47)" d="M150,0h770" style="stroke: rgb(255, 255, 255); stroke-opacity: 1; stroke-width: 1px;"/><path class="ygrid crisp" transform="translate(0,512.6600000000001)" d="M150,0h770" style="stroke: rgb(255, 255, 255); stroke-opacity: 1; stroke-width: 1px;"/><path class="ygrid crisp" transform="translate(0,436.86)" d="M150,0h770" style="stroke: rgb(255, 255, 255); stroke-opacity: 1; stroke-width: 1px;"/><path class="ygrid crisp" transform="translate(0,361.05)" d="M150,0h770" style="stroke: rgb(255, 255, 255); stroke-opacity: 1; stroke-width: 1px;"/><path class="ygrid crisp" transform="translate(0,285.24)" d="M150,0h770" style="stroke: rgb(255, 255, 255); stroke-opacity: 1; stroke-width: 1px;"/><path class="ygrid crisp" transform="translate(0,209.43)" d="M150,0h770" style="stroke: rgb(255, 255, 255); stroke-opacity: 1; stroke-width: 1px;"/><path class="ygrid crisp" transform="translate(0,133.62)" d="M150,0h770" style="stroke: rgb(255, 255, 255); stroke-opacity: 1; stroke-width: 1px;"/><path class="ygrid crisp" transform="translate(0,57.81)" d="M150,0h770" style="stroke: rgb(255, 255, 255); stroke-opacity: 1; stroke-width: 1px;"/></g></g><g class="zerolinelayer"/><path class="xlines-below"/><path class="ylines-below"/><g class="overlines-below"/><g class="xaxislayer-below"/><g class="yaxislayer-below"/><g class="overaxes-below"/><g class="plot" transform="translate(150,40)" clip-path="url(#clip943495xyplot)"><g class="barlayer mlayer"><g class="trace bars" style="opacity: 1;"><g class="points"><g class="point"><path d="M307.34,321.05V55.72H351.4V321.05Z" style="vector-effect: non-scaling-stroke; opacity: 1; stroke-width: 0.5px; fill: rgb(0, 0, 0); fill-opacity: 1; stroke: rgb(229, 236, 246); stroke-opacity: 1;"/><text class="bartext bartext-outside" text-anchor="middle" data-notex="1" x="0" y="0" style="font-family: 'Open Sans', verdana, arial, sans-serif; font-size: 12px; fill: rgb(42, 63, 95); fill-opacity: 1; white-space: pre;" transform="translate(329.2059375,49.72)">7</text></g><g class="point"><path d="M362.42,321.05V283.14H406.48V321.05Z" style="vector-effect: non-scaling-stroke; opacity: 1; stroke-width: 0.5px; fill: rgb(0, 0, 0); fill-opacity: 1; stroke: rgb(229, 236, 246); stroke-opacity: 1;"/><text class="bartext bartext-outside" text-anchor="middle" data-notex="1" x="0" y="0" style="font-family: 'Open Sans', verdana, arial, sans-serif; font-size: 12px; fill: rgb(42, 63, 95); fill-opacity: 1; white-space: pre;" transform="translate(384.28593750000005,277.14)">1</text></g><g class="point"><path d="M417.5,321.05V283.14H461.56V321.05Z" style="vector-effect: non-scaling-stroke; opacity: 1; stroke-width: 0.5px; fill: rgb(0, 0, 0); fill-opacity: 1; stroke: rgb(229, 236, 246); stroke-opacity: 1;"/><text class="bartext bartext-outside" text-anchor="middle" data-notex="1" x="0" y="0" style="font-family: 'Open Sans', verdana, arial, sans-serif; font-size: 12px; fill: rgb(42, 63, 95); fill-opacity: 1; white-space: pre;" transform="translate(439.3659375,277.14)">1</text></g><g class="point"><path d="M472.58,321.05V283.14H516.64V321.05Z" style="vector-effect: non-scaling-stroke; opacity: 1; stroke-width: 0.5px; fill: rgb(0, 0, 0); fill-opacity: 1; stroke: rgb(229, 236, 246); stroke-opacity: 1;"/><text class="bartext bartext-outside" text-anchor="middle" data-notex="1" x="0" y="0" style="font-family: 'Open Sans', verdana, arial, sans-serif; font-size: 12px; fill: rgb(42, 63, 95); fill-opacity: 1; white-space: pre;" transform="translate(494.4459375,277.14)">1</text></g><g class="point"><path d="M527.65,321.05V283.14H571.72V321.05Z" style="vector-effect: non-scaling-stroke; opacity: 1; stroke-width: 0.5px; fill: rgb(0, 0, 0); fill-opacity: 1; stroke: rgb(229, 236, 246); stroke-opacity: 1;"/><text class="bartext bartext-outside" text-anchor="middle" data-notex="1" x="0" y="0" style="font-family: 'Open Sans', verdana, arial, sans-serif; font-size: 12px; fill: rgb(42, 63, 95); fill-opacity: 1; white-space: pre;" transform="translate(549.5209375,277.14)">1</text></g><g class="point"><path d="M582.73,321.05V283.14H626.8V321.05Z" style="vector-effect: non-scaling-stroke; opacity: 1; stroke-width: 0.5px; fill: rgb(0, 0, 0); fill-opacity: 1; stroke: rgb(229, 236, 246); stroke-opacity: 1;"/><text class="bartext bartext-outside" text-anchor="middle" data-notex="1" x="0" y="0" style="font-family: 'Open Sans', verdana, arial, sans-serif; font-size: 12px; fill: rgb(42, 63, 95); fill-opacity: 1; white-space: pre;" transform="translate(604.6009375,277.14)">1</text></g><g class="point"><path d="M637.81,321.05V283.14H681.87V321.05Z" style="vector-effect: non-scaling-stroke; opacity: 1; stroke-width: 0.5px; fill: rgb(0, 0, 0); fill-opacity: 1; stroke: rgb(229, 236, 246); stroke-opacity: 1;"/><text class="bartext bartext-outside" text-anchor="middle" data-notex="1" x="0" y="0" style="font-family: 'Open Sans', verdana, arial, sans-serif; font-size: 12px; fill: rgb(42, 63, 95); fill-opacity: 1; white-space: pre;" transform="translate(659.6759374999999,277.14)">1</text></g><g class="point"><path d="M692.89,321.05V283.14H736.95V321.05Z" style="vector-effect: non-scaling-stroke; opacity: 1; stroke-width: 0.5px; fill: rgb(0, 0, 0); fill-opacity: 1; stroke: rgb(229, 236, 246); stroke-opacity: 1;"/><text class="bartext bartext-outside" text-anchor="middle" data-notex="1" x="0" y="0" style="font-family: 'Open Sans', verdana, arial, sans-serif; font-size: 12px; fill: rgb(42, 63, 95); fill-opacity: 1; white-space: pre;" transform="translate(714.7559375000001,277.14)">1</text></g></g></g></g><g class="scatterlayer mlayer"><g class="trace scatter trace85f5a0" style="stroke-miterlimit: 2; opacity: 1;"><g class="fills"/><g class="errorbars"/><g class="lines"/><g class="points"><path class="point" transform="translate(329.37,350.23)" d="M37.5,0A37.5,37.5 0 1,1 0,-37.5A37.5,37.5 0 0,1 37.5,0Z" style="opacity: 1; stroke-width: 0px; fill: rgb(201, 201, 201); fill-opacity: 1;"/><path class="point" transform="translate(329.37,408.61)" d="M37.5,0A37.5,37.5 0 1,1 0,-37.5A37.5,37.5 0 0,1 37.5,0Z" style="opacity: 1; stroke-width: 0px; fill: rgb(201, 201, 201); fill-opacity: 1;"/><path class="point" transform="translate(329.37,466.98)" d="M37.5,0A37.5,37.5 0 1,1 0,-37.5A37.5,37.5 0 0,1 37.5,0Z" style="opacity: 1; stroke-width: 0px; fill: rgb(201, 201, 201); fill-opacity: 1;"/><path class="point" transform="translate(329.37,525.35)" d="M37.5,0A37.5,37.5 0 1,1 0,-37.5A37.5,37.5 0 0,1 37.5,0Z" style="opacity: 1; stroke-width: 0px; fill: rgb(201, 201, 201); fill-opacity: 1;"/><path class="point" transform="translate(329.37,583.72)" d="M37.5,0A37.5,37.5 0 1,1 0,-37.5A37.5,37.5 0 0,1 37.5,0Z" style="opacity: 1; stroke-width: 0px; fill: rgb(201, 201, 201); fill-opacity: 1;"/><path class="point" transform="translate(384.45,350.23)" d="M37.5,0A37.5,37.5 0 1,1 0,-37.5A37.5,37.5 0 0,1 37.5,0Z" style="opacity: 1; stroke-width: 0px; fill: rgb(201, 201, 201); fill-opacity: 1;"/><path class="point" transform="translate(384.45,408.61)" d="M37.5,0A37.5,37.5 0 1,1 0,-37.5A37.5,37.5 0 0,1 37.5,0Z" style="opacity: 1; stroke-width: 0px; fill: rgb(201, 201, 201); fill-opacity: 1;"/><path class="point" transform="translate(384.45,466.98)" d="M37.5,0A37.5,37.5 0 1,1 0,-37.5A37.5,37.5 0 0,1 37.5,0Z" style="opacity: 1; stroke-width: 0px; fill: rgb(201, 201, 201); fill-opacity: 1;"/><path class="point" transform="translate(384.45,525.35)" d="M37.5,0A37.5,37.5 0 1,1 0,-37.5A37.5,37.5 0 0,1 37.5,0Z" style="opacity: 1; stroke-width: 0px; fill: rgb(201, 201, 201); fill-opacity: 1;"/><path class="point" transform="translate(384.45,583.72)" d="M37.5,0A37.5,37.5 0 1,1 0,-37.5A37.5,37.5 0 0,1 37.5,0Z" style="opacity: 1; stroke-width: 0px; fill: rgb(201, 201, 201); fill-opacity: 1;"/><path class="point" transform="translate(439.53,350.23)" d="M37.5,0A37.5,37.5 0 1,1 0,-37.5A37.5,37.5 0 0,1 37.5,0Z" style="opacity: 1; stroke-width: 0px; fill: rgb(201, 201, 201); fill-opacity: 1;"/><path class="point" transform="translate(439.53,408.61)" d="M37.5,0A37.5,37.5 0 1,1 0,-37.5A37.5,37.5 0 0,1 37.5,0Z" style="opacity: 1; stroke-width: 0px; fill: rgb(201, 201, 201); fill-opacity: 1;"/><path class="point" transform="translate(439.53,466.98)" d="M37.5,0A37.5,37.5 0 1,1 0,-37.5A37.5,37.5 0 0,1 37.5,0Z" style="opacity: 1; stroke-width: 0px; fill: rgb(201, 201, 201); fill-opacity: 1;"/><path class="point" transform="translate(439.53,525.35)" d="M37.5,0A37.5,37.5 0 1,1 0,-37.5A37.5,37.5 0 0,1 37.5,0Z" style="opacity: 1; stroke-width: 0px; fill: rgb(201, 201, 201); fill-opacity: 1;"/><path class="point" transform="translate(439.53,583.72)" d="M37.5,0A37.5,37.5 0 1,1 0,-37.5A37.5,37.5 0 0,1 37.5,0Z" style="opacity: 1; stroke-width: 0px; fill: rgb(201, 201, 201); fill-opacity: 1;"/><path class="point" transform="translate(494.61,350.23)" d="M37.5,0A37.5,37.5 0 1,1 0,-37.5A37.5,37.5 0 0,1 37.5,0Z" style="opacity: 1; stroke-width: 0px; fill: rgb(201, 201, 201); fill-opacity: 1;"/><path class="point" transform="translate(494.61,408.61)" d="M37.5,0A37.5,37.5 0 1,1 0,-37.5A37.5,37.5 0 0,1 37.5,0Z" style="opacity: 1; stroke-width: 0px; fill: rgb(201, 201, 201); fill-opacity: 1;"/><path class="point" transform="translate(494.61,466.98)" d="M37.5,0A37.5,37.5 0 1,1 0,-37.5A37.5,37.5 0 0,1 37.5,0Z" style="opacity: 1; stroke-width: 0px; fill: rgb(201, 201, 201); fill-opacity: 1;"/><path class="point" transform="translate(494.61,525.35)" d="M37.5,0A37.5,37.5 0 1,1 0,-37.5A37.5,37.5 0 0,1 37.5,0Z" style="opacity: 1; stroke-width: 0px; fill: rgb(201, 201, 201); fill-opacity: 1;"/><path class="point" transform="translate(494.61,583.72)" d="M37.5,0A37.5,37.5 0 1,1 0,-37.5A37.5,37.5 0 0,1 37.5,0Z" style="opacity: 1; stroke-width: 0px; fill: rgb(201, 201, 201); fill-opacity: 1;"/><path class="point" transform="translate(549.69,350.23)" d="M37.5,0A37.5,37.5 0 1,1 0,-37.5A37.5,37.5 0 0,1 37.5,0Z" style="opacity: 1; stroke-width: 0px; fill: rgb(201, 201, 201); fill-opacity: 1;"/><path class="point" transform="translate(549.69,408.61)" d="M37.5,0A37.5,37.5 0 1,1 0,-37.5A37.5,37.5 0 0,1 37.5,0Z" style="opacity: 1; stroke-width: 0px; fill: rgb(201, 201, 201); fill-opacity: 1;"/><path class="point" transform="translate(549.69,466.98)" d="M37.5,0A37.5,37.5 0 1,1 0,-37.5A37.5,37.5 0 0,1 37.5,0Z" style="opacity: 1; stroke-width: 0px; fill: rgb(201, 201, 201); fill-opacity: 1;"/><path class="point" transform="translate(549.69,525.35)" d="M37.5,0A37.5,37.5 0 1,1 0,-37.5A37.5,37.5 0 0,1 37.5,0Z" style="opacity: 1; stroke-width: 0px; fill: rgb(201, 201, 201); fill-opacity: 1;"/><path class="point" transform="translate(549.69,583.72)" d="M37.5,0A37.5,37.5 0 1,1 0,-37.5A37.5,37.5 0 0,1 37.5,0Z" style="opacity: 1; stroke-width: 0px; fill: rgb(201, 201, 201); fill-opacity: 1;"/><path class="point" transform="translate(604.76,350.23)" d="M37.5,0A37.5,37.5 0 1,1 0,-37.5A37.5,37.5 0 0,1 37.5,0Z" style="opacity: 1; stroke-width: 0px; fill: rgb(201, 201, 201); fill-opacity: 1;"/><path class="point" transform="translate(604.76,408.61)" d="M37.5,0A37.5,37.5 0 1,1 0,-37.5A37.5,37.5 0 0,1 37.5,0Z" style="opacity: 1; stroke-width: 0px; fill: rgb(201, 201, 201); fill-opacity: 1;"/><path class="point" transform="translate(604.76,466.98)" d="M37.5,0A37.5,37.5 0 1,1 0,-37.5A37.5,37.5 0 0,1 37.5,0Z" style="opacity: 1; stroke-width: 0px; fill: rgb(201, 201, 201); fill-opacity: 1;"/><path class="point" transform="translate(604.76,525.35)" d="M37.5,0A37.5,37.5 0 1,1 0,-37.5A37.5,37.5 0 0,1 37.5,0Z" style="opacity: 1; stroke-width: 0px; fill: rgb(201, 201, 201); fill-opacity: 1;"/><path class="point" transform="translate(604.76,583.72)" d="M37.5,0A37.5,37.5 0 1,1 0,-37.5A37.5,37.5 0 0,1 37.5,0Z" style="opacity: 1; stroke-width: 0px; fill: rgb(201, 201, 201); fill-opacity: 1;"/><path class="point" transform="translate(659.84,350.23)" d="M37.5,0A37.5,37.5 0 1,1 0,-37.5A37.5,37.5 0 0,1 37.5,0Z" style="opacity: 1; stroke-width: 0px; fill: rgb(201, 201, 201); fill-opacity: 1;"/><path class="point" transform="translate(659.84,408.61)" d="M37.5,0A37.5,37.5 0 1,1 0,-37.5A37.5,37.5 0 0,1 37.5,0Z" style="opacity: 1; stroke-width: 0px; fill: rgb(201, 201, 201); fill-opacity: 1;"/><path class="point" transform="translate(659.84,466.98)" d="M37.5,0A37.5,37.5 0 1,1 0,-37.5A37.5,37.5 0 0,1 37.5,0Z" style="opacity: 1; stroke-width: 0px; fill: rgb(201, 201, 201); fill-opacity: 1;"/><path class="point" transform="translate(659.84,525.35)" d="M37.5,0A37.5,37.5 0 1,1 0,-37.5A37.5,37.5 0 0,1 37.5,0Z" style="opacity: 1; stroke-width: 0px; fill: rgb(201, 201, 201); fill-opacity: 1;"/><path class="point" transform="translate(659.84,583.72)" d="M37.5,0A37.5,37.5 0 1,1 0,-37.5A37.5,37.5 0 0,1 37.5,0Z" style="opacity: 1; stroke-width: 0px; fill: rgb(201, 201, 201); fill-opacity: 1;"/><path class="point" transform="translate(714.92,350.23)" d="M37.5,0A37.5,37.5 0 1,1 0,-37.5A37.5,37.5 0 0,1 37.5,0Z" style="opacity: 1; stroke-width: 0px; fill: rgb(201, 201, 201); fill-opacity: 1;"/><path class="point" transform="translate(714.92,408.61)" d="M37.5,0A37.5,37.5 0 1,1 0,-37.5A37.5,37.5 0 0,1 37.5,0Z" style="opacity: 1; stroke-width: 0px; fill: rgb(201, 201, 201); fill-opacity: 1;"/><path class="point" transform="translate(714.92,466.98)" d="M37.5,0A37.5,37.5 0 1,1 0,-37.5A37.5,37.5 0 0,1 37.5,0Z" style="opacity: 1; stroke-width: 0px; fill: rgb(201, 201, 201); fill-opacity: 1;"/><path class="point" transform="translate(714.92,525.35)" d="M37.5,0A37.5,37.5 0 1,1 0,-37.5A37.5,37.5 0 0,1 37.5,0Z" style="opacity: 1; stroke-width: 0px; fill: rgb(201, 201, 201); fill-opacity: 1;"/><path class="point" transform="translate(714.92,583.72)" d="M37.5,0A37.5,37.5 0 1,1 0,-37.5A37.5,37.5 0 0,1 37.5,0Z" style="opacity: 1; stroke-width: 0px; fill: rgb(201, 201, 201); fill-opacity: 1;"/></g><g class="text"/></g><g class="trace scatter trace2ed6e2" style="stroke-miterlimit: 2; opacity: 1;"><g class="fills"/><g class="errorbars"/><g class="lines"/><g class="points"><path class="point" transform="translate(329.37,350.23)" d="M37.5,0A37.5,37.5 0 1,1 0,-37.5A37.5,37.5 0 0,1 37.5,0Z" style="opacity: 1; stroke-width: 0px; fill: rgb(0, 0, 0); fill-opacity: 1;"/></g><g class="text"/></g><g class="trace scatter traced3d36f" style="stroke-miterlimit: 2; opacity: 1;"><g class="fills"/><g class="errorbars"/><g class="lines"/><g class="points"><path class="point" transform="translate(329.37,350.23)" d="M37.5,0A37.5,37.5 0 1,1 0,-37.5A37.5,37.5 0 0,1 37.5,0Z" style="opacity: 1; stroke-width: 0px; fill: rgb(0, 0, 0); fill-opacity: 1;"/><path class="point" transform="translate(329.37,408.61)" d="M37.5,0A37.5,37.5 0 1,1 0,-37.5A37.5,37.5 0 0,1 37.5,0Z" style="opacity: 1; stroke-width: 0px; fill: rgb(0, 0, 0); fill-opacity: 1;"/></g><g class="text"/></g><g class="trace scatter trace09c5c6" style="stroke-miterlimit: 2; opacity: 1;"><g class="fills"/><g class="errorbars"/><g class="lines"/><g class="points"><path class="point" transform="translate(329.37,350.23)" d="M37.5,0A37.5,37.5 0 1,1 0,-37.5A37.5,37.5 0 0,1 37.5,0Z" style="opacity: 1; stroke-width: 0px; fill: rgb(0, 0, 0); fill-opacity: 1;"/><path class="point" transform="translate(329.37,408.61)" d="M37.5,0A37.5,37.5 0 1,1 0,-37.5A37.5,37.5 0 0,1 37.5,0Z" style="opacity: 1; stroke-width: 0px; fill: rgb(0, 0, 0); fill-opacity: 1;"/><path class="point" transform="translate(329.37,466.98)" d="M37.5,0A37.5,37.5 0 1,1 0,-37.5A37.5,37.5 0 0,1 37.5,0Z" style="opacity: 1; stroke-width: 0px; fill: rgb(0, 0, 0); fill-opacity: 1;"/></g><g class="text"/></g><g class="trace scatter trace3784d0" style="stroke-miterlimit: 2; opacity: 1;"><g class="fills"/><g class="errorbars"/><g class="lines"/><g class="points"><path class="point" transform="translate(329.37,350.23)" d="M37.5,0A37.5,37.5 0 1,1 0,-37.5A37.5,37.5 0 0,1 37.5,0Z" style="opacity: 1; stroke-width: 0px; fill: rgb(0, 0, 0); fill-opacity: 1;"/><path class="point" transform="translate(329.37,408.61)" d="M37.5,0A37.5,37.5 0 1,1 0,-37.5A37.5,37.5 0 0,1 37.5,0Z" style="opacity: 1; stroke-width: 0px; fill: rgb(0, 0, 0); fill-opacity: 1;"/><path class="point" transform="translate(329.37,466.98)" d="M37.5,0A37.5,37.5 0 1,1 0,-37.5A37.5,37.5 0 0,1 37.5,0Z" style="opacity: 1; stroke-width: 0px; fill: rgb(0, 0, 0); fill-opacity: 1;"/><path class="point" transform="translate(329.37,525.35)" d="M37.5,0A37.5,37.5 0 1,1 0,-37.5A37.5,37.5 0 0,1 37.5,0Z" style="opacity: 1; stroke-width: 0px; fill: rgb(0, 0, 0); fill-opacity: 1;"/></g><g class="text"/></g><g class="trace scatter tracec52a85" style="stroke-miterlimit: 2; opacity: 1;"><g class="fills"/><g class="errorbars"/><g class="lines"/><g class="points"><path class="point" transform="translate(329.37,350.23)" d="M37.5,0A37.5,37.5 0 1,1 0,-37.5A37.5,37.5 0 0,1 37.5,0Z" style="opacity: 1; stroke-width: 0px; fill: rgb(0, 0, 0); fill-opacity: 1;"/><path class="point" transform="translate(329.37,408.61)" d="M37.5,0A37.5,37.5 0 1,1 0,-37.5A37.5,37.5 0 0,1 37.5,0Z" style="opacity: 1; stroke-width: 0px; fill: rgb(0, 0, 0); fill-opacity: 1;"/><path class="point" transform="translate(329.37,466.98)" d="M37.5,0A37.5,37.5 0 1,1 0,-37.5A37.5,37.5 0 0,1 37.5,0Z" style="opacity: 1; stroke-width: 0px; fill: rgb(0, 0, 0); fill-opacity: 1;"/><path class="point" transform="translate(329.37,525.35)" d="M37.5,0A37.5,37.5 0 1,1 0,-37.5A37.5,37.5 0 0,1 37.5,0Z" style="opacity: 1; stroke-width: 0px; fill: rgb(0, 0, 0); fill-opacity: 1;"/><path class="point" transform="translate(329.37,583.72)" d="M37.5,0A37.5,37.5 0 1,1 0,-37.5A37.5,37.5 0 0,1 37.5,0Z" style="opacity: 1; stroke-width: 0px; fill: rgb(0, 0, 0); fill-opacity: 1;"/></g><g class="text"/></g><g class="trace scatter trace1e1ce7" style="stroke-miterlimit: 2; opacity: 1;"><g class="fills"/><g class="errorbars"/><g class="lines"/><g class="points"><path class="point" transform="translate(384.45,408.61)" d="M37.5,0A37.5,37.5 0 1,1 0,-37.5A37.5,37.5 0 0,1 37.5,0Z" style="opacity: 1; stroke-width: 0px; fill: rgb(0, 0, 0); fill-opacity: 1;"/></g><g class="text"/></g><g class="trace scatter trace31416b" style="stroke-miterlimit: 2; opacity: 1;"><g class="fills"/><g class="errorbars"/><g class="lines"/><g class="points"><path class="point" transform="translate(439.53,350.23)" d="M37.5,0A37.5,37.5 0 1,1 0,-37.5A37.5,37.5 0 0,1 37.5,0Z" style="opacity: 1; stroke-width: 0px; fill: rgb(0, 0, 0); fill-opacity: 1;"/></g><g class="text"/></g><g class="trace scatter trace03f9e9" style="stroke-miterlimit: 2; opacity: 1;"><g class="fills"/><g class="errorbars"/><g class="lines"/><g class="points"><path class="point" transform="translate(439.53,350.23)" d="M37.5,0A37.5,37.5 0 1,1 0,-37.5A37.5,37.5 0 0,1 37.5,0Z" style="opacity: 1; stroke-width: 0px; fill: rgb(0, 0, 0); fill-opacity: 1;"/><path class="point" transform="translate(439.53,408.61)" d="M37.5,0A37.5,37.5 0 1,1 0,-37.5A37.5,37.5 0 0,1 37.5,0Z" style="opacity: 1; stroke-width: 0px; fill: rgb(0, 0, 0); fill-opacity: 1;"/></g><g class="text"/></g><g class="trace scatter traceb81af6" style="stroke-miterlimit: 2; opacity: 1;"><g class="fills"/><g class="errorbars"/><g class="lines"/><g class="points"><path class="point" transform="translate(494.61,350.23)" d="M37.5,0A37.5,37.5 0 1,1 0,-37.5A37.5,37.5 0 0,1 37.5,0Z" style="opacity: 1; stroke-width: 0px; fill: rgb(0, 0, 0); fill-opacity: 1;"/></g><g class="text"/></g><g class="trace scatter trace2c4051" style="stroke-miterlimit: 2; opacity: 1;"><g class="fills"/><g class="errorbars"/><g class="lines"/><g class="points"><path class="point" transform="translate(494.61,350.23)" d="M37.5,0A37.5,37.5 0 1,1 0,-37.5A37.5,37.5 0 0,1 37.5,0Z" style="opacity: 1; stroke-width: 0px; fill: rgb(0, 0, 0); fill-opacity: 1;"/><path class="point" transform="translate(494.61,525.35)" d="M37.5,0A37.5,37.5 0 1,1 0,-37.5A37.5,37.5 0 0,1 37.5,0Z" style="opacity: 1; stroke-width: 0px; fill: rgb(0, 0, 0); fill-opacity: 1;"/></g><g class="text"/></g><g class="trace scatter tracecc0fe1" style="stroke-miterlimit: 2; opacity: 1;"><g class="fills"/><g class="errorbars"/><g class="lines"/><g class="points"><path class="point" transform="translate(549.69,466.98)" d="M37.5,0A37.5,37.5 0 1,1 0,-37.5A37.5,37.5 0 0,1 37.5,0Z" style="opacity: 1; stroke-width: 0px; fill: rgb(0, 0, 0); fill-opacity: 1;"/></g><g class="text"/></g><g class="trace scatter trace0ae167" style="stroke-miterlimit: 2; opacity: 1;"><g class="fills"/><g class="errorbars"/><g class="lines"/><g class="points"><path class="point" transform="translate(549.69,466.98)" d="M37.5,0A37.5,37.5 0 1,1 0,-37.5A37.5,37.5 0 0,1 37.5,0Z" style="opacity: 1; stroke-width: 0px; fill: rgb(0, 0, 0); fill-opacity: 1;"/><path class="point" transform="translate(549.69,525.35)" d="M37.5,0A37.5,37.5 0 1,1 0,-37.5A37.5,37.5 0 0,1 37.5,0Z" style="opacity: 1; stroke-width: 0px; fill: rgb(0, 0, 0); fill-opacity: 1;"/></g><g class="text"/></g><g class="trace scatter tracef222c5" style="stroke-miterlimit: 2; opacity: 1;"><g class="fills"/><g class="errorbars"/><g class="lines"/><g class="points"><path class="point" transform="translate(604.76,350.23)" d="M37.5,0A37.5,37.5 0 1,1 0,-37.5A37.5,37.5 0 0,1 37.5,0Z" style="opacity: 1; stroke-width: 0px; fill: rgb(0, 0, 0); fill-opacity: 1;"/></g><g class="text"/></g><g class="trace scatter traceec660c" style="stroke-miterlimit: 2; opacity: 1;"><g class="fills"/><g class="errorbars"/><g class="lines"/><g class="points"><path class="point" transform="translate(604.76,350.23)" d="M37.5,0A37.5,37.5 0 1,1 0,-37.5A37.5,37.5 0 0,1 37.5,0Z" style="opacity: 1; stroke-width: 0px; fill: rgb(0, 0, 0); fill-opacity: 1;"/><path class="point" transform="translate(604.76,408.61)" d="M37.5,0A37.5,37.5 0 1,1 0,-37.5A37.5,37.5 0 0,1 37.5,0Z" style="opacity: 1; stroke-width: 0px; fill: rgb(0, 0, 0); fill-opacity: 1;"/></g><g class="text"/></g><g class="trace scatter trace9922fc" style="stroke-miterlimit: 2; opacity: 1;"><g class="fills"/><g class="errorbars"/><g class="lines"/><g class="points"><path class="point" transform="translate(604.76,350.23)" d="M37.5,0A37.5,37.5 0 1,1 0,-37.5A37.5,37.5 0 0,1 37.5,0Z" style="opacity: 1; stroke-width: 0px; fill: rgb(0, 0, 0); fill-opacity: 1;"/><path class="point" transform="translate(604.76,408.61)" d="M37.5,0A37.5,37.5 0 1,1 0,-37.5A37.5,37.5 0 0,1 37.5,0Z" style="opacity: 1; stroke-width: 0px; fill: rgb(0, 0, 0); fill-opacity: 1;"/><path class="point" transform="translate(604.76,583.72)" d="M37.5,0A37.5,37.5 0 1,1 0,-37.5A37.5,37.5 0 0,1 37.5,0Z" style="opacity: 1; stroke-width: 0px; fill: rgb(0, 0, 0); fill-opacity: 1;"/></g><g class="text"/></g><g class="trace scatter trace5bb011" style="stroke-miterlimit: 2; opacity: 1;"><g class="fills"/><g class="errorbars"/><g class="lines"/><g class="points"><path class="point" transform="translate(659.84,466.98)" d="M37.5,0A37.5,37.5 0 1,1 0,-37.5A37.5,37.5 0 0,1 37.5,0Z" style="opacity: 1; stroke-width: 0px; fill: rgb(0, 0, 0); fill-opacity: 1;"/></g><g class="text"/></g><g class="trace scatter tracef93e0a" style="stroke-miterlimit: 2; opacity: 1;"><g class="fills"/><g class="errorbars"/><g class="lines"/><g class="points"><path class="point" transform="translate(659.84,466.98)" d="M37.5,0A37.5,37.5 0 1,1 0,-37.5A37.5,37.5 0 0,1 37.5,0Z" style="opacity: 1; stroke-width: 0px; fill: rgb(0, 0, 0); fill-opacity: 1;"/><path class="point" transform="translate(659.84,525.35)" d="M37.5,0A37.5,37.5 0 1,1 0,-37.5A37.5,37.5 0 0,1 37.5,0Z" style="opacity: 1; stroke-width: 0px; fill: rgb(0, 0, 0); fill-opacity: 1;"/></g><g class="text"/></g><g class="trace scatter traceae1ada" style="stroke-miterlimit: 2; opacity: 1;"><g class="fills"/><g class="errorbars"/><g class="lines"/><g class="points"><path class="point" transform="translate(659.84,466.98)" d="M37.5,0A37.5,37.5 0 1,1 0,-37.5A37.5,37.5 0 0,1 37.5,0Z" style="opacity: 1; stroke-width: 0px; fill: rgb(0, 0, 0); fill-opacity: 1;"/><path class="point" transform="translate(659.84,525.35)" d="M37.5,0A37.5,37.5 0 1,1 0,-37.5A37.5,37.5 0 0,1 37.5,0Z" style="opacity: 1; stroke-width: 0px; fill: rgb(0, 0, 0); fill-opacity: 1;"/><path class="point" transform="translate(659.84,583.72)" d="M37.5,0A37.5,37.5 0 1,1 0,-37.5A37.5,37.5 0 0,1 37.5,0Z" style="opacity: 1; stroke-width: 0px; fill: rgb(0, 0, 0); fill-opacity: 1;"/></g><g class="text"/></g><g class="trace scatter tracec285e4" style="stroke-miterlimit: 2; opacity: 1;"><g class="fills"/><g class="errorbars"/><g class="lines"/><g class="points"><path class="point" transform="translate(714.92,350.23)" d="M37.5,0A37.5,37.5 0 1,1 0,-37.5A37.5,37.5 0 0,1 37.5,0Z" style="opacity: 1; stroke-width: 0px; fill: rgb(0, 0, 0); fill-opacity: 1;"/></g><g class="text"/></g><g class="trace scatter trace685d39" style="stroke-miterlimit: 2; opacity: 1;"><g class="fills"/><g class="errorbars"/><g class="lines"/><g class="points"><path class="point" transform="translate(714.92,350.23)" d="M37.5,0A37.5,37.5 0 1,1 0,-37.5A37.5,37.5 0 0,1 37.5,0Z" style="opacity: 1; stroke-width: 0px; fill: rgb(0, 0, 0); fill-opacity: 1;"/><path class="point" transform="translate(714.92,408.61)" d="M37.5,0A37.5,37.5 0 1,1 0,-37.5A37.5,37.5 0 0,1 37.5,0Z" style="opacity: 1; stroke-width: 0px; fill: rgb(0, 0, 0); fill-opacity: 1;"/></g><g class="text"/></g><g class="trace scatter traceb1c9a4" style="stroke-miterlimit: 2; opacity: 1;"><g class="fills"/><g class="errorbars"/><g class="lines"/><g class="points"><path class="point" transform="translate(714.92,350.23)" d="M37.5,0A37.5,37.5 0 1,1 0,-37.5A37.5,37.5 0 0,1 37.5,0Z" style="opacity: 1; stroke-width: 0px; fill: rgb(0, 0, 0); fill-opacity: 1;"/><path class="point" transform="translate(714.92,408.61)" d="M37.5,0A37.5,37.5 0 1,1 0,-37.5A37.5,37.5 0 0,1 37.5,0Z" style="opacity: 1; stroke-width: 0px; fill: rgb(0, 0, 0); fill-opacity: 1;"/><path class="point" transform="translate(714.92,525.35)" d="M37.5,0A37.5,37.5 0 1,1 0,-37.5A37.5,37.5 0 0,1 37.5,0Z" style="opacity: 1; stroke-width: 0px; fill: rgb(0, 0, 0); fill-opacity: 1;"/></g><g class="text"/></g><g class="trace scatter trace4ce32e" style="stroke-miterlimit: 2; opacity: 1;"><g class="fills"/><g class="errorbars"/><g class="lines"/><g class="points"><path class="point" transform="translate(714.92,350.23)" d="M37.5,0A37.5,37.5 0 1,1 0,-37.5A37.5,37.5 0 0,1 37.5,0Z" style="opacity: 1; stroke-width: 0px; fill: rgb(0, 0, 0); fill-opacity: 1;"/><path class="point" transform="translate(714.92,408.61)" d="M37.5,0A37.5,37.5 0 1,1 0,-37.5A37.5,37.5 0 0,1 37.5,0Z" style="opacity: 1; stroke-width: 0px; fill: rgb(0, 0, 0); fill-opacity: 1;"/><path class="point" transform="translate(714.92,525.35)" d="M37.5,0A37.5,37.5 0 1,1 0,-37.5A37.5,37.5 0 0,1 37.5,0Z" style="opacity: 1; stroke-width: 0px; fill: rgb(0, 0, 0); fill-opacity: 1;"/><path class="point" transform="translate(714.92,583.72)" d="M37.5,0A37.5,37.5 0 1,1 0,-37.5A37.5,37.5 0 0,1 37.5,0Z" style="opacity: 1; stroke-width: 0px; fill: rgb(0, 0, 0); fill-opacity: 1;"/></g><g class="text"/></g><g class="trace scatter trace2b7b21" style="stroke-miterlimit: 2; opacity: 1;"><g class="fills"/><g class="errorbars"/><g class="lines"/><g class="points"/><g class="text"><g class="textpoint" transform="translate(0,3)"><text x="304.03" y="350.23" text-anchor="end" style="font-family: 'Open Sans', verdana, arial, sans-serif; font-size: 12px; fill: rgb(42, 63, 95); fill-opacity: 1; white-space: pre;">m9-EX_ac_e3.33-deletion_Cra_BAR-Function-1</text></g><g class="textpoint" transform="translate(0,3)"><text x="304.03" y="408.61" text-anchor="end" style="font-family: 'Open Sans', verdana, arial, sans-serif; font-size: 12px; fill: rgb(42, 63, 95); fill-opacity: 1; white-space: pre;">m9-EX_ac_e3.33_BAR-Function-1</text></g><g class="textpoint" transform="translate(0,3)"><text x="304.03" y="466.98" text-anchor="end" style="font-family: 'Open Sans', verdana, arial, sans-serif; font-size: 12px; fill: rgb(42, 63, 95); fill-opacity: 1; white-space: pre;">m9-EX_glc__D_e10.0-deletion_Cra_BAR-Function-1</text></g><g class="textpoint" transform="translate(0,3)"><text x="304.03" y="525.35" text-anchor="end" style="font-family: 'Open Sans', verdana, arial, sans-serif; font-size: 12px; fill: rgb(42, 63, 95); fill-opacity: 1; white-space: pre;">m9-EX_fru_e10.0-deletion_Cra_BAR-Function-1</text></g><g class="textpoint" transform="translate(0,3)"><text x="304.03" y="583.72" text-anchor="end" style="font-family: 'Open Sans', verdana, arial, sans-serif; font-size: 12px; fill: rgb(42, 63, 95); fill-opacity: 1; white-space: pre;">m9-EX_fru_e10.0_BAR-Function-1</text></g></g></g></g></g><g class="overplot"/><path class="xlines-above crisp" d="M0,0" style="fill: none;"/><path class="ylines-above crisp" d="M0,0" style="fill: none;"/><g class="overlines-above"/><g class="xaxislayer-above"/><g class="yaxislayer-above"/><g class="overaxes-above"/></g></g><g class="polarlayer"/><g class="smithlayer"/><g class="ternarylayer"/><g class="geolayer"/><g class="funnelarealayer"/><g class="pielayer"/><g class="iciclelayer"/><g class="treemaplayer"/><g class="sunburstlayer"/><g class="glimages"/><defs id="topdefs-943495"><g class="clips"/></defs><g class="layer-above"><g class="imagelayer"/><g class="shapelayer"/></g><g class="infolayer"><g class="g-gtitle"><text class="gtitle" x="500" y="20" text-anchor="middle" dy="0em" style="font-family: 'Open Sans', verdana, arial, sans-serif; font-size: 17px; fill: rgb(42, 63, 95); opacity: 1; font-weight: normal; white-space: pre;"><tspan style="font-weight:bold">Intersections<tspan style="font-weight:bold"></tspan></tspan></text></g><g class="g-xtitle"/><g class="g-ytitle"/></g></svg>