<svg class="main-svg" xmlns="http://www.w3.org/2000/svg" xmlns:xlink="http://www.w3.org/1999/xlink" width="600" height="1200" style="" viewBox="0 0 600 1200"><rect x="0" y="0" width="600" height="1200" style="fill: rgb(255, 255, 255); fill-opacity: 1;"/><defs id="defs-03f1bf"><g class="clips"><clipPath id="clip03f1bfxyplot" class="plotclip"><rect width="225" height="1020"/></clipPath><clipPath class="axesclip" id="clip03f1bfx"><rect x="295" y="0" width="225" height="1200"/></clipPath><clipPath class="axesclip" id="clip03f1bfy"><rect x="0" y="100" width="600" height="1020"/></clipPath><clipPath class="axesclip" id="clip03f1bfxy"><rect x="295" y="100" width="225" height="1020"/></clipPath></g><g class="gradients"/><g class="patterns"/></defs><g class="bglayer"><rect class="bg" x="295" y="100" width="225" height="1020" style="fill: rgb(229, 236, 246); fill-opacity: 1; stroke-width: 0;"/></g><g class="layer-below"><g class="imagelayer"/><g class="shapelayer"/></g><g class="cartesianlayer"><g class="subplot xy"><g class="layer-subplot"><g class="shapelayer"/><g class="imagelayer"/></g><g class="minor-gridlayer"><g class="x"/><g class="y"/></g><g class="gridlayer"><g class="x"><path class="xgrid crisp" transform="translate(328.37,0)" d="M0,100v1020" style="stroke: rgb(255, 255, 255); stroke-opacity: 1; stroke-width: 1px;"/><path class="xgrid crisp" transform="translate(477.72,0)" d="M0,100v1020" style="stroke: rgb(255, 255, 255); stroke-opacity: 1; stroke-width: 1px;"/></g><g class="y"><path class="ygrid crisp" transform="translate(0,1055.5900000000001)" d="M295,0h225" style="stroke: rgb(255, 255, 255); stroke-opacity: 1; stroke-width: 1px;"/><path class="ygrid crisp" transform="translate(0,1012.66)" d="M295,0h225" style="stroke: rgb(255, 255, 255); stroke-opacity: 1; stroke-width: 1px;"/><path class="ygrid crisp" transform="translate(0,969.73)" d="M295,0h225" style="stroke: rgb(255, 255, 255); stroke-opacity: 1; stroke-width: 1px;"/><path class="ygrid crisp" transform="translate(0,926.79)" d="M295,0h225" style="stroke: rgb(255, 255, 255); stroke-opacity: 1; stroke-width: 1px;"/><path class="ygrid crisp" transform="translate(0,883.86)" d="M295,0h225" style="stroke: rgb(255, 255, 255); stroke-opacity: 1; stroke-width: 1px;"/><path class="ygrid crisp" transform="translate(0,840.93)" d="M295,0h225" style="stroke: rgb(255, 255, 255); stroke-opacity: 1; stroke-width: 1px;"/><path class="ygrid crisp" transform="translate(0,797.99)" d="M295,0h225" style="stroke: rgb(255, 255, 255); stroke-opacity: 1; stroke-width: 1px;"/><path class="ygrid crisp" transform="translate(0,755.06)" d="M295,0h225" style="stroke: rgb(255, 255, 255); stroke-opacity: 1; stroke-width: 1px;"/><path class="ygrid crisp" transform="translate(0,712.13)" d="M295,0h225" style="stroke: rgb(255, 255, 255); stroke-opacity: 1; stroke-width: 1px;"/><path class="ygrid crisp" transform="translate(0,669.2)" d="M295,0h225" style="stroke: rgb(255, 255, 255); stroke-opacity: 1; stroke-width: 1px;"/><path class="ygrid crisp" transform="translate(0,626.26)" d="M295,0h225" style="stroke: rgb(255, 255, 255); stroke-opacity: 1; stroke-width: 1px;"/><path class="ygrid crisp" transform="translate(0,583.3299999999999)" d="M295,0h225" style="stroke: rgb(255, 255, 255); stroke-opacity: 1; stroke-width: 1px;"/><path class="ygrid crisp" transform="translate(0,540.4)" d="M295,0h225" style="stroke: rgb(255, 255, 255); stroke-opacity: 1; stroke-width: 1px;"/><path class="ygrid crisp" transform="translate(0,497.46)" d="M295,0h225" style="stroke: rgb(255, 255, 255); stroke-opacity: 1; stroke-width: 1px;"/><path class="ygrid crisp" transform="translate(0,454.53)" d="M295,0h225" style="stroke: rgb(255, 255, 255); stroke-opacity: 1; stroke-width: 1px;"/><path class="ygrid crisp" transform="translate(0,411.6)" d="M295,0h225" style="stroke: rgb(255, 255, 255); stroke-opacity: 1; stroke-width: 1px;"/><path class="ygrid crisp" transform="translate(0,368.66)" d="M295,0h225" style="stroke: rgb(255, 255, 255); stroke-opacity: 1; stroke-width: 1px;"/><path class="ygrid crisp" transform="translate(0,325.73)" d="M295,0h225" style="stroke: rgb(255, 255, 255); stroke-opacity: 1; stroke-width: 1px;"/><path class="ygrid crisp" transform="translate(0,282.8)" d="M295,0h225" style="stroke: rgb(255, 255, 255); stroke-opacity: 1; stroke-width: 1px;"/><path class="ygrid crisp" transform="translate(0,239.87)" d="M295,0h225" style="stroke: rgb(255, 255, 255); stroke-opacity: 1; stroke-width: 1px;"/><path class="ygrid crisp" transform="translate(0,196.93)" d="M295,0h225" style="stroke: rgb(255, 255, 255); stroke-opacity: 1; stroke-width: 1px;"/><path class="ygrid crisp" transform="translate(0,154)" d="M295,0h225" style="stroke: rgb(255, 255, 255); stroke-opacity: 1; stroke-width: 1px;"/></g></g><g class="zerolinelayer"/><path class="xlines-below"/><path class="ylines-below"/><g class="overlines-below"/><g class="xaxislayer-below"/><g class="yaxislayer-below"/><g class="overaxes-below"/><g class="plot" transform="translate(295,100)" clip-path="url(#clip03f1bfxyplot)"><g class="scatterlayer mlayer"><g class="trace scatter trace33bd1a" style="stroke-miterlimit: 2; opacity: 1;"><g class="fills"/><g class="errorbars"/><g class="lines"/><g class="points"><path class="point" transform="translate(33.37,955.59)" d="M3.24,0A3.24,3.24 0 1,1 0,-3.24A3.24,3.24 0 0,1 3.24,0Z" style="opacity: 0.7; stroke-width: 2px; fill: rgb(31, 119, 180); fill-opacity: 1; stroke: rgb(255, 255, 255); stroke-opacity: 1;"/><path class="point" transform="translate(33.37,912.66)" d="M2.89,0A2.89,2.89 0 1,1 0,-2.89A2.89,2.89 0 0,1 2.89,0Z" style="opacity: 0.7; stroke-width: 2px; fill: rgb(31, 119, 180); fill-opacity: 1; stroke: rgb(255, 255, 255); stroke-opacity: 1;"/><path class="point" transform="translate(33.37,869.73)" d="M4.05,0A4.05,4.05 0 1,1 0,-4.05A4.05,4.05 0 0,1 4.05,0Z" style="opacity: 0.7; stroke-width: 2px; fill: rgb(31, 119, 180); fill-opacity: 1; stroke: rgb(255, 255, 255); stroke-opacity: 1;"/><path class="point" transform="translate(33.37,826.79)" d="M17.7,0A17.7,17.7 0 1,1 0,-17.7A17.7,17.7 0 0,1 17.7,0Z" style="opacity: 0.7; stroke-width: 2px; fill: rgb(31, 119, 180); fill-opacity: 1; stroke: rgb(255, 255, 255); stroke-opacity: 1;"/><path class="point" transform="translate(33.37,783.86)" d="M2.66,0A2.66,2.66 0 1,1 0,-2.66A2.66,2.66 0 0,1 2.66,0Z" style="opacity: 0.7; stroke-width: 2px; fill: rgb(31, 119, 180); fill-opacity: 1; stroke: rgb(255, 255, 255); stroke-opacity: 1;"/><path class="point" transform="translate(33.37,740.93)" d="M2.78,0A2.78,2.78 0 1,1 0,-2.78A2.78,2.78 0 0,1 2.78,0Z" style="opacity: 0.7; stroke-width: 2px; fill: rgb(31, 119, 180); fill-opacity: 1; stroke: rgb(255, 255, 255); stroke-opacity: 1;"/><path class="point" transform="translate(33.37,697.99)" d="M2.2,0A2.2,2.2 0 1,1 0,-2.2A2.2,2.2 0 0,1 2.2,0Z" style="opacity: 0.7; stroke-width: 2px; fill: rgb(31, 119, 180); fill-opacity: 1; stroke: rgb(255, 255, 255); stroke-opacity: 1;"/><path class="point" transform="translate(33.37,655.06)" d="M3.82,0A3.82,3.82 0 1,1 0,-3.82A3.82,3.82 0 0,1 3.82,0Z" style="opacity: 0.7; stroke-width: 2px; fill: rgb(31, 119, 180); fill-opacity: 1; stroke: rgb(255, 255, 255); stroke-opacity: 1;"/><path class="point" transform="translate(33.37,612.13)" d="M3.7,0A3.7,3.7 0 1,1 0,-3.7A3.7,3.7 0 0,1 3.7,0Z" style="opacity: 0.7; stroke-width: 2px; fill: rgb(31, 119, 180); fill-opacity: 1; stroke: rgb(255, 255, 255); stroke-opacity: 1;"/><path class="point" transform="translate(33.37,569.2)" d="M4.05,0A4.05,4.05 0 1,1 0,-4.05A4.05,4.05 0 0,1 4.05,0Z" style="opacity: 0.7; stroke-width: 2px; fill: rgb(31, 119, 180); fill-opacity: 1; stroke: rgb(255, 255, 255); stroke-opacity: 1;"/><path class="point" transform="translate(33.37,526.26)" d="M1.27,0A1.27,1.27 0 1,1 0,-1.27A1.27,1.27 0 0,1 1.27,0Z" style="opacity: 0.7; stroke-width: 2px; fill: rgb(31, 119, 180); fill-opacity: 1; stroke: rgb(255, 255, 255); stroke-opacity: 1;"/><path class="point" transform="translate(33.37,483.33)" d="M0.35,0A0.35,0.35 0 1,1 0,-0.35A0.35,0.35 0 0,1 0.35,0Z" style="opacity: 0.7; stroke-width: 2px; fill: rgb(31, 119, 180); fill-opacity: 1; stroke: rgb(255, 255, 255); stroke-opacity: 1;"/><path class="point" transform="translate(33.37,440.4)" d="M8.1,0A8.1,8.1 0 1,1 0,-8.1A8.1,8.1 0 0,1 8.1,0Z" style="opacity: 0.7; stroke-width: 2px; fill: rgb(31, 119, 180); fill-opacity: 1; stroke: rgb(255, 255, 255); stroke-opacity: 1;"/><path class="point" transform="translate(33.37,397.46)" d="M2.31,0A2.31,2.31 0 1,1 0,-2.31A2.31,2.31 0 0,1 2.31,0Z" style="opacity: 0.7; stroke-width: 2px; fill: rgb(31, 119, 180); fill-opacity: 1; stroke: rgb(255, 255, 255); stroke-opacity: 1;"/><path class="point" transform="translate(33.37,354.53)" d="M1.39,0A1.39,1.39 0 1,1 0,-1.39A1.39,1.39 0 0,1 1.39,0Z" style="opacity: 0.7; stroke-width: 2px; fill: rgb(31, 119, 180); fill-opacity: 1; stroke: rgb(255, 255, 255); stroke-opacity: 1;"/><path class="point" transform="translate(33.37,311.6)" d="M2.54,0A2.54,2.54 0 1,1 0,-2.54A2.54,2.54 0 0,1 2.54,0Z" style="opacity: 0.7; stroke-width: 2px; fill: rgb(31, 119, 180); fill-opacity: 1; stroke: rgb(255, 255, 255); stroke-opacity: 1;"/><path class="point" transform="translate(33.37,268.66)" d="M1.62,0A1.62,1.62 0 1,1 0,-1.62A1.62,1.62 0 0,1 1.62,0Z" style="opacity: 0.7; stroke-width: 2px; fill: rgb(31, 119, 180); fill-opacity: 1; stroke: rgb(255, 255, 255); stroke-opacity: 1;"/><path class="point" transform="translate(33.37,225.73)" d="M6.59,0A6.59,6.59 0 1,1 0,-6.59A6.59,6.59 0 0,1 6.59,0Z" style="opacity: 0.7; stroke-width: 2px; fill: rgb(31, 119, 180); fill-opacity: 1; stroke: rgb(255, 255, 255); stroke-opacity: 1;"/><path class="point" transform="translate(33.37,182.8)" d="M3.12,0A3.12,3.12 0 1,1 0,-3.12A3.12,3.12 0 0,1 3.12,0Z" style="opacity: 0.7; stroke-width: 2px; fill: rgb(31, 119, 180); fill-opacity: 1; stroke: rgb(255, 255, 255); stroke-opacity: 1;"/><path class="point" transform="translate(33.37,139.87)" d="M2.08,0A2.08,2.08 0 1,1 0,-2.08A2.08,2.08 0 0,1 2.08,0Z" style="opacity: 0.7; stroke-width: 2px; fill: rgb(31, 119, 180); fill-opacity: 1; stroke: rgb(255, 255, 255); stroke-opacity: 1;"/><path class="point" transform="translate(33.37,96.93)" d="M1.74,0A1.74,1.74 0 1,1 0,-1.74A1.74,1.74 0 0,1 1.74,0Z" style="opacity: 0.7; stroke-width: 2px; fill: rgb(31, 119, 180); fill-opacity: 1; stroke: rgb(255, 255, 255); stroke-opacity: 1;"/><path class="point" transform="translate(33.37,54)" d="M0,0A0,0 0 1,1 0,-0A0,0 0 0,1 0,0Z" style="opacity: 0.7; stroke-width: 2px; fill: rgb(31, 119, 180); fill-opacity: 1; stroke: rgb(255, 255, 255); stroke-opacity: 1;"/></g><g class="text"/></g><g class="trace scatter trace936d36" style="stroke-miterlimit: 2; opacity: 1;"><g class="fills"/><g class="errorbars"/><g class="lines"/><g class="points"><path class="point" transform="translate(182.72,955.59)" d="M10.73,0A10.73,10.73 0 1,1 0,-10.73A10.73,10.73 0 0,1 10.73,0Z" style="opacity: 0.7; stroke-width: 2px; fill: rgb(255, 127, 14); fill-opacity: 1; stroke: rgb(255, 255, 255); stroke-opacity: 1;"/><path class="point" transform="translate(182.72,912.66)" d="M0.61,0A0.61,0.61 0 1,1 0,-0.61A0.61,0.61 0 0,1 0.61,0Z" style="opacity: 0.7; stroke-width: 2px; fill: rgb(255, 127, 14); fill-opacity: 1; stroke: rgb(255, 255, 255); stroke-opacity: 1;"/><path class="point" transform="translate(182.72,869.73)" d="M5.72,0A5.72,5.72 0 1,1 0,-5.72A5.72,5.72 0 0,1 5.72,0Z" style="opacity: 0.7; stroke-width: 2px; fill: rgb(255, 127, 14); fill-opacity: 1; stroke: rgb(255, 255, 255); stroke-opacity: 1;"/><path class="point" transform="translate(182.72,826.79)" d="M3.88,0A3.88,3.88 0 1,1 0,-3.88A3.88,3.88 0 0,1 3.88,0Z" style="opacity: 0.7; stroke-width: 2px; fill: rgb(255, 127, 14); fill-opacity: 1; stroke: rgb(255, 255, 255); stroke-opacity: 1;"/><path class="point" transform="translate(182.72,783.86)" d="M0.2,0A0.2,0.2 0 1,1 0,-0.2A0.2,0.2 0 0,1 0.2,0Z" style="opacity: 0.7; stroke-width: 2px; fill: rgb(255, 127, 14); fill-opacity: 1; stroke: rgb(255, 255, 255); stroke-opacity: 1;"/><path class="point" transform="translate(182.72,740.93)" d="M12.46,0A12.46,12.46 0 1,1 0,-12.46A12.46,12.46 0 0,1 12.46,0Z" style="opacity: 0.7; stroke-width: 2px; fill: rgb(255, 127, 14); fill-opacity: 1; stroke: rgb(255, 255, 255); stroke-opacity: 1;"/><path class="point" transform="translate(182.72,697.99)" d="M0.31,0A0.31,0.31 0 1,1 0,-0.31A0.31,0.31 0 0,1 0.31,0Z" style="opacity: 0.7; stroke-width: 2px; fill: rgb(255, 127, 14); fill-opacity: 1; stroke: rgb(255, 255, 255); stroke-opacity: 1;"/><path class="point" transform="translate(182.72,655.06)" d="M2.25,0A2.25,2.25 0 1,1 0,-2.25A2.25,2.25 0 0,1 2.25,0Z" style="opacity: 0.7; stroke-width: 2px; fill: rgb(255, 127, 14); fill-opacity: 1; stroke: rgb(255, 255, 255); stroke-opacity: 1;"/><path class="point" transform="translate(182.72,612.13)" d="M0.82,0A0.82,0.82 0 1,1 0,-0.82A0.82,0.82 0 0,1 0.82,0Z" style="opacity: 0.7; stroke-width: 2px; fill: rgb(255, 127, 14); fill-opacity: 1; stroke: rgb(255, 255, 255); stroke-opacity: 1;"/><path class="point" transform="translate(182.72,569.2)" d="M0.31,0A0.31,0.31 0 1,1 0,-0.31A0.31,0.31 0 0,1 0.31,0Z" style="opacity: 0.7; stroke-width: 2px; fill: rgb(255, 127, 14); fill-opacity: 1; stroke: rgb(255, 255, 255); stroke-opacity: 1;"/><path class="point" transform="translate(182.72,526.26)" d="M0.1,0A0.1,0.1 0 1,1 0,-0.1A0.1,0.1 0 0,1 0.1,0Z" style="opacity: 0.7; stroke-width: 2px; fill: rgb(255, 127, 14); fill-opacity: 1; stroke: rgb(255, 255, 255); stroke-opacity: 1;"/><path class="point" transform="translate(182.72,483.33)" d="M2.35,0A2.35,2.35 0 1,1 0,-2.35A2.35,2.35 0 0,1 2.35,0Z" style="opacity: 0.7; stroke-width: 2px; fill: rgb(255, 127, 14); fill-opacity: 1; stroke: rgb(255, 255, 255); stroke-opacity: 1;"/><path class="point" transform="translate(182.72,440.4)" d="M3.98,0A3.98,3.98 0 1,1 0,-3.98A3.98,3.98 0 0,1 3.98,0Z" style="opacity: 0.7; stroke-width: 2px; fill: rgb(255, 127, 14); fill-opacity: 1; stroke: rgb(255, 255, 255); stroke-opacity: 1;"/><path class="point" transform="translate(182.72,397.46)" d="M2.15,0A2.15,2.15 0 1,1 0,-2.15A2.15,2.15 0 0,1 2.15,0Z" style="opacity: 0.7; stroke-width: 2px; fill: rgb(255, 127, 14); fill-opacity: 1; stroke: rgb(255, 255, 255); stroke-opacity: 1;"/><path class="point" transform="translate(182.72,354.53)" d="M0,0A0,0 0 1,1 0,-0A0,0 0 0,1 0,0Z" style="opacity: 0.7; stroke-width: 2px; fill: rgb(255, 127, 14); fill-opacity: 1; stroke: rgb(255, 255, 255); stroke-opacity: 1;"/><path class="point" transform="translate(182.72,311.6)" d="M0,0A0,0 0 1,1 0,-0A0,0 0 0,1 0,0Z" style="opacity: 0.7; stroke-width: 2px; fill: rgb(255, 127, 14); fill-opacity: 1; stroke: rgb(255, 255, 255); stroke-opacity: 1;"/><path class="point" transform="translate(182.72,268.66)" d="M0.41,0A0.41,0.41 0 1,1 0,-0.41A0.41,0.41 0 0,1 0.41,0Z" style="opacity: 0.7; stroke-width: 2px; fill: rgb(255, 127, 14); fill-opacity: 1; stroke: rgb(255, 255, 255); stroke-opacity: 1;"/><path class="point" transform="translate(182.72,225.73)" d="M12.36,0A12.36,12.36 0 1,1 0,-12.36A12.36,12.36 0 0,1 12.36,0Z" style="opacity: 0.7; stroke-width: 2px; fill: rgb(255, 127, 14); fill-opacity: 1; stroke: rgb(255, 255, 255); stroke-opacity: 1;"/><path class="point" transform="translate(182.72,182.8)" d="M24.82,0A24.82,24.82 0 1,1 0,-24.82A24.82,24.82 0 0,1 24.82,0Z" style="opacity: 0.7; stroke-width: 2px; fill: rgb(255, 127, 14); fill-opacity: 1; stroke: rgb(255, 255, 255); stroke-opacity: 1;"/><path class="point" transform="translate(182.72,139.87)" d="M0.31,0A0.31,0.31 0 1,1 0,-0.31A0.31,0.31 0 0,1 0.31,0Z" style="opacity: 0.7; stroke-width: 2px; fill: rgb(255, 127, 14); fill-opacity: 1; stroke: rgb(255, 255, 255); stroke-opacity: 1;"/><path class="point" transform="translate(182.72,96.93)" d="M0,0A0,0 0 1,1 0,-0A0,0 0 0,1 0,0Z" style="opacity: 0.7; stroke-width: 2px; fill: rgb(255, 127, 14); fill-opacity: 1; stroke: rgb(255, 255, 255); stroke-opacity: 1;"/><path class="point" transform="translate(182.72,54)" d="M1.53,0A1.53,1.53 0 1,1 0,-1.53A1.53,1.53 0 0,1 1.53,0Z" style="opacity: 0.7; stroke-width: 2px; fill: rgb(255, 127, 14); fill-opacity: 1; stroke: rgb(255, 255, 255); stroke-opacity: 1;"/></g><g class="text"/></g></g></g><g class="overplot"/><path class="xlines-above crisp" d="M0,0" style="fill: none;"/><path class="ylines-above crisp" d="M0,0" style="fill: none;"/><g class="overlines-above"/><g class="xaxislayer-above"><g class="xtick"><text text-anchor="middle" x="0" y="1133" transform="translate(328.37,0)" style="font-family: 'Open Sans', verdana, arial, sans-serif; font-size: 12px; fill: rgb(42, 63, 95); fill-opacity: 1; white-space: pre; opacity: 1;">BAR_Set_percentage</text></g><g class="xtick"><text text-anchor="middle" x="0" y="1133" transform="translate(477.72,0)" style="font-family: 'Open Sans', verdana, arial, sans-serif; font-size: 12px; fill: rgb(42, 63, 95); fill-opacity: 1; white-space: pre; opacity: 1;">NBR_Set_percentage</text></g></g><g class="yaxislayer-above"><g class="ytick"><text text-anchor="end" x="294" y="4.199999999999999" transform="translate(0,1055.5900000000001)" style="font-family: 'Open Sans', verdana, arial, sans-serif; font-size: 12px; fill: rgb(42, 63, 95); fill-opacity: 1; white-space: pre; opacity: 1;">Alternate Carbon Metabolism</text></g><g class="ytick"><text text-anchor="end" x="294" y="4.199999999999999" transform="translate(0,1012.66)" style="font-family: 'Open Sans', verdana, arial, sans-serif; font-size: 12px; fill: rgb(42, 63, 95); fill-opacity: 1; white-space: pre; opacity: 1;">Arginine and Proline Metabolism</text></g><g class="ytick"><text text-anchor="end" x="294" y="4.199999999999999" transform="translate(0,969.73)" style="font-family: 'Open Sans', verdana, arial, sans-serif; font-size: 12px; fill: rgb(42, 63, 95); fill-opacity: 1; white-space: pre; opacity: 1;">Cell Envelope Biosynthesis</text></g><g class="ytick"><text text-anchor="end" x="294" y="4.199999999999999" transform="translate(0,926.79)" style="font-family: 'Open Sans', verdana, arial, sans-serif; font-size: 12px; fill: rgb(42, 63, 95); fill-opacity: 1; white-space: pre; opacity: 1;">Cofactor and Prosthetic Group Biosynthesis</text></g><g class="ytick"><text text-anchor="end" x="294" y="4.199999999999999" transform="translate(0,883.86)" style="font-family: 'Open Sans', verdana, arial, sans-serif; font-size: 12px; fill: rgb(42, 63, 95); fill-opacity: 1; white-space: pre; opacity: 1;">Extracellular exchange</text></g><g class="ytick"><text text-anchor="end" x="294" y="4.199999999999999" transform="translate(0,840.93)" style="font-family: 'Open Sans', verdana, arial, sans-serif; font-size: 12px; fill: rgb(42, 63, 95); fill-opacity: 1; white-space: pre; opacity: 1;">Glycerophospholipid Metabolism</text></g><g class="ytick"><text text-anchor="end" x="294" y="4.199999999999999" transform="translate(0,797.99)" style="font-family: 'Open Sans', verdana, arial, sans-serif; font-size: 12px; fill: rgb(42, 63, 95); fill-opacity: 1; white-space: pre; opacity: 1;">Glycolysis/Gluconeogenesis</text></g><g class="ytick"><text text-anchor="end" x="294" y="4.199999999999999" transform="translate(0,755.06)" style="font-family: 'Open Sans', verdana, arial, sans-serif; font-size: 12px; fill: rgb(42, 63, 95); fill-opacity: 1; white-space: pre; opacity: 1;">Inorganic Ion Transport and Metabolism</text></g><g class="ytick"><text text-anchor="end" x="294" y="4.199999999999999" transform="translate(0,712.13)" style="font-family: 'Open Sans', verdana, arial, sans-serif; font-size: 12px; fill: rgb(42, 63, 95); fill-opacity: 1; white-space: pre; opacity: 1;">Lipopolysaccharide Biosynthesis / Recycling</text></g><g class="ytick"><text text-anchor="end" x="294" y="4.199999999999999" transform="translate(0,669.2)" style="font-family: 'Open Sans', verdana, arial, sans-serif; font-size: 12px; fill: rgb(42, 63, 95); fill-opacity: 1; white-space: pre; opacity: 1;">Membrane Lipid Metabolism</text></g><g class="ytick"><text text-anchor="end" x="294" y="4.199999999999999" transform="translate(0,626.26)" style="font-family: 'Open Sans', verdana, arial, sans-serif; font-size: 12px; fill: rgb(42, 63, 95); fill-opacity: 1; white-space: pre; opacity: 1;">Murein Biosynthesis</text></g><g class="ytick"><text text-anchor="end" x="294" y="4.199999999999999" transform="translate(0,583.3299999999999)" style="font-family: 'Open Sans', verdana, arial, sans-serif; font-size: 12px; fill: rgb(42, 63, 95); fill-opacity: 1; white-space: pre; opacity: 1;">Murein Recycling</text></g><g class="ytick"><text text-anchor="end" x="294" y="4.199999999999999" transform="translate(0,540.4)" style="font-family: 'Open Sans', verdana, arial, sans-serif; font-size: 12px; fill: rgb(42, 63, 95); fill-opacity: 1; white-space: pre; opacity: 1;">Nucleotide Salvage Pathway</text></g><g class="ytick"><text text-anchor="end" x="294" y="4.199999999999999" transform="translate(0,497.46)" style="font-family: 'Open Sans', verdana, arial, sans-serif; font-size: 12px; fill: rgb(42, 63, 95); fill-opacity: 1; white-space: pre; opacity: 1;">Oxidative Phosphorylation</text></g><g class="ytick"><text text-anchor="end" x="294" y="4.199999999999999" transform="translate(0,454.53)" style="font-family: 'Open Sans', verdana, arial, sans-serif; font-size: 12px; fill: rgb(42, 63, 95); fill-opacity: 1; white-space: pre; opacity: 1;">Pentose Phosphate Pathway</text></g><g class="ytick"><text text-anchor="end" x="294" y="4.199999999999999" transform="translate(0,411.6)" style="font-family: 'Open Sans', verdana, arial, sans-serif; font-size: 12px; fill: rgb(42, 63, 95); fill-opacity: 1; white-space: pre; opacity: 1;">Purine and Pyrimidine Biosynthesis</text></g><g class="ytick"><text text-anchor="end" x="294" y="4.199999999999999" transform="translate(0,368.66)" style="font-family: 'Open Sans', verdana, arial, sans-serif; font-size: 12px; fill: rgb(42, 63, 95); fill-opacity: 1; white-space: pre; opacity: 1;">Threonine and Lysine Metabolism</text></g><g class="ytick"><text text-anchor="end" x="294" y="4.199999999999999" transform="translate(0,325.73)" style="font-family: 'Open Sans', verdana, arial, sans-serif; font-size: 12px; fill: rgb(42, 63, 95); fill-opacity: 1; white-space: pre; opacity: 1;">Transport, Inner Membrane</text></g><g class="ytick"><text text-anchor="end" x="294" y="4.199999999999999" transform="translate(0,282.8)" style="font-family: 'Open Sans', verdana, arial, sans-serif; font-size: 12px; fill: rgb(42, 63, 95); fill-opacity: 1; white-space: pre; opacity: 1;">Transport, Outer Membrane Porin</text></g><g class="ytick"><text text-anchor="end" x="294" y="4.199999999999999" transform="translate(0,239.87)" style="font-family: 'Open Sans', verdana, arial, sans-serif; font-size: 12px; fill: rgb(42, 63, 95); fill-opacity: 1; white-space: pre; opacity: 1;">Tyrosine, Tryptophan, and Phenylalanine Metabolism</text></g><g class="ytick"><text text-anchor="end" x="294" y="4.199999999999999" transform="translate(0,196.93)" style="font-family: 'Open Sans', verdana, arial, sans-serif; font-size: 12px; fill: rgb(42, 63, 95); fill-opacity: 1; white-space: pre; opacity: 1;">Valine, Leucine, and Isoleucine Metabolism</text></g><g class="ytick"><text text-anchor="end" x="294" y="4.199999999999999" transform="translate(0,154)" style="font-family: 'Open Sans', verdana, arial, sans-serif; font-size: 12px; fill: rgb(42, 63, 95); fill-opacity: 1; white-space: pre; opacity: 1;">tRNA Charging</text></g></g><g class="overaxes-above"/></g></g><g class="polarlayer"/><g class="smithlayer"/><g class="ternarylayer"/><g class="geolayer"/><g class="funnelarealayer"/><g class="pielayer"/><g class="iciclelayer"/><g class="treemaplayer"/><g class="sunburstlayer"/><g class="glimages"/><defs id="topdefs-03f1bf"><g class="clips"/></defs><g class="layer-above"><g class="imagelayer"/><g class="shapelayer"/></g><g class="infolayer"><g class="g-gtitle"><text class="gtitle" x="330" y="60" text-anchor="middle" dy="0.7em" style="font-family: 'Open Sans', verdana, arial, sans-serif; font-size: 16px; fill: rgb(42, 63, 95); opacity: 1; font-weight: normal; white-space: pre;">Percentage of Subsystem functions in BARs &amp; NBRs</text></g><g class="g-xtitle"/><g class="g-ytitle"/></g></svg>