<svg class="main-svg" xmlns="http://www.w3.org/2000/svg" xmlns:xlink="http://www.w3.org/1999/xlink" width="426" height="1200" style="" viewBox="0 0 426 1200"><rect x="0" y="0" width="426" height="1200" style="fill: rgb(255, 255, 255); fill-opacity: 1;"/><defs id="defs-c570cd"><g class="clips"><clipPath id="clipc570cdxyplot" class="plotclip"><rect width="203" height="1020"/></clipPath><clipPath class="axesclip" id="clipc570cdx"><rect x="143" y="0" width="203" height="1200"/></clipPath><clipPath class="axesclip" id="clipc570cdy"><rect x="0" y="100" width="426" height="1020"/></clipPath><clipPath class="axesclip" id="clipc570cdxy"><rect x="143" y="100" width="203" height="1020"/></clipPath></g><g class="gradients"/><g class="patterns"/></defs><g class="bglayer"><rect class="bg" x="143" y="100" width="203" height="1020" style="fill: rgb(229, 236, 246); fill-opacity: 1; stroke-width: 0;"/></g><g class="layer-below"><g class="imagelayer"/><g class="shapelayer"/></g><g class="cartesianlayer"><g class="subplot xy"><g class="layer-subplot"><g class="shapelayer"/><g class="imagelayer"/></g><g class="minor-gridlayer"><g class="x"/><g class="y"/></g><g class="gridlayer"><g class="x"><path class="xgrid crisp" transform="translate(172.77,0)" d="M0,100v1020" style="stroke: rgb(255, 255, 255); stroke-opacity: 1; stroke-width: 1px;"/><path class="xgrid crisp" transform="translate(303.40999999999997,0)" d="M0,100v1020" style="stroke: rgb(255, 255, 255); stroke-opacity: 1; stroke-width: 1px;"/></g><g class="y"><path class="ygrid crisp" transform="translate(0,1049.38)" d="M143,0h203" style="stroke: rgb(255, 255, 255); stroke-opacity: 1; stroke-width: 1px;"/><path class="ygrid crisp" transform="translate(0,960.86)" d="M143,0h203" style="stroke: rgb(255, 255, 255); stroke-opacity: 1; stroke-width: 1px;"/><path class="ygrid crisp" transform="translate(0,872.34)" d="M143,0h203" style="stroke: rgb(255, 255, 255); stroke-opacity: 1; stroke-width: 1px;"/><path class="ygrid crisp" transform="translate(0,783.82)" d="M143,0h203" style="stroke: rgb(255, 255, 255); stroke-opacity: 1; stroke-width: 1px;"/><path class="ygrid crisp" transform="translate(0,695.3)" d="M143,0h203" style="stroke: rgb(255, 255, 255); stroke-opacity: 1; stroke-width: 1px;"/><path class="ygrid crisp" transform="translate(0,606.78)" d="M143,0h203" style="stroke: rgb(255, 255, 255); stroke-opacity: 1; stroke-width: 1px;"/><path class="ygrid crisp" transform="translate(0,518.26)" d="M143,0h203" style="stroke: rgb(255, 255, 255); stroke-opacity: 1; stroke-width: 1px;"/><path class="ygrid crisp" transform="translate(0,429.74)" d="M143,0h203" style="stroke: rgb(255, 255, 255); stroke-opacity: 1; stroke-width: 1px;"/><path class="ygrid crisp" transform="translate(0,341.22)" d="M143,0h203" style="stroke: rgb(255, 255, 255); stroke-opacity: 1; stroke-width: 1px;"/><path class="ygrid crisp" transform="translate(0,252.7)" d="M143,0h203" style="stroke: rgb(255, 255, 255); stroke-opacity: 1; stroke-width: 1px;"/><path class="ygrid crisp" transform="translate(0,164.18)" d="M143,0h203" style="stroke: rgb(255, 255, 255); stroke-opacity: 1; stroke-width: 1px;"/></g></g><g class="zerolinelayer"/><path class="xlines-below"/><path class="ylines-below"/><g class="overlines-below"/><g class="xaxislayer-below"/><g class="yaxislayer-below"/><g class="overaxes-below"/><g class="plot" transform="translate(143,100)" clip-path="url(#clipc570cdxyplot)"><g class="scatterlayer mlayer"><g class="trace scatter tracea4f36e" style="stroke-miterlimit: 2; opacity: 1;"><g class="fills"/><g class="errorbars"/><g class="lines"/><g class="points"><path class="point" transform="translate(29.77,949.38)" d="M15.69,0A15.69,15.69 0 1,1 0,-15.69A15.69,15.69 0 0,1 15.69,0Z" style="opacity: 0.7; stroke-width: 2px; fill: rgb(31, 119, 180); fill-opacity: 1; stroke: rgb(255, 255, 255); stroke-opacity: 1;"/><path class="point" transform="translate(29.77,860.86)" d="M4.78,0A4.78,4.78 0 1,1 0,-4.78A4.78,4.78 0 0,1 4.78,0Z" style="opacity: 0.7; stroke-width: 2px; fill: rgb(31, 119, 180); fill-opacity: 1; stroke: rgb(255, 255, 255); stroke-opacity: 1;"/><path class="point" transform="translate(29.77,772.34)" d="M12.26,0A12.26,12.26 0 1,1 0,-12.26A12.26,12.26 0 0,1 12.26,0Z" style="opacity: 0.7; stroke-width: 2px; fill: rgb(31, 119, 180); fill-opacity: 1; stroke: rgb(255, 255, 255); stroke-opacity: 1;"/><path class="point" transform="translate(29.77,683.82)" d="M4.05,0A4.05,4.05 0 1,1 0,-4.05A4.05,4.05 0 0,1 4.05,0Z" style="opacity: 0.7; stroke-width: 2px; fill: rgb(31, 119, 180); fill-opacity: 1; stroke: rgb(255, 255, 255); stroke-opacity: 1;"/><path class="point" transform="translate(29.77,595.3)" d="M4.66,0A4.66,4.66 0 1,1 0,-4.66A4.66,4.66 0 0,1 4.66,0Z" style="opacity: 0.7; stroke-width: 2px; fill: rgb(31, 119, 180); fill-opacity: 1; stroke: rgb(255, 255, 255); stroke-opacity: 1;"/><path class="point" transform="translate(29.77,506.78)" d="M5.15,0A5.15,5.15 0 1,1 0,-5.15A5.15,5.15 0 0,1 5.15,0Z" style="opacity: 0.7; stroke-width: 2px; fill: rgb(31, 119, 180); fill-opacity: 1; stroke: rgb(255, 255, 255); stroke-opacity: 1;"/><path class="point" transform="translate(29.77,418.26)" d="M4.9,0A4.9,4.9 0 1,1 0,-4.9A4.9,4.9 0 0,1 4.9,0Z" style="opacity: 0.7; stroke-width: 2px; fill: rgb(31, 119, 180); fill-opacity: 1; stroke: rgb(255, 255, 255); stroke-opacity: 1;"/><path class="point" transform="translate(29.77,329.74)" d="M2.45,0A2.45,2.45 0 1,1 0,-2.45A2.45,2.45 0 0,1 2.45,0Z" style="opacity: 0.7; stroke-width: 2px; fill: rgb(31, 119, 180); fill-opacity: 1; stroke: rgb(255, 255, 255); stroke-opacity: 1;"/><path class="point" transform="translate(29.77,241.22)" d="M4.78,0A4.78,4.78 0 1,1 0,-4.78A4.78,4.78 0 0,1 4.78,0Z" style="opacity: 0.7; stroke-width: 2px; fill: rgb(31, 119, 180); fill-opacity: 1; stroke: rgb(255, 255, 255); stroke-opacity: 1;"/><path class="point" transform="translate(29.77,152.7)" d="M2.7,0A2.7,2.7 0 1,1 0,-2.7A2.7,2.7 0 0,1 2.7,0Z" style="opacity: 0.7; stroke-width: 2px; fill: rgb(31, 119, 180); fill-opacity: 1; stroke: rgb(255, 255, 255); stroke-opacity: 1;"/><path class="point" transform="translate(29.77,64.18)" d="M10.54,0A10.54,10.54 0 1,1 0,-10.54A10.54,10.54 0 0,1 10.54,0Z" style="opacity: 0.7; stroke-width: 2px; fill: rgb(31, 119, 180); fill-opacity: 1; stroke: rgb(255, 255, 255); stroke-opacity: 1;"/></g><g class="text"/></g><g class="trace scatter trace5572c1" style="stroke-miterlimit: 2; opacity: 1;"><g class="fills"/><g class="errorbars"/><g class="lines"/><g class="points"><path class="point" transform="translate(160.41,949.38)" d="M7.18,0A7.18,7.18 0 1,1 0,-7.18A7.18,7.18 0 0,1 7.18,0Z" style="opacity: 0.7; stroke-width: 2px; fill: rgb(255, 127, 14); fill-opacity: 1; stroke: rgb(255, 255, 255); stroke-opacity: 1;"/><path class="point" transform="translate(160.41,860.86)" d="M3.68,0A3.68,3.68 0 1,1 0,-3.68A3.68,3.68 0 0,1 3.68,0Z" style="opacity: 0.7; stroke-width: 2px; fill: rgb(255, 127, 14); fill-opacity: 1; stroke: rgb(255, 255, 255); stroke-opacity: 1;"/><path class="point" transform="translate(160.41,772.34)" d="M25.95,0A25.95,25.95 0 1,1 0,-25.95A25.95,25.95 0 0,1 25.95,0Z" style="opacity: 0.7; stroke-width: 2px; fill: rgb(255, 127, 14); fill-opacity: 1; stroke: rgb(255, 255, 255); stroke-opacity: 1;"/><path class="point" transform="translate(160.41,683.82)" d="M1.84,0A1.84,1.84 0 1,1 0,-1.84A1.84,1.84 0 0,1 1.84,0Z" style="opacity: 0.7; stroke-width: 2px; fill: rgb(255, 127, 14); fill-opacity: 1; stroke: rgb(255, 255, 255); stroke-opacity: 1;"/><path class="point" transform="translate(160.41,595.3)" d="M6.99,0A6.99,6.99 0 1,1 0,-6.99A6.99,6.99 0 0,1 6.99,0Z" style="opacity: 0.7; stroke-width: 2px; fill: rgb(255, 127, 14); fill-opacity: 1; stroke: rgb(255, 255, 255); stroke-opacity: 1;"/><path class="point" transform="translate(160.41,506.78)" d="M3.87,0A3.87,3.87 0 1,1 0,-3.87A3.87,3.87 0 0,1 3.87,0Z" style="opacity: 0.7; stroke-width: 2px; fill: rgb(255, 127, 14); fill-opacity: 1; stroke: rgb(255, 255, 255); stroke-opacity: 1;"/><path class="point" transform="translate(160.41,418.26)" d="M10.49,0A10.49,10.49 0 1,1 0,-10.49A10.49,10.49 0 0,1 10.49,0Z" style="opacity: 0.7; stroke-width: 2px; fill: rgb(255, 127, 14); fill-opacity: 1; stroke: rgb(255, 255, 255); stroke-opacity: 1;"/><path class="point" transform="translate(160.41,329.74)" d="M1.29,0A1.29,1.29 0 1,1 0,-1.29A1.29,1.29 0 0,1 1.29,0Z" style="opacity: 0.7; stroke-width: 2px; fill: rgb(255, 127, 14); fill-opacity: 1; stroke: rgb(255, 255, 255); stroke-opacity: 1;"/><path class="point" transform="translate(160.41,241.22)" d="M3.87,0A3.87,3.87 0 1,1 0,-3.87A3.87,3.87 0 0,1 3.87,0Z" style="opacity: 0.7; stroke-width: 2px; fill: rgb(255, 127, 14); fill-opacity: 1; stroke: rgb(255, 255, 255); stroke-opacity: 1;"/><path class="point" transform="translate(160.41,152.7)" d="M3.13,0A3.13,3.13 0 1,1 0,-3.13A3.13,3.13 0 0,1 3.13,0Z" style="opacity: 0.7; stroke-width: 2px; fill: rgb(255, 127, 14); fill-opacity: 1; stroke: rgb(255, 255, 255); stroke-opacity: 1;"/><path class="point" transform="translate(160.41,64.18)" d="M9.75,0A9.75,9.75 0 1,1 0,-9.75A9.75,9.75 0 0,1 9.75,0Z" style="opacity: 0.7; stroke-width: 2px; fill: rgb(255, 127, 14); fill-opacity: 1; stroke: rgb(255, 255, 255); stroke-opacity: 1;"/></g><g class="text"/></g></g></g><g class="overplot"/><path class="xlines-above crisp" d="M0,0" style="fill: none;"/><path class="ylines-above crisp" d="M0,0" style="fill: none;"/><g class="overlines-above"/><g class="xaxislayer-above"><g class="xtick"><text text-anchor="middle" x="0" y="1133" transform="translate(172.77,0)" style="font-family: 'Open Sans', verdana, arial, sans-serif; font-size: 12px; fill: rgb(42, 63, 95); fill-opacity: 1; white-space: pre; opacity: 1;">BAR_Set_percentage</text></g><g class="xtick"><text text-anchor="middle" x="0" y="1133" transform="translate(303.40999999999997,0)" style="font-family: 'Open Sans', verdana, arial, sans-serif; font-size: 12px; fill: rgb(42, 63, 95); fill-opacity: 1; white-space: pre; opacity: 1;">NBR_Set_percentage</text></g></g><g class="yaxislayer-above"><g class="ytick"><text text-anchor="end" x="142" y="4.199999999999999" transform="translate(0,1049.38)" style="font-family: 'Open Sans', verdana, arial, sans-serif; font-size: 12px; fill: rgb(42, 63, 95); fill-opacity: 1; white-space: pre; opacity: 1;">Amino Acid Metabolism</text></g><g class="ytick"><text text-anchor="end" x="142" y="4.199999999999999" transform="translate(0,960.86)" style="font-family: 'Open Sans', verdana, arial, sans-serif; font-size: 12px; fill: rgb(42, 63, 95); fill-opacity: 1; white-space: pre; opacity: 1;">Anaerobiosis</text></g><g class="ytick"><text text-anchor="end" x="142" y="4.199999999999999" transform="translate(0,872.34)" style="font-family: 'Open Sans', verdana, arial, sans-serif; font-size: 12px; fill: rgb(42, 63, 95); fill-opacity: 1; white-space: pre; opacity: 1;">Carbon Metabolism</text></g><g class="ytick"><text text-anchor="end" x="142" y="4.199999999999999" transform="translate(0,783.82)" style="font-family: 'Open Sans', verdana, arial, sans-serif; font-size: 12px; fill: rgb(42, 63, 95); fill-opacity: 1; white-space: pre; opacity: 1;">Energy Metabolism</text></g><g class="ytick"><text text-anchor="end" x="142" y="4.199999999999999" transform="translate(0,695.3)" style="font-family: 'Open Sans', verdana, arial, sans-serif; font-size: 12px; fill: rgb(42, 63, 95); fill-opacity: 1; white-space: pre; opacity: 1;">Membrane Homeostasis</text></g><g class="ytick"><text text-anchor="end" x="142" y="4.199999999999999" transform="translate(0,606.78)" style="font-family: 'Open Sans', verdana, arial, sans-serif; font-size: 12px; fill: rgb(42, 63, 95); fill-opacity: 1; white-space: pre; opacity: 1;">Metal Homeostasis</text></g><g class="ytick"><text text-anchor="end" x="142" y="4.199999999999999" transform="translate(0,518.26)" style="font-family: 'Open Sans', verdana, arial, sans-serif; font-size: 12px; fill: rgb(42, 63, 95); fill-opacity: 1; white-space: pre; opacity: 1;">Nitrogen Metabolism</text></g><g class="ytick"><text text-anchor="end" x="142" y="4.199999999999999" transform="translate(0,429.74)" style="font-family: 'Open Sans', verdana, arial, sans-serif; font-size: 12px; fill: rgb(42, 63, 95); fill-opacity: 1; white-space: pre; opacity: 1;">Nucleotide Metabolism</text></g><g class="ytick"><text text-anchor="end" x="142" y="4.199999999999999" transform="translate(0,341.22)" style="font-family: 'Open Sans', verdana, arial, sans-serif; font-size: 12px; fill: rgb(42, 63, 95); fill-opacity: 1; white-space: pre; opacity: 1;">Redox Stress</text></g><g class="ytick"><text text-anchor="end" x="142" y="4.199999999999999" transform="translate(0,252.7)" style="font-family: 'Open Sans', verdana, arial, sans-serif; font-size: 12px; fill: rgb(42, 63, 95); fill-opacity: 1; white-space: pre; opacity: 1;">Stringent Response</text></g><g class="ytick"><text text-anchor="end" x="142" y="4.199999999999999" transform="translate(0,164.18)" style="font-family: 'Open Sans', verdana, arial, sans-serif; font-size: 12px; fill: rgb(42, 63, 95); fill-opacity: 1; white-space: pre; opacity: 1;">Unknown</text></g></g><g class="overaxes-above"/></g></g><g class="polarlayer"/><g class="smithlayer"/><g class="ternarylayer"/><g class="geolayer"/><g class="funnelarealayer"/><g class="pielayer"/><g class="iciclelayer"/><g class="treemaplayer"/><g class="sunburstlayer"/><g class="glimages"/><defs id="topdefs-c570cd"><g class="clips"/></defs><g class="layer-above"><g class="imagelayer"/><g class="shapelayer"/></g><g class="infolayer"><g class="g-gtitle"><text class="gtitle" x="234.3" y="60" text-anchor="middle" dy="0.7em" style="font-family: 'Open Sans', verdana, arial, sans-serif; font-size: 16px; fill: rgb(42, 63, 95); opacity: 1; font-weight: normal; white-space: pre;">Percentage of iModulon functions in BARs &amp; NBRs</text></g><g class="g-xtitle"/><g class="g-ytitle"/></g></svg>