<svg class="main-svg" xmlns="http://www.w3.org/2000/svg" xmlns:xlink="http://www.w3.org/1999/xlink" width="1000" height="800" style="" viewBox="0 0 1000 800"><rect x="0" y="0" width="1000" height="800" style="fill: rgb(255, 255, 255); fill-opacity: 1;"/><defs id="defs-64d83f"><g class="clips"><clipPath id="clip64d83fxyplot" class="plotclip"><rect width="770" height="680"/></clipPath><clipPath class="axesclip" id="clip64d83fx"><rect x="150" y="0" width="770" height="800"/></clipPath><clipPath class="axesclip" id="clip64d83fy"><rect x="0" y="40" width="1000" height="680"/></clipPath><clipPath class="axesclip" id="clip64d83fxy"><rect x="150" y="40" width="770" height="680"/></clipPath></g><g class="gradients"/><g class="patterns"/></defs><g class="bglayer"><rect class="bg" x="150" y="40" width="770" height="680" style="fill: rgb(255, 255, 255); fill-opacity: 1; stroke-width: 0;"/></g><g class="layer-below"><g class="imagelayer"/><g class="shapelayer"/></g><g class="cartesianlayer"><g class="subplot xy"><g class="layer-subplot"><g class="shapelayer"/><g class="imagelayer"/></g><g class="minor-gridlayer"><g class="x"/><g class="y"/></g><g class="gridlayer"><g class="x"/><g class="y"><path class="ygrid crisp" transform="translate(0,613.89)" d="M150,0h770" style="stroke: rgb(255, 255, 255); stroke-opacity: 1; stroke-width: 1px;"/><path class="ygrid crisp" transform="translate(0,490.79)" d="M150,0h770" style="stroke: rgb(255, 255, 255); stroke-opacity: 1; stroke-width: 1px;"/><path class="ygrid crisp" transform="translate(0,367.69)" d="M150,0h770" style="stroke: rgb(255, 255, 255); stroke-opacity: 1; stroke-width: 1px;"/><path class="ygrid crisp" transform="translate(0,244.59)" d="M150,0h770" style="stroke: rgb(255, 255, 255); stroke-opacity: 1; stroke-width: 1px;"/><path class="ygrid crisp" transform="translate(0,121.49)" d="M150,0h770" style="stroke: rgb(255, 255, 255); stroke-opacity: 1; stroke-width: 1px;"/></g></g><g class="zerolinelayer"/><path class="xlines-below"/><path class="ylines-below"/><g class="overlines-below"/><g class="xaxislayer-below"/><g class="yaxislayer-below"/><g class="overaxes-below"/><g class="plot" transform="translate(150,40)" clip-path="url(#clip64d83fxyplot)"><g class="barlayer mlayer"><g class="trace bars" style="opacity: 1;"><g class="points"><g class="point"><path d="M307.34,327.69V56.87H351.4V327.69Z" style="vector-effect: non-scaling-stroke; opacity: 1; stroke-width: 0.5px; fill: rgb(0, 0, 0); fill-opacity: 1; stroke: rgb(229, 236, 246); stroke-opacity: 1;"/><text class="bartext bartext-outside" text-anchor="middle" data-notex="1" x="0" y="0" style="font-family: 'Open Sans', verdana, arial, sans-serif; font-size: 12px; fill: rgb(42, 63, 95); fill-opacity: 1; white-space: pre;" transform="translate(329.2059375,50.87)">11</text></g><g class="point"><path d="M362.42,327.69V253.83H406.48V327.69Z" style="vector-effect: non-scaling-stroke; opacity: 1; stroke-width: 0.5px; fill: rgb(0, 0, 0); fill-opacity: 1; stroke: rgb(229, 236, 246); stroke-opacity: 1;"/><text class="bartext bartext-outside" text-anchor="middle" data-notex="1" x="0" y="0" style="font-family: 'Open Sans', verdana, arial, sans-serif; font-size: 12px; fill: rgb(42, 63, 95); fill-opacity: 1; white-space: pre;" transform="translate(384.28593750000005,247.83)">3</text></g><g class="point"><path d="M417.5,327.69V303.07H461.56V327.69Z" style="vector-effect: non-scaling-stroke; opacity: 1; stroke-width: 0.5px; fill: rgb(0, 0, 0); fill-opacity: 1; stroke: rgb(229, 236, 246); stroke-opacity: 1;"/><text class="bartext bartext-outside" text-anchor="middle" data-notex="1" x="0" y="0" style="font-family: 'Open Sans', verdana, arial, sans-serif; font-size: 12px; fill: rgb(42, 63, 95); fill-opacity: 1; white-space: pre;" transform="translate(439.3659375,297.07)">1</text></g><g class="point"><path d="M472.58,327.69V303.07H516.64V327.69Z" style="vector-effect: non-scaling-stroke; opacity: 1; stroke-width: 0.5px; fill: rgb(0, 0, 0); fill-opacity: 1; stroke: rgb(229, 236, 246); stroke-opacity: 1;"/><text class="bartext bartext-outside" text-anchor="middle" data-notex="1" x="0" y="0" style="font-family: 'Open Sans', verdana, arial, sans-serif; font-size: 12px; fill: rgb(42, 63, 95); fill-opacity: 1; white-space: pre;" transform="translate(494.4459375,297.07)">1</text></g><g class="point"><path d="M527.65,327.69V303.07H571.72V327.69Z" style="vector-effect: non-scaling-stroke; opacity: 1; stroke-width: 0.5px; fill: rgb(0, 0, 0); fill-opacity: 1; stroke: rgb(229, 236, 246); stroke-opacity: 1;"/><text class="bartext bartext-outside" text-anchor="middle" data-notex="1" x="0" y="0" style="font-family: 'Open Sans', verdana, arial, sans-serif; font-size: 12px; fill: rgb(42, 63, 95); fill-opacity: 1; white-space: pre;" transform="translate(549.5209375,297.07)">1</text></g><g class="point"><path d="M582.73,327.69V303.07H626.8V327.69Z" style="vector-effect: non-scaling-stroke; opacity: 1; stroke-width: 0.5px; fill: rgb(0, 0, 0); fill-opacity: 1; stroke: rgb(229, 236, 246); stroke-opacity: 1;"/><text class="bartext bartext-outside" text-anchor="middle" data-notex="1" x="0" y="0" style="font-family: 'Open Sans', verdana, arial, sans-serif; font-size: 12px; fill: rgb(42, 63, 95); fill-opacity: 1; white-space: pre;" transform="translate(604.6009375,297.07)">1</text></g><g class="point"><path d="M637.81,327.69V303.07H681.87V327.69Z" style="vector-effect: non-scaling-stroke; opacity: 1; stroke-width: 0.5px; fill: rgb(0, 0, 0); fill-opacity: 1; stroke: rgb(229, 236, 246); stroke-opacity: 1;"/><text class="bartext bartext-outside" text-anchor="middle" data-notex="1" x="0" y="0" style="font-family: 'Open Sans', verdana, arial, sans-serif; font-size: 12px; fill: rgb(42, 63, 95); fill-opacity: 1; white-space: pre;" transform="translate(659.6759374999999,297.07)">1</text></g><g class="point"><path d="M692.89,327.69V303.07H736.95V327.69Z" style="vector-effect: non-scaling-stroke; opacity: 1; stroke-width: 0.5px; fill: rgb(0, 0, 0); fill-opacity: 1; stroke: rgb(229, 236, 246); stroke-opacity: 1;"/><text class="bartext bartext-outside" text-anchor="middle" data-notex="1" x="0" y="0" style="font-family: 'Open Sans', verdana, arial, sans-serif; font-size: 12px; fill: rgb(42, 63, 95); fill-opacity: 1; white-space: pre;" transform="translate(714.7559375000001,297.07)">1</text></g></g></g></g><g class="scatterlayer mlayer"><g class="trace scatter tracefa974a" style="stroke-miterlimit: 2; opacity: 1;"><g class="fills"/><g class="errorbars"/><g class="lines"/><g class="points"><path class="point" transform="translate(329.37,357.48)" d="M37.5,0A37.5,37.5 0 1,1 0,-37.5A37.5,37.5 0 0,1 37.5,0Z" style="opacity: 1; stroke-width: 0px; fill: rgb(201, 201, 201); fill-opacity: 1;"/><path class="point" transform="translate(329.37,417.06)" d="M37.5,0A37.5,37.5 0 1,1 0,-37.5A37.5,37.5 0 0,1 37.5,0Z" style="opacity: 1; stroke-width: 0px; fill: rgb(201, 201, 201); fill-opacity: 1;"/><path class="point" transform="translate(329.37,476.64)" d="M37.5,0A37.5,37.5 0 1,1 0,-37.5A37.5,37.5 0 0,1 37.5,0Z" style="opacity: 1; stroke-width: 0px; fill: rgb(201, 201, 201); fill-opacity: 1;"/><path class="point" transform="translate(329.37,536.22)" d="M37.5,0A37.5,37.5 0 1,1 0,-37.5A37.5,37.5 0 0,1 37.5,0Z" style="opacity: 1; stroke-width: 0px; fill: rgb(201, 201, 201); fill-opacity: 1;"/><path class="point" transform="translate(329.37,595.8)" d="M37.5,0A37.5,37.5 0 1,1 0,-37.5A37.5,37.5 0 0,1 37.5,0Z" style="opacity: 1; stroke-width: 0px; fill: rgb(201, 201, 201); fill-opacity: 1;"/><path class="point" transform="translate(384.45,357.48)" d="M37.5,0A37.5,37.5 0 1,1 0,-37.5A37.5,37.5 0 0,1 37.5,0Z" style="opacity: 1; stroke-width: 0px; fill: rgb(201, 201, 201); fill-opacity: 1;"/><path class="point" transform="translate(384.45,417.06)" d="M37.5,0A37.5,37.5 0 1,1 0,-37.5A37.5,37.5 0 0,1 37.5,0Z" style="opacity: 1; stroke-width: 0px; fill: rgb(201, 201, 201); fill-opacity: 1;"/><path class="point" transform="translate(384.45,476.64)" d="M37.5,0A37.5,37.5 0 1,1 0,-37.5A37.5,37.5 0 0,1 37.5,0Z" style="opacity: 1; stroke-width: 0px; fill: rgb(201, 201, 201); fill-opacity: 1;"/><path class="point" transform="translate(384.45,536.22)" d="M37.5,0A37.5,37.5 0 1,1 0,-37.5A37.5,37.5 0 0,1 37.5,0Z" style="opacity: 1; stroke-width: 0px; fill: rgb(201, 201, 201); fill-opacity: 1;"/><path class="point" transform="translate(384.45,595.8)" d="M37.5,0A37.5,37.5 0 1,1 0,-37.5A37.5,37.5 0 0,1 37.5,0Z" style="opacity: 1; stroke-width: 0px; fill: rgb(201, 201, 201); fill-opacity: 1;"/><path class="point" transform="translate(439.53,357.48)" d="M37.5,0A37.5,37.5 0 1,1 0,-37.5A37.5,37.5 0 0,1 37.5,0Z" style="opacity: 1; stroke-width: 0px; fill: rgb(201, 201, 201); fill-opacity: 1;"/><path class="point" transform="translate(439.53,417.06)" d="M37.5,0A37.5,37.5 0 1,1 0,-37.5A37.5,37.5 0 0,1 37.5,0Z" style="opacity: 1; stroke-width: 0px; fill: rgb(201, 201, 201); fill-opacity: 1;"/><path class="point" transform="translate(439.53,476.64)" d="M37.5,0A37.5,37.5 0 1,1 0,-37.5A37.5,37.5 0 0,1 37.5,0Z" style="opacity: 1; stroke-width: 0px; fill: rgb(201, 201, 201); fill-opacity: 1;"/><path class="point" transform="translate(439.53,536.22)" d="M37.5,0A37.5,37.5 0 1,1 0,-37.5A37.5,37.5 0 0,1 37.5,0Z" style="opacity: 1; stroke-width: 0px; fill: rgb(201, 201, 201); fill-opacity: 1;"/><path class="point" transform="translate(439.53,595.8)" d="M37.5,0A37.5,37.5 0 1,1 0,-37.5A37.5,37.5 0 0,1 37.5,0Z" style="opacity: 1; stroke-width: 0px; fill: rgb(201, 201, 201); fill-opacity: 1;"/><path class="point" transform="translate(494.61,357.48)" d="M37.5,0A37.5,37.5 0 1,1 0,-37.5A37.5,37.5 0 0,1 37.5,0Z" style="opacity: 1; stroke-width: 0px; fill: rgb(201, 201, 201); fill-opacity: 1;"/><path class="point" transform="translate(494.61,417.06)" d="M37.5,0A37.5,37.5 0 1,1 0,-37.5A37.5,37.5 0 0,1 37.5,0Z" style="opacity: 1; stroke-width: 0px; fill: rgb(201, 201, 201); fill-opacity: 1;"/><path class="point" transform="translate(494.61,476.64)" d="M37.5,0A37.5,37.5 0 1,1 0,-37.5A37.5,37.5 0 0,1 37.5,0Z" style="opacity: 1; stroke-width: 0px; fill: rgb(201, 201, 201); fill-opacity: 1;"/><path class="point" transform="translate(494.61,536.22)" d="M37.5,0A37.5,37.5 0 1,1 0,-37.5A37.5,37.5 0 0,1 37.5,0Z" style="opacity: 1; stroke-width: 0px; fill: rgb(201, 201, 201); fill-opacity: 1;"/><path class="point" transform="translate(494.61,595.8)" d="M37.5,0A37.5,37.5 0 1,1 0,-37.5A37.5,37.5 0 0,1 37.5,0Z" style="opacity: 1; stroke-width: 0px; fill: rgb(201, 201, 201); fill-opacity: 1;"/><path class="point" transform="translate(549.69,357.48)" d="M37.5,0A37.5,37.5 0 1,1 0,-37.5A37.5,37.5 0 0,1 37.5,0Z" style="opacity: 1; stroke-width: 0px; fill: rgb(201, 201, 201); fill-opacity: 1;"/><path class="point" transform="translate(549.69,417.06)" d="M37.5,0A37.5,37.5 0 1,1 0,-37.5A37.5,37.5 0 0,1 37.5,0Z" style="opacity: 1; stroke-width: 0px; fill: rgb(201, 201, 201); fill-opacity: 1;"/><path class="point" transform="translate(549.69,476.64)" d="M37.5,0A37.5,37.5 0 1,1 0,-37.5A37.5,37.5 0 0,1 37.5,0Z" style="opacity: 1; stroke-width: 0px; fill: rgb(201, 201, 201); fill-opacity: 1;"/><path class="point" transform="translate(549.69,536.22)" d="M37.5,0A37.5,37.5 0 1,1 0,-37.5A37.5,37.5 0 0,1 37.5,0Z" style="opacity: 1; stroke-width: 0px; fill: rgb(201, 201, 201); fill-opacity: 1;"/><path class="point" transform="translate(549.69,595.8)" d="M37.5,0A37.5,37.5 0 1,1 0,-37.5A37.5,37.5 0 0,1 37.5,0Z" style="opacity: 1; stroke-width: 0px; fill: rgb(201, 201, 201); fill-opacity: 1;"/><path class="point" transform="translate(604.76,357.48)" d="M37.5,0A37.5,37.5 0 1,1 0,-37.5A37.5,37.5 0 0,1 37.5,0Z" style="opacity: 1; stroke-width: 0px; fill: rgb(201, 201, 201); fill-opacity: 1;"/><path class="point" transform="translate(604.76,417.06)" d="M37.5,0A37.5,37.5 0 1,1 0,-37.5A37.5,37.5 0 0,1 37.5,0Z" style="opacity: 1; stroke-width: 0px; fill: rgb(201, 201, 201); fill-opacity: 1;"/><path class="point" transform="translate(604.76,476.64)" d="M37.5,0A37.5,37.5 0 1,1 0,-37.5A37.5,37.5 0 0,1 37.5,0Z" style="opacity: 1; stroke-width: 0px; fill: rgb(201, 201, 201); fill-opacity: 1;"/><path class="point" transform="translate(604.76,536.22)" d="M37.5,0A37.5,37.5 0 1,1 0,-37.5A37.5,37.5 0 0,1 37.5,0Z" style="opacity: 1; stroke-width: 0px; fill: rgb(201, 201, 201); fill-opacity: 1;"/><path class="point" transform="translate(604.76,595.8)" d="M37.5,0A37.5,37.5 0 1,1 0,-37.5A37.5,37.5 0 0,1 37.5,0Z" style="opacity: 1; stroke-width: 0px; fill: rgb(201, 201, 201); fill-opacity: 1;"/><path class="point" transform="translate(659.84,357.48)" d="M37.5,0A37.5,37.5 0 1,1 0,-37.5A37.5,37.5 0 0,1 37.5,0Z" style="opacity: 1; stroke-width: 0px; fill: rgb(201, 201, 201); fill-opacity: 1;"/><path class="point" transform="translate(659.84,417.06)" d="M37.5,0A37.5,37.5 0 1,1 0,-37.5A37.5,37.5 0 0,1 37.5,0Z" style="opacity: 1; stroke-width: 0px; fill: rgb(201, 201, 201); fill-opacity: 1;"/><path class="point" transform="translate(659.84,476.64)" d="M37.5,0A37.5,37.5 0 1,1 0,-37.5A37.5,37.5 0 0,1 37.5,0Z" style="opacity: 1; stroke-width: 0px; fill: rgb(201, 201, 201); fill-opacity: 1;"/><path class="point" transform="translate(659.84,536.22)" d="M37.5,0A37.5,37.5 0 1,1 0,-37.5A37.5,37.5 0 0,1 37.5,0Z" style="opacity: 1; stroke-width: 0px; fill: rgb(201, 201, 201); fill-opacity: 1;"/><path class="point" transform="translate(659.84,595.8)" d="M37.5,0A37.5,37.5 0 1,1 0,-37.5A37.5,37.5 0 0,1 37.5,0Z" style="opacity: 1; stroke-width: 0px; fill: rgb(201, 201, 201); fill-opacity: 1;"/><path class="point" transform="translate(714.92,357.48)" d="M37.5,0A37.5,37.5 0 1,1 0,-37.5A37.5,37.5 0 0,1 37.5,0Z" style="opacity: 1; stroke-width: 0px; fill: rgb(201, 201, 201); fill-opacity: 1;"/><path class="point" transform="translate(714.92,417.06)" d="M37.5,0A37.5,37.5 0 1,1 0,-37.5A37.5,37.5 0 0,1 37.5,0Z" style="opacity: 1; stroke-width: 0px; fill: rgb(201, 201, 201); fill-opacity: 1;"/><path class="point" transform="translate(714.92,476.64)" d="M37.5,0A37.5,37.5 0 1,1 0,-37.5A37.5,37.5 0 0,1 37.5,0Z" style="opacity: 1; stroke-width: 0px; fill: rgb(201, 201, 201); fill-opacity: 1;"/><path class="point" transform="translate(714.92,536.22)" d="M37.5,0A37.5,37.5 0 1,1 0,-37.5A37.5,37.5 0 0,1 37.5,0Z" style="opacity: 1; stroke-width: 0px; fill: rgb(201, 201, 201); fill-opacity: 1;"/><path class="point" transform="translate(714.92,595.8)" d="M37.5,0A37.5,37.5 0 1,1 0,-37.5A37.5,37.5 0 0,1 37.5,0Z" style="opacity: 1; stroke-width: 0px; fill: rgb(201, 201, 201); fill-opacity: 1;"/></g><g class="text"/></g><g class="trace scatter trace92aa09" style="stroke-miterlimit: 2; opacity: 1;"><g class="fills"/><g class="errorbars"/><g class="lines"/><g class="points"><path class="point" transform="translate(329.37,357.48)" d="M37.5,0A37.5,37.5 0 1,1 0,-37.5A37.5,37.5 0 0,1 37.5,0Z" style="opacity: 1; stroke-width: 0px; fill: rgb(0, 0, 0); fill-opacity: 1;"/></g><g class="text"/></g><g class="trace scatter trace93301c" style="stroke-miterlimit: 2; opacity: 1;"><g class="fills"/><g class="errorbars"/><g class="lines"/><g class="points"><path class="point" transform="translate(329.37,357.48)" d="M37.5,0A37.5,37.5 0 1,1 0,-37.5A37.5,37.5 0 0,1 37.5,0Z" style="opacity: 1; stroke-width: 0px; fill: rgb(0, 0, 0); fill-opacity: 1;"/><path class="point" transform="translate(329.37,417.06)" d="M37.5,0A37.5,37.5 0 1,1 0,-37.5A37.5,37.5 0 0,1 37.5,0Z" style="opacity: 1; stroke-width: 0px; fill: rgb(0, 0, 0); fill-opacity: 1;"/></g><g class="text"/></g><g class="trace scatter trace3010c2" style="stroke-miterlimit: 2; opacity: 1;"><g class="fills"/><g class="errorbars"/><g class="lines"/><g class="points"><path class="point" transform="translate(329.37,357.48)" d="M37.5,0A37.5,37.5 0 1,1 0,-37.5A37.5,37.5 0 0,1 37.5,0Z" style="opacity: 1; stroke-width: 0px; fill: rgb(0, 0, 0); fill-opacity: 1;"/><path class="point" transform="translate(329.37,417.06)" d="M37.5,0A37.5,37.5 0 1,1 0,-37.5A37.5,37.5 0 0,1 37.5,0Z" style="opacity: 1; stroke-width: 0px; fill: rgb(0, 0, 0); fill-opacity: 1;"/><path class="point" transform="translate(329.37,476.64)" d="M37.5,0A37.5,37.5 0 1,1 0,-37.5A37.5,37.5 0 0,1 37.5,0Z" style="opacity: 1; stroke-width: 0px; fill: rgb(0, 0, 0); fill-opacity: 1;"/></g><g class="text"/></g><g class="trace scatter traced4e503" style="stroke-miterlimit: 2; opacity: 1;"><g class="fills"/><g class="errorbars"/><g class="lines"/><g class="points"><path class="point" transform="translate(329.37,357.48)" d="M37.5,0A37.5,37.5 0 1,1 0,-37.5A37.5,37.5 0 0,1 37.5,0Z" style="opacity: 1; stroke-width: 0px; fill: rgb(0, 0, 0); fill-opacity: 1;"/><path class="point" transform="translate(329.37,417.06)" d="M37.5,0A37.5,37.5 0 1,1 0,-37.5A37.5,37.5 0 0,1 37.5,0Z" style="opacity: 1; stroke-width: 0px; fill: rgb(0, 0, 0); fill-opacity: 1;"/><path class="point" transform="translate(329.37,476.64)" d="M37.5,0A37.5,37.5 0 1,1 0,-37.5A37.5,37.5 0 0,1 37.5,0Z" style="opacity: 1; stroke-width: 0px; fill: rgb(0, 0, 0); fill-opacity: 1;"/><path class="point" transform="translate(329.37,536.22)" d="M37.5,0A37.5,37.5 0 1,1 0,-37.5A37.5,37.5 0 0,1 37.5,0Z" style="opacity: 1; stroke-width: 0px; fill: rgb(0, 0, 0); fill-opacity: 1;"/></g><g class="text"/></g><g class="trace scatter trace22ca25" style="stroke-miterlimit: 2; opacity: 1;"><g class="fills"/><g class="errorbars"/><g class="lines"/><g class="points"><path class="point" transform="translate(329.37,357.48)" d="M37.5,0A37.5,37.5 0 1,1 0,-37.5A37.5,37.5 0 0,1 37.5,0Z" style="opacity: 1; stroke-width: 0px; fill: rgb(0, 0, 0); fill-opacity: 1;"/><path class="point" transform="translate(329.37,417.06)" d="M37.5,0A37.5,37.5 0 1,1 0,-37.5A37.5,37.5 0 0,1 37.5,0Z" style="opacity: 1; stroke-width: 0px; fill: rgb(0, 0, 0); fill-opacity: 1;"/><path class="point" transform="translate(329.37,476.64)" d="M37.5,0A37.5,37.5 0 1,1 0,-37.5A37.5,37.5 0 0,1 37.5,0Z" style="opacity: 1; stroke-width: 0px; fill: rgb(0, 0, 0); fill-opacity: 1;"/><path class="point" transform="translate(329.37,536.22)" d="M37.5,0A37.5,37.5 0 1,1 0,-37.5A37.5,37.5 0 0,1 37.5,0Z" style="opacity: 1; stroke-width: 0px; fill: rgb(0, 0, 0); fill-opacity: 1;"/><path class="point" transform="translate(329.37,595.8)" d="M37.5,0A37.5,37.5 0 1,1 0,-37.5A37.5,37.5 0 0,1 37.5,0Z" style="opacity: 1; stroke-width: 0px; fill: rgb(0, 0, 0); fill-opacity: 1;"/></g><g class="text"/></g><g class="trace scatter trace022c1e" style="stroke-miterlimit: 2; opacity: 1;"><g class="fills"/><g class="errorbars"/><g class="lines"/><g class="points"><path class="point" transform="translate(384.45,357.48)" d="M37.5,0A37.5,37.5 0 1,1 0,-37.5A37.5,37.5 0 0,1 37.5,0Z" style="opacity: 1; stroke-width: 0px; fill: rgb(0, 0, 0); fill-opacity: 1;"/></g><g class="text"/></g><g class="trace scatter trace5e6026" style="stroke-miterlimit: 2; opacity: 1;"><g class="fills"/><g class="errorbars"/><g class="lines"/><g class="points"><path class="point" transform="translate(384.45,357.48)" d="M37.5,0A37.5,37.5 0 1,1 0,-37.5A37.5,37.5 0 0,1 37.5,0Z" style="opacity: 1; stroke-width: 0px; fill: rgb(0, 0, 0); fill-opacity: 1;"/><path class="point" transform="translate(384.45,417.06)" d="M37.5,0A37.5,37.5 0 1,1 0,-37.5A37.5,37.5 0 0,1 37.5,0Z" style="opacity: 1; stroke-width: 0px; fill: rgb(0, 0, 0); fill-opacity: 1;"/></g><g class="text"/></g><g class="trace scatter trace4eb2e9" style="stroke-miterlimit: 2; opacity: 1;"><g class="fills"/><g class="errorbars"/><g class="lines"/><g class="points"><path class="point" transform="translate(384.45,357.48)" d="M37.5,0A37.5,37.5 0 1,1 0,-37.5A37.5,37.5 0 0,1 37.5,0Z" style="opacity: 1; stroke-width: 0px; fill: rgb(0, 0, 0); fill-opacity: 1;"/><path class="point" transform="translate(384.45,417.06)" d="M37.5,0A37.5,37.5 0 1,1 0,-37.5A37.5,37.5 0 0,1 37.5,0Z" style="opacity: 1; stroke-width: 0px; fill: rgb(0, 0, 0); fill-opacity: 1;"/><path class="point" transform="translate(384.45,476.64)" d="M37.5,0A37.5,37.5 0 1,1 0,-37.5A37.5,37.5 0 0,1 37.5,0Z" style="opacity: 1; stroke-width: 0px; fill: rgb(0, 0, 0); fill-opacity: 1;"/></g><g class="text"/></g><g class="trace scatter trace83eef1" style="stroke-miterlimit: 2; opacity: 1;"><g class="fills"/><g class="errorbars"/><g class="lines"/><g class="points"><path class="point" transform="translate(384.45,357.48)" d="M37.5,0A37.5,37.5 0 1,1 0,-37.5A37.5,37.5 0 0,1 37.5,0Z" style="opacity: 1; stroke-width: 0px; fill: rgb(0, 0, 0); fill-opacity: 1;"/><path class="point" transform="translate(384.45,417.06)" d="M37.5,0A37.5,37.5 0 1,1 0,-37.5A37.5,37.5 0 0,1 37.5,0Z" style="opacity: 1; stroke-width: 0px; fill: rgb(0, 0, 0); fill-opacity: 1;"/><path class="point" transform="translate(384.45,476.64)" d="M37.5,0A37.5,37.5 0 1,1 0,-37.5A37.5,37.5 0 0,1 37.5,0Z" style="opacity: 1; stroke-width: 0px; fill: rgb(0, 0, 0); fill-opacity: 1;"/><path class="point" transform="translate(384.45,536.22)" d="M37.5,0A37.5,37.5 0 1,1 0,-37.5A37.5,37.5 0 0,1 37.5,0Z" style="opacity: 1; stroke-width: 0px; fill: rgb(0, 0, 0); fill-opacity: 1;"/></g><g class="text"/></g><g class="trace scatter traced69851" style="stroke-miterlimit: 2; opacity: 1;"><g class="fills"/><g class="errorbars"/><g class="lines"/><g class="points"><path class="point" transform="translate(439.53,536.22)" d="M37.5,0A37.5,37.5 0 1,1 0,-37.5A37.5,37.5 0 0,1 37.5,0Z" style="opacity: 1; stroke-width: 0px; fill: rgb(0, 0, 0); fill-opacity: 1;"/></g><g class="text"/></g><g class="trace scatter trace5f336e" style="stroke-miterlimit: 2; opacity: 1;"><g class="fills"/><g class="errorbars"/><g class="lines"/><g class="points"><path class="point" transform="translate(494.61,357.48)" d="M37.5,0A37.5,37.5 0 1,1 0,-37.5A37.5,37.5 0 0,1 37.5,0Z" style="opacity: 1; stroke-width: 0px; fill: rgb(0, 0, 0); fill-opacity: 1;"/></g><g class="text"/></g><g class="trace scatter tracec6f61d" style="stroke-miterlimit: 2; opacity: 1;"><g class="fills"/><g class="errorbars"/><g class="lines"/><g class="points"><path class="point" transform="translate(494.61,357.48)" d="M37.5,0A37.5,37.5 0 1,1 0,-37.5A37.5,37.5 0 0,1 37.5,0Z" style="opacity: 1; stroke-width: 0px; fill: rgb(0, 0, 0); fill-opacity: 1;"/><path class="point" transform="translate(494.61,476.64)" d="M37.5,0A37.5,37.5 0 1,1 0,-37.5A37.5,37.5 0 0,1 37.5,0Z" style="opacity: 1; stroke-width: 0px; fill: rgb(0, 0, 0); fill-opacity: 1;"/></g><g class="text"/></g><g class="trace scatter tracefa4962" style="stroke-miterlimit: 2; opacity: 1;"><g class="fills"/><g class="errorbars"/><g class="lines"/><g class="points"><path class="point" transform="translate(549.69,357.48)" d="M37.5,0A37.5,37.5 0 1,1 0,-37.5A37.5,37.5 0 0,1 37.5,0Z" style="opacity: 1; stroke-width: 0px; fill: rgb(0, 0, 0); fill-opacity: 1;"/></g><g class="text"/></g><g class="trace scatter trace8cd9ee" style="stroke-miterlimit: 2; opacity: 1;"><g class="fills"/><g class="errorbars"/><g class="lines"/><g class="points"><path class="point" transform="translate(549.69,357.48)" d="M37.5,0A37.5,37.5 0 1,1 0,-37.5A37.5,37.5 0 0,1 37.5,0Z" style="opacity: 1; stroke-width: 0px; fill: rgb(0, 0, 0); fill-opacity: 1;"/><path class="point" transform="translate(549.69,417.06)" d="M37.5,0A37.5,37.5 0 1,1 0,-37.5A37.5,37.5 0 0,1 37.5,0Z" style="opacity: 1; stroke-width: 0px; fill: rgb(0, 0, 0); fill-opacity: 1;"/></g><g class="text"/></g><g class="trace scatter traced88812" style="stroke-miterlimit: 2; opacity: 1;"><g class="fills"/><g class="errorbars"/><g class="lines"/><g class="points"><path class="point" transform="translate(549.69,357.48)" d="M37.5,0A37.5,37.5 0 1,1 0,-37.5A37.5,37.5 0 0,1 37.5,0Z" style="opacity: 1; stroke-width: 0px; fill: rgb(0, 0, 0); fill-opacity: 1;"/><path class="point" transform="translate(549.69,417.06)" d="M37.5,0A37.5,37.5 0 1,1 0,-37.5A37.5,37.5 0 0,1 37.5,0Z" style="opacity: 1; stroke-width: 0px; fill: rgb(0, 0, 0); fill-opacity: 1;"/><path class="point" transform="translate(549.69,476.64)" d="M37.5,0A37.5,37.5 0 1,1 0,-37.5A37.5,37.5 0 0,1 37.5,0Z" style="opacity: 1; stroke-width: 0px; fill: rgb(0, 0, 0); fill-opacity: 1;"/></g><g class="text"/></g><g class="trace scatter tracee574fb" style="stroke-miterlimit: 2; opacity: 1;"><g class="fills"/><g class="errorbars"/><g class="lines"/><g class="points"><path class="point" transform="translate(604.76,357.48)" d="M37.5,0A37.5,37.5 0 1,1 0,-37.5A37.5,37.5 0 0,1 37.5,0Z" style="opacity: 1; stroke-width: 0px; fill: rgb(0, 0, 0); fill-opacity: 1;"/></g><g class="text"/></g><g class="trace scatter traceea7ca9" style="stroke-miterlimit: 2; opacity: 1;"><g class="fills"/><g class="errorbars"/><g class="lines"/><g class="points"><path class="point" transform="translate(604.76,357.48)" d="M37.5,0A37.5,37.5 0 1,1 0,-37.5A37.5,37.5 0 0,1 37.5,0Z" style="opacity: 1; stroke-width: 0px; fill: rgb(0, 0, 0); fill-opacity: 1;"/><path class="point" transform="translate(604.76,476.64)" d="M37.5,0A37.5,37.5 0 1,1 0,-37.5A37.5,37.5 0 0,1 37.5,0Z" style="opacity: 1; stroke-width: 0px; fill: rgb(0, 0, 0); fill-opacity: 1;"/></g><g class="text"/></g><g class="trace scatter traceb83ddf" style="stroke-miterlimit: 2; opacity: 1;"><g class="fills"/><g class="errorbars"/><g class="lines"/><g class="points"><path class="point" transform="translate(604.76,357.48)" d="M37.5,0A37.5,37.5 0 1,1 0,-37.5A37.5,37.5 0 0,1 37.5,0Z" style="opacity: 1; stroke-width: 0px; fill: rgb(0, 0, 0); fill-opacity: 1;"/><path class="point" transform="translate(604.76,476.64)" d="M37.5,0A37.5,37.5 0 1,1 0,-37.5A37.5,37.5 0 0,1 37.5,0Z" style="opacity: 1; stroke-width: 0px; fill: rgb(0, 0, 0); fill-opacity: 1;"/><path class="point" transform="translate(604.76,595.8)" d="M37.5,0A37.5,37.5 0 1,1 0,-37.5A37.5,37.5 0 0,1 37.5,0Z" style="opacity: 1; stroke-width: 0px; fill: rgb(0, 0, 0); fill-opacity: 1;"/></g><g class="text"/></g><g class="trace scatter trace7f090b" style="stroke-miterlimit: 2; opacity: 1;"><g class="fills"/><g class="errorbars"/><g class="lines"/><g class="points"><path class="point" transform="translate(659.84,357.48)" d="M37.5,0A37.5,37.5 0 1,1 0,-37.5A37.5,37.5 0 0,1 37.5,0Z" style="opacity: 1; stroke-width: 0px; fill: rgb(0, 0, 0); fill-opacity: 1;"/></g><g class="text"/></g><g class="trace scatter trace37f2be" style="stroke-miterlimit: 2; opacity: 1;"><g class="fills"/><g class="errorbars"/><g class="lines"/><g class="points"><path class="point" transform="translate(659.84,357.48)" d="M37.5,0A37.5,37.5 0 1,1 0,-37.5A37.5,37.5 0 0,1 37.5,0Z" style="opacity: 1; stroke-width: 0px; fill: rgb(0, 0, 0); fill-opacity: 1;"/><path class="point" transform="translate(659.84,417.06)" d="M37.5,0A37.5,37.5 0 1,1 0,-37.5A37.5,37.5 0 0,1 37.5,0Z" style="opacity: 1; stroke-width: 0px; fill: rgb(0, 0, 0); fill-opacity: 1;"/></g><g class="text"/></g><g class="trace scatter trace121700" style="stroke-miterlimit: 2; opacity: 1;"><g class="fills"/><g class="errorbars"/><g class="lines"/><g class="points"><path class="point" transform="translate(659.84,357.48)" d="M37.5,0A37.5,37.5 0 1,1 0,-37.5A37.5,37.5 0 0,1 37.5,0Z" style="opacity: 1; stroke-width: 0px; fill: rgb(0, 0, 0); fill-opacity: 1;"/><path class="point" transform="translate(659.84,417.06)" d="M37.5,0A37.5,37.5 0 1,1 0,-37.5A37.5,37.5 0 0,1 37.5,0Z" style="opacity: 1; stroke-width: 0px; fill: rgb(0, 0, 0); fill-opacity: 1;"/><path class="point" transform="translate(659.84,476.64)" d="M37.5,0A37.5,37.5 0 1,1 0,-37.5A37.5,37.5 0 0,1 37.5,0Z" style="opacity: 1; stroke-width: 0px; fill: rgb(0, 0, 0); fill-opacity: 1;"/></g><g class="text"/></g><g class="trace scatter trace620e54" style="stroke-miterlimit: 2; opacity: 1;"><g class="fills"/><g class="errorbars"/><g class="lines"/><g class="points"><path class="point" transform="translate(659.84,357.48)" d="M37.5,0A37.5,37.5 0 1,1 0,-37.5A37.5,37.5 0 0,1 37.5,0Z" style="opacity: 1; stroke-width: 0px; fill: rgb(0, 0, 0); fill-opacity: 1;"/><path class="point" transform="translate(659.84,417.06)" d="M37.5,0A37.5,37.5 0 1,1 0,-37.5A37.5,37.5 0 0,1 37.5,0Z" style="opacity: 1; stroke-width: 0px; fill: rgb(0, 0, 0); fill-opacity: 1;"/><path class="point" transform="translate(659.84,476.64)" d="M37.5,0A37.5,37.5 0 1,1 0,-37.5A37.5,37.5 0 0,1 37.5,0Z" style="opacity: 1; stroke-width: 0px; fill: rgb(0, 0, 0); fill-opacity: 1;"/><path class="point" transform="translate(659.84,595.8)" d="M37.5,0A37.5,37.5 0 1,1 0,-37.5A37.5,37.5 0 0,1 37.5,0Z" style="opacity: 1; stroke-width: 0px; fill: rgb(0, 0, 0); fill-opacity: 1;"/></g><g class="text"/></g><g class="trace scatter trace1a40df" style="stroke-miterlimit: 2; opacity: 1;"><g class="fills"/><g class="errorbars"/><g class="lines"/><g class="points"><path class="point" transform="translate(714.92,417.06)" d="M37.5,0A37.5,37.5 0 1,1 0,-37.5A37.5,37.5 0 0,1 37.5,0Z" style="opacity: 1; stroke-width: 0px; fill: rgb(0, 0, 0); fill-opacity: 1;"/></g><g class="text"/></g><g class="trace scatter tracef71a27" style="stroke-miterlimit: 2; opacity: 1;"><g class="fills"/><g class="errorbars"/><g class="lines"/><g class="points"><path class="point" transform="translate(714.92,417.06)" d="M37.5,0A37.5,37.5 0 1,1 0,-37.5A37.5,37.5 0 0,1 37.5,0Z" style="opacity: 1; stroke-width: 0px; fill: rgb(0, 0, 0); fill-opacity: 1;"/><path class="point" transform="translate(714.92,476.64)" d="M37.5,0A37.5,37.5 0 1,1 0,-37.5A37.5,37.5 0 0,1 37.5,0Z" style="opacity: 1; stroke-width: 0px; fill: rgb(0, 0, 0); fill-opacity: 1;"/></g><g class="text"/></g><g class="trace scatter trace309ade" style="stroke-miterlimit: 2; opacity: 1;"><g class="fills"/><g class="errorbars"/><g class="lines"/><g class="points"><path class="point" transform="translate(714.92,417.06)" d="M37.5,0A37.5,37.5 0 1,1 0,-37.5A37.5,37.5 0 0,1 37.5,0Z" style="opacity: 1; stroke-width: 0px; fill: rgb(0, 0, 0); fill-opacity: 1;"/><path class="point" transform="translate(714.92,476.64)" d="M37.5,0A37.5,37.5 0 1,1 0,-37.5A37.5,37.5 0 0,1 37.5,0Z" style="opacity: 1; stroke-width: 0px; fill: rgb(0, 0, 0); fill-opacity: 1;"/><path class="point" transform="translate(714.92,536.22)" d="M37.5,0A37.5,37.5 0 1,1 0,-37.5A37.5,37.5 0 0,1 37.5,0Z" style="opacity: 1; stroke-width: 0px; fill: rgb(0, 0, 0); fill-opacity: 1;"/></g><g class="text"/></g><g class="trace scatter traceb6f7d0" style="stroke-miterlimit: 2; opacity: 1;"><g class="fills"/><g class="errorbars"/><g class="lines"/><g class="points"><path class="point" transform="translate(714.92,417.06)" d="M37.5,0A37.5,37.5 0 1,1 0,-37.5A37.5,37.5 0 0,1 37.5,0Z" style="opacity: 1; stroke-width: 0px; fill: rgb(0, 0, 0); fill-opacity: 1;"/><path class="point" transform="translate(714.92,476.64)" d="M37.5,0A37.5,37.5 0 1,1 0,-37.5A37.5,37.5 0 0,1 37.5,0Z" style="opacity: 1; stroke-width: 0px; fill: rgb(0, 0, 0); fill-opacity: 1;"/><path class="point" transform="translate(714.92,536.22)" d="M37.5,0A37.5,37.5 0 1,1 0,-37.5A37.5,37.5 0 0,1 37.5,0Z" style="opacity: 1; stroke-width: 0px; fill: rgb(0, 0, 0); fill-opacity: 1;"/><path class="point" transform="translate(714.92,595.8)" d="M37.5,0A37.5,37.5 0 1,1 0,-37.5A37.5,37.5 0 0,1 37.5,0Z" style="opacity: 1; stroke-width: 0px; fill: rgb(0, 0, 0); fill-opacity: 1;"/></g><g class="text"/></g><g class="trace scatter trace340925" style="stroke-miterlimit: 2; opacity: 1;"><g class="fills"/><g class="errorbars"/><g class="lines"/><g class="points"/><g class="text"><g class="textpoint" transform="translate(0,3)"><text x="304.03" y="357.48" text-anchor="end" style="font-family: 'Open Sans', verdana, arial, sans-serif; font-size: 12px; fill: rgb(42, 63, 95); fill-opacity: 1; white-space: pre;">m9-EX_glc__D_e10.0-deletion_Cra_NBR-Function-2</text></g><g class="textpoint" transform="translate(0,3)"><text x="304.03" y="417.06" text-anchor="end" style="font-family: 'Open Sans', verdana, arial, sans-serif; font-size: 12px; fill: rgb(42, 63, 95); fill-opacity: 1; white-space: pre;">m9-EX_ac_e3.33-deletion_Cra_NBR-Function-2</text></g><g class="textpoint" transform="translate(0,3)"><text x="304.03" y="476.64" text-anchor="end" style="font-family: 'Open Sans', verdana, arial, sans-serif; font-size: 12px; fill: rgb(42, 63, 95); fill-opacity: 1; white-space: pre;">m9-EX_fru_e10.0-deletion_Cra_NBR-Function-2</text></g><g class="textpoint" transform="translate(0,3)"><text x="304.03" y="536.22" text-anchor="end" style="font-family: 'Open Sans', verdana, arial, sans-serif; font-size: 12px; fill: rgb(42, 63, 95); fill-opacity: 1; white-space: pre;">m9-EX_fru_e10.0_NBR-Function-2</text></g><g class="textpoint" transform="translate(0,3)"><text x="304.03" y="595.8" text-anchor="end" style="font-family: 'Open Sans', verdana, arial, sans-serif; font-size: 12px; fill: rgb(42, 63, 95); fill-opacity: 1; white-space: pre;">m9-EX_ac_e3.33_NBR-Function-2</text></g></g></g></g></g><g class="overplot"/><path class="xlines-above crisp" d="M0,0" style="fill: none;"/><path class="ylines-above crisp" d="M0,0" style="fill: none;"/><g class="overlines-above"/><g class="xaxislayer-above"/><g class="yaxislayer-above"/><g class="overaxes-above"/></g></g><g class="polarlayer"/><g class="smithlayer"/><g class="ternarylayer"/><g class="geolayer"/><g class="funnelarealayer"/><g class="pielayer"/><g class="iciclelayer"/><g class="treemaplayer"/><g class="sunburstlayer"/><g class="glimages"/><defs id="topdefs-64d83f"><g class="clips"/></defs><g class="layer-above"><g class="imagelayer"/><g class="shapelayer"/></g><g class="infolayer"><g class="g-gtitle"><text class="gtitle" x="500" y="20" text-anchor="middle" dy="0em" style="font-family: 'Open Sans', verdana, arial, sans-serif; font-size: 17px; fill: rgb(42, 63, 95); opacity: 1; font-weight: normal; white-space: pre;"><tspan style="font-weight:bold">Intersections<tspan style="font-weight:bold"></tspan></tspan></text></g><g class="g-xtitle"/><g class="g-ytitle"/></g></svg>