<svg class="main-svg" xmlns="http://www.w3.org/2000/svg" xmlns:xlink="http://www.w3.org/1999/xlink" width="1000" height="800" style="" viewBox="0 0 1000 800"><rect x="0" y="0" width="1000" height="800" style="fill: rgb(255, 255, 255); fill-opacity: 1;"/><defs id="defs-8f27f3"><g class="clips"><clipPath id="clip8f27f3xyplot" class="plotclip"><rect width="770" height="680"/></clipPath><clipPath class="axesclip" id="clip8f27f3x"><rect x="150" y="0" width="770" height="800"/></clipPath><clipPath class="axesclip" id="clip8f27f3y"><rect x="0" y="40" width="1000" height="680"/></clipPath><clipPath class="axesclip" id="clip8f27f3xy"><rect x="150" y="40" width="770" height="680"/></clipPath></g><g class="gradients"/><g class="patterns"/></defs><g class="bglayer"><rect class="bg" x="150" y="40" width="770" height="680" style="fill: rgb(255, 255, 255); fill-opacity: 1; stroke-width: 0;"/></g><g class="layer-below"><g class="imagelayer"/><g class="shapelayer"/></g><g class="cartesianlayer"><g class="subplot xy"><g class="layer-subplot"><g class="shapelayer"/><g class="imagelayer"/></g><g class="minor-gridlayer"><g class="x"/><g class="y"/></g><g class="gridlayer"><g class="x"/><g class="y"><path class="ygrid crisp" transform="translate(0,664.28)" d="M150,0h770" style="stroke: rgb(255, 255, 255); stroke-opacity: 1; stroke-width: 1px;"/><path class="ygrid crisp" transform="translate(0,588.47)" d="M150,0h770" style="stroke: rgb(255, 255, 255); stroke-opacity: 1; stroke-width: 1px;"/><path class="ygrid crisp" transform="translate(0,512.6600000000001)" d="M150,0h770" style="stroke: rgb(255, 255, 255); stroke-opacity: 1; stroke-width: 1px;"/><path class="ygrid crisp" transform="translate(0,436.86)" d="M150,0h770" style="stroke: rgb(255, 255, 255); stroke-opacity: 1; stroke-width: 1px;"/><path class="ygrid crisp" transform="translate(0,361.05)" d="M150,0h770" style="stroke: rgb(255, 255, 255); stroke-opacity: 1; stroke-width: 1px;"/><path class="ygrid crisp" transform="translate(0,285.24)" d="M150,0h770" style="stroke: rgb(255, 255, 255); stroke-opacity: 1; stroke-width: 1px;"/><path class="ygrid crisp" transform="translate(0,209.43)" d="M150,0h770" style="stroke: rgb(255, 255, 255); stroke-opacity: 1; stroke-width: 1px;"/><path class="ygrid crisp" transform="translate(0,133.62)" d="M150,0h770" style="stroke: rgb(255, 255, 255); stroke-opacity: 1; stroke-width: 1px;"/><path class="ygrid crisp" transform="translate(0,57.81)" d="M150,0h770" style="stroke: rgb(255, 255, 255); stroke-opacity: 1; stroke-width: 1px;"/></g></g><g class="zerolinelayer"/><path class="xlines-below"/><path class="ylines-below"/><g class="overlines-below"/><g class="xaxislayer-below"/><g class="yaxislayer-below"/><g class="overaxes-below"/><g class="plot" transform="translate(150,40)" clip-path="url(#clip8f27f3xyplot)"><g class="barlayer mlayer"><g class="trace bars" style="opacity: 1;"><g class="points"><g class="point"><path d="M230.66,321.05V55.72H276.56V321.05Z" style="vector-effect: non-scaling-stroke; opacity: 1; stroke-width: 0.5px; fill: rgb(0, 0, 0); fill-opacity: 1; stroke: rgb(229, 236, 246); stroke-opacity: 1;"/><text class="bartext bartext-outside" text-anchor="middle" data-notex="1" x="0" y="0" style="font-family: 'Open Sans', verdana, arial, sans-serif; font-size: 12px; fill: rgb(42, 63, 95); fill-opacity: 1; white-space: pre;" transform="translate(253.4459375,49.72)">7</text></g><g class="point"><path d="M288.03,321.05V131.53H333.93V321.05Z" style="vector-effect: non-scaling-stroke; opacity: 1; stroke-width: 0.5px; fill: rgb(0, 0, 0); fill-opacity: 1; stroke: rgb(229, 236, 246); stroke-opacity: 1;"/><text class="bartext bartext-outside" text-anchor="middle" data-notex="1" x="0" y="0" style="font-family: 'Open Sans', verdana, arial, sans-serif; font-size: 12px; fill: rgb(42, 63, 95); fill-opacity: 1; white-space: pre;" transform="translate(310.8159375,125.53)">5</text></g><g class="point"><path d="M345.41,321.05V207.34H391.31V321.05Z" style="vector-effect: non-scaling-stroke; opacity: 1; stroke-width: 0.5px; fill: rgb(0, 0, 0); fill-opacity: 1; stroke: rgb(229, 236, 246); stroke-opacity: 1;"/><text class="bartext bartext-outside" text-anchor="middle" data-notex="1" x="0" y="0" style="font-family: 'Open Sans', verdana, arial, sans-serif; font-size: 12px; fill: rgb(42, 63, 95); fill-opacity: 1; white-space: pre;" transform="translate(368.1959375,201.34)">3</text></g><g class="point"><path d="M402.79,321.05V207.34H448.69V321.05Z" style="vector-effect: non-scaling-stroke; opacity: 1; stroke-width: 0.5px; fill: rgb(0, 0, 0); fill-opacity: 1; stroke: rgb(229, 236, 246); stroke-opacity: 1;"/><text class="bartext bartext-outside" text-anchor="middle" data-notex="1" x="0" y="0" style="font-family: 'Open Sans', verdana, arial, sans-serif; font-size: 12px; fill: rgb(42, 63, 95); fill-opacity: 1; white-space: pre;" transform="translate(425.5759375,201.34)">3</text></g><g class="point"><path d="M460.16,321.05V283.14H506.07V321.05Z" style="vector-effect: non-scaling-stroke; opacity: 1; stroke-width: 0.5px; fill: rgb(0, 0, 0); fill-opacity: 1; stroke: rgb(229, 236, 246); stroke-opacity: 1;"/><text class="bartext bartext-outside" text-anchor="middle" data-notex="1" x="0" y="0" style="font-family: 'Open Sans', verdana, arial, sans-serif; font-size: 12px; fill: rgb(42, 63, 95); fill-opacity: 1; white-space: pre;" transform="translate(482.9509375,277.14)">1</text></g><g class="point"><path d="M517.54,321.05V283.14H563.44V321.05Z" style="vector-effect: non-scaling-stroke; opacity: 1; stroke-width: 0.5px; fill: rgb(0, 0, 0); fill-opacity: 1; stroke: rgb(229, 236, 246); stroke-opacity: 1;"/><text class="bartext bartext-outside" text-anchor="middle" data-notex="1" x="0" y="0" style="font-family: 'Open Sans', verdana, arial, sans-serif; font-size: 12px; fill: rgb(42, 63, 95); fill-opacity: 1; white-space: pre;" transform="translate(540.3259375,277.14)">1</text></g><g class="point"><path d="M574.92,321.05V283.14H620.82V321.05Z" style="vector-effect: non-scaling-stroke; opacity: 1; stroke-width: 0.5px; fill: rgb(0, 0, 0); fill-opacity: 1; stroke: rgb(229, 236, 246); stroke-opacity: 1;"/><text class="bartext bartext-outside" text-anchor="middle" data-notex="1" x="0" y="0" style="font-family: 'Open Sans', verdana, arial, sans-serif; font-size: 12px; fill: rgb(42, 63, 95); fill-opacity: 1; white-space: pre;" transform="translate(597.7059375,277.14)">1</text></g><g class="point"><path d="M632.3,321.05V283.14H678.2V321.05Z" style="vector-effect: non-scaling-stroke; opacity: 1; stroke-width: 0.5px; fill: rgb(0, 0, 0); fill-opacity: 1; stroke: rgb(229, 236, 246); stroke-opacity: 1;"/><text class="bartext bartext-outside" text-anchor="middle" data-notex="1" x="0" y="0" style="font-family: 'Open Sans', verdana, arial, sans-serif; font-size: 12px; fill: rgb(42, 63, 95); fill-opacity: 1; white-space: pre;" transform="translate(655.0859375,277.14)">1</text></g><g class="point"><path d="M689.67,321.05V283.14H735.57V321.05Z" style="vector-effect: non-scaling-stroke; opacity: 1; stroke-width: 0.5px; fill: rgb(0, 0, 0); fill-opacity: 1; stroke: rgb(229, 236, 246); stroke-opacity: 1;"/><text class="bartext bartext-outside" text-anchor="middle" data-notex="1" x="0" y="0" style="font-family: 'Open Sans', verdana, arial, sans-serif; font-size: 12px; fill: rgb(42, 63, 95); fill-opacity: 1; white-space: pre;" transform="translate(712.4559375,277.14)">1</text></g></g></g></g><g class="scatterlayer mlayer"><g class="trace scatter trace2906cc" style="stroke-miterlimit: 2; opacity: 1;"><g class="fills"/><g class="errorbars"/><g class="lines"/><g class="points"><path class="point" transform="translate(253.61,350.23)" d="M6.94,0A6.94,6.94 0 1,1 0,-6.94A6.94,6.94 0 0,1 6.94,0Z" style="opacity: 1; stroke-width: 0px; fill: rgb(201, 201, 201); fill-opacity: 1;"/><path class="point" transform="translate(253.61,423.2)" d="M6.94,0A6.94,6.94 0 1,1 0,-6.94A6.94,6.94 0 0,1 6.94,0Z" style="opacity: 1; stroke-width: 0px; fill: rgb(201, 201, 201); fill-opacity: 1;"/><path class="point" transform="translate(253.61,496.16)" d="M6.94,0A6.94,6.94 0 1,1 0,-6.94A6.94,6.94 0 0,1 6.94,0Z" style="opacity: 1; stroke-width: 0px; fill: rgb(201, 201, 201); fill-opacity: 1;"/><path class="point" transform="translate(253.61,569.13)" d="M6.94,0A6.94,6.94 0 1,1 0,-6.94A6.94,6.94 0 0,1 6.94,0Z" style="opacity: 1; stroke-width: 0px; fill: rgb(201, 201, 201); fill-opacity: 1;"/><path class="point" transform="translate(310.98,350.23)" d="M6.94,0A6.94,6.94 0 1,1 0,-6.94A6.94,6.94 0 0,1 6.94,0Z" style="opacity: 1; stroke-width: 0px; fill: rgb(201, 201, 201); fill-opacity: 1;"/><path class="point" transform="translate(310.98,423.2)" d="M6.94,0A6.94,6.94 0 1,1 0,-6.94A6.94,6.94 0 0,1 6.94,0Z" style="opacity: 1; stroke-width: 0px; fill: rgb(201, 201, 201); fill-opacity: 1;"/><path class="point" transform="translate(310.98,496.16)" d="M6.94,0A6.94,6.94 0 1,1 0,-6.94A6.94,6.94 0 0,1 6.94,0Z" style="opacity: 1; stroke-width: 0px; fill: rgb(201, 201, 201); fill-opacity: 1;"/><path class="point" transform="translate(310.98,569.13)" d="M6.94,0A6.94,6.94 0 1,1 0,-6.94A6.94,6.94 0 0,1 6.94,0Z" style="opacity: 1; stroke-width: 0px; fill: rgb(201, 201, 201); fill-opacity: 1;"/><path class="point" transform="translate(368.36,350.23)" d="M6.94,0A6.94,6.94 0 1,1 0,-6.94A6.94,6.94 0 0,1 6.94,0Z" style="opacity: 1; stroke-width: 0px; fill: rgb(201, 201, 201); fill-opacity: 1;"/><path class="point" transform="translate(368.36,423.2)" d="M6.94,0A6.94,6.94 0 1,1 0,-6.94A6.94,6.94 0 0,1 6.94,0Z" style="opacity: 1; stroke-width: 0px; fill: rgb(201, 201, 201); fill-opacity: 1;"/><path class="point" transform="translate(368.36,496.16)" d="M6.94,0A6.94,6.94 0 1,1 0,-6.94A6.94,6.94 0 0,1 6.94,0Z" style="opacity: 1; stroke-width: 0px; fill: rgb(201, 201, 201); fill-opacity: 1;"/><path class="point" transform="translate(368.36,569.13)" d="M6.94,0A6.94,6.94 0 1,1 0,-6.94A6.94,6.94 0 0,1 6.94,0Z" style="opacity: 1; stroke-width: 0px; fill: rgb(201, 201, 201); fill-opacity: 1;"/><path class="point" transform="translate(425.74,350.23)" d="M6.94,0A6.94,6.94 0 1,1 0,-6.94A6.94,6.94 0 0,1 6.94,0Z" style="opacity: 1; stroke-width: 0px; fill: rgb(201, 201, 201); fill-opacity: 1;"/><path class="point" transform="translate(425.74,423.2)" d="M6.94,0A6.94,6.94 0 1,1 0,-6.94A6.94,6.94 0 0,1 6.94,0Z" style="opacity: 1; stroke-width: 0px; fill: rgb(201, 201, 201); fill-opacity: 1;"/><path class="point" transform="translate(425.74,496.16)" d="M6.94,0A6.94,6.94 0 1,1 0,-6.94A6.94,6.94 0 0,1 6.94,0Z" style="opacity: 1; stroke-width: 0px; fill: rgb(201, 201, 201); fill-opacity: 1;"/><path class="point" transform="translate(425.74,569.13)" d="M6.94,0A6.94,6.94 0 1,1 0,-6.94A6.94,6.94 0 0,1 6.94,0Z" style="opacity: 1; stroke-width: 0px; fill: rgb(201, 201, 201); fill-opacity: 1;"/><path class="point" transform="translate(483.11,350.23)" d="M6.94,0A6.94,6.94 0 1,1 0,-6.94A6.94,6.94 0 0,1 6.94,0Z" style="opacity: 1; stroke-width: 0px; fill: rgb(201, 201, 201); fill-opacity: 1;"/><path class="point" transform="translate(483.11,423.2)" d="M6.94,0A6.94,6.94 0 1,1 0,-6.94A6.94,6.94 0 0,1 6.94,0Z" style="opacity: 1; stroke-width: 0px; fill: rgb(201, 201, 201); fill-opacity: 1;"/><path class="point" transform="translate(483.11,496.16)" d="M6.94,0A6.94,6.94 0 1,1 0,-6.94A6.94,6.94 0 0,1 6.94,0Z" style="opacity: 1; stroke-width: 0px; fill: rgb(201, 201, 201); fill-opacity: 1;"/><path class="point" transform="translate(483.11,569.13)" d="M6.94,0A6.94,6.94 0 1,1 0,-6.94A6.94,6.94 0 0,1 6.94,0Z" style="opacity: 1; stroke-width: 0px; fill: rgb(201, 201, 201); fill-opacity: 1;"/><path class="point" transform="translate(540.49,350.23)" d="M6.94,0A6.94,6.94 0 1,1 0,-6.94A6.94,6.94 0 0,1 6.94,0Z" style="opacity: 1; stroke-width: 0px; fill: rgb(201, 201, 201); fill-opacity: 1;"/><path class="point" transform="translate(540.49,423.2)" d="M6.94,0A6.94,6.94 0 1,1 0,-6.94A6.94,6.94 0 0,1 6.94,0Z" style="opacity: 1; stroke-width: 0px; fill: rgb(201, 201, 201); fill-opacity: 1;"/><path class="point" transform="translate(540.49,496.16)" d="M6.94,0A6.94,6.94 0 1,1 0,-6.94A6.94,6.94 0 0,1 6.94,0Z" style="opacity: 1; stroke-width: 0px; fill: rgb(201, 201, 201); fill-opacity: 1;"/><path class="point" transform="translate(540.49,569.13)" d="M6.94,0A6.94,6.94 0 1,1 0,-6.94A6.94,6.94 0 0,1 6.94,0Z" style="opacity: 1; stroke-width: 0px; fill: rgb(201, 201, 201); fill-opacity: 1;"/><path class="point" transform="translate(597.87,350.23)" d="M6.94,0A6.94,6.94 0 1,1 0,-6.94A6.94,6.94 0 0,1 6.94,0Z" style="opacity: 1; stroke-width: 0px; fill: rgb(201, 201, 201); fill-opacity: 1;"/><path class="point" transform="translate(597.87,423.2)" d="M6.94,0A6.94,6.94 0 1,1 0,-6.94A6.94,6.94 0 0,1 6.94,0Z" style="opacity: 1; stroke-width: 0px; fill: rgb(201, 201, 201); fill-opacity: 1;"/><path class="point" transform="translate(597.87,496.16)" d="M6.94,0A6.94,6.94 0 1,1 0,-6.94A6.94,6.94 0 0,1 6.94,0Z" style="opacity: 1; stroke-width: 0px; fill: rgb(201, 201, 201); fill-opacity: 1;"/><path class="point" transform="translate(597.87,569.13)" d="M6.94,0A6.94,6.94 0 1,1 0,-6.94A6.94,6.94 0 0,1 6.94,0Z" style="opacity: 1; stroke-width: 0px; fill: rgb(201, 201, 201); fill-opacity: 1;"/><path class="point" transform="translate(655.25,350.23)" d="M6.94,0A6.94,6.94 0 1,1 0,-6.94A6.94,6.94 0 0,1 6.94,0Z" style="opacity: 1; stroke-width: 0px; fill: rgb(201, 201, 201); fill-opacity: 1;"/><path class="point" transform="translate(655.25,423.2)" d="M6.94,0A6.94,6.94 0 1,1 0,-6.94A6.94,6.94 0 0,1 6.94,0Z" style="opacity: 1; stroke-width: 0px; fill: rgb(201, 201, 201); fill-opacity: 1;"/><path class="point" transform="translate(655.25,496.16)" d="M6.94,0A6.94,6.94 0 1,1 0,-6.94A6.94,6.94 0 0,1 6.94,0Z" style="opacity: 1; stroke-width: 0px; fill: rgb(201, 201, 201); fill-opacity: 1;"/><path class="point" transform="translate(655.25,569.13)" d="M6.94,0A6.94,6.94 0 1,1 0,-6.94A6.94,6.94 0 0,1 6.94,0Z" style="opacity: 1; stroke-width: 0px; fill: rgb(201, 201, 201); fill-opacity: 1;"/><path class="point" transform="translate(712.62,350.23)" d="M6.94,0A6.94,6.94 0 1,1 0,-6.94A6.94,6.94 0 0,1 6.94,0Z" style="opacity: 1; stroke-width: 0px; fill: rgb(201, 201, 201); fill-opacity: 1;"/><path class="point" transform="translate(712.62,423.2)" d="M6.94,0A6.94,6.94 0 1,1 0,-6.94A6.94,6.94 0 0,1 6.94,0Z" style="opacity: 1; stroke-width: 0px; fill: rgb(201, 201, 201); fill-opacity: 1;"/><path class="point" transform="translate(712.62,496.16)" d="M6.94,0A6.94,6.94 0 1,1 0,-6.94A6.94,6.94 0 0,1 6.94,0Z" style="opacity: 1; stroke-width: 0px; fill: rgb(201, 201, 201); fill-opacity: 1;"/><path class="point" transform="translate(712.62,569.13)" d="M6.94,0A6.94,6.94 0 1,1 0,-6.94A6.94,6.94 0 0,1 6.94,0Z" style="opacity: 1; stroke-width: 0px; fill: rgb(201, 201, 201); fill-opacity: 1;"/></g><g class="text"/></g><g class="trace scatter trace6c1071" style="stroke-miterlimit: 2; opacity: 1;"><g class="fills"/><g class="errorbars"/><g class="lines"/><g class="points"><path class="point" transform="translate(253.61,350.23)" d="M6.94,0A6.94,6.94 0 1,1 0,-6.94A6.94,6.94 0 0,1 6.94,0Z" style="opacity: 1; stroke-width: 0px; fill: rgb(0, 0, 0); fill-opacity: 1;"/></g><g class="text"/></g><g class="trace scatter tracea5e64f" style="stroke-miterlimit: 2; opacity: 1;"><g class="fills"/><g class="errorbars"/><g class="lines"/><g class="points"><path class="point" transform="translate(253.61,350.23)" d="M6.94,0A6.94,6.94 0 1,1 0,-6.94A6.94,6.94 0 0,1 6.94,0Z" style="opacity: 1; stroke-width: 0px; fill: rgb(0, 0, 0); fill-opacity: 1;"/><path class="point" transform="translate(253.61,423.2)" d="M6.94,0A6.94,6.94 0 1,1 0,-6.94A6.94,6.94 0 0,1 6.94,0Z" style="opacity: 1; stroke-width: 0px; fill: rgb(0, 0, 0); fill-opacity: 1;"/></g><g class="text"/></g><g class="trace scatter tracedab434" style="stroke-miterlimit: 2; opacity: 1;"><g class="fills"/><g class="errorbars"/><g class="lines"/><g class="points"><path class="point" transform="translate(253.61,350.23)" d="M6.94,0A6.94,6.94 0 1,1 0,-6.94A6.94,6.94 0 0,1 6.94,0Z" style="opacity: 1; stroke-width: 0px; fill: rgb(0, 0, 0); fill-opacity: 1;"/><path class="point" transform="translate(253.61,423.2)" d="M6.94,0A6.94,6.94 0 1,1 0,-6.94A6.94,6.94 0 0,1 6.94,0Z" style="opacity: 1; stroke-width: 0px; fill: rgb(0, 0, 0); fill-opacity: 1;"/><path class="point" transform="translate(253.61,496.16)" d="M6.94,0A6.94,6.94 0 1,1 0,-6.94A6.94,6.94 0 0,1 6.94,0Z" style="opacity: 1; stroke-width: 0px; fill: rgb(0, 0, 0); fill-opacity: 1;"/></g><g class="text"/></g><g class="trace scatter tracea72a56" style="stroke-miterlimit: 2; opacity: 1;"><g class="fills"/><g class="errorbars"/><g class="lines"/><g class="points"><path class="point" transform="translate(253.61,350.23)" d="M6.94,0A6.94,6.94 0 1,1 0,-6.94A6.94,6.94 0 0,1 6.94,0Z" style="opacity: 1; stroke-width: 0px; fill: rgb(0, 0, 0); fill-opacity: 1;"/><path class="point" transform="translate(253.61,423.2)" d="M6.94,0A6.94,6.94 0 1,1 0,-6.94A6.94,6.94 0 0,1 6.94,0Z" style="opacity: 1; stroke-width: 0px; fill: rgb(0, 0, 0); fill-opacity: 1;"/><path class="point" transform="translate(253.61,496.16)" d="M6.94,0A6.94,6.94 0 1,1 0,-6.94A6.94,6.94 0 0,1 6.94,0Z" style="opacity: 1; stroke-width: 0px; fill: rgb(0, 0, 0); fill-opacity: 1;"/><path class="point" transform="translate(253.61,569.13)" d="M6.94,0A6.94,6.94 0 1,1 0,-6.94A6.94,6.94 0 0,1 6.94,0Z" style="opacity: 1; stroke-width: 0px; fill: rgb(0, 0, 0); fill-opacity: 1;"/></g><g class="text"/></g><g class="trace scatter tracef3ccad" style="stroke-miterlimit: 2; opacity: 1;"><g class="fills"/><g class="errorbars"/><g class="lines"/><g class="points"><path class="point" transform="translate(310.98,350.23)" d="M6.94,0A6.94,6.94 0 1,1 0,-6.94A6.94,6.94 0 0,1 6.94,0Z" style="opacity: 1; stroke-width: 0px; fill: rgb(0, 0, 0); fill-opacity: 1;"/></g><g class="text"/></g><g class="trace scatter trace69774c" style="stroke-miterlimit: 2; opacity: 1;"><g class="fills"/><g class="errorbars"/><g class="lines"/><g class="points"><path class="point" transform="translate(310.98,350.23)" d="M6.94,0A6.94,6.94 0 1,1 0,-6.94A6.94,6.94 0 0,1 6.94,0Z" style="opacity: 1; stroke-width: 0px; fill: rgb(0, 0, 0); fill-opacity: 1;"/><path class="point" transform="translate(310.98,423.2)" d="M6.94,0A6.94,6.94 0 1,1 0,-6.94A6.94,6.94 0 0,1 6.94,0Z" style="opacity: 1; stroke-width: 0px; fill: rgb(0, 0, 0); fill-opacity: 1;"/></g><g class="text"/></g><g class="trace scatter trace19154a" style="stroke-miterlimit: 2; opacity: 1;"><g class="fills"/><g class="errorbars"/><g class="lines"/><g class="points"><path class="point" transform="translate(310.98,350.23)" d="M6.94,0A6.94,6.94 0 1,1 0,-6.94A6.94,6.94 0 0,1 6.94,0Z" style="opacity: 1; stroke-width: 0px; fill: rgb(0, 0, 0); fill-opacity: 1;"/><path class="point" transform="translate(310.98,423.2)" d="M6.94,0A6.94,6.94 0 1,1 0,-6.94A6.94,6.94 0 0,1 6.94,0Z" style="opacity: 1; stroke-width: 0px; fill: rgb(0, 0, 0); fill-opacity: 1;"/><path class="point" transform="translate(310.98,569.13)" d="M6.94,0A6.94,6.94 0 1,1 0,-6.94A6.94,6.94 0 0,1 6.94,0Z" style="opacity: 1; stroke-width: 0px; fill: rgb(0, 0, 0); fill-opacity: 1;"/></g><g class="text"/></g><g class="trace scatter traced3693c" style="stroke-miterlimit: 2; opacity: 1;"><g class="fills"/><g class="errorbars"/><g class="lines"/><g class="points"><path class="point" transform="translate(368.36,350.23)" d="M6.94,0A6.94,6.94 0 1,1 0,-6.94A6.94,6.94 0 0,1 6.94,0Z" style="opacity: 1; stroke-width: 0px; fill: rgb(0, 0, 0); fill-opacity: 1;"/></g><g class="text"/></g><g class="trace scatter tracec0b478" style="stroke-miterlimit: 2; opacity: 1;"><g class="fills"/><g class="errorbars"/><g class="lines"/><g class="points"><path class="point" transform="translate(425.74,423.2)" d="M6.94,0A6.94,6.94 0 1,1 0,-6.94A6.94,6.94 0 0,1 6.94,0Z" style="opacity: 1; stroke-width: 0px; fill: rgb(0, 0, 0); fill-opacity: 1;"/></g><g class="text"/></g><g class="trace scatter tracefeb33b" style="stroke-miterlimit: 2; opacity: 1;"><g class="fills"/><g class="errorbars"/><g class="lines"/><g class="points"><path class="point" transform="translate(425.74,423.2)" d="M6.94,0A6.94,6.94 0 1,1 0,-6.94A6.94,6.94 0 0,1 6.94,0Z" style="opacity: 1; stroke-width: 0px; fill: rgb(0, 0, 0); fill-opacity: 1;"/><path class="point" transform="translate(425.74,569.13)" d="M6.94,0A6.94,6.94 0 1,1 0,-6.94A6.94,6.94 0 0,1 6.94,0Z" style="opacity: 1; stroke-width: 0px; fill: rgb(0, 0, 0); fill-opacity: 1;"/></g><g class="text"/></g><g class="trace scatter trace147dea" style="stroke-miterlimit: 2; opacity: 1;"><g class="fills"/><g class="errorbars"/><g class="lines"/><g class="points"><path class="point" transform="translate(483.11,423.2)" d="M6.94,0A6.94,6.94 0 1,1 0,-6.94A6.94,6.94 0 0,1 6.94,0Z" style="opacity: 1; stroke-width: 0px; fill: rgb(0, 0, 0); fill-opacity: 1;"/></g><g class="text"/></g><g class="trace scatter traceefe623" style="stroke-miterlimit: 2; opacity: 1;"><g class="fills"/><g class="errorbars"/><g class="lines"/><g class="points"><path class="point" transform="translate(540.49,350.23)" d="M6.94,0A6.94,6.94 0 1,1 0,-6.94A6.94,6.94 0 0,1 6.94,0Z" style="opacity: 1; stroke-width: 0px; fill: rgb(0, 0, 0); fill-opacity: 1;"/></g><g class="text"/></g><g class="trace scatter trace8999ce" style="stroke-miterlimit: 2; opacity: 1;"><g class="fills"/><g class="errorbars"/><g class="lines"/><g class="points"><path class="point" transform="translate(540.49,350.23)" d="M6.94,0A6.94,6.94 0 1,1 0,-6.94A6.94,6.94 0 0,1 6.94,0Z" style="opacity: 1; stroke-width: 0px; fill: rgb(0, 0, 0); fill-opacity: 1;"/><path class="point" transform="translate(540.49,423.2)" d="M6.94,0A6.94,6.94 0 1,1 0,-6.94A6.94,6.94 0 0,1 6.94,0Z" style="opacity: 1; stroke-width: 0px; fill: rgb(0, 0, 0); fill-opacity: 1;"/></g><g class="text"/></g><g class="trace scatter tracef726aa" style="stroke-miterlimit: 2; opacity: 1;"><g class="fills"/><g class="errorbars"/><g class="lines"/><g class="points"><path class="point" transform="translate(597.87,350.23)" d="M6.94,0A6.94,6.94 0 1,1 0,-6.94A6.94,6.94 0 0,1 6.94,0Z" style="opacity: 1; stroke-width: 0px; fill: rgb(0, 0, 0); fill-opacity: 1;"/></g><g class="text"/></g><g class="trace scatter trace1b496b" style="stroke-miterlimit: 2; opacity: 1;"><g class="fills"/><g class="errorbars"/><g class="lines"/><g class="points"><path class="point" transform="translate(597.87,350.23)" d="M6.94,0A6.94,6.94 0 1,1 0,-6.94A6.94,6.94 0 0,1 6.94,0Z" style="opacity: 1; stroke-width: 0px; fill: rgb(0, 0, 0); fill-opacity: 1;"/><path class="point" transform="translate(597.87,496.16)" d="M6.94,0A6.94,6.94 0 1,1 0,-6.94A6.94,6.94 0 0,1 6.94,0Z" style="opacity: 1; stroke-width: 0px; fill: rgb(0, 0, 0); fill-opacity: 1;"/></g><g class="text"/></g><g class="trace scatter traceb6a2d5" style="stroke-miterlimit: 2; opacity: 1;"><g class="fills"/><g class="errorbars"/><g class="lines"/><g class="points"><path class="point" transform="translate(655.25,496.16)" d="M6.94,0A6.94,6.94 0 1,1 0,-6.94A6.94,6.94 0 0,1 6.94,0Z" style="opacity: 1; stroke-width: 0px; fill: rgb(0, 0, 0); fill-opacity: 1;"/></g><g class="text"/></g><g class="trace scatter trace1f7c1f" style="stroke-miterlimit: 2; opacity: 1;"><g class="fills"/><g class="errorbars"/><g class="lines"/><g class="points"><path class="point" transform="translate(655.25,496.16)" d="M6.94,0A6.94,6.94 0 1,1 0,-6.94A6.94,6.94 0 0,1 6.94,0Z" style="opacity: 1; stroke-width: 0px; fill: rgb(0, 0, 0); fill-opacity: 1;"/><path class="point" transform="translate(655.25,569.13)" d="M6.94,0A6.94,6.94 0 1,1 0,-6.94A6.94,6.94 0 0,1 6.94,0Z" style="opacity: 1; stroke-width: 0px; fill: rgb(0, 0, 0); fill-opacity: 1;"/></g><g class="text"/></g><g class="trace scatter trace0bab87" style="stroke-miterlimit: 2; opacity: 1;"><g class="fills"/><g class="errorbars"/><g class="lines"/><g class="points"><path class="point" transform="translate(712.62,423.2)" d="M6.94,0A6.94,6.94 0 1,1 0,-6.94A6.94,6.94 0 0,1 6.94,0Z" style="opacity: 1; stroke-width: 0px; fill: rgb(0, 0, 0); fill-opacity: 1;"/></g><g class="text"/></g><g class="trace scatter trace6e2158" style="stroke-miterlimit: 2; opacity: 1;"><g class="fills"/><g class="errorbars"/><g class="lines"/><g class="points"><path class="point" transform="translate(712.62,423.2)" d="M6.94,0A6.94,6.94 0 1,1 0,-6.94A6.94,6.94 0 0,1 6.94,0Z" style="opacity: 1; stroke-width: 0px; fill: rgb(0, 0, 0); fill-opacity: 1;"/><path class="point" transform="translate(712.62,496.16)" d="M6.94,0A6.94,6.94 0 1,1 0,-6.94A6.94,6.94 0 0,1 6.94,0Z" style="opacity: 1; stroke-width: 0px; fill: rgb(0, 0, 0); fill-opacity: 1;"/></g><g class="text"/></g><g class="trace scatter traceac25ce" style="stroke-miterlimit: 2; opacity: 1;"><g class="fills"/><g class="errorbars"/><g class="lines"/><g class="points"><path class="point" transform="translate(712.62,423.2)" d="M6.94,0A6.94,6.94 0 1,1 0,-6.94A6.94,6.94 0 0,1 6.94,0Z" style="opacity: 1; stroke-width: 0px; fill: rgb(0, 0, 0); fill-opacity: 1;"/><path class="point" transform="translate(712.62,496.16)" d="M6.94,0A6.94,6.94 0 1,1 0,-6.94A6.94,6.94 0 0,1 6.94,0Z" style="opacity: 1; stroke-width: 0px; fill: rgb(0, 0, 0); fill-opacity: 1;"/><path class="point" transform="translate(712.62,569.13)" d="M6.94,0A6.94,6.94 0 1,1 0,-6.94A6.94,6.94 0 0,1 6.94,0Z" style="opacity: 1; stroke-width: 0px; fill: rgb(0, 0, 0); fill-opacity: 1;"/></g><g class="text"/></g><g class="trace scatter traced5b116" style="stroke-miterlimit: 2; opacity: 1;"><g class="fills"/><g class="errorbars"/><g class="lines"/><g class="points"/><g class="text"><g class="textpoint" transform="translate(0,3)"><text x="234.1" y="350.23" text-anchor="end" style="font-family: 'Open Sans', verdana, arial, sans-serif; font-size: 12px; fill: rgb(42, 63, 95); fill-opacity: 1; white-space: pre;">m9-EX_glc_e7.44_BAR-Function-1</text></g><g class="textpoint" transform="translate(0,3)"><text x="234.1" y="423.2" text-anchor="end" style="font-family: 'Open Sans', verdana, arial, sans-serif; font-size: 12px; fill: rgb(42, 63, 95); fill-opacity: 1; white-space: pre;">m9-EX_cit_e7.44_BAR-Function-1</text></g><g class="textpoint" transform="translate(0,3)"><text x="234.1" y="496.16" text-anchor="end" style="font-family: 'Open Sans', verdana, arial, sans-serif; font-size: 12px; fill: rgb(42, 63, 95); fill-opacity: 1; white-space: pre;">m9-EX_ser__L_e14.88_BAR-Function-1</text></g><g class="textpoint" transform="translate(0,3)"><text x="234.1" y="569.13" text-anchor="end" style="font-family: 'Open Sans', verdana, arial, sans-serif; font-size: 12px; fill: rgb(42, 63, 95); fill-opacity: 1; white-space: pre;">m9-EX_fer_e2.91_BAR-Function-1</text></g></g></g></g></g><g class="overplot"/><path class="xlines-above crisp" d="M0,0" style="fill: none;"/><path class="ylines-above crisp" d="M0,0" style="fill: none;"/><g class="overlines-above"/><g class="xaxislayer-above"/><g class="yaxislayer-above"/><g class="overaxes-above"/></g></g><g class="polarlayer"/><g class="smithlayer"/><g class="ternarylayer"/><g class="geolayer"/><g class="funnelarealayer"/><g class="pielayer"/><g class="iciclelayer"/><g class="treemaplayer"/><g class="sunburstlayer"/><g class="glimages"/><defs id="topdefs-8f27f3"><g class="clips"/></defs><g class="layer-above"><g class="imagelayer"/><g class="shapelayer"/></g><g class="infolayer"><g class="g-gtitle"><text class="gtitle" x="500" y="20" text-anchor="middle" dy="0em" style="font-family: 'Open Sans', verdana, arial, sans-serif; font-size: 17px; fill: rgb(42, 63, 95); opacity: 1; font-weight: normal; white-space: pre;"><tspan style="font-weight:bold">Intersections<tspan style="font-weight:bold"></tspan></tspan></text></g><g class="g-xtitle"/><g class="g-ytitle"/></g></svg>