<svg class="main-svg" xmlns="http://www.w3.org/2000/svg" xmlns:xlink="http://www.w3.org/1999/xlink" width="564" height="1200" style="" viewBox="0 0 564 1200"><rect x="0" y="0" width="564" height="1200" style="fill: rgb(255, 255, 255); fill-opacity: 1;"/><defs id="defs-9577eb"><g class="clips"><clipPath id="clip9577ebxyplot" class="plotclip"><rect width="230" height="1020"/></clipPath><clipPath class="axesclip" id="clip9577ebx"><rect x="254" y="0" width="230" height="1200"/></clipPath><clipPath class="axesclip" id="clip9577eby"><rect x="0" y="100" width="564" height="1020"/></clipPath><clipPath class="axesclip" id="clip9577ebxy"><rect x="254" y="100" width="230" height="1020"/></clipPath></g><g class="gradients"/><g class="patterns"/></defs><g class="bglayer"><rect class="bg" x="254" y="100" width="230" height="1020" style="fill: rgb(229, 236, 246); fill-opacity: 1; stroke-width: 0;"/></g><g class="layer-below"><g class="imagelayer"/><g class="shapelayer"/></g><g class="cartesianlayer"><g class="subplot xy"><g class="layer-subplot"><g class="shapelayer"/><g class="imagelayer"/></g><g class="minor-gridlayer"><g class="x"/><g class="y"/></g><g class="gridlayer"><g class="x"><path class="xgrid crisp" transform="translate(282.12,0)" d="M0,100v1020" style="stroke: rgb(255, 255, 255); stroke-opacity: 1; stroke-width: 1px;"/><path class="xgrid crisp" transform="translate(462.36,0)" d="M0,100v1020" style="stroke: rgb(255, 255, 255); stroke-opacity: 1; stroke-width: 1px;"/></g><g class="y"><path class="ygrid crisp" transform="translate(0,1066)" d="M254,0h230" style="stroke: rgb(255, 255, 255); stroke-opacity: 1; stroke-width: 1px;"/><path class="ygrid crisp" transform="translate(0,1039.1799999999998)" d="M254,0h230" style="stroke: rgb(255, 255, 255); stroke-opacity: 1; stroke-width: 1px;"/><path class="ygrid crisp" transform="translate(0,1012.35)" d="M254,0h230" style="stroke: rgb(255, 255, 255); stroke-opacity: 1; stroke-width: 1px;"/><path class="ygrid crisp" transform="translate(0,985.53)" d="M254,0h230" style="stroke: rgb(255, 255, 255); stroke-opacity: 1; stroke-width: 1px;"/><path class="ygrid crisp" transform="translate(0,958.71)" d="M254,0h230" style="stroke: rgb(255, 255, 255); stroke-opacity: 1; stroke-width: 1px;"/><path class="ygrid crisp" transform="translate(0,931.88)" d="M254,0h230" style="stroke: rgb(255, 255, 255); stroke-opacity: 1; stroke-width: 1px;"/><path class="ygrid crisp" transform="translate(0,905.06)" d="M254,0h230" style="stroke: rgb(255, 255, 255); stroke-opacity: 1; stroke-width: 1px;"/><path class="ygrid crisp" transform="translate(0,878.24)" d="M254,0h230" style="stroke: rgb(255, 255, 255); stroke-opacity: 1; stroke-width: 1px;"/><path class="ygrid crisp" transform="translate(0,851.41)" d="M254,0h230" style="stroke: rgb(255, 255, 255); stroke-opacity: 1; stroke-width: 1px;"/><path class="ygrid crisp" transform="translate(0,824.59)" d="M254,0h230" style="stroke: rgb(255, 255, 255); stroke-opacity: 1; stroke-width: 1px;"/><path class="ygrid crisp" transform="translate(0,797.76)" d="M254,0h230" style="stroke: rgb(255, 255, 255); stroke-opacity: 1; stroke-width: 1px;"/><path class="ygrid crisp" transform="translate(0,770.94)" d="M254,0h230" style="stroke: rgb(255, 255, 255); stroke-opacity: 1; stroke-width: 1px;"/><path class="ygrid crisp" transform="translate(0,744.12)" d="M254,0h230" style="stroke: rgb(255, 255, 255); stroke-opacity: 1; stroke-width: 1px;"/><path class="ygrid crisp" transform="translate(0,717.29)" d="M254,0h230" style="stroke: rgb(255, 255, 255); stroke-opacity: 1; stroke-width: 1px;"/><path class="ygrid crisp" transform="translate(0,690.47)" d="M254,0h230" style="stroke: rgb(255, 255, 255); stroke-opacity: 1; stroke-width: 1px;"/><path class="ygrid crisp" transform="translate(0,663.65)" d="M254,0h230" style="stroke: rgb(255, 255, 255); stroke-opacity: 1; stroke-width: 1px;"/><path class="ygrid crisp" transform="translate(0,636.82)" d="M254,0h230" style="stroke: rgb(255, 255, 255); stroke-opacity: 1; stroke-width: 1px;"/><path class="ygrid crisp" transform="translate(0,610)" d="M254,0h230" style="stroke: rgb(255, 255, 255); stroke-opacity: 1; stroke-width: 1px;"/><path class="ygrid crisp" transform="translate(0,583.1800000000001)" d="M254,0h230" style="stroke: rgb(255, 255, 255); stroke-opacity: 1; stroke-width: 1px;"/><path class="ygrid crisp" transform="translate(0,556.35)" d="M254,0h230" style="stroke: rgb(255, 255, 255); stroke-opacity: 1; stroke-width: 1px;"/><path class="ygrid crisp" transform="translate(0,529.53)" d="M254,0h230" style="stroke: rgb(255, 255, 255); stroke-opacity: 1; stroke-width: 1px;"/><path class="ygrid crisp" transform="translate(0,502.71)" d="M254,0h230" style="stroke: rgb(255, 255, 255); stroke-opacity: 1; stroke-width: 1px;"/><path class="ygrid crisp" transform="translate(0,475.88)" d="M254,0h230" style="stroke: rgb(255, 255, 255); stroke-opacity: 1; stroke-width: 1px;"/><path class="ygrid crisp" transform="translate(0,449.06)" d="M254,0h230" style="stroke: rgb(255, 255, 255); stroke-opacity: 1; stroke-width: 1px;"/><path class="ygrid crisp" transform="translate(0,422.24)" d="M254,0h230" style="stroke: rgb(255, 255, 255); stroke-opacity: 1; stroke-width: 1px;"/><path class="ygrid crisp" transform="translate(0,395.41)" d="M254,0h230" style="stroke: rgb(255, 255, 255); stroke-opacity: 1; stroke-width: 1px;"/><path class="ygrid crisp" transform="translate(0,368.59)" d="M254,0h230" style="stroke: rgb(255, 255, 255); stroke-opacity: 1; stroke-width: 1px;"/><path class="ygrid crisp" transform="translate(0,341.76)" d="M254,0h230" style="stroke: rgb(255, 255, 255); stroke-opacity: 1; stroke-width: 1px;"/><path class="ygrid crisp" transform="translate(0,314.94)" d="M254,0h230" style="stroke: rgb(255, 255, 255); stroke-opacity: 1; stroke-width: 1px;"/><path class="ygrid crisp" transform="translate(0,288.12)" d="M254,0h230" style="stroke: rgb(255, 255, 255); stroke-opacity: 1; stroke-width: 1px;"/><path class="ygrid crisp" transform="translate(0,261.28999999999996)" d="M254,0h230" style="stroke: rgb(255, 255, 255); stroke-opacity: 1; stroke-width: 1px;"/><path class="ygrid crisp" transform="translate(0,234.47)" d="M254,0h230" style="stroke: rgb(255, 255, 255); stroke-opacity: 1; stroke-width: 1px;"/><path class="ygrid crisp" transform="translate(0,207.65)" d="M254,0h230" style="stroke: rgb(255, 255, 255); stroke-opacity: 1; stroke-width: 1px;"/><path class="ygrid crisp" transform="translate(0,180.82)" d="M254,0h230" style="stroke: rgb(255, 255, 255); stroke-opacity: 1; stroke-width: 1px;"/><path class="ygrid crisp" transform="translate(0,154)" d="M254,0h230" style="stroke: rgb(255, 255, 255); stroke-opacity: 1; stroke-width: 1px;"/></g></g><g class="zerolinelayer"/><path class="xlines-below"/><path class="ylines-below"/><g class="overlines-below"/><g class="xaxislayer-below"/><g class="yaxislayer-below"/><g class="overaxes-below"/><g class="plot" transform="translate(254,100)" clip-path="url(#clip9577ebxyplot)"><g class="scatterlayer mlayer"><g class="trace scatter tracec24697" style="stroke-miterlimit: 2; opacity: 1;"><g class="fills"/><g class="errorbars"/><g class="lines"/><g class="points"><path class="point" transform="translate(28.12,966)" d="M0,0A0,0 0 1,1 0,-0A0,0 0 0,1 0,0Z" style="opacity: 0.7; stroke-width: 2px; fill: rgb(31, 119, 180); fill-opacity: 1; stroke: rgb(255, 255, 255); stroke-opacity: 1;"/><path class="point" transform="translate(28.12,939.18)" d="M0.11,0A0.11,0.11 0 1,1 0,-0.11A0.11,0.11 0 0,1 0.11,0Z" style="opacity: 0.7; stroke-width: 2px; fill: rgb(31, 119, 180); fill-opacity: 1; stroke: rgb(255, 255, 255); stroke-opacity: 1;"/><path class="point" transform="translate(28.12,912.35)" d="M0,0A0,0 0 1,1 0,-0A0,0 0 0,1 0,0Z" style="opacity: 0.7; stroke-width: 2px; fill: rgb(31, 119, 180); fill-opacity: 1; stroke: rgb(255, 255, 255); stroke-opacity: 1;"/><path class="point" transform="translate(28.12,885.53)" d="M0.77,0A0.77,0.77 0 1,1 0,-0.77A0.77,0.77 0 0,1 0.77,0Z" style="opacity: 0.7; stroke-width: 2px; fill: rgb(31, 119, 180); fill-opacity: 1; stroke: rgb(255, 255, 255); stroke-opacity: 1;"/><path class="point" transform="translate(28.12,858.71)" d="M2.42,0A2.42,2.42 0 1,1 0,-2.42A2.42,2.42 0 0,1 2.42,0Z" style="opacity: 0.7; stroke-width: 2px; fill: rgb(31, 119, 180); fill-opacity: 1; stroke: rgb(255, 255, 255); stroke-opacity: 1;"/><path class="point" transform="translate(28.12,831.88)" d="M1.1,0A1.1,1.1 0 1,1 0,-1.1A1.1,1.1 0 0,1 1.1,0Z" style="opacity: 0.7; stroke-width: 2px; fill: rgb(31, 119, 180); fill-opacity: 1; stroke: rgb(255, 255, 255); stroke-opacity: 1;"/><path class="point" transform="translate(28.12,805.06)" d="M0.55,0A0.55,0.55 0 1,1 0,-0.55A0.55,0.55 0 0,1 0.55,0Z" style="opacity: 0.7; stroke-width: 2px; fill: rgb(31, 119, 180); fill-opacity: 1; stroke: rgb(255, 255, 255); stroke-opacity: 1;"/><path class="point" transform="translate(28.12,778.24)" d="M2.64,0A2.64,2.64 0 1,1 0,-2.64A2.64,2.64 0 0,1 2.64,0Z" style="opacity: 0.7; stroke-width: 2px; fill: rgb(31, 119, 180); fill-opacity: 1; stroke: rgb(255, 255, 255); stroke-opacity: 1;"/><path class="point" transform="translate(28.12,751.41)" d="M0,0A0,0 0 1,1 0,-0A0,0 0 0,1 0,0Z" style="opacity: 0.7; stroke-width: 2px; fill: rgb(31, 119, 180); fill-opacity: 1; stroke: rgb(255, 255, 255); stroke-opacity: 1;"/><path class="point" transform="translate(28.12,724.59)" d="M0.66,0A0.66,0.66 0 1,1 0,-0.66A0.66,0.66 0 0,1 0.66,0Z" style="opacity: 0.7; stroke-width: 2px; fill: rgb(31, 119, 180); fill-opacity: 1; stroke: rgb(255, 255, 255); stroke-opacity: 1;"/><path class="point" transform="translate(28.12,697.76)" d="M2.75,0A2.75,2.75 0 1,1 0,-2.75A2.75,2.75 0 0,1 2.75,0Z" style="opacity: 0.7; stroke-width: 2px; fill: rgb(31, 119, 180); fill-opacity: 1; stroke: rgb(255, 255, 255); stroke-opacity: 1;"/><path class="point" transform="translate(28.12,670.94)" d="M2.31,0A2.31,2.31 0 1,1 0,-2.31A2.31,2.31 0 0,1 2.31,0Z" style="opacity: 0.7; stroke-width: 2px; fill: rgb(31, 119, 180); fill-opacity: 1; stroke: rgb(255, 255, 255); stroke-opacity: 1;"/><path class="point" transform="translate(28.12,644.12)" d="M0.44,0A0.44,0.44 0 1,1 0,-0.44A0.44,0.44 0 0,1 0.44,0Z" style="opacity: 0.7; stroke-width: 2px; fill: rgb(31, 119, 180); fill-opacity: 1; stroke: rgb(255, 255, 255); stroke-opacity: 1;"/><path class="point" transform="translate(28.12,617.29)" d="M0.55,0A0.55,0.55 0 1,1 0,-0.55A0.55,0.55 0 0,1 0.55,0Z" style="opacity: 0.7; stroke-width: 2px; fill: rgb(31, 119, 180); fill-opacity: 1; stroke: rgb(255, 255, 255); stroke-opacity: 1;"/><path class="point" transform="translate(28.12,590.47)" d="M0.22,0A0.22,0.22 0 1,1 0,-0.22A0.22,0.22 0 0,1 0.22,0Z" style="opacity: 0.7; stroke-width: 2px; fill: rgb(31, 119, 180); fill-opacity: 1; stroke: rgb(255, 255, 255); stroke-opacity: 1;"/><path class="point" transform="translate(28.12,563.65)" d="M1.43,0A1.43,1.43 0 1,1 0,-1.43A1.43,1.43 0 0,1 1.43,0Z" style="opacity: 0.7; stroke-width: 2px; fill: rgb(31, 119, 180); fill-opacity: 1; stroke: rgb(255, 255, 255); stroke-opacity: 1;"/><path class="point" transform="translate(28.12,536.82)" d="M1.43,0A1.43,1.43 0 1,1 0,-1.43A1.43,1.43 0 0,1 1.43,0Z" style="opacity: 0.7; stroke-width: 2px; fill: rgb(31, 119, 180); fill-opacity: 1; stroke: rgb(255, 255, 255); stroke-opacity: 1;"/><path class="point" transform="translate(28.12,510)" d="M2.86,0A2.86,2.86 0 1,1 0,-2.86A2.86,2.86 0 0,1 2.86,0Z" style="opacity: 0.7; stroke-width: 2px; fill: rgb(31, 119, 180); fill-opacity: 1; stroke: rgb(255, 255, 255); stroke-opacity: 1;"/><path class="point" transform="translate(28.12,483.18)" d="M2.09,0A2.09,2.09 0 1,1 0,-2.09A2.09,2.09 0 0,1 2.09,0Z" style="opacity: 0.7; stroke-width: 2px; fill: rgb(31, 119, 180); fill-opacity: 1; stroke: rgb(255, 255, 255); stroke-opacity: 1;"/><path class="point" transform="translate(28.12,456.35)" d="M13.3,0A13.3,13.3 0 1,1 0,-13.3A13.3,13.3 0 0,1 13.3,0Z" style="opacity: 0.7; stroke-width: 2px; fill: rgb(31, 119, 180); fill-opacity: 1; stroke: rgb(255, 255, 255); stroke-opacity: 1;"/><path class="point" transform="translate(28.12,429.53)" d="M0.44,0A0.44,0.44 0 1,1 0,-0.44A0.44,0.44 0 0,1 0.44,0Z" style="opacity: 0.7; stroke-width: 2px; fill: rgb(31, 119, 180); fill-opacity: 1; stroke: rgb(255, 255, 255); stroke-opacity: 1;"/><path class="point" transform="translate(28.12,402.71)" d="M1.1,0A1.1,1.1 0 1,1 0,-1.1A1.1,1.1 0 0,1 1.1,0Z" style="opacity: 0.7; stroke-width: 2px; fill: rgb(31, 119, 180); fill-opacity: 1; stroke: rgb(255, 255, 255); stroke-opacity: 1;"/><path class="point" transform="translate(28.12,375.88)" d="M1.1,0A1.1,1.1 0 1,1 0,-1.1A1.1,1.1 0 0,1 1.1,0Z" style="opacity: 0.7; stroke-width: 2px; fill: rgb(31, 119, 180); fill-opacity: 1; stroke: rgb(255, 255, 255); stroke-opacity: 1;"/><path class="point" transform="translate(28.12,349.06)" d="M2.53,0A2.53,2.53 0 1,1 0,-2.53A2.53,2.53 0 0,1 2.53,0Z" style="opacity: 0.7; stroke-width: 2px; fill: rgb(31, 119, 180); fill-opacity: 1; stroke: rgb(255, 255, 255); stroke-opacity: 1;"/><path class="point" transform="translate(28.12,322.24)" d="M2.2,0A2.2,2.2 0 1,1 0,-2.2A2.2,2.2 0 0,1 2.2,0Z" style="opacity: 0.7; stroke-width: 2px; fill: rgb(31, 119, 180); fill-opacity: 1; stroke: rgb(255, 255, 255); stroke-opacity: 1;"/><path class="point" transform="translate(28.12,295.41)" d="M1.21,0A1.21,1.21 0 1,1 0,-1.21A1.21,1.21 0 0,1 1.21,0Z" style="opacity: 0.7; stroke-width: 2px; fill: rgb(31, 119, 180); fill-opacity: 1; stroke: rgb(255, 255, 255); stroke-opacity: 1;"/><path class="point" transform="translate(28.12,268.59)" d="M4.4,0A4.4,4.4 0 1,1 0,-4.4A4.4,4.4 0 0,1 4.4,0Z" style="opacity: 0.7; stroke-width: 2px; fill: rgb(31, 119, 180); fill-opacity: 1; stroke: rgb(255, 255, 255); stroke-opacity: 1;"/><path class="point" transform="translate(28.12,241.76)" d="M1.1,0A1.1,1.1 0 1,1 0,-1.1A1.1,1.1 0 0,1 1.1,0Z" style="opacity: 0.7; stroke-width: 2px; fill: rgb(31, 119, 180); fill-opacity: 1; stroke: rgb(255, 255, 255); stroke-opacity: 1;"/><path class="point" transform="translate(28.12,214.94)" d="M2.75,0A2.75,2.75 0 1,1 0,-2.75A2.75,2.75 0 0,1 2.75,0Z" style="opacity: 0.7; stroke-width: 2px; fill: rgb(31, 119, 180); fill-opacity: 1; stroke: rgb(255, 255, 255); stroke-opacity: 1;"/><path class="point" transform="translate(28.12,188.12)" d="M3.41,0A3.41,3.41 0 1,1 0,-3.41A3.41,3.41 0 0,1 3.41,0Z" style="opacity: 0.7; stroke-width: 2px; fill: rgb(31, 119, 180); fill-opacity: 1; stroke: rgb(255, 255, 255); stroke-opacity: 1;"/><path class="point" transform="translate(28.12,161.29)" d="M0.11,0A0.11,0.11 0 1,1 0,-0.11A0.11,0.11 0 0,1 0.11,0Z" style="opacity: 0.7; stroke-width: 2px; fill: rgb(31, 119, 180); fill-opacity: 1; stroke: rgb(255, 255, 255); stroke-opacity: 1;"/><path class="point" transform="translate(28.12,134.47)" d="M1.65,0A1.65,1.65 0 1,1 0,-1.65A1.65,1.65 0 0,1 1.65,0Z" style="opacity: 0.7; stroke-width: 2px; fill: rgb(31, 119, 180); fill-opacity: 1; stroke: rgb(255, 255, 255); stroke-opacity: 1;"/><path class="point" transform="translate(28.12,107.65)" d="M2.31,0A2.31,2.31 0 1,1 0,-2.31A2.31,2.31 0 0,1 2.31,0Z" style="opacity: 0.7; stroke-width: 2px; fill: rgb(31, 119, 180); fill-opacity: 1; stroke: rgb(255, 255, 255); stroke-opacity: 1;"/><path class="point" transform="translate(28.12,80.82)" d="M5.82,0A5.82,5.82 0 1,1 0,-5.82A5.82,5.82 0 0,1 5.82,0Z" style="opacity: 0.7; stroke-width: 2px; fill: rgb(31, 119, 180); fill-opacity: 1; stroke: rgb(255, 255, 255); stroke-opacity: 1;"/><path class="point" transform="translate(28.12,54)" d="M0.55,0A0.55,0.55 0 1,1 0,-0.55A0.55,0.55 0 0,1 0.55,0Z" style="opacity: 0.7; stroke-width: 2px; fill: rgb(31, 119, 180); fill-opacity: 1; stroke: rgb(255, 255, 255); stroke-opacity: 1;"/></g><g class="text"/></g><g class="trace scatter trace6fede9" style="stroke-miterlimit: 2; opacity: 1;"><g class="fills"/><g class="errorbars"/><g class="lines"/><g class="points"><path class="point" transform="translate(208.36,966)" d="M0.8,0A0.8,0.8 0 1,1 0,-0.8A0.8,0.8 0 0,1 0.8,0Z" style="opacity: 0.7; stroke-width: 2px; fill: rgb(255, 127, 14); fill-opacity: 1; stroke: rgb(255, 255, 255); stroke-opacity: 1;"/><path class="point" transform="translate(208.36,939.18)" d="M1.75,0A1.75,1.75 0 1,1 0,-1.75A1.75,1.75 0 0,1 1.75,0Z" style="opacity: 0.7; stroke-width: 2px; fill: rgb(255, 127, 14); fill-opacity: 1; stroke: rgb(255, 255, 255); stroke-opacity: 1;"/><path class="point" transform="translate(208.36,912.35)" d="M1.11,0A1.11,1.11 0 1,1 0,-1.11A1.11,1.11 0 0,1 1.11,0Z" style="opacity: 0.7; stroke-width: 2px; fill: rgb(255, 127, 14); fill-opacity: 1; stroke: rgb(255, 255, 255); stroke-opacity: 1;"/><path class="point" transform="translate(208.36,885.53)" d="M3.02,0A3.02,3.02 0 1,1 0,-3.02A3.02,3.02 0 0,1 3.02,0Z" style="opacity: 0.7; stroke-width: 2px; fill: rgb(255, 127, 14); fill-opacity: 1; stroke: rgb(255, 255, 255); stroke-opacity: 1;"/><path class="point" transform="translate(208.36,858.71)" d="M1.91,0A1.91,1.91 0 1,1 0,-1.91A1.91,1.91 0 0,1 1.91,0Z" style="opacity: 0.7; stroke-width: 2px; fill: rgb(255, 127, 14); fill-opacity: 1; stroke: rgb(255, 255, 255); stroke-opacity: 1;"/><path class="point" transform="translate(208.36,831.88)" d="M1.91,0A1.91,1.91 0 1,1 0,-1.91A1.91,1.91 0 0,1 1.91,0Z" style="opacity: 0.7; stroke-width: 2px; fill: rgb(255, 127, 14); fill-opacity: 1; stroke: rgb(255, 255, 255); stroke-opacity: 1;"/><path class="point" transform="translate(208.36,805.06)" d="M0.95,0A0.95,0.95 0 1,1 0,-0.95A0.95,0.95 0 0,1 0.95,0Z" style="opacity: 0.7; stroke-width: 2px; fill: rgb(255, 127, 14); fill-opacity: 1; stroke: rgb(255, 255, 255); stroke-opacity: 1;"/><path class="point" transform="translate(208.36,778.24)" d="M1.75,0A1.75,1.75 0 1,1 0,-1.75A1.75,1.75 0 0,1 1.75,0Z" style="opacity: 0.7; stroke-width: 2px; fill: rgb(255, 127, 14); fill-opacity: 1; stroke: rgb(255, 255, 255); stroke-opacity: 1;"/><path class="point" transform="translate(208.36,751.41)" d="M0.64,0A0.64,0.64 0 1,1 0,-0.64A0.64,0.64 0 0,1 0.64,0Z" style="opacity: 0.7; stroke-width: 2px; fill: rgb(255, 127, 14); fill-opacity: 1; stroke: rgb(255, 255, 255); stroke-opacity: 1;"/><path class="point" transform="translate(208.36,724.59)" d="M0.8,0A0.8,0.8 0 1,1 0,-0.8A0.8,0.8 0 0,1 0.8,0Z" style="opacity: 0.7; stroke-width: 2px; fill: rgb(255, 127, 14); fill-opacity: 1; stroke: rgb(255, 255, 255); stroke-opacity: 1;"/><path class="point" transform="translate(208.36,697.76)" d="M4.29,0A4.29,4.29 0 1,1 0,-4.29A4.29,4.29 0 0,1 4.29,0Z" style="opacity: 0.7; stroke-width: 2px; fill: rgb(255, 127, 14); fill-opacity: 1; stroke: rgb(255, 255, 255); stroke-opacity: 1;"/><path class="point" transform="translate(208.36,670.94)" d="M3.18,0A3.18,3.18 0 1,1 0,-3.18A3.18,3.18 0 0,1 3.18,0Z" style="opacity: 0.7; stroke-width: 2px; fill: rgb(255, 127, 14); fill-opacity: 1; stroke: rgb(255, 255, 255); stroke-opacity: 1;"/><path class="point" transform="translate(208.36,644.12)" d="M1.27,0A1.27,1.27 0 1,1 0,-1.27A1.27,1.27 0 0,1 1.27,0Z" style="opacity: 0.7; stroke-width: 2px; fill: rgb(255, 127, 14); fill-opacity: 1; stroke: rgb(255, 255, 255); stroke-opacity: 1;"/><path class="point" transform="translate(208.36,617.29)" d="M0,0A0,0 0 1,1 0,-0A0,0 0 0,1 0,0Z" style="opacity: 0.7; stroke-width: 2px; fill: rgb(255, 127, 14); fill-opacity: 1; stroke: rgb(255, 255, 255); stroke-opacity: 1;"/><path class="point" transform="translate(208.36,590.47)" d="M0.64,0A0.64,0.64 0 1,1 0,-0.64A0.64,0.64 0 0,1 0.64,0Z" style="opacity: 0.7; stroke-width: 2px; fill: rgb(255, 127, 14); fill-opacity: 1; stroke: rgb(255, 255, 255); stroke-opacity: 1;"/><path class="point" transform="translate(208.36,563.65)" d="M2.39,0A2.39,2.39 0 1,1 0,-2.39A2.39,2.39 0 0,1 2.39,0Z" style="opacity: 0.7; stroke-width: 2px; fill: rgb(255, 127, 14); fill-opacity: 1; stroke: rgb(255, 255, 255); stroke-opacity: 1;"/><path class="point" transform="translate(208.36,536.82)" d="M1.27,0A1.27,1.27 0 1,1 0,-1.27A1.27,1.27 0 0,1 1.27,0Z" style="opacity: 0.7; stroke-width: 2px; fill: rgb(255, 127, 14); fill-opacity: 1; stroke: rgb(255, 255, 255); stroke-opacity: 1;"/><path class="point" transform="translate(208.36,510)" d="M2.23,0A2.23,2.23 0 1,1 0,-2.23A2.23,2.23 0 0,1 2.23,0Z" style="opacity: 0.7; stroke-width: 2px; fill: rgb(255, 127, 14); fill-opacity: 1; stroke: rgb(255, 255, 255); stroke-opacity: 1;"/><path class="point" transform="translate(208.36,483.18)" d="M2.07,0A2.07,2.07 0 1,1 0,-2.07A2.07,2.07 0 0,1 2.07,0Z" style="opacity: 0.7; stroke-width: 2px; fill: rgb(255, 127, 14); fill-opacity: 1; stroke: rgb(255, 255, 255); stroke-opacity: 1;"/><path class="point" transform="translate(208.36,456.35)" d="M8.11,0A8.11,8.11 0 1,1 0,-8.11A8.11,8.11 0 0,1 8.11,0Z" style="opacity: 0.7; stroke-width: 2px; fill: rgb(255, 127, 14); fill-opacity: 1; stroke: rgb(255, 255, 255); stroke-opacity: 1;"/><path class="point" transform="translate(208.36,429.53)" d="M0.8,0A0.8,0.8 0 1,1 0,-0.8A0.8,0.8 0 0,1 0.8,0Z" style="opacity: 0.7; stroke-width: 2px; fill: rgb(255, 127, 14); fill-opacity: 1; stroke: rgb(255, 255, 255); stroke-opacity: 1;"/><path class="point" transform="translate(208.36,402.71)" d="M0.64,0A0.64,0.64 0 1,1 0,-0.64A0.64,0.64 0 0,1 0.64,0Z" style="opacity: 0.7; stroke-width: 2px; fill: rgb(255, 127, 14); fill-opacity: 1; stroke: rgb(255, 255, 255); stroke-opacity: 1;"/><path class="point" transform="translate(208.36,375.88)" d="M1.75,0A1.75,1.75 0 1,1 0,-1.75A1.75,1.75 0 0,1 1.75,0Z" style="opacity: 0.7; stroke-width: 2px; fill: rgb(255, 127, 14); fill-opacity: 1; stroke: rgb(255, 255, 255); stroke-opacity: 1;"/><path class="point" transform="translate(208.36,349.06)" d="M0,0A0,0 0 1,1 0,-0A0,0 0 0,1 0,0Z" style="opacity: 0.7; stroke-width: 2px; fill: rgb(255, 127, 14); fill-opacity: 1; stroke: rgb(255, 255, 255); stroke-opacity: 1;"/><path class="point" transform="translate(208.36,322.24)" d="M0.64,0A0.64,0.64 0 1,1 0,-0.64A0.64,0.64 0 0,1 0.64,0Z" style="opacity: 0.7; stroke-width: 2px; fill: rgb(255, 127, 14); fill-opacity: 1; stroke: rgb(255, 255, 255); stroke-opacity: 1;"/><path class="point" transform="translate(208.36,295.41)" d="M0,0A0,0 0 1,1 0,-0A0,0 0 0,1 0,0Z" style="opacity: 0.7; stroke-width: 2px; fill: rgb(255, 127, 14); fill-opacity: 1; stroke: rgb(255, 255, 255); stroke-opacity: 1;"/><path class="point" transform="translate(208.36,268.59)" d="M6.84,0A6.84,6.84 0 1,1 0,-6.84A6.84,6.84 0 0,1 6.84,0Z" style="opacity: 0.7; stroke-width: 2px; fill: rgb(255, 127, 14); fill-opacity: 1; stroke: rgb(255, 255, 255); stroke-opacity: 1;"/><path class="point" transform="translate(208.36,241.76)" d="M1.75,0A1.75,1.75 0 1,1 0,-1.75A1.75,1.75 0 0,1 1.75,0Z" style="opacity: 0.7; stroke-width: 2px; fill: rgb(255, 127, 14); fill-opacity: 1; stroke: rgb(255, 255, 255); stroke-opacity: 1;"/><path class="point" transform="translate(208.36,214.94)" d="M2.39,0A2.39,2.39 0 1,1 0,-2.39A2.39,2.39 0 0,1 2.39,0Z" style="opacity: 0.7; stroke-width: 2px; fill: rgb(255, 127, 14); fill-opacity: 1; stroke: rgb(255, 255, 255); stroke-opacity: 1;"/><path class="point" transform="translate(208.36,188.12)" d="M3.5,0A3.5,3.5 0 1,1 0,-3.5A3.5,3.5 0 0,1 3.5,0Z" style="opacity: 0.7; stroke-width: 2px; fill: rgb(255, 127, 14); fill-opacity: 1; stroke: rgb(255, 255, 255); stroke-opacity: 1;"/><path class="point" transform="translate(208.36,161.29)" d="M1.91,0A1.91,1.91 0 1,1 0,-1.91A1.91,1.91 0 0,1 1.91,0Z" style="opacity: 0.7; stroke-width: 2px; fill: rgb(255, 127, 14); fill-opacity: 1; stroke: rgb(255, 255, 255); stroke-opacity: 1;"/><path class="point" transform="translate(208.36,134.47)" d="M0.48,0A0.48,0.48 0 1,1 0,-0.48A0.48,0.48 0 0,1 0.48,0Z" style="opacity: 0.7; stroke-width: 2px; fill: rgb(255, 127, 14); fill-opacity: 1; stroke: rgb(255, 255, 255); stroke-opacity: 1;"/><path class="point" transform="translate(208.36,107.65)" d="M1.59,0A1.59,1.59 0 1,1 0,-1.59A1.59,1.59 0 0,1 1.59,0Z" style="opacity: 0.7; stroke-width: 2px; fill: rgb(255, 127, 14); fill-opacity: 1; stroke: rgb(255, 255, 255); stroke-opacity: 1;"/><path class="point" transform="translate(208.36,80.82)" d="M3.82,0A3.82,3.82 0 1,1 0,-3.82A3.82,3.82 0 0,1 3.82,0Z" style="opacity: 0.7; stroke-width: 2px; fill: rgb(255, 127, 14); fill-opacity: 1; stroke: rgb(255, 255, 255); stroke-opacity: 1;"/><path class="point" transform="translate(208.36,54)" d="M0.32,0A0.32,0.32 0 1,1 0,-0.32A0.32,0.32 0 0,1 0.32,0Z" style="opacity: 0.7; stroke-width: 2px; fill: rgb(255, 127, 14); fill-opacity: 1; stroke: rgb(255, 255, 255); stroke-opacity: 1;"/></g><g class="text"/></g></g></g><g class="overplot"/><path class="xlines-above crisp" d="M0,0" style="fill: none;"/><path class="ylines-above crisp" d="M0,0" style="fill: none;"/><g class="overlines-above"/><g class="xaxislayer-above"><g class="xtick"><text text-anchor="middle" x="0" y="1133" transform="translate(282.12,0)" style="font-family: 'Open Sans', verdana, arial, sans-serif; font-size: 12px; fill: rgb(42, 63, 95); fill-opacity: 1; white-space: pre; opacity: 1;">BAR_Set_percentage</text></g><g class="xtick"><text text-anchor="middle" x="0" y="1133" transform="translate(462.36,0)" style="font-family: 'Open Sans', verdana, arial, sans-serif; font-size: 12px; fill: rgb(42, 63, 95); fill-opacity: 1; white-space: pre; opacity: 1;">NBR_Set_percentage</text></g></g><g class="yaxislayer-above"><g class="ytick"><text text-anchor="end" x="253" y="4.199999999999999" transform="translate(0,1066)" style="font-family: 'Open Sans', verdana, arial, sans-serif; font-size: 12px; fill: rgb(42, 63, 95); fill-opacity: 1; white-space: pre; opacity: 1;">Acetoin catabolism</text></g><g class="ytick"><text text-anchor="end" x="253" y="4.199999999999999" transform="translate(0,1039.1799999999998)" style="font-family: 'Open Sans', verdana, arial, sans-serif; font-size: 12px; fill: rgb(42, 63, 95); fill-opacity: 1; white-space: pre; opacity: 1;">Alcohol/aromatics catabolism</text></g><g class="ytick"><text text-anchor="end" x="253" y="4.199999999999999" transform="translate(0,1012.35)" style="font-family: 'Open Sans', verdana, arial, sans-serif; font-size: 12px; fill: rgb(42, 63, 95); fill-opacity: 1; white-space: pre; opacity: 1;">Alginate biosynthesis</text></g><g class="ytick"><text text-anchor="end" x="253" y="4.199999999999999" transform="translate(0,985.53)" style="font-family: 'Open Sans', verdana, arial, sans-serif; font-size: 12px; fill: rgb(42, 63, 95); fill-opacity: 1; white-space: pre; opacity: 1;">Amino acid transportation</text></g><g class="ytick"><text text-anchor="end" x="253" y="4.199999999999999" transform="translate(0,958.71)" style="font-family: 'Open Sans', verdana, arial, sans-serif; font-size: 12px; fill: rgb(42, 63, 95); fill-opacity: 1; white-space: pre; opacity: 1;">Aromatic acid catabolism</text></g><g class="ytick"><text text-anchor="end" x="253" y="4.199999999999999" transform="translate(0,931.88)" style="font-family: 'Open Sans', verdana, arial, sans-serif; font-size: 12px; fill: rgb(42, 63, 95); fill-opacity: 1; white-space: pre; opacity: 1;">C2 carbon metabolism</text></g><g class="ytick"><text text-anchor="end" x="253" y="4.199999999999999" transform="translate(0,905.06)" style="font-family: 'Open Sans', verdana, arial, sans-serif; font-size: 12px; fill: rgb(42, 63, 95); fill-opacity: 1; white-space: pre; opacity: 1;">Citrate transportation</text></g><g class="ytick"><text text-anchor="end" x="253" y="4.199999999999999" transform="translate(0,878.24)" style="font-family: 'Open Sans', verdana, arial, sans-serif; font-size: 12px; fill: rgb(42, 63, 95); fill-opacity: 1; white-space: pre; opacity: 1;">Fatty acid catabolism</text></g><g class="ytick"><text text-anchor="end" x="253" y="4.199999999999999" transform="translate(0,851.41)" style="font-family: 'Open Sans', verdana, arial, sans-serif; font-size: 12px; fill: rgb(42, 63, 95); fill-opacity: 1; white-space: pre; opacity: 1;">FleQ related exporters, aldehyde stress</text></g><g class="ytick"><text text-anchor="end" x="253" y="4.199999999999999" transform="translate(0,824.59)" style="font-family: 'Open Sans', verdana, arial, sans-serif; font-size: 12px; fill: rgb(42, 63, 95); fill-opacity: 1; white-space: pre; opacity: 1;">Galactose ALE specific</text></g><g class="ytick"><text text-anchor="end" x="253" y="4.199999999999999" transform="translate(0,797.76)" style="font-family: 'Open Sans', verdana, arial, sans-serif; font-size: 12px; fill: rgb(42, 63, 95); fill-opacity: 1; white-space: pre; opacity: 1;">Glycine Betaine Catabolism</text></g><g class="ytick"><text text-anchor="end" x="253" y="4.199999999999999" transform="translate(0,770.94)" style="font-family: 'Open Sans', verdana, arial, sans-serif; font-size: 12px; fill: rgb(42, 63, 95); fill-opacity: 1; white-space: pre; opacity: 1;">Glycine metabolism</text></g><g class="ytick"><text text-anchor="end" x="253" y="4.199999999999999" transform="translate(0,744.12)" style="font-family: 'Open Sans', verdana, arial, sans-serif; font-size: 12px; fill: rgb(42, 63, 95); fill-opacity: 1; white-space: pre; opacity: 1;">Histidine metabolism</text></g><g class="ytick"><text text-anchor="end" x="253" y="4.199999999999999" transform="translate(0,717.29)" style="font-family: 'Open Sans', verdana, arial, sans-serif; font-size: 12px; fill: rgb(42, 63, 95); fill-opacity: 1; white-space: pre; opacity: 1;">Inorganic ion transport and metabolism</text></g><g class="ytick"><text text-anchor="end" x="253" y="4.199999999999999" transform="translate(0,690.47)" style="font-family: 'Open Sans', verdana, arial, sans-serif; font-size: 12px; fill: rgb(42, 63, 95); fill-opacity: 1; white-space: pre; opacity: 1;">Lactate catabolism</text></g><g class="ytick"><text text-anchor="end" x="253" y="4.199999999999999" transform="translate(0,663.65)" style="font-family: 'Open Sans', verdana, arial, sans-serif; font-size: 12px; fill: rgb(42, 63, 95); fill-opacity: 1; white-space: pre; opacity: 1;">Metal related response</text></g><g class="ytick"><text text-anchor="end" x="253" y="4.199999999999999" transform="translate(0,636.82)" style="font-family: 'Open Sans', verdana, arial, sans-serif; font-size: 12px; fill: rgb(42, 63, 95); fill-opacity: 1; white-space: pre; opacity: 1;">Muconate production study</text></g><g class="ytick"><text text-anchor="end" x="253" y="4.199999999999999" transform="translate(0,610)" style="font-family: 'Open Sans', verdana, arial, sans-serif; font-size: 12px; fill: rgb(42, 63, 95); fill-opacity: 1; white-space: pre; opacity: 1;">Multiple stress response</text></g><g class="ytick"><text text-anchor="end" x="253" y="4.199999999999999" transform="translate(0,583.1800000000001)" style="font-family: 'Open Sans', verdana, arial, sans-serif; font-size: 12px; fill: rgb(42, 63, 95); fill-opacity: 1; white-space: pre; opacity: 1;">Noise, PP_0943, hypothetical protein, 393 bp</text></g><g class="ytick"><text text-anchor="end" x="253" y="4.199999999999999" transform="translate(0,556.35)" style="font-family: 'Open Sans', verdana, arial, sans-serif; font-size: 12px; fill: rgb(42, 63, 95); fill-opacity: 1; white-space: pre; opacity: 1;">Null</text></g><g class="ytick"><text text-anchor="end" x="253" y="4.199999999999999" transform="translate(0,529.53)" style="font-family: 'Open Sans', verdana, arial, sans-serif; font-size: 12px; fill: rgb(42, 63, 95); fill-opacity: 1; white-space: pre; opacity: 1;">Osmotic stress response</text></g><g class="ytick"><text text-anchor="end" x="253" y="4.199999999999999" transform="translate(0,502.71)" style="font-family: 'Open Sans', verdana, arial, sans-serif; font-size: 12px; fill: rgb(42, 63, 95); fill-opacity: 1; white-space: pre; opacity: 1;">Oxidative stress</text></g><g class="ytick"><text text-anchor="end" x="253" y="4.199999999999999" transform="translate(0,475.88)" style="font-family: 'Open Sans', verdana, arial, sans-serif; font-size: 12px; fill: rgb(42, 63, 95); fill-opacity: 1; white-space: pre; opacity: 1;">Polyamine metabolism</text></g><g class="ytick"><text text-anchor="end" x="253" y="4.199999999999999" transform="translate(0,449.06)" style="font-family: 'Open Sans', verdana, arial, sans-serif; font-size: 12px; fill: rgb(42, 63, 95); fill-opacity: 1; white-space: pre; opacity: 1;">Protein synthesis</text></g><g class="ytick"><text text-anchor="end" x="253" y="4.199999999999999" transform="translate(0,422.24)" style="font-family: 'Open Sans', verdana, arial, sans-serif; font-size: 12px; fill: rgb(42, 63, 95); fill-opacity: 1; white-space: pre; opacity: 1;">Pyoverdine biosynthesis</text></g><g class="ytick"><text text-anchor="end" x="253" y="4.199999999999999" transform="translate(0,395.41)" style="font-family: 'Open Sans', verdana, arial, sans-serif; font-size: 12px; fill: rgb(42, 63, 95); fill-opacity: 1; white-space: pre; opacity: 1;">Redox state homeostasis</text></g><g class="ytick"><text text-anchor="end" x="253" y="4.199999999999999" transform="translate(0,368.59)" style="font-family: 'Open Sans', verdana, arial, sans-serif; font-size: 12px; fill: rgb(42, 63, 95); fill-opacity: 1; white-space: pre; opacity: 1;">Ribose and lipid catabolism</text></g><g class="ytick"><text text-anchor="end" x="253" y="4.199999999999999" transform="translate(0,341.76)" style="font-family: 'Open Sans', verdana, arial, sans-serif; font-size: 12px; fill: rgb(42, 63, 95); fill-opacity: 1; white-space: pre; opacity: 1;">Ribose, nicotinic acid catabolism</text></g><g class="ytick"><text text-anchor="end" x="253" y="4.199999999999999" transform="translate(0,314.94)" style="font-family: 'Open Sans', verdana, arial, sans-serif; font-size: 12px; fill: rgb(42, 63, 95); fill-opacity: 1; white-space: pre; opacity: 1;">Starvation response</text></g><g class="ytick"><text text-anchor="end" x="253" y="4.199999999999999" transform="translate(0,288.12)" style="font-family: 'Open Sans', verdana, arial, sans-serif; font-size: 12px; fill: rgb(42, 63, 95); fill-opacity: 1; white-space: pre; opacity: 1;">Stationary phase response</text></g><g class="ytick"><text text-anchor="end" x="253" y="4.199999999999999" transform="translate(0,261.28999999999996)" style="font-family: 'Open Sans', verdana, arial, sans-serif; font-size: 12px; fill: rgb(42, 63, 95); fill-opacity: 1; white-space: pre; opacity: 1;">Sulfur metabolism</text></g><g class="ytick"><text text-anchor="end" x="253" y="4.199999999999999" transform="translate(0,234.47)" style="font-family: 'Open Sans', verdana, arial, sans-serif; font-size: 12px; fill: rgb(42, 63, 95); fill-opacity: 1; white-space: pre; opacity: 1;">TCA cycle</text></g><g class="ytick"><text text-anchor="end" x="253" y="4.199999999999999" transform="translate(0,207.65)" style="font-family: 'Open Sans', verdana, arial, sans-serif; font-size: 12px; fill: rgb(42, 63, 95); fill-opacity: 1; white-space: pre; opacity: 1;">Translation</text></g><g class="ytick"><text text-anchor="end" x="253" y="4.199999999999999" transform="translate(0,180.82)" style="font-family: 'Open Sans', verdana, arial, sans-serif; font-size: 12px; fill: rgb(42, 63, 95); fill-opacity: 1; white-space: pre; opacity: 1;">Unknown</text></g><g class="ytick"><text text-anchor="end" x="253" y="4.199999999999999" transform="translate(0,154)" style="font-family: 'Open Sans', verdana, arial, sans-serif; font-size: 12px; fill: rgb(42, 63, 95); fill-opacity: 1; white-space: pre; opacity: 1;">potentially iron metabolism</text></g></g><g class="overaxes-above"/></g></g><g class="polarlayer"/><g class="smithlayer"/><g class="ternarylayer"/><g class="geolayer"/><g class="funnelarealayer"/><g class="pielayer"/><g class="iciclelayer"/><g class="treemaplayer"/><g class="sunburstlayer"/><g class="glimages"/><defs id="topdefs-9577eb"><g class="clips"/></defs><g class="layer-above"><g class="imagelayer"/><g class="shapelayer"/></g><g class="infolayer"><g class="g-gtitle"><text class="gtitle" x="310.20000000000005" y="60" text-anchor="middle" dy="0.7em" style="font-family: 'Open Sans', verdana, arial, sans-serif; font-size: 16px; fill: rgb(42, 63, 95); opacity: 1; font-weight: normal; white-space: pre;">Percentage of iModulon functions in BARs &amp; NBRs</text></g><g class="g-xtitle"/><g class="g-ytitle"/></g></svg>