<svg class="main-svg" xmlns="http://www.w3.org/2000/svg" xmlns:xlink="http://www.w3.org/1999/xlink" width="1000" height="800" style="" viewBox="0 0 1000 800"><rect x="0" y="0" width="1000" height="800" style="fill: rgb(255, 255, 255); fill-opacity: 1;"/><defs id="defs-a23b65"><g class="clips"><clipPath id="clipa23b65xyplot" class="plotclip"><rect width="770" height="680"/></clipPath><clipPath class="axesclip" id="clipa23b65x"><rect x="150" y="0" width="770" height="800"/></clipPath><clipPath class="axesclip" id="clipa23b65y"><rect x="0" y="40" width="1000" height="680"/></clipPath><clipPath class="axesclip" id="clipa23b65xy"><rect x="150" y="40" width="770" height="680"/></clipPath></g><g class="gradients"/><g class="patterns"/></defs><g class="bglayer"><rect class="bg" x="150" y="40" width="770" height="680" style="fill: rgb(255, 255, 255); fill-opacity: 1; stroke-width: 0;"/></g><g class="layer-below"><g class="imagelayer"/><g class="shapelayer"/></g><g class="cartesianlayer"><g class="subplot xy"><g class="layer-subplot"><g class="shapelayer"/><g class="imagelayer"/></g><g class="minor-gridlayer"><g class="x"/><g class="y"/></g><g class="gridlayer"><g class="x"/><g class="y"><path class="ygrid crisp" transform="translate(0,613.89)" d="M150,0h770" style="stroke: rgb(255, 255, 255); stroke-opacity: 1; stroke-width: 1px;"/><path class="ygrid crisp" transform="translate(0,490.79)" d="M150,0h770" style="stroke: rgb(255, 255, 255); stroke-opacity: 1; stroke-width: 1px;"/><path class="ygrid crisp" transform="translate(0,367.69)" d="M150,0h770" style="stroke: rgb(255, 255, 255); stroke-opacity: 1; stroke-width: 1px;"/><path class="ygrid crisp" transform="translate(0,244.59)" d="M150,0h770" style="stroke: rgb(255, 255, 255); stroke-opacity: 1; stroke-width: 1px;"/><path class="ygrid crisp" transform="translate(0,121.49)" d="M150,0h770" style="stroke: rgb(255, 255, 255); stroke-opacity: 1; stroke-width: 1px;"/></g></g><g class="zerolinelayer"/><path class="xlines-below"/><path class="ylines-below"/><g class="overlines-below"/><g class="xaxislayer-below"/><g class="yaxislayer-below"/><g class="overaxes-below"/><g class="plot" transform="translate(150,40)" clip-path="url(#clipa23b65xyplot)"><g class="barlayer mlayer"><g class="trace bars" style="opacity: 1;"><g class="points"><g class="point"><path d="M249.23,327.69V56.87H298.82V327.69Z" style="vector-effect: non-scaling-stroke; opacity: 1; stroke-width: 0.5px; fill: rgb(0, 0, 0); fill-opacity: 1; stroke: rgb(229, 236, 246); stroke-opacity: 1;"/><text class="bartext bartext-outside" text-anchor="middle" data-notex="1" x="0" y="0" style="font-family: 'Open Sans', verdana, arial, sans-serif; font-size: 12px; fill: rgb(42, 63, 95); fill-opacity: 1; white-space: pre;" transform="translate(273.8609375,50.87)">11</text></g><g class="point"><path d="M311.22,327.69V229.21H360.82V327.69Z" style="vector-effect: non-scaling-stroke; opacity: 1; stroke-width: 0.5px; fill: rgb(0, 0, 0); fill-opacity: 1; stroke: rgb(229, 236, 246); stroke-opacity: 1;"/><text class="bartext bartext-outside" text-anchor="middle" data-notex="1" x="0" y="0" style="font-family: 'Open Sans', verdana, arial, sans-serif; font-size: 12px; fill: rgb(42, 63, 95); fill-opacity: 1; white-space: pre;" transform="translate(335.8559375,223.21)">4</text></g><g class="point"><path d="M373.22,327.69V278.45H422.82V327.69Z" style="vector-effect: non-scaling-stroke; opacity: 1; stroke-width: 0.5px; fill: rgb(0, 0, 0); fill-opacity: 1; stroke: rgb(229, 236, 246); stroke-opacity: 1;"/><text class="bartext bartext-outside" text-anchor="middle" data-notex="1" x="0" y="0" style="font-family: 'Open Sans', verdana, arial, sans-serif; font-size: 12px; fill: rgb(42, 63, 95); fill-opacity: 1; white-space: pre;" transform="translate(397.8559375,272.45)">2</text></g><g class="point"><path d="M435.22,327.69V278.45H484.81V327.69Z" style="vector-effect: non-scaling-stroke; opacity: 1; stroke-width: 0.5px; fill: rgb(0, 0, 0); fill-opacity: 1; stroke: rgb(229, 236, 246); stroke-opacity: 1;"/><text class="bartext bartext-outside" text-anchor="middle" data-notex="1" x="0" y="0" style="font-family: 'Open Sans', verdana, arial, sans-serif; font-size: 12px; fill: rgb(42, 63, 95); fill-opacity: 1; white-space: pre;" transform="translate(459.8509375,272.45)">2</text></g><g class="point"><path d="M497.21,327.69V303.07H546.81V327.69Z" style="vector-effect: non-scaling-stroke; opacity: 1; stroke-width: 0.5px; fill: rgb(0, 0, 0); fill-opacity: 1; stroke: rgb(229, 236, 246); stroke-opacity: 1;"/><text class="bartext bartext-outside" text-anchor="middle" data-notex="1" x="0" y="0" style="font-family: 'Open Sans', verdana, arial, sans-serif; font-size: 12px; fill: rgb(42, 63, 95); fill-opacity: 1; white-space: pre;" transform="translate(521.8459375,297.07)">1</text></g><g class="point"><path d="M559.21,327.69V303.07H608.81V327.69Z" style="vector-effect: non-scaling-stroke; opacity: 1; stroke-width: 0.5px; fill: rgb(0, 0, 0); fill-opacity: 1; stroke: rgb(229, 236, 246); stroke-opacity: 1;"/><text class="bartext bartext-outside" text-anchor="middle" data-notex="1" x="0" y="0" style="font-family: 'Open Sans', verdana, arial, sans-serif; font-size: 12px; fill: rgb(42, 63, 95); fill-opacity: 1; white-space: pre;" transform="translate(583.8459375,297.07)">1</text></g><g class="point"><path d="M621.21,327.69V303.07H670.81V327.69Z" style="vector-effect: non-scaling-stroke; opacity: 1; stroke-width: 0.5px; fill: rgb(0, 0, 0); fill-opacity: 1; stroke: rgb(229, 236, 246); stroke-opacity: 1;"/><text class="bartext bartext-outside" text-anchor="middle" data-notex="1" x="0" y="0" style="font-family: 'Open Sans', verdana, arial, sans-serif; font-size: 12px; fill: rgb(42, 63, 95); fill-opacity: 1; white-space: pre;" transform="translate(645.8459375,297.07)">1</text></g><g class="point"><path d="M683.2,327.69V303.07H732.8V327.69Z" style="vector-effect: non-scaling-stroke; opacity: 1; stroke-width: 0.5px; fill: rgb(0, 0, 0); fill-opacity: 1; stroke: rgb(229, 236, 246); stroke-opacity: 1;"/><text class="bartext bartext-outside" text-anchor="middle" data-notex="1" x="0" y="0" style="font-family: 'Open Sans', verdana, arial, sans-serif; font-size: 12px; fill: rgb(42, 63, 95); fill-opacity: 1; white-space: pre;" transform="translate(707.8359375,297.07)">1</text></g></g></g></g><g class="scatterlayer mlayer"><g class="trace scatter trace4e1c52" style="stroke-miterlimit: 2; opacity: 1;"><g class="fills"/><g class="errorbars"/><g class="lines"/><g class="points"><path class="point" transform="translate(274.03,357.48)" d="M7.81,0A7.81,7.81 0 1,1 0,-7.81A7.81,7.81 0 0,1 7.81,0Z" style="opacity: 1; stroke-width: 0px; fill: rgb(201, 201, 201); fill-opacity: 1;"/><path class="point" transform="translate(274.03,431.96)" d="M7.81,0A7.81,7.81 0 1,1 0,-7.81A7.81,7.81 0 0,1 7.81,0Z" style="opacity: 1; stroke-width: 0px; fill: rgb(201, 201, 201); fill-opacity: 1;"/><path class="point" transform="translate(274.03,506.43)" d="M7.81,0A7.81,7.81 0 1,1 0,-7.81A7.81,7.81 0 0,1 7.81,0Z" style="opacity: 1; stroke-width: 0px; fill: rgb(201, 201, 201); fill-opacity: 1;"/><path class="point" transform="translate(274.03,580.91)" d="M7.81,0A7.81,7.81 0 1,1 0,-7.81A7.81,7.81 0 0,1 7.81,0Z" style="opacity: 1; stroke-width: 0px; fill: rgb(201, 201, 201); fill-opacity: 1;"/><path class="point" transform="translate(336.02,357.48)" d="M7.81,0A7.81,7.81 0 1,1 0,-7.81A7.81,7.81 0 0,1 7.81,0Z" style="opacity: 1; stroke-width: 0px; fill: rgb(201, 201, 201); fill-opacity: 1;"/><path class="point" transform="translate(336.02,431.96)" d="M7.81,0A7.81,7.81 0 1,1 0,-7.81A7.81,7.81 0 0,1 7.81,0Z" style="opacity: 1; stroke-width: 0px; fill: rgb(201, 201, 201); fill-opacity: 1;"/><path class="point" transform="translate(336.02,506.43)" d="M7.81,0A7.81,7.81 0 1,1 0,-7.81A7.81,7.81 0 0,1 7.81,0Z" style="opacity: 1; stroke-width: 0px; fill: rgb(201, 201, 201); fill-opacity: 1;"/><path class="point" transform="translate(336.02,580.91)" d="M7.81,0A7.81,7.81 0 1,1 0,-7.81A7.81,7.81 0 0,1 7.81,0Z" style="opacity: 1; stroke-width: 0px; fill: rgb(201, 201, 201); fill-opacity: 1;"/><path class="point" transform="translate(398.02,357.48)" d="M7.81,0A7.81,7.81 0 1,1 0,-7.81A7.81,7.81 0 0,1 7.81,0Z" style="opacity: 1; stroke-width: 0px; fill: rgb(201, 201, 201); fill-opacity: 1;"/><path class="point" transform="translate(398.02,431.96)" d="M7.81,0A7.81,7.81 0 1,1 0,-7.81A7.81,7.81 0 0,1 7.81,0Z" style="opacity: 1; stroke-width: 0px; fill: rgb(201, 201, 201); fill-opacity: 1;"/><path class="point" transform="translate(398.02,506.43)" d="M7.81,0A7.81,7.81 0 1,1 0,-7.81A7.81,7.81 0 0,1 7.81,0Z" style="opacity: 1; stroke-width: 0px; fill: rgb(201, 201, 201); fill-opacity: 1;"/><path class="point" transform="translate(398.02,580.91)" d="M7.81,0A7.81,7.81 0 1,1 0,-7.81A7.81,7.81 0 0,1 7.81,0Z" style="opacity: 1; stroke-width: 0px; fill: rgb(201, 201, 201); fill-opacity: 1;"/><path class="point" transform="translate(460.02,357.48)" d="M7.81,0A7.81,7.81 0 1,1 0,-7.81A7.81,7.81 0 0,1 7.81,0Z" style="opacity: 1; stroke-width: 0px; fill: rgb(201, 201, 201); fill-opacity: 1;"/><path class="point" transform="translate(460.02,431.96)" d="M7.81,0A7.81,7.81 0 1,1 0,-7.81A7.81,7.81 0 0,1 7.81,0Z" style="opacity: 1; stroke-width: 0px; fill: rgb(201, 201, 201); fill-opacity: 1;"/><path class="point" transform="translate(460.02,506.43)" d="M7.81,0A7.81,7.81 0 1,1 0,-7.81A7.81,7.81 0 0,1 7.81,0Z" style="opacity: 1; stroke-width: 0px; fill: rgb(201, 201, 201); fill-opacity: 1;"/><path class="point" transform="translate(460.02,580.91)" d="M7.81,0A7.81,7.81 0 1,1 0,-7.81A7.81,7.81 0 0,1 7.81,0Z" style="opacity: 1; stroke-width: 0px; fill: rgb(201, 201, 201); fill-opacity: 1;"/><path class="point" transform="translate(522.01,357.48)" d="M7.81,0A7.81,7.81 0 1,1 0,-7.81A7.81,7.81 0 0,1 7.81,0Z" style="opacity: 1; stroke-width: 0px; fill: rgb(201, 201, 201); fill-opacity: 1;"/><path class="point" transform="translate(522.01,431.96)" d="M7.81,0A7.81,7.81 0 1,1 0,-7.81A7.81,7.81 0 0,1 7.81,0Z" style="opacity: 1; stroke-width: 0px; fill: rgb(201, 201, 201); fill-opacity: 1;"/><path class="point" transform="translate(522.01,506.43)" d="M7.81,0A7.81,7.81 0 1,1 0,-7.81A7.81,7.81 0 0,1 7.81,0Z" style="opacity: 1; stroke-width: 0px; fill: rgb(201, 201, 201); fill-opacity: 1;"/><path class="point" transform="translate(522.01,580.91)" d="M7.81,0A7.81,7.81 0 1,1 0,-7.81A7.81,7.81 0 0,1 7.81,0Z" style="opacity: 1; stroke-width: 0px; fill: rgb(201, 201, 201); fill-opacity: 1;"/><path class="point" transform="translate(584.01,357.48)" d="M7.81,0A7.81,7.81 0 1,1 0,-7.81A7.81,7.81 0 0,1 7.81,0Z" style="opacity: 1; stroke-width: 0px; fill: rgb(201, 201, 201); fill-opacity: 1;"/><path class="point" transform="translate(584.01,431.96)" d="M7.81,0A7.81,7.81 0 1,1 0,-7.81A7.81,7.81 0 0,1 7.81,0Z" style="opacity: 1; stroke-width: 0px; fill: rgb(201, 201, 201); fill-opacity: 1;"/><path class="point" transform="translate(584.01,506.43)" d="M7.81,0A7.81,7.81 0 1,1 0,-7.81A7.81,7.81 0 0,1 7.81,0Z" style="opacity: 1; stroke-width: 0px; fill: rgb(201, 201, 201); fill-opacity: 1;"/><path class="point" transform="translate(584.01,580.91)" d="M7.81,0A7.81,7.81 0 1,1 0,-7.81A7.81,7.81 0 0,1 7.81,0Z" style="opacity: 1; stroke-width: 0px; fill: rgb(201, 201, 201); fill-opacity: 1;"/><path class="point" transform="translate(646.01,357.48)" d="M7.81,0A7.81,7.81 0 1,1 0,-7.81A7.81,7.81 0 0,1 7.81,0Z" style="opacity: 1; stroke-width: 0px; fill: rgb(201, 201, 201); fill-opacity: 1;"/><path class="point" transform="translate(646.01,431.96)" d="M7.81,0A7.81,7.81 0 1,1 0,-7.81A7.81,7.81 0 0,1 7.81,0Z" style="opacity: 1; stroke-width: 0px; fill: rgb(201, 201, 201); fill-opacity: 1;"/><path class="point" transform="translate(646.01,506.43)" d="M7.81,0A7.81,7.81 0 1,1 0,-7.81A7.81,7.81 0 0,1 7.81,0Z" style="opacity: 1; stroke-width: 0px; fill: rgb(201, 201, 201); fill-opacity: 1;"/><path class="point" transform="translate(646.01,580.91)" d="M7.81,0A7.81,7.81 0 1,1 0,-7.81A7.81,7.81 0 0,1 7.81,0Z" style="opacity: 1; stroke-width: 0px; fill: rgb(201, 201, 201); fill-opacity: 1;"/><path class="point" transform="translate(708,357.48)" d="M7.81,0A7.81,7.81 0 1,1 0,-7.81A7.81,7.81 0 0,1 7.81,0Z" style="opacity: 1; stroke-width: 0px; fill: rgb(201, 201, 201); fill-opacity: 1;"/><path class="point" transform="translate(708,431.96)" d="M7.81,0A7.81,7.81 0 1,1 0,-7.81A7.81,7.81 0 0,1 7.81,0Z" style="opacity: 1; stroke-width: 0px; fill: rgb(201, 201, 201); fill-opacity: 1;"/><path class="point" transform="translate(708,506.43)" d="M7.81,0A7.81,7.81 0 1,1 0,-7.81A7.81,7.81 0 0,1 7.81,0Z" style="opacity: 1; stroke-width: 0px; fill: rgb(201, 201, 201); fill-opacity: 1;"/><path class="point" transform="translate(708,580.91)" d="M7.81,0A7.81,7.81 0 1,1 0,-7.81A7.81,7.81 0 0,1 7.81,0Z" style="opacity: 1; stroke-width: 0px; fill: rgb(201, 201, 201); fill-opacity: 1;"/></g><g class="text"/></g><g class="trace scatter tracecbc2be" style="stroke-miterlimit: 2; opacity: 1;"><g class="fills"/><g class="errorbars"/><g class="lines"/><g class="points"><path class="point" transform="translate(274.03,357.48)" d="M7.81,0A7.81,7.81 0 1,1 0,-7.81A7.81,7.81 0 0,1 7.81,0Z" style="opacity: 1; stroke-width: 0px; fill: rgb(0, 0, 0); fill-opacity: 1;"/></g><g class="text"/></g><g class="trace scatter trace71805c" style="stroke-miterlimit: 2; opacity: 1;"><g class="fills"/><g class="errorbars"/><g class="lines"/><g class="points"><path class="point" transform="translate(274.03,357.48)" d="M7.81,0A7.81,7.81 0 1,1 0,-7.81A7.81,7.81 0 0,1 7.81,0Z" style="opacity: 1; stroke-width: 0px; fill: rgb(0, 0, 0); fill-opacity: 1;"/><path class="point" transform="translate(274.03,431.96)" d="M7.81,0A7.81,7.81 0 1,1 0,-7.81A7.81,7.81 0 0,1 7.81,0Z" style="opacity: 1; stroke-width: 0px; fill: rgb(0, 0, 0); fill-opacity: 1;"/></g><g class="text"/></g><g class="trace scatter trace273fcc" style="stroke-miterlimit: 2; opacity: 1;"><g class="fills"/><g class="errorbars"/><g class="lines"/><g class="points"><path class="point" transform="translate(274.03,357.48)" d="M7.81,0A7.81,7.81 0 1,1 0,-7.81A7.81,7.81 0 0,1 7.81,0Z" style="opacity: 1; stroke-width: 0px; fill: rgb(0, 0, 0); fill-opacity: 1;"/><path class="point" transform="translate(274.03,431.96)" d="M7.81,0A7.81,7.81 0 1,1 0,-7.81A7.81,7.81 0 0,1 7.81,0Z" style="opacity: 1; stroke-width: 0px; fill: rgb(0, 0, 0); fill-opacity: 1;"/><path class="point" transform="translate(274.03,506.43)" d="M7.81,0A7.81,7.81 0 1,1 0,-7.81A7.81,7.81 0 0,1 7.81,0Z" style="opacity: 1; stroke-width: 0px; fill: rgb(0, 0, 0); fill-opacity: 1;"/></g><g class="text"/></g><g class="trace scatter traced828ee" style="stroke-miterlimit: 2; opacity: 1;"><g class="fills"/><g class="errorbars"/><g class="lines"/><g class="points"><path class="point" transform="translate(274.03,357.48)" d="M7.81,0A7.81,7.81 0 1,1 0,-7.81A7.81,7.81 0 0,1 7.81,0Z" style="opacity: 1; stroke-width: 0px; fill: rgb(0, 0, 0); fill-opacity: 1;"/><path class="point" transform="translate(274.03,431.96)" d="M7.81,0A7.81,7.81 0 1,1 0,-7.81A7.81,7.81 0 0,1 7.81,0Z" style="opacity: 1; stroke-width: 0px; fill: rgb(0, 0, 0); fill-opacity: 1;"/><path class="point" transform="translate(274.03,506.43)" d="M7.81,0A7.81,7.81 0 1,1 0,-7.81A7.81,7.81 0 0,1 7.81,0Z" style="opacity: 1; stroke-width: 0px; fill: rgb(0, 0, 0); fill-opacity: 1;"/><path class="point" transform="translate(274.03,580.91)" d="M7.81,0A7.81,7.81 0 1,1 0,-7.81A7.81,7.81 0 0,1 7.81,0Z" style="opacity: 1; stroke-width: 0px; fill: rgb(0, 0, 0); fill-opacity: 1;"/></g><g class="text"/></g><g class="trace scatter tracee5f399" style="stroke-miterlimit: 2; opacity: 1;"><g class="fills"/><g class="errorbars"/><g class="lines"/><g class="points"><path class="point" transform="translate(336.02,357.48)" d="M7.81,0A7.81,7.81 0 1,1 0,-7.81A7.81,7.81 0 0,1 7.81,0Z" style="opacity: 1; stroke-width: 0px; fill: rgb(0, 0, 0); fill-opacity: 1;"/></g><g class="text"/></g><g class="trace scatter trace545246" style="stroke-miterlimit: 2; opacity: 1;"><g class="fills"/><g class="errorbars"/><g class="lines"/><g class="points"><path class="point" transform="translate(398.02,580.91)" d="M7.81,0A7.81,7.81 0 1,1 0,-7.81A7.81,7.81 0 0,1 7.81,0Z" style="opacity: 1; stroke-width: 0px; fill: rgb(0, 0, 0); fill-opacity: 1;"/></g><g class="text"/></g><g class="trace scatter tracebd0d2d" style="stroke-miterlimit: 2; opacity: 1;"><g class="fills"/><g class="errorbars"/><g class="lines"/><g class="points"><path class="point" transform="translate(460.02,357.48)" d="M7.81,0A7.81,7.81 0 1,1 0,-7.81A7.81,7.81 0 0,1 7.81,0Z" style="opacity: 1; stroke-width: 0px; fill: rgb(0, 0, 0); fill-opacity: 1;"/></g><g class="text"/></g><g class="trace scatter tracec02567" style="stroke-miterlimit: 2; opacity: 1;"><g class="fills"/><g class="errorbars"/><g class="lines"/><g class="points"><path class="point" transform="translate(460.02,357.48)" d="M7.81,0A7.81,7.81 0 1,1 0,-7.81A7.81,7.81 0 0,1 7.81,0Z" style="opacity: 1; stroke-width: 0px; fill: rgb(0, 0, 0); fill-opacity: 1;"/><path class="point" transform="translate(460.02,431.96)" d="M7.81,0A7.81,7.81 0 1,1 0,-7.81A7.81,7.81 0 0,1 7.81,0Z" style="opacity: 1; stroke-width: 0px; fill: rgb(0, 0, 0); fill-opacity: 1;"/></g><g class="text"/></g><g class="trace scatter trace4f51a1" style="stroke-miterlimit: 2; opacity: 1;"><g class="fills"/><g class="errorbars"/><g class="lines"/><g class="points"><path class="point" transform="translate(460.02,357.48)" d="M7.81,0A7.81,7.81 0 1,1 0,-7.81A7.81,7.81 0 0,1 7.81,0Z" style="opacity: 1; stroke-width: 0px; fill: rgb(0, 0, 0); fill-opacity: 1;"/><path class="point" transform="translate(460.02,431.96)" d="M7.81,0A7.81,7.81 0 1,1 0,-7.81A7.81,7.81 0 0,1 7.81,0Z" style="opacity: 1; stroke-width: 0px; fill: rgb(0, 0, 0); fill-opacity: 1;"/><path class="point" transform="translate(460.02,506.43)" d="M7.81,0A7.81,7.81 0 1,1 0,-7.81A7.81,7.81 0 0,1 7.81,0Z" style="opacity: 1; stroke-width: 0px; fill: rgb(0, 0, 0); fill-opacity: 1;"/></g><g class="text"/></g><g class="trace scatter trace721a41" style="stroke-miterlimit: 2; opacity: 1;"><g class="fills"/><g class="errorbars"/><g class="lines"/><g class="points"><path class="point" transform="translate(522.01,357.48)" d="M7.81,0A7.81,7.81 0 1,1 0,-7.81A7.81,7.81 0 0,1 7.81,0Z" style="opacity: 1; stroke-width: 0px; fill: rgb(0, 0, 0); fill-opacity: 1;"/></g><g class="text"/></g><g class="trace scatter traceb766ca" style="stroke-miterlimit: 2; opacity: 1;"><g class="fills"/><g class="errorbars"/><g class="lines"/><g class="points"><path class="point" transform="translate(522.01,357.48)" d="M7.81,0A7.81,7.81 0 1,1 0,-7.81A7.81,7.81 0 0,1 7.81,0Z" style="opacity: 1; stroke-width: 0px; fill: rgb(0, 0, 0); fill-opacity: 1;"/><path class="point" transform="translate(522.01,431.96)" d="M7.81,0A7.81,7.81 0 1,1 0,-7.81A7.81,7.81 0 0,1 7.81,0Z" style="opacity: 1; stroke-width: 0px; fill: rgb(0, 0, 0); fill-opacity: 1;"/></g><g class="text"/></g><g class="trace scatter trace97c368" style="stroke-miterlimit: 2; opacity: 1;"><g class="fills"/><g class="errorbars"/><g class="lines"/><g class="points"><path class="point" transform="translate(584.01,431.96)" d="M7.81,0A7.81,7.81 0 1,1 0,-7.81A7.81,7.81 0 0,1 7.81,0Z" style="opacity: 1; stroke-width: 0px; fill: rgb(0, 0, 0); fill-opacity: 1;"/></g><g class="text"/></g><g class="trace scatter trace37196d" style="stroke-miterlimit: 2; opacity: 1;"><g class="fills"/><g class="errorbars"/><g class="lines"/><g class="points"><path class="point" transform="translate(584.01,431.96)" d="M7.81,0A7.81,7.81 0 1,1 0,-7.81A7.81,7.81 0 0,1 7.81,0Z" style="opacity: 1; stroke-width: 0px; fill: rgb(0, 0, 0); fill-opacity: 1;"/><path class="point" transform="translate(584.01,506.43)" d="M7.81,0A7.81,7.81 0 1,1 0,-7.81A7.81,7.81 0 0,1 7.81,0Z" style="opacity: 1; stroke-width: 0px; fill: rgb(0, 0, 0); fill-opacity: 1;"/></g><g class="text"/></g><g class="trace scatter traceb85d90" style="stroke-miterlimit: 2; opacity: 1;"><g class="fills"/><g class="errorbars"/><g class="lines"/><g class="points"><path class="point" transform="translate(646.01,506.43)" d="M7.81,0A7.81,7.81 0 1,1 0,-7.81A7.81,7.81 0 0,1 7.81,0Z" style="opacity: 1; stroke-width: 0px; fill: rgb(0, 0, 0); fill-opacity: 1;"/></g><g class="text"/></g><g class="trace scatter trace4f5bc4" style="stroke-miterlimit: 2; opacity: 1;"><g class="fills"/><g class="errorbars"/><g class="lines"/><g class="points"><path class="point" transform="translate(646.01,506.43)" d="M7.81,0A7.81,7.81 0 1,1 0,-7.81A7.81,7.81 0 0,1 7.81,0Z" style="opacity: 1; stroke-width: 0px; fill: rgb(0, 0, 0); fill-opacity: 1;"/><path class="point" transform="translate(646.01,580.91)" d="M7.81,0A7.81,7.81 0 1,1 0,-7.81A7.81,7.81 0 0,1 7.81,0Z" style="opacity: 1; stroke-width: 0px; fill: rgb(0, 0, 0); fill-opacity: 1;"/></g><g class="text"/></g><g class="trace scatter traceeabf9a" style="stroke-miterlimit: 2; opacity: 1;"><g class="fills"/><g class="errorbars"/><g class="lines"/><g class="points"><path class="point" transform="translate(708,357.48)" d="M7.81,0A7.81,7.81 0 1,1 0,-7.81A7.81,7.81 0 0,1 7.81,0Z" style="opacity: 1; stroke-width: 0px; fill: rgb(0, 0, 0); fill-opacity: 1;"/></g><g class="text"/></g><g class="trace scatter tracebefaa7" style="stroke-miterlimit: 2; opacity: 1;"><g class="fills"/><g class="errorbars"/><g class="lines"/><g class="points"><path class="point" transform="translate(708,357.48)" d="M7.81,0A7.81,7.81 0 1,1 0,-7.81A7.81,7.81 0 0,1 7.81,0Z" style="opacity: 1; stroke-width: 0px; fill: rgb(0, 0, 0); fill-opacity: 1;"/><path class="point" transform="translate(708,506.43)" d="M7.81,0A7.81,7.81 0 1,1 0,-7.81A7.81,7.81 0 0,1 7.81,0Z" style="opacity: 1; stroke-width: 0px; fill: rgb(0, 0, 0); fill-opacity: 1;"/></g><g class="text"/></g><g class="trace scatter trace005745" style="stroke-miterlimit: 2; opacity: 1;"><g class="fills"/><g class="errorbars"/><g class="lines"/><g class="points"><path class="point" transform="translate(708,357.48)" d="M7.81,0A7.81,7.81 0 1,1 0,-7.81A7.81,7.81 0 0,1 7.81,0Z" style="opacity: 1; stroke-width: 0px; fill: rgb(0, 0, 0); fill-opacity: 1;"/><path class="point" transform="translate(708,506.43)" d="M7.81,0A7.81,7.81 0 1,1 0,-7.81A7.81,7.81 0 0,1 7.81,0Z" style="opacity: 1; stroke-width: 0px; fill: rgb(0, 0, 0); fill-opacity: 1;"/><path class="point" transform="translate(708,580.91)" d="M7.81,0A7.81,7.81 0 1,1 0,-7.81A7.81,7.81 0 0,1 7.81,0Z" style="opacity: 1; stroke-width: 0px; fill: rgb(0, 0, 0); fill-opacity: 1;"/></g><g class="text"/></g><g class="trace scatter trace1e8781" style="stroke-miterlimit: 2; opacity: 1;"><g class="fills"/><g class="errorbars"/><g class="lines"/><g class="points"/><g class="text"><g class="textpoint" transform="translate(0,3)"><text x="252.95" y="357.48" text-anchor="end" style="font-family: 'Open Sans', verdana, arial, sans-serif; font-size: 12px; fill: rgb(42, 63, 95); fill-opacity: 1; white-space: pre;">m9-EX_fer_e2.91_NBR-Function-1</text></g><g class="textpoint" transform="translate(0,3)"><text x="252.95" y="431.96" text-anchor="end" style="font-family: 'Open Sans', verdana, arial, sans-serif; font-size: 12px; fill: rgb(42, 63, 95); fill-opacity: 1; white-space: pre;">m9-EX_glc_e7.44_NBR-Function-1</text></g><g class="textpoint" transform="translate(0,3)"><text x="252.95" y="506.43" text-anchor="end" style="font-family: 'Open Sans', verdana, arial, sans-serif; font-size: 12px; fill: rgb(42, 63, 95); fill-opacity: 1; white-space: pre;">m9-EX_cit_e7.44_NBR-Function-1</text></g><g class="textpoint" transform="translate(0,3)"><text x="252.95" y="580.91" text-anchor="end" style="font-family: 'Open Sans', verdana, arial, sans-serif; font-size: 12px; fill: rgb(42, 63, 95); fill-opacity: 1; white-space: pre;">m9-EX_ser__L_e14.88_NBR-Function-1</text></g></g></g></g></g><g class="overplot"/><path class="xlines-above crisp" d="M0,0" style="fill: none;"/><path class="ylines-above crisp" d="M0,0" style="fill: none;"/><g class="overlines-above"/><g class="xaxislayer-above"/><g class="yaxislayer-above"/><g class="overaxes-above"/></g></g><g class="polarlayer"/><g class="smithlayer"/><g class="ternarylayer"/><g class="geolayer"/><g class="funnelarealayer"/><g class="pielayer"/><g class="iciclelayer"/><g class="treemaplayer"/><g class="sunburstlayer"/><g class="glimages"/><defs id="topdefs-a23b65"><g class="clips"/></defs><g class="layer-above"><g class="imagelayer"/><g class="shapelayer"/></g><g class="infolayer"><g class="g-gtitle"><text class="gtitle" x="500" y="20" text-anchor="middle" dy="0em" style="font-family: 'Open Sans', verdana, arial, sans-serif; font-size: 17px; fill: rgb(42, 63, 95); opacity: 1; font-weight: normal; white-space: pre;"><tspan style="font-weight:bold">Intersections<tspan style="font-weight:bold"></tspan></tspan></text></g><g class="g-xtitle"/><g class="g-ytitle"/></g></svg>