<svg class="main-svg" xmlns="http://www.w3.org/2000/svg" xmlns:xlink="http://www.w3.org/1999/xlink" width="1000" height="800" style="" viewBox="0 0 1000 800"><rect x="0" y="0" width="1000" height="800" style="fill: rgb(255, 255, 255); fill-opacity: 1;"/><defs id="defs-f04124"><g class="clips"><clipPath id="clipf04124xyplot" class="plotclip"><rect width="770" height="680"/></clipPath><clipPath class="axesclip" id="clipf04124x"><rect x="150" y="0" width="770" height="800"/></clipPath><clipPath class="axesclip" id="clipf04124y"><rect x="0" y="40" width="1000" height="680"/></clipPath><clipPath class="axesclip" id="clipf04124xy"><rect x="150" y="40" width="770" height="680"/></clipPath></g><g class="gradients"/><g class="patterns"/></defs><g class="bglayer"><rect class="bg" x="150" y="40" width="770" height="680" style="fill: rgb(255, 255, 255); fill-opacity: 1; stroke-width: 0;"/></g><g class="layer-below"><g class="imagelayer"/><g class="shapelayer"/></g><g class="cartesianlayer"><g class="subplot xy"><g class="layer-subplot"><g class="shapelayer"/><g class="imagelayer"/></g><g class="minor-gridlayer"><g class="x"/><g class="y"/></g><g class="gridlayer"><g class="x"/><g class="y"><path class="ygrid crisp" transform="translate(0,697.29)" d="M150,0h770" style="stroke: rgb(255, 255, 255); stroke-opacity: 1; stroke-width: 1px;"/><path class="ygrid crisp" transform="translate(0,530.29)" d="M150,0h770" style="stroke: rgb(255, 255, 255); stroke-opacity: 1; stroke-width: 1px;"/><path class="ygrid crisp" transform="translate(0,363.3)" d="M150,0h770" style="stroke: rgb(255, 255, 255); stroke-opacity: 1; stroke-width: 1px;"/><path class="ygrid crisp" transform="translate(0,196.31)" d="M150,0h770" style="stroke: rgb(255, 255, 255); stroke-opacity: 1; stroke-width: 1px;"/></g></g><g class="zerolinelayer"/><path class="xlines-below"/><path class="ylines-below"/><g class="overlines-below"/><g class="xaxislayer-below"/><g class="yaxislayer-below"/><g class="overaxes-below"/><g class="plot" transform="translate(150,40)" clip-path="url(#clipf04124xyplot)"><g class="barlayer mlayer"><g class="trace bars" style="opacity: 1;"><g class="points"><g class="point"><path d="M319.54,323.3V56.11H375.85V323.3Z" style="vector-effect: non-scaling-stroke; opacity: 1; stroke-width: 0.5px; fill: rgb(0, 0, 0); fill-opacity: 1; stroke: rgb(229, 236, 246); stroke-opacity: 1;"/><text class="bartext bartext-outside" text-anchor="middle" data-notex="1" x="0" y="0" style="font-family: 'Open Sans', verdana, arial, sans-serif; font-size: 12px; fill: rgb(42, 63, 95); fill-opacity: 1; white-space: pre;" transform="translate(347.53093750000005,50.11)">8</text></g><g class="point"><path d="M389.93,323.3V122.91H446.23V323.3Z" style="vector-effect: non-scaling-stroke; opacity: 1; stroke-width: 0.5px; fill: rgb(0, 0, 0); fill-opacity: 1; stroke: rgb(229, 236, 246); stroke-opacity: 1;"/><text class="bartext bartext-outside" text-anchor="middle" data-notex="1" x="0" y="0" style="font-family: 'Open Sans', verdana, arial, sans-serif; font-size: 12px; fill: rgb(42, 63, 95); fill-opacity: 1; white-space: pre;" transform="translate(417.91593750000004,116.91)">6</text></g><g class="point"><path d="M460.31,323.3V189.71H516.62V323.3Z" style="vector-effect: non-scaling-stroke; opacity: 1; stroke-width: 0.5px; fill: rgb(0, 0, 0); fill-opacity: 1; stroke: rgb(229, 236, 246); stroke-opacity: 1;"/><text class="bartext bartext-outside" text-anchor="middle" data-notex="1" x="0" y="0" style="font-family: 'Open Sans', verdana, arial, sans-serif; font-size: 12px; fill: rgb(42, 63, 95); fill-opacity: 1; white-space: pre;" transform="translate(488.30093750000003,183.71)">4</text></g><g class="point"><path d="M530.69,323.3V189.71H587V323.3Z" style="vector-effect: non-scaling-stroke; opacity: 1; stroke-width: 0.5px; fill: rgb(0, 0, 0); fill-opacity: 1; stroke: rgb(229, 236, 246); stroke-opacity: 1;"/><text class="bartext bartext-outside" text-anchor="middle" data-notex="1" x="0" y="0" style="font-family: 'Open Sans', verdana, arial, sans-serif; font-size: 12px; fill: rgb(42, 63, 95); fill-opacity: 1; white-space: pre;" transform="translate(558.6809375,183.71)">4</text></g><g class="point"><path d="M601.08,323.3V289.9H657.39V323.3Z" style="vector-effect: non-scaling-stroke; opacity: 1; stroke-width: 0.5px; fill: rgb(0, 0, 0); fill-opacity: 1; stroke: rgb(229, 236, 246); stroke-opacity: 1;"/><text class="bartext bartext-outside" text-anchor="middle" data-notex="1" x="0" y="0" style="font-family: 'Open Sans', verdana, arial, sans-serif; font-size: 12px; fill: rgb(42, 63, 95); fill-opacity: 1; white-space: pre;" transform="translate(629.0709375,283.9)">1</text></g><g class="point"><path d="M671.46,323.3V289.9H727.77V323.3Z" style="vector-effect: non-scaling-stroke; opacity: 1; stroke-width: 0.5px; fill: rgb(0, 0, 0); fill-opacity: 1; stroke: rgb(229, 236, 246); stroke-opacity: 1;"/><text class="bartext bartext-outside" text-anchor="middle" data-notex="1" x="0" y="0" style="font-family: 'Open Sans', verdana, arial, sans-serif; font-size: 12px; fill: rgb(42, 63, 95); fill-opacity: 1; white-space: pre;" transform="translate(699.4509375,283.9)">1</text></g></g></g></g><g class="scatterlayer mlayer"><g class="trace scatter trace7023aa" style="stroke-miterlimit: 2; opacity: 1;"><g class="fills"/><g class="errorbars"/><g class="lines"/><g class="points"><path class="point" transform="translate(347.7,352.69)" d="M13.89,0A13.89,13.89 0 1,1 0,-13.89A13.89,13.89 0 0,1 13.89,0Z" style="opacity: 1; stroke-width: 0px; fill: rgb(201, 201, 201); fill-opacity: 1;"/><path class="point" transform="translate(347.7,450.66)" d="M13.89,0A13.89,13.89 0 1,1 0,-13.89A13.89,13.89 0 0,1 13.89,0Z" style="opacity: 1; stroke-width: 0px; fill: rgb(201, 201, 201); fill-opacity: 1;"/><path class="point" transform="translate(347.7,548.63)" d="M13.89,0A13.89,13.89 0 1,1 0,-13.89A13.89,13.89 0 0,1 13.89,0Z" style="opacity: 1; stroke-width: 0px; fill: rgb(201, 201, 201); fill-opacity: 1;"/><path class="point" transform="translate(418.08,352.69)" d="M13.89,0A13.89,13.89 0 1,1 0,-13.89A13.89,13.89 0 0,1 13.89,0Z" style="opacity: 1; stroke-width: 0px; fill: rgb(201, 201, 201); fill-opacity: 1;"/><path class="point" transform="translate(418.08,450.66)" d="M13.89,0A13.89,13.89 0 1,1 0,-13.89A13.89,13.89 0 0,1 13.89,0Z" style="opacity: 1; stroke-width: 0px; fill: rgb(201, 201, 201); fill-opacity: 1;"/><path class="point" transform="translate(418.08,548.63)" d="M13.89,0A13.89,13.89 0 1,1 0,-13.89A13.89,13.89 0 0,1 13.89,0Z" style="opacity: 1; stroke-width: 0px; fill: rgb(201, 201, 201); fill-opacity: 1;"/><path class="point" transform="translate(488.46,352.69)" d="M13.89,0A13.89,13.89 0 1,1 0,-13.89A13.89,13.89 0 0,1 13.89,0Z" style="opacity: 1; stroke-width: 0px; fill: rgb(201, 201, 201); fill-opacity: 1;"/><path class="point" transform="translate(488.46,450.66)" d="M13.89,0A13.89,13.89 0 1,1 0,-13.89A13.89,13.89 0 0,1 13.89,0Z" style="opacity: 1; stroke-width: 0px; fill: rgb(201, 201, 201); fill-opacity: 1;"/><path class="point" transform="translate(488.46,548.63)" d="M13.89,0A13.89,13.89 0 1,1 0,-13.89A13.89,13.89 0 0,1 13.89,0Z" style="opacity: 1; stroke-width: 0px; fill: rgb(201, 201, 201); fill-opacity: 1;"/><path class="point" transform="translate(558.85,352.69)" d="M13.89,0A13.89,13.89 0 1,1 0,-13.89A13.89,13.89 0 0,1 13.89,0Z" style="opacity: 1; stroke-width: 0px; fill: rgb(201, 201, 201); fill-opacity: 1;"/><path class="point" transform="translate(558.85,450.66)" d="M13.89,0A13.89,13.89 0 1,1 0,-13.89A13.89,13.89 0 0,1 13.89,0Z" style="opacity: 1; stroke-width: 0px; fill: rgb(201, 201, 201); fill-opacity: 1;"/><path class="point" transform="translate(558.85,548.63)" d="M13.89,0A13.89,13.89 0 1,1 0,-13.89A13.89,13.89 0 0,1 13.89,0Z" style="opacity: 1; stroke-width: 0px; fill: rgb(201, 201, 201); fill-opacity: 1;"/><path class="point" transform="translate(629.23,352.69)" d="M13.89,0A13.89,13.89 0 1,1 0,-13.89A13.89,13.89 0 0,1 13.89,0Z" style="opacity: 1; stroke-width: 0px; fill: rgb(201, 201, 201); fill-opacity: 1;"/><path class="point" transform="translate(629.23,450.66)" d="M13.89,0A13.89,13.89 0 1,1 0,-13.89A13.89,13.89 0 0,1 13.89,0Z" style="opacity: 1; stroke-width: 0px; fill: rgb(201, 201, 201); fill-opacity: 1;"/><path class="point" transform="translate(629.23,548.63)" d="M13.89,0A13.89,13.89 0 1,1 0,-13.89A13.89,13.89 0 0,1 13.89,0Z" style="opacity: 1; stroke-width: 0px; fill: rgb(201, 201, 201); fill-opacity: 1;"/><path class="point" transform="translate(699.62,352.69)" d="M13.89,0A13.89,13.89 0 1,1 0,-13.89A13.89,13.89 0 0,1 13.89,0Z" style="opacity: 1; stroke-width: 0px; fill: rgb(201, 201, 201); fill-opacity: 1;"/><path class="point" transform="translate(699.62,450.66)" d="M13.89,0A13.89,13.89 0 1,1 0,-13.89A13.89,13.89 0 0,1 13.89,0Z" style="opacity: 1; stroke-width: 0px; fill: rgb(201, 201, 201); fill-opacity: 1;"/><path class="point" transform="translate(699.62,548.63)" d="M13.89,0A13.89,13.89 0 1,1 0,-13.89A13.89,13.89 0 0,1 13.89,0Z" style="opacity: 1; stroke-width: 0px; fill: rgb(201, 201, 201); fill-opacity: 1;"/></g><g class="text"/></g><g class="trace scatter tracefa745e" style="stroke-miterlimit: 2; opacity: 1;"><g class="fills"/><g class="errorbars"/><g class="lines"/><g class="points"><path class="point" transform="translate(347.7,352.69)" d="M13.89,0A13.89,13.89 0 1,1 0,-13.89A13.89,13.89 0 0,1 13.89,0Z" style="opacity: 1; stroke-width: 0px; fill: rgb(0, 0, 0); fill-opacity: 1;"/></g><g class="text"/></g><g class="trace scatter trace69b026" style="stroke-miterlimit: 2; opacity: 1;"><g class="fills"/><g class="errorbars"/><g class="lines"/><g class="points"><path class="point" transform="translate(347.7,352.69)" d="M13.89,0A13.89,13.89 0 1,1 0,-13.89A13.89,13.89 0 0,1 13.89,0Z" style="opacity: 1; stroke-width: 0px; fill: rgb(0, 0, 0); fill-opacity: 1;"/><path class="point" transform="translate(347.7,450.66)" d="M13.89,0A13.89,13.89 0 1,1 0,-13.89A13.89,13.89 0 0,1 13.89,0Z" style="opacity: 1; stroke-width: 0px; fill: rgb(0, 0, 0); fill-opacity: 1;"/></g><g class="text"/></g><g class="trace scatter tracebfefd8" style="stroke-miterlimit: 2; opacity: 1;"><g class="fills"/><g class="errorbars"/><g class="lines"/><g class="points"><path class="point" transform="translate(347.7,352.69)" d="M13.89,0A13.89,13.89 0 1,1 0,-13.89A13.89,13.89 0 0,1 13.89,0Z" style="opacity: 1; stroke-width: 0px; fill: rgb(0, 0, 0); fill-opacity: 1;"/><path class="point" transform="translate(347.7,450.66)" d="M13.89,0A13.89,13.89 0 1,1 0,-13.89A13.89,13.89 0 0,1 13.89,0Z" style="opacity: 1; stroke-width: 0px; fill: rgb(0, 0, 0); fill-opacity: 1;"/><path class="point" transform="translate(347.7,548.63)" d="M13.89,0A13.89,13.89 0 1,1 0,-13.89A13.89,13.89 0 0,1 13.89,0Z" style="opacity: 1; stroke-width: 0px; fill: rgb(0, 0, 0); fill-opacity: 1;"/></g><g class="text"/></g><g class="trace scatter trace49b5ba" style="stroke-miterlimit: 2; opacity: 1;"><g class="fills"/><g class="errorbars"/><g class="lines"/><g class="points"><path class="point" transform="translate(418.08,352.69)" d="M13.89,0A13.89,13.89 0 1,1 0,-13.89A13.89,13.89 0 0,1 13.89,0Z" style="opacity: 1; stroke-width: 0px; fill: rgb(0, 0, 0); fill-opacity: 1;"/></g><g class="text"/></g><g class="trace scatter trace392241" style="stroke-miterlimit: 2; opacity: 1;"><g class="fills"/><g class="errorbars"/><g class="lines"/><g class="points"><path class="point" transform="translate(488.46,352.69)" d="M13.89,0A13.89,13.89 0 1,1 0,-13.89A13.89,13.89 0 0,1 13.89,0Z" style="opacity: 1; stroke-width: 0px; fill: rgb(0, 0, 0); fill-opacity: 1;"/></g><g class="text"/></g><g class="trace scatter trace8f1219" style="stroke-miterlimit: 2; opacity: 1;"><g class="fills"/><g class="errorbars"/><g class="lines"/><g class="points"><path class="point" transform="translate(488.46,352.69)" d="M13.89,0A13.89,13.89 0 1,1 0,-13.89A13.89,13.89 0 0,1 13.89,0Z" style="opacity: 1; stroke-width: 0px; fill: rgb(0, 0, 0); fill-opacity: 1;"/><path class="point" transform="translate(488.46,548.63)" d="M13.89,0A13.89,13.89 0 1,1 0,-13.89A13.89,13.89 0 0,1 13.89,0Z" style="opacity: 1; stroke-width: 0px; fill: rgb(0, 0, 0); fill-opacity: 1;"/></g><g class="text"/></g><g class="trace scatter traceb7d68f" style="stroke-miterlimit: 2; opacity: 1;"><g class="fills"/><g class="errorbars"/><g class="lines"/><g class="points"><path class="point" transform="translate(558.85,450.66)" d="M13.89,0A13.89,13.89 0 1,1 0,-13.89A13.89,13.89 0 0,1 13.89,0Z" style="opacity: 1; stroke-width: 0px; fill: rgb(0, 0, 0); fill-opacity: 1;"/></g><g class="text"/></g><g class="trace scatter trace3d02df" style="stroke-miterlimit: 2; opacity: 1;"><g class="fills"/><g class="errorbars"/><g class="lines"/><g class="points"><path class="point" transform="translate(558.85,450.66)" d="M13.89,0A13.89,13.89 0 1,1 0,-13.89A13.89,13.89 0 0,1 13.89,0Z" style="opacity: 1; stroke-width: 0px; fill: rgb(0, 0, 0); fill-opacity: 1;"/><path class="point" transform="translate(558.85,548.63)" d="M13.89,0A13.89,13.89 0 1,1 0,-13.89A13.89,13.89 0 0,1 13.89,0Z" style="opacity: 1; stroke-width: 0px; fill: rgb(0, 0, 0); fill-opacity: 1;"/></g><g class="text"/></g><g class="trace scatter trace25f278" style="stroke-miterlimit: 2; opacity: 1;"><g class="fills"/><g class="errorbars"/><g class="lines"/><g class="points"><path class="point" transform="translate(629.23,450.66)" d="M13.89,0A13.89,13.89 0 1,1 0,-13.89A13.89,13.89 0 0,1 13.89,0Z" style="opacity: 1; stroke-width: 0px; fill: rgb(0, 0, 0); fill-opacity: 1;"/></g><g class="text"/></g><g class="trace scatter trace108f4b" style="stroke-miterlimit: 2; opacity: 1;"><g class="fills"/><g class="errorbars"/><g class="lines"/><g class="points"><path class="point" transform="translate(699.62,352.69)" d="M13.89,0A13.89,13.89 0 1,1 0,-13.89A13.89,13.89 0 0,1 13.89,0Z" style="opacity: 1; stroke-width: 0px; fill: rgb(0, 0, 0); fill-opacity: 1;"/></g><g class="text"/></g><g class="trace scatter tracea899c3" style="stroke-miterlimit: 2; opacity: 1;"><g class="fills"/><g class="errorbars"/><g class="lines"/><g class="points"><path class="point" transform="translate(699.62,352.69)" d="M13.89,0A13.89,13.89 0 1,1 0,-13.89A13.89,13.89 0 0,1 13.89,0Z" style="opacity: 1; stroke-width: 0px; fill: rgb(0, 0, 0); fill-opacity: 1;"/><path class="point" transform="translate(699.62,450.66)" d="M13.89,0A13.89,13.89 0 1,1 0,-13.89A13.89,13.89 0 0,1 13.89,0Z" style="opacity: 1; stroke-width: 0px; fill: rgb(0, 0, 0); fill-opacity: 1;"/></g><g class="text"/></g><g class="trace scatter trace583533" style="stroke-miterlimit: 2; opacity: 1;"><g class="fills"/><g class="errorbars"/><g class="lines"/><g class="points"/><g class="text"><g class="textpoint" transform="translate(0,3)"><text x="320.95" y="352.69" text-anchor="end" style="font-family: 'Open Sans', verdana, arial, sans-serif; font-size: 12px; fill: rgb(42, 63, 95); fill-opacity: 1; white-space: pre;">lb-wt_exponential_phase_NBR-Function-2</text></g><g class="textpoint" transform="translate(0,3)"><text x="320.95" y="450.66" text-anchor="end" style="font-family: 'Open Sans', verdana, arial, sans-serif; font-size: 12px; fill: rgb(42, 63, 95); fill-opacity: 1; white-space: pre;">lb-wt_transition_phase_NBR-Function-2</text></g><g class="textpoint" transform="translate(0,3)"><text x="320.95" y="548.63" text-anchor="end" style="font-family: 'Open Sans', verdana, arial, sans-serif; font-size: 12px; fill: rgb(42, 63, 95); fill-opacity: 1; white-space: pre;">lb-wt_stationary_phase_NBR-Function-2</text></g></g></g></g></g><g class="overplot"/><path class="xlines-above crisp" d="M0,0" style="fill: none;"/><path class="ylines-above crisp" d="M0,0" style="fill: none;"/><g class="overlines-above"/><g class="xaxislayer-above"/><g class="yaxislayer-above"/><g class="overaxes-above"/></g></g><g class="polarlayer"/><g class="smithlayer"/><g class="ternarylayer"/><g class="geolayer"/><g class="funnelarealayer"/><g class="pielayer"/><g class="iciclelayer"/><g class="treemaplayer"/><g class="sunburstlayer"/><g class="glimages"/><defs id="topdefs-f04124"><g class="clips"/></defs><g class="layer-above"><g class="imagelayer"/><g class="shapelayer"/></g><g class="infolayer"><g class="g-gtitle"><text class="gtitle" x="500" y="20" text-anchor="middle" dy="0em" style="font-family: 'Open Sans', verdana, arial, sans-serif; font-size: 17px; fill: rgb(42, 63, 95); opacity: 1; font-weight: normal; white-space: pre;"><tspan style="font-weight:bold">Intersections<tspan style="font-weight:bold"></tspan></tspan></text></g><g class="g-xtitle"/><g class="g-ytitle"/></g></svg>