<svg class="main-svg" xmlns="http://www.w3.org/2000/svg" xmlns:xlink="http://www.w3.org/1999/xlink" width="1000" height="800" style="" viewBox="0 0 1000 800"><rect x="0" y="0" width="1000" height="800" style="fill: rgb(255, 255, 255); fill-opacity: 1;"/><defs id="defs-f4e516"><g class="clips"><clipPath id="clipf4e516xyplot" class="plotclip"><rect width="770" height="680"/></clipPath><clipPath class="axesclip" id="clipf4e516x"><rect x="150" y="0" width="770" height="800"/></clipPath><clipPath class="axesclip" id="clipf4e516y"><rect x="0" y="40" width="1000" height="680"/></clipPath><clipPath class="axesclip" id="clipf4e516xy"><rect x="150" y="40" width="770" height="680"/></clipPath></g><g class="gradients"/><g class="patterns"/></defs><g class="bglayer"><rect class="bg" x="150" y="40" width="770" height="680" style="fill: rgb(255, 255, 255); fill-opacity: 1; stroke-width: 0;"/></g><g class="layer-below"><g class="imagelayer"/><g class="shapelayer"/></g><g class="cartesianlayer"><g class="subplot xy"><g class="layer-subplot"><g class="shapelayer"/><g class="imagelayer"/></g><g class="minor-gridlayer"><g class="x"/><g class="y"/></g><g class="gridlayer"><g class="x"/><g class="y"><path class="ygrid crisp" transform="translate(0,635.74)" d="M150,0h770" style="stroke: rgb(255, 255, 255); stroke-opacity: 1; stroke-width: 1px;"/><path class="ygrid crisp" transform="translate(0,549.05)" d="M150,0h770" style="stroke: rgb(255, 255, 255); stroke-opacity: 1; stroke-width: 1px;"/><path class="ygrid crisp" transform="translate(0,462.36)" d="M150,0h770" style="stroke: rgb(255, 255, 255); stroke-opacity: 1; stroke-width: 1px;"/><path class="ygrid crisp" transform="translate(0,375.67)" d="M150,0h770" style="stroke: rgb(255, 255, 255); stroke-opacity: 1; stroke-width: 1px;"/><path class="ygrid crisp" transform="translate(0,288.98)" d="M150,0h770" style="stroke: rgb(255, 255, 255); stroke-opacity: 1; stroke-width: 1px;"/><path class="ygrid crisp" transform="translate(0,202.28)" d="M150,0h770" style="stroke: rgb(255, 255, 255); stroke-opacity: 1; stroke-width: 1px;"/><path class="ygrid crisp" transform="translate(0,115.59)" d="M150,0h770" style="stroke: rgb(255, 255, 255); stroke-opacity: 1; stroke-width: 1px;"/></g></g><g class="zerolinelayer"/><path class="xlines-below"/><path class="ylines-below"/><g class="overlines-below"/><g class="xaxislayer-below"/><g class="yaxislayer-below"/><g class="overaxes-below"/><g class="plot" transform="translate(150,40)" clip-path="url(#clipf4e516xyplot)"><g class="barlayer mlayer"><g class="trace bars" style="opacity: 1;"><g class="points"><g class="point"><path d="M292.78,335.67V58.26H344.37V335.67Z" style="vector-effect: non-scaling-stroke; opacity: 1; stroke-width: 0.5px; fill: rgb(0, 0, 0); fill-opacity: 1; stroke: rgb(229, 236, 246); stroke-opacity: 1;"/><text class="bartext bartext-outside" text-anchor="middle" data-notex="1" x="0" y="0" style="font-family: 'Open Sans', verdana, arial, sans-serif; font-size: 12px; fill: rgb(42, 63, 95); fill-opacity: 1; white-space: pre;" transform="translate(318.41875,52.26)">32</text></g><g class="point"><path d="M357.27,335.67V292.32H408.86V335.67Z" style="vector-effect: non-scaling-stroke; opacity: 1; stroke-width: 0.5px; fill: rgb(0, 0, 0); fill-opacity: 1; stroke: rgb(229, 236, 246); stroke-opacity: 1;"/><text class="bartext bartext-outside" text-anchor="middle" data-notex="1" x="0" y="0" style="font-family: 'Open Sans', verdana, arial, sans-serif; font-size: 12px; fill: rgb(42, 63, 95); fill-opacity: 1; white-space: pre;" transform="translate(382.9009375,286.32)">5</text></g><g class="point"><path d="M421.76,335.67V300.99H473.35V335.67Z" style="vector-effect: non-scaling-stroke; opacity: 1; stroke-width: 0.5px; fill: rgb(0, 0, 0); fill-opacity: 1; stroke: rgb(229, 236, 246); stroke-opacity: 1;"/><text class="bartext bartext-outside" text-anchor="middle" data-notex="1" x="0" y="0" style="font-family: 'Open Sans', verdana, arial, sans-serif; font-size: 12px; fill: rgb(42, 63, 95); fill-opacity: 1; white-space: pre;" transform="translate(447.3909375,294.99)">4</text></g><g class="point"><path d="M486.25,335.67V318.33H537.84V335.67Z" style="vector-effect: non-scaling-stroke; opacity: 1; stroke-width: 0.5px; fill: rgb(0, 0, 0); fill-opacity: 1; stroke: rgb(229, 236, 246); stroke-opacity: 1;"/><text class="bartext bartext-outside" text-anchor="middle" data-notex="1" x="0" y="0" style="font-family: 'Open Sans', verdana, arial, sans-serif; font-size: 12px; fill: rgb(42, 63, 95); fill-opacity: 1; white-space: pre;" transform="translate(511.8809375000001,312.33)">2</text></g><g class="point"><path d="M550.74,335.67V318.33H602.33V335.67Z" style="vector-effect: non-scaling-stroke; opacity: 1; stroke-width: 0.5px; fill: rgb(0, 0, 0); fill-opacity: 1; stroke: rgb(229, 236, 246); stroke-opacity: 1;"/><text class="bartext bartext-outside" text-anchor="middle" data-notex="1" x="0" y="0" style="font-family: 'Open Sans', verdana, arial, sans-serif; font-size: 12px; fill: rgb(42, 63, 95); fill-opacity: 1; white-space: pre;" transform="translate(576.3709375000001,312.33)">2</text></g><g class="point"><path d="M615.23,335.67V318.33H666.82V335.67Z" style="vector-effect: non-scaling-stroke; opacity: 1; stroke-width: 0.5px; fill: rgb(0, 0, 0); fill-opacity: 1; stroke: rgb(229, 236, 246); stroke-opacity: 1;"/><text class="bartext bartext-outside" text-anchor="middle" data-notex="1" x="0" y="0" style="font-family: 'Open Sans', verdana, arial, sans-serif; font-size: 12px; fill: rgb(42, 63, 95); fill-opacity: 1; white-space: pre;" transform="translate(640.8609375000001,312.33)">2</text></g><g class="point"><path d="M679.72,335.67V327H731.31V335.67Z" style="vector-effect: non-scaling-stroke; opacity: 1; stroke-width: 0.5px; fill: rgb(0, 0, 0); fill-opacity: 1; stroke: rgb(229, 236, 246); stroke-opacity: 1;"/><text class="bartext bartext-outside" text-anchor="middle" data-notex="1" x="0" y="0" style="font-family: 'Open Sans', verdana, arial, sans-serif; font-size: 12px; fill: rgb(42, 63, 95); fill-opacity: 1; white-space: pre;" transform="translate(705.3509375,321)">1</text></g></g></g></g><g class="scatterlayer mlayer"><g class="trace scatter traceeb2e70" style="stroke-miterlimit: 2; opacity: 1;"><g class="fills"/><g class="errorbars"/><g class="lines"/><g class="points"><path class="point" transform="translate(318.58,366.18)" d="M11.9,0A11.9,11.9 0 1,1 0,-11.9A11.9,11.9 0 0,1 11.9,0Z" style="opacity: 1; stroke-width: 0px; fill: rgb(201, 201, 201); fill-opacity: 1;"/><path class="point" transform="translate(318.58,467.9)" d="M11.9,0A11.9,11.9 0 1,1 0,-11.9A11.9,11.9 0 0,1 11.9,0Z" style="opacity: 1; stroke-width: 0px; fill: rgb(201, 201, 201); fill-opacity: 1;"/><path class="point" transform="translate(318.58,569.61)" d="M11.9,0A11.9,11.9 0 1,1 0,-11.9A11.9,11.9 0 0,1 11.9,0Z" style="opacity: 1; stroke-width: 0px; fill: rgb(201, 201, 201); fill-opacity: 1;"/><path class="point" transform="translate(383.07,366.18)" d="M11.9,0A11.9,11.9 0 1,1 0,-11.9A11.9,11.9 0 0,1 11.9,0Z" style="opacity: 1; stroke-width: 0px; fill: rgb(201, 201, 201); fill-opacity: 1;"/><path class="point" transform="translate(383.07,467.9)" d="M11.9,0A11.9,11.9 0 1,1 0,-11.9A11.9,11.9 0 0,1 11.9,0Z" style="opacity: 1; stroke-width: 0px; fill: rgb(201, 201, 201); fill-opacity: 1;"/><path class="point" transform="translate(383.07,569.61)" d="M11.9,0A11.9,11.9 0 1,1 0,-11.9A11.9,11.9 0 0,1 11.9,0Z" style="opacity: 1; stroke-width: 0px; fill: rgb(201, 201, 201); fill-opacity: 1;"/><path class="point" transform="translate(447.55,366.18)" d="M11.9,0A11.9,11.9 0 1,1 0,-11.9A11.9,11.9 0 0,1 11.9,0Z" style="opacity: 1; stroke-width: 0px; fill: rgb(201, 201, 201); fill-opacity: 1;"/><path class="point" transform="translate(447.55,467.9)" d="M11.9,0A11.9,11.9 0 1,1 0,-11.9A11.9,11.9 0 0,1 11.9,0Z" style="opacity: 1; stroke-width: 0px; fill: rgb(201, 201, 201); fill-opacity: 1;"/><path class="point" transform="translate(447.55,569.61)" d="M11.9,0A11.9,11.9 0 1,1 0,-11.9A11.9,11.9 0 0,1 11.9,0Z" style="opacity: 1; stroke-width: 0px; fill: rgb(201, 201, 201); fill-opacity: 1;"/><path class="point" transform="translate(512.04,366.18)" d="M11.9,0A11.9,11.9 0 1,1 0,-11.9A11.9,11.9 0 0,1 11.9,0Z" style="opacity: 1; stroke-width: 0px; fill: rgb(201, 201, 201); fill-opacity: 1;"/><path class="point" transform="translate(512.04,467.9)" d="M11.9,0A11.9,11.9 0 1,1 0,-11.9A11.9,11.9 0 0,1 11.9,0Z" style="opacity: 1; stroke-width: 0px; fill: rgb(201, 201, 201); fill-opacity: 1;"/><path class="point" transform="translate(512.04,569.61)" d="M11.9,0A11.9,11.9 0 1,1 0,-11.9A11.9,11.9 0 0,1 11.9,0Z" style="opacity: 1; stroke-width: 0px; fill: rgb(201, 201, 201); fill-opacity: 1;"/><path class="point" transform="translate(576.53,366.18)" d="M11.9,0A11.9,11.9 0 1,1 0,-11.9A11.9,11.9 0 0,1 11.9,0Z" style="opacity: 1; stroke-width: 0px; fill: rgb(201, 201, 201); fill-opacity: 1;"/><path class="point" transform="translate(576.53,467.9)" d="M11.9,0A11.9,11.9 0 1,1 0,-11.9A11.9,11.9 0 0,1 11.9,0Z" style="opacity: 1; stroke-width: 0px; fill: rgb(201, 201, 201); fill-opacity: 1;"/><path class="point" transform="translate(576.53,569.61)" d="M11.9,0A11.9,11.9 0 1,1 0,-11.9A11.9,11.9 0 0,1 11.9,0Z" style="opacity: 1; stroke-width: 0px; fill: rgb(201, 201, 201); fill-opacity: 1;"/><path class="point" transform="translate(641.02,366.18)" d="M11.9,0A11.9,11.9 0 1,1 0,-11.9A11.9,11.9 0 0,1 11.9,0Z" style="opacity: 1; stroke-width: 0px; fill: rgb(201, 201, 201); fill-opacity: 1;"/><path class="point" transform="translate(641.02,467.9)" d="M11.9,0A11.9,11.9 0 1,1 0,-11.9A11.9,11.9 0 0,1 11.9,0Z" style="opacity: 1; stroke-width: 0px; fill: rgb(201, 201, 201); fill-opacity: 1;"/><path class="point" transform="translate(641.02,569.61)" d="M11.9,0A11.9,11.9 0 1,1 0,-11.9A11.9,11.9 0 0,1 11.9,0Z" style="opacity: 1; stroke-width: 0px; fill: rgb(201, 201, 201); fill-opacity: 1;"/><path class="point" transform="translate(705.51,366.18)" d="M11.9,0A11.9,11.9 0 1,1 0,-11.9A11.9,11.9 0 0,1 11.9,0Z" style="opacity: 1; stroke-width: 0px; fill: rgb(201, 201, 201); fill-opacity: 1;"/><path class="point" transform="translate(705.51,467.9)" d="M11.9,0A11.9,11.9 0 1,1 0,-11.9A11.9,11.9 0 0,1 11.9,0Z" style="opacity: 1; stroke-width: 0px; fill: rgb(201, 201, 201); fill-opacity: 1;"/><path class="point" transform="translate(705.51,569.61)" d="M11.9,0A11.9,11.9 0 1,1 0,-11.9A11.9,11.9 0 0,1 11.9,0Z" style="opacity: 1; stroke-width: 0px; fill: rgb(201, 201, 201); fill-opacity: 1;"/></g><g class="text"/></g><g class="trace scatter traceca19bc" style="stroke-miterlimit: 2; opacity: 1;"><g class="fills"/><g class="errorbars"/><g class="lines"/><g class="points"><path class="point" transform="translate(318.58,366.18)" d="M11.9,0A11.9,11.9 0 1,1 0,-11.9A11.9,11.9 0 0,1 11.9,0Z" style="opacity: 1; stroke-width: 0px; fill: rgb(0, 0, 0); fill-opacity: 1;"/></g><g class="text"/></g><g class="trace scatter trace1db06b" style="stroke-miterlimit: 2; opacity: 1;"><g class="fills"/><g class="errorbars"/><g class="lines"/><g class="points"><path class="point" transform="translate(318.58,366.18)" d="M11.9,0A11.9,11.9 0 1,1 0,-11.9A11.9,11.9 0 0,1 11.9,0Z" style="opacity: 1; stroke-width: 0px; fill: rgb(0, 0, 0); fill-opacity: 1;"/><path class="point" transform="translate(318.58,467.9)" d="M11.9,0A11.9,11.9 0 1,1 0,-11.9A11.9,11.9 0 0,1 11.9,0Z" style="opacity: 1; stroke-width: 0px; fill: rgb(0, 0, 0); fill-opacity: 1;"/></g><g class="text"/></g><g class="trace scatter trace7c569c" style="stroke-miterlimit: 2; opacity: 1;"><g class="fills"/><g class="errorbars"/><g class="lines"/><g class="points"><path class="point" transform="translate(318.58,366.18)" d="M11.9,0A11.9,11.9 0 1,1 0,-11.9A11.9,11.9 0 0,1 11.9,0Z" style="opacity: 1; stroke-width: 0px; fill: rgb(0, 0, 0); fill-opacity: 1;"/><path class="point" transform="translate(318.58,467.9)" d="M11.9,0A11.9,11.9 0 1,1 0,-11.9A11.9,11.9 0 0,1 11.9,0Z" style="opacity: 1; stroke-width: 0px; fill: rgb(0, 0, 0); fill-opacity: 1;"/><path class="point" transform="translate(318.58,569.61)" d="M11.9,0A11.9,11.9 0 1,1 0,-11.9A11.9,11.9 0 0,1 11.9,0Z" style="opacity: 1; stroke-width: 0px; fill: rgb(0, 0, 0); fill-opacity: 1;"/></g><g class="text"/></g><g class="trace scatter trace20c2fc" style="stroke-miterlimit: 2; opacity: 1;"><g class="fills"/><g class="errorbars"/><g class="lines"/><g class="points"><path class="point" transform="translate(383.07,467.9)" d="M11.9,0A11.9,11.9 0 1,1 0,-11.9A11.9,11.9 0 0,1 11.9,0Z" style="opacity: 1; stroke-width: 0px; fill: rgb(0, 0, 0); fill-opacity: 1;"/></g><g class="text"/></g><g class="trace scatter tracea23236" style="stroke-miterlimit: 2; opacity: 1;"><g class="fills"/><g class="errorbars"/><g class="lines"/><g class="points"><path class="point" transform="translate(447.55,366.18)" d="M11.9,0A11.9,11.9 0 1,1 0,-11.9A11.9,11.9 0 0,1 11.9,0Z" style="opacity: 1; stroke-width: 0px; fill: rgb(0, 0, 0); fill-opacity: 1;"/></g><g class="text"/></g><g class="trace scatter tracec1ff0c" style="stroke-miterlimit: 2; opacity: 1;"><g class="fills"/><g class="errorbars"/><g class="lines"/><g class="points"><path class="point" transform="translate(447.55,366.18)" d="M11.9,0A11.9,11.9 0 1,1 0,-11.9A11.9,11.9 0 0,1 11.9,0Z" style="opacity: 1; stroke-width: 0px; fill: rgb(0, 0, 0); fill-opacity: 1;"/><path class="point" transform="translate(447.55,467.9)" d="M11.9,0A11.9,11.9 0 1,1 0,-11.9A11.9,11.9 0 0,1 11.9,0Z" style="opacity: 1; stroke-width: 0px; fill: rgb(0, 0, 0); fill-opacity: 1;"/></g><g class="text"/></g><g class="trace scatter trace1611bc" style="stroke-miterlimit: 2; opacity: 1;"><g class="fills"/><g class="errorbars"/><g class="lines"/><g class="points"><path class="point" transform="translate(512.04,366.18)" d="M11.9,0A11.9,11.9 0 1,1 0,-11.9A11.9,11.9 0 0,1 11.9,0Z" style="opacity: 1; stroke-width: 0px; fill: rgb(0, 0, 0); fill-opacity: 1;"/></g><g class="text"/></g><g class="trace scatter tracece0f59" style="stroke-miterlimit: 2; opacity: 1;"><g class="fills"/><g class="errorbars"/><g class="lines"/><g class="points"><path class="point" transform="translate(576.53,569.61)" d="M11.9,0A11.9,11.9 0 1,1 0,-11.9A11.9,11.9 0 0,1 11.9,0Z" style="opacity: 1; stroke-width: 0px; fill: rgb(0, 0, 0); fill-opacity: 1;"/></g><g class="text"/></g><g class="trace scatter trace3d4a6a" style="stroke-miterlimit: 2; opacity: 1;"><g class="fills"/><g class="errorbars"/><g class="lines"/><g class="points"><path class="point" transform="translate(641.02,467.9)" d="M11.9,0A11.9,11.9 0 1,1 0,-11.9A11.9,11.9 0 0,1 11.9,0Z" style="opacity: 1; stroke-width: 0px; fill: rgb(0, 0, 0); fill-opacity: 1;"/></g><g class="text"/></g><g class="trace scatter traceebe9ac" style="stroke-miterlimit: 2; opacity: 1;"><g class="fills"/><g class="errorbars"/><g class="lines"/><g class="points"><path class="point" transform="translate(641.02,467.9)" d="M11.9,0A11.9,11.9 0 1,1 0,-11.9A11.9,11.9 0 0,1 11.9,0Z" style="opacity: 1; stroke-width: 0px; fill: rgb(0, 0, 0); fill-opacity: 1;"/><path class="point" transform="translate(641.02,569.61)" d="M11.9,0A11.9,11.9 0 1,1 0,-11.9A11.9,11.9 0 0,1 11.9,0Z" style="opacity: 1; stroke-width: 0px; fill: rgb(0, 0, 0); fill-opacity: 1;"/></g><g class="text"/></g><g class="trace scatter traceac8cc2" style="stroke-miterlimit: 2; opacity: 1;"><g class="fills"/><g class="errorbars"/><g class="lines"/><g class="points"><path class="point" transform="translate(705.51,366.18)" d="M11.9,0A11.9,11.9 0 1,1 0,-11.9A11.9,11.9 0 0,1 11.9,0Z" style="opacity: 1; stroke-width: 0px; fill: rgb(0, 0, 0); fill-opacity: 1;"/></g><g class="text"/></g><g class="trace scatter traced115ec" style="stroke-miterlimit: 2; opacity: 1;"><g class="fills"/><g class="errorbars"/><g class="lines"/><g class="points"><path class="point" transform="translate(705.51,366.18)" d="M11.9,0A11.9,11.9 0 1,1 0,-11.9A11.9,11.9 0 0,1 11.9,0Z" style="opacity: 1; stroke-width: 0px; fill: rgb(0, 0, 0); fill-opacity: 1;"/><path class="point" transform="translate(705.51,569.61)" d="M11.9,0A11.9,11.9 0 1,1 0,-11.9A11.9,11.9 0 0,1 11.9,0Z" style="opacity: 1; stroke-width: 0px; fill: rgb(0, 0, 0); fill-opacity: 1;"/></g><g class="text"/></g><g class="trace scatter trace356e46" style="stroke-miterlimit: 2; opacity: 1;"><g class="fills"/><g class="errorbars"/><g class="lines"/><g class="points"/><g class="text"><g class="textpoint" transform="translate(0,3)"><text x="294.07" y="366.18" text-anchor="end" style="font-family: 'Open Sans', verdana, arial, sans-serif; font-size: 12px; fill: rgb(42, 63, 95); fill-opacity: 1; white-space: pre;">lb-wt_transition_phase_NBR-Function-2</text></g><g class="textpoint" transform="translate(0,3)"><text x="294.07" y="467.9" text-anchor="end" style="font-family: 'Open Sans', verdana, arial, sans-serif; font-size: 12px; fill: rgb(42, 63, 95); fill-opacity: 1; white-space: pre;">lb-wt_exponential_phase_NBR-Function-2</text></g><g class="textpoint" transform="translate(0,3)"><text x="294.07" y="569.61" text-anchor="end" style="font-family: 'Open Sans', verdana, arial, sans-serif; font-size: 12px; fill: rgb(42, 63, 95); fill-opacity: 1; white-space: pre;">lb-wt_stationary_phase_NBR-Function-2</text></g></g></g></g></g><g class="overplot"/><path class="xlines-above crisp" d="M0,0" style="fill: none;"/><path class="ylines-above crisp" d="M0,0" style="fill: none;"/><g class="overlines-above"/><g class="xaxislayer-above"/><g class="yaxislayer-above"/><g class="overaxes-above"/></g></g><g class="polarlayer"/><g class="smithlayer"/><g class="ternarylayer"/><g class="geolayer"/><g class="funnelarealayer"/><g class="pielayer"/><g class="iciclelayer"/><g class="treemaplayer"/><g class="sunburstlayer"/><g class="glimages"/><defs id="topdefs-f4e516"><g class="clips"/></defs><g class="layer-above"><g class="imagelayer"/><g class="shapelayer"/></g><g class="infolayer"><g class="g-gtitle"><text class="gtitle" x="500" y="20" text-anchor="middle" dy="0em" style="font-family: 'Open Sans', verdana, arial, sans-serif; font-size: 17px; fill: rgb(42, 63, 95); opacity: 1; font-weight: normal; white-space: pre;"><tspan style="font-weight:bold">Intersections<tspan style="font-weight:bold"></tspan></tspan></text></g><g class="g-xtitle"/><g class="g-ytitle"/></g></svg>