<svg class="main-svg" xmlns="http://www.w3.org/2000/svg" xmlns:xlink="http://www.w3.org/1999/xlink" width="600" height="1200" style="" viewBox="0 0 600 1200"><rect x="0" y="0" width="600" height="1200" style="fill: rgb(255, 255, 255); fill-opacity: 1;"/><defs id="defs-99a0bc"><g class="clips"><clipPath id="clip99a0bcxyplot" class="plotclip"><rect width="233" height="1020"/></clipPath><clipPath class="axesclip" id="clip99a0bcx"><rect x="287" y="0" width="233" height="1200"/></clipPath><clipPath class="axesclip" id="clip99a0bcy"><rect x="0" y="100" width="600" height="1020"/></clipPath><clipPath class="axesclip" id="clip99a0bcxy"><rect x="287" y="100" width="233" height="1020"/></clipPath></g><g class="gradients"/><g class="patterns"/></defs><g class="bglayer"><rect class="bg" x="287" y="100" width="233" height="1020" style="fill: rgb(229, 236, 246); fill-opacity: 1; stroke-width: 0;"/></g><g class="layer-below"><g class="imagelayer"/><g class="shapelayer"/></g><g class="cartesianlayer"><g class="subplot xy"><g class="layer-subplot"><g class="shapelayer"/><g class="imagelayer"/></g><g class="minor-gridlayer"><g class="x"/><g class="y"/></g><g class="gridlayer"><g class="x"><path class="xgrid crisp" transform="translate(315.73,0)" d="M0,100v1020" style="stroke: rgb(255, 255, 255); stroke-opacity: 1; stroke-width: 1px;"/><path class="xgrid crisp" transform="translate(496.51,0)" d="M0,100v1020" style="stroke: rgb(255, 255, 255); stroke-opacity: 1; stroke-width: 1px;"/></g><g class="y"><path class="ygrid crisp" transform="translate(0,1066)" d="M287,0h233" style="stroke: rgb(255, 255, 255); stroke-opacity: 1; stroke-width: 1px;"/><path class="ygrid crisp" transform="translate(0,1032.27)" d="M287,0h233" style="stroke: rgb(255, 255, 255); stroke-opacity: 1; stroke-width: 1px;"/><path class="ygrid crisp" transform="translate(0,998.54)" d="M287,0h233" style="stroke: rgb(255, 255, 255); stroke-opacity: 1; stroke-width: 1px;"/><path class="ygrid crisp" transform="translate(0,964.8)" d="M287,0h233" style="stroke: rgb(255, 255, 255); stroke-opacity: 1; stroke-width: 1px;"/><path class="ygrid crisp" transform="translate(0,931.07)" d="M287,0h233" style="stroke: rgb(255, 255, 255); stroke-opacity: 1; stroke-width: 1px;"/><path class="ygrid crisp" transform="translate(0,897.34)" d="M287,0h233" style="stroke: rgb(255, 255, 255); stroke-opacity: 1; stroke-width: 1px;"/><path class="ygrid crisp" transform="translate(0,863.61)" d="M287,0h233" style="stroke: rgb(255, 255, 255); stroke-opacity: 1; stroke-width: 1px;"/><path class="ygrid crisp" transform="translate(0,829.87)" d="M287,0h233" style="stroke: rgb(255, 255, 255); stroke-opacity: 1; stroke-width: 1px;"/><path class="ygrid crisp" transform="translate(0,796.14)" d="M287,0h233" style="stroke: rgb(255, 255, 255); stroke-opacity: 1; stroke-width: 1px;"/><path class="ygrid crisp" transform="translate(0,762.41)" d="M287,0h233" style="stroke: rgb(255, 255, 255); stroke-opacity: 1; stroke-width: 1px;"/><path class="ygrid crisp" transform="translate(0,728.68)" d="M287,0h233" style="stroke: rgb(255, 255, 255); stroke-opacity: 1; stroke-width: 1px;"/><path class="ygrid crisp" transform="translate(0,694.95)" d="M287,0h233" style="stroke: rgb(255, 255, 255); stroke-opacity: 1; stroke-width: 1px;"/><path class="ygrid crisp" transform="translate(0,661.21)" d="M287,0h233" style="stroke: rgb(255, 255, 255); stroke-opacity: 1; stroke-width: 1px;"/><path class="ygrid crisp" transform="translate(0,627.48)" d="M287,0h233" style="stroke: rgb(255, 255, 255); stroke-opacity: 1; stroke-width: 1px;"/><path class="ygrid crisp" transform="translate(0,593.75)" d="M287,0h233" style="stroke: rgb(255, 255, 255); stroke-opacity: 1; stroke-width: 1px;"/><path class="ygrid crisp" transform="translate(0,560.02)" d="M287,0h233" style="stroke: rgb(255, 255, 255); stroke-opacity: 1; stroke-width: 1px;"/><path class="ygrid crisp" transform="translate(0,526.28)" d="M287,0h233" style="stroke: rgb(255, 255, 255); stroke-opacity: 1; stroke-width: 1px;"/><path class="ygrid crisp" transform="translate(0,492.55)" d="M287,0h233" style="stroke: rgb(255, 255, 255); stroke-opacity: 1; stroke-width: 1px;"/><path class="ygrid crisp" transform="translate(0,458.82)" d="M287,0h233" style="stroke: rgb(255, 255, 255); stroke-opacity: 1; stroke-width: 1px;"/><path class="ygrid crisp" transform="translate(0,425.09)" d="M287,0h233" style="stroke: rgb(255, 255, 255); stroke-opacity: 1; stroke-width: 1px;"/><path class="ygrid crisp" transform="translate(0,391.36)" d="M287,0h233" style="stroke: rgb(255, 255, 255); stroke-opacity: 1; stroke-width: 1px;"/><path class="ygrid crisp" transform="translate(0,357.62)" d="M287,0h233" style="stroke: rgb(255, 255, 255); stroke-opacity: 1; stroke-width: 1px;"/><path class="ygrid crisp" transform="translate(0,323.89)" d="M287,0h233" style="stroke: rgb(255, 255, 255); stroke-opacity: 1; stroke-width: 1px;"/><path class="ygrid crisp" transform="translate(0,290.15999999999997)" d="M287,0h233" style="stroke: rgb(255, 255, 255); stroke-opacity: 1; stroke-width: 1px;"/><path class="ygrid crisp" transform="translate(0,256.43)" d="M287,0h233" style="stroke: rgb(255, 255, 255); stroke-opacity: 1; stroke-width: 1px;"/><path class="ygrid crisp" transform="translate(0,222.69)" d="M287,0h233" style="stroke: rgb(255, 255, 255); stroke-opacity: 1; stroke-width: 1px;"/><path class="ygrid crisp" transform="translate(0,188.95999999999998)" d="M287,0h233" style="stroke: rgb(255, 255, 255); stroke-opacity: 1; stroke-width: 1px;"/><path class="ygrid crisp" transform="translate(0,155.23)" d="M287,0h233" style="stroke: rgb(255, 255, 255); stroke-opacity: 1; stroke-width: 1px;"/></g></g><g class="zerolinelayer"/><path class="xlines-below"/><path class="ylines-below"/><g class="overlines-below"/><g class="xaxislayer-below"/><g class="yaxislayer-below"/><g class="overaxes-below"/><g class="plot" transform="translate(287,100)" clip-path="url(#clip99a0bcxyplot)"><g class="scatterlayer mlayer"><g class="trace scatter tracefd0e56" style="stroke-miterlimit: 2; opacity: 1;"><g class="fills"/><g class="errorbars"/><g class="lines"/><g class="points"><path class="point" transform="translate(28.73,966)" d="M1.57,0A1.57,1.57 0 1,1 0,-1.57A1.57,1.57 0 0,1 1.57,0Z" style="opacity: 0.7; stroke-width: 2px; fill: rgb(31, 119, 180); fill-opacity: 1; stroke: rgb(255, 255, 255); stroke-opacity: 1;"/><path class="point" transform="translate(28.73,932.27)" d="M3.14,0A3.14,3.14 0 1,1 0,-3.14A3.14,3.14 0 0,1 3.14,0Z" style="opacity: 0.7; stroke-width: 2px; fill: rgb(31, 119, 180); fill-opacity: 1; stroke: rgb(255, 255, 255); stroke-opacity: 1;"/><path class="point" transform="translate(28.73,898.54)" d="M2.83,0A2.83,2.83 0 1,1 0,-2.83A2.83,2.83 0 0,1 2.83,0Z" style="opacity: 0.7; stroke-width: 2px; fill: rgb(31, 119, 180); fill-opacity: 1; stroke: rgb(255, 255, 255); stroke-opacity: 1;"/><path class="point" transform="translate(28.73,864.8)" d="M1.88,0A1.88,1.88 0 1,1 0,-1.88A1.88,1.88 0 0,1 1.88,0Z" style="opacity: 0.7; stroke-width: 2px; fill: rgb(31, 119, 180); fill-opacity: 1; stroke: rgb(255, 255, 255); stroke-opacity: 1;"/><path class="point" transform="translate(28.73,831.07)" d="M0.31,0A0.31,0.31 0 1,1 0,-0.31A0.31,0.31 0 0,1 0.31,0Z" style="opacity: 0.7; stroke-width: 2px; fill: rgb(31, 119, 180); fill-opacity: 1; stroke: rgb(255, 255, 255); stroke-opacity: 1;"/><path class="point" transform="translate(28.73,797.34)" d="M0.63,0A0.63,0.63 0 1,1 0,-0.63A0.63,0.63 0 0,1 0.63,0Z" style="opacity: 0.7; stroke-width: 2px; fill: rgb(31, 119, 180); fill-opacity: 1; stroke: rgb(255, 255, 255); stroke-opacity: 1;"/><path class="point" transform="translate(28.73,763.61)" d="M3.46,0A3.46,3.46 0 1,1 0,-3.46A3.46,3.46 0 0,1 3.46,0Z" style="opacity: 0.7; stroke-width: 2px; fill: rgb(31, 119, 180); fill-opacity: 1; stroke: rgb(255, 255, 255); stroke-opacity: 1;"/><path class="point" transform="translate(28.73,729.87)" d="M2.67,0A2.67,2.67 0 1,1 0,-2.67A2.67,2.67 0 0,1 2.67,0Z" style="opacity: 0.7; stroke-width: 2px; fill: rgb(31, 119, 180); fill-opacity: 1; stroke: rgb(255, 255, 255); stroke-opacity: 1;"/><path class="point" transform="translate(28.73,696.14)" d="M1.88,0A1.88,1.88 0 1,1 0,-1.88A1.88,1.88 0 0,1 1.88,0Z" style="opacity: 0.7; stroke-width: 2px; fill: rgb(31, 119, 180); fill-opacity: 1; stroke: rgb(255, 255, 255); stroke-opacity: 1;"/><path class="point" transform="translate(28.73,662.41)" d="M0.16,0A0.16,0.16 0 1,1 0,-0.16A0.16,0.16 0 0,1 0.16,0Z" style="opacity: 0.7; stroke-width: 2px; fill: rgb(31, 119, 180); fill-opacity: 1; stroke: rgb(255, 255, 255); stroke-opacity: 1;"/><path class="point" transform="translate(28.73,628.68)" d="M2.04,0A2.04,2.04 0 1,1 0,-2.04A2.04,2.04 0 0,1 2.04,0Z" style="opacity: 0.7; stroke-width: 2px; fill: rgb(31, 119, 180); fill-opacity: 1; stroke: rgb(255, 255, 255); stroke-opacity: 1;"/><path class="point" transform="translate(28.73,594.95)" d="M0,0A0,0 0 1,1 0,-0A0,0 0 0,1 0,0Z" style="opacity: 0.7; stroke-width: 2px; fill: rgb(31, 119, 180); fill-opacity: 1; stroke: rgb(255, 255, 255); stroke-opacity: 1;"/><path class="point" transform="translate(28.73,561.21)" d="M9.74,0A9.74,9.74 0 1,1 0,-9.74A9.74,9.74 0 0,1 9.74,0Z" style="opacity: 0.7; stroke-width: 2px; fill: rgb(31, 119, 180); fill-opacity: 1; stroke: rgb(255, 255, 255); stroke-opacity: 1;"/><path class="point" transform="translate(28.73,527.48)" d="M1.41,0A1.41,1.41 0 1,1 0,-1.41A1.41,1.41 0 0,1 1.41,0Z" style="opacity: 0.7; stroke-width: 2px; fill: rgb(31, 119, 180); fill-opacity: 1; stroke: rgb(255, 255, 255); stroke-opacity: 1;"/><path class="point" transform="translate(28.73,493.75)" d="M1.57,0A1.57,1.57 0 1,1 0,-1.57A1.57,1.57 0 0,1 1.57,0Z" style="opacity: 0.7; stroke-width: 2px; fill: rgb(31, 119, 180); fill-opacity: 1; stroke: rgb(255, 255, 255); stroke-opacity: 1;"/><path class="point" transform="translate(28.73,460.02)" d="M1.41,0A1.41,1.41 0 1,1 0,-1.41A1.41,1.41 0 0,1 1.41,0Z" style="opacity: 0.7; stroke-width: 2px; fill: rgb(31, 119, 180); fill-opacity: 1; stroke: rgb(255, 255, 255); stroke-opacity: 1;"/><path class="point" transform="translate(28.73,426.28)" d="M3.77,0A3.77,3.77 0 1,1 0,-3.77A3.77,3.77 0 0,1 3.77,0Z" style="opacity: 0.7; stroke-width: 2px; fill: rgb(31, 119, 180); fill-opacity: 1; stroke: rgb(255, 255, 255); stroke-opacity: 1;"/><path class="point" transform="translate(28.73,392.55)" d="M13.19,0A13.19,13.19 0 1,1 0,-13.19A13.19,13.19 0 0,1 13.19,0Z" style="opacity: 0.7; stroke-width: 2px; fill: rgb(31, 119, 180); fill-opacity: 1; stroke: rgb(255, 255, 255); stroke-opacity: 1;"/><path class="point" transform="translate(28.73,358.82)" d="M6.91,0A6.91,6.91 0 1,1 0,-6.91A6.91,6.91 0 0,1 6.91,0Z" style="opacity: 0.7; stroke-width: 2px; fill: rgb(31, 119, 180); fill-opacity: 1; stroke: rgb(255, 255, 255); stroke-opacity: 1;"/><path class="point" transform="translate(28.73,325.09)" d="M5.03,0A5.03,5.03 0 1,1 0,-5.03A5.03,5.03 0 0,1 5.03,0Z" style="opacity: 0.7; stroke-width: 2px; fill: rgb(31, 119, 180); fill-opacity: 1; stroke: rgb(255, 255, 255); stroke-opacity: 1;"/><path class="point" transform="translate(28.73,291.36)" d="M3.14,0A3.14,3.14 0 1,1 0,-3.14A3.14,3.14 0 0,1 3.14,0Z" style="opacity: 0.7; stroke-width: 2px; fill: rgb(31, 119, 180); fill-opacity: 1; stroke: rgb(255, 255, 255); stroke-opacity: 1;"/><path class="point" transform="translate(28.73,257.62)" d="M2.98,0A2.98,2.98 0 1,1 0,-2.98A2.98,2.98 0 0,1 2.98,0Z" style="opacity: 0.7; stroke-width: 2px; fill: rgb(31, 119, 180); fill-opacity: 1; stroke: rgb(255, 255, 255); stroke-opacity: 1;"/><path class="point" transform="translate(28.73,223.89)" d="M1.1,0A1.1,1.1 0 1,1 0,-1.1A1.1,1.1 0 0,1 1.1,0Z" style="opacity: 0.7; stroke-width: 2px; fill: rgb(31, 119, 180); fill-opacity: 1; stroke: rgb(255, 255, 255); stroke-opacity: 1;"/><path class="point" transform="translate(28.73,190.16)" d="M2.2,0A2.2,2.2 0 1,1 0,-2.2A2.2,2.2 0 0,1 2.2,0Z" style="opacity: 0.7; stroke-width: 2px; fill: rgb(31, 119, 180); fill-opacity: 1; stroke: rgb(255, 255, 255); stroke-opacity: 1;"/><path class="point" transform="translate(28.73,156.43)" d="M0,0A0,0 0 1,1 0,-0A0,0 0 0,1 0,0Z" style="opacity: 0.7; stroke-width: 2px; fill: rgb(31, 119, 180); fill-opacity: 1; stroke: rgb(255, 255, 255); stroke-opacity: 1;"/><path class="point" transform="translate(28.73,122.69)" d="M13.66,0A13.66,13.66 0 1,1 0,-13.66A13.66,13.66 0 0,1 13.66,0Z" style="opacity: 0.7; stroke-width: 2px; fill: rgb(31, 119, 180); fill-opacity: 1; stroke: rgb(255, 255, 255); stroke-opacity: 1;"/><path class="point" transform="translate(28.73,88.96)" d="M1.73,0A1.73,1.73 0 1,1 0,-1.73A1.73,1.73 0 0,1 1.73,0Z" style="opacity: 0.7; stroke-width: 2px; fill: rgb(31, 119, 180); fill-opacity: 1; stroke: rgb(255, 255, 255); stroke-opacity: 1;"/><path class="point" transform="translate(28.73,55.23)" d="M1.57,0A1.57,1.57 0 1,1 0,-1.57A1.57,1.57 0 0,1 1.57,0Z" style="opacity: 0.7; stroke-width: 2px; fill: rgb(31, 119, 180); fill-opacity: 1; stroke: rgb(255, 255, 255); stroke-opacity: 1;"/></g><g class="text"/></g><g class="trace scatter tracee02c31" style="stroke-miterlimit: 2; opacity: 1;"><g class="fills"/><g class="errorbars"/><g class="lines"/><g class="points"><path class="point" transform="translate(209.51,966)" d="M2.03,0A2.03,2.03 0 1,1 0,-2.03A2.03,2.03 0 0,1 2.03,0Z" style="opacity: 0.7; stroke-width: 2px; fill: rgb(255, 127, 14); fill-opacity: 1; stroke: rgb(255, 255, 255); stroke-opacity: 1;"/><path class="point" transform="translate(209.51,932.27)" d="M9.47,0A9.47,9.47 0 1,1 0,-9.47A9.47,9.47 0 0,1 9.47,0Z" style="opacity: 0.7; stroke-width: 2px; fill: rgb(255, 127, 14); fill-opacity: 1; stroke: rgb(255, 255, 255); stroke-opacity: 1;"/><path class="point" transform="translate(209.51,898.54)" d="M0,0A0,0 0 1,1 0,-0A0,0 0 0,1 0,0Z" style="opacity: 0.7; stroke-width: 2px; fill: rgb(255, 127, 14); fill-opacity: 1; stroke: rgb(255, 255, 255); stroke-opacity: 1;"/><path class="point" transform="translate(209.51,864.8)" d="M0.68,0A0.68,0.68 0 1,1 0,-0.68A0.68,0.68 0 0,1 0.68,0Z" style="opacity: 0.7; stroke-width: 2px; fill: rgb(255, 127, 14); fill-opacity: 1; stroke: rgb(255, 255, 255); stroke-opacity: 1;"/><path class="point" transform="translate(209.51,831.07)" d="M8.12,0A8.12,8.12 0 1,1 0,-8.12A8.12,8.12 0 0,1 8.12,0Z" style="opacity: 0.7; stroke-width: 2px; fill: rgb(255, 127, 14); fill-opacity: 1; stroke: rgb(255, 255, 255); stroke-opacity: 1;"/><path class="point" transform="translate(209.51,797.34)" d="M2.03,0A2.03,2.03 0 1,1 0,-2.03A2.03,2.03 0 0,1 2.03,0Z" style="opacity: 0.7; stroke-width: 2px; fill: rgb(255, 127, 14); fill-opacity: 1; stroke: rgb(255, 255, 255); stroke-opacity: 1;"/><path class="point" transform="translate(209.51,763.61)" d="M4.74,0A4.74,4.74 0 1,1 0,-4.74A4.74,4.74 0 0,1 4.74,0Z" style="opacity: 0.7; stroke-width: 2px; fill: rgb(255, 127, 14); fill-opacity: 1; stroke: rgb(255, 255, 255); stroke-opacity: 1;"/><path class="point" transform="translate(209.51,729.87)" d="M4.06,0A4.06,4.06 0 1,1 0,-4.06A4.06,4.06 0 0,1 4.06,0Z" style="opacity: 0.7; stroke-width: 2px; fill: rgb(255, 127, 14); fill-opacity: 1; stroke: rgb(255, 255, 255); stroke-opacity: 1;"/><path class="point" transform="translate(209.51,696.14)" d="M1.35,0A1.35,1.35 0 1,1 0,-1.35A1.35,1.35 0 0,1 1.35,0Z" style="opacity: 0.7; stroke-width: 2px; fill: rgb(255, 127, 14); fill-opacity: 1; stroke: rgb(255, 255, 255); stroke-opacity: 1;"/><path class="point" transform="translate(209.51,662.41)" d="M3.38,0A3.38,3.38 0 1,1 0,-3.38A3.38,3.38 0 0,1 3.38,0Z" style="opacity: 0.7; stroke-width: 2px; fill: rgb(255, 127, 14); fill-opacity: 1; stroke: rgb(255, 255, 255); stroke-opacity: 1;"/><path class="point" transform="translate(209.51,628.68)" d="M1.35,0A1.35,1.35 0 1,1 0,-1.35A1.35,1.35 0 0,1 1.35,0Z" style="opacity: 0.7; stroke-width: 2px; fill: rgb(255, 127, 14); fill-opacity: 1; stroke: rgb(255, 255, 255); stroke-opacity: 1;"/><path class="point" transform="translate(209.51,594.95)" d="M4.06,0A4.06,4.06 0 1,1 0,-4.06A4.06,4.06 0 0,1 4.06,0Z" style="opacity: 0.7; stroke-width: 2px; fill: rgb(255, 127, 14); fill-opacity: 1; stroke: rgb(255, 255, 255); stroke-opacity: 1;"/><path class="point" transform="translate(209.51,561.21)" d="M6.77,0A6.77,6.77 0 1,1 0,-6.77A6.77,6.77 0 0,1 6.77,0Z" style="opacity: 0.7; stroke-width: 2px; fill: rgb(255, 127, 14); fill-opacity: 1; stroke: rgb(255, 255, 255); stroke-opacity: 1;"/><path class="point" transform="translate(209.51,527.48)" d="M0,0A0,0 0 1,1 0,-0A0,0 0 0,1 0,0Z" style="opacity: 0.7; stroke-width: 2px; fill: rgb(255, 127, 14); fill-opacity: 1; stroke: rgb(255, 255, 255); stroke-opacity: 1;"/><path class="point" transform="translate(209.51,493.75)" d="M0.68,0A0.68,0.68 0 1,1 0,-0.68A0.68,0.68 0 0,1 0.68,0Z" style="opacity: 0.7; stroke-width: 2px; fill: rgb(255, 127, 14); fill-opacity: 1; stroke: rgb(255, 255, 255); stroke-opacity: 1;"/><path class="point" transform="translate(209.51,460.02)" d="M0.68,0A0.68,0.68 0 1,1 0,-0.68A0.68,0.68 0 0,1 0.68,0Z" style="opacity: 0.7; stroke-width: 2px; fill: rgb(255, 127, 14); fill-opacity: 1; stroke: rgb(255, 255, 255); stroke-opacity: 1;"/><path class="point" transform="translate(209.51,426.28)" d="M6.77,0A6.77,6.77 0 1,1 0,-6.77A6.77,6.77 0 0,1 6.77,0Z" style="opacity: 0.7; stroke-width: 2px; fill: rgb(255, 127, 14); fill-opacity: 1; stroke: rgb(255, 255, 255); stroke-opacity: 1;"/><path class="point" transform="translate(209.51,392.55)" d="M4.06,0A4.06,4.06 0 1,1 0,-4.06A4.06,4.06 0 0,1 4.06,0Z" style="opacity: 0.7; stroke-width: 2px; fill: rgb(255, 127, 14); fill-opacity: 1; stroke: rgb(255, 255, 255); stroke-opacity: 1;"/><path class="point" transform="translate(209.51,358.82)" d="M5.41,0A5.41,5.41 0 1,1 0,-5.41A5.41,5.41 0 0,1 5.41,0Z" style="opacity: 0.7; stroke-width: 2px; fill: rgb(255, 127, 14); fill-opacity: 1; stroke: rgb(255, 255, 255); stroke-opacity: 1;"/><path class="point" transform="translate(209.51,325.09)" d="M8.12,0A8.12,8.12 0 1,1 0,-8.12A8.12,8.12 0 0,1 8.12,0Z" style="opacity: 0.7; stroke-width: 2px; fill: rgb(255, 127, 14); fill-opacity: 1; stroke: rgb(255, 255, 255); stroke-opacity: 1;"/><path class="point" transform="translate(209.51,291.36)" d="M3.38,0A3.38,3.38 0 1,1 0,-3.38A3.38,3.38 0 0,1 3.38,0Z" style="opacity: 0.7; stroke-width: 2px; fill: rgb(255, 127, 14); fill-opacity: 1; stroke: rgb(255, 255, 255); stroke-opacity: 1;"/><path class="point" transform="translate(209.51,257.62)" d="M3.38,0A3.38,3.38 0 1,1 0,-3.38A3.38,3.38 0 0,1 3.38,0Z" style="opacity: 0.7; stroke-width: 2px; fill: rgb(255, 127, 14); fill-opacity: 1; stroke: rgb(255, 255, 255); stroke-opacity: 1;"/><path class="point" transform="translate(209.51,223.89)" d="M3.38,0A3.38,3.38 0 1,1 0,-3.38A3.38,3.38 0 0,1 3.38,0Z" style="opacity: 0.7; stroke-width: 2px; fill: rgb(255, 127, 14); fill-opacity: 1; stroke: rgb(255, 255, 255); stroke-opacity: 1;"/><path class="point" transform="translate(209.51,190.16)" d="M2.71,0A2.71,2.71 0 1,1 0,-2.71A2.71,2.71 0 0,1 2.71,0Z" style="opacity: 0.7; stroke-width: 2px; fill: rgb(255, 127, 14); fill-opacity: 1; stroke: rgb(255, 255, 255); stroke-opacity: 1;"/><path class="point" transform="translate(209.51,156.43)" d="M2.71,0A2.71,2.71 0 1,1 0,-2.71A2.71,2.71 0 0,1 2.71,0Z" style="opacity: 0.7; stroke-width: 2px; fill: rgb(255, 127, 14); fill-opacity: 1; stroke: rgb(255, 255, 255); stroke-opacity: 1;"/><path class="point" transform="translate(209.51,122.69)" d="M6.09,0A6.09,6.09 0 1,1 0,-6.09A6.09,6.09 0 0,1 6.09,0Z" style="opacity: 0.7; stroke-width: 2px; fill: rgb(255, 127, 14); fill-opacity: 1; stroke: rgb(255, 255, 255); stroke-opacity: 1;"/><path class="point" transform="translate(209.51,88.96)" d="M0,0A0,0 0 1,1 0,-0A0,0 0 0,1 0,0Z" style="opacity: 0.7; stroke-width: 2px; fill: rgb(255, 127, 14); fill-opacity: 1; stroke: rgb(255, 255, 255); stroke-opacity: 1;"/><path class="point" transform="translate(209.51,55.23)" d="M3.38,0A3.38,3.38 0 1,1 0,-3.38A3.38,3.38 0 0,1 3.38,0Z" style="opacity: 0.7; stroke-width: 2px; fill: rgb(255, 127, 14); fill-opacity: 1; stroke: rgb(255, 255, 255); stroke-opacity: 1;"/></g><g class="text"/></g></g></g><g class="overplot"/><path class="xlines-above crisp" d="M0,0" style="fill: none;"/><path class="ylines-above crisp" d="M0,0" style="fill: none;"/><g class="overlines-above"/><g class="xaxislayer-above"><g class="xtick"><text text-anchor="middle" x="0" y="1133" transform="translate(315.73,0)" style="font-family: 'Open Sans', verdana, arial, sans-serif; font-size: 12px; fill: rgb(42, 63, 95); fill-opacity: 1; white-space: pre; opacity: 1;">BAR_Set_percentage</text></g><g class="xtick"><text text-anchor="middle" x="0" y="1133" transform="translate(496.51,0)" style="font-family: 'Open Sans', verdana, arial, sans-serif; font-size: 12px; fill: rgb(42, 63, 95); fill-opacity: 1; white-space: pre; opacity: 1;">NBR_Set_percentage</text></g></g><g class="yaxislayer-above"><g class="ytick"><text text-anchor="end" x="286" y="4.199999999999999" transform="translate(0,1066)" style="font-family: 'Open Sans', verdana, arial, sans-serif; font-size: 12px; fill: rgb(42, 63, 95); fill-opacity: 1; white-space: pre; opacity: 1;">Alanine, aspartate and glutamate metabolism</text></g><g class="ytick"><text text-anchor="end" x="286" y="4.199999999999999" transform="translate(0,1032.27)" style="font-family: 'Open Sans', verdana, arial, sans-serif; font-size: 12px; fill: rgb(42, 63, 95); fill-opacity: 1; white-space: pre; opacity: 1;">Arginine and proline metabolism</text></g><g class="ytick"><text text-anchor="end" x="286" y="4.199999999999999" transform="translate(0,998.54)" style="font-family: 'Open Sans', verdana, arial, sans-serif; font-size: 12px; fill: rgb(42, 63, 95); fill-opacity: 1; white-space: pre; opacity: 1;">Fatty acid biosynthesis</text></g><g class="ytick"><text text-anchor="end" x="286" y="4.199999999999999" transform="translate(0,964.8)" style="font-family: 'Open Sans', verdana, arial, sans-serif; font-size: 12px; fill: rgb(42, 63, 95); fill-opacity: 1; white-space: pre; opacity: 1;">Folate biosynthesis</text></g><g class="ytick"><text text-anchor="end" x="286" y="4.199999999999999" transform="translate(0,931.07)" style="font-family: 'Open Sans', verdana, arial, sans-serif; font-size: 12px; fill: rgb(42, 63, 95); fill-opacity: 1; white-space: pre; opacity: 1;">Fructose and mannose metabolism</text></g><g class="ytick"><text text-anchor="end" x="286" y="4.199999999999999" transform="translate(0,897.34)" style="font-family: 'Open Sans', verdana, arial, sans-serif; font-size: 12px; fill: rgb(42, 63, 95); fill-opacity: 1; white-space: pre; opacity: 1;">Glycerolipid metabolism</text></g><g class="ytick"><text text-anchor="end" x="286" y="4.199999999999999" transform="translate(0,863.61)" style="font-family: 'Open Sans', verdana, arial, sans-serif; font-size: 12px; fill: rgb(42, 63, 95); fill-opacity: 1; white-space: pre; opacity: 1;">Glycolysis/Gluconeogenesis</text></g><g class="ytick"><text text-anchor="end" x="286" y="4.199999999999999" transform="translate(0,829.87)" style="font-family: 'Open Sans', verdana, arial, sans-serif; font-size: 12px; fill: rgb(42, 63, 95); fill-opacity: 1; white-space: pre; opacity: 1;">Glyoxylate and dicarboxylate metabolism</text></g><g class="ytick"><text text-anchor="end" x="286" y="4.199999999999999" transform="translate(0,796.14)" style="font-family: 'Open Sans', verdana, arial, sans-serif; font-size: 12px; fill: rgb(42, 63, 95); fill-opacity: 1; white-space: pre; opacity: 1;">Histidine metabolism</text></g><g class="ytick"><text text-anchor="end" x="286" y="4.199999999999999" transform="translate(0,762.41)" style="font-family: 'Open Sans', verdana, arial, sans-serif; font-size: 12px; fill: rgb(42, 63, 95); fill-opacity: 1; white-space: pre; opacity: 1;">Inositol phosphate metabolism</text></g><g class="ytick"><text text-anchor="end" x="286" y="4.199999999999999" transform="translate(0,728.68)" style="font-family: 'Open Sans', verdana, arial, sans-serif; font-size: 12px; fill: rgb(42, 63, 95); fill-opacity: 1; white-space: pre; opacity: 1;">Nitrogen metabolism</text></g><g class="ytick"><text text-anchor="end" x="286" y="4.199999999999999" transform="translate(0,694.95)" style="font-family: 'Open Sans', verdana, arial, sans-serif; font-size: 12px; fill: rgb(42, 63, 95); fill-opacity: 1; white-space: pre; opacity: 1;">Nucleotide sugars metabolism</text></g><g class="ytick"><text text-anchor="end" x="286" y="4.199999999999999" transform="translate(0,661.21)" style="font-family: 'Open Sans', verdana, arial, sans-serif; font-size: 12px; fill: rgb(42, 63, 95); fill-opacity: 1; white-space: pre; opacity: 1;">Oxidative phosphorylation</text></g><g class="ytick"><text text-anchor="end" x="286" y="4.199999999999999" transform="translate(0,627.48)" style="font-family: 'Open Sans', verdana, arial, sans-serif; font-size: 12px; fill: rgb(42, 63, 95); fill-opacity: 1; white-space: pre; opacity: 1;">Pantothenate and CoA biosynthesis</text></g><g class="ytick"><text text-anchor="end" x="286" y="4.199999999999999" transform="translate(0,593.75)" style="font-family: 'Open Sans', verdana, arial, sans-serif; font-size: 12px; fill: rgb(42, 63, 95); fill-opacity: 1; white-space: pre; opacity: 1;">Pentose phosphate pathway</text></g><g class="ytick"><text text-anchor="end" x="286" y="4.199999999999999" transform="translate(0,560.02)" style="font-family: 'Open Sans', verdana, arial, sans-serif; font-size: 12px; fill: rgb(42, 63, 95); fill-opacity: 1; white-space: pre; opacity: 1;">Peptidoglycan biosynthesis</text></g><g class="ytick"><text text-anchor="end" x="286" y="4.199999999999999" transform="translate(0,526.28)" style="font-family: 'Open Sans', verdana, arial, sans-serif; font-size: 12px; fill: rgb(42, 63, 95); fill-opacity: 1; white-space: pre; opacity: 1;">Phenylalanine tyrosine and tryptophan biosynthesis</text></g><g class="ytick"><text text-anchor="end" x="286" y="4.199999999999999" transform="translate(0,492.55)" style="font-family: 'Open Sans', verdana, arial, sans-serif; font-size: 12px; fill: rgb(42, 63, 95); fill-opacity: 1; white-space: pre; opacity: 1;">Photosynthesis</text></g><g class="ytick"><text text-anchor="end" x="286" y="4.199999999999999" transform="translate(0,458.82)" style="font-family: 'Open Sans', verdana, arial, sans-serif; font-size: 12px; fill: rgb(42, 63, 95); fill-opacity: 1; white-space: pre; opacity: 1;">Porphyrin and chlorophyll metabolism</text></g><g class="ytick"><text text-anchor="end" x="286" y="4.199999999999999" transform="translate(0,425.09)" style="font-family: 'Open Sans', verdana, arial, sans-serif; font-size: 12px; fill: rgb(42, 63, 95); fill-opacity: 1; white-space: pre; opacity: 1;">Purine metabolism</text></g><g class="ytick"><text text-anchor="end" x="286" y="4.199999999999999" transform="translate(0,391.36)" style="font-family: 'Open Sans', verdana, arial, sans-serif; font-size: 12px; fill: rgb(42, 63, 95); fill-opacity: 1; white-space: pre; opacity: 1;">Pyrimidine metabolism</text></g><g class="ytick"><text text-anchor="end" x="286" y="4.199999999999999" transform="translate(0,357.62)" style="font-family: 'Open Sans', verdana, arial, sans-serif; font-size: 12px; fill: rgb(42, 63, 95); fill-opacity: 1; white-space: pre; opacity: 1;">Pyruvate metabolism</text></g><g class="ytick"><text text-anchor="end" x="286" y="4.199999999999999" transform="translate(0,323.89)" style="font-family: 'Open Sans', verdana, arial, sans-serif; font-size: 12px; fill: rgb(42, 63, 95); fill-opacity: 1; white-space: pre; opacity: 1;">Starch and sucrose metabolism</text></g><g class="ytick"><text text-anchor="end" x="286" y="4.199999999999999" transform="translate(0,290.15999999999997)" style="font-family: 'Open Sans', verdana, arial, sans-serif; font-size: 12px; fill: rgb(42, 63, 95); fill-opacity: 1; white-space: pre; opacity: 1;">Sulfur Cysteine and methionine metabolism</text></g><g class="ytick"><text text-anchor="end" x="286" y="4.199999999999999" transform="translate(0,256.43)" style="font-family: 'Open Sans', verdana, arial, sans-serif; font-size: 12px; fill: rgb(42, 63, 95); fill-opacity: 1; white-space: pre; opacity: 1;">Thiamine metabolism</text></g><g class="ytick"><text text-anchor="end" x="286" y="4.199999999999999" transform="translate(0,222.69)" style="font-family: 'Open Sans', verdana, arial, sans-serif; font-size: 12px; fill: rgb(42, 63, 95); fill-opacity: 1; white-space: pre; opacity: 1;">Transport</text></g><g class="ytick"><text text-anchor="end" x="286" y="4.199999999999999" transform="translate(0,188.95999999999998)" style="font-family: 'Open Sans', verdana, arial, sans-serif; font-size: 12px; fill: rgb(42, 63, 95); fill-opacity: 1; white-space: pre; opacity: 1;">Ubiquinone and other pterpenoids biosynthesis</text></g><g class="ytick"><text text-anchor="end" x="286" y="4.199999999999999" transform="translate(0,155.23)" style="font-family: 'Open Sans', verdana, arial, sans-serif; font-size: 12px; fill: rgb(42, 63, 95); fill-opacity: 1; white-space: pre; opacity: 1;">Valine leucine and isoleucine biosynthesis</text></g></g><g class="overaxes-above"/></g></g><g class="polarlayer"/><g class="smithlayer"/><g class="ternarylayer"/><g class="geolayer"/><g class="funnelarealayer"/><g class="pielayer"/><g class="iciclelayer"/><g class="treemaplayer"/><g class="sunburstlayer"/><g class="glimages"/><defs id="topdefs-99a0bc"><g class="clips"/></defs><g class="layer-above"><g class="imagelayer"/><g class="shapelayer"/></g><g class="infolayer"><g class="g-gtitle"><text class="gtitle" x="330" y="60" text-anchor="middle" dy="0.7em" style="font-family: 'Open Sans', verdana, arial, sans-serif; font-size: 16px; fill: rgb(42, 63, 95); opacity: 1; font-weight: normal; white-space: pre;">Percentage of Subsystem functions in BARs &amp; NBRs</text></g><g class="g-xtitle"/><g class="g-ytitle"/></g></svg>