<svg class="main-svg" xmlns="http://www.w3.org/2000/svg" xmlns:xlink="http://www.w3.org/1999/xlink" width="600" height="1200" style="" viewBox="0 0 600 1200"><rect x="0" y="0" width="600" height="1200" style="fill: rgb(255, 255, 255); fill-opacity: 1;"/><defs id="defs-d5c0fa"><g class="clips"><clipPath id="clipd5c0faxyplot" class="plotclip"><rect width="233" height="1020"/></clipPath><clipPath class="axesclip" id="clipd5c0fax"><rect x="287" y="0" width="233" height="1200"/></clipPath><clipPath class="axesclip" id="clipd5c0fay"><rect x="0" y="100" width="600" height="1020"/></clipPath><clipPath class="axesclip" id="clipd5c0faxy"><rect x="287" y="100" width="233" height="1020"/></clipPath></g><g class="gradients"/><g class="patterns"/></defs><g class="bglayer"><rect class="bg" x="287" y="100" width="233" height="1020" style="fill: rgb(229, 236, 246); fill-opacity: 1; stroke-width: 0;"/></g><g class="layer-below"><g class="imagelayer"/><g class="shapelayer"/></g><g class="cartesianlayer"><g class="subplot xy"><g class="layer-subplot"><g class="shapelayer"/><g class="imagelayer"/></g><g class="minor-gridlayer"><g class="x"/><g class="y"/></g><g class="gridlayer"><g class="x"><path class="xgrid crisp" transform="translate(316.61,0)" d="M0,100v1020" style="stroke: rgb(255, 255, 255); stroke-opacity: 1; stroke-width: 1px;"/><path class="xgrid crisp" transform="translate(496.51,0)" d="M0,100v1020" style="stroke: rgb(255, 255, 255); stroke-opacity: 1; stroke-width: 1px;"/></g><g class="y"><path class="ygrid crisp" transform="translate(0,1059.53)" d="M287,0h233" style="stroke: rgb(255, 255, 255); stroke-opacity: 1; stroke-width: 1px;"/><path class="ygrid crisp" transform="translate(0,1025.99)" d="M287,0h233" style="stroke: rgb(255, 255, 255); stroke-opacity: 1; stroke-width: 1px;"/><path class="ygrid crisp" transform="translate(0,992.45)" d="M287,0h233" style="stroke: rgb(255, 255, 255); stroke-opacity: 1; stroke-width: 1px;"/><path class="ygrid crisp" transform="translate(0,958.91)" d="M287,0h233" style="stroke: rgb(255, 255, 255); stroke-opacity: 1; stroke-width: 1px;"/><path class="ygrid crisp" transform="translate(0,925.37)" d="M287,0h233" style="stroke: rgb(255, 255, 255); stroke-opacity: 1; stroke-width: 1px;"/><path class="ygrid crisp" transform="translate(0,891.84)" d="M287,0h233" style="stroke: rgb(255, 255, 255); stroke-opacity: 1; stroke-width: 1px;"/><path class="ygrid crisp" transform="translate(0,858.3)" d="M287,0h233" style="stroke: rgb(255, 255, 255); stroke-opacity: 1; stroke-width: 1px;"/><path class="ygrid crisp" transform="translate(0,824.76)" d="M287,0h233" style="stroke: rgb(255, 255, 255); stroke-opacity: 1; stroke-width: 1px;"/><path class="ygrid crisp" transform="translate(0,791.22)" d="M287,0h233" style="stroke: rgb(255, 255, 255); stroke-opacity: 1; stroke-width: 1px;"/><path class="ygrid crisp" transform="translate(0,757.68)" d="M287,0h233" style="stroke: rgb(255, 255, 255); stroke-opacity: 1; stroke-width: 1px;"/><path class="ygrid crisp" transform="translate(0,724.15)" d="M287,0h233" style="stroke: rgb(255, 255, 255); stroke-opacity: 1; stroke-width: 1px;"/><path class="ygrid crisp" transform="translate(0,690.61)" d="M287,0h233" style="stroke: rgb(255, 255, 255); stroke-opacity: 1; stroke-width: 1px;"/><path class="ygrid crisp" transform="translate(0,657.07)" d="M287,0h233" style="stroke: rgb(255, 255, 255); stroke-opacity: 1; stroke-width: 1px;"/><path class="ygrid crisp" transform="translate(0,623.53)" d="M287,0h233" style="stroke: rgb(255, 255, 255); stroke-opacity: 1; stroke-width: 1px;"/><path class="ygrid crisp" transform="translate(0,589.99)" d="M287,0h233" style="stroke: rgb(255, 255, 255); stroke-opacity: 1; stroke-width: 1px;"/><path class="ygrid crisp" transform="translate(0,556.46)" d="M287,0h233" style="stroke: rgb(255, 255, 255); stroke-opacity: 1; stroke-width: 1px;"/><path class="ygrid crisp" transform="translate(0,522.9200000000001)" d="M287,0h233" style="stroke: rgb(255, 255, 255); stroke-opacity: 1; stroke-width: 1px;"/><path class="ygrid crisp" transform="translate(0,489.38)" d="M287,0h233" style="stroke: rgb(255, 255, 255); stroke-opacity: 1; stroke-width: 1px;"/><path class="ygrid crisp" transform="translate(0,455.84)" d="M287,0h233" style="stroke: rgb(255, 255, 255); stroke-opacity: 1; stroke-width: 1px;"/><path class="ygrid crisp" transform="translate(0,422.3)" d="M287,0h233" style="stroke: rgb(255, 255, 255); stroke-opacity: 1; stroke-width: 1px;"/><path class="ygrid crisp" transform="translate(0,388.77)" d="M287,0h233" style="stroke: rgb(255, 255, 255); stroke-opacity: 1; stroke-width: 1px;"/><path class="ygrid crisp" transform="translate(0,355.23)" d="M287,0h233" style="stroke: rgb(255, 255, 255); stroke-opacity: 1; stroke-width: 1px;"/><path class="ygrid crisp" transform="translate(0,321.69)" d="M287,0h233" style="stroke: rgb(255, 255, 255); stroke-opacity: 1; stroke-width: 1px;"/><path class="ygrid crisp" transform="translate(0,288.15)" d="M287,0h233" style="stroke: rgb(255, 255, 255); stroke-opacity: 1; stroke-width: 1px;"/><path class="ygrid crisp" transform="translate(0,254.61)" d="M287,0h233" style="stroke: rgb(255, 255, 255); stroke-opacity: 1; stroke-width: 1px;"/><path class="ygrid crisp" transform="translate(0,221.07999999999998)" d="M287,0h233" style="stroke: rgb(255, 255, 255); stroke-opacity: 1; stroke-width: 1px;"/><path class="ygrid crisp" transform="translate(0,187.54000000000002)" d="M287,0h233" style="stroke: rgb(255, 255, 255); stroke-opacity: 1; stroke-width: 1px;"/><path class="ygrid crisp" transform="translate(0,154)" d="M287,0h233" style="stroke: rgb(255, 255, 255); stroke-opacity: 1; stroke-width: 1px;"/></g></g><g class="zerolinelayer"/><path class="xlines-below"/><path class="ylines-below"/><g class="overlines-below"/><g class="xaxislayer-below"/><g class="yaxislayer-below"/><g class="overaxes-below"/><g class="plot" transform="translate(287,100)" clip-path="url(#clipd5c0faxyplot)"><g class="scatterlayer mlayer"><g class="trace scatter traced43074" style="stroke-miterlimit: 2; opacity: 1;"><g class="fills"/><g class="errorbars"/><g class="lines"/><g class="points"><path class="point" transform="translate(29.61,959.53)" d="M2.97,0A2.97,2.97 0 1,1 0,-2.97A2.97,2.97 0 0,1 2.97,0Z" style="opacity: 0.7; stroke-width: 2px; fill: rgb(31, 119, 180); fill-opacity: 1; stroke: rgb(255, 255, 255); stroke-opacity: 1;"/><path class="point" transform="translate(29.61,925.99)" d="M1.16,0A1.16,1.16 0 1,1 0,-1.16A1.16,1.16 0 0,1 1.16,0Z" style="opacity: 0.7; stroke-width: 2px; fill: rgb(31, 119, 180); fill-opacity: 1; stroke: rgb(255, 255, 255); stroke-opacity: 1;"/><path class="point" transform="translate(29.61,892.45)" d="M2.81,0A2.81,2.81 0 1,1 0,-2.81A2.81,2.81 0 0,1 2.81,0Z" style="opacity: 0.7; stroke-width: 2px; fill: rgb(31, 119, 180); fill-opacity: 1; stroke: rgb(255, 255, 255); stroke-opacity: 1;"/><path class="point" transform="translate(29.61,858.91)" d="M1.98,0A1.98,1.98 0 1,1 0,-1.98A1.98,1.98 0 0,1 1.98,0Z" style="opacity: 0.7; stroke-width: 2px; fill: rgb(31, 119, 180); fill-opacity: 1; stroke: rgb(255, 255, 255); stroke-opacity: 1;"/><path class="point" transform="translate(29.61,825.37)" d="M0.33,0A0.33,0.33 0 1,1 0,-0.33A0.33,0.33 0 0,1 0.33,0Z" style="opacity: 0.7; stroke-width: 2px; fill: rgb(31, 119, 180); fill-opacity: 1; stroke: rgb(255, 255, 255); stroke-opacity: 1;"/><path class="point" transform="translate(29.61,791.84)" d="M0,0A0,0 0 1,1 0,-0A0,0 0 0,1 0,0Z" style="opacity: 0.7; stroke-width: 2px; fill: rgb(31, 119, 180); fill-opacity: 1; stroke: rgb(255, 255, 255); stroke-opacity: 1;"/><path class="point" transform="translate(29.61,758.3)" d="M0.33,0A0.33,0.33 0 1,1 0,-0.33A0.33,0.33 0 0,1 0.33,0Z" style="opacity: 0.7; stroke-width: 2px; fill: rgb(31, 119, 180); fill-opacity: 1; stroke: rgb(255, 255, 255); stroke-opacity: 1;"/><path class="point" transform="translate(29.61,724.76)" d="M3.8,0A3.8,3.8 0 1,1 0,-3.8A3.8,3.8 0 0,1 3.8,0Z" style="opacity: 0.7; stroke-width: 2px; fill: rgb(31, 119, 180); fill-opacity: 1; stroke: rgb(255, 255, 255); stroke-opacity: 1;"/><path class="point" transform="translate(29.61,691.22)" d="M1.98,0A1.98,1.98 0 1,1 0,-1.98A1.98,1.98 0 0,1 1.98,0Z" style="opacity: 0.7; stroke-width: 2px; fill: rgb(31, 119, 180); fill-opacity: 1; stroke: rgb(255, 255, 255); stroke-opacity: 1;"/><path class="point" transform="translate(29.61,657.68)" d="M1.98,0A1.98,1.98 0 1,1 0,-1.98A1.98,1.98 0 0,1 1.98,0Z" style="opacity: 0.7; stroke-width: 2px; fill: rgb(31, 119, 180); fill-opacity: 1; stroke: rgb(255, 255, 255); stroke-opacity: 1;"/><path class="point" transform="translate(29.61,624.15)" d="M0.17,0A0.17,0.17 0 1,1 0,-0.17A0.17,0.17 0 0,1 0.17,0Z" style="opacity: 0.7; stroke-width: 2px; fill: rgb(31, 119, 180); fill-opacity: 1; stroke: rgb(255, 255, 255); stroke-opacity: 1;"/><path class="point" transform="translate(29.61,590.61)" d="M0.83,0A0.83,0.83 0 1,1 0,-0.83A0.83,0.83 0 0,1 0.83,0Z" style="opacity: 0.7; stroke-width: 2px; fill: rgb(31, 119, 180); fill-opacity: 1; stroke: rgb(255, 255, 255); stroke-opacity: 1;"/><path class="point" transform="translate(29.61,557.07)" d="M2.15,0A2.15,2.15 0 1,1 0,-2.15A2.15,2.15 0 0,1 2.15,0Z" style="opacity: 0.7; stroke-width: 2px; fill: rgb(31, 119, 180); fill-opacity: 1; stroke: rgb(255, 255, 255); stroke-opacity: 1;"/><path class="point" transform="translate(29.61,523.53)" d="M0,0A0,0 0 1,1 0,-0A0,0 0 0,1 0,0Z" style="opacity: 0.7; stroke-width: 2px; fill: rgb(31, 119, 180); fill-opacity: 1; stroke: rgb(255, 255, 255); stroke-opacity: 1;"/><path class="point" transform="translate(29.61,489.99)" d="M9.25,0A9.25,9.25 0 1,1 0,-9.25A9.25,9.25 0 0,1 9.25,0Z" style="opacity: 0.7; stroke-width: 2px; fill: rgb(31, 119, 180); fill-opacity: 1; stroke: rgb(255, 255, 255); stroke-opacity: 1;"/><path class="point" transform="translate(29.61,456.46)" d="M0,0A0,0 0 1,1 0,-0A0,0 0 0,1 0,0Z" style="opacity: 0.7; stroke-width: 2px; fill: rgb(31, 119, 180); fill-opacity: 1; stroke: rgb(255, 255, 255); stroke-opacity: 1;"/><path class="point" transform="translate(29.61,422.92)" d="M1.16,0A1.16,1.16 0 1,1 0,-1.16A1.16,1.16 0 0,1 1.16,0Z" style="opacity: 0.7; stroke-width: 2px; fill: rgb(31, 119, 180); fill-opacity: 1; stroke: rgb(255, 255, 255); stroke-opacity: 1;"/><path class="point" transform="translate(29.61,389.38)" d="M3.8,0A3.8,3.8 0 1,1 0,-3.8A3.8,3.8 0 0,1 3.8,0Z" style="opacity: 0.7; stroke-width: 2px; fill: rgb(31, 119, 180); fill-opacity: 1; stroke: rgb(255, 255, 255); stroke-opacity: 1;"/><path class="point" transform="translate(29.61,355.84)" d="M12.55,0A12.55,12.55 0 1,1 0,-12.55A12.55,12.55 0 0,1 12.55,0Z" style="opacity: 0.7; stroke-width: 2px; fill: rgb(31, 119, 180); fill-opacity: 1; stroke: rgb(255, 255, 255); stroke-opacity: 1;"/><path class="point" transform="translate(29.61,322.3)" d="M6.94,0A6.94,6.94 0 1,1 0,-6.94A6.94,6.94 0 0,1 6.94,0Z" style="opacity: 0.7; stroke-width: 2px; fill: rgb(31, 119, 180); fill-opacity: 1; stroke: rgb(255, 255, 255); stroke-opacity: 1;"/><path class="point" transform="translate(29.61,288.77)" d="M4.95,0A4.95,4.95 0 1,1 0,-4.95A4.95,4.95 0 0,1 4.95,0Z" style="opacity: 0.7; stroke-width: 2px; fill: rgb(31, 119, 180); fill-opacity: 1; stroke: rgb(255, 255, 255); stroke-opacity: 1;"/><path class="point" transform="translate(29.61,255.23)" d="M3.14,0A3.14,3.14 0 1,1 0,-3.14A3.14,3.14 0 0,1 3.14,0Z" style="opacity: 0.7; stroke-width: 2px; fill: rgb(31, 119, 180); fill-opacity: 1; stroke: rgb(255, 255, 255); stroke-opacity: 1;"/><path class="point" transform="translate(29.61,221.69)" d="M2.64,0A2.64,2.64 0 1,1 0,-2.64A2.64,2.64 0 0,1 2.64,0Z" style="opacity: 0.7; stroke-width: 2px; fill: rgb(31, 119, 180); fill-opacity: 1; stroke: rgb(255, 255, 255); stroke-opacity: 1;"/><path class="point" transform="translate(29.61,188.15)" d="M0.99,0A0.99,0.99 0 1,1 0,-0.99A0.99,0.99 0 0,1 0.99,0Z" style="opacity: 0.7; stroke-width: 2px; fill: rgb(31, 119, 180); fill-opacity: 1; stroke: rgb(255, 255, 255); stroke-opacity: 1;"/><path class="point" transform="translate(29.61,154.61)" d="M2.31,0A2.31,2.31 0 1,1 0,-2.31A2.31,2.31 0 0,1 2.31,0Z" style="opacity: 0.7; stroke-width: 2px; fill: rgb(31, 119, 180); fill-opacity: 1; stroke: rgb(255, 255, 255); stroke-opacity: 1;"/><path class="point" transform="translate(29.61,121.08)" d="M0,0A0,0 0 1,1 0,-0A0,0 0 0,1 0,0Z" style="opacity: 0.7; stroke-width: 2px; fill: rgb(31, 119, 180); fill-opacity: 1; stroke: rgb(255, 255, 255); stroke-opacity: 1;"/><path class="point" transform="translate(29.61,87.54)" d="M14.37,0A14.37,14.37 0 1,1 0,-14.37A14.37,14.37 0 0,1 14.37,0Z" style="opacity: 0.7; stroke-width: 2px; fill: rgb(31, 119, 180); fill-opacity: 1; stroke: rgb(255, 255, 255); stroke-opacity: 1;"/><path class="point" transform="translate(29.61,54)" d="M1.49,0A1.49,1.49 0 1,1 0,-1.49A1.49,1.49 0 0,1 1.49,0Z" style="opacity: 0.7; stroke-width: 2px; fill: rgb(31, 119, 180); fill-opacity: 1; stroke: rgb(255, 255, 255); stroke-opacity: 1;"/></g><g class="text"/></g><g class="trace scatter trace72ec8e" style="stroke-miterlimit: 2; opacity: 1;"><g class="fills"/><g class="errorbars"/><g class="lines"/><g class="points"><path class="point" transform="translate(209.51,959.53)" d="M7.58,0A7.58,7.58 0 1,1 0,-7.58A7.58,7.58 0 0,1 7.58,0Z" style="opacity: 0.7; stroke-width: 2px; fill: rgb(255, 127, 14); fill-opacity: 1; stroke: rgb(255, 255, 255); stroke-opacity: 1;"/><path class="point" transform="translate(209.51,925.99)" d="M1.89,0A1.89,1.89 0 1,1 0,-1.89A1.89,1.89 0 0,1 1.89,0Z" style="opacity: 0.7; stroke-width: 2px; fill: rgb(255, 127, 14); fill-opacity: 1; stroke: rgb(255, 255, 255); stroke-opacity: 1;"/><path class="point" transform="translate(209.51,892.45)" d="M2.84,0A2.84,2.84 0 1,1 0,-2.84A2.84,2.84 0 0,1 2.84,0Z" style="opacity: 0.7; stroke-width: 2px; fill: rgb(255, 127, 14); fill-opacity: 1; stroke: rgb(255, 255, 255); stroke-opacity: 1;"/><path class="point" transform="translate(209.51,858.91)" d="M1.89,0A1.89,1.89 0 1,1 0,-1.89A1.89,1.89 0 0,1 1.89,0Z" style="opacity: 0.7; stroke-width: 2px; fill: rgb(255, 127, 14); fill-opacity: 1; stroke: rgb(255, 255, 255); stroke-opacity: 1;"/><path class="point" transform="translate(209.51,825.37)" d="M8.53,0A8.53,8.53 0 1,1 0,-8.53A8.53,8.53 0 0,1 8.53,0Z" style="opacity: 0.7; stroke-width: 2px; fill: rgb(255, 127, 14); fill-opacity: 1; stroke: rgb(255, 255, 255); stroke-opacity: 1;"/><path class="point" transform="translate(209.51,791.84)" d="M1.89,0A1.89,1.89 0 1,1 0,-1.89A1.89,1.89 0 0,1 1.89,0Z" style="opacity: 0.7; stroke-width: 2px; fill: rgb(255, 127, 14); fill-opacity: 1; stroke: rgb(255, 255, 255); stroke-opacity: 1;"/><path class="point" transform="translate(209.51,758.3)" d="M1.89,0A1.89,1.89 0 1,1 0,-1.89A1.89,1.89 0 0,1 1.89,0Z" style="opacity: 0.7; stroke-width: 2px; fill: rgb(255, 127, 14); fill-opacity: 1; stroke: rgb(255, 255, 255); stroke-opacity: 1;"/><path class="point" transform="translate(209.51,724.76)" d="M5.68,0A5.68,5.68 0 1,1 0,-5.68A5.68,5.68 0 0,1 5.68,0Z" style="opacity: 0.7; stroke-width: 2px; fill: rgb(255, 127, 14); fill-opacity: 1; stroke: rgb(255, 255, 255); stroke-opacity: 1;"/><path class="point" transform="translate(209.51,691.22)" d="M3.79,0A3.79,3.79 0 1,1 0,-3.79A3.79,3.79 0 0,1 3.79,0Z" style="opacity: 0.7; stroke-width: 2px; fill: rgb(255, 127, 14); fill-opacity: 1; stroke: rgb(255, 255, 255); stroke-opacity: 1;"/><path class="point" transform="translate(209.51,657.68)" d="M1.89,0A1.89,1.89 0 1,1 0,-1.89A1.89,1.89 0 0,1 1.89,0Z" style="opacity: 0.7; stroke-width: 2px; fill: rgb(255, 127, 14); fill-opacity: 1; stroke: rgb(255, 255, 255); stroke-opacity: 1;"/><path class="point" transform="translate(209.51,624.15)" d="M4.74,0A4.74,4.74 0 1,1 0,-4.74A4.74,4.74 0 0,1 4.74,0Z" style="opacity: 0.7; stroke-width: 2px; fill: rgb(255, 127, 14); fill-opacity: 1; stroke: rgb(255, 255, 255); stroke-opacity: 1;"/><path class="point" transform="translate(209.51,590.61)" d="M1.89,0A1.89,1.89 0 1,1 0,-1.89A1.89,1.89 0 0,1 1.89,0Z" style="opacity: 0.7; stroke-width: 2px; fill: rgb(255, 127, 14); fill-opacity: 1; stroke: rgb(255, 255, 255); stroke-opacity: 1;"/><path class="point" transform="translate(209.51,557.07)" d="M0,0A0,0 0 1,1 0,-0A0,0 0 0,1 0,0Z" style="opacity: 0.7; stroke-width: 2px; fill: rgb(255, 127, 14); fill-opacity: 1; stroke: rgb(255, 255, 255); stroke-opacity: 1;"/><path class="point" transform="translate(209.51,523.53)" d="M2.84,0A2.84,2.84 0 1,1 0,-2.84A2.84,2.84 0 0,1 2.84,0Z" style="opacity: 0.7; stroke-width: 2px; fill: rgb(255, 127, 14); fill-opacity: 1; stroke: rgb(255, 255, 255); stroke-opacity: 1;"/><path class="point" transform="translate(209.51,489.99)" d="M3.79,0A3.79,3.79 0 1,1 0,-3.79A3.79,3.79 0 0,1 3.79,0Z" style="opacity: 0.7; stroke-width: 2px; fill: rgb(255, 127, 14); fill-opacity: 1; stroke: rgb(255, 255, 255); stroke-opacity: 1;"/><path class="point" transform="translate(209.51,456.46)" d="M1.89,0A1.89,1.89 0 1,1 0,-1.89A1.89,1.89 0 0,1 1.89,0Z" style="opacity: 0.7; stroke-width: 2px; fill: rgb(255, 127, 14); fill-opacity: 1; stroke: rgb(255, 255, 255); stroke-opacity: 1;"/><path class="point" transform="translate(209.51,422.92)" d="M1.89,0A1.89,1.89 0 1,1 0,-1.89A1.89,1.89 0 0,1 1.89,0Z" style="opacity: 0.7; stroke-width: 2px; fill: rgb(255, 127, 14); fill-opacity: 1; stroke: rgb(255, 255, 255); stroke-opacity: 1;"/><path class="point" transform="translate(209.51,389.38)" d="M7.58,0A7.58,7.58 0 1,1 0,-7.58A7.58,7.58 0 0,1 7.58,0Z" style="opacity: 0.7; stroke-width: 2px; fill: rgb(255, 127, 14); fill-opacity: 1; stroke: rgb(255, 255, 255); stroke-opacity: 1;"/><path class="point" transform="translate(209.51,355.84)" d="M0,0A0,0 0 1,1 0,-0A0,0 0 0,1 0,0Z" style="opacity: 0.7; stroke-width: 2px; fill: rgb(255, 127, 14); fill-opacity: 1; stroke: rgb(255, 255, 255); stroke-opacity: 1;"/><path class="point" transform="translate(209.51,322.3)" d="M6.63,0A6.63,6.63 0 1,1 0,-6.63A6.63,6.63 0 0,1 6.63,0Z" style="opacity: 0.7; stroke-width: 2px; fill: rgb(255, 127, 14); fill-opacity: 1; stroke: rgb(255, 255, 255); stroke-opacity: 1;"/><path class="point" transform="translate(209.51,288.77)" d="M9.47,0A9.47,9.47 0 1,1 0,-9.47A9.47,9.47 0 0,1 9.47,0Z" style="opacity: 0.7; stroke-width: 2px; fill: rgb(255, 127, 14); fill-opacity: 1; stroke: rgb(255, 255, 255); stroke-opacity: 1;"/><path class="point" transform="translate(209.51,255.23)" d="M1.89,0A1.89,1.89 0 1,1 0,-1.89A1.89,1.89 0 0,1 1.89,0Z" style="opacity: 0.7; stroke-width: 2px; fill: rgb(255, 127, 14); fill-opacity: 1; stroke: rgb(255, 255, 255); stroke-opacity: 1;"/><path class="point" transform="translate(209.51,221.69)" d="M4.74,0A4.74,4.74 0 1,1 0,-4.74A4.74,4.74 0 0,1 4.74,0Z" style="opacity: 0.7; stroke-width: 2px; fill: rgb(255, 127, 14); fill-opacity: 1; stroke: rgb(255, 255, 255); stroke-opacity: 1;"/><path class="point" transform="translate(209.51,188.15)" d="M4.74,0A4.74,4.74 0 1,1 0,-4.74A4.74,4.74 0 0,1 4.74,0Z" style="opacity: 0.7; stroke-width: 2px; fill: rgb(255, 127, 14); fill-opacity: 1; stroke: rgb(255, 255, 255); stroke-opacity: 1;"/><path class="point" transform="translate(209.51,154.61)" d="M2.84,0A2.84,2.84 0 1,1 0,-2.84A2.84,2.84 0 0,1 2.84,0Z" style="opacity: 0.7; stroke-width: 2px; fill: rgb(255, 127, 14); fill-opacity: 1; stroke: rgb(255, 255, 255); stroke-opacity: 1;"/><path class="point" transform="translate(209.51,121.08)" d="M1.89,0A1.89,1.89 0 1,1 0,-1.89A1.89,1.89 0 0,1 1.89,0Z" style="opacity: 0.7; stroke-width: 2px; fill: rgb(255, 127, 14); fill-opacity: 1; stroke: rgb(255, 255, 255); stroke-opacity: 1;"/><path class="point" transform="translate(209.51,87.54)" d="M5.68,0A5.68,5.68 0 1,1 0,-5.68A5.68,5.68 0 0,1 5.68,0Z" style="opacity: 0.7; stroke-width: 2px; fill: rgb(255, 127, 14); fill-opacity: 1; stroke: rgb(255, 255, 255); stroke-opacity: 1;"/><path class="point" transform="translate(209.51,54)" d="M1.89,0A1.89,1.89 0 1,1 0,-1.89A1.89,1.89 0 0,1 1.89,0Z" style="opacity: 0.7; stroke-width: 2px; fill: rgb(255, 127, 14); fill-opacity: 1; stroke: rgb(255, 255, 255); stroke-opacity: 1;"/></g><g class="text"/></g></g></g><g class="overplot"/><path class="xlines-above crisp" d="M0,0" style="fill: none;"/><path class="ylines-above crisp" d="M0,0" style="fill: none;"/><g class="overlines-above"/><g class="xaxislayer-above"><g class="xtick"><text text-anchor="middle" x="0" y="1133" transform="translate(316.61,0)" style="font-family: 'Open Sans', verdana, arial, sans-serif; font-size: 12px; fill: rgb(42, 63, 95); fill-opacity: 1; white-space: pre; opacity: 1;">BAR_Set_percentage</text></g><g class="xtick"><text text-anchor="middle" x="0" y="1133" transform="translate(496.51,0)" style="font-family: 'Open Sans', verdana, arial, sans-serif; font-size: 12px; fill: rgb(42, 63, 95); fill-opacity: 1; white-space: pre; opacity: 1;">NBR_Set_percentage</text></g></g><g class="yaxislayer-above"><g class="ytick"><text text-anchor="end" x="286" y="4.199999999999999" transform="translate(0,1059.53)" style="font-family: 'Open Sans', verdana, arial, sans-serif; font-size: 12px; fill: rgb(42, 63, 95); fill-opacity: 1; white-space: pre; opacity: 1;">Arginine and proline metabolism</text></g><g class="ytick"><text text-anchor="end" x="286" y="4.199999999999999" transform="translate(0,1025.99)" style="font-family: 'Open Sans', verdana, arial, sans-serif; font-size: 12px; fill: rgb(42, 63, 95); fill-opacity: 1; white-space: pre; opacity: 1;">Carbon fixation</text></g><g class="ytick"><text text-anchor="end" x="286" y="4.199999999999999" transform="translate(0,992.45)" style="font-family: 'Open Sans', verdana, arial, sans-serif; font-size: 12px; fill: rgb(42, 63, 95); fill-opacity: 1; white-space: pre; opacity: 1;">Fatty acid biosynthesis</text></g><g class="ytick"><text text-anchor="end" x="286" y="4.199999999999999" transform="translate(0,958.91)" style="font-family: 'Open Sans', verdana, arial, sans-serif; font-size: 12px; fill: rgb(42, 63, 95); fill-opacity: 1; white-space: pre; opacity: 1;">Folate biosynthesis</text></g><g class="ytick"><text text-anchor="end" x="286" y="4.199999999999999" transform="translate(0,925.37)" style="font-family: 'Open Sans', verdana, arial, sans-serif; font-size: 12px; fill: rgb(42, 63, 95); fill-opacity: 1; white-space: pre; opacity: 1;">Fructose and mannose metabolism</text></g><g class="ytick"><text text-anchor="end" x="286" y="4.199999999999999" transform="translate(0,891.84)" style="font-family: 'Open Sans', verdana, arial, sans-serif; font-size: 12px; fill: rgb(42, 63, 95); fill-opacity: 1; white-space: pre; opacity: 1;">Glutathione metabolism</text></g><g class="ytick"><text text-anchor="end" x="286" y="4.199999999999999" transform="translate(0,858.3)" style="font-family: 'Open Sans', verdana, arial, sans-serif; font-size: 12px; fill: rgb(42, 63, 95); fill-opacity: 1; white-space: pre; opacity: 1;">Glycerolipid metabolism</text></g><g class="ytick"><text text-anchor="end" x="286" y="4.199999999999999" transform="translate(0,824.76)" style="font-family: 'Open Sans', verdana, arial, sans-serif; font-size: 12px; fill: rgb(42, 63, 95); fill-opacity: 1; white-space: pre; opacity: 1;">Glycolysis/Gluconeogenesis</text></g><g class="ytick"><text text-anchor="end" x="286" y="4.199999999999999" transform="translate(0,791.22)" style="font-family: 'Open Sans', verdana, arial, sans-serif; font-size: 12px; fill: rgb(42, 63, 95); fill-opacity: 1; white-space: pre; opacity: 1;">Glyoxylate and dicarboxylate metabolism</text></g><g class="ytick"><text text-anchor="end" x="286" y="4.199999999999999" transform="translate(0,757.68)" style="font-family: 'Open Sans', verdana, arial, sans-serif; font-size: 12px; fill: rgb(42, 63, 95); fill-opacity: 1; white-space: pre; opacity: 1;">Histidine metabolism</text></g><g class="ytick"><text text-anchor="end" x="286" y="4.199999999999999" transform="translate(0,724.15)" style="font-family: 'Open Sans', verdana, arial, sans-serif; font-size: 12px; fill: rgb(42, 63, 95); fill-opacity: 1; white-space: pre; opacity: 1;">Inositol phosphate metabolism</text></g><g class="ytick"><text text-anchor="end" x="286" y="4.199999999999999" transform="translate(0,690.61)" style="font-family: 'Open Sans', verdana, arial, sans-serif; font-size: 12px; fill: rgb(42, 63, 95); fill-opacity: 1; white-space: pre; opacity: 1;">Nicotinate and nicotinamide metabolism</text></g><g class="ytick"><text text-anchor="end" x="286" y="4.199999999999999" transform="translate(0,657.07)" style="font-family: 'Open Sans', verdana, arial, sans-serif; font-size: 12px; fill: rgb(42, 63, 95); fill-opacity: 1; white-space: pre; opacity: 1;">Nitrogen metabolism</text></g><g class="ytick"><text text-anchor="end" x="286" y="4.199999999999999" transform="translate(0,623.53)" style="font-family: 'Open Sans', verdana, arial, sans-serif; font-size: 12px; fill: rgb(42, 63, 95); fill-opacity: 1; white-space: pre; opacity: 1;">Nucleotide sugars metabolism</text></g><g class="ytick"><text text-anchor="end" x="286" y="4.199999999999999" transform="translate(0,589.99)" style="font-family: 'Open Sans', verdana, arial, sans-serif; font-size: 12px; fill: rgb(42, 63, 95); fill-opacity: 1; white-space: pre; opacity: 1;">Oxidative phosphorylation</text></g><g class="ytick"><text text-anchor="end" x="286" y="4.199999999999999" transform="translate(0,556.46)" style="font-family: 'Open Sans', verdana, arial, sans-serif; font-size: 12px; fill: rgb(42, 63, 95); fill-opacity: 1; white-space: pre; opacity: 1;">PHB byosynthesis</text></g><g class="ytick"><text text-anchor="end" x="286" y="4.199999999999999" transform="translate(0,522.9200000000001)" style="font-family: 'Open Sans', verdana, arial, sans-serif; font-size: 12px; fill: rgb(42, 63, 95); fill-opacity: 1; white-space: pre; opacity: 1;">Pentose phosphate pathway</text></g><g class="ytick"><text text-anchor="end" x="286" y="4.199999999999999" transform="translate(0,489.38)" style="font-family: 'Open Sans', verdana, arial, sans-serif; font-size: 12px; fill: rgb(42, 63, 95); fill-opacity: 1; white-space: pre; opacity: 1;">Phenylalanine tyrosine and tryptophan biosynthesis</text></g><g class="ytick"><text text-anchor="end" x="286" y="4.199999999999999" transform="translate(0,455.84)" style="font-family: 'Open Sans', verdana, arial, sans-serif; font-size: 12px; fill: rgb(42, 63, 95); fill-opacity: 1; white-space: pre; opacity: 1;">Photosynthesis</text></g><g class="ytick"><text text-anchor="end" x="286" y="4.199999999999999" transform="translate(0,422.3)" style="font-family: 'Open Sans', verdana, arial, sans-serif; font-size: 12px; fill: rgb(42, 63, 95); fill-opacity: 1; white-space: pre; opacity: 1;">Porphyrin and chlorophyll metabolism</text></g><g class="ytick"><text text-anchor="end" x="286" y="4.199999999999999" transform="translate(0,388.77)" style="font-family: 'Open Sans', verdana, arial, sans-serif; font-size: 12px; fill: rgb(42, 63, 95); fill-opacity: 1; white-space: pre; opacity: 1;">Purine metabolism</text></g><g class="ytick"><text text-anchor="end" x="286" y="4.199999999999999" transform="translate(0,355.23)" style="font-family: 'Open Sans', verdana, arial, sans-serif; font-size: 12px; fill: rgb(42, 63, 95); fill-opacity: 1; white-space: pre; opacity: 1;">Pyrimidine metabolism</text></g><g class="ytick"><text text-anchor="end" x="286" y="4.199999999999999" transform="translate(0,321.69)" style="font-family: 'Open Sans', verdana, arial, sans-serif; font-size: 12px; fill: rgb(42, 63, 95); fill-opacity: 1; white-space: pre; opacity: 1;">Pyruvate metabolism</text></g><g class="ytick"><text text-anchor="end" x="286" y="4.199999999999999" transform="translate(0,288.15)" style="font-family: 'Open Sans', verdana, arial, sans-serif; font-size: 12px; fill: rgb(42, 63, 95); fill-opacity: 1; white-space: pre; opacity: 1;">Starch and sucrose metabolism</text></g><g class="ytick"><text text-anchor="end" x="286" y="4.199999999999999" transform="translate(0,254.61)" style="font-family: 'Open Sans', verdana, arial, sans-serif; font-size: 12px; fill: rgb(42, 63, 95); fill-opacity: 1; white-space: pre; opacity: 1;">Sulfur Cysteine and methionine metabolism</text></g><g class="ytick"><text text-anchor="end" x="286" y="4.199999999999999" transform="translate(0,221.07999999999998)" style="font-family: 'Open Sans', verdana, arial, sans-serif; font-size: 12px; fill: rgb(42, 63, 95); fill-opacity: 1; white-space: pre; opacity: 1;">Thiamine metabolism</text></g><g class="ytick"><text text-anchor="end" x="286" y="4.199999999999999" transform="translate(0,187.54000000000002)" style="font-family: 'Open Sans', verdana, arial, sans-serif; font-size: 12px; fill: rgb(42, 63, 95); fill-opacity: 1; white-space: pre; opacity: 1;">Transport</text></g><g class="ytick"><text text-anchor="end" x="286" y="4.199999999999999" transform="translate(0,154)" style="font-family: 'Open Sans', verdana, arial, sans-serif; font-size: 12px; fill: rgb(42, 63, 95); fill-opacity: 1; white-space: pre; opacity: 1;">Valine leucine and isoleucine biosynthesis</text></g></g><g class="overaxes-above"/></g></g><g class="polarlayer"/><g class="smithlayer"/><g class="ternarylayer"/><g class="geolayer"/><g class="funnelarealayer"/><g class="pielayer"/><g class="iciclelayer"/><g class="treemaplayer"/><g class="sunburstlayer"/><g class="glimages"/><defs id="topdefs-d5c0fa"><g class="clips"/></defs><g class="layer-above"><g class="imagelayer"/><g class="shapelayer"/></g><g class="infolayer"><g class="g-gtitle"><text class="gtitle" x="330" y="60" text-anchor="middle" dy="0.7em" style="font-family: 'Open Sans', verdana, arial, sans-serif; font-size: 16px; fill: rgb(42, 63, 95); opacity: 1; font-weight: normal; white-space: pre;">Percentage of Subsystem functions in BARs &amp; NBRs</text></g><g class="g-xtitle"/><g class="g-ytitle"/></g></svg>