<svg class="main-svg" xmlns="http://www.w3.org/2000/svg" xmlns:xlink="http://www.w3.org/1999/xlink" width="600" height="1200" style="" viewBox="0 0 600 1200"><rect x="0" y="0" width="600" height="1200" style="fill: rgb(255, 255, 255); fill-opacity: 1;"/><defs id="defs-886ea0"><g class="clips"><clipPath id="clip886ea0xyplot" class="plotclip"><rect width="233" height="1020"/></clipPath><clipPath class="axesclip" id="clip886ea0x"><rect x="287" y="0" width="233" height="1200"/></clipPath><clipPath class="axesclip" id="clip886ea0y"><rect x="0" y="100" width="600" height="1020"/></clipPath><clipPath class="axesclip" id="clip886ea0xy"><rect x="287" y="100" width="233" height="1020"/></clipPath></g><g class="gradients"/><g class="patterns"/></defs><g class="bglayer"><rect class="bg" x="287" y="100" width="233" height="1020" style="fill: rgb(229, 236, 246); fill-opacity: 1; stroke-width: 0;"/></g><g class="layer-below"><g class="imagelayer"/><g class="shapelayer"/></g><g class="cartesianlayer"><g class="subplot xy"><g class="layer-subplot"><g class="shapelayer"/><g class="imagelayer"/></g><g class="minor-gridlayer"><g class="x"/><g class="y"/></g><g class="gridlayer"><g class="x"><path class="xgrid crisp" transform="translate(316.76,0)" d="M0,100v1020" style="stroke: rgb(255, 255, 255); stroke-opacity: 1; stroke-width: 1px;"/><path class="xgrid crisp" transform="translate(486.96000000000004,0)" d="M0,100v1020" style="stroke: rgb(255, 255, 255); stroke-opacity: 1; stroke-width: 1px;"/></g><g class="y"><path class="ygrid crisp" transform="translate(0,1066)" d="M287,0h233" style="stroke: rgb(255, 255, 255); stroke-opacity: 1; stroke-width: 1px;"/><path class="ygrid crisp" transform="translate(0,1034.56)" d="M287,0h233" style="stroke: rgb(255, 255, 255); stroke-opacity: 1; stroke-width: 1px;"/><path class="ygrid crisp" transform="translate(0,1003.12)" d="M287,0h233" style="stroke: rgb(255, 255, 255); stroke-opacity: 1; stroke-width: 1px;"/><path class="ygrid crisp" transform="translate(0,971.67)" d="M287,0h233" style="stroke: rgb(255, 255, 255); stroke-opacity: 1; stroke-width: 1px;"/><path class="ygrid crisp" transform="translate(0,940.23)" d="M287,0h233" style="stroke: rgb(255, 255, 255); stroke-opacity: 1; stroke-width: 1px;"/><path class="ygrid crisp" transform="translate(0,908.79)" d="M287,0h233" style="stroke: rgb(255, 255, 255); stroke-opacity: 1; stroke-width: 1px;"/><path class="ygrid crisp" transform="translate(0,877.35)" d="M287,0h233" style="stroke: rgb(255, 255, 255); stroke-opacity: 1; stroke-width: 1px;"/><path class="ygrid crisp" transform="translate(0,845.9)" d="M287,0h233" style="stroke: rgb(255, 255, 255); stroke-opacity: 1; stroke-width: 1px;"/><path class="ygrid crisp" transform="translate(0,814.46)" d="M287,0h233" style="stroke: rgb(255, 255, 255); stroke-opacity: 1; stroke-width: 1px;"/><path class="ygrid crisp" transform="translate(0,783.02)" d="M287,0h233" style="stroke: rgb(255, 255, 255); stroke-opacity: 1; stroke-width: 1px;"/><path class="ygrid crisp" transform="translate(0,751.58)" d="M287,0h233" style="stroke: rgb(255, 255, 255); stroke-opacity: 1; stroke-width: 1px;"/><path class="ygrid crisp" transform="translate(0,720.13)" d="M287,0h233" style="stroke: rgb(255, 255, 255); stroke-opacity: 1; stroke-width: 1px;"/><path class="ygrid crisp" transform="translate(0,688.69)" d="M287,0h233" style="stroke: rgb(255, 255, 255); stroke-opacity: 1; stroke-width: 1px;"/><path class="ygrid crisp" transform="translate(0,657.25)" d="M287,0h233" style="stroke: rgb(255, 255, 255); stroke-opacity: 1; stroke-width: 1px;"/><path class="ygrid crisp" transform="translate(0,625.81)" d="M287,0h233" style="stroke: rgb(255, 255, 255); stroke-opacity: 1; stroke-width: 1px;"/><path class="ygrid crisp" transform="translate(0,594.36)" d="M287,0h233" style="stroke: rgb(255, 255, 255); stroke-opacity: 1; stroke-width: 1px;"/><path class="ygrid crisp" transform="translate(0,562.9200000000001)" d="M287,0h233" style="stroke: rgb(255, 255, 255); stroke-opacity: 1; stroke-width: 1px;"/><path class="ygrid crisp" transform="translate(0,531.48)" d="M287,0h233" style="stroke: rgb(255, 255, 255); stroke-opacity: 1; stroke-width: 1px;"/><path class="ygrid crisp" transform="translate(0,500.04)" d="M287,0h233" style="stroke: rgb(255, 255, 255); stroke-opacity: 1; stroke-width: 1px;"/><path class="ygrid crisp" transform="translate(0,468.59)" d="M287,0h233" style="stroke: rgb(255, 255, 255); stroke-opacity: 1; stroke-width: 1px;"/><path class="ygrid crisp" transform="translate(0,437.15)" d="M287,0h233" style="stroke: rgb(255, 255, 255); stroke-opacity: 1; stroke-width: 1px;"/><path class="ygrid crisp" transform="translate(0,405.71)" d="M287,0h233" style="stroke: rgb(255, 255, 255); stroke-opacity: 1; stroke-width: 1px;"/><path class="ygrid crisp" transform="translate(0,374.27)" d="M287,0h233" style="stroke: rgb(255, 255, 255); stroke-opacity: 1; stroke-width: 1px;"/><path class="ygrid crisp" transform="translate(0,342.82)" d="M287,0h233" style="stroke: rgb(255, 255, 255); stroke-opacity: 1; stroke-width: 1px;"/><path class="ygrid crisp" transform="translate(0,311.38)" d="M287,0h233" style="stroke: rgb(255, 255, 255); stroke-opacity: 1; stroke-width: 1px;"/><path class="ygrid crisp" transform="translate(0,279.94)" d="M287,0h233" style="stroke: rgb(255, 255, 255); stroke-opacity: 1; stroke-width: 1px;"/><path class="ygrid crisp" transform="translate(0,248.5)" d="M287,0h233" style="stroke: rgb(255, 255, 255); stroke-opacity: 1; stroke-width: 1px;"/><path class="ygrid crisp" transform="translate(0,217.05)" d="M287,0h233" style="stroke: rgb(255, 255, 255); stroke-opacity: 1; stroke-width: 1px;"/><path class="ygrid crisp" transform="translate(0,185.61)" d="M287,0h233" style="stroke: rgb(255, 255, 255); stroke-opacity: 1; stroke-width: 1px;"/><path class="ygrid crisp" transform="translate(0,154.17000000000002)" d="M287,0h233" style="stroke: rgb(255, 255, 255); stroke-opacity: 1; stroke-width: 1px;"/></g></g><g class="zerolinelayer"/><path class="xlines-below"/><path class="ylines-below"/><g class="overlines-below"/><g class="xaxislayer-below"/><g class="yaxislayer-below"/><g class="overaxes-below"/><g class="plot" transform="translate(287,100)" clip-path="url(#clip886ea0xyplot)"><g class="scatterlayer mlayer"><g class="trace scatter trace5cacb9" style="stroke-miterlimit: 2; opacity: 1;"><g class="fills"/><g class="errorbars"/><g class="lines"/><g class="points"><path class="point" transform="translate(29.76,966)" d="M1.54,0A1.54,1.54 0 1,1 0,-1.54A1.54,1.54 0 0,1 1.54,0Z" style="opacity: 0.7; stroke-width: 2px; fill: rgb(31, 119, 180); fill-opacity: 1; stroke: rgb(255, 255, 255); stroke-opacity: 1;"/><path class="point" transform="translate(29.76,934.56)" d="M3.08,0A3.08,3.08 0 1,1 0,-3.08A3.08,3.08 0 0,1 3.08,0Z" style="opacity: 0.7; stroke-width: 2px; fill: rgb(31, 119, 180); fill-opacity: 1; stroke: rgb(255, 255, 255); stroke-opacity: 1;"/><path class="point" transform="translate(29.76,903.12)" d="M2.77,0A2.77,2.77 0 1,1 0,-2.77A2.77,2.77 0 0,1 2.77,0Z" style="opacity: 0.7; stroke-width: 2px; fill: rgb(31, 119, 180); fill-opacity: 1; stroke: rgb(255, 255, 255); stroke-opacity: 1;"/><path class="point" transform="translate(29.76,871.67)" d="M1.85,0A1.85,1.85 0 1,1 0,-1.85A1.85,1.85 0 0,1 1.85,0Z" style="opacity: 0.7; stroke-width: 2px; fill: rgb(31, 119, 180); fill-opacity: 1; stroke: rgb(255, 255, 255); stroke-opacity: 1;"/><path class="point" transform="translate(29.76,840.23)" d="M0.31,0A0.31,0.31 0 1,1 0,-0.31A0.31,0.31 0 0,1 0.31,0Z" style="opacity: 0.7; stroke-width: 2px; fill: rgb(31, 119, 180); fill-opacity: 1; stroke: rgb(255, 255, 255); stroke-opacity: 1;"/><path class="point" transform="translate(29.76,808.79)" d="M1.08,0A1.08,1.08 0 1,1 0,-1.08A1.08,1.08 0 0,1 1.08,0Z" style="opacity: 0.7; stroke-width: 2px; fill: rgb(31, 119, 180); fill-opacity: 1; stroke: rgb(255, 255, 255); stroke-opacity: 1;"/><path class="point" transform="translate(29.76,777.35)" d="M0.15,0A0.15,0.15 0 1,1 0,-0.15A0.15,0.15 0 0,1 0.15,0Z" style="opacity: 0.7; stroke-width: 2px; fill: rgb(31, 119, 180); fill-opacity: 1; stroke: rgb(255, 255, 255); stroke-opacity: 1;"/><path class="point" transform="translate(29.76,745.9)" d="M0.62,0A0.62,0.62 0 1,1 0,-0.62A0.62,0.62 0 0,1 0.62,0Z" style="opacity: 0.7; stroke-width: 2px; fill: rgb(31, 119, 180); fill-opacity: 1; stroke: rgb(255, 255, 255); stroke-opacity: 1;"/><path class="point" transform="translate(29.76,714.46)" d="M3.39,0A3.39,3.39 0 1,1 0,-3.39A3.39,3.39 0 0,1 3.39,0Z" style="opacity: 0.7; stroke-width: 2px; fill: rgb(31, 119, 180); fill-opacity: 1; stroke: rgb(255, 255, 255); stroke-opacity: 1;"/><path class="point" transform="translate(29.76,683.02)" d="M2.77,0A2.77,2.77 0 1,1 0,-2.77A2.77,2.77 0 0,1 2.77,0Z" style="opacity: 0.7; stroke-width: 2px; fill: rgb(31, 119, 180); fill-opacity: 1; stroke: rgb(255, 255, 255); stroke-opacity: 1;"/><path class="point" transform="translate(29.76,651.58)" d="M1.85,0A1.85,1.85 0 1,1 0,-1.85A1.85,1.85 0 0,1 1.85,0Z" style="opacity: 0.7; stroke-width: 2px; fill: rgb(31, 119, 180); fill-opacity: 1; stroke: rgb(255, 255, 255); stroke-opacity: 1;"/><path class="point" transform="translate(29.76,620.13)" d="M0.46,0A0.46,0.46 0 1,1 0,-0.46A0.46,0.46 0 0,1 0.46,0Z" style="opacity: 0.7; stroke-width: 2px; fill: rgb(31, 119, 180); fill-opacity: 1; stroke: rgb(255, 255, 255); stroke-opacity: 1;"/><path class="point" transform="translate(29.76,588.69)" d="M0.15,0A0.15,0.15 0 1,1 0,-0.15A0.15,0.15 0 0,1 0.15,0Z" style="opacity: 0.7; stroke-width: 2px; fill: rgb(31, 119, 180); fill-opacity: 1; stroke: rgb(255, 255, 255); stroke-opacity: 1;"/><path class="point" transform="translate(29.76,557.25)" d="M1.85,0A1.85,1.85 0 1,1 0,-1.85A1.85,1.85 0 0,1 1.85,0Z" style="opacity: 0.7; stroke-width: 2px; fill: rgb(31, 119, 180); fill-opacity: 1; stroke: rgb(255, 255, 255); stroke-opacity: 1;"/><path class="point" transform="translate(29.76,525.81)" d="M0,0A0,0 0 1,1 0,-0A0,0 0 0,1 0,0Z" style="opacity: 0.7; stroke-width: 2px; fill: rgb(31, 119, 180); fill-opacity: 1; stroke: rgb(255, 255, 255); stroke-opacity: 1;"/><path class="point" transform="translate(29.76,494.36)" d="M10.33,0A10.33,10.33 0 1,1 0,-10.33A10.33,10.33 0 0,1 10.33,0Z" style="opacity: 0.7; stroke-width: 2px; fill: rgb(31, 119, 180); fill-opacity: 1; stroke: rgb(255, 255, 255); stroke-opacity: 1;"/><path class="point" transform="translate(29.76,462.92)" d="M0,0A0,0 0 1,1 0,-0A0,0 0 0,1 0,0Z" style="opacity: 0.7; stroke-width: 2px; fill: rgb(31, 119, 180); fill-opacity: 1; stroke: rgb(255, 255, 255); stroke-opacity: 1;"/><path class="point" transform="translate(29.76,431.48)" d="M1.54,0A1.54,1.54 0 1,1 0,-1.54A1.54,1.54 0 0,1 1.54,0Z" style="opacity: 0.7; stroke-width: 2px; fill: rgb(31, 119, 180); fill-opacity: 1; stroke: rgb(255, 255, 255); stroke-opacity: 1;"/><path class="point" transform="translate(29.76,400.04)" d="M3.7,0A3.7,3.7 0 1,1 0,-3.7A3.7,3.7 0 0,1 3.7,0Z" style="opacity: 0.7; stroke-width: 2px; fill: rgb(31, 119, 180); fill-opacity: 1; stroke: rgb(255, 255, 255); stroke-opacity: 1;"/><path class="point" transform="translate(29.76,368.59)" d="M13.25,0A13.25,13.25 0 1,1 0,-13.25A13.25,13.25 0 0,1 13.25,0Z" style="opacity: 0.7; stroke-width: 2px; fill: rgb(31, 119, 180); fill-opacity: 1; stroke: rgb(255, 255, 255); stroke-opacity: 1;"/><path class="point" transform="translate(29.76,337.15)" d="M6.78,0A6.78,6.78 0 1,1 0,-6.78A6.78,6.78 0 0,1 6.78,0Z" style="opacity: 0.7; stroke-width: 2px; fill: rgb(31, 119, 180); fill-opacity: 1; stroke: rgb(255, 255, 255); stroke-opacity: 1;"/><path class="point" transform="translate(29.76,305.71)" d="M4.62,0A4.62,4.62 0 1,1 0,-4.62A4.62,4.62 0 0,1 4.62,0Z" style="opacity: 0.7; stroke-width: 2px; fill: rgb(31, 119, 180); fill-opacity: 1; stroke: rgb(255, 255, 255); stroke-opacity: 1;"/><path class="point" transform="translate(29.76,274.27)" d="M3.08,0A3.08,3.08 0 1,1 0,-3.08A3.08,3.08 0 0,1 3.08,0Z" style="opacity: 0.7; stroke-width: 2px; fill: rgb(31, 119, 180); fill-opacity: 1; stroke: rgb(255, 255, 255); stroke-opacity: 1;"/><path class="point" transform="translate(29.76,242.82)" d="M3.54,0A3.54,3.54 0 1,1 0,-3.54A3.54,3.54 0 0,1 3.54,0Z" style="opacity: 0.7; stroke-width: 2px; fill: rgb(31, 119, 180); fill-opacity: 1; stroke: rgb(255, 255, 255); stroke-opacity: 1;"/><path class="point" transform="translate(29.76,211.38)" d="M1.08,0A1.08,1.08 0 1,1 0,-1.08A1.08,1.08 0 0,1 1.08,0Z" style="opacity: 0.7; stroke-width: 2px; fill: rgb(31, 119, 180); fill-opacity: 1; stroke: rgb(255, 255, 255); stroke-opacity: 1;"/><path class="point" transform="translate(29.76,179.94)" d="M2.16,0A2.16,2.16 0 1,1 0,-2.16A2.16,2.16 0 0,1 2.16,0Z" style="opacity: 0.7; stroke-width: 2px; fill: rgb(31, 119, 180); fill-opacity: 1; stroke: rgb(255, 255, 255); stroke-opacity: 1;"/><path class="point" transform="translate(29.76,148.5)" d="M0,0A0,0 0 1,1 0,-0A0,0 0 0,1 0,0Z" style="opacity: 0.7; stroke-width: 2px; fill: rgb(31, 119, 180); fill-opacity: 1; stroke: rgb(255, 255, 255); stroke-opacity: 1;"/><path class="point" transform="translate(29.76,117.05)" d="M14.49,0A14.49,14.49 0 1,1 0,-14.49A14.49,14.49 0 0,1 14.49,0Z" style="opacity: 0.7; stroke-width: 2px; fill: rgb(31, 119, 180); fill-opacity: 1; stroke: rgb(255, 255, 255); stroke-opacity: 1;"/><path class="point" transform="translate(29.76,85.61)" d="M1.7,0A1.7,1.7 0 1,1 0,-1.7A1.7,1.7 0 0,1 1.7,0Z" style="opacity: 0.7; stroke-width: 2px; fill: rgb(31, 119, 180); fill-opacity: 1; stroke: rgb(255, 255, 255); stroke-opacity: 1;"/><path class="point" transform="translate(29.76,54.17)" d="M1.54,0A1.54,1.54 0 1,1 0,-1.54A1.54,1.54 0 0,1 1.54,0Z" style="opacity: 0.7; stroke-width: 2px; fill: rgb(31, 119, 180); fill-opacity: 1; stroke: rgb(255, 255, 255); stroke-opacity: 1;"/></g><g class="text"/></g><g class="trace scatter trace47aad1" style="stroke-miterlimit: 2; opacity: 1;"><g class="fills"/><g class="errorbars"/><g class="lines"/><g class="points"><path class="point" transform="translate(199.96,966)" d="M1.9,0A1.9,1.9 0 1,1 0,-1.9A1.9,1.9 0 0,1 1.9,0Z" style="opacity: 0.7; stroke-width: 2px; fill: rgb(255, 127, 14); fill-opacity: 1; stroke: rgb(255, 255, 255); stroke-opacity: 1;"/><path class="point" transform="translate(199.96,934.56)" d="M8.24,0A8.24,8.24 0 1,1 0,-8.24A8.24,8.24 0 0,1 8.24,0Z" style="opacity: 0.7; stroke-width: 2px; fill: rgb(255, 127, 14); fill-opacity: 1; stroke: rgb(255, 255, 255); stroke-opacity: 1;"/><path class="point" transform="translate(199.96,903.12)" d="M0,0A0,0 0 1,1 0,-0A0,0 0 0,1 0,0Z" style="opacity: 0.7; stroke-width: 2px; fill: rgb(255, 127, 14); fill-opacity: 1; stroke: rgb(255, 255, 255); stroke-opacity: 1;"/><path class="point" transform="translate(199.96,871.67)" d="M0.63,0A0.63,0.63 0 1,1 0,-0.63A0.63,0.63 0 0,1 0.63,0Z" style="opacity: 0.7; stroke-width: 2px; fill: rgb(255, 127, 14); fill-opacity: 1; stroke: rgb(255, 255, 255); stroke-opacity: 1;"/><path class="point" transform="translate(199.96,840.23)" d="M5.7,0A5.7,5.7 0 1,1 0,-5.7A5.7,5.7 0 0,1 5.7,0Z" style="opacity: 0.7; stroke-width: 2px; fill: rgb(255, 127, 14); fill-opacity: 1; stroke: rgb(255, 255, 255); stroke-opacity: 1;"/><path class="point" transform="translate(199.96,808.79)" d="M1.9,0A1.9,1.9 0 1,1 0,-1.9A1.9,1.9 0 0,1 1.9,0Z" style="opacity: 0.7; stroke-width: 2px; fill: rgb(255, 127, 14); fill-opacity: 1; stroke: rgb(255, 255, 255); stroke-opacity: 1;"/><path class="point" transform="translate(199.96,777.35)" d="M2.54,0A2.54,2.54 0 1,1 0,-2.54A2.54,2.54 0 0,1 2.54,0Z" style="opacity: 0.7; stroke-width: 2px; fill: rgb(255, 127, 14); fill-opacity: 1; stroke: rgb(255, 255, 255); stroke-opacity: 1;"/><path class="point" transform="translate(199.96,745.9)" d="M1.9,0A1.9,1.9 0 1,1 0,-1.9A1.9,1.9 0 0,1 1.9,0Z" style="opacity: 0.7; stroke-width: 2px; fill: rgb(255, 127, 14); fill-opacity: 1; stroke: rgb(255, 255, 255); stroke-opacity: 1;"/><path class="point" transform="translate(199.96,714.46)" d="M6.34,0A6.34,6.34 0 1,1 0,-6.34A6.34,6.34 0 0,1 6.34,0Z" style="opacity: 0.7; stroke-width: 2px; fill: rgb(255, 127, 14); fill-opacity: 1; stroke: rgb(255, 255, 255); stroke-opacity: 1;"/><path class="point" transform="translate(199.96,683.02)" d="M1.9,0A1.9,1.9 0 1,1 0,-1.9A1.9,1.9 0 0,1 1.9,0Z" style="opacity: 0.7; stroke-width: 2px; fill: rgb(255, 127, 14); fill-opacity: 1; stroke: rgb(255, 255, 255); stroke-opacity: 1;"/><path class="point" transform="translate(199.96,651.58)" d="M1.27,0A1.27,1.27 0 1,1 0,-1.27A1.27,1.27 0 0,1 1.27,0Z" style="opacity: 0.7; stroke-width: 2px; fill: rgb(255, 127, 14); fill-opacity: 1; stroke: rgb(255, 255, 255); stroke-opacity: 1;"/><path class="point" transform="translate(199.96,620.13)" d="M3.17,0A3.17,3.17 0 1,1 0,-3.17A3.17,3.17 0 0,1 3.17,0Z" style="opacity: 0.7; stroke-width: 2px; fill: rgb(255, 127, 14); fill-opacity: 1; stroke: rgb(255, 255, 255); stroke-opacity: 1;"/><path class="point" transform="translate(199.96,588.69)" d="M3.17,0A3.17,3.17 0 1,1 0,-3.17A3.17,3.17 0 0,1 3.17,0Z" style="opacity: 0.7; stroke-width: 2px; fill: rgb(255, 127, 14); fill-opacity: 1; stroke: rgb(255, 255, 255); stroke-opacity: 1;"/><path class="point" transform="translate(199.96,557.25)" d="M0.63,0A0.63,0.63 0 1,1 0,-0.63A0.63,0.63 0 0,1 0.63,0Z" style="opacity: 0.7; stroke-width: 2px; fill: rgb(255, 127, 14); fill-opacity: 1; stroke: rgb(255, 255, 255); stroke-opacity: 1;"/><path class="point" transform="translate(199.96,525.81)" d="M3.17,0A3.17,3.17 0 1,1 0,-3.17A3.17,3.17 0 0,1 3.17,0Z" style="opacity: 0.7; stroke-width: 2px; fill: rgb(255, 127, 14); fill-opacity: 1; stroke: rgb(255, 255, 255); stroke-opacity: 1;"/><path class="point" transform="translate(199.96,494.36)" d="M9.51,0A9.51,9.51 0 1,1 0,-9.51A9.51,9.51 0 0,1 9.51,0Z" style="opacity: 0.7; stroke-width: 2px; fill: rgb(255, 127, 14); fill-opacity: 1; stroke: rgb(255, 255, 255); stroke-opacity: 1;"/><path class="point" transform="translate(199.96,462.92)" d="M2.54,0A2.54,2.54 0 1,1 0,-2.54A2.54,2.54 0 0,1 2.54,0Z" style="opacity: 0.7; stroke-width: 2px; fill: rgb(255, 127, 14); fill-opacity: 1; stroke: rgb(255, 255, 255); stroke-opacity: 1;"/><path class="point" transform="translate(199.96,431.48)" d="M1.9,0A1.9,1.9 0 1,1 0,-1.9A1.9,1.9 0 0,1 1.9,0Z" style="opacity: 0.7; stroke-width: 2px; fill: rgb(255, 127, 14); fill-opacity: 1; stroke: rgb(255, 255, 255); stroke-opacity: 1;"/><path class="point" transform="translate(199.96,400.04)" d="M5.7,0A5.7,5.7 0 1,1 0,-5.7A5.7,5.7 0 0,1 5.7,0Z" style="opacity: 0.7; stroke-width: 2px; fill: rgb(255, 127, 14); fill-opacity: 1; stroke: rgb(255, 255, 255); stroke-opacity: 1;"/><path class="point" transform="translate(199.96,368.59)" d="M5.07,0A5.07,5.07 0 1,1 0,-5.07A5.07,5.07 0 0,1 5.07,0Z" style="opacity: 0.7; stroke-width: 2px; fill: rgb(255, 127, 14); fill-opacity: 1; stroke: rgb(255, 255, 255); stroke-opacity: 1;"/><path class="point" transform="translate(199.96,337.15)" d="M5.7,0A5.7,5.7 0 1,1 0,-5.7A5.7,5.7 0 0,1 5.7,0Z" style="opacity: 0.7; stroke-width: 2px; fill: rgb(255, 127, 14); fill-opacity: 1; stroke: rgb(255, 255, 255); stroke-opacity: 1;"/><path class="point" transform="translate(199.96,305.71)" d="M3.8,0A3.8,3.8 0 1,1 0,-3.8A3.8,3.8 0 0,1 3.8,0Z" style="opacity: 0.7; stroke-width: 2px; fill: rgb(255, 127, 14); fill-opacity: 1; stroke: rgb(255, 255, 255); stroke-opacity: 1;"/><path class="point" transform="translate(199.96,274.27)" d="M2.54,0A2.54,2.54 0 1,1 0,-2.54A2.54,2.54 0 0,1 2.54,0Z" style="opacity: 0.7; stroke-width: 2px; fill: rgb(255, 127, 14); fill-opacity: 1; stroke: rgb(255, 255, 255); stroke-opacity: 1;"/><path class="point" transform="translate(199.96,242.82)" d="M1.27,0A1.27,1.27 0 1,1 0,-1.27A1.27,1.27 0 0,1 1.27,0Z" style="opacity: 0.7; stroke-width: 2px; fill: rgb(255, 127, 14); fill-opacity: 1; stroke: rgb(255, 255, 255); stroke-opacity: 1;"/><path class="point" transform="translate(199.96,211.38)" d="M1.9,0A1.9,1.9 0 1,1 0,-1.9A1.9,1.9 0 0,1 1.9,0Z" style="opacity: 0.7; stroke-width: 2px; fill: rgb(255, 127, 14); fill-opacity: 1; stroke: rgb(255, 255, 255); stroke-opacity: 1;"/><path class="point" transform="translate(199.96,179.94)" d="M2.54,0A2.54,2.54 0 1,1 0,-2.54A2.54,2.54 0 0,1 2.54,0Z" style="opacity: 0.7; stroke-width: 2px; fill: rgb(255, 127, 14); fill-opacity: 1; stroke: rgb(255, 255, 255); stroke-opacity: 1;"/><path class="point" transform="translate(199.96,148.5)" d="M2.54,0A2.54,2.54 0 1,1 0,-2.54A2.54,2.54 0 0,1 2.54,0Z" style="opacity: 0.7; stroke-width: 2px; fill: rgb(255, 127, 14); fill-opacity: 1; stroke: rgb(255, 255, 255); stroke-opacity: 1;"/><path class="point" transform="translate(199.96,117.05)" d="M17.11,0A17.11,17.11 0 1,1 0,-17.11A17.11,17.11 0 0,1 17.11,0Z" style="opacity: 0.7; stroke-width: 2px; fill: rgb(255, 127, 14); fill-opacity: 1; stroke: rgb(255, 255, 255); stroke-opacity: 1;"/><path class="point" transform="translate(199.96,85.61)" d="M0,0A0,0 0 1,1 0,-0A0,0 0 0,1 0,0Z" style="opacity: 0.7; stroke-width: 2px; fill: rgb(255, 127, 14); fill-opacity: 1; stroke: rgb(255, 255, 255); stroke-opacity: 1;"/><path class="point" transform="translate(199.96,54.17)" d="M2.54,0A2.54,2.54 0 1,1 0,-2.54A2.54,2.54 0 0,1 2.54,0Z" style="opacity: 0.7; stroke-width: 2px; fill: rgb(255, 127, 14); fill-opacity: 1; stroke: rgb(255, 255, 255); stroke-opacity: 1;"/></g><g class="text"/></g></g></g><g class="overplot"/><path class="xlines-above crisp" d="M0,0" style="fill: none;"/><path class="ylines-above crisp" d="M0,0" style="fill: none;"/><g class="overlines-above"/><g class="xaxislayer-above"><g class="xtick"><text text-anchor="middle" x="0" y="1133" transform="translate(316.76,0)" style="font-family: 'Open Sans', verdana, arial, sans-serif; font-size: 12px; fill: rgb(42, 63, 95); fill-opacity: 1; white-space: pre; opacity: 1;">BAR_Set_percentage</text></g><g class="xtick"><text text-anchor="middle" x="0" y="1133" transform="translate(486.96000000000004,0)" style="font-family: 'Open Sans', verdana, arial, sans-serif; font-size: 12px; fill: rgb(42, 63, 95); fill-opacity: 1; white-space: pre; opacity: 1;">NBR_Set_percentage</text></g></g><g class="yaxislayer-above"><g class="ytick"><text text-anchor="end" x="286" y="4.199999999999999" transform="translate(0,1066)" style="font-family: 'Open Sans', verdana, arial, sans-serif; font-size: 12px; fill: rgb(42, 63, 95); fill-opacity: 1; white-space: pre; opacity: 1;">Alanine, aspartate and glutamate metabolism</text></g><g class="ytick"><text text-anchor="end" x="286" y="4.199999999999999" transform="translate(0,1034.56)" style="font-family: 'Open Sans', verdana, arial, sans-serif; font-size: 12px; fill: rgb(42, 63, 95); fill-opacity: 1; white-space: pre; opacity: 1;">Arginine and proline metabolism</text></g><g class="ytick"><text text-anchor="end" x="286" y="4.199999999999999" transform="translate(0,1003.12)" style="font-family: 'Open Sans', verdana, arial, sans-serif; font-size: 12px; fill: rgb(42, 63, 95); fill-opacity: 1; white-space: pre; opacity: 1;">Fatty acid biosynthesis</text></g><g class="ytick"><text text-anchor="end" x="286" y="4.199999999999999" transform="translate(0,971.67)" style="font-family: 'Open Sans', verdana, arial, sans-serif; font-size: 12px; fill: rgb(42, 63, 95); fill-opacity: 1; white-space: pre; opacity: 1;">Folate biosynthesis</text></g><g class="ytick"><text text-anchor="end" x="286" y="4.199999999999999" transform="translate(0,940.23)" style="font-family: 'Open Sans', verdana, arial, sans-serif; font-size: 12px; fill: rgb(42, 63, 95); fill-opacity: 1; white-space: pre; opacity: 1;">Fructose and mannose metabolism</text></g><g class="ytick"><text text-anchor="end" x="286" y="4.199999999999999" transform="translate(0,908.79)" style="font-family: 'Open Sans', verdana, arial, sans-serif; font-size: 12px; fill: rgb(42, 63, 95); fill-opacity: 1; white-space: pre; opacity: 1;">Glutamate metabolism</text></g><g class="ytick"><text text-anchor="end" x="286" y="4.199999999999999" transform="translate(0,877.35)" style="font-family: 'Open Sans', verdana, arial, sans-serif; font-size: 12px; fill: rgb(42, 63, 95); fill-opacity: 1; white-space: pre; opacity: 1;">Glutathione metabolism</text></g><g class="ytick"><text text-anchor="end" x="286" y="4.199999999999999" transform="translate(0,845.9)" style="font-family: 'Open Sans', verdana, arial, sans-serif; font-size: 12px; fill: rgb(42, 63, 95); fill-opacity: 1; white-space: pre; opacity: 1;">Glycerolipid metabolism</text></g><g class="ytick"><text text-anchor="end" x="286" y="4.199999999999999" transform="translate(0,814.46)" style="font-family: 'Open Sans', verdana, arial, sans-serif; font-size: 12px; fill: rgb(42, 63, 95); fill-opacity: 1; white-space: pre; opacity: 1;">Glycolysis/Gluconeogenesis</text></g><g class="ytick"><text text-anchor="end" x="286" y="4.199999999999999" transform="translate(0,783.02)" style="font-family: 'Open Sans', verdana, arial, sans-serif; font-size: 12px; fill: rgb(42, 63, 95); fill-opacity: 1; white-space: pre; opacity: 1;">Glyoxylate and dicarboxylate metabolism</text></g><g class="ytick"><text text-anchor="end" x="286" y="4.199999999999999" transform="translate(0,751.58)" style="font-family: 'Open Sans', verdana, arial, sans-serif; font-size: 12px; fill: rgb(42, 63, 95); fill-opacity: 1; white-space: pre; opacity: 1;">Histidine metabolism</text></g><g class="ytick"><text text-anchor="end" x="286" y="4.199999999999999" transform="translate(0,720.13)" style="font-family: 'Open Sans', verdana, arial, sans-serif; font-size: 12px; fill: rgb(42, 63, 95); fill-opacity: 1; white-space: pre; opacity: 1;">Hydrogen production</text></g><g class="ytick"><text text-anchor="end" x="286" y="4.199999999999999" transform="translate(0,688.69)" style="font-family: 'Open Sans', verdana, arial, sans-serif; font-size: 12px; fill: rgb(42, 63, 95); fill-opacity: 1; white-space: pre; opacity: 1;">Inositol phosphate metabolism</text></g><g class="ytick"><text text-anchor="end" x="286" y="4.199999999999999" transform="translate(0,657.25)" style="font-family: 'Open Sans', verdana, arial, sans-serif; font-size: 12px; fill: rgb(42, 63, 95); fill-opacity: 1; white-space: pre; opacity: 1;">Nitrogen metabolism</text></g><g class="ytick"><text text-anchor="end" x="286" y="4.199999999999999" transform="translate(0,625.81)" style="font-family: 'Open Sans', verdana, arial, sans-serif; font-size: 12px; fill: rgb(42, 63, 95); fill-opacity: 1; white-space: pre; opacity: 1;">Nucleotide sugars metabolism</text></g><g class="ytick"><text text-anchor="end" x="286" y="4.199999999999999" transform="translate(0,594.36)" style="font-family: 'Open Sans', verdana, arial, sans-serif; font-size: 12px; fill: rgb(42, 63, 95); fill-opacity: 1; white-space: pre; opacity: 1;">Oxidative phosphorylation</text></g><g class="ytick"><text text-anchor="end" x="286" y="4.199999999999999" transform="translate(0,562.9200000000001)" style="font-family: 'Open Sans', verdana, arial, sans-serif; font-size: 12px; fill: rgb(42, 63, 95); fill-opacity: 1; white-space: pre; opacity: 1;">PHB byosynthesis</text></g><g class="ytick"><text text-anchor="end" x="286" y="4.199999999999999" transform="translate(0,531.48)" style="font-family: 'Open Sans', verdana, arial, sans-serif; font-size: 12px; fill: rgb(42, 63, 95); fill-opacity: 1; white-space: pre; opacity: 1;">Pentose phosphate pathway</text></g><g class="ytick"><text text-anchor="end" x="286" y="4.199999999999999" transform="translate(0,500.04)" style="font-family: 'Open Sans', verdana, arial, sans-serif; font-size: 12px; fill: rgb(42, 63, 95); fill-opacity: 1; white-space: pre; opacity: 1;">Phenylalanine tyrosine and tryptophan biosynthesis</text></g><g class="ytick"><text text-anchor="end" x="286" y="4.199999999999999" transform="translate(0,468.59)" style="font-family: 'Open Sans', verdana, arial, sans-serif; font-size: 12px; fill: rgb(42, 63, 95); fill-opacity: 1; white-space: pre; opacity: 1;">Photosynthesis</text></g><g class="ytick"><text text-anchor="end" x="286" y="4.199999999999999" transform="translate(0,437.15)" style="font-family: 'Open Sans', verdana, arial, sans-serif; font-size: 12px; fill: rgb(42, 63, 95); fill-opacity: 1; white-space: pre; opacity: 1;">Porphyrin and chlorophyll metabolism</text></g><g class="ytick"><text text-anchor="end" x="286" y="4.199999999999999" transform="translate(0,405.71)" style="font-family: 'Open Sans', verdana, arial, sans-serif; font-size: 12px; fill: rgb(42, 63, 95); fill-opacity: 1; white-space: pre; opacity: 1;">Purine metabolism</text></g><g class="ytick"><text text-anchor="end" x="286" y="4.199999999999999" transform="translate(0,374.27)" style="font-family: 'Open Sans', verdana, arial, sans-serif; font-size: 12px; fill: rgb(42, 63, 95); fill-opacity: 1; white-space: pre; opacity: 1;">Pyrimidine metabolism</text></g><g class="ytick"><text text-anchor="end" x="286" y="4.199999999999999" transform="translate(0,342.82)" style="font-family: 'Open Sans', verdana, arial, sans-serif; font-size: 12px; fill: rgb(42, 63, 95); fill-opacity: 1; white-space: pre; opacity: 1;">Pyruvate metabolism</text></g><g class="ytick"><text text-anchor="end" x="286" y="4.199999999999999" transform="translate(0,311.38)" style="font-family: 'Open Sans', verdana, arial, sans-serif; font-size: 12px; fill: rgb(42, 63, 95); fill-opacity: 1; white-space: pre; opacity: 1;">Starch and sucrose metabolism</text></g><g class="ytick"><text text-anchor="end" x="286" y="4.199999999999999" transform="translate(0,279.94)" style="font-family: 'Open Sans', verdana, arial, sans-serif; font-size: 12px; fill: rgb(42, 63, 95); fill-opacity: 1; white-space: pre; opacity: 1;">Sulfur Cysteine and methionine metabolism</text></g><g class="ytick"><text text-anchor="end" x="286" y="4.199999999999999" transform="translate(0,248.5)" style="font-family: 'Open Sans', verdana, arial, sans-serif; font-size: 12px; fill: rgb(42, 63, 95); fill-opacity: 1; white-space: pre; opacity: 1;">Thiamine metabolism</text></g><g class="ytick"><text text-anchor="end" x="286" y="4.199999999999999" transform="translate(0,217.05)" style="font-family: 'Open Sans', verdana, arial, sans-serif; font-size: 12px; fill: rgb(42, 63, 95); fill-opacity: 1; white-space: pre; opacity: 1;">Transport</text></g><g class="ytick"><text text-anchor="end" x="286" y="4.199999999999999" transform="translate(0,185.61)" style="font-family: 'Open Sans', verdana, arial, sans-serif; font-size: 12px; fill: rgb(42, 63, 95); fill-opacity: 1; white-space: pre; opacity: 1;">Ubiquinone and other pterpenoids biosynthesis</text></g><g class="ytick"><text text-anchor="end" x="286" y="4.199999999999999" transform="translate(0,154.17000000000002)" style="font-family: 'Open Sans', verdana, arial, sans-serif; font-size: 12px; fill: rgb(42, 63, 95); fill-opacity: 1; white-space: pre; opacity: 1;">Valine leucine and isoleucine biosynthesis</text></g></g><g class="overaxes-above"/></g></g><g class="polarlayer"/><g class="smithlayer"/><g class="ternarylayer"/><g class="geolayer"/><g class="funnelarealayer"/><g class="pielayer"/><g class="iciclelayer"/><g class="treemaplayer"/><g class="sunburstlayer"/><g class="glimages"/><defs id="topdefs-886ea0"><g class="clips"/></defs><g class="layer-above"><g class="imagelayer"/><g class="shapelayer"/></g><g class="infolayer"><g class="g-gtitle"><text class="gtitle" x="330" y="60" text-anchor="middle" dy="0.7em" style="font-family: 'Open Sans', verdana, arial, sans-serif; font-size: 16px; fill: rgb(42, 63, 95); opacity: 1; font-weight: normal; white-space: pre;">Percentage of Subsystem functions in BARs &amp; NBRs</text></g><g class="g-xtitle"/><g class="g-ytitle"/></g></svg>