<svg class="main-svg" xmlns="http://www.w3.org/2000/svg" xmlns:xlink="http://www.w3.org/1999/xlink" width="1000" height="800" style="" viewBox="0 0 1000 800"><rect x="0" y="0" width="1000" height="800" style="fill: rgb(255, 255, 255); fill-opacity: 1;"/><defs id="defs-67e8a4"><g class="clips"><clipPath id="clip67e8a4xyplot" class="plotclip"><rect width="770" height="680"/></clipPath><clipPath class="axesclip" id="clip67e8a4x"><rect x="150" y="0" width="770" height="800"/></clipPath><clipPath class="axesclip" id="clip67e8a4y"><rect x="0" y="40" width="1000" height="680"/></clipPath><clipPath class="axesclip" id="clip67e8a4xy"><rect x="150" y="40" width="770" height="680"/></clipPath></g><g class="gradients"/><g class="patterns"/></defs><g class="bglayer"><rect class="bg" x="150" y="40" width="770" height="680" style="fill: rgb(255, 255, 255); fill-opacity: 1; stroke-width: 0;"/></g><g class="layer-below"><g class="imagelayer"/><g class="shapelayer"/></g><g class="cartesianlayer"><g class="subplot xy"><g class="layer-subplot"><g class="shapelayer"/><g class="imagelayer"/></g><g class="minor-gridlayer"><g class="x"/><g class="y"/></g><g class="gridlayer"><g class="x"/><g class="y"><path class="ygrid crisp" transform="translate(0,613.89)" d="M150,0h770" style="stroke: rgb(255, 255, 255); stroke-opacity: 1; stroke-width: 1px;"/><path class="ygrid crisp" transform="translate(0,490.79)" d="M150,0h770" style="stroke: rgb(255, 255, 255); stroke-opacity: 1; stroke-width: 1px;"/><path class="ygrid crisp" transform="translate(0,367.69)" d="M150,0h770" style="stroke: rgb(255, 255, 255); stroke-opacity: 1; stroke-width: 1px;"/><path class="ygrid crisp" transform="translate(0,244.59)" d="M150,0h770" style="stroke: rgb(255, 255, 255); stroke-opacity: 1; stroke-width: 1px;"/><path class="ygrid crisp" transform="translate(0,121.49)" d="M150,0h770" style="stroke: rgb(255, 255, 255); stroke-opacity: 1; stroke-width: 1px;"/></g></g><g class="zerolinelayer"/><path class="xlines-below"/><path class="ylines-below"/><g class="overlines-below"/><g class="xaxislayer-below"/><g class="yaxislayer-below"/><g class="overaxes-below"/><g class="plot" transform="translate(150,40)" clip-path="url(#clip67e8a4xyplot)"><g class="barlayer mlayer"><g class="trace bars" style="opacity: 1;"><g class="points"><g class="point"><path d="M347.93,327.69V56.87H393.56V327.69Z" style="vector-effect: non-scaling-stroke; opacity: 1; stroke-width: 0.5px; fill: rgb(0, 0, 0); fill-opacity: 1; stroke: rgb(229, 236, 246); stroke-opacity: 1;"/><text class="bartext bartext-outside" text-anchor="middle" data-notex="1" x="0" y="0" style="font-family: 'Open Sans', verdana, arial, sans-serif; font-size: 12px; fill: rgb(42, 63, 95); fill-opacity: 1; white-space: pre;" transform="translate(370.5809375,50.87)">11</text></g><g class="point"><path d="M404.96,327.69V278.45H450.59V327.69Z" style="vector-effect: non-scaling-stroke; opacity: 1; stroke-width: 0.5px; fill: rgb(0, 0, 0); fill-opacity: 1; stroke: rgb(229, 236, 246); stroke-opacity: 1;"/><text class="bartext bartext-outside" text-anchor="middle" data-notex="1" x="0" y="0" style="font-family: 'Open Sans', verdana, arial, sans-serif; font-size: 12px; fill: rgb(42, 63, 95); fill-opacity: 1; white-space: pre;" transform="translate(427.6109375,272.45)">2</text></g><g class="point"><path d="M462,327.69V278.45H507.63V327.69Z" style="vector-effect: non-scaling-stroke; opacity: 1; stroke-width: 0.5px; fill: rgb(0, 0, 0); fill-opacity: 1; stroke: rgb(229, 236, 246); stroke-opacity: 1;"/><text class="bartext bartext-outside" text-anchor="middle" data-notex="1" x="0" y="0" style="font-family: 'Open Sans', verdana, arial, sans-serif; font-size: 12px; fill: rgb(42, 63, 95); fill-opacity: 1; white-space: pre;" transform="translate(484.6509375,272.45)">2</text></g><g class="point"><path d="M519.04,327.69V303.07H564.67V327.69Z" style="vector-effect: non-scaling-stroke; opacity: 1; stroke-width: 0.5px; fill: rgb(0, 0, 0); fill-opacity: 1; stroke: rgb(229, 236, 246); stroke-opacity: 1;"/><text class="bartext bartext-outside" text-anchor="middle" data-notex="1" x="0" y="0" style="font-family: 'Open Sans', verdana, arial, sans-serif; font-size: 12px; fill: rgb(42, 63, 95); fill-opacity: 1; white-space: pre;" transform="translate(541.6909375,297.07)">1</text></g><g class="point"><path d="M576.07,327.69V303.07H621.7V327.69Z" style="vector-effect: non-scaling-stroke; opacity: 1; stroke-width: 0.5px; fill: rgb(0, 0, 0); fill-opacity: 1; stroke: rgb(229, 236, 246); stroke-opacity: 1;"/><text class="bartext bartext-outside" text-anchor="middle" data-notex="1" x="0" y="0" style="font-family: 'Open Sans', verdana, arial, sans-serif; font-size: 12px; fill: rgb(42, 63, 95); fill-opacity: 1; white-space: pre;" transform="translate(598.7209375,297.07)">1</text></g><g class="point"><path d="M633.11,327.69V303.07H678.74V327.69Z" style="vector-effect: non-scaling-stroke; opacity: 1; stroke-width: 0.5px; fill: rgb(0, 0, 0); fill-opacity: 1; stroke: rgb(229, 236, 246); stroke-opacity: 1;"/><text class="bartext bartext-outside" text-anchor="middle" data-notex="1" x="0" y="0" style="font-family: 'Open Sans', verdana, arial, sans-serif; font-size: 12px; fill: rgb(42, 63, 95); fill-opacity: 1; white-space: pre;" transform="translate(655.7609375,297.07)">1</text></g><g class="point"><path d="M690.15,327.69V303.07H735.78V327.69Z" style="vector-effect: non-scaling-stroke; opacity: 1; stroke-width: 0.5px; fill: rgb(0, 0, 0); fill-opacity: 1; stroke: rgb(229, 236, 246); stroke-opacity: 1;"/><text class="bartext bartext-outside" text-anchor="middle" data-notex="1" x="0" y="0" style="font-family: 'Open Sans', verdana, arial, sans-serif; font-size: 12px; fill: rgb(42, 63, 95); fill-opacity: 1; white-space: pre;" transform="translate(712.8009374999999,297.07)">1</text></g></g></g></g><g class="scatterlayer mlayer"><g class="trace scatter trace1273ad" style="stroke-miterlimit: 2; opacity: 1;"><g class="fills"/><g class="errorbars"/><g class="lines"/><g class="points"><path class="point" transform="translate(370.74,357.48)" d="M8.93,0A8.93,8.93 0 1,1 0,-8.93A8.93,8.93 0 0,1 8.93,0Z" style="opacity: 1; stroke-width: 0px; fill: rgb(201, 201, 201); fill-opacity: 1;"/><path class="point" transform="translate(370.74,431.96)" d="M8.93,0A8.93,8.93 0 1,1 0,-8.93A8.93,8.93 0 0,1 8.93,0Z" style="opacity: 1; stroke-width: 0px; fill: rgb(201, 201, 201); fill-opacity: 1;"/><path class="point" transform="translate(370.74,506.43)" d="M8.93,0A8.93,8.93 0 1,1 0,-8.93A8.93,8.93 0 0,1 8.93,0Z" style="opacity: 1; stroke-width: 0px; fill: rgb(201, 201, 201); fill-opacity: 1;"/><path class="point" transform="translate(370.74,580.91)" d="M8.93,0A8.93,8.93 0 1,1 0,-8.93A8.93,8.93 0 0,1 8.93,0Z" style="opacity: 1; stroke-width: 0px; fill: rgb(201, 201, 201); fill-opacity: 1;"/><path class="point" transform="translate(427.78,357.48)" d="M8.93,0A8.93,8.93 0 1,1 0,-8.93A8.93,8.93 0 0,1 8.93,0Z" style="opacity: 1; stroke-width: 0px; fill: rgb(201, 201, 201); fill-opacity: 1;"/><path class="point" transform="translate(427.78,431.96)" d="M8.93,0A8.93,8.93 0 1,1 0,-8.93A8.93,8.93 0 0,1 8.93,0Z" style="opacity: 1; stroke-width: 0px; fill: rgb(201, 201, 201); fill-opacity: 1;"/><path class="point" transform="translate(427.78,506.43)" d="M8.93,0A8.93,8.93 0 1,1 0,-8.93A8.93,8.93 0 0,1 8.93,0Z" style="opacity: 1; stroke-width: 0px; fill: rgb(201, 201, 201); fill-opacity: 1;"/><path class="point" transform="translate(427.78,580.91)" d="M8.93,0A8.93,8.93 0 1,1 0,-8.93A8.93,8.93 0 0,1 8.93,0Z" style="opacity: 1; stroke-width: 0px; fill: rgb(201, 201, 201); fill-opacity: 1;"/><path class="point" transform="translate(484.81,357.48)" d="M8.93,0A8.93,8.93 0 1,1 0,-8.93A8.93,8.93 0 0,1 8.93,0Z" style="opacity: 1; stroke-width: 0px; fill: rgb(201, 201, 201); fill-opacity: 1;"/><path class="point" transform="translate(484.81,431.96)" d="M8.93,0A8.93,8.93 0 1,1 0,-8.93A8.93,8.93 0 0,1 8.93,0Z" style="opacity: 1; stroke-width: 0px; fill: rgb(201, 201, 201); fill-opacity: 1;"/><path class="point" transform="translate(484.81,506.43)" d="M8.93,0A8.93,8.93 0 1,1 0,-8.93A8.93,8.93 0 0,1 8.93,0Z" style="opacity: 1; stroke-width: 0px; fill: rgb(201, 201, 201); fill-opacity: 1;"/><path class="point" transform="translate(484.81,580.91)" d="M8.93,0A8.93,8.93 0 1,1 0,-8.93A8.93,8.93 0 0,1 8.93,0Z" style="opacity: 1; stroke-width: 0px; fill: rgb(201, 201, 201); fill-opacity: 1;"/><path class="point" transform="translate(541.85,357.48)" d="M8.93,0A8.93,8.93 0 1,1 0,-8.93A8.93,8.93 0 0,1 8.93,0Z" style="opacity: 1; stroke-width: 0px; fill: rgb(201, 201, 201); fill-opacity: 1;"/><path class="point" transform="translate(541.85,431.96)" d="M8.93,0A8.93,8.93 0 1,1 0,-8.93A8.93,8.93 0 0,1 8.93,0Z" style="opacity: 1; stroke-width: 0px; fill: rgb(201, 201, 201); fill-opacity: 1;"/><path class="point" transform="translate(541.85,506.43)" d="M8.93,0A8.93,8.93 0 1,1 0,-8.93A8.93,8.93 0 0,1 8.93,0Z" style="opacity: 1; stroke-width: 0px; fill: rgb(201, 201, 201); fill-opacity: 1;"/><path class="point" transform="translate(541.85,580.91)" d="M8.93,0A8.93,8.93 0 1,1 0,-8.93A8.93,8.93 0 0,1 8.93,0Z" style="opacity: 1; stroke-width: 0px; fill: rgb(201, 201, 201); fill-opacity: 1;"/><path class="point" transform="translate(598.89,357.48)" d="M8.93,0A8.93,8.93 0 1,1 0,-8.93A8.93,8.93 0 0,1 8.93,0Z" style="opacity: 1; stroke-width: 0px; fill: rgb(201, 201, 201); fill-opacity: 1;"/><path class="point" transform="translate(598.89,431.96)" d="M8.93,0A8.93,8.93 0 1,1 0,-8.93A8.93,8.93 0 0,1 8.93,0Z" style="opacity: 1; stroke-width: 0px; fill: rgb(201, 201, 201); fill-opacity: 1;"/><path class="point" transform="translate(598.89,506.43)" d="M8.93,0A8.93,8.93 0 1,1 0,-8.93A8.93,8.93 0 0,1 8.93,0Z" style="opacity: 1; stroke-width: 0px; fill: rgb(201, 201, 201); fill-opacity: 1;"/><path class="point" transform="translate(598.89,580.91)" d="M8.93,0A8.93,8.93 0 1,1 0,-8.93A8.93,8.93 0 0,1 8.93,0Z" style="opacity: 1; stroke-width: 0px; fill: rgb(201, 201, 201); fill-opacity: 1;"/><path class="point" transform="translate(655.93,357.48)" d="M8.93,0A8.93,8.93 0 1,1 0,-8.93A8.93,8.93 0 0,1 8.93,0Z" style="opacity: 1; stroke-width: 0px; fill: rgb(201, 201, 201); fill-opacity: 1;"/><path class="point" transform="translate(655.93,431.96)" d="M8.93,0A8.93,8.93 0 1,1 0,-8.93A8.93,8.93 0 0,1 8.93,0Z" style="opacity: 1; stroke-width: 0px; fill: rgb(201, 201, 201); fill-opacity: 1;"/><path class="point" transform="translate(655.93,506.43)" d="M8.93,0A8.93,8.93 0 1,1 0,-8.93A8.93,8.93 0 0,1 8.93,0Z" style="opacity: 1; stroke-width: 0px; fill: rgb(201, 201, 201); fill-opacity: 1;"/><path class="point" transform="translate(655.93,580.91)" d="M8.93,0A8.93,8.93 0 1,1 0,-8.93A8.93,8.93 0 0,1 8.93,0Z" style="opacity: 1; stroke-width: 0px; fill: rgb(201, 201, 201); fill-opacity: 1;"/><path class="point" transform="translate(712.96,357.48)" d="M8.93,0A8.93,8.93 0 1,1 0,-8.93A8.93,8.93 0 0,1 8.93,0Z" style="opacity: 1; stroke-width: 0px; fill: rgb(201, 201, 201); fill-opacity: 1;"/><path class="point" transform="translate(712.96,431.96)" d="M8.93,0A8.93,8.93 0 1,1 0,-8.93A8.93,8.93 0 0,1 8.93,0Z" style="opacity: 1; stroke-width: 0px; fill: rgb(201, 201, 201); fill-opacity: 1;"/><path class="point" transform="translate(712.96,506.43)" d="M8.93,0A8.93,8.93 0 1,1 0,-8.93A8.93,8.93 0 0,1 8.93,0Z" style="opacity: 1; stroke-width: 0px; fill: rgb(201, 201, 201); fill-opacity: 1;"/><path class="point" transform="translate(712.96,580.91)" d="M8.93,0A8.93,8.93 0 1,1 0,-8.93A8.93,8.93 0 0,1 8.93,0Z" style="opacity: 1; stroke-width: 0px; fill: rgb(201, 201, 201); fill-opacity: 1;"/></g><g class="text"/></g><g class="trace scatter tracec0a78a" style="stroke-miterlimit: 2; opacity: 1;"><g class="fills"/><g class="errorbars"/><g class="lines"/><g class="points"><path class="point" transform="translate(370.74,357.48)" d="M8.93,0A8.93,8.93 0 1,1 0,-8.93A8.93,8.93 0 0,1 8.93,0Z" style="opacity: 1; stroke-width: 0px; fill: rgb(0, 0, 0); fill-opacity: 1;"/></g><g class="text"/></g><g class="trace scatter traced078d6" style="stroke-miterlimit: 2; opacity: 1;"><g class="fills"/><g class="errorbars"/><g class="lines"/><g class="points"><path class="point" transform="translate(370.74,357.48)" d="M8.93,0A8.93,8.93 0 1,1 0,-8.93A8.93,8.93 0 0,1 8.93,0Z" style="opacity: 1; stroke-width: 0px; fill: rgb(0, 0, 0); fill-opacity: 1;"/><path class="point" transform="translate(370.74,431.96)" d="M8.93,0A8.93,8.93 0 1,1 0,-8.93A8.93,8.93 0 0,1 8.93,0Z" style="opacity: 1; stroke-width: 0px; fill: rgb(0, 0, 0); fill-opacity: 1;"/></g><g class="text"/></g><g class="trace scatter tracedc413c" style="stroke-miterlimit: 2; opacity: 1;"><g class="fills"/><g class="errorbars"/><g class="lines"/><g class="points"><path class="point" transform="translate(370.74,357.48)" d="M8.93,0A8.93,8.93 0 1,1 0,-8.93A8.93,8.93 0 0,1 8.93,0Z" style="opacity: 1; stroke-width: 0px; fill: rgb(0, 0, 0); fill-opacity: 1;"/><path class="point" transform="translate(370.74,431.96)" d="M8.93,0A8.93,8.93 0 1,1 0,-8.93A8.93,8.93 0 0,1 8.93,0Z" style="opacity: 1; stroke-width: 0px; fill: rgb(0, 0, 0); fill-opacity: 1;"/><path class="point" transform="translate(370.74,506.43)" d="M8.93,0A8.93,8.93 0 1,1 0,-8.93A8.93,8.93 0 0,1 8.93,0Z" style="opacity: 1; stroke-width: 0px; fill: rgb(0, 0, 0); fill-opacity: 1;"/></g><g class="text"/></g><g class="trace scatter tracede8b30" style="stroke-miterlimit: 2; opacity: 1;"><g class="fills"/><g class="errorbars"/><g class="lines"/><g class="points"><path class="point" transform="translate(370.74,357.48)" d="M8.93,0A8.93,8.93 0 1,1 0,-8.93A8.93,8.93 0 0,1 8.93,0Z" style="opacity: 1; stroke-width: 0px; fill: rgb(0, 0, 0); fill-opacity: 1;"/><path class="point" transform="translate(370.74,431.96)" d="M8.93,0A8.93,8.93 0 1,1 0,-8.93A8.93,8.93 0 0,1 8.93,0Z" style="opacity: 1; stroke-width: 0px; fill: rgb(0, 0, 0); fill-opacity: 1;"/><path class="point" transform="translate(370.74,506.43)" d="M8.93,0A8.93,8.93 0 1,1 0,-8.93A8.93,8.93 0 0,1 8.93,0Z" style="opacity: 1; stroke-width: 0px; fill: rgb(0, 0, 0); fill-opacity: 1;"/><path class="point" transform="translate(370.74,580.91)" d="M8.93,0A8.93,8.93 0 1,1 0,-8.93A8.93,8.93 0 0,1 8.93,0Z" style="opacity: 1; stroke-width: 0px; fill: rgb(0, 0, 0); fill-opacity: 1;"/></g><g class="text"/></g><g class="trace scatter traced1632b" style="stroke-miterlimit: 2; opacity: 1;"><g class="fills"/><g class="errorbars"/><g class="lines"/><g class="points"><path class="point" transform="translate(427.78,357.48)" d="M8.93,0A8.93,8.93 0 1,1 0,-8.93A8.93,8.93 0 0,1 8.93,0Z" style="opacity: 1; stroke-width: 0px; fill: rgb(0, 0, 0); fill-opacity: 1;"/></g><g class="text"/></g><g class="trace scatter trace081a4f" style="stroke-miterlimit: 2; opacity: 1;"><g class="fills"/><g class="errorbars"/><g class="lines"/><g class="points"><path class="point" transform="translate(484.81,357.48)" d="M8.93,0A8.93,8.93 0 1,1 0,-8.93A8.93,8.93 0 0,1 8.93,0Z" style="opacity: 1; stroke-width: 0px; fill: rgb(0, 0, 0); fill-opacity: 1;"/></g><g class="text"/></g><g class="trace scatter tracee0c12a" style="stroke-miterlimit: 2; opacity: 1;"><g class="fills"/><g class="errorbars"/><g class="lines"/><g class="points"><path class="point" transform="translate(484.81,357.48)" d="M8.93,0A8.93,8.93 0 1,1 0,-8.93A8.93,8.93 0 0,1 8.93,0Z" style="opacity: 1; stroke-width: 0px; fill: rgb(0, 0, 0); fill-opacity: 1;"/><path class="point" transform="translate(484.81,431.96)" d="M8.93,0A8.93,8.93 0 1,1 0,-8.93A8.93,8.93 0 0,1 8.93,0Z" style="opacity: 1; stroke-width: 0px; fill: rgb(0, 0, 0); fill-opacity: 1;"/></g><g class="text"/></g><g class="trace scatter trace7c4d14" style="stroke-miterlimit: 2; opacity: 1;"><g class="fills"/><g class="errorbars"/><g class="lines"/><g class="points"><path class="point" transform="translate(541.85,506.43)" d="M8.93,0A8.93,8.93 0 1,1 0,-8.93A8.93,8.93 0 0,1 8.93,0Z" style="opacity: 1; stroke-width: 0px; fill: rgb(0, 0, 0); fill-opacity: 1;"/></g><g class="text"/></g><g class="trace scatter tracec0cd4b" style="stroke-miterlimit: 2; opacity: 1;"><g class="fills"/><g class="errorbars"/><g class="lines"/><g class="points"><path class="point" transform="translate(598.89,357.48)" d="M8.93,0A8.93,8.93 0 1,1 0,-8.93A8.93,8.93 0 0,1 8.93,0Z" style="opacity: 1; stroke-width: 0px; fill: rgb(0, 0, 0); fill-opacity: 1;"/></g><g class="text"/></g><g class="trace scatter trace96c80b" style="stroke-miterlimit: 2; opacity: 1;"><g class="fills"/><g class="errorbars"/><g class="lines"/><g class="points"><path class="point" transform="translate(598.89,357.48)" d="M8.93,0A8.93,8.93 0 1,1 0,-8.93A8.93,8.93 0 0,1 8.93,0Z" style="opacity: 1; stroke-width: 0px; fill: rgb(0, 0, 0); fill-opacity: 1;"/><path class="point" transform="translate(598.89,506.43)" d="M8.93,0A8.93,8.93 0 1,1 0,-8.93A8.93,8.93 0 0,1 8.93,0Z" style="opacity: 1; stroke-width: 0px; fill: rgb(0, 0, 0); fill-opacity: 1;"/></g><g class="text"/></g><g class="trace scatter trace2b9b61" style="stroke-miterlimit: 2; opacity: 1;"><g class="fills"/><g class="errorbars"/><g class="lines"/><g class="points"><path class="point" transform="translate(655.93,357.48)" d="M8.93,0A8.93,8.93 0 1,1 0,-8.93A8.93,8.93 0 0,1 8.93,0Z" style="opacity: 1; stroke-width: 0px; fill: rgb(0, 0, 0); fill-opacity: 1;"/></g><g class="text"/></g><g class="trace scatter trace37e65e" style="stroke-miterlimit: 2; opacity: 1;"><g class="fills"/><g class="errorbars"/><g class="lines"/><g class="points"><path class="point" transform="translate(655.93,357.48)" d="M8.93,0A8.93,8.93 0 1,1 0,-8.93A8.93,8.93 0 0,1 8.93,0Z" style="opacity: 1; stroke-width: 0px; fill: rgb(0, 0, 0); fill-opacity: 1;"/><path class="point" transform="translate(655.93,431.96)" d="M8.93,0A8.93,8.93 0 1,1 0,-8.93A8.93,8.93 0 0,1 8.93,0Z" style="opacity: 1; stroke-width: 0px; fill: rgb(0, 0, 0); fill-opacity: 1;"/></g><g class="text"/></g><g class="trace scatter trace95f54b" style="stroke-miterlimit: 2; opacity: 1;"><g class="fills"/><g class="errorbars"/><g class="lines"/><g class="points"><path class="point" transform="translate(655.93,357.48)" d="M8.93,0A8.93,8.93 0 1,1 0,-8.93A8.93,8.93 0 0,1 8.93,0Z" style="opacity: 1; stroke-width: 0px; fill: rgb(0, 0, 0); fill-opacity: 1;"/><path class="point" transform="translate(655.93,431.96)" d="M8.93,0A8.93,8.93 0 1,1 0,-8.93A8.93,8.93 0 0,1 8.93,0Z" style="opacity: 1; stroke-width: 0px; fill: rgb(0, 0, 0); fill-opacity: 1;"/><path class="point" transform="translate(655.93,506.43)" d="M8.93,0A8.93,8.93 0 1,1 0,-8.93A8.93,8.93 0 0,1 8.93,0Z" style="opacity: 1; stroke-width: 0px; fill: rgb(0, 0, 0); fill-opacity: 1;"/></g><g class="text"/></g><g class="trace scatter trace5be531" style="stroke-miterlimit: 2; opacity: 1;"><g class="fills"/><g class="errorbars"/><g class="lines"/><g class="points"><path class="point" transform="translate(712.96,357.48)" d="M8.93,0A8.93,8.93 0 1,1 0,-8.93A8.93,8.93 0 0,1 8.93,0Z" style="opacity: 1; stroke-width: 0px; fill: rgb(0, 0, 0); fill-opacity: 1;"/></g><g class="text"/></g><g class="trace scatter trace13b323" style="stroke-miterlimit: 2; opacity: 1;"><g class="fills"/><g class="errorbars"/><g class="lines"/><g class="points"><path class="point" transform="translate(712.96,357.48)" d="M8.93,0A8.93,8.93 0 1,1 0,-8.93A8.93,8.93 0 0,1 8.93,0Z" style="opacity: 1; stroke-width: 0px; fill: rgb(0, 0, 0); fill-opacity: 1;"/><path class="point" transform="translate(712.96,431.96)" d="M8.93,0A8.93,8.93 0 1,1 0,-8.93A8.93,8.93 0 0,1 8.93,0Z" style="opacity: 1; stroke-width: 0px; fill: rgb(0, 0, 0); fill-opacity: 1;"/></g><g class="text"/></g><g class="trace scatter trace4cbc3d" style="stroke-miterlimit: 2; opacity: 1;"><g class="fills"/><g class="errorbars"/><g class="lines"/><g class="points"><path class="point" transform="translate(712.96,357.48)" d="M8.93,0A8.93,8.93 0 1,1 0,-8.93A8.93,8.93 0 0,1 8.93,0Z" style="opacity: 1; stroke-width: 0px; fill: rgb(0, 0, 0); fill-opacity: 1;"/><path class="point" transform="translate(712.96,431.96)" d="M8.93,0A8.93,8.93 0 1,1 0,-8.93A8.93,8.93 0 0,1 8.93,0Z" style="opacity: 1; stroke-width: 0px; fill: rgb(0, 0, 0); fill-opacity: 1;"/><path class="point" transform="translate(712.96,580.91)" d="M8.93,0A8.93,8.93 0 1,1 0,-8.93A8.93,8.93 0 0,1 8.93,0Z" style="opacity: 1; stroke-width: 0px; fill: rgb(0, 0, 0); fill-opacity: 1;"/></g><g class="text"/></g><g class="trace scatter traceda2184" style="stroke-miterlimit: 2; opacity: 1;"><g class="fills"/><g class="errorbars"/><g class="lines"/><g class="points"/><g class="text"><g class="textpoint" transform="translate(0,3)"><text x="342.22" y="357.48" text-anchor="end" style="font-family: 'Open Sans', verdana, arial, sans-serif; font-size: 12px; fill: rgb(42, 63, 95); fill-opacity: 1; white-space: pre;">m9-EX_glc_e7.44_BAR-Function-1</text></g><g class="textpoint" transform="translate(0,3)"><text x="342.22" y="431.96" text-anchor="end" style="font-family: 'Open Sans', verdana, arial, sans-serif; font-size: 12px; fill: rgb(42, 63, 95); fill-opacity: 1; white-space: pre;">m9-EX_T4hcinnm_e4.04_BAR-Function-1</text></g><g class="textpoint" transform="translate(0,3)"><text x="342.22" y="506.43" text-anchor="end" style="font-family: 'Open Sans', verdana, arial, sans-serif; font-size: 12px; fill: rgb(42, 63, 95); fill-opacity: 1; white-space: pre;">m9-EX_fer_e2.91_BAR-Function-1</text></g><g class="textpoint" transform="translate(0,3)"><text x="342.22" y="580.91" text-anchor="end" style="font-family: 'Open Sans', verdana, arial, sans-serif; font-size: 12px; fill: rgb(42, 63, 95); fill-opacity: 1; white-space: pre;">m9-EX_T4hcinnm_e2.02-EX_fer_e1.4505_BAR-Function-1</text></g></g></g></g></g><g class="overplot"/><path class="xlines-above crisp" d="M0,0" style="fill: none;"/><path class="ylines-above crisp" d="M0,0" style="fill: none;"/><g class="overlines-above"/><g class="xaxislayer-above"/><g class="yaxislayer-above"/><g class="overaxes-above"/></g></g><g class="polarlayer"/><g class="smithlayer"/><g class="ternarylayer"/><g class="geolayer"/><g class="funnelarealayer"/><g class="pielayer"/><g class="iciclelayer"/><g class="treemaplayer"/><g class="sunburstlayer"/><g class="glimages"/><defs id="topdefs-67e8a4"><g class="clips"/></defs><g class="layer-above"><g class="imagelayer"/><g class="shapelayer"/></g><g class="infolayer"><g class="g-gtitle"><text class="gtitle" x="500" y="20" text-anchor="middle" dy="0em" style="font-family: 'Open Sans', verdana, arial, sans-serif; font-size: 17px; fill: rgb(42, 63, 95); opacity: 1; font-weight: normal; white-space: pre;"><tspan style="font-weight:bold">Intersections<tspan style="font-weight:bold"></tspan></tspan></text></g><g class="g-xtitle"/><g class="g-ytitle"/></g></svg>