<svg class="main-svg" xmlns="http://www.w3.org/2000/svg" xmlns:xlink="http://www.w3.org/1999/xlink" width="1000" height="800" style="" viewBox="0 0 1000 800"><rect x="0" y="0" width="1000" height="800" style="fill: rgb(255, 255, 255); fill-opacity: 1;"/><defs id="defs-e60bc1"><g class="clips"><clipPath id="clipe60bc1xyplot" class="plotclip"><rect width="770" height="680"/></clipPath><clipPath class="axesclip" id="clipe60bc1x"><rect x="150" y="0" width="770" height="800"/></clipPath><clipPath class="axesclip" id="clipe60bc1y"><rect x="0" y="40" width="1000" height="680"/></clipPath><clipPath class="axesclip" id="clipe60bc1xy"><rect x="150" y="40" width="770" height="680"/></clipPath></g><g class="gradients"/><g class="patterns"/></defs><g class="bglayer"><rect class="bg" x="150" y="40" width="770" height="680" style="fill: rgb(255, 255, 255); fill-opacity: 1; stroke-width: 0;"/></g><g class="layer-below"><g class="imagelayer"/><g class="shapelayer"/></g><g class="cartesianlayer"><g class="subplot xy"><g class="layer-subplot"><g class="shapelayer"/><g class="imagelayer"/></g><g class="minor-gridlayer"><g class="x"/><g class="y"/></g><g class="gridlayer"><g class="x"/><g class="y"><path class="ygrid crisp" transform="translate(0,671.74)" d="M150,0h770" style="stroke: rgb(255, 255, 255); stroke-opacity: 1; stroke-width: 1px;"/><path class="ygrid crisp" transform="translate(0,572.84)" d="M150,0h770" style="stroke: rgb(255, 255, 255); stroke-opacity: 1; stroke-width: 1px;"/><path class="ygrid crisp" transform="translate(0,473.95)" d="M150,0h770" style="stroke: rgb(255, 255, 255); stroke-opacity: 1; stroke-width: 1px;"/><path class="ygrid crisp" transform="translate(0,375.06)" d="M150,0h770" style="stroke: rgb(255, 255, 255); stroke-opacity: 1; stroke-width: 1px;"/><path class="ygrid crisp" transform="translate(0,276.15999999999997)" d="M150,0h770" style="stroke: rgb(255, 255, 255); stroke-opacity: 1; stroke-width: 1px;"/><path class="ygrid crisp" transform="translate(0,177.27)" d="M150,0h770" style="stroke: rgb(255, 255, 255); stroke-opacity: 1; stroke-width: 1px;"/><path class="ygrid crisp" transform="translate(0,78.37)" d="M150,0h770" style="stroke: rgb(255, 255, 255); stroke-opacity: 1; stroke-width: 1px;"/></g></g><g class="zerolinelayer"/><path class="xlines-below"/><path class="ylines-below"/><g class="overlines-below"/><g class="xaxislayer-below"/><g class="yaxislayer-below"/><g class="overaxes-below"/><g class="plot" transform="translate(150,40)" clip-path="url(#clipe60bc1xyplot)"><g class="barlayer mlayer"><g class="trace bars" style="opacity: 1;"><g class="points"><g class="point"><path d="M268.4,335.06V58.15H303.6V335.06Z" style="vector-effect: non-scaling-stroke; opacity: 1; stroke-width: 0.5px; fill: rgb(0, 0, 0); fill-opacity: 1; stroke: rgb(229, 236, 246); stroke-opacity: 1;"/><text class="bartext bartext-outside" text-anchor="middle" data-notex="1" x="0" y="0" style="font-family: 'Open Sans', verdana, arial, sans-serif; font-size: 12px; fill: rgb(42, 63, 95); fill-opacity: 1; white-space: pre;" transform="translate(285.84375,52.15)">28</text></g><g class="point"><path d="M312.4,335.06V315.28H347.6V335.06Z" style="vector-effect: non-scaling-stroke; opacity: 1; stroke-width: 0.5px; fill: rgb(0, 0, 0); fill-opacity: 1; stroke: rgb(229, 236, 246); stroke-opacity: 1;"/><text class="bartext bartext-outside" text-anchor="middle" data-notex="1" x="0" y="0" style="font-family: 'Open Sans', verdana, arial, sans-serif; font-size: 12px; fill: rgb(42, 63, 95); fill-opacity: 1; white-space: pre;" transform="translate(329.8359375,309.28)">2</text></g><g class="point"><path d="M356.4,335.06V315.28H391.6V335.06Z" style="vector-effect: non-scaling-stroke; opacity: 1; stroke-width: 0.5px; fill: rgb(0, 0, 0); fill-opacity: 1; stroke: rgb(229, 236, 246); stroke-opacity: 1;"/><text class="bartext bartext-outside" text-anchor="middle" data-notex="1" x="0" y="0" style="font-family: 'Open Sans', verdana, arial, sans-serif; font-size: 12px; fill: rgb(42, 63, 95); fill-opacity: 1; white-space: pre;" transform="translate(373.8359375,309.28)">2</text></g><g class="point"><path d="M400.4,335.06V315.28H435.6V335.06Z" style="vector-effect: non-scaling-stroke; opacity: 1; stroke-width: 0.5px; fill: rgb(0, 0, 0); fill-opacity: 1; stroke: rgb(229, 236, 246); stroke-opacity: 1;"/><text class="bartext bartext-outside" text-anchor="middle" data-notex="1" x="0" y="0" style="font-family: 'Open Sans', verdana, arial, sans-serif; font-size: 12px; fill: rgb(42, 63, 95); fill-opacity: 1; white-space: pre;" transform="translate(417.8359375,309.28)">2</text></g><g class="point"><path d="M444.4,335.06V315.28H479.6V335.06Z" style="vector-effect: non-scaling-stroke; opacity: 1; stroke-width: 0.5px; fill: rgb(0, 0, 0); fill-opacity: 1; stroke: rgb(229, 236, 246); stroke-opacity: 1;"/><text class="bartext bartext-outside" text-anchor="middle" data-notex="1" x="0" y="0" style="font-family: 'Open Sans', verdana, arial, sans-serif; font-size: 12px; fill: rgb(42, 63, 95); fill-opacity: 1; white-space: pre;" transform="translate(461.8359375,309.28)">2</text></g><g class="point"><path d="M488.4,335.06V315.28H523.6V335.06Z" style="vector-effect: non-scaling-stroke; opacity: 1; stroke-width: 0.5px; fill: rgb(0, 0, 0); fill-opacity: 1; stroke: rgb(229, 236, 246); stroke-opacity: 1;"/><text class="bartext bartext-outside" text-anchor="middle" data-notex="1" x="0" y="0" style="font-family: 'Open Sans', verdana, arial, sans-serif; font-size: 12px; fill: rgb(42, 63, 95); fill-opacity: 1; white-space: pre;" transform="translate(505.8359375,309.28)">2</text></g><g class="point"><path d="M532.4,335.06V325.17H567.6V335.06Z" style="vector-effect: non-scaling-stroke; opacity: 1; stroke-width: 0.5px; fill: rgb(0, 0, 0); fill-opacity: 1; stroke: rgb(229, 236, 246); stroke-opacity: 1;"/><text class="bartext bartext-outside" text-anchor="middle" data-notex="1" x="0" y="0" style="font-family: 'Open Sans', verdana, arial, sans-serif; font-size: 12px; fill: rgb(42, 63, 95); fill-opacity: 1; white-space: pre;" transform="translate(549.8359375,319.17)">1</text></g><g class="point"><path d="M576.4,335.06V325.17H611.6V335.06Z" style="vector-effect: non-scaling-stroke; opacity: 1; stroke-width: 0.5px; fill: rgb(0, 0, 0); fill-opacity: 1; stroke: rgb(229, 236, 246); stroke-opacity: 1;"/><text class="bartext bartext-outside" text-anchor="middle" data-notex="1" x="0" y="0" style="font-family: 'Open Sans', verdana, arial, sans-serif; font-size: 12px; fill: rgb(42, 63, 95); fill-opacity: 1; white-space: pre;" transform="translate(593.8359375,319.17)">1</text></g><g class="point"><path d="M620.4,335.06V325.17H655.6V335.06Z" style="vector-effect: non-scaling-stroke; opacity: 1; stroke-width: 0.5px; fill: rgb(0, 0, 0); fill-opacity: 1; stroke: rgb(229, 236, 246); stroke-opacity: 1;"/><text class="bartext bartext-outside" text-anchor="middle" data-notex="1" x="0" y="0" style="font-family: 'Open Sans', verdana, arial, sans-serif; font-size: 12px; fill: rgb(42, 63, 95); fill-opacity: 1; white-space: pre;" transform="translate(637.8359375,319.17)">1</text></g><g class="point"><path d="M664.4,335.06V325.17H699.6V335.06Z" style="vector-effect: non-scaling-stroke; opacity: 1; stroke-width: 0.5px; fill: rgb(0, 0, 0); fill-opacity: 1; stroke: rgb(229, 236, 246); stroke-opacity: 1;"/><text class="bartext bartext-outside" text-anchor="middle" data-notex="1" x="0" y="0" style="font-family: 'Open Sans', verdana, arial, sans-serif; font-size: 12px; fill: rgb(42, 63, 95); fill-opacity: 1; white-space: pre;" transform="translate(681.8359375,319.17)">1</text></g><g class="point"><path d="M708.4,335.06V325.17H743.6V335.06Z" style="vector-effect: non-scaling-stroke; opacity: 1; stroke-width: 0.5px; fill: rgb(0, 0, 0); fill-opacity: 1; stroke: rgb(229, 236, 246); stroke-opacity: 1;"/><text class="bartext bartext-outside" text-anchor="middle" data-notex="1" x="0" y="0" style="font-family: 'Open Sans', verdana, arial, sans-serif; font-size: 12px; fill: rgb(42, 63, 95); fill-opacity: 1; white-space: pre;" transform="translate(725.8359375,319.17)">1</text></g></g></g></g><g class="scatterlayer mlayer"><g class="trace scatter trace5ca171" style="stroke-miterlimit: 2; opacity: 1;"><g class="fills"/><g class="errorbars"/><g class="lines"/><g class="points"><path class="point" transform="translate(286,365.51)" d="M5.68,0A5.68,5.68 0 1,1 0,-5.68A5.68,5.68 0 0,1 5.68,0Z" style="opacity: 1; stroke-width: 0px; fill: rgb(201, 201, 201); fill-opacity: 1;"/><path class="point" transform="translate(286,441.66)" d="M5.68,0A5.68,5.68 0 1,1 0,-5.68A5.68,5.68 0 0,1 5.68,0Z" style="opacity: 1; stroke-width: 0px; fill: rgb(201, 201, 201); fill-opacity: 1;"/><path class="point" transform="translate(286,517.81)" d="M5.68,0A5.68,5.68 0 1,1 0,-5.68A5.68,5.68 0 0,1 5.68,0Z" style="opacity: 1; stroke-width: 0px; fill: rgb(201, 201, 201); fill-opacity: 1;"/><path class="point" transform="translate(286,593.96)" d="M5.68,0A5.68,5.68 0 1,1 0,-5.68A5.68,5.68 0 0,1 5.68,0Z" style="opacity: 1; stroke-width: 0px; fill: rgb(201, 201, 201); fill-opacity: 1;"/><path class="point" transform="translate(330,365.51)" d="M5.68,0A5.68,5.68 0 1,1 0,-5.68A5.68,5.68 0 0,1 5.68,0Z" style="opacity: 1; stroke-width: 0px; fill: rgb(201, 201, 201); fill-opacity: 1;"/><path class="point" transform="translate(330,441.66)" d="M5.68,0A5.68,5.68 0 1,1 0,-5.68A5.68,5.68 0 0,1 5.68,0Z" style="opacity: 1; stroke-width: 0px; fill: rgb(201, 201, 201); fill-opacity: 1;"/><path class="point" transform="translate(330,517.81)" d="M5.68,0A5.68,5.68 0 1,1 0,-5.68A5.68,5.68 0 0,1 5.68,0Z" style="opacity: 1; stroke-width: 0px; fill: rgb(201, 201, 201); fill-opacity: 1;"/><path class="point" transform="translate(330,593.96)" d="M5.68,0A5.68,5.68 0 1,1 0,-5.68A5.68,5.68 0 0,1 5.68,0Z" style="opacity: 1; stroke-width: 0px; fill: rgb(201, 201, 201); fill-opacity: 1;"/><path class="point" transform="translate(374,365.51)" d="M5.68,0A5.68,5.68 0 1,1 0,-5.68A5.68,5.68 0 0,1 5.68,0Z" style="opacity: 1; stroke-width: 0px; fill: rgb(201, 201, 201); fill-opacity: 1;"/><path class="point" transform="translate(374,441.66)" d="M5.68,0A5.68,5.68 0 1,1 0,-5.68A5.68,5.68 0 0,1 5.68,0Z" style="opacity: 1; stroke-width: 0px; fill: rgb(201, 201, 201); fill-opacity: 1;"/><path class="point" transform="translate(374,517.81)" d="M5.68,0A5.68,5.68 0 1,1 0,-5.68A5.68,5.68 0 0,1 5.68,0Z" style="opacity: 1; stroke-width: 0px; fill: rgb(201, 201, 201); fill-opacity: 1;"/><path class="point" transform="translate(374,593.96)" d="M5.68,0A5.68,5.68 0 1,1 0,-5.68A5.68,5.68 0 0,1 5.68,0Z" style="opacity: 1; stroke-width: 0px; fill: rgb(201, 201, 201); fill-opacity: 1;"/><path class="point" transform="translate(418,365.51)" d="M5.68,0A5.68,5.68 0 1,1 0,-5.68A5.68,5.68 0 0,1 5.68,0Z" style="opacity: 1; stroke-width: 0px; fill: rgb(201, 201, 201); fill-opacity: 1;"/><path class="point" transform="translate(418,441.66)" d="M5.68,0A5.68,5.68 0 1,1 0,-5.68A5.68,5.68 0 0,1 5.68,0Z" style="opacity: 1; stroke-width: 0px; fill: rgb(201, 201, 201); fill-opacity: 1;"/><path class="point" transform="translate(418,517.81)" d="M5.68,0A5.68,5.68 0 1,1 0,-5.68A5.68,5.68 0 0,1 5.68,0Z" style="opacity: 1; stroke-width: 0px; fill: rgb(201, 201, 201); fill-opacity: 1;"/><path class="point" transform="translate(418,593.96)" d="M5.68,0A5.68,5.68 0 1,1 0,-5.68A5.68,5.68 0 0,1 5.68,0Z" style="opacity: 1; stroke-width: 0px; fill: rgb(201, 201, 201); fill-opacity: 1;"/><path class="point" transform="translate(462,365.51)" d="M5.68,0A5.68,5.68 0 1,1 0,-5.68A5.68,5.68 0 0,1 5.68,0Z" style="opacity: 1; stroke-width: 0px; fill: rgb(201, 201, 201); fill-opacity: 1;"/><path class="point" transform="translate(462,441.66)" d="M5.68,0A5.68,5.68 0 1,1 0,-5.68A5.68,5.68 0 0,1 5.68,0Z" style="opacity: 1; stroke-width: 0px; fill: rgb(201, 201, 201); fill-opacity: 1;"/><path class="point" transform="translate(462,517.81)" d="M5.68,0A5.68,5.68 0 1,1 0,-5.68A5.68,5.68 0 0,1 5.68,0Z" style="opacity: 1; stroke-width: 0px; fill: rgb(201, 201, 201); fill-opacity: 1;"/><path class="point" transform="translate(462,593.96)" d="M5.68,0A5.68,5.68 0 1,1 0,-5.68A5.68,5.68 0 0,1 5.68,0Z" style="opacity: 1; stroke-width: 0px; fill: rgb(201, 201, 201); fill-opacity: 1;"/><path class="point" transform="translate(506,365.51)" d="M5.68,0A5.68,5.68 0 1,1 0,-5.68A5.68,5.68 0 0,1 5.68,0Z" style="opacity: 1; stroke-width: 0px; fill: rgb(201, 201, 201); fill-opacity: 1;"/><path class="point" transform="translate(506,441.66)" d="M5.68,0A5.68,5.68 0 1,1 0,-5.68A5.68,5.68 0 0,1 5.68,0Z" style="opacity: 1; stroke-width: 0px; fill: rgb(201, 201, 201); fill-opacity: 1;"/><path class="point" transform="translate(506,517.81)" d="M5.68,0A5.68,5.68 0 1,1 0,-5.68A5.68,5.68 0 0,1 5.68,0Z" style="opacity: 1; stroke-width: 0px; fill: rgb(201, 201, 201); fill-opacity: 1;"/><path class="point" transform="translate(506,593.96)" d="M5.68,0A5.68,5.68 0 1,1 0,-5.68A5.68,5.68 0 0,1 5.68,0Z" style="opacity: 1; stroke-width: 0px; fill: rgb(201, 201, 201); fill-opacity: 1;"/><path class="point" transform="translate(550,365.51)" d="M5.68,0A5.68,5.68 0 1,1 0,-5.68A5.68,5.68 0 0,1 5.68,0Z" style="opacity: 1; stroke-width: 0px; fill: rgb(201, 201, 201); fill-opacity: 1;"/><path class="point" transform="translate(550,441.66)" d="M5.68,0A5.68,5.68 0 1,1 0,-5.68A5.68,5.68 0 0,1 5.68,0Z" style="opacity: 1; stroke-width: 0px; fill: rgb(201, 201, 201); fill-opacity: 1;"/><path class="point" transform="translate(550,517.81)" d="M5.68,0A5.68,5.68 0 1,1 0,-5.68A5.68,5.68 0 0,1 5.68,0Z" style="opacity: 1; stroke-width: 0px; fill: rgb(201, 201, 201); fill-opacity: 1;"/><path class="point" transform="translate(550,593.96)" d="M5.68,0A5.68,5.68 0 1,1 0,-5.68A5.68,5.68 0 0,1 5.68,0Z" style="opacity: 1; stroke-width: 0px; fill: rgb(201, 201, 201); fill-opacity: 1;"/><path class="point" transform="translate(594,365.51)" d="M5.68,0A5.68,5.68 0 1,1 0,-5.68A5.68,5.68 0 0,1 5.68,0Z" style="opacity: 1; stroke-width: 0px; fill: rgb(201, 201, 201); fill-opacity: 1;"/><path class="point" transform="translate(594,441.66)" d="M5.68,0A5.68,5.68 0 1,1 0,-5.68A5.68,5.68 0 0,1 5.68,0Z" style="opacity: 1; stroke-width: 0px; fill: rgb(201, 201, 201); fill-opacity: 1;"/><path class="point" transform="translate(594,517.81)" d="M5.68,0A5.68,5.68 0 1,1 0,-5.68A5.68,5.68 0 0,1 5.68,0Z" style="opacity: 1; stroke-width: 0px; fill: rgb(201, 201, 201); fill-opacity: 1;"/><path class="point" transform="translate(594,593.96)" d="M5.68,0A5.68,5.68 0 1,1 0,-5.68A5.68,5.68 0 0,1 5.68,0Z" style="opacity: 1; stroke-width: 0px; fill: rgb(201, 201, 201); fill-opacity: 1;"/><path class="point" transform="translate(638,365.51)" d="M5.68,0A5.68,5.68 0 1,1 0,-5.68A5.68,5.68 0 0,1 5.68,0Z" style="opacity: 1; stroke-width: 0px; fill: rgb(201, 201, 201); fill-opacity: 1;"/><path class="point" transform="translate(638,441.66)" d="M5.68,0A5.68,5.68 0 1,1 0,-5.68A5.68,5.68 0 0,1 5.68,0Z" style="opacity: 1; stroke-width: 0px; fill: rgb(201, 201, 201); fill-opacity: 1;"/><path class="point" transform="translate(638,517.81)" d="M5.68,0A5.68,5.68 0 1,1 0,-5.68A5.68,5.68 0 0,1 5.68,0Z" style="opacity: 1; stroke-width: 0px; fill: rgb(201, 201, 201); fill-opacity: 1;"/><path class="point" transform="translate(638,593.96)" d="M5.68,0A5.68,5.68 0 1,1 0,-5.68A5.68,5.68 0 0,1 5.68,0Z" style="opacity: 1; stroke-width: 0px; fill: rgb(201, 201, 201); fill-opacity: 1;"/><path class="point" transform="translate(682,365.51)" d="M5.68,0A5.68,5.68 0 1,1 0,-5.68A5.68,5.68 0 0,1 5.68,0Z" style="opacity: 1; stroke-width: 0px; fill: rgb(201, 201, 201); fill-opacity: 1;"/><path class="point" transform="translate(682,441.66)" d="M5.68,0A5.68,5.68 0 1,1 0,-5.68A5.68,5.68 0 0,1 5.68,0Z" style="opacity: 1; stroke-width: 0px; fill: rgb(201, 201, 201); fill-opacity: 1;"/><path class="point" transform="translate(682,517.81)" d="M5.68,0A5.68,5.68 0 1,1 0,-5.68A5.68,5.68 0 0,1 5.68,0Z" style="opacity: 1; stroke-width: 0px; fill: rgb(201, 201, 201); fill-opacity: 1;"/><path class="point" transform="translate(682,593.96)" d="M5.68,0A5.68,5.68 0 1,1 0,-5.68A5.68,5.68 0 0,1 5.68,0Z" style="opacity: 1; stroke-width: 0px; fill: rgb(201, 201, 201); fill-opacity: 1;"/><path class="point" transform="translate(726,365.51)" d="M5.68,0A5.68,5.68 0 1,1 0,-5.68A5.68,5.68 0 0,1 5.68,0Z" style="opacity: 1; stroke-width: 0px; fill: rgb(201, 201, 201); fill-opacity: 1;"/><path class="point" transform="translate(726,441.66)" d="M5.68,0A5.68,5.68 0 1,1 0,-5.68A5.68,5.68 0 0,1 5.68,0Z" style="opacity: 1; stroke-width: 0px; fill: rgb(201, 201, 201); fill-opacity: 1;"/><path class="point" transform="translate(726,517.81)" d="M5.68,0A5.68,5.68 0 1,1 0,-5.68A5.68,5.68 0 0,1 5.68,0Z" style="opacity: 1; stroke-width: 0px; fill: rgb(201, 201, 201); fill-opacity: 1;"/><path class="point" transform="translate(726,593.96)" d="M5.68,0A5.68,5.68 0 1,1 0,-5.68A5.68,5.68 0 0,1 5.68,0Z" style="opacity: 1; stroke-width: 0px; fill: rgb(201, 201, 201); fill-opacity: 1;"/></g><g class="text"/></g><g class="trace scatter trace25a70c" style="stroke-miterlimit: 2; opacity: 1;"><g class="fills"/><g class="errorbars"/><g class="lines"/><g class="points"><path class="point" transform="translate(286,365.51)" d="M5.68,0A5.68,5.68 0 1,1 0,-5.68A5.68,5.68 0 0,1 5.68,0Z" style="opacity: 1; stroke-width: 0px; fill: rgb(0, 0, 0); fill-opacity: 1;"/></g><g class="text"/></g><g class="trace scatter traceb0a613" style="stroke-miterlimit: 2; opacity: 1;"><g class="fills"/><g class="errorbars"/><g class="lines"/><g class="points"><path class="point" transform="translate(286,365.51)" d="M5.68,0A5.68,5.68 0 1,1 0,-5.68A5.68,5.68 0 0,1 5.68,0Z" style="opacity: 1; stroke-width: 0px; fill: rgb(0, 0, 0); fill-opacity: 1;"/><path class="point" transform="translate(286,441.66)" d="M5.68,0A5.68,5.68 0 1,1 0,-5.68A5.68,5.68 0 0,1 5.68,0Z" style="opacity: 1; stroke-width: 0px; fill: rgb(0, 0, 0); fill-opacity: 1;"/></g><g class="text"/></g><g class="trace scatter trace79cb41" style="stroke-miterlimit: 2; opacity: 1;"><g class="fills"/><g class="errorbars"/><g class="lines"/><g class="points"><path class="point" transform="translate(286,365.51)" d="M5.68,0A5.68,5.68 0 1,1 0,-5.68A5.68,5.68 0 0,1 5.68,0Z" style="opacity: 1; stroke-width: 0px; fill: rgb(0, 0, 0); fill-opacity: 1;"/><path class="point" transform="translate(286,441.66)" d="M5.68,0A5.68,5.68 0 1,1 0,-5.68A5.68,5.68 0 0,1 5.68,0Z" style="opacity: 1; stroke-width: 0px; fill: rgb(0, 0, 0); fill-opacity: 1;"/><path class="point" transform="translate(286,517.81)" d="M5.68,0A5.68,5.68 0 1,1 0,-5.68A5.68,5.68 0 0,1 5.68,0Z" style="opacity: 1; stroke-width: 0px; fill: rgb(0, 0, 0); fill-opacity: 1;"/></g><g class="text"/></g><g class="trace scatter trace105bbe" style="stroke-miterlimit: 2; opacity: 1;"><g class="fills"/><g class="errorbars"/><g class="lines"/><g class="points"><path class="point" transform="translate(286,365.51)" d="M5.68,0A5.68,5.68 0 1,1 0,-5.68A5.68,5.68 0 0,1 5.68,0Z" style="opacity: 1; stroke-width: 0px; fill: rgb(0, 0, 0); fill-opacity: 1;"/><path class="point" transform="translate(286,441.66)" d="M5.68,0A5.68,5.68 0 1,1 0,-5.68A5.68,5.68 0 0,1 5.68,0Z" style="opacity: 1; stroke-width: 0px; fill: rgb(0, 0, 0); fill-opacity: 1;"/><path class="point" transform="translate(286,517.81)" d="M5.68,0A5.68,5.68 0 1,1 0,-5.68A5.68,5.68 0 0,1 5.68,0Z" style="opacity: 1; stroke-width: 0px; fill: rgb(0, 0, 0); fill-opacity: 1;"/><path class="point" transform="translate(286,593.96)" d="M5.68,0A5.68,5.68 0 1,1 0,-5.68A5.68,5.68 0 0,1 5.68,0Z" style="opacity: 1; stroke-width: 0px; fill: rgb(0, 0, 0); fill-opacity: 1;"/></g><g class="text"/></g><g class="trace scatter trace78c564" style="stroke-miterlimit: 2; opacity: 1;"><g class="fills"/><g class="errorbars"/><g class="lines"/><g class="points"><path class="point" transform="translate(330,441.66)" d="M5.68,0A5.68,5.68 0 1,1 0,-5.68A5.68,5.68 0 0,1 5.68,0Z" style="opacity: 1; stroke-width: 0px; fill: rgb(0, 0, 0); fill-opacity: 1;"/></g><g class="text"/></g><g class="trace scatter trace698c10" style="stroke-miterlimit: 2; opacity: 1;"><g class="fills"/><g class="errorbars"/><g class="lines"/><g class="points"><path class="point" transform="translate(374,517.81)" d="M5.68,0A5.68,5.68 0 1,1 0,-5.68A5.68,5.68 0 0,1 5.68,0Z" style="opacity: 1; stroke-width: 0px; fill: rgb(0, 0, 0); fill-opacity: 1;"/></g><g class="text"/></g><g class="trace scatter tracef81f47" style="stroke-miterlimit: 2; opacity: 1;"><g class="fills"/><g class="errorbars"/><g class="lines"/><g class="points"><path class="point" transform="translate(418,365.51)" d="M5.68,0A5.68,5.68 0 1,1 0,-5.68A5.68,5.68 0 0,1 5.68,0Z" style="opacity: 1; stroke-width: 0px; fill: rgb(0, 0, 0); fill-opacity: 1;"/></g><g class="text"/></g><g class="trace scatter trace15da60" style="stroke-miterlimit: 2; opacity: 1;"><g class="fills"/><g class="errorbars"/><g class="lines"/><g class="points"><path class="point" transform="translate(418,365.51)" d="M5.68,0A5.68,5.68 0 1,1 0,-5.68A5.68,5.68 0 0,1 5.68,0Z" style="opacity: 1; stroke-width: 0px; fill: rgb(0, 0, 0); fill-opacity: 1;"/><path class="point" transform="translate(418,441.66)" d="M5.68,0A5.68,5.68 0 1,1 0,-5.68A5.68,5.68 0 0,1 5.68,0Z" style="opacity: 1; stroke-width: 0px; fill: rgb(0, 0, 0); fill-opacity: 1;"/></g><g class="text"/></g><g class="trace scatter trace2097c8" style="stroke-miterlimit: 2; opacity: 1;"><g class="fills"/><g class="errorbars"/><g class="lines"/><g class="points"><path class="point" transform="translate(462,365.51)" d="M5.68,0A5.68,5.68 0 1,1 0,-5.68A5.68,5.68 0 0,1 5.68,0Z" style="opacity: 1; stroke-width: 0px; fill: rgb(0, 0, 0); fill-opacity: 1;"/></g><g class="text"/></g><g class="trace scatter trace9a9c82" style="stroke-miterlimit: 2; opacity: 1;"><g class="fills"/><g class="errorbars"/><g class="lines"/><g class="points"><path class="point" transform="translate(462,365.51)" d="M5.68,0A5.68,5.68 0 1,1 0,-5.68A5.68,5.68 0 0,1 5.68,0Z" style="opacity: 1; stroke-width: 0px; fill: rgb(0, 0, 0); fill-opacity: 1;"/><path class="point" transform="translate(462,517.81)" d="M5.68,0A5.68,5.68 0 1,1 0,-5.68A5.68,5.68 0 0,1 5.68,0Z" style="opacity: 1; stroke-width: 0px; fill: rgb(0, 0, 0); fill-opacity: 1;"/></g><g class="text"/></g><g class="trace scatter tracec2a0bf" style="stroke-miterlimit: 2; opacity: 1;"><g class="fills"/><g class="errorbars"/><g class="lines"/><g class="points"><path class="point" transform="translate(506,365.51)" d="M5.68,0A5.68,5.68 0 1,1 0,-5.68A5.68,5.68 0 0,1 5.68,0Z" style="opacity: 1; stroke-width: 0px; fill: rgb(0, 0, 0); fill-opacity: 1;"/></g><g class="text"/></g><g class="trace scatter trace3b23df" style="stroke-miterlimit: 2; opacity: 1;"><g class="fills"/><g class="errorbars"/><g class="lines"/><g class="points"><path class="point" transform="translate(506,365.51)" d="M5.68,0A5.68,5.68 0 1,1 0,-5.68A5.68,5.68 0 0,1 5.68,0Z" style="opacity: 1; stroke-width: 0px; fill: rgb(0, 0, 0); fill-opacity: 1;"/><path class="point" transform="translate(506,441.66)" d="M5.68,0A5.68,5.68 0 1,1 0,-5.68A5.68,5.68 0 0,1 5.68,0Z" style="opacity: 1; stroke-width: 0px; fill: rgb(0, 0, 0); fill-opacity: 1;"/></g><g class="text"/></g><g class="trace scatter trace200493" style="stroke-miterlimit: 2; opacity: 1;"><g class="fills"/><g class="errorbars"/><g class="lines"/><g class="points"><path class="point" transform="translate(506,365.51)" d="M5.68,0A5.68,5.68 0 1,1 0,-5.68A5.68,5.68 0 0,1 5.68,0Z" style="opacity: 1; stroke-width: 0px; fill: rgb(0, 0, 0); fill-opacity: 1;"/><path class="point" transform="translate(506,441.66)" d="M5.68,0A5.68,5.68 0 1,1 0,-5.68A5.68,5.68 0 0,1 5.68,0Z" style="opacity: 1; stroke-width: 0px; fill: rgb(0, 0, 0); fill-opacity: 1;"/><path class="point" transform="translate(506,593.96)" d="M5.68,0A5.68,5.68 0 1,1 0,-5.68A5.68,5.68 0 0,1 5.68,0Z" style="opacity: 1; stroke-width: 0px; fill: rgb(0, 0, 0); fill-opacity: 1;"/></g><g class="text"/></g><g class="trace scatter trace35e6ea" style="stroke-miterlimit: 2; opacity: 1;"><g class="fills"/><g class="errorbars"/><g class="lines"/><g class="points"><path class="point" transform="translate(550,593.96)" d="M5.68,0A5.68,5.68 0 1,1 0,-5.68A5.68,5.68 0 0,1 5.68,0Z" style="opacity: 1; stroke-width: 0px; fill: rgb(0, 0, 0); fill-opacity: 1;"/></g><g class="text"/></g><g class="trace scatter tracebe2e12" style="stroke-miterlimit: 2; opacity: 1;"><g class="fills"/><g class="errorbars"/><g class="lines"/><g class="points"><path class="point" transform="translate(594,441.66)" d="M5.68,0A5.68,5.68 0 1,1 0,-5.68A5.68,5.68 0 0,1 5.68,0Z" style="opacity: 1; stroke-width: 0px; fill: rgb(0, 0, 0); fill-opacity: 1;"/></g><g class="text"/></g><g class="trace scatter trace748994" style="stroke-miterlimit: 2; opacity: 1;"><g class="fills"/><g class="errorbars"/><g class="lines"/><g class="points"><path class="point" transform="translate(594,441.66)" d="M5.68,0A5.68,5.68 0 1,1 0,-5.68A5.68,5.68 0 0,1 5.68,0Z" style="opacity: 1; stroke-width: 0px; fill: rgb(0, 0, 0); fill-opacity: 1;"/><path class="point" transform="translate(594,517.81)" d="M5.68,0A5.68,5.68 0 1,1 0,-5.68A5.68,5.68 0 0,1 5.68,0Z" style="opacity: 1; stroke-width: 0px; fill: rgb(0, 0, 0); fill-opacity: 1;"/></g><g class="text"/></g><g class="trace scatter trace68d0fc" style="stroke-miterlimit: 2; opacity: 1;"><g class="fills"/><g class="errorbars"/><g class="lines"/><g class="points"><path class="point" transform="translate(638,441.66)" d="M5.68,0A5.68,5.68 0 1,1 0,-5.68A5.68,5.68 0 0,1 5.68,0Z" style="opacity: 1; stroke-width: 0px; fill: rgb(0, 0, 0); fill-opacity: 1;"/></g><g class="text"/></g><g class="trace scatter tracebcd7f6" style="stroke-miterlimit: 2; opacity: 1;"><g class="fills"/><g class="errorbars"/><g class="lines"/><g class="points"><path class="point" transform="translate(638,441.66)" d="M5.68,0A5.68,5.68 0 1,1 0,-5.68A5.68,5.68 0 0,1 5.68,0Z" style="opacity: 1; stroke-width: 0px; fill: rgb(0, 0, 0); fill-opacity: 1;"/><path class="point" transform="translate(638,593.96)" d="M5.68,0A5.68,5.68 0 1,1 0,-5.68A5.68,5.68 0 0,1 5.68,0Z" style="opacity: 1; stroke-width: 0px; fill: rgb(0, 0, 0); fill-opacity: 1;"/></g><g class="text"/></g><g class="trace scatter trace9d9c4b" style="stroke-miterlimit: 2; opacity: 1;"><g class="fills"/><g class="errorbars"/><g class="lines"/><g class="points"><path class="point" transform="translate(682,365.51)" d="M5.68,0A5.68,5.68 0 1,1 0,-5.68A5.68,5.68 0 0,1 5.68,0Z" style="opacity: 1; stroke-width: 0px; fill: rgb(0, 0, 0); fill-opacity: 1;"/></g><g class="text"/></g><g class="trace scatter trace5c110e" style="stroke-miterlimit: 2; opacity: 1;"><g class="fills"/><g class="errorbars"/><g class="lines"/><g class="points"><path class="point" transform="translate(682,365.51)" d="M5.68,0A5.68,5.68 0 1,1 0,-5.68A5.68,5.68 0 0,1 5.68,0Z" style="opacity: 1; stroke-width: 0px; fill: rgb(0, 0, 0); fill-opacity: 1;"/><path class="point" transform="translate(682,441.66)" d="M5.68,0A5.68,5.68 0 1,1 0,-5.68A5.68,5.68 0 0,1 5.68,0Z" style="opacity: 1; stroke-width: 0px; fill: rgb(0, 0, 0); fill-opacity: 1;"/></g><g class="text"/></g><g class="trace scatter tracee0d750" style="stroke-miterlimit: 2; opacity: 1;"><g class="fills"/><g class="errorbars"/><g class="lines"/><g class="points"><path class="point" transform="translate(682,365.51)" d="M5.68,0A5.68,5.68 0 1,1 0,-5.68A5.68,5.68 0 0,1 5.68,0Z" style="opacity: 1; stroke-width: 0px; fill: rgb(0, 0, 0); fill-opacity: 1;"/><path class="point" transform="translate(682,441.66)" d="M5.68,0A5.68,5.68 0 1,1 0,-5.68A5.68,5.68 0 0,1 5.68,0Z" style="opacity: 1; stroke-width: 0px; fill: rgb(0, 0, 0); fill-opacity: 1;"/><path class="point" transform="translate(682,517.81)" d="M5.68,0A5.68,5.68 0 1,1 0,-5.68A5.68,5.68 0 0,1 5.68,0Z" style="opacity: 1; stroke-width: 0px; fill: rgb(0, 0, 0); fill-opacity: 1;"/></g><g class="text"/></g><g class="trace scatter traced8cedf" style="stroke-miterlimit: 2; opacity: 1;"><g class="fills"/><g class="errorbars"/><g class="lines"/><g class="points"><path class="point" transform="translate(726,365.51)" d="M5.68,0A5.68,5.68 0 1,1 0,-5.68A5.68,5.68 0 0,1 5.68,0Z" style="opacity: 1; stroke-width: 0px; fill: rgb(0, 0, 0); fill-opacity: 1;"/></g><g class="text"/></g><g class="trace scatter tracebbfa1e" style="stroke-miterlimit: 2; opacity: 1;"><g class="fills"/><g class="errorbars"/><g class="lines"/><g class="points"><path class="point" transform="translate(726,365.51)" d="M5.68,0A5.68,5.68 0 1,1 0,-5.68A5.68,5.68 0 0,1 5.68,0Z" style="opacity: 1; stroke-width: 0px; fill: rgb(0, 0, 0); fill-opacity: 1;"/><path class="point" transform="translate(726,517.81)" d="M5.68,0A5.68,5.68 0 1,1 0,-5.68A5.68,5.68 0 0,1 5.68,0Z" style="opacity: 1; stroke-width: 0px; fill: rgb(0, 0, 0); fill-opacity: 1;"/></g><g class="text"/></g><g class="trace scatter trace083226" style="stroke-miterlimit: 2; opacity: 1;"><g class="fills"/><g class="errorbars"/><g class="lines"/><g class="points"><path class="point" transform="translate(726,365.51)" d="M5.68,0A5.68,5.68 0 1,1 0,-5.68A5.68,5.68 0 0,1 5.68,0Z" style="opacity: 1; stroke-width: 0px; fill: rgb(0, 0, 0); fill-opacity: 1;"/><path class="point" transform="translate(726,517.81)" d="M5.68,0A5.68,5.68 0 1,1 0,-5.68A5.68,5.68 0 0,1 5.68,0Z" style="opacity: 1; stroke-width: 0px; fill: rgb(0, 0, 0); fill-opacity: 1;"/><path class="point" transform="translate(726,593.96)" d="M5.68,0A5.68,5.68 0 1,1 0,-5.68A5.68,5.68 0 0,1 5.68,0Z" style="opacity: 1; stroke-width: 0px; fill: rgb(0, 0, 0); fill-opacity: 1;"/></g><g class="text"/></g><g class="trace scatter trace0d9406" style="stroke-miterlimit: 2; opacity: 1;"><g class="fills"/><g class="errorbars"/><g class="lines"/><g class="points"/><g class="text"><g class="textpoint" transform="translate(0,3)"><text x="264" y="365.51" text-anchor="end" style="font-family: 'Open Sans', verdana, arial, sans-serif; font-size: 12px; fill: rgb(42, 63, 95); fill-opacity: 1; white-space: pre;">m9-EX_T4hcinnm_e4.04_BAR-Function-2</text></g><g class="textpoint" transform="translate(0,3)"><text x="264" y="441.66" text-anchor="end" style="font-family: 'Open Sans', verdana, arial, sans-serif; font-size: 12px; fill: rgb(42, 63, 95); fill-opacity: 1; white-space: pre;">m9-EX_fer_e2.91_BAR-Function-2</text></g><g class="textpoint" transform="translate(0,3)"><text x="264" y="517.81" text-anchor="end" style="font-family: 'Open Sans', verdana, arial, sans-serif; font-size: 12px; fill: rgb(42, 63, 95); fill-opacity: 1; white-space: pre;">m9-EX_glc_e7.44_BAR-Function-2</text></g><g class="textpoint" transform="translate(0,3)"><text x="264" y="593.96" text-anchor="end" style="font-family: 'Open Sans', verdana, arial, sans-serif; font-size: 12px; fill: rgb(42, 63, 95); fill-opacity: 1; white-space: pre;">m9-EX_T4hcinnm_e2.02-EX_fer_e1.4505_BAR-Function-2</text></g></g></g></g></g><g class="overplot"/><path class="xlines-above crisp" d="M0,0" style="fill: none;"/><path class="ylines-above crisp" d="M0,0" style="fill: none;"/><g class="overlines-above"/><g class="xaxislayer-above"/><g class="yaxislayer-above"/><g class="overaxes-above"/></g></g><g class="polarlayer"/><g class="smithlayer"/><g class="ternarylayer"/><g class="geolayer"/><g class="funnelarealayer"/><g class="pielayer"/><g class="iciclelayer"/><g class="treemaplayer"/><g class="sunburstlayer"/><g class="glimages"/><defs id="topdefs-e60bc1"><g class="clips"/></defs><g class="layer-above"><g class="imagelayer"/><g class="shapelayer"/></g><g class="infolayer"><g class="g-gtitle"><text class="gtitle" x="500" y="20" text-anchor="middle" dy="0em" style="font-family: 'Open Sans', verdana, arial, sans-serif; font-size: 17px; fill: rgb(42, 63, 95); opacity: 1; font-weight: normal; white-space: pre;"><tspan style="font-weight:bold">Intersections<tspan style="font-weight:bold"></tspan></tspan></text></g><g class="g-xtitle"/><g class="g-ytitle"/></g></svg>