<svg class="main-svg" xmlns="http://www.w3.org/2000/svg" xmlns:xlink="http://www.w3.org/1999/xlink" width="1000" height="800" style="" viewBox="0 0 1000 800"><rect x="0" y="0" width="1000" height="800" style="fill: rgb(255, 255, 255); fill-opacity: 1;"/><defs id="defs-0643fa"><g class="clips"><clipPath id="clip0643faxyplot" class="plotclip"><rect width="770" height="680"/></clipPath><clipPath class="axesclip" id="clip0643fax"><rect x="150" y="0" width="770" height="800"/></clipPath><clipPath class="axesclip" id="clip0643fay"><rect x="0" y="40" width="1000" height="680"/></clipPath><clipPath class="axesclip" id="clip0643faxy"><rect x="150" y="40" width="770" height="680"/></clipPath></g><g class="gradients"/><g class="patterns"/></defs><g class="bglayer"><rect class="bg" x="150" y="40" width="770" height="680" style="fill: rgb(255, 255, 255); fill-opacity: 1; stroke-width: 0;"/></g><g class="layer-below"><g class="imagelayer"/><g class="shapelayer"/></g><g class="cartesianlayer"><g class="subplot xy"><g class="layer-subplot"><g class="shapelayer"/><g class="imagelayer"/></g><g class="minor-gridlayer"><g class="x"/><g class="y"/></g><g class="gridlayer"><g class="x"/><g class="y"><path class="ygrid crisp" transform="translate(0,636.35)" d="M150,0h770" style="stroke: rgb(255, 255, 255); stroke-opacity: 1; stroke-width: 1px;"/><path class="ygrid crisp" transform="translate(0,501.43)" d="M150,0h770" style="stroke: rgb(255, 255, 255); stroke-opacity: 1; stroke-width: 1px;"/><path class="ygrid crisp" transform="translate(0,366.51)" d="M150,0h770" style="stroke: rgb(255, 255, 255); stroke-opacity: 1; stroke-width: 1px;"/><path class="ygrid crisp" transform="translate(0,231.59)" d="M150,0h770" style="stroke: rgb(255, 255, 255); stroke-opacity: 1; stroke-width: 1px;"/><path class="ygrid crisp" transform="translate(0,96.67)" d="M150,0h770" style="stroke: rgb(255, 255, 255); stroke-opacity: 1; stroke-width: 1px;"/></g></g><g class="zerolinelayer"/><path class="xlines-below"/><path class="ylines-below"/><g class="overlines-below"/><g class="xaxislayer-below"/><g class="yaxislayer-below"/><g class="overaxes-below"/><g class="plot" transform="translate(150,40)" clip-path="url(#clip0643faxyplot)"><g class="barlayer mlayer"><g class="trace bars" style="opacity: 1;"><g class="points"><g class="point"><path d="M303.03,326.51V56.67H342.77V326.51Z" style="vector-effect: non-scaling-stroke; opacity: 1; stroke-width: 0.5px; fill: rgb(0, 0, 0); fill-opacity: 1; stroke: rgb(229, 236, 246); stroke-opacity: 1;"/><text class="bartext bartext-outside" text-anchor="middle" data-notex="1" x="0" y="0" style="font-family: 'Open Sans', verdana, arial, sans-serif; font-size: 12px; fill: rgb(42, 63, 95); fill-opacity: 1; white-space: pre;" transform="translate(322.74375,50.67)">10</text></g><g class="point"><path d="M352.71,326.51V245.56H392.45V326.51Z" style="vector-effect: non-scaling-stroke; opacity: 1; stroke-width: 0.5px; fill: rgb(0, 0, 0); fill-opacity: 1; stroke: rgb(229, 236, 246); stroke-opacity: 1;"/><text class="bartext bartext-outside" text-anchor="middle" data-notex="1" x="0" y="0" style="font-family: 'Open Sans', verdana, arial, sans-serif; font-size: 12px; fill: rgb(42, 63, 95); fill-opacity: 1; white-space: pre;" transform="translate(372.4159375,239.56)">3</text></g><g class="point"><path d="M402.39,326.51V272.54H442.13V326.51Z" style="vector-effect: non-scaling-stroke; opacity: 1; stroke-width: 0.5px; fill: rgb(0, 0, 0); fill-opacity: 1; stroke: rgb(229, 236, 246); stroke-opacity: 1;"/><text class="bartext bartext-outside" text-anchor="middle" data-notex="1" x="0" y="0" style="font-family: 'Open Sans', verdana, arial, sans-serif; font-size: 12px; fill: rgb(42, 63, 95); fill-opacity: 1; white-space: pre;" transform="translate(422.0959375,266.54)">2</text></g><g class="point"><path d="M452.06,326.51V272.54H491.81V326.51Z" style="vector-effect: non-scaling-stroke; opacity: 1; stroke-width: 0.5px; fill: rgb(0, 0, 0); fill-opacity: 1; stroke: rgb(229, 236, 246); stroke-opacity: 1;"/><text class="bartext bartext-outside" text-anchor="middle" data-notex="1" x="0" y="0" style="font-family: 'Open Sans', verdana, arial, sans-serif; font-size: 12px; fill: rgb(42, 63, 95); fill-opacity: 1; white-space: pre;" transform="translate(471.7709375,266.54)">2</text></g><g class="point"><path d="M501.74,326.51V299.52H541.48V326.51Z" style="vector-effect: non-scaling-stroke; opacity: 1; stroke-width: 0.5px; fill: rgb(0, 0, 0); fill-opacity: 1; stroke: rgb(229, 236, 246); stroke-opacity: 1;"/><text class="bartext bartext-outside" text-anchor="middle" data-notex="1" x="0" y="0" style="font-family: 'Open Sans', verdana, arial, sans-serif; font-size: 12px; fill: rgb(42, 63, 95); fill-opacity: 1; white-space: pre;" transform="translate(521.4459375,293.52)">1</text></g><g class="point"><path d="M551.42,326.51V299.52H591.16V326.51Z" style="vector-effect: non-scaling-stroke; opacity: 1; stroke-width: 0.5px; fill: rgb(0, 0, 0); fill-opacity: 1; stroke: rgb(229, 236, 246); stroke-opacity: 1;"/><text class="bartext bartext-outside" text-anchor="middle" data-notex="1" x="0" y="0" style="font-family: 'Open Sans', verdana, arial, sans-serif; font-size: 12px; fill: rgb(42, 63, 95); fill-opacity: 1; white-space: pre;" transform="translate(571.1259375,293.52)">1</text></g><g class="point"><path d="M601.1,326.51V299.52H640.84V326.51Z" style="vector-effect: non-scaling-stroke; opacity: 1; stroke-width: 0.5px; fill: rgb(0, 0, 0); fill-opacity: 1; stroke: rgb(229, 236, 246); stroke-opacity: 1;"/><text class="bartext bartext-outside" text-anchor="middle" data-notex="1" x="0" y="0" style="font-family: 'Open Sans', verdana, arial, sans-serif; font-size: 12px; fill: rgb(42, 63, 95); fill-opacity: 1; white-space: pre;" transform="translate(620.8059375,293.52)">1</text></g><g class="point"><path d="M650.77,326.51V299.52H690.52V326.51Z" style="vector-effect: non-scaling-stroke; opacity: 1; stroke-width: 0.5px; fill: rgb(0, 0, 0); fill-opacity: 1; stroke: rgb(229, 236, 246); stroke-opacity: 1;"/><text class="bartext bartext-outside" text-anchor="middle" data-notex="1" x="0" y="0" style="font-family: 'Open Sans', verdana, arial, sans-serif; font-size: 12px; fill: rgb(42, 63, 95); fill-opacity: 1; white-space: pre;" transform="translate(670.4809375,293.52)">1</text></g><g class="point"><path d="M700.45,326.51V299.52H740.19V326.51Z" style="vector-effect: non-scaling-stroke; opacity: 1; stroke-width: 0.5px; fill: rgb(0, 0, 0); fill-opacity: 1; stroke: rgb(229, 236, 246); stroke-opacity: 1;"/><text class="bartext bartext-outside" text-anchor="middle" data-notex="1" x="0" y="0" style="font-family: 'Open Sans', verdana, arial, sans-serif; font-size: 12px; fill: rgb(42, 63, 95); fill-opacity: 1; white-space: pre;" transform="translate(720.1559375,293.52)">1</text></g></g></g></g><g class="scatterlayer mlayer"><g class="trace scatter trace388eeb" style="stroke-miterlimit: 2; opacity: 1;"><g class="fills"/><g class="errorbars"/><g class="lines"/><g class="points"><path class="point" transform="translate(322.9,356.19)" d="M6.94,0A6.94,6.94 0 1,1 0,-6.94A6.94,6.94 0 0,1 6.94,0Z" style="opacity: 1; stroke-width: 0px; fill: rgb(201, 201, 201); fill-opacity: 1;"/><path class="point" transform="translate(322.9,430.4)" d="M6.94,0A6.94,6.94 0 1,1 0,-6.94A6.94,6.94 0 0,1 6.94,0Z" style="opacity: 1; stroke-width: 0px; fill: rgb(201, 201, 201); fill-opacity: 1;"/><path class="point" transform="translate(322.9,504.6)" d="M6.94,0A6.94,6.94 0 1,1 0,-6.94A6.94,6.94 0 0,1 6.94,0Z" style="opacity: 1; stroke-width: 0px; fill: rgb(201, 201, 201); fill-opacity: 1;"/><path class="point" transform="translate(322.9,578.81)" d="M6.94,0A6.94,6.94 0 1,1 0,-6.94A6.94,6.94 0 0,1 6.94,0Z" style="opacity: 1; stroke-width: 0px; fill: rgb(201, 201, 201); fill-opacity: 1;"/><path class="point" transform="translate(372.58,356.19)" d="M6.94,0A6.94,6.94 0 1,1 0,-6.94A6.94,6.94 0 0,1 6.94,0Z" style="opacity: 1; stroke-width: 0px; fill: rgb(201, 201, 201); fill-opacity: 1;"/><path class="point" transform="translate(372.58,430.4)" d="M6.94,0A6.94,6.94 0 1,1 0,-6.94A6.94,6.94 0 0,1 6.94,0Z" style="opacity: 1; stroke-width: 0px; fill: rgb(201, 201, 201); fill-opacity: 1;"/><path class="point" transform="translate(372.58,504.6)" d="M6.94,0A6.94,6.94 0 1,1 0,-6.94A6.94,6.94 0 0,1 6.94,0Z" style="opacity: 1; stroke-width: 0px; fill: rgb(201, 201, 201); fill-opacity: 1;"/><path class="point" transform="translate(372.58,578.81)" d="M6.94,0A6.94,6.94 0 1,1 0,-6.94A6.94,6.94 0 0,1 6.94,0Z" style="opacity: 1; stroke-width: 0px; fill: rgb(201, 201, 201); fill-opacity: 1;"/><path class="point" transform="translate(422.26,356.19)" d="M6.94,0A6.94,6.94 0 1,1 0,-6.94A6.94,6.94 0 0,1 6.94,0Z" style="opacity: 1; stroke-width: 0px; fill: rgb(201, 201, 201); fill-opacity: 1;"/><path class="point" transform="translate(422.26,430.4)" d="M6.94,0A6.94,6.94 0 1,1 0,-6.94A6.94,6.94 0 0,1 6.94,0Z" style="opacity: 1; stroke-width: 0px; fill: rgb(201, 201, 201); fill-opacity: 1;"/><path class="point" transform="translate(422.26,504.6)" d="M6.94,0A6.94,6.94 0 1,1 0,-6.94A6.94,6.94 0 0,1 6.94,0Z" style="opacity: 1; stroke-width: 0px; fill: rgb(201, 201, 201); fill-opacity: 1;"/><path class="point" transform="translate(422.26,578.81)" d="M6.94,0A6.94,6.94 0 1,1 0,-6.94A6.94,6.94 0 0,1 6.94,0Z" style="opacity: 1; stroke-width: 0px; fill: rgb(201, 201, 201); fill-opacity: 1;"/><path class="point" transform="translate(471.94,356.19)" d="M6.94,0A6.94,6.94 0 1,1 0,-6.94A6.94,6.94 0 0,1 6.94,0Z" style="opacity: 1; stroke-width: 0px; fill: rgb(201, 201, 201); fill-opacity: 1;"/><path class="point" transform="translate(471.94,430.4)" d="M6.94,0A6.94,6.94 0 1,1 0,-6.94A6.94,6.94 0 0,1 6.94,0Z" style="opacity: 1; stroke-width: 0px; fill: rgb(201, 201, 201); fill-opacity: 1;"/><path class="point" transform="translate(471.94,504.6)" d="M6.94,0A6.94,6.94 0 1,1 0,-6.94A6.94,6.94 0 0,1 6.94,0Z" style="opacity: 1; stroke-width: 0px; fill: rgb(201, 201, 201); fill-opacity: 1;"/><path class="point" transform="translate(471.94,578.81)" d="M6.94,0A6.94,6.94 0 1,1 0,-6.94A6.94,6.94 0 0,1 6.94,0Z" style="opacity: 1; stroke-width: 0px; fill: rgb(201, 201, 201); fill-opacity: 1;"/><path class="point" transform="translate(521.61,356.19)" d="M6.94,0A6.94,6.94 0 1,1 0,-6.94A6.94,6.94 0 0,1 6.94,0Z" style="opacity: 1; stroke-width: 0px; fill: rgb(201, 201, 201); fill-opacity: 1;"/><path class="point" transform="translate(521.61,430.4)" d="M6.94,0A6.94,6.94 0 1,1 0,-6.94A6.94,6.94 0 0,1 6.94,0Z" style="opacity: 1; stroke-width: 0px; fill: rgb(201, 201, 201); fill-opacity: 1;"/><path class="point" transform="translate(521.61,504.6)" d="M6.94,0A6.94,6.94 0 1,1 0,-6.94A6.94,6.94 0 0,1 6.94,0Z" style="opacity: 1; stroke-width: 0px; fill: rgb(201, 201, 201); fill-opacity: 1;"/><path class="point" transform="translate(521.61,578.81)" d="M6.94,0A6.94,6.94 0 1,1 0,-6.94A6.94,6.94 0 0,1 6.94,0Z" style="opacity: 1; stroke-width: 0px; fill: rgb(201, 201, 201); fill-opacity: 1;"/><path class="point" transform="translate(571.29,356.19)" d="M6.94,0A6.94,6.94 0 1,1 0,-6.94A6.94,6.94 0 0,1 6.94,0Z" style="opacity: 1; stroke-width: 0px; fill: rgb(201, 201, 201); fill-opacity: 1;"/><path class="point" transform="translate(571.29,430.4)" d="M6.94,0A6.94,6.94 0 1,1 0,-6.94A6.94,6.94 0 0,1 6.94,0Z" style="opacity: 1; stroke-width: 0px; fill: rgb(201, 201, 201); fill-opacity: 1;"/><path class="point" transform="translate(571.29,504.6)" d="M6.94,0A6.94,6.94 0 1,1 0,-6.94A6.94,6.94 0 0,1 6.94,0Z" style="opacity: 1; stroke-width: 0px; fill: rgb(201, 201, 201); fill-opacity: 1;"/><path class="point" transform="translate(571.29,578.81)" d="M6.94,0A6.94,6.94 0 1,1 0,-6.94A6.94,6.94 0 0,1 6.94,0Z" style="opacity: 1; stroke-width: 0px; fill: rgb(201, 201, 201); fill-opacity: 1;"/><path class="point" transform="translate(620.97,356.19)" d="M6.94,0A6.94,6.94 0 1,1 0,-6.94A6.94,6.94 0 0,1 6.94,0Z" style="opacity: 1; stroke-width: 0px; fill: rgb(201, 201, 201); fill-opacity: 1;"/><path class="point" transform="translate(620.97,430.4)" d="M6.94,0A6.94,6.94 0 1,1 0,-6.94A6.94,6.94 0 0,1 6.94,0Z" style="opacity: 1; stroke-width: 0px; fill: rgb(201, 201, 201); fill-opacity: 1;"/><path class="point" transform="translate(620.97,504.6)" d="M6.94,0A6.94,6.94 0 1,1 0,-6.94A6.94,6.94 0 0,1 6.94,0Z" style="opacity: 1; stroke-width: 0px; fill: rgb(201, 201, 201); fill-opacity: 1;"/><path class="point" transform="translate(620.97,578.81)" d="M6.94,0A6.94,6.94 0 1,1 0,-6.94A6.94,6.94 0 0,1 6.94,0Z" style="opacity: 1; stroke-width: 0px; fill: rgb(201, 201, 201); fill-opacity: 1;"/><path class="point" transform="translate(670.65,356.19)" d="M6.94,0A6.94,6.94 0 1,1 0,-6.94A6.94,6.94 0 0,1 6.94,0Z" style="opacity: 1; stroke-width: 0px; fill: rgb(201, 201, 201); fill-opacity: 1;"/><path class="point" transform="translate(670.65,430.4)" d="M6.94,0A6.94,6.94 0 1,1 0,-6.94A6.94,6.94 0 0,1 6.94,0Z" style="opacity: 1; stroke-width: 0px; fill: rgb(201, 201, 201); fill-opacity: 1;"/><path class="point" transform="translate(670.65,504.6)" d="M6.94,0A6.94,6.94 0 1,1 0,-6.94A6.94,6.94 0 0,1 6.94,0Z" style="opacity: 1; stroke-width: 0px; fill: rgb(201, 201, 201); fill-opacity: 1;"/><path class="point" transform="translate(670.65,578.81)" d="M6.94,0A6.94,6.94 0 1,1 0,-6.94A6.94,6.94 0 0,1 6.94,0Z" style="opacity: 1; stroke-width: 0px; fill: rgb(201, 201, 201); fill-opacity: 1;"/><path class="point" transform="translate(720.32,356.19)" d="M6.94,0A6.94,6.94 0 1,1 0,-6.94A6.94,6.94 0 0,1 6.94,0Z" style="opacity: 1; stroke-width: 0px; fill: rgb(201, 201, 201); fill-opacity: 1;"/><path class="point" transform="translate(720.32,430.4)" d="M6.94,0A6.94,6.94 0 1,1 0,-6.94A6.94,6.94 0 0,1 6.94,0Z" style="opacity: 1; stroke-width: 0px; fill: rgb(201, 201, 201); fill-opacity: 1;"/><path class="point" transform="translate(720.32,504.6)" d="M6.94,0A6.94,6.94 0 1,1 0,-6.94A6.94,6.94 0 0,1 6.94,0Z" style="opacity: 1; stroke-width: 0px; fill: rgb(201, 201, 201); fill-opacity: 1;"/><path class="point" transform="translate(720.32,578.81)" d="M6.94,0A6.94,6.94 0 1,1 0,-6.94A6.94,6.94 0 0,1 6.94,0Z" style="opacity: 1; stroke-width: 0px; fill: rgb(201, 201, 201); fill-opacity: 1;"/></g><g class="text"/></g><g class="trace scatter trace4ab4c6" style="stroke-miterlimit: 2; opacity: 1;"><g class="fills"/><g class="errorbars"/><g class="lines"/><g class="points"><path class="point" transform="translate(322.9,356.19)" d="M6.94,0A6.94,6.94 0 1,1 0,-6.94A6.94,6.94 0 0,1 6.94,0Z" style="opacity: 1; stroke-width: 0px; fill: rgb(0, 0, 0); fill-opacity: 1;"/></g><g class="text"/></g><g class="trace scatter traceda8d20" style="stroke-miterlimit: 2; opacity: 1;"><g class="fills"/><g class="errorbars"/><g class="lines"/><g class="points"><path class="point" transform="translate(322.9,356.19)" d="M6.94,0A6.94,6.94 0 1,1 0,-6.94A6.94,6.94 0 0,1 6.94,0Z" style="opacity: 1; stroke-width: 0px; fill: rgb(0, 0, 0); fill-opacity: 1;"/><path class="point" transform="translate(322.9,430.4)" d="M6.94,0A6.94,6.94 0 1,1 0,-6.94A6.94,6.94 0 0,1 6.94,0Z" style="opacity: 1; stroke-width: 0px; fill: rgb(0, 0, 0); fill-opacity: 1;"/></g><g class="text"/></g><g class="trace scatter trace389e35" style="stroke-miterlimit: 2; opacity: 1;"><g class="fills"/><g class="errorbars"/><g class="lines"/><g class="points"><path class="point" transform="translate(322.9,356.19)" d="M6.94,0A6.94,6.94 0 1,1 0,-6.94A6.94,6.94 0 0,1 6.94,0Z" style="opacity: 1; stroke-width: 0px; fill: rgb(0, 0, 0); fill-opacity: 1;"/><path class="point" transform="translate(322.9,430.4)" d="M6.94,0A6.94,6.94 0 1,1 0,-6.94A6.94,6.94 0 0,1 6.94,0Z" style="opacity: 1; stroke-width: 0px; fill: rgb(0, 0, 0); fill-opacity: 1;"/><path class="point" transform="translate(322.9,504.6)" d="M6.94,0A6.94,6.94 0 1,1 0,-6.94A6.94,6.94 0 0,1 6.94,0Z" style="opacity: 1; stroke-width: 0px; fill: rgb(0, 0, 0); fill-opacity: 1;"/></g><g class="text"/></g><g class="trace scatter trace42b086" style="stroke-miterlimit: 2; opacity: 1;"><g class="fills"/><g class="errorbars"/><g class="lines"/><g class="points"><path class="point" transform="translate(322.9,356.19)" d="M6.94,0A6.94,6.94 0 1,1 0,-6.94A6.94,6.94 0 0,1 6.94,0Z" style="opacity: 1; stroke-width: 0px; fill: rgb(0, 0, 0); fill-opacity: 1;"/><path class="point" transform="translate(322.9,430.4)" d="M6.94,0A6.94,6.94 0 1,1 0,-6.94A6.94,6.94 0 0,1 6.94,0Z" style="opacity: 1; stroke-width: 0px; fill: rgb(0, 0, 0); fill-opacity: 1;"/><path class="point" transform="translate(322.9,504.6)" d="M6.94,0A6.94,6.94 0 1,1 0,-6.94A6.94,6.94 0 0,1 6.94,0Z" style="opacity: 1; stroke-width: 0px; fill: rgb(0, 0, 0); fill-opacity: 1;"/><path class="point" transform="translate(322.9,578.81)" d="M6.94,0A6.94,6.94 0 1,1 0,-6.94A6.94,6.94 0 0,1 6.94,0Z" style="opacity: 1; stroke-width: 0px; fill: rgb(0, 0, 0); fill-opacity: 1;"/></g><g class="text"/></g><g class="trace scatter trace2e1702" style="stroke-miterlimit: 2; opacity: 1;"><g class="fills"/><g class="errorbars"/><g class="lines"/><g class="points"><path class="point" transform="translate(372.58,430.4)" d="M6.94,0A6.94,6.94 0 1,1 0,-6.94A6.94,6.94 0 0,1 6.94,0Z" style="opacity: 1; stroke-width: 0px; fill: rgb(0, 0, 0); fill-opacity: 1;"/></g><g class="text"/></g><g class="trace scatter tracec719d0" style="stroke-miterlimit: 2; opacity: 1;"><g class="fills"/><g class="errorbars"/><g class="lines"/><g class="points"><path class="point" transform="translate(422.26,356.19)" d="M6.94,0A6.94,6.94 0 1,1 0,-6.94A6.94,6.94 0 0,1 6.94,0Z" style="opacity: 1; stroke-width: 0px; fill: rgb(0, 0, 0); fill-opacity: 1;"/></g><g class="text"/></g><g class="trace scatter traced75d93" style="stroke-miterlimit: 2; opacity: 1;"><g class="fills"/><g class="errorbars"/><g class="lines"/><g class="points"><path class="point" transform="translate(471.94,504.6)" d="M6.94,0A6.94,6.94 0 1,1 0,-6.94A6.94,6.94 0 0,1 6.94,0Z" style="opacity: 1; stroke-width: 0px; fill: rgb(0, 0, 0); fill-opacity: 1;"/></g><g class="text"/></g><g class="trace scatter trace41445e" style="stroke-miterlimit: 2; opacity: 1;"><g class="fills"/><g class="errorbars"/><g class="lines"/><g class="points"><path class="point" transform="translate(521.61,356.19)" d="M6.94,0A6.94,6.94 0 1,1 0,-6.94A6.94,6.94 0 0,1 6.94,0Z" style="opacity: 1; stroke-width: 0px; fill: rgb(0, 0, 0); fill-opacity: 1;"/></g><g class="text"/></g><g class="trace scatter trace4f4010" style="stroke-miterlimit: 2; opacity: 1;"><g class="fills"/><g class="errorbars"/><g class="lines"/><g class="points"><path class="point" transform="translate(521.61,356.19)" d="M6.94,0A6.94,6.94 0 1,1 0,-6.94A6.94,6.94 0 0,1 6.94,0Z" style="opacity: 1; stroke-width: 0px; fill: rgb(0, 0, 0); fill-opacity: 1;"/><path class="point" transform="translate(521.61,430.4)" d="M6.94,0A6.94,6.94 0 1,1 0,-6.94A6.94,6.94 0 0,1 6.94,0Z" style="opacity: 1; stroke-width: 0px; fill: rgb(0, 0, 0); fill-opacity: 1;"/></g><g class="text"/></g><g class="trace scatter traceac851d" style="stroke-miterlimit: 2; opacity: 1;"><g class="fills"/><g class="errorbars"/><g class="lines"/><g class="points"><path class="point" transform="translate(571.29,430.4)" d="M6.94,0A6.94,6.94 0 1,1 0,-6.94A6.94,6.94 0 0,1 6.94,0Z" style="opacity: 1; stroke-width: 0px; fill: rgb(0, 0, 0); fill-opacity: 1;"/></g><g class="text"/></g><g class="trace scatter trace90fca9" style="stroke-miterlimit: 2; opacity: 1;"><g class="fills"/><g class="errorbars"/><g class="lines"/><g class="points"><path class="point" transform="translate(571.29,430.4)" d="M6.94,0A6.94,6.94 0 1,1 0,-6.94A6.94,6.94 0 0,1 6.94,0Z" style="opacity: 1; stroke-width: 0px; fill: rgb(0, 0, 0); fill-opacity: 1;"/><path class="point" transform="translate(571.29,504.6)" d="M6.94,0A6.94,6.94 0 1,1 0,-6.94A6.94,6.94 0 0,1 6.94,0Z" style="opacity: 1; stroke-width: 0px; fill: rgb(0, 0, 0); fill-opacity: 1;"/></g><g class="text"/></g><g class="trace scatter traced97441" style="stroke-miterlimit: 2; opacity: 1;"><g class="fills"/><g class="errorbars"/><g class="lines"/><g class="points"><path class="point" transform="translate(620.97,356.19)" d="M6.94,0A6.94,6.94 0 1,1 0,-6.94A6.94,6.94 0 0,1 6.94,0Z" style="opacity: 1; stroke-width: 0px; fill: rgb(0, 0, 0); fill-opacity: 1;"/></g><g class="text"/></g><g class="trace scatter trace2b9214" style="stroke-miterlimit: 2; opacity: 1;"><g class="fills"/><g class="errorbars"/><g class="lines"/><g class="points"><path class="point" transform="translate(620.97,356.19)" d="M6.94,0A6.94,6.94 0 1,1 0,-6.94A6.94,6.94 0 0,1 6.94,0Z" style="opacity: 1; stroke-width: 0px; fill: rgb(0, 0, 0); fill-opacity: 1;"/><path class="point" transform="translate(620.97,430.4)" d="M6.94,0A6.94,6.94 0 1,1 0,-6.94A6.94,6.94 0 0,1 6.94,0Z" style="opacity: 1; stroke-width: 0px; fill: rgb(0, 0, 0); fill-opacity: 1;"/></g><g class="text"/></g><g class="trace scatter trace7543a3" style="stroke-miterlimit: 2; opacity: 1;"><g class="fills"/><g class="errorbars"/><g class="lines"/><g class="points"><path class="point" transform="translate(620.97,356.19)" d="M6.94,0A6.94,6.94 0 1,1 0,-6.94A6.94,6.94 0 0,1 6.94,0Z" style="opacity: 1; stroke-width: 0px; fill: rgb(0, 0, 0); fill-opacity: 1;"/><path class="point" transform="translate(620.97,430.4)" d="M6.94,0A6.94,6.94 0 1,1 0,-6.94A6.94,6.94 0 0,1 6.94,0Z" style="opacity: 1; stroke-width: 0px; fill: rgb(0, 0, 0); fill-opacity: 1;"/><path class="point" transform="translate(620.97,504.6)" d="M6.94,0A6.94,6.94 0 1,1 0,-6.94A6.94,6.94 0 0,1 6.94,0Z" style="opacity: 1; stroke-width: 0px; fill: rgb(0, 0, 0); fill-opacity: 1;"/></g><g class="text"/></g><g class="trace scatter traceeac1a7" style="stroke-miterlimit: 2; opacity: 1;"><g class="fills"/><g class="errorbars"/><g class="lines"/><g class="points"><path class="point" transform="translate(670.65,356.19)" d="M6.94,0A6.94,6.94 0 1,1 0,-6.94A6.94,6.94 0 0,1 6.94,0Z" style="opacity: 1; stroke-width: 0px; fill: rgb(0, 0, 0); fill-opacity: 1;"/></g><g class="text"/></g><g class="trace scatter trace6757eb" style="stroke-miterlimit: 2; opacity: 1;"><g class="fills"/><g class="errorbars"/><g class="lines"/><g class="points"><path class="point" transform="translate(670.65,356.19)" d="M6.94,0A6.94,6.94 0 1,1 0,-6.94A6.94,6.94 0 0,1 6.94,0Z" style="opacity: 1; stroke-width: 0px; fill: rgb(0, 0, 0); fill-opacity: 1;"/><path class="point" transform="translate(670.65,430.4)" d="M6.94,0A6.94,6.94 0 1,1 0,-6.94A6.94,6.94 0 0,1 6.94,0Z" style="opacity: 1; stroke-width: 0px; fill: rgb(0, 0, 0); fill-opacity: 1;"/></g><g class="text"/></g><g class="trace scatter tracee8333b" style="stroke-miterlimit: 2; opacity: 1;"><g class="fills"/><g class="errorbars"/><g class="lines"/><g class="points"><path class="point" transform="translate(670.65,356.19)" d="M6.94,0A6.94,6.94 0 1,1 0,-6.94A6.94,6.94 0 0,1 6.94,0Z" style="opacity: 1; stroke-width: 0px; fill: rgb(0, 0, 0); fill-opacity: 1;"/><path class="point" transform="translate(670.65,430.4)" d="M6.94,0A6.94,6.94 0 1,1 0,-6.94A6.94,6.94 0 0,1 6.94,0Z" style="opacity: 1; stroke-width: 0px; fill: rgb(0, 0, 0); fill-opacity: 1;"/><path class="point" transform="translate(670.65,578.81)" d="M6.94,0A6.94,6.94 0 1,1 0,-6.94A6.94,6.94 0 0,1 6.94,0Z" style="opacity: 1; stroke-width: 0px; fill: rgb(0, 0, 0); fill-opacity: 1;"/></g><g class="text"/></g><g class="trace scatter tracebcebf9" style="stroke-miterlimit: 2; opacity: 1;"><g class="fills"/><g class="errorbars"/><g class="lines"/><g class="points"><path class="point" transform="translate(720.32,356.19)" d="M6.94,0A6.94,6.94 0 1,1 0,-6.94A6.94,6.94 0 0,1 6.94,0Z" style="opacity: 1; stroke-width: 0px; fill: rgb(0, 0, 0); fill-opacity: 1;"/></g><g class="text"/></g><g class="trace scatter trace79483d" style="stroke-miterlimit: 2; opacity: 1;"><g class="fills"/><g class="errorbars"/><g class="lines"/><g class="points"><path class="point" transform="translate(720.32,356.19)" d="M6.94,0A6.94,6.94 0 1,1 0,-6.94A6.94,6.94 0 0,1 6.94,0Z" style="opacity: 1; stroke-width: 0px; fill: rgb(0, 0, 0); fill-opacity: 1;"/><path class="point" transform="translate(720.32,504.6)" d="M6.94,0A6.94,6.94 0 1,1 0,-6.94A6.94,6.94 0 0,1 6.94,0Z" style="opacity: 1; stroke-width: 0px; fill: rgb(0, 0, 0); fill-opacity: 1;"/></g><g class="text"/></g><g class="trace scatter tracecd5efa" style="stroke-miterlimit: 2; opacity: 1;"><g class="fills"/><g class="errorbars"/><g class="lines"/><g class="points"><path class="point" transform="translate(720.32,356.19)" d="M6.94,0A6.94,6.94 0 1,1 0,-6.94A6.94,6.94 0 0,1 6.94,0Z" style="opacity: 1; stroke-width: 0px; fill: rgb(0, 0, 0); fill-opacity: 1;"/><path class="point" transform="translate(720.32,504.6)" d="M6.94,0A6.94,6.94 0 1,1 0,-6.94A6.94,6.94 0 0,1 6.94,0Z" style="opacity: 1; stroke-width: 0px; fill: rgb(0, 0, 0); fill-opacity: 1;"/><path class="point" transform="translate(720.32,578.81)" d="M6.94,0A6.94,6.94 0 1,1 0,-6.94A6.94,6.94 0 0,1 6.94,0Z" style="opacity: 1; stroke-width: 0px; fill: rgb(0, 0, 0); fill-opacity: 1;"/></g><g class="text"/></g><g class="trace scatter trace1c081a" style="stroke-miterlimit: 2; opacity: 1;"><g class="fills"/><g class="errorbars"/><g class="lines"/><g class="points"/><g class="text"><g class="textpoint" transform="translate(0,3)"><text x="298.06" y="356.19" text-anchor="end" style="font-family: 'Open Sans', verdana, arial, sans-serif; font-size: 12px; fill: rgb(42, 63, 95); fill-opacity: 1; white-space: pre;">m9-EX_fer_e2.91_NBR-Function-1</text></g><g class="textpoint" transform="translate(0,3)"><text x="298.06" y="430.4" text-anchor="end" style="font-family: 'Open Sans', verdana, arial, sans-serif; font-size: 12px; fill: rgb(42, 63, 95); fill-opacity: 1; white-space: pre;">m9-EX_T4hcinnm_e2.02-EX_fer_e1.4505_NBR-Function-1</text></g><g class="textpoint" transform="translate(0,3)"><text x="298.06" y="504.6" text-anchor="end" style="font-family: 'Open Sans', verdana, arial, sans-serif; font-size: 12px; fill: rgb(42, 63, 95); fill-opacity: 1; white-space: pre;">m9-EX_glc_e7.44_NBR-Function-1</text></g><g class="textpoint" transform="translate(0,3)"><text x="298.06" y="578.81" text-anchor="end" style="font-family: 'Open Sans', verdana, arial, sans-serif; font-size: 12px; fill: rgb(42, 63, 95); fill-opacity: 1; white-space: pre;">m9-EX_T4hcinnm_e4.04_NBR-Function-1</text></g></g></g></g></g><g class="overplot"/><path class="xlines-above crisp" d="M0,0" style="fill: none;"/><path class="ylines-above crisp" d="M0,0" style="fill: none;"/><g class="overlines-above"/><g class="xaxislayer-above"/><g class="yaxislayer-above"/><g class="overaxes-above"/></g></g><g class="polarlayer"/><g class="smithlayer"/><g class="ternarylayer"/><g class="geolayer"/><g class="funnelarealayer"/><g class="pielayer"/><g class="iciclelayer"/><g class="treemaplayer"/><g class="sunburstlayer"/><g class="glimages"/><defs id="topdefs-0643fa"><g class="clips"/></defs><g class="layer-above"><g class="imagelayer"/><g class="shapelayer"/></g><g class="infolayer"><g class="g-gtitle"><text class="gtitle" x="500" y="20" text-anchor="middle" dy="0em" style="font-family: 'Open Sans', verdana, arial, sans-serif; font-size: 17px; fill: rgb(42, 63, 95); opacity: 1; font-weight: normal; white-space: pre;"><tspan style="font-weight:bold">Intersections<tspan style="font-weight:bold"></tspan></tspan></text></g><g class="g-xtitle"/><g class="g-ytitle"/></g></svg>