<svg class="main-svg" xmlns="http://www.w3.org/2000/svg" xmlns:xlink="http://www.w3.org/1999/xlink" width="1000" height="800" style="" viewBox="0 0 1000 800"><rect x="0" y="0" width="1000" height="800" style="fill: rgb(255, 255, 255); fill-opacity: 1;"/><defs id="defs-6d3bd8"><g class="clips"><clipPath id="clip6d3bd8xyplot" class="plotclip"><rect width="770" height="680"/></clipPath><clipPath class="axesclip" id="clip6d3bd8x"><rect x="150" y="0" width="770" height="800"/></clipPath><clipPath class="axesclip" id="clip6d3bd8y"><rect x="0" y="40" width="1000" height="680"/></clipPath><clipPath class="axesclip" id="clip6d3bd8xy"><rect x="150" y="40" width="770" height="680"/></clipPath></g><g class="gradients"/><g class="patterns"/></defs><g class="bglayer"><rect class="bg" x="150" y="40" width="770" height="680" style="fill: rgb(255, 255, 255); fill-opacity: 1; stroke-width: 0;"/></g><g class="layer-below"><g class="imagelayer"/><g class="shapelayer"/></g><g class="cartesianlayer"><g class="subplot xy"><g class="layer-subplot"><g class="shapelayer"/><g class="imagelayer"/></g><g class="minor-gridlayer"><g class="x"/><g class="y"/></g><g class="gridlayer"><g class="x"/><g class="y"><path class="ygrid crisp" transform="translate(0,661.61)" d="M150,0h770" style="stroke: rgb(255, 255, 255); stroke-opacity: 1; stroke-width: 1px;"/><path class="ygrid crisp" transform="translate(0,590.32)" d="M150,0h770" style="stroke: rgb(255, 255, 255); stroke-opacity: 1; stroke-width: 1px;"/><path class="ygrid crisp" transform="translate(0,519.02)" d="M150,0h770" style="stroke: rgb(255, 255, 255); stroke-opacity: 1; stroke-width: 1px;"/><path class="ygrid crisp" transform="translate(0,447.73)" d="M150,0h770" style="stroke: rgb(255, 255, 255); stroke-opacity: 1; stroke-width: 1px;"/><path class="ygrid crisp" transform="translate(0,376.44)" d="M150,0h770" style="stroke: rgb(255, 255, 255); stroke-opacity: 1; stroke-width: 1px;"/><path class="ygrid crisp" transform="translate(0,305.14)" d="M150,0h770" style="stroke: rgb(255, 255, 255); stroke-opacity: 1; stroke-width: 1px;"/><path class="ygrid crisp" transform="translate(0,233.85)" d="M150,0h770" style="stroke: rgb(255, 255, 255); stroke-opacity: 1; stroke-width: 1px;"/><path class="ygrid crisp" transform="translate(0,162.55)" d="M150,0h770" style="stroke: rgb(255, 255, 255); stroke-opacity: 1; stroke-width: 1px;"/><path class="ygrid crisp" transform="translate(0,91.25999999999999)" d="M150,0h770" style="stroke: rgb(255, 255, 255); stroke-opacity: 1; stroke-width: 1px;"/></g></g><g class="zerolinelayer"/><path class="xlines-below"/><path class="ylines-below"/><g class="overlines-below"/><g class="xaxislayer-below"/><g class="yaxislayer-below"/><g class="overaxes-below"/><g class="plot" transform="translate(150,40)" clip-path="url(#clip6d3bd8xyplot)"><g class="barlayer mlayer"><g class="trace bars" style="opacity: 1;"><g class="points"><g class="point"><path d="M575.18,336.44V58.39H610.6V336.44Z" style="vector-effect: non-scaling-stroke; opacity: 1; stroke-width: 0.5px; fill: rgb(0, 0, 0); fill-opacity: 1; stroke: rgb(229, 236, 246); stroke-opacity: 1;"/><text class="bartext bartext-outside" text-anchor="middle" data-notex="1" x="0" y="0" style="font-family: 'Open Sans', verdana, arial, sans-serif; font-size: 12px; fill: rgb(42, 63, 95); fill-opacity: 1; white-space: pre;" transform="translate(592.73375,52.39)">39</text></g><g class="point"><path d="M619.45,336.44V329.31H654.88V336.44Z" style="vector-effect: non-scaling-stroke; opacity: 1; stroke-width: 0.5px; fill: rgb(0, 0, 0); fill-opacity: 1; stroke: rgb(229, 236, 246); stroke-opacity: 1;"/><text class="bartext bartext-outside" text-anchor="middle" data-notex="1" x="0" y="0" style="font-family: 'Open Sans', verdana, arial, sans-serif; font-size: 12px; fill: rgb(42, 63, 95); fill-opacity: 1; white-space: pre;" transform="translate(637.0009375,323.31)">1</text></g><g class="point"><path d="M663.73,336.44V329.31H699.15V336.44Z" style="vector-effect: non-scaling-stroke; opacity: 1; stroke-width: 0.5px; fill: rgb(0, 0, 0); fill-opacity: 1; stroke: rgb(229, 236, 246); stroke-opacity: 1;"/><text class="bartext bartext-outside" text-anchor="middle" data-notex="1" x="0" y="0" style="font-family: 'Open Sans', verdana, arial, sans-serif; font-size: 12px; fill: rgb(42, 63, 95); fill-opacity: 1; white-space: pre;" transform="translate(681.2759375,323.31)">1</text></g><g class="point"><path d="M708.01,336.44V329.31H743.43V336.44Z" style="vector-effect: non-scaling-stroke; opacity: 1; stroke-width: 0.5px; fill: rgb(0, 0, 0); fill-opacity: 1; stroke: rgb(229, 236, 246); stroke-opacity: 1;"/><text class="bartext bartext-outside" text-anchor="middle" data-notex="1" x="0" y="0" style="font-family: 'Open Sans', verdana, arial, sans-serif; font-size: 12px; fill: rgb(42, 63, 95); fill-opacity: 1; white-space: pre;" transform="translate(725.5559375,323.31)">1</text></g></g></g></g><g class="scatterlayer mlayer"><g class="trace scatter tracef11c49" style="stroke-miterlimit: 2; opacity: 1;"><g class="fills"/><g class="errorbars"/><g class="lines"/><g class="points"><path class="point" transform="translate(592.89,367.02)" d="M10.42,0A10.42,10.42 0 1,1 0,-10.42A10.42,10.42 0 0,1 10.42,0Z" style="opacity: 1; stroke-width: 0px; fill: rgb(201, 201, 201); fill-opacity: 1;"/><path class="point" transform="translate(592.89,418)" d="M10.42,0A10.42,10.42 0 1,1 0,-10.42A10.42,10.42 0 0,1 10.42,0Z" style="opacity: 1; stroke-width: 0px; fill: rgb(201, 201, 201); fill-opacity: 1;"/><path class="point" transform="translate(592.89,468.97)" d="M10.42,0A10.42,10.42 0 1,1 0,-10.42A10.42,10.42 0 0,1 10.42,0Z" style="opacity: 1; stroke-width: 0px; fill: rgb(201, 201, 201); fill-opacity: 1;"/><path class="point" transform="translate(592.89,519.95)" d="M10.42,0A10.42,10.42 0 1,1 0,-10.42A10.42,10.42 0 0,1 10.42,0Z" style="opacity: 1; stroke-width: 0px; fill: rgb(201, 201, 201); fill-opacity: 1;"/><path class="point" transform="translate(592.89,570.92)" d="M10.42,0A10.42,10.42 0 1,1 0,-10.42A10.42,10.42 0 0,1 10.42,0Z" style="opacity: 1; stroke-width: 0px; fill: rgb(201, 201, 201); fill-opacity: 1;"/><path class="point" transform="translate(592.89,621.9)" d="M10.42,0A10.42,10.42 0 1,1 0,-10.42A10.42,10.42 0 0,1 10.42,0Z" style="opacity: 1; stroke-width: 0px; fill: rgb(201, 201, 201); fill-opacity: 1;"/><path class="point" transform="translate(637.17,367.02)" d="M10.42,0A10.42,10.42 0 1,1 0,-10.42A10.42,10.42 0 0,1 10.42,0Z" style="opacity: 1; stroke-width: 0px; fill: rgb(201, 201, 201); fill-opacity: 1;"/><path class="point" transform="translate(637.17,418)" d="M10.42,0A10.42,10.42 0 1,1 0,-10.42A10.42,10.42 0 0,1 10.42,0Z" style="opacity: 1; stroke-width: 0px; fill: rgb(201, 201, 201); fill-opacity: 1;"/><path class="point" transform="translate(637.17,468.97)" d="M10.42,0A10.42,10.42 0 1,1 0,-10.42A10.42,10.42 0 0,1 10.42,0Z" style="opacity: 1; stroke-width: 0px; fill: rgb(201, 201, 201); fill-opacity: 1;"/><path class="point" transform="translate(637.17,519.95)" d="M10.42,0A10.42,10.42 0 1,1 0,-10.42A10.42,10.42 0 0,1 10.42,0Z" style="opacity: 1; stroke-width: 0px; fill: rgb(201, 201, 201); fill-opacity: 1;"/><path class="point" transform="translate(637.17,570.92)" d="M10.42,0A10.42,10.42 0 1,1 0,-10.42A10.42,10.42 0 0,1 10.42,0Z" style="opacity: 1; stroke-width: 0px; fill: rgb(201, 201, 201); fill-opacity: 1;"/><path class="point" transform="translate(637.17,621.9)" d="M10.42,0A10.42,10.42 0 1,1 0,-10.42A10.42,10.42 0 0,1 10.42,0Z" style="opacity: 1; stroke-width: 0px; fill: rgb(201, 201, 201); fill-opacity: 1;"/><path class="point" transform="translate(681.44,367.02)" d="M10.42,0A10.42,10.42 0 1,1 0,-10.42A10.42,10.42 0 0,1 10.42,0Z" style="opacity: 1; stroke-width: 0px; fill: rgb(201, 201, 201); fill-opacity: 1;"/><path class="point" transform="translate(681.44,418)" d="M10.42,0A10.42,10.42 0 1,1 0,-10.42A10.42,10.42 0 0,1 10.42,0Z" style="opacity: 1; stroke-width: 0px; fill: rgb(201, 201, 201); fill-opacity: 1;"/><path class="point" transform="translate(681.44,468.97)" d="M10.42,0A10.42,10.42 0 1,1 0,-10.42A10.42,10.42 0 0,1 10.42,0Z" style="opacity: 1; stroke-width: 0px; fill: rgb(201, 201, 201); fill-opacity: 1;"/><path class="point" transform="translate(681.44,519.95)" d="M10.42,0A10.42,10.42 0 1,1 0,-10.42A10.42,10.42 0 0,1 10.42,0Z" style="opacity: 1; stroke-width: 0px; fill: rgb(201, 201, 201); fill-opacity: 1;"/><path class="point" transform="translate(681.44,570.92)" d="M10.42,0A10.42,10.42 0 1,1 0,-10.42A10.42,10.42 0 0,1 10.42,0Z" style="opacity: 1; stroke-width: 0px; fill: rgb(201, 201, 201); fill-opacity: 1;"/><path class="point" transform="translate(681.44,621.9)" d="M10.42,0A10.42,10.42 0 1,1 0,-10.42A10.42,10.42 0 0,1 10.42,0Z" style="opacity: 1; stroke-width: 0px; fill: rgb(201, 201, 201); fill-opacity: 1;"/><path class="point" transform="translate(725.72,367.02)" d="M10.42,0A10.42,10.42 0 1,1 0,-10.42A10.42,10.42 0 0,1 10.42,0Z" style="opacity: 1; stroke-width: 0px; fill: rgb(201, 201, 201); fill-opacity: 1;"/><path class="point" transform="translate(725.72,418)" d="M10.42,0A10.42,10.42 0 1,1 0,-10.42A10.42,10.42 0 0,1 10.42,0Z" style="opacity: 1; stroke-width: 0px; fill: rgb(201, 201, 201); fill-opacity: 1;"/><path class="point" transform="translate(725.72,468.97)" d="M10.42,0A10.42,10.42 0 1,1 0,-10.42A10.42,10.42 0 0,1 10.42,0Z" style="opacity: 1; stroke-width: 0px; fill: rgb(201, 201, 201); fill-opacity: 1;"/><path class="point" transform="translate(725.72,519.95)" d="M10.42,0A10.42,10.42 0 1,1 0,-10.42A10.42,10.42 0 0,1 10.42,0Z" style="opacity: 1; stroke-width: 0px; fill: rgb(201, 201, 201); fill-opacity: 1;"/><path class="point" transform="translate(725.72,570.92)" d="M10.42,0A10.42,10.42 0 1,1 0,-10.42A10.42,10.42 0 0,1 10.42,0Z" style="opacity: 1; stroke-width: 0px; fill: rgb(201, 201, 201); fill-opacity: 1;"/><path class="point" transform="translate(725.72,621.9)" d="M10.42,0A10.42,10.42 0 1,1 0,-10.42A10.42,10.42 0 0,1 10.42,0Z" style="opacity: 1; stroke-width: 0px; fill: rgb(201, 201, 201); fill-opacity: 1;"/></g><g class="text"/></g><g class="trace scatter trace8e7759" style="stroke-miterlimit: 2; opacity: 1;"><g class="fills"/><g class="errorbars"/><g class="lines"/><g class="points"><path class="point" transform="translate(592.89,367.02)" d="M10.42,0A10.42,10.42 0 1,1 0,-10.42A10.42,10.42 0 0,1 10.42,0Z" style="opacity: 1; stroke-width: 0px; fill: rgb(0, 0, 0); fill-opacity: 1;"/></g><g class="text"/></g><g class="trace scatter trace3eefaa" style="stroke-miterlimit: 2; opacity: 1;"><g class="fills"/><g class="errorbars"/><g class="lines"/><g class="points"><path class="point" transform="translate(592.89,367.02)" d="M10.42,0A10.42,10.42 0 1,1 0,-10.42A10.42,10.42 0 0,1 10.42,0Z" style="opacity: 1; stroke-width: 0px; fill: rgb(0, 0, 0); fill-opacity: 1;"/><path class="point" transform="translate(592.89,418)" d="M10.42,0A10.42,10.42 0 1,1 0,-10.42A10.42,10.42 0 0,1 10.42,0Z" style="opacity: 1; stroke-width: 0px; fill: rgb(0, 0, 0); fill-opacity: 1;"/></g><g class="text"/></g><g class="trace scatter trace336599" style="stroke-miterlimit: 2; opacity: 1;"><g class="fills"/><g class="errorbars"/><g class="lines"/><g class="points"><path class="point" transform="translate(592.89,367.02)" d="M10.42,0A10.42,10.42 0 1,1 0,-10.42A10.42,10.42 0 0,1 10.42,0Z" style="opacity: 1; stroke-width: 0px; fill: rgb(0, 0, 0); fill-opacity: 1;"/><path class="point" transform="translate(592.89,418)" d="M10.42,0A10.42,10.42 0 1,1 0,-10.42A10.42,10.42 0 0,1 10.42,0Z" style="opacity: 1; stroke-width: 0px; fill: rgb(0, 0, 0); fill-opacity: 1;"/><path class="point" transform="translate(592.89,468.97)" d="M10.42,0A10.42,10.42 0 1,1 0,-10.42A10.42,10.42 0 0,1 10.42,0Z" style="opacity: 1; stroke-width: 0px; fill: rgb(0, 0, 0); fill-opacity: 1;"/></g><g class="text"/></g><g class="trace scatter trace3dd666" style="stroke-miterlimit: 2; opacity: 1;"><g class="fills"/><g class="errorbars"/><g class="lines"/><g class="points"><path class="point" transform="translate(592.89,367.02)" d="M10.42,0A10.42,10.42 0 1,1 0,-10.42A10.42,10.42 0 0,1 10.42,0Z" style="opacity: 1; stroke-width: 0px; fill: rgb(0, 0, 0); fill-opacity: 1;"/><path class="point" transform="translate(592.89,418)" d="M10.42,0A10.42,10.42 0 1,1 0,-10.42A10.42,10.42 0 0,1 10.42,0Z" style="opacity: 1; stroke-width: 0px; fill: rgb(0, 0, 0); fill-opacity: 1;"/><path class="point" transform="translate(592.89,468.97)" d="M10.42,0A10.42,10.42 0 1,1 0,-10.42A10.42,10.42 0 0,1 10.42,0Z" style="opacity: 1; stroke-width: 0px; fill: rgb(0, 0, 0); fill-opacity: 1;"/><path class="point" transform="translate(592.89,519.95)" d="M10.42,0A10.42,10.42 0 1,1 0,-10.42A10.42,10.42 0 0,1 10.42,0Z" style="opacity: 1; stroke-width: 0px; fill: rgb(0, 0, 0); fill-opacity: 1;"/></g><g class="text"/></g><g class="trace scatter trace816492" style="stroke-miterlimit: 2; opacity: 1;"><g class="fills"/><g class="errorbars"/><g class="lines"/><g class="points"><path class="point" transform="translate(592.89,367.02)" d="M10.42,0A10.42,10.42 0 1,1 0,-10.42A10.42,10.42 0 0,1 10.42,0Z" style="opacity: 1; stroke-width: 0px; fill: rgb(0, 0, 0); fill-opacity: 1;"/><path class="point" transform="translate(592.89,418)" d="M10.42,0A10.42,10.42 0 1,1 0,-10.42A10.42,10.42 0 0,1 10.42,0Z" style="opacity: 1; stroke-width: 0px; fill: rgb(0, 0, 0); fill-opacity: 1;"/><path class="point" transform="translate(592.89,468.97)" d="M10.42,0A10.42,10.42 0 1,1 0,-10.42A10.42,10.42 0 0,1 10.42,0Z" style="opacity: 1; stroke-width: 0px; fill: rgb(0, 0, 0); fill-opacity: 1;"/><path class="point" transform="translate(592.89,519.95)" d="M10.42,0A10.42,10.42 0 1,1 0,-10.42A10.42,10.42 0 0,1 10.42,0Z" style="opacity: 1; stroke-width: 0px; fill: rgb(0, 0, 0); fill-opacity: 1;"/><path class="point" transform="translate(592.89,570.92)" d="M10.42,0A10.42,10.42 0 1,1 0,-10.42A10.42,10.42 0 0,1 10.42,0Z" style="opacity: 1; stroke-width: 0px; fill: rgb(0, 0, 0); fill-opacity: 1;"/></g><g class="text"/></g><g class="trace scatter traced0c75f" style="stroke-miterlimit: 2; opacity: 1;"><g class="fills"/><g class="errorbars"/><g class="lines"/><g class="points"><path class="point" transform="translate(592.89,367.02)" d="M10.42,0A10.42,10.42 0 1,1 0,-10.42A10.42,10.42 0 0,1 10.42,0Z" style="opacity: 1; stroke-width: 0px; fill: rgb(0, 0, 0); fill-opacity: 1;"/><path class="point" transform="translate(592.89,418)" d="M10.42,0A10.42,10.42 0 1,1 0,-10.42A10.42,10.42 0 0,1 10.42,0Z" style="opacity: 1; stroke-width: 0px; fill: rgb(0, 0, 0); fill-opacity: 1;"/><path class="point" transform="translate(592.89,468.97)" d="M10.42,0A10.42,10.42 0 1,1 0,-10.42A10.42,10.42 0 0,1 10.42,0Z" style="opacity: 1; stroke-width: 0px; fill: rgb(0, 0, 0); fill-opacity: 1;"/><path class="point" transform="translate(592.89,519.95)" d="M10.42,0A10.42,10.42 0 1,1 0,-10.42A10.42,10.42 0 0,1 10.42,0Z" style="opacity: 1; stroke-width: 0px; fill: rgb(0, 0, 0); fill-opacity: 1;"/><path class="point" transform="translate(592.89,570.92)" d="M10.42,0A10.42,10.42 0 1,1 0,-10.42A10.42,10.42 0 0,1 10.42,0Z" style="opacity: 1; stroke-width: 0px; fill: rgb(0, 0, 0); fill-opacity: 1;"/><path class="point" transform="translate(592.89,621.9)" d="M10.42,0A10.42,10.42 0 1,1 0,-10.42A10.42,10.42 0 0,1 10.42,0Z" style="opacity: 1; stroke-width: 0px; fill: rgb(0, 0, 0); fill-opacity: 1;"/></g><g class="text"/></g><g class="trace scatter trace1db9ce" style="stroke-miterlimit: 2; opacity: 1;"><g class="fills"/><g class="errorbars"/><g class="lines"/><g class="points"><path class="point" transform="translate(637.17,418)" d="M10.42,0A10.42,10.42 0 1,1 0,-10.42A10.42,10.42 0 0,1 10.42,0Z" style="opacity: 1; stroke-width: 0px; fill: rgb(0, 0, 0); fill-opacity: 1;"/></g><g class="text"/></g><g class="trace scatter trace09b60d" style="stroke-miterlimit: 2; opacity: 1;"><g class="fills"/><g class="errorbars"/><g class="lines"/><g class="points"><path class="point" transform="translate(637.17,418)" d="M10.42,0A10.42,10.42 0 1,1 0,-10.42A10.42,10.42 0 0,1 10.42,0Z" style="opacity: 1; stroke-width: 0px; fill: rgb(0, 0, 0); fill-opacity: 1;"/><path class="point" transform="translate(637.17,468.97)" d="M10.42,0A10.42,10.42 0 1,1 0,-10.42A10.42,10.42 0 0,1 10.42,0Z" style="opacity: 1; stroke-width: 0px; fill: rgb(0, 0, 0); fill-opacity: 1;"/></g><g class="text"/></g><g class="trace scatter tracecb8abb" style="stroke-miterlimit: 2; opacity: 1;"><g class="fills"/><g class="errorbars"/><g class="lines"/><g class="points"><path class="point" transform="translate(637.17,418)" d="M10.42,0A10.42,10.42 0 1,1 0,-10.42A10.42,10.42 0 0,1 10.42,0Z" style="opacity: 1; stroke-width: 0px; fill: rgb(0, 0, 0); fill-opacity: 1;"/><path class="point" transform="translate(637.17,468.97)" d="M10.42,0A10.42,10.42 0 1,1 0,-10.42A10.42,10.42 0 0,1 10.42,0Z" style="opacity: 1; stroke-width: 0px; fill: rgb(0, 0, 0); fill-opacity: 1;"/><path class="point" transform="translate(637.17,570.92)" d="M10.42,0A10.42,10.42 0 1,1 0,-10.42A10.42,10.42 0 0,1 10.42,0Z" style="opacity: 1; stroke-width: 0px; fill: rgb(0, 0, 0); fill-opacity: 1;"/></g><g class="text"/></g><g class="trace scatter tracebb6e0d" style="stroke-miterlimit: 2; opacity: 1;"><g class="fills"/><g class="errorbars"/><g class="lines"/><g class="points"><path class="point" transform="translate(637.17,418)" d="M10.42,0A10.42,10.42 0 1,1 0,-10.42A10.42,10.42 0 0,1 10.42,0Z" style="opacity: 1; stroke-width: 0px; fill: rgb(0, 0, 0); fill-opacity: 1;"/><path class="point" transform="translate(637.17,468.97)" d="M10.42,0A10.42,10.42 0 1,1 0,-10.42A10.42,10.42 0 0,1 10.42,0Z" style="opacity: 1; stroke-width: 0px; fill: rgb(0, 0, 0); fill-opacity: 1;"/><path class="point" transform="translate(637.17,570.92)" d="M10.42,0A10.42,10.42 0 1,1 0,-10.42A10.42,10.42 0 0,1 10.42,0Z" style="opacity: 1; stroke-width: 0px; fill: rgb(0, 0, 0); fill-opacity: 1;"/><path class="point" transform="translate(637.17,621.9)" d="M10.42,0A10.42,10.42 0 1,1 0,-10.42A10.42,10.42 0 0,1 10.42,0Z" style="opacity: 1; stroke-width: 0px; fill: rgb(0, 0, 0); fill-opacity: 1;"/></g><g class="text"/></g><g class="trace scatter trace10971a" style="stroke-miterlimit: 2; opacity: 1;"><g class="fills"/><g class="errorbars"/><g class="lines"/><g class="points"><path class="point" transform="translate(681.44,367.02)" d="M10.42,0A10.42,10.42 0 1,1 0,-10.42A10.42,10.42 0 0,1 10.42,0Z" style="opacity: 1; stroke-width: 0px; fill: rgb(0, 0, 0); fill-opacity: 1;"/></g><g class="text"/></g><g class="trace scatter trace8781b8" style="stroke-miterlimit: 2; opacity: 1;"><g class="fills"/><g class="errorbars"/><g class="lines"/><g class="points"><path class="point" transform="translate(681.44,367.02)" d="M10.42,0A10.42,10.42 0 1,1 0,-10.42A10.42,10.42 0 0,1 10.42,0Z" style="opacity: 1; stroke-width: 0px; fill: rgb(0, 0, 0); fill-opacity: 1;"/><path class="point" transform="translate(681.44,418)" d="M10.42,0A10.42,10.42 0 1,1 0,-10.42A10.42,10.42 0 0,1 10.42,0Z" style="opacity: 1; stroke-width: 0px; fill: rgb(0, 0, 0); fill-opacity: 1;"/></g><g class="text"/></g><g class="trace scatter trace24faa6" style="stroke-miterlimit: 2; opacity: 1;"><g class="fills"/><g class="errorbars"/><g class="lines"/><g class="points"><path class="point" transform="translate(681.44,367.02)" d="M10.42,0A10.42,10.42 0 1,1 0,-10.42A10.42,10.42 0 0,1 10.42,0Z" style="opacity: 1; stroke-width: 0px; fill: rgb(0, 0, 0); fill-opacity: 1;"/><path class="point" transform="translate(681.44,418)" d="M10.42,0A10.42,10.42 0 1,1 0,-10.42A10.42,10.42 0 0,1 10.42,0Z" style="opacity: 1; stroke-width: 0px; fill: rgb(0, 0, 0); fill-opacity: 1;"/><path class="point" transform="translate(681.44,468.97)" d="M10.42,0A10.42,10.42 0 1,1 0,-10.42A10.42,10.42 0 0,1 10.42,0Z" style="opacity: 1; stroke-width: 0px; fill: rgb(0, 0, 0); fill-opacity: 1;"/></g><g class="text"/></g><g class="trace scatter trace277b98" style="stroke-miterlimit: 2; opacity: 1;"><g class="fills"/><g class="errorbars"/><g class="lines"/><g class="points"><path class="point" transform="translate(681.44,367.02)" d="M10.42,0A10.42,10.42 0 1,1 0,-10.42A10.42,10.42 0 0,1 10.42,0Z" style="opacity: 1; stroke-width: 0px; fill: rgb(0, 0, 0); fill-opacity: 1;"/><path class="point" transform="translate(681.44,418)" d="M10.42,0A10.42,10.42 0 1,1 0,-10.42A10.42,10.42 0 0,1 10.42,0Z" style="opacity: 1; stroke-width: 0px; fill: rgb(0, 0, 0); fill-opacity: 1;"/><path class="point" transform="translate(681.44,468.97)" d="M10.42,0A10.42,10.42 0 1,1 0,-10.42A10.42,10.42 0 0,1 10.42,0Z" style="opacity: 1; stroke-width: 0px; fill: rgb(0, 0, 0); fill-opacity: 1;"/><path class="point" transform="translate(681.44,570.92)" d="M10.42,0A10.42,10.42 0 1,1 0,-10.42A10.42,10.42 0 0,1 10.42,0Z" style="opacity: 1; stroke-width: 0px; fill: rgb(0, 0, 0); fill-opacity: 1;"/></g><g class="text"/></g><g class="trace scatter trace5ac1c1" style="stroke-miterlimit: 2; opacity: 1;"><g class="fills"/><g class="errorbars"/><g class="lines"/><g class="points"><path class="point" transform="translate(681.44,367.02)" d="M10.42,0A10.42,10.42 0 1,1 0,-10.42A10.42,10.42 0 0,1 10.42,0Z" style="opacity: 1; stroke-width: 0px; fill: rgb(0, 0, 0); fill-opacity: 1;"/><path class="point" transform="translate(681.44,418)" d="M10.42,0A10.42,10.42 0 1,1 0,-10.42A10.42,10.42 0 0,1 10.42,0Z" style="opacity: 1; stroke-width: 0px; fill: rgb(0, 0, 0); fill-opacity: 1;"/><path class="point" transform="translate(681.44,468.97)" d="M10.42,0A10.42,10.42 0 1,1 0,-10.42A10.42,10.42 0 0,1 10.42,0Z" style="opacity: 1; stroke-width: 0px; fill: rgb(0, 0, 0); fill-opacity: 1;"/><path class="point" transform="translate(681.44,570.92)" d="M10.42,0A10.42,10.42 0 1,1 0,-10.42A10.42,10.42 0 0,1 10.42,0Z" style="opacity: 1; stroke-width: 0px; fill: rgb(0, 0, 0); fill-opacity: 1;"/><path class="point" transform="translate(681.44,621.9)" d="M10.42,0A10.42,10.42 0 1,1 0,-10.42A10.42,10.42 0 0,1 10.42,0Z" style="opacity: 1; stroke-width: 0px; fill: rgb(0, 0, 0); fill-opacity: 1;"/></g><g class="text"/></g><g class="trace scatter trace6079f4" style="stroke-miterlimit: 2; opacity: 1;"><g class="fills"/><g class="errorbars"/><g class="lines"/><g class="points"><path class="point" transform="translate(725.72,367.02)" d="M10.42,0A10.42,10.42 0 1,1 0,-10.42A10.42,10.42 0 0,1 10.42,0Z" style="opacity: 1; stroke-width: 0px; fill: rgb(0, 0, 0); fill-opacity: 1;"/></g><g class="text"/></g><g class="trace scatter tracef490e1" style="stroke-miterlimit: 2; opacity: 1;"><g class="fills"/><g class="errorbars"/><g class="lines"/><g class="points"><path class="point" transform="translate(725.72,367.02)" d="M10.42,0A10.42,10.42 0 1,1 0,-10.42A10.42,10.42 0 0,1 10.42,0Z" style="opacity: 1; stroke-width: 0px; fill: rgb(0, 0, 0); fill-opacity: 1;"/><path class="point" transform="translate(725.72,468.97)" d="M10.42,0A10.42,10.42 0 1,1 0,-10.42A10.42,10.42 0 0,1 10.42,0Z" style="opacity: 1; stroke-width: 0px; fill: rgb(0, 0, 0); fill-opacity: 1;"/></g><g class="text"/></g><g class="trace scatter trace745c46" style="stroke-miterlimit: 2; opacity: 1;"><g class="fills"/><g class="errorbars"/><g class="lines"/><g class="points"><path class="point" transform="translate(725.72,367.02)" d="M10.42,0A10.42,10.42 0 1,1 0,-10.42A10.42,10.42 0 0,1 10.42,0Z" style="opacity: 1; stroke-width: 0px; fill: rgb(0, 0, 0); fill-opacity: 1;"/><path class="point" transform="translate(725.72,468.97)" d="M10.42,0A10.42,10.42 0 1,1 0,-10.42A10.42,10.42 0 0,1 10.42,0Z" style="opacity: 1; stroke-width: 0px; fill: rgb(0, 0, 0); fill-opacity: 1;"/><path class="point" transform="translate(725.72,519.95)" d="M10.42,0A10.42,10.42 0 1,1 0,-10.42A10.42,10.42 0 0,1 10.42,0Z" style="opacity: 1; stroke-width: 0px; fill: rgb(0, 0, 0); fill-opacity: 1;"/></g><g class="text"/></g><g class="trace scatter tracebdf573" style="stroke-miterlimit: 2; opacity: 1;"><g class="fills"/><g class="errorbars"/><g class="lines"/><g class="points"><path class="point" transform="translate(725.72,367.02)" d="M10.42,0A10.42,10.42 0 1,1 0,-10.42A10.42,10.42 0 0,1 10.42,0Z" style="opacity: 1; stroke-width: 0px; fill: rgb(0, 0, 0); fill-opacity: 1;"/><path class="point" transform="translate(725.72,468.97)" d="M10.42,0A10.42,10.42 0 1,1 0,-10.42A10.42,10.42 0 0,1 10.42,0Z" style="opacity: 1; stroke-width: 0px; fill: rgb(0, 0, 0); fill-opacity: 1;"/><path class="point" transform="translate(725.72,519.95)" d="M10.42,0A10.42,10.42 0 1,1 0,-10.42A10.42,10.42 0 0,1 10.42,0Z" style="opacity: 1; stroke-width: 0px; fill: rgb(0, 0, 0); fill-opacity: 1;"/><path class="point" transform="translate(725.72,570.92)" d="M10.42,0A10.42,10.42 0 1,1 0,-10.42A10.42,10.42 0 0,1 10.42,0Z" style="opacity: 1; stroke-width: 0px; fill: rgb(0, 0, 0); fill-opacity: 1;"/></g><g class="text"/></g><g class="trace scatter tracee8f60a" style="stroke-miterlimit: 2; opacity: 1;"><g class="fills"/><g class="errorbars"/><g class="lines"/><g class="points"><path class="point" transform="translate(725.72,367.02)" d="M10.42,0A10.42,10.42 0 1,1 0,-10.42A10.42,10.42 0 0,1 10.42,0Z" style="opacity: 1; stroke-width: 0px; fill: rgb(0, 0, 0); fill-opacity: 1;"/><path class="point" transform="translate(725.72,468.97)" d="M10.42,0A10.42,10.42 0 1,1 0,-10.42A10.42,10.42 0 0,1 10.42,0Z" style="opacity: 1; stroke-width: 0px; fill: rgb(0, 0, 0); fill-opacity: 1;"/><path class="point" transform="translate(725.72,519.95)" d="M10.42,0A10.42,10.42 0 1,1 0,-10.42A10.42,10.42 0 0,1 10.42,0Z" style="opacity: 1; stroke-width: 0px; fill: rgb(0, 0, 0); fill-opacity: 1;"/><path class="point" transform="translate(725.72,570.92)" d="M10.42,0A10.42,10.42 0 1,1 0,-10.42A10.42,10.42 0 0,1 10.42,0Z" style="opacity: 1; stroke-width: 0px; fill: rgb(0, 0, 0); fill-opacity: 1;"/><path class="point" transform="translate(725.72,621.9)" d="M10.42,0A10.42,10.42 0 1,1 0,-10.42A10.42,10.42 0 0,1 10.42,0Z" style="opacity: 1; stroke-width: 0px; fill: rgb(0, 0, 0); fill-opacity: 1;"/></g><g class="text"/></g><g class="trace scatter traceab665f" style="stroke-miterlimit: 2; opacity: 1;"><g class="fills"/><g class="errorbars"/><g class="lines"/><g class="points"/><g class="text"><g class="textpoint" transform="translate(0,3)"><text x="547.28" y="367.02" text-anchor="end" style="font-family: 'Open Sans', verdana, arial, sans-serif; font-size: 12px; fill: rgb(42, 63, 95); fill-opacity: 1; white-space: pre;">bg11-EX_photon_e127.48-EX_fe2_e6.61eminus05-EX_fe3_e6.02eminus05-deletion_IsiA_28h_mv_30_BAR-Function-2</text></g><g class="textpoint" transform="translate(0,3)"><text x="547.28" y="418" text-anchor="end" style="font-family: 'Open Sans', verdana, arial, sans-serif; font-size: 12px; fill: rgb(42, 63, 95); fill-opacity: 1; white-space: pre;">bg11-EX_photon_e127.48-EX_fe2_e6.61eminus05-EX_fe3_e6.02eminus05-wt_28h_mv_30_BAR-Function-2</text></g><g class="textpoint" transform="translate(0,3)"><text x="547.28" y="468.97" text-anchor="end" style="font-family: 'Open Sans', verdana, arial, sans-serif; font-size: 12px; fill: rgb(42, 63, 95); fill-opacity: 1; white-space: pre;">bg11-EX_photon_e127.48-EX_fe2_e6.61eminus05-EX_fe3_e6.02eminus05-no_Fe_30_BAR-Function-2</text></g><g class="textpoint" transform="translate(0,3)"><text x="547.28" y="519.95" text-anchor="end" style="font-family: 'Open Sans', verdana, arial, sans-serif; font-size: 12px; fill: rgb(42, 63, 95); fill-opacity: 1; white-space: pre;">bg11-EX_photon_e127.48-EX_fe2_e6.61eminus05-EX_fe3_e6.02eminus05-deletion_IsiA_24h_30_BAR-Function-2</text></g><g class="textpoint" transform="translate(0,3)"><text x="547.28" y="570.92" text-anchor="end" style="font-family: 'Open Sans', verdana, arial, sans-serif; font-size: 12px; fill: rgb(42, 63, 95); fill-opacity: 1; white-space: pre;">bg11-EX_photon_e127.48-control_30_BAR-Function-2</text></g><g class="textpoint" transform="translate(0,3)"><text x="547.28" y="621.9" text-anchor="end" style="font-family: 'Open Sans', verdana, arial, sans-serif; font-size: 12px; fill: rgb(42, 63, 95); fill-opacity: 1; white-space: pre;">bg11-EX_photon_e127.48-EX_fe2_e6.61eminus05-EX_fe3_e6.02eminus05-wt_24h_30_BAR-Function-2</text></g></g></g></g></g><g class="overplot"/><path class="xlines-above crisp" d="M0,0" style="fill: none;"/><path class="ylines-above crisp" d="M0,0" style="fill: none;"/><g class="overlines-above"/><g class="xaxislayer-above"/><g class="yaxislayer-above"/><g class="overaxes-above"/></g></g><g class="polarlayer"/><g class="smithlayer"/><g class="ternarylayer"/><g class="geolayer"/><g class="funnelarealayer"/><g class="pielayer"/><g class="iciclelayer"/><g class="treemaplayer"/><g class="sunburstlayer"/><g class="glimages"/><defs id="topdefs-6d3bd8"><g class="clips"/></defs><g class="layer-above"><g class="imagelayer"/><g class="shapelayer"/></g><g class="infolayer"><g class="g-gtitle"><text class="gtitle" x="500" y="20" text-anchor="middle" dy="0em" style="font-family: 'Open Sans', verdana, arial, sans-serif; font-size: 17px; fill: rgb(42, 63, 95); opacity: 1; font-weight: normal; white-space: pre;"><tspan style="font-weight:bold">Intersections<tspan style="font-weight:bold"></tspan></tspan></text></g><g class="g-xtitle"/><g class="g-ytitle"/></g></svg>