<svg class="main-svg" xmlns="http://www.w3.org/2000/svg" xmlns:xlink="http://www.w3.org/1999/xlink" width="1000" height="800" style="" viewBox="0 0 1000 800"><rect x="0" y="0" width="1000" height="800" style="fill: rgb(255, 255, 255); fill-opacity: 1;"/><defs id="defs-22fb6f"><g class="clips"><clipPath id="clip22fb6fxyplot" class="plotclip"><rect width="770" height="680"/></clipPath><clipPath class="axesclip" id="clip22fb6fx"><rect x="150" y="0" width="770" height="800"/></clipPath><clipPath class="axesclip" id="clip22fb6fy"><rect x="0" y="40" width="1000" height="680"/></clipPath><clipPath class="axesclip" id="clip22fb6fxy"><rect x="150" y="40" width="770" height="680"/></clipPath></g><g class="gradients"/><g class="patterns"/></defs><g class="bglayer"><rect class="bg" x="150" y="40" width="770" height="680" style="fill: rgb(255, 255, 255); fill-opacity: 1; stroke-width: 0;"/></g><g class="layer-below"><g class="imagelayer"/><g class="shapelayer"/></g><g class="cartesianlayer"><g class="subplot xy"><g class="layer-subplot"><g class="shapelayer"/><g class="imagelayer"/></g><g class="minor-gridlayer"><g class="x"/><g class="y"/></g><g class="gridlayer"><g class="x"/><g class="y"><path class="ygrid crisp" transform="translate(0,671.1)" d="M150,0h770" style="stroke: rgb(255, 255, 255); stroke-opacity: 1; stroke-width: 1px;"/><path class="ygrid crisp" transform="translate(0,554.66)" d="M150,0h770" style="stroke: rgb(255, 255, 255); stroke-opacity: 1; stroke-width: 1px;"/><path class="ygrid crisp" transform="translate(0,438.22)" d="M150,0h770" style="stroke: rgb(255, 255, 255); stroke-opacity: 1; stroke-width: 1px;"/><path class="ygrid crisp" transform="translate(0,321.78)" d="M150,0h770" style="stroke: rgb(255, 255, 255); stroke-opacity: 1; stroke-width: 1px;"/><path class="ygrid crisp" transform="translate(0,205.34)" d="M150,0h770" style="stroke: rgb(255, 255, 255); stroke-opacity: 1; stroke-width: 1px;"/><path class="ygrid crisp" transform="translate(0,88.9)" d="M150,0h770" style="stroke: rgb(255, 255, 255); stroke-opacity: 1; stroke-width: 1px;"/></g></g><g class="zerolinelayer"/><path class="xlines-below"/><path class="ylines-below"/><g class="overlines-below"/><g class="xaxislayer-below"/><g class="yaxislayer-below"/><g class="overaxes-below"/><g class="plot" transform="translate(150,40)" clip-path="url(#clip22fb6fxyplot)"><g class="barlayer mlayer"><g class="trace bars" style="opacity: 1;"><g class="points"><g class="point"><path d="M649.92,281.78V48.9H689.95V281.78Z" style="vector-effect: non-scaling-stroke; opacity: 1; stroke-width: 0.5px; fill: rgb(0, 0, 0); fill-opacity: 1; stroke: rgb(229, 236, 246); stroke-opacity: 1;"/><text class="bartext bartext-outside" text-anchor="middle" data-notex="1" x="0" y="0" style="font-family: 'Open Sans', verdana, arial, sans-serif; font-size: 12px; fill: rgb(42, 63, 95); fill-opacity: 1; white-space: pre;" transform="translate(669.7709375,42.9)">2</text></g><g class="point"><path d="M699.95,281.78V165.34H739.98V281.78Z" style="vector-effect: non-scaling-stroke; opacity: 1; stroke-width: 0.5px; fill: rgb(0, 0, 0); fill-opacity: 1; stroke: rgb(229, 236, 246); stroke-opacity: 1;"/><text class="bartext bartext-outside" text-anchor="middle" data-notex="1" x="0" y="0" style="font-family: 'Open Sans', verdana, arial, sans-serif; font-size: 12px; fill: rgb(42, 63, 95); fill-opacity: 1; white-space: pre;" transform="translate(719.8009375,159.34)">1</text></g></g></g></g><g class="scatterlayer mlayer"><g class="trace scatter tracedf3820" style="stroke-miterlimit: 2; opacity: 1;"><g class="fills"/><g class="errorbars"/><g class="lines"/><g class="points"><path class="point" transform="translate(669.94,307.4)" d="M20.83,0A20.83,20.83 0 1,1 0,-20.83A20.83,20.83 0 0,1 20.83,0Z" style="opacity: 1; stroke-width: 0px; fill: rgb(201, 201, 201); fill-opacity: 1;"/><path class="point" transform="translate(669.94,350.09)" d="M20.83,0A20.83,20.83 0 1,1 0,-20.83A20.83,20.83 0 0,1 20.83,0Z" style="opacity: 1; stroke-width: 0px; fill: rgb(201, 201, 201); fill-opacity: 1;"/><path class="point" transform="translate(669.94,392.79)" d="M20.83,0A20.83,20.83 0 1,1 0,-20.83A20.83,20.83 0 0,1 20.83,0Z" style="opacity: 1; stroke-width: 0px; fill: rgb(201, 201, 201); fill-opacity: 1;"/><path class="point" transform="translate(669.94,435.48)" d="M20.83,0A20.83,20.83 0 1,1 0,-20.83A20.83,20.83 0 0,1 20.83,0Z" style="opacity: 1; stroke-width: 0px; fill: rgb(201, 201, 201); fill-opacity: 1;"/><path class="point" transform="translate(669.94,478.17)" d="M20.83,0A20.83,20.83 0 1,1 0,-20.83A20.83,20.83 0 0,1 20.83,0Z" style="opacity: 1; stroke-width: 0px; fill: rgb(201, 201, 201); fill-opacity: 1;"/><path class="point" transform="translate(669.94,520.87)" d="M20.83,0A20.83,20.83 0 1,1 0,-20.83A20.83,20.83 0 0,1 20.83,0Z" style="opacity: 1; stroke-width: 0px; fill: rgb(201, 201, 201); fill-opacity: 1;"/><path class="point" transform="translate(719.97,307.4)" d="M20.83,0A20.83,20.83 0 1,1 0,-20.83A20.83,20.83 0 0,1 20.83,0Z" style="opacity: 1; stroke-width: 0px; fill: rgb(201, 201, 201); fill-opacity: 1;"/><path class="point" transform="translate(719.97,350.09)" d="M20.83,0A20.83,20.83 0 1,1 0,-20.83A20.83,20.83 0 0,1 20.83,0Z" style="opacity: 1; stroke-width: 0px; fill: rgb(201, 201, 201); fill-opacity: 1;"/><path class="point" transform="translate(719.97,392.79)" d="M20.83,0A20.83,20.83 0 1,1 0,-20.83A20.83,20.83 0 0,1 20.83,0Z" style="opacity: 1; stroke-width: 0px; fill: rgb(201, 201, 201); fill-opacity: 1;"/><path class="point" transform="translate(719.97,435.48)" d="M20.83,0A20.83,20.83 0 1,1 0,-20.83A20.83,20.83 0 0,1 20.83,0Z" style="opacity: 1; stroke-width: 0px; fill: rgb(201, 201, 201); fill-opacity: 1;"/><path class="point" transform="translate(719.97,478.17)" d="M20.83,0A20.83,20.83 0 1,1 0,-20.83A20.83,20.83 0 0,1 20.83,0Z" style="opacity: 1; stroke-width: 0px; fill: rgb(201, 201, 201); fill-opacity: 1;"/><path class="point" transform="translate(719.97,520.87)" d="M20.83,0A20.83,20.83 0 1,1 0,-20.83A20.83,20.83 0 0,1 20.83,0Z" style="opacity: 1; stroke-width: 0px; fill: rgb(201, 201, 201); fill-opacity: 1;"/></g><g class="text"/></g><g class="trace scatter trace0a8a38" style="stroke-miterlimit: 2; opacity: 1;"><g class="fills"/><g class="errorbars"/><g class="lines"/><g class="points"><path class="point" transform="translate(669.94,307.4)" d="M20.83,0A20.83,20.83 0 1,1 0,-20.83A20.83,20.83 0 0,1 20.83,0Z" style="opacity: 1; stroke-width: 0px; fill: rgb(0, 0, 0); fill-opacity: 1;"/></g><g class="text"/></g><g class="trace scatter trace5ce47c" style="stroke-miterlimit: 2; opacity: 1;"><g class="fills"/><g class="errorbars"/><g class="lines"/><g class="points"><path class="point" transform="translate(669.94,307.4)" d="M20.83,0A20.83,20.83 0 1,1 0,-20.83A20.83,20.83 0 0,1 20.83,0Z" style="opacity: 1; stroke-width: 0px; fill: rgb(0, 0, 0); fill-opacity: 1;"/><path class="point" transform="translate(669.94,350.09)" d="M20.83,0A20.83,20.83 0 1,1 0,-20.83A20.83,20.83 0 0,1 20.83,0Z" style="opacity: 1; stroke-width: 0px; fill: rgb(0, 0, 0); fill-opacity: 1;"/></g><g class="text"/></g><g class="trace scatter trace3c1ab7" style="stroke-miterlimit: 2; opacity: 1;"><g class="fills"/><g class="errorbars"/><g class="lines"/><g class="points"><path class="point" transform="translate(669.94,307.4)" d="M20.83,0A20.83,20.83 0 1,1 0,-20.83A20.83,20.83 0 0,1 20.83,0Z" style="opacity: 1; stroke-width: 0px; fill: rgb(0, 0, 0); fill-opacity: 1;"/><path class="point" transform="translate(669.94,350.09)" d="M20.83,0A20.83,20.83 0 1,1 0,-20.83A20.83,20.83 0 0,1 20.83,0Z" style="opacity: 1; stroke-width: 0px; fill: rgb(0, 0, 0); fill-opacity: 1;"/><path class="point" transform="translate(669.94,392.79)" d="M20.83,0A20.83,20.83 0 1,1 0,-20.83A20.83,20.83 0 0,1 20.83,0Z" style="opacity: 1; stroke-width: 0px; fill: rgb(0, 0, 0); fill-opacity: 1;"/></g><g class="text"/></g><g class="trace scatter tracef0635b" style="stroke-miterlimit: 2; opacity: 1;"><g class="fills"/><g class="errorbars"/><g class="lines"/><g class="points"><path class="point" transform="translate(669.94,307.4)" d="M20.83,0A20.83,20.83 0 1,1 0,-20.83A20.83,20.83 0 0,1 20.83,0Z" style="opacity: 1; stroke-width: 0px; fill: rgb(0, 0, 0); fill-opacity: 1;"/><path class="point" transform="translate(669.94,350.09)" d="M20.83,0A20.83,20.83 0 1,1 0,-20.83A20.83,20.83 0 0,1 20.83,0Z" style="opacity: 1; stroke-width: 0px; fill: rgb(0, 0, 0); fill-opacity: 1;"/><path class="point" transform="translate(669.94,392.79)" d="M20.83,0A20.83,20.83 0 1,1 0,-20.83A20.83,20.83 0 0,1 20.83,0Z" style="opacity: 1; stroke-width: 0px; fill: rgb(0, 0, 0); fill-opacity: 1;"/><path class="point" transform="translate(669.94,435.48)" d="M20.83,0A20.83,20.83 0 1,1 0,-20.83A20.83,20.83 0 0,1 20.83,0Z" style="opacity: 1; stroke-width: 0px; fill: rgb(0, 0, 0); fill-opacity: 1;"/></g><g class="text"/></g><g class="trace scatter trace13195f" style="stroke-miterlimit: 2; opacity: 1;"><g class="fills"/><g class="errorbars"/><g class="lines"/><g class="points"><path class="point" transform="translate(669.94,307.4)" d="M20.83,0A20.83,20.83 0 1,1 0,-20.83A20.83,20.83 0 0,1 20.83,0Z" style="opacity: 1; stroke-width: 0px; fill: rgb(0, 0, 0); fill-opacity: 1;"/><path class="point" transform="translate(669.94,350.09)" d="M20.83,0A20.83,20.83 0 1,1 0,-20.83A20.83,20.83 0 0,1 20.83,0Z" style="opacity: 1; stroke-width: 0px; fill: rgb(0, 0, 0); fill-opacity: 1;"/><path class="point" transform="translate(669.94,392.79)" d="M20.83,0A20.83,20.83 0 1,1 0,-20.83A20.83,20.83 0 0,1 20.83,0Z" style="opacity: 1; stroke-width: 0px; fill: rgb(0, 0, 0); fill-opacity: 1;"/><path class="point" transform="translate(669.94,435.48)" d="M20.83,0A20.83,20.83 0 1,1 0,-20.83A20.83,20.83 0 0,1 20.83,0Z" style="opacity: 1; stroke-width: 0px; fill: rgb(0, 0, 0); fill-opacity: 1;"/><path class="point" transform="translate(669.94,478.17)" d="M20.83,0A20.83,20.83 0 1,1 0,-20.83A20.83,20.83 0 0,1 20.83,0Z" style="opacity: 1; stroke-width: 0px; fill: rgb(0, 0, 0); fill-opacity: 1;"/></g><g class="text"/></g><g class="trace scatter tracee15b2e" style="stroke-miterlimit: 2; opacity: 1;"><g class="fills"/><g class="errorbars"/><g class="lines"/><g class="points"><path class="point" transform="translate(669.94,307.4)" d="M20.83,0A20.83,20.83 0 1,1 0,-20.83A20.83,20.83 0 0,1 20.83,0Z" style="opacity: 1; stroke-width: 0px; fill: rgb(0, 0, 0); fill-opacity: 1;"/><path class="point" transform="translate(669.94,350.09)" d="M20.83,0A20.83,20.83 0 1,1 0,-20.83A20.83,20.83 0 0,1 20.83,0Z" style="opacity: 1; stroke-width: 0px; fill: rgb(0, 0, 0); fill-opacity: 1;"/><path class="point" transform="translate(669.94,392.79)" d="M20.83,0A20.83,20.83 0 1,1 0,-20.83A20.83,20.83 0 0,1 20.83,0Z" style="opacity: 1; stroke-width: 0px; fill: rgb(0, 0, 0); fill-opacity: 1;"/><path class="point" transform="translate(669.94,435.48)" d="M20.83,0A20.83,20.83 0 1,1 0,-20.83A20.83,20.83 0 0,1 20.83,0Z" style="opacity: 1; stroke-width: 0px; fill: rgb(0, 0, 0); fill-opacity: 1;"/><path class="point" transform="translate(669.94,478.17)" d="M20.83,0A20.83,20.83 0 1,1 0,-20.83A20.83,20.83 0 0,1 20.83,0Z" style="opacity: 1; stroke-width: 0px; fill: rgb(0, 0, 0); fill-opacity: 1;"/><path class="point" transform="translate(669.94,520.87)" d="M20.83,0A20.83,20.83 0 1,1 0,-20.83A20.83,20.83 0 0,1 20.83,0Z" style="opacity: 1; stroke-width: 0px; fill: rgb(0, 0, 0); fill-opacity: 1;"/></g><g class="text"/></g><g class="trace scatter trace8c336a" style="stroke-miterlimit: 2; opacity: 1;"><g class="fills"/><g class="errorbars"/><g class="lines"/><g class="points"><path class="point" transform="translate(719.97,307.4)" d="M20.83,0A20.83,20.83 0 1,1 0,-20.83A20.83,20.83 0 0,1 20.83,0Z" style="opacity: 1; stroke-width: 0px; fill: rgb(0, 0, 0); fill-opacity: 1;"/></g><g class="text"/></g><g class="trace scatter trace0b1811" style="stroke-miterlimit: 2; opacity: 1;"><g class="fills"/><g class="errorbars"/><g class="lines"/><g class="points"><path class="point" transform="translate(719.97,307.4)" d="M20.83,0A20.83,20.83 0 1,1 0,-20.83A20.83,20.83 0 0,1 20.83,0Z" style="opacity: 1; stroke-width: 0px; fill: rgb(0, 0, 0); fill-opacity: 1;"/><path class="point" transform="translate(719.97,350.09)" d="M20.83,0A20.83,20.83 0 1,1 0,-20.83A20.83,20.83 0 0,1 20.83,0Z" style="opacity: 1; stroke-width: 0px; fill: rgb(0, 0, 0); fill-opacity: 1;"/></g><g class="text"/></g><g class="trace scatter trace5a8c13" style="stroke-miterlimit: 2; opacity: 1;"><g class="fills"/><g class="errorbars"/><g class="lines"/><g class="points"><path class="point" transform="translate(719.97,307.4)" d="M20.83,0A20.83,20.83 0 1,1 0,-20.83A20.83,20.83 0 0,1 20.83,0Z" style="opacity: 1; stroke-width: 0px; fill: rgb(0, 0, 0); fill-opacity: 1;"/><path class="point" transform="translate(719.97,350.09)" d="M20.83,0A20.83,20.83 0 1,1 0,-20.83A20.83,20.83 0 0,1 20.83,0Z" style="opacity: 1; stroke-width: 0px; fill: rgb(0, 0, 0); fill-opacity: 1;"/><path class="point" transform="translate(719.97,392.79)" d="M20.83,0A20.83,20.83 0 1,1 0,-20.83A20.83,20.83 0 0,1 20.83,0Z" style="opacity: 1; stroke-width: 0px; fill: rgb(0, 0, 0); fill-opacity: 1;"/></g><g class="text"/></g><g class="trace scatter trace450e8a" style="stroke-miterlimit: 2; opacity: 1;"><g class="fills"/><g class="errorbars"/><g class="lines"/><g class="points"><path class="point" transform="translate(719.97,307.4)" d="M20.83,0A20.83,20.83 0 1,1 0,-20.83A20.83,20.83 0 0,1 20.83,0Z" style="opacity: 1; stroke-width: 0px; fill: rgb(0, 0, 0); fill-opacity: 1;"/><path class="point" transform="translate(719.97,350.09)" d="M20.83,0A20.83,20.83 0 1,1 0,-20.83A20.83,20.83 0 0,1 20.83,0Z" style="opacity: 1; stroke-width: 0px; fill: rgb(0, 0, 0); fill-opacity: 1;"/><path class="point" transform="translate(719.97,392.79)" d="M20.83,0A20.83,20.83 0 1,1 0,-20.83A20.83,20.83 0 0,1 20.83,0Z" style="opacity: 1; stroke-width: 0px; fill: rgb(0, 0, 0); fill-opacity: 1;"/><path class="point" transform="translate(719.97,520.87)" d="M20.83,0A20.83,20.83 0 1,1 0,-20.83A20.83,20.83 0 0,1 20.83,0Z" style="opacity: 1; stroke-width: 0px; fill: rgb(0, 0, 0); fill-opacity: 1;"/></g><g class="text"/></g><g class="trace scatter trace7c08d3" style="stroke-miterlimit: 2; opacity: 1;"><g class="fills"/><g class="errorbars"/><g class="lines"/><g class="points"/><g class="text"><g class="textpoint" transform="translate(0,3)"><text x="618.4" y="307.4" text-anchor="end" style="font-family: 'Open Sans', verdana, arial, sans-serif; font-size: 12px; fill: rgb(42, 63, 95); fill-opacity: 1; white-space: pre;">bg11-EX_photon_e127.48-EX_fe2_e6.61eminus05-EX_fe3_e6.02eminus05-no_Fe_30_BAR-Function-1</text></g><g class="textpoint" transform="translate(0,3)"><text x="618.4" y="350.09" text-anchor="end" style="font-family: 'Open Sans', verdana, arial, sans-serif; font-size: 12px; fill: rgb(42, 63, 95); fill-opacity: 1; white-space: pre;">bg11-EX_photon_e127.48-EX_fe2_e6.61eminus05-EX_fe3_e6.02eminus05-deletion_IsiA_28h_mv_30_BAR-Function-1</text></g><g class="textpoint" transform="translate(0,3)"><text x="618.4" y="392.79" text-anchor="end" style="font-family: 'Open Sans', verdana, arial, sans-serif; font-size: 12px; fill: rgb(42, 63, 95); fill-opacity: 1; white-space: pre;">bg11-EX_photon_e127.48-EX_fe2_e6.61eminus05-EX_fe3_e6.02eminus05-deletion_IsiA_24h_30_BAR-Function-1</text></g><g class="textpoint" transform="translate(0,3)"><text x="618.4" y="435.48" text-anchor="end" style="font-family: 'Open Sans', verdana, arial, sans-serif; font-size: 12px; fill: rgb(42, 63, 95); fill-opacity: 1; white-space: pre;">bg11-EX_photon_e127.48-EX_fe2_e6.61eminus05-EX_fe3_e6.02eminus05-wt_24h_30_BAR-Function-1</text></g><g class="textpoint" transform="translate(0,3)"><text x="618.4" y="478.17" text-anchor="end" style="font-family: 'Open Sans', verdana, arial, sans-serif; font-size: 12px; fill: rgb(42, 63, 95); fill-opacity: 1; white-space: pre;">bg11-EX_photon_e127.48-control_30_BAR-Function-1</text></g><g class="textpoint" transform="translate(0,3)"><text x="618.4" y="520.87" text-anchor="end" style="font-family: 'Open Sans', verdana, arial, sans-serif; font-size: 12px; fill: rgb(42, 63, 95); fill-opacity: 1; white-space: pre;">bg11-EX_photon_e127.48-EX_fe2_e6.61eminus05-EX_fe3_e6.02eminus05-wt_28h_mv_30_BAR-Function-1</text></g></g></g></g></g><g class="overplot"/><path class="xlines-above crisp" d="M0,0" style="fill: none;"/><path class="ylines-above crisp" d="M0,0" style="fill: none;"/><g class="overlines-above"/><g class="xaxislayer-above"/><g class="yaxislayer-above"/><g class="overaxes-above"/></g></g><g class="polarlayer"/><g class="smithlayer"/><g class="ternarylayer"/><g class="geolayer"/><g class="funnelarealayer"/><g class="pielayer"/><g class="iciclelayer"/><g class="treemaplayer"/><g class="sunburstlayer"/><g class="glimages"/><defs id="topdefs-22fb6f"><g class="clips"/></defs><g class="layer-above"><g class="imagelayer"/><g class="shapelayer"/></g><g class="infolayer"><g class="g-gtitle"><text class="gtitle" x="500" y="20" text-anchor="middle" dy="0em" style="font-family: 'Open Sans', verdana, arial, sans-serif; font-size: 17px; fill: rgb(42, 63, 95); opacity: 1; font-weight: normal; white-space: pre;"><tspan style="font-weight:bold">Intersections<tspan style="font-weight:bold"></tspan></tspan></text></g><g class="g-xtitle"/><g class="g-ytitle"/></g></svg>