<svg class="main-svg" xmlns="http://www.w3.org/2000/svg" xmlns:xlink="http://www.w3.org/1999/xlink" width="444" height="1200" style="" viewBox="0 0 444 1200"><rect x="0" y="0" width="444" height="1200" style="fill: rgb(255, 255, 255); fill-opacity: 1;"/><defs id="defs-dc2fa1"><g class="clips"><clipPath id="clipdc2fa1xyplot" class="plotclip"><rect width="216" height="1020"/></clipPath><clipPath class="axesclip" id="clipdc2fa1x"><rect x="148" y="0" width="216" height="1200"/></clipPath><clipPath class="axesclip" id="clipdc2fa1y"><rect x="0" y="100" width="444" height="1020"/></clipPath><clipPath class="axesclip" id="clipdc2fa1xy"><rect x="148" y="100" width="216" height="1020"/></clipPath></g><g class="gradients"/><g class="patterns"/></defs><g class="bglayer"><rect class="bg" x="148" y="100" width="216" height="1020" style="fill: rgb(229, 236, 246); fill-opacity: 1; stroke-width: 0;"/></g><g class="layer-below"><g class="imagelayer"/><g class="shapelayer"/></g><g class="cartesianlayer"><g class="subplot xy"><g class="layer-subplot"><g class="shapelayer"/><g class="imagelayer"/></g><g class="minor-gridlayer"><g class="x"/><g class="y"/></g><g class="gridlayer"><g class="x"><path class="xgrid crisp" transform="translate(176.97,0)" d="M0,100v1020" style="stroke: rgb(255, 255, 255); stroke-opacity: 1; stroke-width: 1px;"/><path class="xgrid crisp" transform="translate(342.01,0)" d="M0,100v1020" style="stroke: rgb(255, 255, 255); stroke-opacity: 1; stroke-width: 1px;"/></g><g class="y"><path class="ygrid crisp" transform="translate(0,1057.81)" d="M148,0h216" style="stroke: rgb(255, 255, 255); stroke-opacity: 1; stroke-width: 1px;"/><path class="ygrid crisp" transform="translate(0,877.22)" d="M148,0h216" style="stroke: rgb(255, 255, 255); stroke-opacity: 1; stroke-width: 1px;"/><path class="ygrid crisp" transform="translate(0,696.63)" d="M148,0h216" style="stroke: rgb(255, 255, 255); stroke-opacity: 1; stroke-width: 1px;"/><path class="ygrid crisp" transform="translate(0,516.04)" d="M148,0h216" style="stroke: rgb(255, 255, 255); stroke-opacity: 1; stroke-width: 1px;"/><path class="ygrid crisp" transform="translate(0,335.46000000000004)" d="M148,0h216" style="stroke: rgb(255, 255, 255); stroke-opacity: 1; stroke-width: 1px;"/><path class="ygrid crisp" transform="translate(0,154.87)" d="M148,0h216" style="stroke: rgb(255, 255, 255); stroke-opacity: 1; stroke-width: 1px;"/></g></g><g class="zerolinelayer"/><path class="xlines-below"/><path class="ylines-below"/><g class="overlines-below"/><g class="xaxislayer-below"/><g class="yaxislayer-below"/><g class="overaxes-below"/><g class="plot" transform="translate(148,100)" clip-path="url(#clipdc2fa1xyplot)"><g class="scatterlayer mlayer"><g class="trace scatter trace277d4f" style="stroke-miterlimit: 2; opacity: 1;"><g class="fills"/><g class="errorbars"/><g class="lines"/><g class="points"><path class="point" transform="translate(28.97,957.81)" d="M6.96,0A6.96,6.96 0 1,1 0,-6.96A6.96,6.96 0 0,1 6.96,0Z" style="opacity: 0.7; stroke-width: 2px; fill: rgb(31, 119, 180); fill-opacity: 1; stroke: rgb(255, 255, 255); stroke-opacity: 1;"/><path class="point" transform="translate(28.97,777.22)" d="M6.34,0A6.34,6.34 0 1,1 0,-6.34A6.34,6.34 0 0,1 6.34,0Z" style="opacity: 0.7; stroke-width: 2px; fill: rgb(31, 119, 180); fill-opacity: 1; stroke: rgb(255, 255, 255); stroke-opacity: 1;"/><path class="point" transform="translate(28.97,596.63)" d="M2.63,0A2.63,2.63 0 1,1 0,-2.63A2.63,2.63 0 0,1 2.63,0Z" style="opacity: 0.7; stroke-width: 2px; fill: rgb(31, 119, 180); fill-opacity: 1; stroke: rgb(255, 255, 255); stroke-opacity: 1;"/><path class="point" transform="translate(28.97,416.04)" d="M0.93,0A0.93,0.93 0 1,1 0,-0.93A0.93,0.93 0 0,1 0.93,0Z" style="opacity: 0.7; stroke-width: 2px; fill: rgb(31, 119, 180); fill-opacity: 1; stroke: rgb(255, 255, 255); stroke-opacity: 1;"/><path class="point" transform="translate(28.97,235.46)" d="M14.54,0A14.54,14.54 0 1,1 0,-14.54A14.54,14.54 0 0,1 14.54,0Z" style="opacity: 0.7; stroke-width: 2px; fill: rgb(31, 119, 180); fill-opacity: 1; stroke: rgb(255, 255, 255); stroke-opacity: 1;"/><path class="point" transform="translate(28.97,54.87)" d="M3.09,0A3.09,3.09 0 1,1 0,-3.09A3.09,3.09 0 0,1 3.09,0Z" style="opacity: 0.7; stroke-width: 2px; fill: rgb(31, 119, 180); fill-opacity: 1; stroke: rgb(255, 255, 255); stroke-opacity: 1;"/></g><g class="text"/></g><g class="trace scatter traceaca364" style="stroke-miterlimit: 2; opacity: 1;"><g class="fills"/><g class="errorbars"/><g class="lines"/><g class="points"><path class="point" transform="translate(194.01,957.81)" d="M8.95,0A8.95,8.95 0 1,1 0,-8.95A8.95,8.95 0 0,1 8.95,0Z" style="opacity: 0.7; stroke-width: 2px; fill: rgb(255, 127, 14); fill-opacity: 1; stroke: rgb(255, 255, 255); stroke-opacity: 1;"/><path class="point" transform="translate(194.01,777.22)" d="M7.96,0A7.96,7.96 0 1,1 0,-7.96A7.96,7.96 0 0,1 7.96,0Z" style="opacity: 0.7; stroke-width: 2px; fill: rgb(255, 127, 14); fill-opacity: 1; stroke: rgb(255, 255, 255); stroke-opacity: 1;"/><path class="point" transform="translate(194.01,596.63)" d="M3.98,0A3.98,3.98 0 1,1 0,-3.98A3.98,3.98 0 0,1 3.98,0Z" style="opacity: 0.7; stroke-width: 2px; fill: rgb(255, 127, 14); fill-opacity: 1; stroke: rgb(255, 255, 255); stroke-opacity: 1;"/><path class="point" transform="translate(194.01,416.04)" d="M2.49,0A2.49,2.49 0 1,1 0,-2.49A2.49,2.49 0 0,1 2.49,0Z" style="opacity: 0.7; stroke-width: 2px; fill: rgb(255, 127, 14); fill-opacity: 1; stroke: rgb(255, 255, 255); stroke-opacity: 1;"/><path class="point" transform="translate(194.01,235.46)" d="M5.47,0A5.47,5.47 0 1,1 0,-5.47A5.47,5.47 0 0,1 5.47,0Z" style="opacity: 0.7; stroke-width: 2px; fill: rgb(255, 127, 14); fill-opacity: 1; stroke: rgb(255, 255, 255); stroke-opacity: 1;"/><path class="point" transform="translate(194.01,54.87)" d="M1.99,0A1.99,1.99 0 1,1 0,-1.99A1.99,1.99 0 0,1 1.99,0Z" style="opacity: 0.7; stroke-width: 2px; fill: rgb(255, 127, 14); fill-opacity: 1; stroke: rgb(255, 255, 255); stroke-opacity: 1;"/></g><g class="text"/></g></g></g><g class="overplot"/><path class="xlines-above crisp" d="M0,0" style="fill: none;"/><path class="ylines-above crisp" d="M0,0" style="fill: none;"/><g class="overlines-above"/><g class="xaxislayer-above"><g class="xtick"><text text-anchor="middle" x="0" y="1133" transform="translate(176.97,0)" style="font-family: 'Open Sans', verdana, arial, sans-serif; font-size: 12px; fill: rgb(42, 63, 95); fill-opacity: 1; white-space: pre; opacity: 1;">BAR_Set_percentage</text></g><g class="xtick"><text text-anchor="middle" x="0" y="1133" transform="translate(342.01,0)" style="font-family: 'Open Sans', verdana, arial, sans-serif; font-size: 12px; fill: rgb(42, 63, 95); fill-opacity: 1; white-space: pre; opacity: 1;">NBR_Set_percentage</text></g></g><g class="yaxislayer-above"><g class="ytick"><text text-anchor="end" x="147" y="4.199999999999999" transform="translate(0,1057.81)" style="font-family: 'Open Sans', verdana, arial, sans-serif; font-size: 12px; fill: rgb(42, 63, 95); fill-opacity: 1; white-space: pre; opacity: 1;">Extracellular_structures</text></g><g class="ytick"><text text-anchor="end" x="147" y="4.199999999999999" transform="translate(0,877.22)" style="font-family: 'Open Sans', verdana, arial, sans-serif; font-size: 12px; fill: rgb(42, 63, 95); fill-opacity: 1; white-space: pre; opacity: 1;">Global_stress</text></g><g class="ytick"><text text-anchor="end" x="147" y="4.199999999999999" transform="translate(0,696.63)" style="font-family: 'Open Sans', verdana, arial, sans-serif; font-size: 12px; fill: rgb(42, 63, 95); fill-opacity: 1; white-space: pre; opacity: 1;">Light_response</text></g><g class="ytick"><text text-anchor="end" x="147" y="4.199999999999999" transform="translate(0,516.04)" style="font-family: 'Open Sans', verdana, arial, sans-serif; font-size: 12px; fill: rgb(42, 63, 95); fill-opacity: 1; white-space: pre; opacity: 1;">Nitrogen_metabolism</text></g><g class="ytick"><text text-anchor="end" x="147" y="4.199999999999999" transform="translate(0,335.46000000000004)" style="font-family: 'Open Sans', verdana, arial, sans-serif; font-size: 12px; fill: rgb(42, 63, 95); fill-opacity: 1; white-space: pre; opacity: 1;">Photosynthetic_response</text></g><g class="ytick"><text text-anchor="end" x="147" y="4.199999999999999" transform="translate(0,154.87)" style="font-family: 'Open Sans', verdana, arial, sans-serif; font-size: 12px; fill: rgb(42, 63, 95); fill-opacity: 1; white-space: pre; opacity: 1;">uncharacterized</text></g></g><g class="overaxes-above"/></g></g><g class="polarlayer"/><g class="smithlayer"/><g class="ternarylayer"/><g class="geolayer"/><g class="funnelarealayer"/><g class="pielayer"/><g class="iciclelayer"/><g class="treemaplayer"/><g class="sunburstlayer"/><g class="glimages"/><defs id="topdefs-dc2fa1"><g class="clips"/></defs><g class="layer-above"><g class="imagelayer"/><g class="shapelayer"/></g><g class="infolayer"><g class="g-gtitle"><text class="gtitle" x="244.20000000000002" y="60" text-anchor="middle" dy="0.7em" style="font-family: 'Open Sans', verdana, arial, sans-serif; font-size: 16px; fill: rgb(42, 63, 95); opacity: 1; font-weight: normal; white-space: pre;">Percentage of iModulon functions in BARs &amp; NBRs</text></g><g class="g-xtitle"/><g class="g-ytitle"/></g></svg>