<svg class="main-svg" xmlns="http://www.w3.org/2000/svg" xmlns:xlink="http://www.w3.org/1999/xlink" width="1000" height="800" style="" viewBox="0 0 1000 800"><rect x="0" y="0" width="1000" height="800" style="fill: rgb(255, 255, 255); fill-opacity: 1;"/><defs id="defs-e35c40"><g class="clips"><clipPath id="clipe35c40xyplot" class="plotclip"><rect width="770" height="680"/></clipPath><clipPath class="axesclip" id="clipe35c40x"><rect x="150" y="0" width="770" height="800"/></clipPath><clipPath class="axesclip" id="clipe35c40y"><rect x="0" y="40" width="1000" height="680"/></clipPath><clipPath class="axesclip" id="clipe35c40xy"><rect x="150" y="40" width="770" height="680"/></clipPath></g><g class="gradients"/><g class="patterns"/></defs><g class="bglayer"><rect class="bg" x="150" y="40" width="770" height="680" style="fill: rgb(255, 255, 255); fill-opacity: 1; stroke-width: 0;"/></g><g class="layer-below"><g class="imagelayer"/><g class="shapelayer"/></g><g class="cartesianlayer"><g class="subplot xy"><g class="layer-subplot"><g class="shapelayer"/><g class="imagelayer"/></g><g class="minor-gridlayer"><g class="x"/><g class="y"/></g><g class="gridlayer"><g class="x"/><g class="y"><path class="ygrid crisp" transform="translate(0,652.55)" d="M150,0h770" style="stroke: rgb(255, 255, 255); stroke-opacity: 1; stroke-width: 1px;"/><path class="ygrid crisp" transform="translate(0,560.16)" d="M150,0h770" style="stroke: rgb(255, 255, 255); stroke-opacity: 1; stroke-width: 1px;"/><path class="ygrid crisp" transform="translate(0,467.77)" d="M150,0h770" style="stroke: rgb(255, 255, 255); stroke-opacity: 1; stroke-width: 1px;"/><path class="ygrid crisp" transform="translate(0,375.38)" d="M150,0h770" style="stroke: rgb(255, 255, 255); stroke-opacity: 1; stroke-width: 1px;"/><path class="ygrid crisp" transform="translate(0,282.99)" d="M150,0h770" style="stroke: rgb(255, 255, 255); stroke-opacity: 1; stroke-width: 1px;"/><path class="ygrid crisp" transform="translate(0,190.6)" d="M150,0h770" style="stroke: rgb(255, 255, 255); stroke-opacity: 1; stroke-width: 1px;"/><path class="ygrid crisp" transform="translate(0,98.21000000000001)" d="M150,0h770" style="stroke: rgb(255, 255, 255); stroke-opacity: 1; stroke-width: 1px;"/></g></g><g class="zerolinelayer"/><path class="xlines-below"/><path class="ylines-below"/><g class="overlines-below"/><g class="xaxislayer-below"/><g class="yaxislayer-below"/><g class="overaxes-below"/><g class="plot" transform="translate(150,40)" clip-path="url(#clipe35c40xyplot)"><g class="barlayer mlayer"><g class="trace bars" style="opacity: 1;"><g class="points"><g class="point"><path d="M229.12,335.38V58.21H259.17V335.38Z" style="vector-effect: non-scaling-stroke; opacity: 1; stroke-width: 0.5px; fill: rgb(0, 0, 0); fill-opacity: 1; stroke: rgb(229, 236, 246); stroke-opacity: 1;"/><text class="bartext bartext-outside" text-anchor="middle" data-notex="1" x="0" y="0" style="font-family: 'Open Sans', verdana, arial, sans-serif; font-size: 12px; fill: rgb(42, 63, 95); fill-opacity: 1; white-space: pre;" transform="translate(243.98875,52.21)">30</text></g><g class="point"><path d="M266.68,335.38V307.66H296.73V335.38Z" style="vector-effect: non-scaling-stroke; opacity: 1; stroke-width: 0.5px; fill: rgb(0, 0, 0); fill-opacity: 1; stroke: rgb(229, 236, 246); stroke-opacity: 1;"/><text class="bartext bartext-outside" text-anchor="middle" data-notex="1" x="0" y="0" style="font-family: 'Open Sans', verdana, arial, sans-serif; font-size: 12px; fill: rgb(42, 63, 95); fill-opacity: 1; white-space: pre;" transform="translate(281.54093750000004,301.66)">3</text></g><g class="point"><path d="M304.24,335.38V307.66H334.29V335.38Z" style="vector-effect: non-scaling-stroke; opacity: 1; stroke-width: 0.5px; fill: rgb(0, 0, 0); fill-opacity: 1; stroke: rgb(229, 236, 246); stroke-opacity: 1;"/><text class="bartext bartext-outside" text-anchor="middle" data-notex="1" x="0" y="0" style="font-family: 'Open Sans', verdana, arial, sans-serif; font-size: 12px; fill: rgb(42, 63, 95); fill-opacity: 1; white-space: pre;" transform="translate(319.1009375,301.66)">3</text></g><g class="point"><path d="M341.8,335.38V307.66H371.85V335.38Z" style="vector-effect: non-scaling-stroke; opacity: 1; stroke-width: 0.5px; fill: rgb(0, 0, 0); fill-opacity: 1; stroke: rgb(229, 236, 246); stroke-opacity: 1;"/><text class="bartext bartext-outside" text-anchor="middle" data-notex="1" x="0" y="0" style="font-family: 'Open Sans', verdana, arial, sans-serif; font-size: 12px; fill: rgb(42, 63, 95); fill-opacity: 1; white-space: pre;" transform="translate(356.66093750000005,301.66)">3</text></g><g class="point"><path d="M379.37,335.38V316.9H409.41V335.38Z" style="vector-effect: non-scaling-stroke; opacity: 1; stroke-width: 0.5px; fill: rgb(0, 0, 0); fill-opacity: 1; stroke: rgb(229, 236, 246); stroke-opacity: 1;"/><text class="bartext bartext-outside" text-anchor="middle" data-notex="1" x="0" y="0" style="font-family: 'Open Sans', verdana, arial, sans-serif; font-size: 12px; fill: rgb(42, 63, 95); fill-opacity: 1; white-space: pre;" transform="translate(394.2259375,310.9)">2</text></g><g class="point"><path d="M416.93,335.38V316.9H446.98V335.38Z" style="vector-effect: non-scaling-stroke; opacity: 1; stroke-width: 0.5px; fill: rgb(0, 0, 0); fill-opacity: 1; stroke: rgb(229, 236, 246); stroke-opacity: 1;"/><text class="bartext bartext-outside" text-anchor="middle" data-notex="1" x="0" y="0" style="font-family: 'Open Sans', verdana, arial, sans-serif; font-size: 12px; fill: rgb(42, 63, 95); fill-opacity: 1; white-space: pre;" transform="translate(431.79093750000004,310.9)">2</text></g><g class="point"><path d="M454.49,335.38V316.9H484.54V335.38Z" style="vector-effect: non-scaling-stroke; opacity: 1; stroke-width: 0.5px; fill: rgb(0, 0, 0); fill-opacity: 1; stroke: rgb(229, 236, 246); stroke-opacity: 1;"/><text class="bartext bartext-outside" text-anchor="middle" data-notex="1" x="0" y="0" style="font-family: 'Open Sans', verdana, arial, sans-serif; font-size: 12px; fill: rgb(42, 63, 95); fill-opacity: 1; white-space: pre;" transform="translate(469.3509375,310.9)">2</text></g><g class="point"><path d="M492.05,335.38V326.14H522.1V335.38Z" style="vector-effect: non-scaling-stroke; opacity: 1; stroke-width: 0.5px; fill: rgb(0, 0, 0); fill-opacity: 1; stroke: rgb(229, 236, 246); stroke-opacity: 1;"/><text class="bartext bartext-outside" text-anchor="middle" data-notex="1" x="0" y="0" style="font-family: 'Open Sans', verdana, arial, sans-serif; font-size: 12px; fill: rgb(42, 63, 95); fill-opacity: 1; white-space: pre;" transform="translate(506.91093750000005,320.14)">1</text></g><g class="point"><path d="M529.61,335.38V326.14H559.66V335.38Z" style="vector-effect: non-scaling-stroke; opacity: 1; stroke-width: 0.5px; fill: rgb(0, 0, 0); fill-opacity: 1; stroke: rgb(229, 236, 246); stroke-opacity: 1;"/><text class="bartext bartext-outside" text-anchor="middle" data-notex="1" x="0" y="0" style="font-family: 'Open Sans', verdana, arial, sans-serif; font-size: 12px; fill: rgb(42, 63, 95); fill-opacity: 1; white-space: pre;" transform="translate(544.4709375,320.14)">1</text></g><g class="point"><path d="M567.17,335.38V326.14H597.22V335.38Z" style="vector-effect: non-scaling-stroke; opacity: 1; stroke-width: 0.5px; fill: rgb(0, 0, 0); fill-opacity: 1; stroke: rgb(229, 236, 246); stroke-opacity: 1;"/><text class="bartext bartext-outside" text-anchor="middle" data-notex="1" x="0" y="0" style="font-family: 'Open Sans', verdana, arial, sans-serif; font-size: 12px; fill: rgb(42, 63, 95); fill-opacity: 1; white-space: pre;" transform="translate(582.0309374999999,320.14)">1</text></g><g class="point"><path d="M604.73,335.38V326.14H634.78V335.38Z" style="vector-effect: non-scaling-stroke; opacity: 1; stroke-width: 0.5px; fill: rgb(0, 0, 0); fill-opacity: 1; stroke: rgb(229, 236, 246); stroke-opacity: 1;"/><text class="bartext bartext-outside" text-anchor="middle" data-notex="1" x="0" y="0" style="font-family: 'Open Sans', verdana, arial, sans-serif; font-size: 12px; fill: rgb(42, 63, 95); fill-opacity: 1; white-space: pre;" transform="translate(619.5909375,320.14)">1</text></g><g class="point"><path d="M642.29,335.38V326.14H672.34V335.38Z" style="vector-effect: non-scaling-stroke; opacity: 1; stroke-width: 0.5px; fill: rgb(0, 0, 0); fill-opacity: 1; stroke: rgb(229, 236, 246); stroke-opacity: 1;"/><text class="bartext bartext-outside" text-anchor="middle" data-notex="1" x="0" y="0" style="font-family: 'Open Sans', verdana, arial, sans-serif; font-size: 12px; fill: rgb(42, 63, 95); fill-opacity: 1; white-space: pre;" transform="translate(657.1509375,320.14)">1</text></g><g class="point"><path d="M679.85,335.38V326.14H709.9V335.38Z" style="vector-effect: non-scaling-stroke; opacity: 1; stroke-width: 0.5px; fill: rgb(0, 0, 0); fill-opacity: 1; stroke: rgb(229, 236, 246); stroke-opacity: 1;"/><text class="bartext bartext-outside" text-anchor="middle" data-notex="1" x="0" y="0" style="font-family: 'Open Sans', verdana, arial, sans-serif; font-size: 12px; fill: rgb(42, 63, 95); fill-opacity: 1; white-space: pre;" transform="translate(694.7109375,320.14)">1</text></g><g class="point"><path d="M717.41,335.38V326.14H747.46V335.38Z" style="vector-effect: non-scaling-stroke; opacity: 1; stroke-width: 0.5px; fill: rgb(0, 0, 0); fill-opacity: 1; stroke: rgb(229, 236, 246); stroke-opacity: 1;"/><text class="bartext bartext-outside" text-anchor="middle" data-notex="1" x="0" y="0" style="font-family: 'Open Sans', verdana, arial, sans-serif; font-size: 12px; fill: rgb(42, 63, 95); fill-opacity: 1; white-space: pre;" transform="translate(732.2709375,320.14)">1</text></g></g></g></g><g class="scatterlayer mlayer"><g class="trace scatter trace4104d9" style="stroke-miterlimit: 2; opacity: 1;"><g class="fills"/><g class="errorbars"/><g class="lines"/><g class="points"><path class="point" transform="translate(244.15,365.87)" d="M26.79,0A26.79,26.79 0 1,1 0,-26.79A26.79,26.79 0 0,1 26.79,0Z" style="opacity: 1; stroke-width: 0px; fill: rgb(201, 201, 201); fill-opacity: 1;"/><path class="point" transform="translate(244.15,442.09)" d="M26.79,0A26.79,26.79 0 1,1 0,-26.79A26.79,26.79 0 0,1 26.79,0Z" style="opacity: 1; stroke-width: 0px; fill: rgb(201, 201, 201); fill-opacity: 1;"/><path class="point" transform="translate(244.15,518.32)" d="M26.79,0A26.79,26.79 0 1,1 0,-26.79A26.79,26.79 0 0,1 26.79,0Z" style="opacity: 1; stroke-width: 0px; fill: rgb(201, 201, 201); fill-opacity: 1;"/><path class="point" transform="translate(244.15,594.54)" d="M26.79,0A26.79,26.79 0 1,1 0,-26.79A26.79,26.79 0 0,1 26.79,0Z" style="opacity: 1; stroke-width: 0px; fill: rgb(201, 201, 201); fill-opacity: 1;"/><path class="point" transform="translate(281.71,365.87)" d="M26.79,0A26.79,26.79 0 1,1 0,-26.79A26.79,26.79 0 0,1 26.79,0Z" style="opacity: 1; stroke-width: 0px; fill: rgb(201, 201, 201); fill-opacity: 1;"/><path class="point" transform="translate(281.71,442.09)" d="M26.79,0A26.79,26.79 0 1,1 0,-26.79A26.79,26.79 0 0,1 26.79,0Z" style="opacity: 1; stroke-width: 0px; fill: rgb(201, 201, 201); fill-opacity: 1;"/><path class="point" transform="translate(281.71,518.32)" d="M26.79,0A26.79,26.79 0 1,1 0,-26.79A26.79,26.79 0 0,1 26.79,0Z" style="opacity: 1; stroke-width: 0px; fill: rgb(201, 201, 201); fill-opacity: 1;"/><path class="point" transform="translate(281.71,594.54)" d="M26.79,0A26.79,26.79 0 1,1 0,-26.79A26.79,26.79 0 0,1 26.79,0Z" style="opacity: 1; stroke-width: 0px; fill: rgb(201, 201, 201); fill-opacity: 1;"/><path class="point" transform="translate(319.27,365.87)" d="M26.79,0A26.79,26.79 0 1,1 0,-26.79A26.79,26.79 0 0,1 26.79,0Z" style="opacity: 1; stroke-width: 0px; fill: rgb(201, 201, 201); fill-opacity: 1;"/><path class="point" transform="translate(319.27,442.09)" d="M26.79,0A26.79,26.79 0 1,1 0,-26.79A26.79,26.79 0 0,1 26.79,0Z" style="opacity: 1; stroke-width: 0px; fill: rgb(201, 201, 201); fill-opacity: 1;"/><path class="point" transform="translate(319.27,518.32)" d="M26.79,0A26.79,26.79 0 1,1 0,-26.79A26.79,26.79 0 0,1 26.79,0Z" style="opacity: 1; stroke-width: 0px; fill: rgb(201, 201, 201); fill-opacity: 1;"/><path class="point" transform="translate(319.27,594.54)" d="M26.79,0A26.79,26.79 0 1,1 0,-26.79A26.79,26.79 0 0,1 26.79,0Z" style="opacity: 1; stroke-width: 0px; fill: rgb(201, 201, 201); fill-opacity: 1;"/><path class="point" transform="translate(356.83,365.87)" d="M26.79,0A26.79,26.79 0 1,1 0,-26.79A26.79,26.79 0 0,1 26.79,0Z" style="opacity: 1; stroke-width: 0px; fill: rgb(201, 201, 201); fill-opacity: 1;"/><path class="point" transform="translate(356.83,442.09)" d="M26.79,0A26.79,26.79 0 1,1 0,-26.79A26.79,26.79 0 0,1 26.79,0Z" style="opacity: 1; stroke-width: 0px; fill: rgb(201, 201, 201); fill-opacity: 1;"/><path class="point" transform="translate(356.83,518.32)" d="M26.79,0A26.79,26.79 0 1,1 0,-26.79A26.79,26.79 0 0,1 26.79,0Z" style="opacity: 1; stroke-width: 0px; fill: rgb(201, 201, 201); fill-opacity: 1;"/><path class="point" transform="translate(356.83,594.54)" d="M26.79,0A26.79,26.79 0 1,1 0,-26.79A26.79,26.79 0 0,1 26.79,0Z" style="opacity: 1; stroke-width: 0px; fill: rgb(201, 201, 201); fill-opacity: 1;"/><path class="point" transform="translate(394.39,365.87)" d="M26.79,0A26.79,26.79 0 1,1 0,-26.79A26.79,26.79 0 0,1 26.79,0Z" style="opacity: 1; stroke-width: 0px; fill: rgb(201, 201, 201); fill-opacity: 1;"/><path class="point" transform="translate(394.39,442.09)" d="M26.79,0A26.79,26.79 0 1,1 0,-26.79A26.79,26.79 0 0,1 26.79,0Z" style="opacity: 1; stroke-width: 0px; fill: rgb(201, 201, 201); fill-opacity: 1;"/><path class="point" transform="translate(394.39,518.32)" d="M26.79,0A26.79,26.79 0 1,1 0,-26.79A26.79,26.79 0 0,1 26.79,0Z" style="opacity: 1; stroke-width: 0px; fill: rgb(201, 201, 201); fill-opacity: 1;"/><path class="point" transform="translate(394.39,594.54)" d="M26.79,0A26.79,26.79 0 1,1 0,-26.79A26.79,26.79 0 0,1 26.79,0Z" style="opacity: 1; stroke-width: 0px; fill: rgb(201, 201, 201); fill-opacity: 1;"/><path class="point" transform="translate(431.95,365.87)" d="M26.79,0A26.79,26.79 0 1,1 0,-26.79A26.79,26.79 0 0,1 26.79,0Z" style="opacity: 1; stroke-width: 0px; fill: rgb(201, 201, 201); fill-opacity: 1;"/><path class="point" transform="translate(431.95,442.09)" d="M26.79,0A26.79,26.79 0 1,1 0,-26.79A26.79,26.79 0 0,1 26.79,0Z" style="opacity: 1; stroke-width: 0px; fill: rgb(201, 201, 201); fill-opacity: 1;"/><path class="point" transform="translate(431.95,518.32)" d="M26.79,0A26.79,26.79 0 1,1 0,-26.79A26.79,26.79 0 0,1 26.79,0Z" style="opacity: 1; stroke-width: 0px; fill: rgb(201, 201, 201); fill-opacity: 1;"/><path class="point" transform="translate(431.95,594.54)" d="M26.79,0A26.79,26.79 0 1,1 0,-26.79A26.79,26.79 0 0,1 26.79,0Z" style="opacity: 1; stroke-width: 0px; fill: rgb(201, 201, 201); fill-opacity: 1;"/><path class="point" transform="translate(469.51,365.87)" d="M26.79,0A26.79,26.79 0 1,1 0,-26.79A26.79,26.79 0 0,1 26.79,0Z" style="opacity: 1; stroke-width: 0px; fill: rgb(201, 201, 201); fill-opacity: 1;"/><path class="point" transform="translate(469.51,442.09)" d="M26.79,0A26.79,26.79 0 1,1 0,-26.79A26.79,26.79 0 0,1 26.79,0Z" style="opacity: 1; stroke-width: 0px; fill: rgb(201, 201, 201); fill-opacity: 1;"/><path class="point" transform="translate(469.51,518.32)" d="M26.79,0A26.79,26.79 0 1,1 0,-26.79A26.79,26.79 0 0,1 26.79,0Z" style="opacity: 1; stroke-width: 0px; fill: rgb(201, 201, 201); fill-opacity: 1;"/><path class="point" transform="translate(469.51,594.54)" d="M26.79,0A26.79,26.79 0 1,1 0,-26.79A26.79,26.79 0 0,1 26.79,0Z" style="opacity: 1; stroke-width: 0px; fill: rgb(201, 201, 201); fill-opacity: 1;"/><path class="point" transform="translate(507.07,365.87)" d="M26.79,0A26.79,26.79 0 1,1 0,-26.79A26.79,26.79 0 0,1 26.79,0Z" style="opacity: 1; stroke-width: 0px; fill: rgb(201, 201, 201); fill-opacity: 1;"/><path class="point" transform="translate(507.07,442.09)" d="M26.79,0A26.79,26.79 0 1,1 0,-26.79A26.79,26.79 0 0,1 26.79,0Z" style="opacity: 1; stroke-width: 0px; fill: rgb(201, 201, 201); fill-opacity: 1;"/><path class="point" transform="translate(507.07,518.32)" d="M26.79,0A26.79,26.79 0 1,1 0,-26.79A26.79,26.79 0 0,1 26.79,0Z" style="opacity: 1; stroke-width: 0px; fill: rgb(201, 201, 201); fill-opacity: 1;"/><path class="point" transform="translate(507.07,594.54)" d="M26.79,0A26.79,26.79 0 1,1 0,-26.79A26.79,26.79 0 0,1 26.79,0Z" style="opacity: 1; stroke-width: 0px; fill: rgb(201, 201, 201); fill-opacity: 1;"/><path class="point" transform="translate(544.63,365.87)" d="M26.79,0A26.79,26.79 0 1,1 0,-26.79A26.79,26.79 0 0,1 26.79,0Z" style="opacity: 1; stroke-width: 0px; fill: rgb(201, 201, 201); fill-opacity: 1;"/><path class="point" transform="translate(544.63,442.09)" d="M26.79,0A26.79,26.79 0 1,1 0,-26.79A26.79,26.79 0 0,1 26.79,0Z" style="opacity: 1; stroke-width: 0px; fill: rgb(201, 201, 201); fill-opacity: 1;"/><path class="point" transform="translate(544.63,518.32)" d="M26.79,0A26.79,26.79 0 1,1 0,-26.79A26.79,26.79 0 0,1 26.79,0Z" style="opacity: 1; stroke-width: 0px; fill: rgb(201, 201, 201); fill-opacity: 1;"/><path class="point" transform="translate(544.63,594.54)" d="M26.79,0A26.79,26.79 0 1,1 0,-26.79A26.79,26.79 0 0,1 26.79,0Z" style="opacity: 1; stroke-width: 0px; fill: rgb(201, 201, 201); fill-opacity: 1;"/><path class="point" transform="translate(582.2,365.87)" d="M26.79,0A26.79,26.79 0 1,1 0,-26.79A26.79,26.79 0 0,1 26.79,0Z" style="opacity: 1; stroke-width: 0px; fill: rgb(201, 201, 201); fill-opacity: 1;"/><path class="point" transform="translate(582.2,442.09)" d="M26.79,0A26.79,26.79 0 1,1 0,-26.79A26.79,26.79 0 0,1 26.79,0Z" style="opacity: 1; stroke-width: 0px; fill: rgb(201, 201, 201); fill-opacity: 1;"/><path class="point" transform="translate(582.2,518.32)" d="M26.79,0A26.79,26.79 0 1,1 0,-26.79A26.79,26.79 0 0,1 26.79,0Z" style="opacity: 1; stroke-width: 0px; fill: rgb(201, 201, 201); fill-opacity: 1;"/><path class="point" transform="translate(582.2,594.54)" d="M26.79,0A26.79,26.79 0 1,1 0,-26.79A26.79,26.79 0 0,1 26.79,0Z" style="opacity: 1; stroke-width: 0px; fill: rgb(201, 201, 201); fill-opacity: 1;"/><path class="point" transform="translate(619.76,365.87)" d="M26.79,0A26.79,26.79 0 1,1 0,-26.79A26.79,26.79 0 0,1 26.79,0Z" style="opacity: 1; stroke-width: 0px; fill: rgb(201, 201, 201); fill-opacity: 1;"/><path class="point" transform="translate(619.76,442.09)" d="M26.79,0A26.79,26.79 0 1,1 0,-26.79A26.79,26.79 0 0,1 26.79,0Z" style="opacity: 1; stroke-width: 0px; fill: rgb(201, 201, 201); fill-opacity: 1;"/><path class="point" transform="translate(619.76,518.32)" d="M26.79,0A26.79,26.79 0 1,1 0,-26.79A26.79,26.79 0 0,1 26.79,0Z" style="opacity: 1; stroke-width: 0px; fill: rgb(201, 201, 201); fill-opacity: 1;"/><path class="point" transform="translate(619.76,594.54)" d="M26.79,0A26.79,26.79 0 1,1 0,-26.79A26.79,26.79 0 0,1 26.79,0Z" style="opacity: 1; stroke-width: 0px; fill: rgb(201, 201, 201); fill-opacity: 1;"/><path class="point" transform="translate(657.32,365.87)" d="M26.79,0A26.79,26.79 0 1,1 0,-26.79A26.79,26.79 0 0,1 26.79,0Z" style="opacity: 1; stroke-width: 0px; fill: rgb(201, 201, 201); fill-opacity: 1;"/><path class="point" transform="translate(657.32,442.09)" d="M26.79,0A26.79,26.79 0 1,1 0,-26.79A26.79,26.79 0 0,1 26.79,0Z" style="opacity: 1; stroke-width: 0px; fill: rgb(201, 201, 201); fill-opacity: 1;"/><path class="point" transform="translate(657.32,518.32)" d="M26.79,0A26.79,26.79 0 1,1 0,-26.79A26.79,26.79 0 0,1 26.79,0Z" style="opacity: 1; stroke-width: 0px; fill: rgb(201, 201, 201); fill-opacity: 1;"/><path class="point" transform="translate(657.32,594.54)" d="M26.79,0A26.79,26.79 0 1,1 0,-26.79A26.79,26.79 0 0,1 26.79,0Z" style="opacity: 1; stroke-width: 0px; fill: rgb(201, 201, 201); fill-opacity: 1;"/><path class="point" transform="translate(694.88,365.87)" d="M26.79,0A26.79,26.79 0 1,1 0,-26.79A26.79,26.79 0 0,1 26.79,0Z" style="opacity: 1; stroke-width: 0px; fill: rgb(201, 201, 201); fill-opacity: 1;"/><path class="point" transform="translate(694.88,442.09)" d="M26.79,0A26.79,26.79 0 1,1 0,-26.79A26.79,26.79 0 0,1 26.79,0Z" style="opacity: 1; stroke-width: 0px; fill: rgb(201, 201, 201); fill-opacity: 1;"/><path class="point" transform="translate(694.88,518.32)" d="M26.79,0A26.79,26.79 0 1,1 0,-26.79A26.79,26.79 0 0,1 26.79,0Z" style="opacity: 1; stroke-width: 0px; fill: rgb(201, 201, 201); fill-opacity: 1;"/><path class="point" transform="translate(694.88,594.54)" d="M26.79,0A26.79,26.79 0 1,1 0,-26.79A26.79,26.79 0 0,1 26.79,0Z" style="opacity: 1; stroke-width: 0px; fill: rgb(201, 201, 201); fill-opacity: 1;"/><path class="point" transform="translate(732.44,365.87)" d="M26.79,0A26.79,26.79 0 1,1 0,-26.79A26.79,26.79 0 0,1 26.79,0Z" style="opacity: 1; stroke-width: 0px; fill: rgb(201, 201, 201); fill-opacity: 1;"/><path class="point" transform="translate(732.44,442.09)" d="M26.79,0A26.79,26.79 0 1,1 0,-26.79A26.79,26.79 0 0,1 26.79,0Z" style="opacity: 1; stroke-width: 0px; fill: rgb(201, 201, 201); fill-opacity: 1;"/><path class="point" transform="translate(732.44,518.32)" d="M26.79,0A26.79,26.79 0 1,1 0,-26.79A26.79,26.79 0 0,1 26.79,0Z" style="opacity: 1; stroke-width: 0px; fill: rgb(201, 201, 201); fill-opacity: 1;"/><path class="point" transform="translate(732.44,594.54)" d="M26.79,0A26.79,26.79 0 1,1 0,-26.79A26.79,26.79 0 0,1 26.79,0Z" style="opacity: 1; stroke-width: 0px; fill: rgb(201, 201, 201); fill-opacity: 1;"/></g><g class="text"/></g><g class="trace scatter trace6bb3c7" style="stroke-miterlimit: 2; opacity: 1;"><g class="fills"/><g class="errorbars"/><g class="lines"/><g class="points"><path class="point" transform="translate(244.15,365.87)" d="M26.79,0A26.79,26.79 0 1,1 0,-26.79A26.79,26.79 0 0,1 26.79,0Z" style="opacity: 1; stroke-width: 0px; fill: rgb(0, 0, 0); fill-opacity: 1;"/></g><g class="text"/></g><g class="trace scatter trace2f6bae" style="stroke-miterlimit: 2; opacity: 1;"><g class="fills"/><g class="errorbars"/><g class="lines"/><g class="points"><path class="point" transform="translate(244.15,365.87)" d="M26.79,0A26.79,26.79 0 1,1 0,-26.79A26.79,26.79 0 0,1 26.79,0Z" style="opacity: 1; stroke-width: 0px; fill: rgb(0, 0, 0); fill-opacity: 1;"/><path class="point" transform="translate(244.15,442.09)" d="M26.79,0A26.79,26.79 0 1,1 0,-26.79A26.79,26.79 0 0,1 26.79,0Z" style="opacity: 1; stroke-width: 0px; fill: rgb(0, 0, 0); fill-opacity: 1;"/></g><g class="text"/></g><g class="trace scatter trace0a3144" style="stroke-miterlimit: 2; opacity: 1;"><g class="fills"/><g class="errorbars"/><g class="lines"/><g class="points"><path class="point" transform="translate(244.15,365.87)" d="M26.79,0A26.79,26.79 0 1,1 0,-26.79A26.79,26.79 0 0,1 26.79,0Z" style="opacity: 1; stroke-width: 0px; fill: rgb(0, 0, 0); fill-opacity: 1;"/><path class="point" transform="translate(244.15,442.09)" d="M26.79,0A26.79,26.79 0 1,1 0,-26.79A26.79,26.79 0 0,1 26.79,0Z" style="opacity: 1; stroke-width: 0px; fill: rgb(0, 0, 0); fill-opacity: 1;"/><path class="point" transform="translate(244.15,518.32)" d="M26.79,0A26.79,26.79 0 1,1 0,-26.79A26.79,26.79 0 0,1 26.79,0Z" style="opacity: 1; stroke-width: 0px; fill: rgb(0, 0, 0); fill-opacity: 1;"/></g><g class="text"/></g><g class="trace scatter trace6b0160" style="stroke-miterlimit: 2; opacity: 1;"><g class="fills"/><g class="errorbars"/><g class="lines"/><g class="points"><path class="point" transform="translate(244.15,365.87)" d="M26.79,0A26.79,26.79 0 1,1 0,-26.79A26.79,26.79 0 0,1 26.79,0Z" style="opacity: 1; stroke-width: 0px; fill: rgb(0, 0, 0); fill-opacity: 1;"/><path class="point" transform="translate(244.15,442.09)" d="M26.79,0A26.79,26.79 0 1,1 0,-26.79A26.79,26.79 0 0,1 26.79,0Z" style="opacity: 1; stroke-width: 0px; fill: rgb(0, 0, 0); fill-opacity: 1;"/><path class="point" transform="translate(244.15,518.32)" d="M26.79,0A26.79,26.79 0 1,1 0,-26.79A26.79,26.79 0 0,1 26.79,0Z" style="opacity: 1; stroke-width: 0px; fill: rgb(0, 0, 0); fill-opacity: 1;"/><path class="point" transform="translate(244.15,594.54)" d="M26.79,0A26.79,26.79 0 1,1 0,-26.79A26.79,26.79 0 0,1 26.79,0Z" style="opacity: 1; stroke-width: 0px; fill: rgb(0, 0, 0); fill-opacity: 1;"/></g><g class="text"/></g><g class="trace scatter trace56e737" style="stroke-miterlimit: 2; opacity: 1;"><g class="fills"/><g class="errorbars"/><g class="lines"/><g class="points"><path class="point" transform="translate(281.71,365.87)" d="M26.79,0A26.79,26.79 0 1,1 0,-26.79A26.79,26.79 0 0,1 26.79,0Z" style="opacity: 1; stroke-width: 0px; fill: rgb(0, 0, 0); fill-opacity: 1;"/></g><g class="text"/></g><g class="trace scatter trace385e8b" style="stroke-miterlimit: 2; opacity: 1;"><g class="fills"/><g class="errorbars"/><g class="lines"/><g class="points"><path class="point" transform="translate(281.71,365.87)" d="M26.79,0A26.79,26.79 0 1,1 0,-26.79A26.79,26.79 0 0,1 26.79,0Z" style="opacity: 1; stroke-width: 0px; fill: rgb(0, 0, 0); fill-opacity: 1;"/><path class="point" transform="translate(281.71,442.09)" d="M26.79,0A26.79,26.79 0 1,1 0,-26.79A26.79,26.79 0 0,1 26.79,0Z" style="opacity: 1; stroke-width: 0px; fill: rgb(0, 0, 0); fill-opacity: 1;"/></g><g class="text"/></g><g class="trace scatter trace2f7adf" style="stroke-miterlimit: 2; opacity: 1;"><g class="fills"/><g class="errorbars"/><g class="lines"/><g class="points"><path class="point" transform="translate(319.27,442.09)" d="M26.79,0A26.79,26.79 0 1,1 0,-26.79A26.79,26.79 0 0,1 26.79,0Z" style="opacity: 1; stroke-width: 0px; fill: rgb(0, 0, 0); fill-opacity: 1;"/></g><g class="text"/></g><g class="trace scatter tracef0ca99" style="stroke-miterlimit: 2; opacity: 1;"><g class="fills"/><g class="errorbars"/><g class="lines"/><g class="points"><path class="point" transform="translate(319.27,442.09)" d="M26.79,0A26.79,26.79 0 1,1 0,-26.79A26.79,26.79 0 0,1 26.79,0Z" style="opacity: 1; stroke-width: 0px; fill: rgb(0, 0, 0); fill-opacity: 1;"/><path class="point" transform="translate(319.27,518.32)" d="M26.79,0A26.79,26.79 0 1,1 0,-26.79A26.79,26.79 0 0,1 26.79,0Z" style="opacity: 1; stroke-width: 0px; fill: rgb(0, 0, 0); fill-opacity: 1;"/></g><g class="text"/></g><g class="trace scatter tracead45a7" style="stroke-miterlimit: 2; opacity: 1;"><g class="fills"/><g class="errorbars"/><g class="lines"/><g class="points"><path class="point" transform="translate(356.83,518.32)" d="M26.79,0A26.79,26.79 0 1,1 0,-26.79A26.79,26.79 0 0,1 26.79,0Z" style="opacity: 1; stroke-width: 0px; fill: rgb(0, 0, 0); fill-opacity: 1;"/></g><g class="text"/></g><g class="trace scatter tracef85925" style="stroke-miterlimit: 2; opacity: 1;"><g class="fills"/><g class="errorbars"/><g class="lines"/><g class="points"><path class="point" transform="translate(356.83,518.32)" d="M26.79,0A26.79,26.79 0 1,1 0,-26.79A26.79,26.79 0 0,1 26.79,0Z" style="opacity: 1; stroke-width: 0px; fill: rgb(0, 0, 0); fill-opacity: 1;"/><path class="point" transform="translate(356.83,594.54)" d="M26.79,0A26.79,26.79 0 1,1 0,-26.79A26.79,26.79 0 0,1 26.79,0Z" style="opacity: 1; stroke-width: 0px; fill: rgb(0, 0, 0); fill-opacity: 1;"/></g><g class="text"/></g><g class="trace scatter tracefeb0a2" style="stroke-miterlimit: 2; opacity: 1;"><g class="fills"/><g class="errorbars"/><g class="lines"/><g class="points"><path class="point" transform="translate(394.39,442.09)" d="M26.79,0A26.79,26.79 0 1,1 0,-26.79A26.79,26.79 0 0,1 26.79,0Z" style="opacity: 1; stroke-width: 0px; fill: rgb(0, 0, 0); fill-opacity: 1;"/></g><g class="text"/></g><g class="trace scatter tracef19962" style="stroke-miterlimit: 2; opacity: 1;"><g class="fills"/><g class="errorbars"/><g class="lines"/><g class="points"><path class="point" transform="translate(431.95,365.87)" d="M26.79,0A26.79,26.79 0 1,1 0,-26.79A26.79,26.79 0 0,1 26.79,0Z" style="opacity: 1; stroke-width: 0px; fill: rgb(0, 0, 0); fill-opacity: 1;"/></g><g class="text"/></g><g class="trace scatter tracef31482" style="stroke-miterlimit: 2; opacity: 1;"><g class="fills"/><g class="errorbars"/><g class="lines"/><g class="points"><path class="point" transform="translate(431.95,365.87)" d="M26.79,0A26.79,26.79 0 1,1 0,-26.79A26.79,26.79 0 0,1 26.79,0Z" style="opacity: 1; stroke-width: 0px; fill: rgb(0, 0, 0); fill-opacity: 1;"/><path class="point" transform="translate(431.95,518.32)" d="M26.79,0A26.79,26.79 0 1,1 0,-26.79A26.79,26.79 0 0,1 26.79,0Z" style="opacity: 1; stroke-width: 0px; fill: rgb(0, 0, 0); fill-opacity: 1;"/></g><g class="text"/></g><g class="trace scatter traceff0d4e" style="stroke-miterlimit: 2; opacity: 1;"><g class="fills"/><g class="errorbars"/><g class="lines"/><g class="points"><path class="point" transform="translate(469.51,365.87)" d="M26.79,0A26.79,26.79 0 1,1 0,-26.79A26.79,26.79 0 0,1 26.79,0Z" style="opacity: 1; stroke-width: 0px; fill: rgb(0, 0, 0); fill-opacity: 1;"/></g><g class="text"/></g><g class="trace scatter traceb9f391" style="stroke-miterlimit: 2; opacity: 1;"><g class="fills"/><g class="errorbars"/><g class="lines"/><g class="points"><path class="point" transform="translate(469.51,365.87)" d="M26.79,0A26.79,26.79 0 1,1 0,-26.79A26.79,26.79 0 0,1 26.79,0Z" style="opacity: 1; stroke-width: 0px; fill: rgb(0, 0, 0); fill-opacity: 1;"/><path class="point" transform="translate(469.51,442.09)" d="M26.79,0A26.79,26.79 0 1,1 0,-26.79A26.79,26.79 0 0,1 26.79,0Z" style="opacity: 1; stroke-width: 0px; fill: rgb(0, 0, 0); fill-opacity: 1;"/></g><g class="text"/></g><g class="trace scatter traceb01970" style="stroke-miterlimit: 2; opacity: 1;"><g class="fills"/><g class="errorbars"/><g class="lines"/><g class="points"><path class="point" transform="translate(469.51,365.87)" d="M26.79,0A26.79,26.79 0 1,1 0,-26.79A26.79,26.79 0 0,1 26.79,0Z" style="opacity: 1; stroke-width: 0px; fill: rgb(0, 0, 0); fill-opacity: 1;"/><path class="point" transform="translate(469.51,442.09)" d="M26.79,0A26.79,26.79 0 1,1 0,-26.79A26.79,26.79 0 0,1 26.79,0Z" style="opacity: 1; stroke-width: 0px; fill: rgb(0, 0, 0); fill-opacity: 1;"/><path class="point" transform="translate(469.51,594.54)" d="M26.79,0A26.79,26.79 0 1,1 0,-26.79A26.79,26.79 0 0,1 26.79,0Z" style="opacity: 1; stroke-width: 0px; fill: rgb(0, 0, 0); fill-opacity: 1;"/></g><g class="text"/></g><g class="trace scatter trace4371c2" style="stroke-miterlimit: 2; opacity: 1;"><g class="fills"/><g class="errorbars"/><g class="lines"/><g class="points"><path class="point" transform="translate(507.07,365.87)" d="M26.79,0A26.79,26.79 0 1,1 0,-26.79A26.79,26.79 0 0,1 26.79,0Z" style="opacity: 1; stroke-width: 0px; fill: rgb(0, 0, 0); fill-opacity: 1;"/></g><g class="text"/></g><g class="trace scatter tracee10491" style="stroke-miterlimit: 2; opacity: 1;"><g class="fills"/><g class="errorbars"/><g class="lines"/><g class="points"><path class="point" transform="translate(544.63,518.32)" d="M26.79,0A26.79,26.79 0 1,1 0,-26.79A26.79,26.79 0 0,1 26.79,0Z" style="opacity: 1; stroke-width: 0px; fill: rgb(0, 0, 0); fill-opacity: 1;"/></g><g class="text"/></g><g class="trace scatter trace8fe7b3" style="stroke-miterlimit: 2; opacity: 1;"><g class="fills"/><g class="errorbars"/><g class="lines"/><g class="points"><path class="point" transform="translate(582.2,594.54)" d="M26.79,0A26.79,26.79 0 1,1 0,-26.79A26.79,26.79 0 0,1 26.79,0Z" style="opacity: 1; stroke-width: 0px; fill: rgb(0, 0, 0); fill-opacity: 1;"/></g><g class="text"/></g><g class="trace scatter traceb5e00d" style="stroke-miterlimit: 2; opacity: 1;"><g class="fills"/><g class="errorbars"/><g class="lines"/><g class="points"><path class="point" transform="translate(619.76,442.09)" d="M26.79,0A26.79,26.79 0 1,1 0,-26.79A26.79,26.79 0 0,1 26.79,0Z" style="opacity: 1; stroke-width: 0px; fill: rgb(0, 0, 0); fill-opacity: 1;"/></g><g class="text"/></g><g class="trace scatter trace809b66" style="stroke-miterlimit: 2; opacity: 1;"><g class="fills"/><g class="errorbars"/><g class="lines"/><g class="points"><path class="point" transform="translate(619.76,442.09)" d="M26.79,0A26.79,26.79 0 1,1 0,-26.79A26.79,26.79 0 0,1 26.79,0Z" style="opacity: 1; stroke-width: 0px; fill: rgb(0, 0, 0); fill-opacity: 1;"/><path class="point" transform="translate(619.76,594.54)" d="M26.79,0A26.79,26.79 0 1,1 0,-26.79A26.79,26.79 0 0,1 26.79,0Z" style="opacity: 1; stroke-width: 0px; fill: rgb(0, 0, 0); fill-opacity: 1;"/></g><g class="text"/></g><g class="trace scatter trace103921" style="stroke-miterlimit: 2; opacity: 1;"><g class="fills"/><g class="errorbars"/><g class="lines"/><g class="points"><path class="point" transform="translate(657.32,365.87)" d="M26.79,0A26.79,26.79 0 1,1 0,-26.79A26.79,26.79 0 0,1 26.79,0Z" style="opacity: 1; stroke-width: 0px; fill: rgb(0, 0, 0); fill-opacity: 1;"/></g><g class="text"/></g><g class="trace scatter trace92a85c" style="stroke-miterlimit: 2; opacity: 1;"><g class="fills"/><g class="errorbars"/><g class="lines"/><g class="points"><path class="point" transform="translate(657.32,365.87)" d="M26.79,0A26.79,26.79 0 1,1 0,-26.79A26.79,26.79 0 0,1 26.79,0Z" style="opacity: 1; stroke-width: 0px; fill: rgb(0, 0, 0); fill-opacity: 1;"/><path class="point" transform="translate(657.32,442.09)" d="M26.79,0A26.79,26.79 0 1,1 0,-26.79A26.79,26.79 0 0,1 26.79,0Z" style="opacity: 1; stroke-width: 0px; fill: rgb(0, 0, 0); fill-opacity: 1;"/></g><g class="text"/></g><g class="trace scatter trace35de08" style="stroke-miterlimit: 2; opacity: 1;"><g class="fills"/><g class="errorbars"/><g class="lines"/><g class="points"><path class="point" transform="translate(657.32,365.87)" d="M26.79,0A26.79,26.79 0 1,1 0,-26.79A26.79,26.79 0 0,1 26.79,0Z" style="opacity: 1; stroke-width: 0px; fill: rgb(0, 0, 0); fill-opacity: 1;"/><path class="point" transform="translate(657.32,442.09)" d="M26.79,0A26.79,26.79 0 1,1 0,-26.79A26.79,26.79 0 0,1 26.79,0Z" style="opacity: 1; stroke-width: 0px; fill: rgb(0, 0, 0); fill-opacity: 1;"/><path class="point" transform="translate(657.32,518.32)" d="M26.79,0A26.79,26.79 0 1,1 0,-26.79A26.79,26.79 0 0,1 26.79,0Z" style="opacity: 1; stroke-width: 0px; fill: rgb(0, 0, 0); fill-opacity: 1;"/></g><g class="text"/></g><g class="trace scatter trace3a3343" style="stroke-miterlimit: 2; opacity: 1;"><g class="fills"/><g class="errorbars"/><g class="lines"/><g class="points"><path class="point" transform="translate(694.88,365.87)" d="M26.79,0A26.79,26.79 0 1,1 0,-26.79A26.79,26.79 0 0,1 26.79,0Z" style="opacity: 1; stroke-width: 0px; fill: rgb(0, 0, 0); fill-opacity: 1;"/></g><g class="text"/></g><g class="trace scatter traced2cba0" style="stroke-miterlimit: 2; opacity: 1;"><g class="fills"/><g class="errorbars"/><g class="lines"/><g class="points"><path class="point" transform="translate(694.88,365.87)" d="M26.79,0A26.79,26.79 0 1,1 0,-26.79A26.79,26.79 0 0,1 26.79,0Z" style="opacity: 1; stroke-width: 0px; fill: rgb(0, 0, 0); fill-opacity: 1;"/><path class="point" transform="translate(694.88,518.32)" d="M26.79,0A26.79,26.79 0 1,1 0,-26.79A26.79,26.79 0 0,1 26.79,0Z" style="opacity: 1; stroke-width: 0px; fill: rgb(0, 0, 0); fill-opacity: 1;"/></g><g class="text"/></g><g class="trace scatter trace6211c1" style="stroke-miterlimit: 2; opacity: 1;"><g class="fills"/><g class="errorbars"/><g class="lines"/><g class="points"><path class="point" transform="translate(694.88,365.87)" d="M26.79,0A26.79,26.79 0 1,1 0,-26.79A26.79,26.79 0 0,1 26.79,0Z" style="opacity: 1; stroke-width: 0px; fill: rgb(0, 0, 0); fill-opacity: 1;"/><path class="point" transform="translate(694.88,518.32)" d="M26.79,0A26.79,26.79 0 1,1 0,-26.79A26.79,26.79 0 0,1 26.79,0Z" style="opacity: 1; stroke-width: 0px; fill: rgb(0, 0, 0); fill-opacity: 1;"/><path class="point" transform="translate(694.88,594.54)" d="M26.79,0A26.79,26.79 0 1,1 0,-26.79A26.79,26.79 0 0,1 26.79,0Z" style="opacity: 1; stroke-width: 0px; fill: rgb(0, 0, 0); fill-opacity: 1;"/></g><g class="text"/></g><g class="trace scatter tracee03693" style="stroke-miterlimit: 2; opacity: 1;"><g class="fills"/><g class="errorbars"/><g class="lines"/><g class="points"><path class="point" transform="translate(732.44,442.09)" d="M26.79,0A26.79,26.79 0 1,1 0,-26.79A26.79,26.79 0 0,1 26.79,0Z" style="opacity: 1; stroke-width: 0px; fill: rgb(0, 0, 0); fill-opacity: 1;"/></g><g class="text"/></g><g class="trace scatter trace6cfefa" style="stroke-miterlimit: 2; opacity: 1;"><g class="fills"/><g class="errorbars"/><g class="lines"/><g class="points"><path class="point" transform="translate(732.44,442.09)" d="M26.79,0A26.79,26.79 0 1,1 0,-26.79A26.79,26.79 0 0,1 26.79,0Z" style="opacity: 1; stroke-width: 0px; fill: rgb(0, 0, 0); fill-opacity: 1;"/><path class="point" transform="translate(732.44,518.32)" d="M26.79,0A26.79,26.79 0 1,1 0,-26.79A26.79,26.79 0 0,1 26.79,0Z" style="opacity: 1; stroke-width: 0px; fill: rgb(0, 0, 0); fill-opacity: 1;"/></g><g class="text"/></g><g class="trace scatter trace24439a" style="stroke-miterlimit: 2; opacity: 1;"><g class="fills"/><g class="errorbars"/><g class="lines"/><g class="points"><path class="point" transform="translate(732.44,442.09)" d="M26.79,0A26.79,26.79 0 1,1 0,-26.79A26.79,26.79 0 0,1 26.79,0Z" style="opacity: 1; stroke-width: 0px; fill: rgb(0, 0, 0); fill-opacity: 1;"/><path class="point" transform="translate(732.44,518.32)" d="M26.79,0A26.79,26.79 0 1,1 0,-26.79A26.79,26.79 0 0,1 26.79,0Z" style="opacity: 1; stroke-width: 0px; fill: rgb(0, 0, 0); fill-opacity: 1;"/><path class="point" transform="translate(732.44,594.54)" d="M26.79,0A26.79,26.79 0 1,1 0,-26.79A26.79,26.79 0 0,1 26.79,0Z" style="opacity: 1; stroke-width: 0px; fill: rgb(0, 0, 0); fill-opacity: 1;"/></g><g class="text"/></g><g class="trace scatter trace4be5f3" style="stroke-miterlimit: 2; opacity: 1;"><g class="fills"/><g class="errorbars"/><g class="lines"/><g class="points"/><g class="text"><g class="textpoint" transform="translate(0,3)"><text x="225.37" y="365.87" text-anchor="end" style="font-family: 'Open Sans', verdana, arial, sans-serif; font-size: 12px; fill: rgb(42, 63, 95); fill-opacity: 1; white-space: pre;">m9-EX_T4hcinnm_e2.02-EX_fer_e1.4505_NBR-Function-2</text></g><g class="textpoint" transform="translate(0,3)"><text x="225.37" y="442.09" text-anchor="end" style="font-family: 'Open Sans', verdana, arial, sans-serif; font-size: 12px; fill: rgb(42, 63, 95); fill-opacity: 1; white-space: pre;">m9-EX_fer_e2.91_NBR-Function-2</text></g><g class="textpoint" transform="translate(0,3)"><text x="225.37" y="518.32" text-anchor="end" style="font-family: 'Open Sans', verdana, arial, sans-serif; font-size: 12px; fill: rgb(42, 63, 95); fill-opacity: 1; white-space: pre;">m9-EX_T4hcinnm_e4.04_NBR-Function-2</text></g><g class="textpoint" transform="translate(0,3)"><text x="225.37" y="594.54" text-anchor="end" style="font-family: 'Open Sans', verdana, arial, sans-serif; font-size: 12px; fill: rgb(42, 63, 95); fill-opacity: 1; white-space: pre;">m9-EX_glc_e7.44_NBR-Function-2</text></g></g></g></g></g><g class="overplot"/><path class="xlines-above crisp" d="M0,0" style="fill: none;"/><path class="ylines-above crisp" d="M0,0" style="fill: none;"/><g class="overlines-above"/><g class="xaxislayer-above"/><g class="yaxislayer-above"/><g class="overaxes-above"/></g></g><g class="polarlayer"/><g class="smithlayer"/><g class="ternarylayer"/><g class="geolayer"/><g class="funnelarealayer"/><g class="pielayer"/><g class="iciclelayer"/><g class="treemaplayer"/><g class="sunburstlayer"/><g class="glimages"/><defs id="topdefs-e35c40"><g class="clips"/></defs><g class="layer-above"><g class="imagelayer"/><g class="shapelayer"/></g><g class="infolayer"><g class="g-gtitle"><text class="gtitle" x="500" y="20" text-anchor="middle" dy="0em" style="font-family: 'Open Sans', verdana, arial, sans-serif; font-size: 17px; fill: rgb(42, 63, 95); opacity: 1; font-weight: normal; white-space: pre;"><tspan style="font-weight:bold">Intersections<tspan style="font-weight:bold"></tspan></tspan></text></g><g class="g-xtitle"/><g class="g-ytitle"/></g></svg>