<svg class="main-svg" xmlns="http://www.w3.org/2000/svg" xmlns:xlink="http://www.w3.org/1999/xlink" width="1000" height="800" style="" viewBox="0 0 1000 800"><rect x="0" y="0" width="1000" height="800" style="fill: rgb(255, 255, 255); fill-opacity: 1;"/><defs id="defs-94a4cb"><g class="clips"><clipPath id="clip94a4cbxyplot" class="plotclip"><rect width="770" height="680"/></clipPath><clipPath class="axesclip" id="clip94a4cbx"><rect x="150" y="0" width="770" height="800"/></clipPath><clipPath class="axesclip" id="clip94a4cby"><rect x="0" y="40" width="1000" height="680"/></clipPath><clipPath class="axesclip" id="clip94a4cbxy"><rect x="150" y="40" width="770" height="680"/></clipPath></g><g class="gradients"/><g class="patterns"/></defs><g class="bglayer"><rect class="bg" x="150" y="40" width="770" height="680" style="fill: rgb(255, 255, 255); fill-opacity: 1; stroke-width: 0;"/></g><g class="layer-below"><g class="imagelayer"/><g class="shapelayer"/></g><g class="cartesianlayer"><g class="subplot xy"><g class="layer-subplot"><g class="shapelayer"/><g class="imagelayer"/></g><g class="minor-gridlayer"><g class="x"/><g class="y"/></g><g class="gridlayer"><g class="x"/><g class="y"><path class="ygrid crisp" transform="translate(0,668.14)" d="M150,0h770" style="stroke: rgb(255, 255, 255); stroke-opacity: 1; stroke-width: 1px;"/><path class="ygrid crisp" transform="translate(0,585.81)" d="M150,0h770" style="stroke: rgb(255, 255, 255); stroke-opacity: 1; stroke-width: 1px;"/><path class="ygrid crisp" transform="translate(0,503.49)" d="M150,0h770" style="stroke: rgb(255, 255, 255); stroke-opacity: 1; stroke-width: 1px;"/><path class="ygrid crisp" transform="translate(0,421.16)" d="M150,0h770" style="stroke: rgb(255, 255, 255); stroke-opacity: 1; stroke-width: 1px;"/><path class="ygrid crisp" transform="translate(0,338.84)" d="M150,0h770" style="stroke: rgb(255, 255, 255); stroke-opacity: 1; stroke-width: 1px;"/><path class="ygrid crisp" transform="translate(0,256.51)" d="M150,0h770" style="stroke: rgb(255, 255, 255); stroke-opacity: 1; stroke-width: 1px;"/><path class="ygrid crisp" transform="translate(0,174.19)" d="M150,0h770" style="stroke: rgb(255, 255, 255); stroke-opacity: 1; stroke-width: 1px;"/><path class="ygrid crisp" transform="translate(0,91.86)" d="M150,0h770" style="stroke: rgb(255, 255, 255); stroke-opacity: 1; stroke-width: 1px;"/></g></g><g class="zerolinelayer"/><path class="xlines-below"/><path class="ylines-below"/><g class="overlines-below"/><g class="xaxislayer-below"/><g class="yaxislayer-below"/><g class="overaxes-below"/><g class="plot" transform="translate(150,40)" clip-path="url(#clip94a4cbxyplot)"><g class="barlayer mlayer"><g class="trace bars" style="opacity: 1;"><g class="points"><g class="point"><path d="M463.81,298.84V51.86H509.18V298.84Z" style="vector-effect: non-scaling-stroke; opacity: 1; stroke-width: 0.5px; fill: rgb(0, 0, 0); fill-opacity: 1; stroke: rgb(229, 236, 246); stroke-opacity: 1;"/><text class="bartext bartext-outside" text-anchor="middle" data-notex="1" x="0" y="0" style="font-family: 'Open Sans', verdana, arial, sans-serif; font-size: 12px; fill: rgb(42, 63, 95); fill-opacity: 1; white-space: pre;" transform="translate(486.3309375,45.86)">3</text></g><g class="point"><path d="M520.52,298.84V134.19H565.88V298.84Z" style="vector-effect: non-scaling-stroke; opacity: 1; stroke-width: 0.5px; fill: rgb(0, 0, 0); fill-opacity: 1; stroke: rgb(229, 236, 246); stroke-opacity: 1;"/><text class="bartext bartext-outside" text-anchor="middle" data-notex="1" x="0" y="0" style="font-family: 'Open Sans', verdana, arial, sans-serif; font-size: 12px; fill: rgb(42, 63, 95); fill-opacity: 1; white-space: pre;" transform="translate(543.0359375,128.19)">2</text></g><g class="point"><path d="M577.22,298.84V216.51H622.58V298.84Z" style="vector-effect: non-scaling-stroke; opacity: 1; stroke-width: 0.5px; fill: rgb(0, 0, 0); fill-opacity: 1; stroke: rgb(229, 236, 246); stroke-opacity: 1;"/><text class="bartext bartext-outside" text-anchor="middle" data-notex="1" x="0" y="0" style="font-family: 'Open Sans', verdana, arial, sans-serif; font-size: 12px; fill: rgb(42, 63, 95); fill-opacity: 1; white-space: pre;" transform="translate(599.7359375000001,210.51)">1</text></g><g class="point"><path d="M633.92,298.84V216.51H679.28V298.84Z" style="vector-effect: non-scaling-stroke; opacity: 1; stroke-width: 0.5px; fill: rgb(0, 0, 0); fill-opacity: 1; stroke: rgb(229, 236, 246); stroke-opacity: 1;"/><text class="bartext bartext-outside" text-anchor="middle" data-notex="1" x="0" y="0" style="font-family: 'Open Sans', verdana, arial, sans-serif; font-size: 12px; fill: rgb(42, 63, 95); fill-opacity: 1; white-space: pre;" transform="translate(656.4359374999999,210.51)">1</text></g><g class="point"><path d="M690.62,298.84V216.51H735.98V298.84Z" style="vector-effect: non-scaling-stroke; opacity: 1; stroke-width: 0.5px; fill: rgb(0, 0, 0); fill-opacity: 1; stroke: rgb(229, 236, 246); stroke-opacity: 1;"/><text class="bartext bartext-outside" text-anchor="middle" data-notex="1" x="0" y="0" style="font-family: 'Open Sans', verdana, arial, sans-serif; font-size: 12px; fill: rgb(42, 63, 95); fill-opacity: 1; white-space: pre;" transform="translate(713.1359375,210.51)">1</text></g></g></g></g><g class="scatterlayer mlayer"><g class="trace scatter tracedff5b9" style="stroke-miterlimit: 2; opacity: 1;"><g class="fills"/><g class="errorbars"/><g class="lines"/><g class="points"><path class="point" transform="translate(486.49,326)" d="M7.14,0A7.14,7.14 0 1,1 0,-7.14A7.14,7.14 0 0,1 7.14,0Z" style="opacity: 1; stroke-width: 0px; fill: rgb(201, 201, 201); fill-opacity: 1;"/><path class="point" transform="translate(486.49,364.81)" d="M7.14,0A7.14,7.14 0 1,1 0,-7.14A7.14,7.14 0 0,1 7.14,0Z" style="opacity: 1; stroke-width: 0px; fill: rgb(201, 201, 201); fill-opacity: 1;"/><path class="point" transform="translate(486.49,403.63)" d="M7.14,0A7.14,7.14 0 1,1 0,-7.14A7.14,7.14 0 0,1 7.14,0Z" style="opacity: 1; stroke-width: 0px; fill: rgb(201, 201, 201); fill-opacity: 1;"/><path class="point" transform="translate(486.49,442.44)" d="M7.14,0A7.14,7.14 0 1,1 0,-7.14A7.14,7.14 0 0,1 7.14,0Z" style="opacity: 1; stroke-width: 0px; fill: rgb(201, 201, 201); fill-opacity: 1;"/><path class="point" transform="translate(486.49,481.25)" d="M7.14,0A7.14,7.14 0 1,1 0,-7.14A7.14,7.14 0 0,1 7.14,0Z" style="opacity: 1; stroke-width: 0px; fill: rgb(201, 201, 201); fill-opacity: 1;"/><path class="point" transform="translate(486.49,520.06)" d="M7.14,0A7.14,7.14 0 1,1 0,-7.14A7.14,7.14 0 0,1 7.14,0Z" style="opacity: 1; stroke-width: 0px; fill: rgb(201, 201, 201); fill-opacity: 1;"/><path class="point" transform="translate(486.49,558.87)" d="M7.14,0A7.14,7.14 0 1,1 0,-7.14A7.14,7.14 0 0,1 7.14,0Z" style="opacity: 1; stroke-width: 0px; fill: rgb(201, 201, 201); fill-opacity: 1;"/><path class="point" transform="translate(543.2,326)" d="M7.14,0A7.14,7.14 0 1,1 0,-7.14A7.14,7.14 0 0,1 7.14,0Z" style="opacity: 1; stroke-width: 0px; fill: rgb(201, 201, 201); fill-opacity: 1;"/><path class="point" transform="translate(543.2,364.81)" d="M7.14,0A7.14,7.14 0 1,1 0,-7.14A7.14,7.14 0 0,1 7.14,0Z" style="opacity: 1; stroke-width: 0px; fill: rgb(201, 201, 201); fill-opacity: 1;"/><path class="point" transform="translate(543.2,403.63)" d="M7.14,0A7.14,7.14 0 1,1 0,-7.14A7.14,7.14 0 0,1 7.14,0Z" style="opacity: 1; stroke-width: 0px; fill: rgb(201, 201, 201); fill-opacity: 1;"/><path class="point" transform="translate(543.2,442.44)" d="M7.14,0A7.14,7.14 0 1,1 0,-7.14A7.14,7.14 0 0,1 7.14,0Z" style="opacity: 1; stroke-width: 0px; fill: rgb(201, 201, 201); fill-opacity: 1;"/><path class="point" transform="translate(543.2,481.25)" d="M7.14,0A7.14,7.14 0 1,1 0,-7.14A7.14,7.14 0 0,1 7.14,0Z" style="opacity: 1; stroke-width: 0px; fill: rgb(201, 201, 201); fill-opacity: 1;"/><path class="point" transform="translate(543.2,520.06)" d="M7.14,0A7.14,7.14 0 1,1 0,-7.14A7.14,7.14 0 0,1 7.14,0Z" style="opacity: 1; stroke-width: 0px; fill: rgb(201, 201, 201); fill-opacity: 1;"/><path class="point" transform="translate(543.2,558.87)" d="M7.14,0A7.14,7.14 0 1,1 0,-7.14A7.14,7.14 0 0,1 7.14,0Z" style="opacity: 1; stroke-width: 0px; fill: rgb(201, 201, 201); fill-opacity: 1;"/><path class="point" transform="translate(599.9,326)" d="M7.14,0A7.14,7.14 0 1,1 0,-7.14A7.14,7.14 0 0,1 7.14,0Z" style="opacity: 1; stroke-width: 0px; fill: rgb(201, 201, 201); fill-opacity: 1;"/><path class="point" transform="translate(599.9,364.81)" d="M7.14,0A7.14,7.14 0 1,1 0,-7.14A7.14,7.14 0 0,1 7.14,0Z" style="opacity: 1; stroke-width: 0px; fill: rgb(201, 201, 201); fill-opacity: 1;"/><path class="point" transform="translate(599.9,403.63)" d="M7.14,0A7.14,7.14 0 1,1 0,-7.14A7.14,7.14 0 0,1 7.14,0Z" style="opacity: 1; stroke-width: 0px; fill: rgb(201, 201, 201); fill-opacity: 1;"/><path class="point" transform="translate(599.9,442.44)" d="M7.14,0A7.14,7.14 0 1,1 0,-7.14A7.14,7.14 0 0,1 7.14,0Z" style="opacity: 1; stroke-width: 0px; fill: rgb(201, 201, 201); fill-opacity: 1;"/><path class="point" transform="translate(599.9,481.25)" d="M7.14,0A7.14,7.14 0 1,1 0,-7.14A7.14,7.14 0 0,1 7.14,0Z" style="opacity: 1; stroke-width: 0px; fill: rgb(201, 201, 201); fill-opacity: 1;"/><path class="point" transform="translate(599.9,520.06)" d="M7.14,0A7.14,7.14 0 1,1 0,-7.14A7.14,7.14 0 0,1 7.14,0Z" style="opacity: 1; stroke-width: 0px; fill: rgb(201, 201, 201); fill-opacity: 1;"/><path class="point" transform="translate(599.9,558.87)" d="M7.14,0A7.14,7.14 0 1,1 0,-7.14A7.14,7.14 0 0,1 7.14,0Z" style="opacity: 1; stroke-width: 0px; fill: rgb(201, 201, 201); fill-opacity: 1;"/><path class="point" transform="translate(656.6,326)" d="M7.14,0A7.14,7.14 0 1,1 0,-7.14A7.14,7.14 0 0,1 7.14,0Z" style="opacity: 1; stroke-width: 0px; fill: rgb(201, 201, 201); fill-opacity: 1;"/><path class="point" transform="translate(656.6,364.81)" d="M7.14,0A7.14,7.14 0 1,1 0,-7.14A7.14,7.14 0 0,1 7.14,0Z" style="opacity: 1; stroke-width: 0px; fill: rgb(201, 201, 201); fill-opacity: 1;"/><path class="point" transform="translate(656.6,403.63)" d="M7.14,0A7.14,7.14 0 1,1 0,-7.14A7.14,7.14 0 0,1 7.14,0Z" style="opacity: 1; stroke-width: 0px; fill: rgb(201, 201, 201); fill-opacity: 1;"/><path class="point" transform="translate(656.6,442.44)" d="M7.14,0A7.14,7.14 0 1,1 0,-7.14A7.14,7.14 0 0,1 7.14,0Z" style="opacity: 1; stroke-width: 0px; fill: rgb(201, 201, 201); fill-opacity: 1;"/><path class="point" transform="translate(656.6,481.25)" d="M7.14,0A7.14,7.14 0 1,1 0,-7.14A7.14,7.14 0 0,1 7.14,0Z" style="opacity: 1; stroke-width: 0px; fill: rgb(201, 201, 201); fill-opacity: 1;"/><path class="point" transform="translate(656.6,520.06)" d="M7.14,0A7.14,7.14 0 1,1 0,-7.14A7.14,7.14 0 0,1 7.14,0Z" style="opacity: 1; stroke-width: 0px; fill: rgb(201, 201, 201); fill-opacity: 1;"/><path class="point" transform="translate(656.6,558.87)" d="M7.14,0A7.14,7.14 0 1,1 0,-7.14A7.14,7.14 0 0,1 7.14,0Z" style="opacity: 1; stroke-width: 0px; fill: rgb(201, 201, 201); fill-opacity: 1;"/><path class="point" transform="translate(713.3,326)" d="M7.14,0A7.14,7.14 0 1,1 0,-7.14A7.14,7.14 0 0,1 7.14,0Z" style="opacity: 1; stroke-width: 0px; fill: rgb(201, 201, 201); fill-opacity: 1;"/><path class="point" transform="translate(713.3,364.81)" d="M7.14,0A7.14,7.14 0 1,1 0,-7.14A7.14,7.14 0 0,1 7.14,0Z" style="opacity: 1; stroke-width: 0px; fill: rgb(201, 201, 201); fill-opacity: 1;"/><path class="point" transform="translate(713.3,403.63)" d="M7.14,0A7.14,7.14 0 1,1 0,-7.14A7.14,7.14 0 0,1 7.14,0Z" style="opacity: 1; stroke-width: 0px; fill: rgb(201, 201, 201); fill-opacity: 1;"/><path class="point" transform="translate(713.3,442.44)" d="M7.14,0A7.14,7.14 0 1,1 0,-7.14A7.14,7.14 0 0,1 7.14,0Z" style="opacity: 1; stroke-width: 0px; fill: rgb(201, 201, 201); fill-opacity: 1;"/><path class="point" transform="translate(713.3,481.25)" d="M7.14,0A7.14,7.14 0 1,1 0,-7.14A7.14,7.14 0 0,1 7.14,0Z" style="opacity: 1; stroke-width: 0px; fill: rgb(201, 201, 201); fill-opacity: 1;"/><path class="point" transform="translate(713.3,520.06)" d="M7.14,0A7.14,7.14 0 1,1 0,-7.14A7.14,7.14 0 0,1 7.14,0Z" style="opacity: 1; stroke-width: 0px; fill: rgb(201, 201, 201); fill-opacity: 1;"/><path class="point" transform="translate(713.3,558.87)" d="M7.14,0A7.14,7.14 0 1,1 0,-7.14A7.14,7.14 0 0,1 7.14,0Z" style="opacity: 1; stroke-width: 0px; fill: rgb(201, 201, 201); fill-opacity: 1;"/></g><g class="text"/></g><g class="trace scatter tracedfb54b" style="stroke-miterlimit: 2; opacity: 1;"><g class="fills"/><g class="errorbars"/><g class="lines"/><g class="points"><path class="point" transform="translate(486.49,326)" d="M7.14,0A7.14,7.14 0 1,1 0,-7.14A7.14,7.14 0 0,1 7.14,0Z" style="opacity: 1; stroke-width: 0px; fill: rgb(0, 0, 0); fill-opacity: 1;"/></g><g class="text"/></g><g class="trace scatter tracee2916c" style="stroke-miterlimit: 2; opacity: 1;"><g class="fills"/><g class="errorbars"/><g class="lines"/><g class="points"><path class="point" transform="translate(486.49,326)" d="M7.14,0A7.14,7.14 0 1,1 0,-7.14A7.14,7.14 0 0,1 7.14,0Z" style="opacity: 1; stroke-width: 0px; fill: rgb(0, 0, 0); fill-opacity: 1;"/><path class="point" transform="translate(486.49,364.81)" d="M7.14,0A7.14,7.14 0 1,1 0,-7.14A7.14,7.14 0 0,1 7.14,0Z" style="opacity: 1; stroke-width: 0px; fill: rgb(0, 0, 0); fill-opacity: 1;"/></g><g class="text"/></g><g class="trace scatter trace3c134e" style="stroke-miterlimit: 2; opacity: 1;"><g class="fills"/><g class="errorbars"/><g class="lines"/><g class="points"><path class="point" transform="translate(486.49,326)" d="M7.14,0A7.14,7.14 0 1,1 0,-7.14A7.14,7.14 0 0,1 7.14,0Z" style="opacity: 1; stroke-width: 0px; fill: rgb(0, 0, 0); fill-opacity: 1;"/><path class="point" transform="translate(486.49,364.81)" d="M7.14,0A7.14,7.14 0 1,1 0,-7.14A7.14,7.14 0 0,1 7.14,0Z" style="opacity: 1; stroke-width: 0px; fill: rgb(0, 0, 0); fill-opacity: 1;"/><path class="point" transform="translate(486.49,403.63)" d="M7.14,0A7.14,7.14 0 1,1 0,-7.14A7.14,7.14 0 0,1 7.14,0Z" style="opacity: 1; stroke-width: 0px; fill: rgb(0, 0, 0); fill-opacity: 1;"/></g><g class="text"/></g><g class="trace scatter tracebe5f5e" style="stroke-miterlimit: 2; opacity: 1;"><g class="fills"/><g class="errorbars"/><g class="lines"/><g class="points"><path class="point" transform="translate(486.49,326)" d="M7.14,0A7.14,7.14 0 1,1 0,-7.14A7.14,7.14 0 0,1 7.14,0Z" style="opacity: 1; stroke-width: 0px; fill: rgb(0, 0, 0); fill-opacity: 1;"/><path class="point" transform="translate(486.49,364.81)" d="M7.14,0A7.14,7.14 0 1,1 0,-7.14A7.14,7.14 0 0,1 7.14,0Z" style="opacity: 1; stroke-width: 0px; fill: rgb(0, 0, 0); fill-opacity: 1;"/><path class="point" transform="translate(486.49,403.63)" d="M7.14,0A7.14,7.14 0 1,1 0,-7.14A7.14,7.14 0 0,1 7.14,0Z" style="opacity: 1; stroke-width: 0px; fill: rgb(0, 0, 0); fill-opacity: 1;"/><path class="point" transform="translate(486.49,442.44)" d="M7.14,0A7.14,7.14 0 1,1 0,-7.14A7.14,7.14 0 0,1 7.14,0Z" style="opacity: 1; stroke-width: 0px; fill: rgb(0, 0, 0); fill-opacity: 1;"/></g><g class="text"/></g><g class="trace scatter trace14e733" style="stroke-miterlimit: 2; opacity: 1;"><g class="fills"/><g class="errorbars"/><g class="lines"/><g class="points"><path class="point" transform="translate(486.49,326)" d="M7.14,0A7.14,7.14 0 1,1 0,-7.14A7.14,7.14 0 0,1 7.14,0Z" style="opacity: 1; stroke-width: 0px; fill: rgb(0, 0, 0); fill-opacity: 1;"/><path class="point" transform="translate(486.49,364.81)" d="M7.14,0A7.14,7.14 0 1,1 0,-7.14A7.14,7.14 0 0,1 7.14,0Z" style="opacity: 1; stroke-width: 0px; fill: rgb(0, 0, 0); fill-opacity: 1;"/><path class="point" transform="translate(486.49,403.63)" d="M7.14,0A7.14,7.14 0 1,1 0,-7.14A7.14,7.14 0 0,1 7.14,0Z" style="opacity: 1; stroke-width: 0px; fill: rgb(0, 0, 0); fill-opacity: 1;"/><path class="point" transform="translate(486.49,442.44)" d="M7.14,0A7.14,7.14 0 1,1 0,-7.14A7.14,7.14 0 0,1 7.14,0Z" style="opacity: 1; stroke-width: 0px; fill: rgb(0, 0, 0); fill-opacity: 1;"/><path class="point" transform="translate(486.49,481.25)" d="M7.14,0A7.14,7.14 0 1,1 0,-7.14A7.14,7.14 0 0,1 7.14,0Z" style="opacity: 1; stroke-width: 0px; fill: rgb(0, 0, 0); fill-opacity: 1;"/></g><g class="text"/></g><g class="trace scatter trace3e3041" style="stroke-miterlimit: 2; opacity: 1;"><g class="fills"/><g class="errorbars"/><g class="lines"/><g class="points"><path class="point" transform="translate(486.49,326)" d="M7.14,0A7.14,7.14 0 1,1 0,-7.14A7.14,7.14 0 0,1 7.14,0Z" style="opacity: 1; stroke-width: 0px; fill: rgb(0, 0, 0); fill-opacity: 1;"/><path class="point" transform="translate(486.49,364.81)" d="M7.14,0A7.14,7.14 0 1,1 0,-7.14A7.14,7.14 0 0,1 7.14,0Z" style="opacity: 1; stroke-width: 0px; fill: rgb(0, 0, 0); fill-opacity: 1;"/><path class="point" transform="translate(486.49,403.63)" d="M7.14,0A7.14,7.14 0 1,1 0,-7.14A7.14,7.14 0 0,1 7.14,0Z" style="opacity: 1; stroke-width: 0px; fill: rgb(0, 0, 0); fill-opacity: 1;"/><path class="point" transform="translate(486.49,442.44)" d="M7.14,0A7.14,7.14 0 1,1 0,-7.14A7.14,7.14 0 0,1 7.14,0Z" style="opacity: 1; stroke-width: 0px; fill: rgb(0, 0, 0); fill-opacity: 1;"/><path class="point" transform="translate(486.49,481.25)" d="M7.14,0A7.14,7.14 0 1,1 0,-7.14A7.14,7.14 0 0,1 7.14,0Z" style="opacity: 1; stroke-width: 0px; fill: rgb(0, 0, 0); fill-opacity: 1;"/><path class="point" transform="translate(486.49,520.06)" d="M7.14,0A7.14,7.14 0 1,1 0,-7.14A7.14,7.14 0 0,1 7.14,0Z" style="opacity: 1; stroke-width: 0px; fill: rgb(0, 0, 0); fill-opacity: 1;"/></g><g class="text"/></g><g class="trace scatter tracee22c31" style="stroke-miterlimit: 2; opacity: 1;"><g class="fills"/><g class="errorbars"/><g class="lines"/><g class="points"><path class="point" transform="translate(486.49,326)" d="M7.14,0A7.14,7.14 0 1,1 0,-7.14A7.14,7.14 0 0,1 7.14,0Z" style="opacity: 1; stroke-width: 0px; fill: rgb(0, 0, 0); fill-opacity: 1;"/><path class="point" transform="translate(486.49,364.81)" d="M7.14,0A7.14,7.14 0 1,1 0,-7.14A7.14,7.14 0 0,1 7.14,0Z" style="opacity: 1; stroke-width: 0px; fill: rgb(0, 0, 0); fill-opacity: 1;"/><path class="point" transform="translate(486.49,403.63)" d="M7.14,0A7.14,7.14 0 1,1 0,-7.14A7.14,7.14 0 0,1 7.14,0Z" style="opacity: 1; stroke-width: 0px; fill: rgb(0, 0, 0); fill-opacity: 1;"/><path class="point" transform="translate(486.49,442.44)" d="M7.14,0A7.14,7.14 0 1,1 0,-7.14A7.14,7.14 0 0,1 7.14,0Z" style="opacity: 1; stroke-width: 0px; fill: rgb(0, 0, 0); fill-opacity: 1;"/><path class="point" transform="translate(486.49,481.25)" d="M7.14,0A7.14,7.14 0 1,1 0,-7.14A7.14,7.14 0 0,1 7.14,0Z" style="opacity: 1; stroke-width: 0px; fill: rgb(0, 0, 0); fill-opacity: 1;"/><path class="point" transform="translate(486.49,520.06)" d="M7.14,0A7.14,7.14 0 1,1 0,-7.14A7.14,7.14 0 0,1 7.14,0Z" style="opacity: 1; stroke-width: 0px; fill: rgb(0, 0, 0); fill-opacity: 1;"/><path class="point" transform="translate(486.49,558.87)" d="M7.14,0A7.14,7.14 0 1,1 0,-7.14A7.14,7.14 0 0,1 7.14,0Z" style="opacity: 1; stroke-width: 0px; fill: rgb(0, 0, 0); fill-opacity: 1;"/></g><g class="text"/></g><g class="trace scatter tracec3639f" style="stroke-miterlimit: 2; opacity: 1;"><g class="fills"/><g class="errorbars"/><g class="lines"/><g class="points"><path class="point" transform="translate(543.2,364.81)" d="M7.14,0A7.14,7.14 0 1,1 0,-7.14A7.14,7.14 0 0,1 7.14,0Z" style="opacity: 1; stroke-width: 0px; fill: rgb(0, 0, 0); fill-opacity: 1;"/></g><g class="text"/></g><g class="trace scatter tracef26f72" style="stroke-miterlimit: 2; opacity: 1;"><g class="fills"/><g class="errorbars"/><g class="lines"/><g class="points"><path class="point" transform="translate(543.2,364.81)" d="M7.14,0A7.14,7.14 0 1,1 0,-7.14A7.14,7.14 0 0,1 7.14,0Z" style="opacity: 1; stroke-width: 0px; fill: rgb(0, 0, 0); fill-opacity: 1;"/><path class="point" transform="translate(543.2,403.63)" d="M7.14,0A7.14,7.14 0 1,1 0,-7.14A7.14,7.14 0 0,1 7.14,0Z" style="opacity: 1; stroke-width: 0px; fill: rgb(0, 0, 0); fill-opacity: 1;"/></g><g class="text"/></g><g class="trace scatter tracea978f5" style="stroke-miterlimit: 2; opacity: 1;"><g class="fills"/><g class="errorbars"/><g class="lines"/><g class="points"><path class="point" transform="translate(543.2,364.81)" d="M7.14,0A7.14,7.14 0 1,1 0,-7.14A7.14,7.14 0 0,1 7.14,0Z" style="opacity: 1; stroke-width: 0px; fill: rgb(0, 0, 0); fill-opacity: 1;"/><path class="point" transform="translate(543.2,403.63)" d="M7.14,0A7.14,7.14 0 1,1 0,-7.14A7.14,7.14 0 0,1 7.14,0Z" style="opacity: 1; stroke-width: 0px; fill: rgb(0, 0, 0); fill-opacity: 1;"/><path class="point" transform="translate(543.2,442.44)" d="M7.14,0A7.14,7.14 0 1,1 0,-7.14A7.14,7.14 0 0,1 7.14,0Z" style="opacity: 1; stroke-width: 0px; fill: rgb(0, 0, 0); fill-opacity: 1;"/></g><g class="text"/></g><g class="trace scatter trace690f71" style="stroke-miterlimit: 2; opacity: 1;"><g class="fills"/><g class="errorbars"/><g class="lines"/><g class="points"><path class="point" transform="translate(543.2,364.81)" d="M7.14,0A7.14,7.14 0 1,1 0,-7.14A7.14,7.14 0 0,1 7.14,0Z" style="opacity: 1; stroke-width: 0px; fill: rgb(0, 0, 0); fill-opacity: 1;"/><path class="point" transform="translate(543.2,403.63)" d="M7.14,0A7.14,7.14 0 1,1 0,-7.14A7.14,7.14 0 0,1 7.14,0Z" style="opacity: 1; stroke-width: 0px; fill: rgb(0, 0, 0); fill-opacity: 1;"/><path class="point" transform="translate(543.2,442.44)" d="M7.14,0A7.14,7.14 0 1,1 0,-7.14A7.14,7.14 0 0,1 7.14,0Z" style="opacity: 1; stroke-width: 0px; fill: rgb(0, 0, 0); fill-opacity: 1;"/><path class="point" transform="translate(543.2,481.25)" d="M7.14,0A7.14,7.14 0 1,1 0,-7.14A7.14,7.14 0 0,1 7.14,0Z" style="opacity: 1; stroke-width: 0px; fill: rgb(0, 0, 0); fill-opacity: 1;"/></g><g class="text"/></g><g class="trace scatter trace465dff" style="stroke-miterlimit: 2; opacity: 1;"><g class="fills"/><g class="errorbars"/><g class="lines"/><g class="points"><path class="point" transform="translate(543.2,364.81)" d="M7.14,0A7.14,7.14 0 1,1 0,-7.14A7.14,7.14 0 0,1 7.14,0Z" style="opacity: 1; stroke-width: 0px; fill: rgb(0, 0, 0); fill-opacity: 1;"/><path class="point" transform="translate(543.2,403.63)" d="M7.14,0A7.14,7.14 0 1,1 0,-7.14A7.14,7.14 0 0,1 7.14,0Z" style="opacity: 1; stroke-width: 0px; fill: rgb(0, 0, 0); fill-opacity: 1;"/><path class="point" transform="translate(543.2,442.44)" d="M7.14,0A7.14,7.14 0 1,1 0,-7.14A7.14,7.14 0 0,1 7.14,0Z" style="opacity: 1; stroke-width: 0px; fill: rgb(0, 0, 0); fill-opacity: 1;"/><path class="point" transform="translate(543.2,481.25)" d="M7.14,0A7.14,7.14 0 1,1 0,-7.14A7.14,7.14 0 0,1 7.14,0Z" style="opacity: 1; stroke-width: 0px; fill: rgb(0, 0, 0); fill-opacity: 1;"/><path class="point" transform="translate(543.2,520.06)" d="M7.14,0A7.14,7.14 0 1,1 0,-7.14A7.14,7.14 0 0,1 7.14,0Z" style="opacity: 1; stroke-width: 0px; fill: rgb(0, 0, 0); fill-opacity: 1;"/></g><g class="text"/></g><g class="trace scatter trace22870a" style="stroke-miterlimit: 2; opacity: 1;"><g class="fills"/><g class="errorbars"/><g class="lines"/><g class="points"><path class="point" transform="translate(543.2,364.81)" d="M7.14,0A7.14,7.14 0 1,1 0,-7.14A7.14,7.14 0 0,1 7.14,0Z" style="opacity: 1; stroke-width: 0px; fill: rgb(0, 0, 0); fill-opacity: 1;"/><path class="point" transform="translate(543.2,403.63)" d="M7.14,0A7.14,7.14 0 1,1 0,-7.14A7.14,7.14 0 0,1 7.14,0Z" style="opacity: 1; stroke-width: 0px; fill: rgb(0, 0, 0); fill-opacity: 1;"/><path class="point" transform="translate(543.2,442.44)" d="M7.14,0A7.14,7.14 0 1,1 0,-7.14A7.14,7.14 0 0,1 7.14,0Z" style="opacity: 1; stroke-width: 0px; fill: rgb(0, 0, 0); fill-opacity: 1;"/><path class="point" transform="translate(543.2,481.25)" d="M7.14,0A7.14,7.14 0 1,1 0,-7.14A7.14,7.14 0 0,1 7.14,0Z" style="opacity: 1; stroke-width: 0px; fill: rgb(0, 0, 0); fill-opacity: 1;"/><path class="point" transform="translate(543.2,520.06)" d="M7.14,0A7.14,7.14 0 1,1 0,-7.14A7.14,7.14 0 0,1 7.14,0Z" style="opacity: 1; stroke-width: 0px; fill: rgb(0, 0, 0); fill-opacity: 1;"/><path class="point" transform="translate(543.2,558.87)" d="M7.14,0A7.14,7.14 0 1,1 0,-7.14A7.14,7.14 0 0,1 7.14,0Z" style="opacity: 1; stroke-width: 0px; fill: rgb(0, 0, 0); fill-opacity: 1;"/></g><g class="text"/></g><g class="trace scatter trace6d64f5" style="stroke-miterlimit: 2; opacity: 1;"><g class="fills"/><g class="errorbars"/><g class="lines"/><g class="points"><path class="point" transform="translate(599.9,326)" d="M7.14,0A7.14,7.14 0 1,1 0,-7.14A7.14,7.14 0 0,1 7.14,0Z" style="opacity: 1; stroke-width: 0px; fill: rgb(0, 0, 0); fill-opacity: 1;"/></g><g class="text"/></g><g class="trace scatter trace8633bc" style="stroke-miterlimit: 2; opacity: 1;"><g class="fills"/><g class="errorbars"/><g class="lines"/><g class="points"><path class="point" transform="translate(599.9,326)" d="M7.14,0A7.14,7.14 0 1,1 0,-7.14A7.14,7.14 0 0,1 7.14,0Z" style="opacity: 1; stroke-width: 0px; fill: rgb(0, 0, 0); fill-opacity: 1;"/><path class="point" transform="translate(599.9,364.81)" d="M7.14,0A7.14,7.14 0 1,1 0,-7.14A7.14,7.14 0 0,1 7.14,0Z" style="opacity: 1; stroke-width: 0px; fill: rgb(0, 0, 0); fill-opacity: 1;"/></g><g class="text"/></g><g class="trace scatter trace911cda" style="stroke-miterlimit: 2; opacity: 1;"><g class="fills"/><g class="errorbars"/><g class="lines"/><g class="points"><path class="point" transform="translate(599.9,326)" d="M7.14,0A7.14,7.14 0 1,1 0,-7.14A7.14,7.14 0 0,1 7.14,0Z" style="opacity: 1; stroke-width: 0px; fill: rgb(0, 0, 0); fill-opacity: 1;"/><path class="point" transform="translate(599.9,364.81)" d="M7.14,0A7.14,7.14 0 1,1 0,-7.14A7.14,7.14 0 0,1 7.14,0Z" style="opacity: 1; stroke-width: 0px; fill: rgb(0, 0, 0); fill-opacity: 1;"/><path class="point" transform="translate(599.9,403.63)" d="M7.14,0A7.14,7.14 0 1,1 0,-7.14A7.14,7.14 0 0,1 7.14,0Z" style="opacity: 1; stroke-width: 0px; fill: rgb(0, 0, 0); fill-opacity: 1;"/></g><g class="text"/></g><g class="trace scatter tracef19fe3" style="stroke-miterlimit: 2; opacity: 1;"><g class="fills"/><g class="errorbars"/><g class="lines"/><g class="points"><path class="point" transform="translate(599.9,326)" d="M7.14,0A7.14,7.14 0 1,1 0,-7.14A7.14,7.14 0 0,1 7.14,0Z" style="opacity: 1; stroke-width: 0px; fill: rgb(0, 0, 0); fill-opacity: 1;"/><path class="point" transform="translate(599.9,364.81)" d="M7.14,0A7.14,7.14 0 1,1 0,-7.14A7.14,7.14 0 0,1 7.14,0Z" style="opacity: 1; stroke-width: 0px; fill: rgb(0, 0, 0); fill-opacity: 1;"/><path class="point" transform="translate(599.9,403.63)" d="M7.14,0A7.14,7.14 0 1,1 0,-7.14A7.14,7.14 0 0,1 7.14,0Z" style="opacity: 1; stroke-width: 0px; fill: rgb(0, 0, 0); fill-opacity: 1;"/><path class="point" transform="translate(599.9,520.06)" d="M7.14,0A7.14,7.14 0 1,1 0,-7.14A7.14,7.14 0 0,1 7.14,0Z" style="opacity: 1; stroke-width: 0px; fill: rgb(0, 0, 0); fill-opacity: 1;"/></g><g class="text"/></g><g class="trace scatter trace597e6a" style="stroke-miterlimit: 2; opacity: 1;"><g class="fills"/><g class="errorbars"/><g class="lines"/><g class="points"><path class="point" transform="translate(656.6,326)" d="M7.14,0A7.14,7.14 0 1,1 0,-7.14A7.14,7.14 0 0,1 7.14,0Z" style="opacity: 1; stroke-width: 0px; fill: rgb(0, 0, 0); fill-opacity: 1;"/></g><g class="text"/></g><g class="trace scatter trace292294" style="stroke-miterlimit: 2; opacity: 1;"><g class="fills"/><g class="errorbars"/><g class="lines"/><g class="points"><path class="point" transform="translate(656.6,326)" d="M7.14,0A7.14,7.14 0 1,1 0,-7.14A7.14,7.14 0 0,1 7.14,0Z" style="opacity: 1; stroke-width: 0px; fill: rgb(0, 0, 0); fill-opacity: 1;"/><path class="point" transform="translate(656.6,364.81)" d="M7.14,0A7.14,7.14 0 1,1 0,-7.14A7.14,7.14 0 0,1 7.14,0Z" style="opacity: 1; stroke-width: 0px; fill: rgb(0, 0, 0); fill-opacity: 1;"/></g><g class="text"/></g><g class="trace scatter trace666e93" style="stroke-miterlimit: 2; opacity: 1;"><g class="fills"/><g class="errorbars"/><g class="lines"/><g class="points"><path class="point" transform="translate(656.6,326)" d="M7.14,0A7.14,7.14 0 1,1 0,-7.14A7.14,7.14 0 0,1 7.14,0Z" style="opacity: 1; stroke-width: 0px; fill: rgb(0, 0, 0); fill-opacity: 1;"/><path class="point" transform="translate(656.6,364.81)" d="M7.14,0A7.14,7.14 0 1,1 0,-7.14A7.14,7.14 0 0,1 7.14,0Z" style="opacity: 1; stroke-width: 0px; fill: rgb(0, 0, 0); fill-opacity: 1;"/><path class="point" transform="translate(656.6,481.25)" d="M7.14,0A7.14,7.14 0 1,1 0,-7.14A7.14,7.14 0 0,1 7.14,0Z" style="opacity: 1; stroke-width: 0px; fill: rgb(0, 0, 0); fill-opacity: 1;"/></g><g class="text"/></g><g class="trace scatter trace3ceb0f" style="stroke-miterlimit: 2; opacity: 1;"><g class="fills"/><g class="errorbars"/><g class="lines"/><g class="points"><path class="point" transform="translate(656.6,326)" d="M7.14,0A7.14,7.14 0 1,1 0,-7.14A7.14,7.14 0 0,1 7.14,0Z" style="opacity: 1; stroke-width: 0px; fill: rgb(0, 0, 0); fill-opacity: 1;"/><path class="point" transform="translate(656.6,364.81)" d="M7.14,0A7.14,7.14 0 1,1 0,-7.14A7.14,7.14 0 0,1 7.14,0Z" style="opacity: 1; stroke-width: 0px; fill: rgb(0, 0, 0); fill-opacity: 1;"/><path class="point" transform="translate(656.6,481.25)" d="M7.14,0A7.14,7.14 0 1,1 0,-7.14A7.14,7.14 0 0,1 7.14,0Z" style="opacity: 1; stroke-width: 0px; fill: rgb(0, 0, 0); fill-opacity: 1;"/><path class="point" transform="translate(656.6,558.87)" d="M7.14,0A7.14,7.14 0 1,1 0,-7.14A7.14,7.14 0 0,1 7.14,0Z" style="opacity: 1; stroke-width: 0px; fill: rgb(0, 0, 0); fill-opacity: 1;"/></g><g class="text"/></g><g class="trace scatter trace21e78d" style="stroke-miterlimit: 2; opacity: 1;"><g class="fills"/><g class="errorbars"/><g class="lines"/><g class="points"><path class="point" transform="translate(713.3,326)" d="M7.14,0A7.14,7.14 0 1,1 0,-7.14A7.14,7.14 0 0,1 7.14,0Z" style="opacity: 1; stroke-width: 0px; fill: rgb(0, 0, 0); fill-opacity: 1;"/></g><g class="text"/></g><g class="trace scatter trace3134d2" style="stroke-miterlimit: 2; opacity: 1;"><g class="fills"/><g class="errorbars"/><g class="lines"/><g class="points"><path class="point" transform="translate(713.3,326)" d="M7.14,0A7.14,7.14 0 1,1 0,-7.14A7.14,7.14 0 0,1 7.14,0Z" style="opacity: 1; stroke-width: 0px; fill: rgb(0, 0, 0); fill-opacity: 1;"/><path class="point" transform="translate(713.3,364.81)" d="M7.14,0A7.14,7.14 0 1,1 0,-7.14A7.14,7.14 0 0,1 7.14,0Z" style="opacity: 1; stroke-width: 0px; fill: rgb(0, 0, 0); fill-opacity: 1;"/></g><g class="text"/></g><g class="trace scatter traced72da6" style="stroke-miterlimit: 2; opacity: 1;"><g class="fills"/><g class="errorbars"/><g class="lines"/><g class="points"><path class="point" transform="translate(713.3,326)" d="M7.14,0A7.14,7.14 0 1,1 0,-7.14A7.14,7.14 0 0,1 7.14,0Z" style="opacity: 1; stroke-width: 0px; fill: rgb(0, 0, 0); fill-opacity: 1;"/><path class="point" transform="translate(713.3,364.81)" d="M7.14,0A7.14,7.14 0 1,1 0,-7.14A7.14,7.14 0 0,1 7.14,0Z" style="opacity: 1; stroke-width: 0px; fill: rgb(0, 0, 0); fill-opacity: 1;"/><path class="point" transform="translate(713.3,481.25)" d="M7.14,0A7.14,7.14 0 1,1 0,-7.14A7.14,7.14 0 0,1 7.14,0Z" style="opacity: 1; stroke-width: 0px; fill: rgb(0, 0, 0); fill-opacity: 1;"/></g><g class="text"/></g><g class="trace scatter trace041904" style="stroke-miterlimit: 2; opacity: 1;"><g class="fills"/><g class="errorbars"/><g class="lines"/><g class="points"><path class="point" transform="translate(713.3,326)" d="M7.14,0A7.14,7.14 0 1,1 0,-7.14A7.14,7.14 0 0,1 7.14,0Z" style="opacity: 1; stroke-width: 0px; fill: rgb(0, 0, 0); fill-opacity: 1;"/><path class="point" transform="translate(713.3,364.81)" d="M7.14,0A7.14,7.14 0 1,1 0,-7.14A7.14,7.14 0 0,1 7.14,0Z" style="opacity: 1; stroke-width: 0px; fill: rgb(0, 0, 0); fill-opacity: 1;"/><path class="point" transform="translate(713.3,481.25)" d="M7.14,0A7.14,7.14 0 1,1 0,-7.14A7.14,7.14 0 0,1 7.14,0Z" style="opacity: 1; stroke-width: 0px; fill: rgb(0, 0, 0); fill-opacity: 1;"/><path class="point" transform="translate(713.3,520.06)" d="M7.14,0A7.14,7.14 0 1,1 0,-7.14A7.14,7.14 0 0,1 7.14,0Z" style="opacity: 1; stroke-width: 0px; fill: rgb(0, 0, 0); fill-opacity: 1;"/></g><g class="text"/></g><g class="trace scatter trace7327cf" style="stroke-miterlimit: 2; opacity: 1;"><g class="fills"/><g class="errorbars"/><g class="lines"/><g class="points"><path class="point" transform="translate(713.3,326)" d="M7.14,0A7.14,7.14 0 1,1 0,-7.14A7.14,7.14 0 0,1 7.14,0Z" style="opacity: 1; stroke-width: 0px; fill: rgb(0, 0, 0); fill-opacity: 1;"/><path class="point" transform="translate(713.3,364.81)" d="M7.14,0A7.14,7.14 0 1,1 0,-7.14A7.14,7.14 0 0,1 7.14,0Z" style="opacity: 1; stroke-width: 0px; fill: rgb(0, 0, 0); fill-opacity: 1;"/><path class="point" transform="translate(713.3,481.25)" d="M7.14,0A7.14,7.14 0 1,1 0,-7.14A7.14,7.14 0 0,1 7.14,0Z" style="opacity: 1; stroke-width: 0px; fill: rgb(0, 0, 0); fill-opacity: 1;"/><path class="point" transform="translate(713.3,520.06)" d="M7.14,0A7.14,7.14 0 1,1 0,-7.14A7.14,7.14 0 0,1 7.14,0Z" style="opacity: 1; stroke-width: 0px; fill: rgb(0, 0, 0); fill-opacity: 1;"/><path class="point" transform="translate(713.3,558.87)" d="M7.14,0A7.14,7.14 0 1,1 0,-7.14A7.14,7.14 0 0,1 7.14,0Z" style="opacity: 1; stroke-width: 0px; fill: rgb(0, 0, 0); fill-opacity: 1;"/></g><g class="text"/></g><g class="trace scatter trace336b60" style="stroke-miterlimit: 2; opacity: 1;"><g class="fills"/><g class="errorbars"/><g class="lines"/><g class="points"/><g class="text"><g class="textpoint" transform="translate(0,3)"><text x="449.07" y="326" text-anchor="end" style="font-family: 'Open Sans', verdana, arial, sans-serif; font-size: 12px; fill: rgb(42, 63, 95); fill-opacity: 1; white-space: pre;">m9-EX_glc_e7.44-EX_h2o2_e0.5-oxidative_stress_7min_BAR-Function-1</text></g><g class="textpoint" transform="translate(0,3)"><text x="449.07" y="364.81" text-anchor="end" style="font-family: 'Open Sans', verdana, arial, sans-serif; font-size: 12px; fill: rgb(42, 63, 95); fill-opacity: 1; white-space: pre;">m9-EX_glc_e7.44-EX_h2o2_e0.5-oxidative_stress_60min_BAR-Function-1</text></g><g class="textpoint" transform="translate(0,3)"><text x="449.07" y="403.63" text-anchor="end" style="font-family: 'Open Sans', verdana, arial, sans-serif; font-size: 12px; fill: rgb(42, 63, 95); fill-opacity: 1; white-space: pre;">m9-EX_glc_e7.44-imipenem_60min_BAR-Function-1</text></g><g class="textpoint" transform="translate(0,3)"><text x="449.07" y="442.44" text-anchor="end" style="font-family: 'Open Sans', verdana, arial, sans-serif; font-size: 12px; fill: rgb(42, 63, 95); fill-opacity: 1; white-space: pre;">m9-EX_glc_e7.44-osmotic_stress_7min_BAR-Function-1</text></g><g class="textpoint" transform="translate(0,3)"><text x="449.07" y="481.25" text-anchor="end" style="font-family: 'Open Sans', verdana, arial, sans-serif; font-size: 12px; fill: rgb(42, 63, 95); fill-opacity: 1; white-space: pre;">m9-EX_glc_e7.44-osmotic_stress_60min_BAR-Function-1</text></g><g class="textpoint" transform="translate(0,3)"><text x="449.07" y="520.06" text-anchor="end" style="font-family: 'Open Sans', verdana, arial, sans-serif; font-size: 12px; fill: rgb(42, 63, 95); fill-opacity: 1; white-space: pre;">m9-EX_glc_e7.44-imipenem_7min_BAR-Function-1</text></g><g class="textpoint" transform="translate(0,3)"><text x="449.07" y="558.87" text-anchor="end" style="font-family: 'Open Sans', verdana, arial, sans-serif; font-size: 12px; fill: rgb(42, 63, 95); fill-opacity: 1; white-space: pre;">m9-EX_glc_e7.44-control_BAR-Function-1</text></g></g></g></g></g><g class="overplot"/><path class="xlines-above crisp" d="M0,0" style="fill: none;"/><path class="ylines-above crisp" d="M0,0" style="fill: none;"/><g class="overlines-above"/><g class="xaxislayer-above"/><g class="yaxislayer-above"/><g class="overaxes-above"/></g></g><g class="polarlayer"/><g class="smithlayer"/><g class="ternarylayer"/><g class="geolayer"/><g class="funnelarealayer"/><g class="pielayer"/><g class="iciclelayer"/><g class="treemaplayer"/><g class="sunburstlayer"/><g class="glimages"/><defs id="topdefs-94a4cb"><g class="clips"/></defs><g class="layer-above"><g class="imagelayer"/><g class="shapelayer"/></g><g class="infolayer"><g class="g-gtitle"><text class="gtitle" x="500" y="20" text-anchor="middle" dy="0em" style="font-family: 'Open Sans', verdana, arial, sans-serif; font-size: 17px; fill: rgb(42, 63, 95); opacity: 1; font-weight: normal; white-space: pre;"><tspan style="font-weight:bold">Intersections<tspan style="font-weight:bold"></tspan></tspan></text></g><g class="g-xtitle"/><g class="g-ytitle"/></g></svg>