<svg class="main-svg" xmlns="http://www.w3.org/2000/svg" xmlns:xlink="http://www.w3.org/1999/xlink" width="564" height="1200" style="" viewBox="0 0 564 1200"><rect x="0" y="0" width="564" height="1200" style="fill: rgb(255, 255, 255); fill-opacity: 1;"/><defs id="defs-530aef"><g class="clips"><clipPath id="clip530aefxyplot" class="plotclip"><rect width="230" height="1020"/></clipPath><clipPath class="axesclip" id="clip530aefx"><rect x="254" y="0" width="230" height="1200"/></clipPath><clipPath class="axesclip" id="clip530aefy"><rect x="0" y="100" width="564" height="1020"/></clipPath><clipPath class="axesclip" id="clip530aefxy"><rect x="254" y="100" width="230" height="1020"/></clipPath></g><g class="gradients"/><g class="patterns"/></defs><g class="bglayer"><rect class="bg" x="254" y="100" width="230" height="1020" style="fill: rgb(229, 236, 246); fill-opacity: 1; stroke-width: 0;"/></g><g class="layer-below"><g class="imagelayer"/><g class="shapelayer"/></g><g class="cartesianlayer"><g class="subplot xy"><g class="layer-subplot"><g class="shapelayer"/><g class="imagelayer"/></g><g class="minor-gridlayer"><g class="x"/><g class="y"/></g><g class="gridlayer"><g class="x"><path class="xgrid crisp" transform="translate(281.7,0)" d="M0,100v1020" style="stroke: rgb(255, 255, 255); stroke-opacity: 1; stroke-width: 1px;"/><path class="xgrid crisp" transform="translate(461.73,0)" d="M0,100v1020" style="stroke: rgb(255, 255, 255); stroke-opacity: 1; stroke-width: 1px;"/></g><g class="y"><path class="ygrid crisp" transform="translate(0,1066)" d="M254,0h230" style="stroke: rgb(255, 255, 255); stroke-opacity: 1; stroke-width: 1px;"/><path class="ygrid crisp" transform="translate(0,1037.62)" d="M254,0h230" style="stroke: rgb(255, 255, 255); stroke-opacity: 1; stroke-width: 1px;"/><path class="ygrid crisp" transform="translate(0,1009.25)" d="M254,0h230" style="stroke: rgb(255, 255, 255); stroke-opacity: 1; stroke-width: 1px;"/><path class="ygrid crisp" transform="translate(0,980.87)" d="M254,0h230" style="stroke: rgb(255, 255, 255); stroke-opacity: 1; stroke-width: 1px;"/><path class="ygrid crisp" transform="translate(0,952.5)" d="M254,0h230" style="stroke: rgb(255, 255, 255); stroke-opacity: 1; stroke-width: 1px;"/><path class="ygrid crisp" transform="translate(0,924.12)" d="M254,0h230" style="stroke: rgb(255, 255, 255); stroke-opacity: 1; stroke-width: 1px;"/><path class="ygrid crisp" transform="translate(0,895.74)" d="M254,0h230" style="stroke: rgb(255, 255, 255); stroke-opacity: 1; stroke-width: 1px;"/><path class="ygrid crisp" transform="translate(0,867.37)" d="M254,0h230" style="stroke: rgb(255, 255, 255); stroke-opacity: 1; stroke-width: 1px;"/><path class="ygrid crisp" transform="translate(0,838.99)" d="M254,0h230" style="stroke: rgb(255, 255, 255); stroke-opacity: 1; stroke-width: 1px;"/><path class="ygrid crisp" transform="translate(0,810.61)" d="M254,0h230" style="stroke: rgb(255, 255, 255); stroke-opacity: 1; stroke-width: 1px;"/><path class="ygrid crisp" transform="translate(0,782.24)" d="M254,0h230" style="stroke: rgb(255, 255, 255); stroke-opacity: 1; stroke-width: 1px;"/><path class="ygrid crisp" transform="translate(0,753.86)" d="M254,0h230" style="stroke: rgb(255, 255, 255); stroke-opacity: 1; stroke-width: 1px;"/><path class="ygrid crisp" transform="translate(0,725.49)" d="M254,0h230" style="stroke: rgb(255, 255, 255); stroke-opacity: 1; stroke-width: 1px;"/><path class="ygrid crisp" transform="translate(0,697.11)" d="M254,0h230" style="stroke: rgb(255, 255, 255); stroke-opacity: 1; stroke-width: 1px;"/><path class="ygrid crisp" transform="translate(0,668.73)" d="M254,0h230" style="stroke: rgb(255, 255, 255); stroke-opacity: 1; stroke-width: 1px;"/><path class="ygrid crisp" transform="translate(0,640.36)" d="M254,0h230" style="stroke: rgb(255, 255, 255); stroke-opacity: 1; stroke-width: 1px;"/><path class="ygrid crisp" transform="translate(0,611.98)" d="M254,0h230" style="stroke: rgb(255, 255, 255); stroke-opacity: 1; stroke-width: 1px;"/><path class="ygrid crisp" transform="translate(0,583.6)" d="M254,0h230" style="stroke: rgb(255, 255, 255); stroke-opacity: 1; stroke-width: 1px;"/><path class="ygrid crisp" transform="translate(0,555.23)" d="M254,0h230" style="stroke: rgb(255, 255, 255); stroke-opacity: 1; stroke-width: 1px;"/><path class="ygrid crisp" transform="translate(0,526.85)" d="M254,0h230" style="stroke: rgb(255, 255, 255); stroke-opacity: 1; stroke-width: 1px;"/><path class="ygrid crisp" transform="translate(0,498.48)" d="M254,0h230" style="stroke: rgb(255, 255, 255); stroke-opacity: 1; stroke-width: 1px;"/><path class="ygrid crisp" transform="translate(0,470.1)" d="M254,0h230" style="stroke: rgb(255, 255, 255); stroke-opacity: 1; stroke-width: 1px;"/><path class="ygrid crisp" transform="translate(0,441.72)" d="M254,0h230" style="stroke: rgb(255, 255, 255); stroke-opacity: 1; stroke-width: 1px;"/><path class="ygrid crisp" transform="translate(0,413.35)" d="M254,0h230" style="stroke: rgb(255, 255, 255); stroke-opacity: 1; stroke-width: 1px;"/><path class="ygrid crisp" transform="translate(0,384.97)" d="M254,0h230" style="stroke: rgb(255, 255, 255); stroke-opacity: 1; stroke-width: 1px;"/><path class="ygrid crisp" transform="translate(0,356.59)" d="M254,0h230" style="stroke: rgb(255, 255, 255); stroke-opacity: 1; stroke-width: 1px;"/><path class="ygrid crisp" transform="translate(0,328.22)" d="M254,0h230" style="stroke: rgb(255, 255, 255); stroke-opacity: 1; stroke-width: 1px;"/><path class="ygrid crisp" transform="translate(0,299.84000000000003)" d="M254,0h230" style="stroke: rgb(255, 255, 255); stroke-opacity: 1; stroke-width: 1px;"/><path class="ygrid crisp" transform="translate(0,271.47)" d="M254,0h230" style="stroke: rgb(255, 255, 255); stroke-opacity: 1; stroke-width: 1px;"/><path class="ygrid crisp" transform="translate(0,243.09)" d="M254,0h230" style="stroke: rgb(255, 255, 255); stroke-opacity: 1; stroke-width: 1px;"/><path class="ygrid crisp" transform="translate(0,214.70999999999998)" d="M254,0h230" style="stroke: rgb(255, 255, 255); stroke-opacity: 1; stroke-width: 1px;"/><path class="ygrid crisp" transform="translate(0,186.34)" d="M254,0h230" style="stroke: rgb(255, 255, 255); stroke-opacity: 1; stroke-width: 1px;"/><path class="ygrid crisp" transform="translate(0,157.96)" d="M254,0h230" style="stroke: rgb(255, 255, 255); stroke-opacity: 1; stroke-width: 1px;"/></g></g><g class="zerolinelayer"/><path class="xlines-below"/><path class="ylines-below"/><g class="overlines-below"/><g class="xaxislayer-below"/><g class="yaxislayer-below"/><g class="overaxes-below"/><g class="plot" transform="translate(254,100)" clip-path="url(#clip530aefxyplot)"><g class="scatterlayer mlayer"><g class="trace scatter traced3fec4" style="stroke-miterlimit: 2; opacity: 1;"><g class="fills"/><g class="errorbars"/><g class="lines"/><g class="points"><path class="point" transform="translate(27.7,966)" d="M0,0A0,0 0 1,1 0,-0A0,0 0 0,1 0,0Z" style="opacity: 0.7; stroke-width: 2px; fill: rgb(31, 119, 180); fill-opacity: 1; stroke: rgb(255, 255, 255); stroke-opacity: 1;"/><path class="point" transform="translate(27.7,937.62)" d="M0.1,0A0.1,0.1 0 1,1 0,-0.1A0.1,0.1 0 0,1 0.1,0Z" style="opacity: 0.7; stroke-width: 2px; fill: rgb(31, 119, 180); fill-opacity: 1; stroke: rgb(255, 255, 255); stroke-opacity: 1;"/><path class="point" transform="translate(27.7,909.25)" d="M0,0A0,0 0 1,1 0,-0A0,0 0 0,1 0,0Z" style="opacity: 0.7; stroke-width: 2px; fill: rgb(31, 119, 180); fill-opacity: 1; stroke: rgb(255, 255, 255); stroke-opacity: 1;"/><path class="point" transform="translate(27.7,880.87)" d="M1.21,0A1.21,1.21 0 1,1 0,-1.21A1.21,1.21 0 0,1 1.21,0Z" style="opacity: 0.7; stroke-width: 2px; fill: rgb(31, 119, 180); fill-opacity: 1; stroke: rgb(255, 255, 255); stroke-opacity: 1;"/><path class="point" transform="translate(27.7,852.5)" d="M1.11,0A1.11,1.11 0 1,1 0,-1.11A1.11,1.11 0 0,1 1.11,0Z" style="opacity: 0.7; stroke-width: 2px; fill: rgb(31, 119, 180); fill-opacity: 1; stroke: rgb(255, 255, 255); stroke-opacity: 1;"/><path class="point" transform="translate(27.7,824.12)" d="M1.52,0A1.52,1.52 0 1,1 0,-1.52A1.52,1.52 0 0,1 1.52,0Z" style="opacity: 0.7; stroke-width: 2px; fill: rgb(31, 119, 180); fill-opacity: 1; stroke: rgb(255, 255, 255); stroke-opacity: 1;"/><path class="point" transform="translate(27.7,795.74)" d="M0.4,0A0.4,0.4 0 1,1 0,-0.4A0.4,0.4 0 0,1 0.4,0Z" style="opacity: 0.7; stroke-width: 2px; fill: rgb(31, 119, 180); fill-opacity: 1; stroke: rgb(255, 255, 255); stroke-opacity: 1;"/><path class="point" transform="translate(27.7,767.37)" d="M2.73,0A2.73,2.73 0 1,1 0,-2.73A2.73,2.73 0 0,1 2.73,0Z" style="opacity: 0.7; stroke-width: 2px; fill: rgb(31, 119, 180); fill-opacity: 1; stroke: rgb(255, 255, 255); stroke-opacity: 1;"/><path class="point" transform="translate(27.7,738.99)" d="M0.81,0A0.81,0.81 0 1,1 0,-0.81A0.81,0.81 0 0,1 0.81,0Z" style="opacity: 0.7; stroke-width: 2px; fill: rgb(31, 119, 180); fill-opacity: 1; stroke: rgb(255, 255, 255); stroke-opacity: 1;"/><path class="point" transform="translate(27.7,710.61)" d="M2.73,0A2.73,2.73 0 1,1 0,-2.73A2.73,2.73 0 0,1 2.73,0Z" style="opacity: 0.7; stroke-width: 2px; fill: rgb(31, 119, 180); fill-opacity: 1; stroke: rgb(255, 255, 255); stroke-opacity: 1;"/><path class="point" transform="translate(27.7,682.24)" d="M3.04,0A3.04,3.04 0 1,1 0,-3.04A3.04,3.04 0 0,1 3.04,0Z" style="opacity: 0.7; stroke-width: 2px; fill: rgb(31, 119, 180); fill-opacity: 1; stroke: rgb(255, 255, 255); stroke-opacity: 1;"/><path class="point" transform="translate(27.7,653.86)" d="M0.91,0A0.91,0.91 0 1,1 0,-0.91A0.91,0.91 0 0,1 0.91,0Z" style="opacity: 0.7; stroke-width: 2px; fill: rgb(31, 119, 180); fill-opacity: 1; stroke: rgb(255, 255, 255); stroke-opacity: 1;"/><path class="point" transform="translate(27.7,625.49)" d="M1.32,0A1.32,1.32 0 1,1 0,-1.32A1.32,1.32 0 0,1 1.32,0Z" style="opacity: 0.7; stroke-width: 2px; fill: rgb(31, 119, 180); fill-opacity: 1; stroke: rgb(255, 255, 255); stroke-opacity: 1;"/><path class="point" transform="translate(27.7,597.11)" d="M1.42,0A1.42,1.42 0 1,1 0,-1.42A1.42,1.42 0 0,1 1.42,0Z" style="opacity: 0.7; stroke-width: 2px; fill: rgb(31, 119, 180); fill-opacity: 1; stroke: rgb(255, 255, 255); stroke-opacity: 1;"/><path class="point" transform="translate(27.7,568.73)" d="M2.63,0A2.63,2.63 0 1,1 0,-2.63A2.63,2.63 0 0,1 2.63,0Z" style="opacity: 0.7; stroke-width: 2px; fill: rgb(31, 119, 180); fill-opacity: 1; stroke: rgb(255, 255, 255); stroke-opacity: 1;"/><path class="point" transform="translate(27.7,540.36)" d="M2.43,0A2.43,2.43 0 1,1 0,-2.43A2.43,2.43 0 0,1 2.43,0Z" style="opacity: 0.7; stroke-width: 2px; fill: rgb(31, 119, 180); fill-opacity: 1; stroke: rgb(255, 255, 255); stroke-opacity: 1;"/><path class="point" transform="translate(27.7,511.98)" d="M12.96,0A12.96,12.96 0 1,1 0,-12.96A12.96,12.96 0 0,1 12.96,0Z" style="opacity: 0.7; stroke-width: 2px; fill: rgb(31, 119, 180); fill-opacity: 1; stroke: rgb(255, 255, 255); stroke-opacity: 1;"/><path class="point" transform="translate(27.7,483.6)" d="M0.4,0A0.4,0.4 0 1,1 0,-0.4A0.4,0.4 0 0,1 0.4,0Z" style="opacity: 0.7; stroke-width: 2px; fill: rgb(31, 119, 180); fill-opacity: 1; stroke: rgb(255, 255, 255); stroke-opacity: 1;"/><path class="point" transform="translate(27.7,455.23)" d="M1.01,0A1.01,1.01 0 1,1 0,-1.01A1.01,1.01 0 0,1 1.01,0Z" style="opacity: 0.7; stroke-width: 2px; fill: rgb(31, 119, 180); fill-opacity: 1; stroke: rgb(255, 255, 255); stroke-opacity: 1;"/><path class="point" transform="translate(27.7,426.85)" d="M0.51,0A0.51,0.51 0 1,1 0,-0.51A0.51,0.51 0 0,1 0.51,0Z" style="opacity: 0.7; stroke-width: 2px; fill: rgb(31, 119, 180); fill-opacity: 1; stroke: rgb(255, 255, 255); stroke-opacity: 1;"/><path class="point" transform="translate(27.7,398.48)" d="M1.01,0A1.01,1.01 0 1,1 0,-1.01A1.01,1.01 0 0,1 1.01,0Z" style="opacity: 0.7; stroke-width: 2px; fill: rgb(31, 119, 180); fill-opacity: 1; stroke: rgb(255, 255, 255); stroke-opacity: 1;"/><path class="point" transform="translate(27.7,370.1)" d="M2.33,0A2.33,2.33 0 1,1 0,-2.33A2.33,2.33 0 0,1 2.33,0Z" style="opacity: 0.7; stroke-width: 2px; fill: rgb(31, 119, 180); fill-opacity: 1; stroke: rgb(255, 255, 255); stroke-opacity: 1;"/><path class="point" transform="translate(27.7,341.72)" d="M2.02,0A2.02,2.02 0 1,1 0,-2.02A2.02,2.02 0 0,1 2.02,0Z" style="opacity: 0.7; stroke-width: 2px; fill: rgb(31, 119, 180); fill-opacity: 1; stroke: rgb(255, 255, 255); stroke-opacity: 1;"/><path class="point" transform="translate(27.7,313.35)" d="M1.11,0A1.11,1.11 0 1,1 0,-1.11A1.11,1.11 0 0,1 1.11,0Z" style="opacity: 0.7; stroke-width: 2px; fill: rgb(31, 119, 180); fill-opacity: 1; stroke: rgb(255, 255, 255); stroke-opacity: 1;"/><path class="point" transform="translate(27.7,284.97)" d="M4.45,0A4.45,4.45 0 1,1 0,-4.45A4.45,4.45 0 0,1 4.45,0Z" style="opacity: 0.7; stroke-width: 2px; fill: rgb(31, 119, 180); fill-opacity: 1; stroke: rgb(255, 255, 255); stroke-opacity: 1;"/><path class="point" transform="translate(27.7,256.59)" d="M1.01,0A1.01,1.01 0 1,1 0,-1.01A1.01,1.01 0 0,1 1.01,0Z" style="opacity: 0.7; stroke-width: 2px; fill: rgb(31, 119, 180); fill-opacity: 1; stroke: rgb(255, 255, 255); stroke-opacity: 1;"/><path class="point" transform="translate(27.7,228.22)" d="M2.73,0A2.73,2.73 0 1,1 0,-2.73A2.73,2.73 0 0,1 2.73,0Z" style="opacity: 0.7; stroke-width: 2px; fill: rgb(31, 119, 180); fill-opacity: 1; stroke: rgb(255, 255, 255); stroke-opacity: 1;"/><path class="point" transform="translate(27.7,199.84)" d="M3.54,0A3.54,3.54 0 1,1 0,-3.54A3.54,3.54 0 0,1 3.54,0Z" style="opacity: 0.7; stroke-width: 2px; fill: rgb(31, 119, 180); fill-opacity: 1; stroke: rgb(255, 255, 255); stroke-opacity: 1;"/><path class="point" transform="translate(27.7,171.47)" d="M1.92,0A1.92,1.92 0 1,1 0,-1.92A1.92,1.92 0 0,1 1.92,0Z" style="opacity: 0.7; stroke-width: 2px; fill: rgb(31, 119, 180); fill-opacity: 1; stroke: rgb(255, 255, 255); stroke-opacity: 1;"/><path class="point" transform="translate(27.7,143.09)" d="M0.1,0A0.1,0.1 0 1,1 0,-0.1A0.1,0.1 0 0,1 0.1,0Z" style="opacity: 0.7; stroke-width: 2px; fill: rgb(31, 119, 180); fill-opacity: 1; stroke: rgb(255, 255, 255); stroke-opacity: 1;"/><path class="point" transform="translate(27.7,114.71)" d="M1.52,0A1.52,1.52 0 1,1 0,-1.52A1.52,1.52 0 0,1 1.52,0Z" style="opacity: 0.7; stroke-width: 2px; fill: rgb(31, 119, 180); fill-opacity: 1; stroke: rgb(255, 255, 255); stroke-opacity: 1;"/><path class="point" transform="translate(27.7,86.34)" d="M2.33,0A2.33,2.33 0 1,1 0,-2.33A2.33,2.33 0 0,1 2.33,0Z" style="opacity: 0.7; stroke-width: 2px; fill: rgb(31, 119, 180); fill-opacity: 1; stroke: rgb(255, 255, 255); stroke-opacity: 1;"/><path class="point" transform="translate(27.7,57.96)" d="M5.57,0A5.57,5.57 0 1,1 0,-5.57A5.57,5.57 0 0,1 5.57,0Z" style="opacity: 0.7; stroke-width: 2px; fill: rgb(31, 119, 180); fill-opacity: 1; stroke: rgb(255, 255, 255); stroke-opacity: 1;"/></g><g class="text"/></g><g class="trace scatter trace3d4a95" style="stroke-miterlimit: 2; opacity: 1;"><g class="fills"/><g class="errorbars"/><g class="lines"/><g class="points"><path class="point" transform="translate(207.73,966)" d="M0.66,0A0.66,0.66 0 1,1 0,-0.66A0.66,0.66 0 0,1 0.66,0Z" style="opacity: 0.7; stroke-width: 2px; fill: rgb(255, 127, 14); fill-opacity: 1; stroke: rgb(255, 255, 255); stroke-opacity: 1;"/><path class="point" transform="translate(207.73,937.62)" d="M1.46,0A1.46,1.46 0 1,1 0,-1.46A1.46,1.46 0 0,1 1.46,0Z" style="opacity: 0.7; stroke-width: 2px; fill: rgb(255, 127, 14); fill-opacity: 1; stroke: rgb(255, 255, 255); stroke-opacity: 1;"/><path class="point" transform="translate(207.73,909.25)" d="M1.59,0A1.59,1.59 0 1,1 0,-1.59A1.59,1.59 0 0,1 1.59,0Z" style="opacity: 0.7; stroke-width: 2px; fill: rgb(255, 127, 14); fill-opacity: 1; stroke: rgb(255, 255, 255); stroke-opacity: 1;"/><path class="point" transform="translate(207.73,880.87)" d="M2.65,0A2.65,2.65 0 1,1 0,-2.65A2.65,2.65 0 0,1 2.65,0Z" style="opacity: 0.7; stroke-width: 2px; fill: rgb(255, 127, 14); fill-opacity: 1; stroke: rgb(255, 255, 255); stroke-opacity: 1;"/><path class="point" transform="translate(207.73,852.5)" d="M3.05,0A3.05,3.05 0 1,1 0,-3.05A3.05,3.05 0 0,1 3.05,0Z" style="opacity: 0.7; stroke-width: 2px; fill: rgb(255, 127, 14); fill-opacity: 1; stroke: rgb(255, 255, 255); stroke-opacity: 1;"/><path class="point" transform="translate(207.73,824.12)" d="M1.99,0A1.99,1.99 0 1,1 0,-1.99A1.99,1.99 0 0,1 1.99,0Z" style="opacity: 0.7; stroke-width: 2px; fill: rgb(255, 127, 14); fill-opacity: 1; stroke: rgb(255, 255, 255); stroke-opacity: 1;"/><path class="point" transform="translate(207.73,795.74)" d="M0.8,0A0.8,0.8 0 1,1 0,-0.8A0.8,0.8 0 0,1 0.8,0Z" style="opacity: 0.7; stroke-width: 2px; fill: rgb(255, 127, 14); fill-opacity: 1; stroke: rgb(255, 255, 255); stroke-opacity: 1;"/><path class="point" transform="translate(207.73,767.37)" d="M2.12,0A2.12,2.12 0 1,1 0,-2.12A2.12,2.12 0 0,1 2.12,0Z" style="opacity: 0.7; stroke-width: 2px; fill: rgb(255, 127, 14); fill-opacity: 1; stroke: rgb(255, 255, 255); stroke-opacity: 1;"/><path class="point" transform="translate(207.73,738.99)" d="M0.53,0A0.53,0.53 0 1,1 0,-0.53A0.53,0.53 0 0,1 0.53,0Z" style="opacity: 0.7; stroke-width: 2px; fill: rgb(255, 127, 14); fill-opacity: 1; stroke: rgb(255, 255, 255); stroke-opacity: 1;"/><path class="point" transform="translate(207.73,710.61)" d="M5.04,0A5.04,5.04 0 1,1 0,-5.04A5.04,5.04 0 0,1 5.04,0Z" style="opacity: 0.7; stroke-width: 2px; fill: rgb(255, 127, 14); fill-opacity: 1; stroke: rgb(255, 255, 255); stroke-opacity: 1;"/><path class="point" transform="translate(207.73,682.24)" d="M2.78,0A2.78,2.78 0 1,1 0,-2.78A2.78,2.78 0 0,1 2.78,0Z" style="opacity: 0.7; stroke-width: 2px; fill: rgb(255, 127, 14); fill-opacity: 1; stroke: rgb(255, 255, 255); stroke-opacity: 1;"/><path class="point" transform="translate(207.73,653.86)" d="M0.66,0A0.66,0.66 0 1,1 0,-0.66A0.66,0.66 0 0,1 0.66,0Z" style="opacity: 0.7; stroke-width: 2px; fill: rgb(255, 127, 14); fill-opacity: 1; stroke: rgb(255, 255, 255); stroke-opacity: 1;"/><path class="point" transform="translate(207.73,625.49)" d="M2.12,0A2.12,2.12 0 1,1 0,-2.12A2.12,2.12 0 0,1 2.12,0Z" style="opacity: 0.7; stroke-width: 2px; fill: rgb(255, 127, 14); fill-opacity: 1; stroke: rgb(255, 255, 255); stroke-opacity: 1;"/><path class="point" transform="translate(207.73,597.11)" d="M1.06,0A1.06,1.06 0 1,1 0,-1.06A1.06,1.06 0 0,1 1.06,0Z" style="opacity: 0.7; stroke-width: 2px; fill: rgb(255, 127, 14); fill-opacity: 1; stroke: rgb(255, 255, 255); stroke-opacity: 1;"/><path class="point" transform="translate(207.73,568.73)" d="M2.25,0A2.25,2.25 0 1,1 0,-2.25A2.25,2.25 0 0,1 2.25,0Z" style="opacity: 0.7; stroke-width: 2px; fill: rgb(255, 127, 14); fill-opacity: 1; stroke: rgb(255, 255, 255); stroke-opacity: 1;"/><path class="point" transform="translate(207.73,540.36)" d="M1.33,0A1.33,1.33 0 1,1 0,-1.33A1.33,1.33 0 0,1 1.33,0Z" style="opacity: 0.7; stroke-width: 2px; fill: rgb(255, 127, 14); fill-opacity: 1; stroke: rgb(255, 255, 255); stroke-opacity: 1;"/><path class="point" transform="translate(207.73,511.98)" d="M8.62,0A8.62,8.62 0 1,1 0,-8.62A8.62,8.62 0 0,1 8.62,0Z" style="opacity: 0.7; stroke-width: 2px; fill: rgb(255, 127, 14); fill-opacity: 1; stroke: rgb(255, 255, 255); stroke-opacity: 1;"/><path class="point" transform="translate(207.73,483.6)" d="M0.66,0A0.66,0.66 0 1,1 0,-0.66A0.66,0.66 0 0,1 0.66,0Z" style="opacity: 0.7; stroke-width: 2px; fill: rgb(255, 127, 14); fill-opacity: 1; stroke: rgb(255, 255, 255); stroke-opacity: 1;"/><path class="point" transform="translate(207.73,455.23)" d="M0.93,0A0.93,0.93 0 1,1 0,-0.93A0.93,0.93 0 0,1 0.93,0Z" style="opacity: 0.7; stroke-width: 2px; fill: rgb(255, 127, 14); fill-opacity: 1; stroke: rgb(255, 255, 255); stroke-opacity: 1;"/><path class="point" transform="translate(207.73,426.85)" d="M0.8,0A0.8,0.8 0 1,1 0,-0.8A0.8,0.8 0 0,1 0.8,0Z" style="opacity: 0.7; stroke-width: 2px; fill: rgb(255, 127, 14); fill-opacity: 1; stroke: rgb(255, 255, 255); stroke-opacity: 1;"/><path class="point" transform="translate(207.73,398.48)" d="M1.46,0A1.46,1.46 0 1,1 0,-1.46A1.46,1.46 0 0,1 1.46,0Z" style="opacity: 0.7; stroke-width: 2px; fill: rgb(255, 127, 14); fill-opacity: 1; stroke: rgb(255, 255, 255); stroke-opacity: 1;"/><path class="point" transform="translate(207.73,370.1)" d="M0.13,0A0.13,0.13 0 1,1 0,-0.13A0.13,0.13 0 0,1 0.13,0Z" style="opacity: 0.7; stroke-width: 2px; fill: rgb(255, 127, 14); fill-opacity: 1; stroke: rgb(255, 255, 255); stroke-opacity: 1;"/><path class="point" transform="translate(207.73,341.72)" d="M0.53,0A0.53,0.53 0 1,1 0,-0.53A0.53,0.53 0 0,1 0.53,0Z" style="opacity: 0.7; stroke-width: 2px; fill: rgb(255, 127, 14); fill-opacity: 1; stroke: rgb(255, 255, 255); stroke-opacity: 1;"/><path class="point" transform="translate(207.73,313.35)" d="M0,0A0,0 0 1,1 0,-0A0,0 0 0,1 0,0Z" style="opacity: 0.7; stroke-width: 2px; fill: rgb(255, 127, 14); fill-opacity: 1; stroke: rgb(255, 255, 255); stroke-opacity: 1;"/><path class="point" transform="translate(207.73,284.97)" d="M7.82,0A7.82,7.82 0 1,1 0,-7.82A7.82,7.82 0 0,1 7.82,0Z" style="opacity: 0.7; stroke-width: 2px; fill: rgb(255, 127, 14); fill-opacity: 1; stroke: rgb(255, 255, 255); stroke-opacity: 1;"/><path class="point" transform="translate(207.73,256.59)" d="M1.99,0A1.99,1.99 0 1,1 0,-1.99A1.99,1.99 0 0,1 1.99,0Z" style="opacity: 0.7; stroke-width: 2px; fill: rgb(255, 127, 14); fill-opacity: 1; stroke: rgb(255, 255, 255); stroke-opacity: 1;"/><path class="point" transform="translate(207.73,228.22)" d="M3.18,0A3.18,3.18 0 1,1 0,-3.18A3.18,3.18 0 0,1 3.18,0Z" style="opacity: 0.7; stroke-width: 2px; fill: rgb(255, 127, 14); fill-opacity: 1; stroke: rgb(255, 255, 255); stroke-opacity: 1;"/><path class="point" transform="translate(207.73,199.84)" d="M2.78,0A2.78,2.78 0 1,1 0,-2.78A2.78,2.78 0 0,1 2.78,0Z" style="opacity: 0.7; stroke-width: 2px; fill: rgb(255, 127, 14); fill-opacity: 1; stroke: rgb(255, 255, 255); stroke-opacity: 1;"/><path class="point" transform="translate(207.73,171.47)" d="M0.93,0A0.93,0.93 0 1,1 0,-0.93A0.93,0.93 0 0,1 0.93,0Z" style="opacity: 0.7; stroke-width: 2px; fill: rgb(255, 127, 14); fill-opacity: 1; stroke: rgb(255, 255, 255); stroke-opacity: 1;"/><path class="point" transform="translate(207.73,143.09)" d="M1.59,0A1.59,1.59 0 1,1 0,-1.59A1.59,1.59 0 0,1 1.59,0Z" style="opacity: 0.7; stroke-width: 2px; fill: rgb(255, 127, 14); fill-opacity: 1; stroke: rgb(255, 255, 255); stroke-opacity: 1;"/><path class="point" transform="translate(207.73,114.71)" d="M0.8,0A0.8,0.8 0 1,1 0,-0.8A0.8,0.8 0 0,1 0.8,0Z" style="opacity: 0.7; stroke-width: 2px; fill: rgb(255, 127, 14); fill-opacity: 1; stroke: rgb(255, 255, 255); stroke-opacity: 1;"/><path class="point" transform="translate(207.73,86.34)" d="M1.59,0A1.59,1.59 0 1,1 0,-1.59A1.59,1.59 0 0,1 1.59,0Z" style="opacity: 0.7; stroke-width: 2px; fill: rgb(255, 127, 14); fill-opacity: 1; stroke: rgb(255, 255, 255); stroke-opacity: 1;"/><path class="point" transform="translate(207.73,57.96)" d="M3.71,0A3.71,3.71 0 1,1 0,-3.71A3.71,3.71 0 0,1 3.71,0Z" style="opacity: 0.7; stroke-width: 2px; fill: rgb(255, 127, 14); fill-opacity: 1; stroke: rgb(255, 255, 255); stroke-opacity: 1;"/></g><g class="text"/></g></g></g><g class="overplot"/><path class="xlines-above crisp" d="M0,0" style="fill: none;"/><path class="ylines-above crisp" d="M0,0" style="fill: none;"/><g class="overlines-above"/><g class="xaxislayer-above"><g class="xtick"><text text-anchor="middle" x="0" y="1133" transform="translate(281.7,0)" style="font-family: 'Open Sans', verdana, arial, sans-serif; font-size: 12px; fill: rgb(42, 63, 95); fill-opacity: 1; white-space: pre; opacity: 1;">BAR_Set_percentage</text></g><g class="xtick"><text text-anchor="middle" x="0" y="1133" transform="translate(461.73,0)" style="font-family: 'Open Sans', verdana, arial, sans-serif; font-size: 12px; fill: rgb(42, 63, 95); fill-opacity: 1; white-space: pre; opacity: 1;">NBR_Set_percentage</text></g></g><g class="yaxislayer-above"><g class="ytick"><text text-anchor="end" x="253" y="4.199999999999999" transform="translate(0,1066)" style="font-family: 'Open Sans', verdana, arial, sans-serif; font-size: 12px; fill: rgb(42, 63, 95); fill-opacity: 1; white-space: pre; opacity: 1;">Acetoin catabolism</text></g><g class="ytick"><text text-anchor="end" x="253" y="4.199999999999999" transform="translate(0,1037.62)" style="font-family: 'Open Sans', verdana, arial, sans-serif; font-size: 12px; fill: rgb(42, 63, 95); fill-opacity: 1; white-space: pre; opacity: 1;">Alcohol/aromatics catabolism</text></g><g class="ytick"><text text-anchor="end" x="253" y="4.199999999999999" transform="translate(0,1009.25)" style="font-family: 'Open Sans', verdana, arial, sans-serif; font-size: 12px; fill: rgb(42, 63, 95); fill-opacity: 1; white-space: pre; opacity: 1;">Alginate biosynthesis</text></g><g class="ytick"><text text-anchor="end" x="253" y="4.199999999999999" transform="translate(0,980.87)" style="font-family: 'Open Sans', verdana, arial, sans-serif; font-size: 12px; fill: rgb(42, 63, 95); fill-opacity: 1; white-space: pre; opacity: 1;">Amino acid transportation</text></g><g class="ytick"><text text-anchor="end" x="253" y="4.199999999999999" transform="translate(0,952.5)" style="font-family: 'Open Sans', verdana, arial, sans-serif; font-size: 12px; fill: rgb(42, 63, 95); fill-opacity: 1; white-space: pre; opacity: 1;">Aromatic acid catabolism</text></g><g class="ytick"><text text-anchor="end" x="253" y="4.199999999999999" transform="translate(0,924.12)" style="font-family: 'Open Sans', verdana, arial, sans-serif; font-size: 12px; fill: rgb(42, 63, 95); fill-opacity: 1; white-space: pre; opacity: 1;">C2 carbon metabolism</text></g><g class="ytick"><text text-anchor="end" x="253" y="4.199999999999999" transform="translate(0,895.74)" style="font-family: 'Open Sans', verdana, arial, sans-serif; font-size: 12px; fill: rgb(42, 63, 95); fill-opacity: 1; white-space: pre; opacity: 1;">Citrate transportation</text></g><g class="ytick"><text text-anchor="end" x="253" y="4.199999999999999" transform="translate(0,867.37)" style="font-family: 'Open Sans', verdana, arial, sans-serif; font-size: 12px; fill: rgb(42, 63, 95); fill-opacity: 1; white-space: pre; opacity: 1;">Fatty acid catabolism</text></g><g class="ytick"><text text-anchor="end" x="253" y="4.199999999999999" transform="translate(0,838.99)" style="font-family: 'Open Sans', verdana, arial, sans-serif; font-size: 12px; fill: rgb(42, 63, 95); fill-opacity: 1; white-space: pre; opacity: 1;">Galactose ALE specific</text></g><g class="ytick"><text text-anchor="end" x="253" y="4.199999999999999" transform="translate(0,810.61)" style="font-family: 'Open Sans', verdana, arial, sans-serif; font-size: 12px; fill: rgb(42, 63, 95); fill-opacity: 1; white-space: pre; opacity: 1;">Glycine Betaine Catabolism</text></g><g class="ytick"><text text-anchor="end" x="253" y="4.199999999999999" transform="translate(0,782.24)" style="font-family: 'Open Sans', verdana, arial, sans-serif; font-size: 12px; fill: rgb(42, 63, 95); fill-opacity: 1; white-space: pre; opacity: 1;">Glycine metabolism</text></g><g class="ytick"><text text-anchor="end" x="253" y="4.199999999999999" transform="translate(0,753.86)" style="font-family: 'Open Sans', verdana, arial, sans-serif; font-size: 12px; fill: rgb(42, 63, 95); fill-opacity: 1; white-space: pre; opacity: 1;">Histidine metabolism</text></g><g class="ytick"><text text-anchor="end" x="253" y="4.199999999999999" transform="translate(0,725.49)" style="font-family: 'Open Sans', verdana, arial, sans-serif; font-size: 12px; fill: rgb(42, 63, 95); fill-opacity: 1; white-space: pre; opacity: 1;">Metal related response</text></g><g class="ytick"><text text-anchor="end" x="253" y="4.199999999999999" transform="translate(0,697.11)" style="font-family: 'Open Sans', verdana, arial, sans-serif; font-size: 12px; fill: rgb(42, 63, 95); fill-opacity: 1; white-space: pre; opacity: 1;">Muconate production study</text></g><g class="ytick"><text text-anchor="end" x="253" y="4.199999999999999" transform="translate(0,668.73)" style="font-family: 'Open Sans', verdana, arial, sans-serif; font-size: 12px; fill: rgb(42, 63, 95); fill-opacity: 1; white-space: pre; opacity: 1;">Multiple stress response</text></g><g class="ytick"><text text-anchor="end" x="253" y="4.199999999999999" transform="translate(0,640.36)" style="font-family: 'Open Sans', verdana, arial, sans-serif; font-size: 12px; fill: rgb(42, 63, 95); fill-opacity: 1; white-space: pre; opacity: 1;">Noise, PP_0943, hypothetical protein, 393 bp</text></g><g class="ytick"><text text-anchor="end" x="253" y="4.199999999999999" transform="translate(0,611.98)" style="font-family: 'Open Sans', verdana, arial, sans-serif; font-size: 12px; fill: rgb(42, 63, 95); fill-opacity: 1; white-space: pre; opacity: 1;">Null</text></g><g class="ytick"><text text-anchor="end" x="253" y="4.199999999999999" transform="translate(0,583.6)" style="font-family: 'Open Sans', verdana, arial, sans-serif; font-size: 12px; fill: rgb(42, 63, 95); fill-opacity: 1; white-space: pre; opacity: 1;">Osmotic stress response</text></g><g class="ytick"><text text-anchor="end" x="253" y="4.199999999999999" transform="translate(0,555.23)" style="font-family: 'Open Sans', verdana, arial, sans-serif; font-size: 12px; fill: rgb(42, 63, 95); fill-opacity: 1; white-space: pre; opacity: 1;">Oxidative stress</text></g><g class="ytick"><text text-anchor="end" x="253" y="4.199999999999999" transform="translate(0,526.85)" style="font-family: 'Open Sans', verdana, arial, sans-serif; font-size: 12px; fill: rgb(42, 63, 95); fill-opacity: 1; white-space: pre; opacity: 1;">Pentose and glucuronate interconversions</text></g><g class="ytick"><text text-anchor="end" x="253" y="4.199999999999999" transform="translate(0,498.48)" style="font-family: 'Open Sans', verdana, arial, sans-serif; font-size: 12px; fill: rgb(42, 63, 95); fill-opacity: 1; white-space: pre; opacity: 1;">Polyamine metabolism</text></g><g class="ytick"><text text-anchor="end" x="253" y="4.199999999999999" transform="translate(0,470.1)" style="font-family: 'Open Sans', verdana, arial, sans-serif; font-size: 12px; fill: rgb(42, 63, 95); fill-opacity: 1; white-space: pre; opacity: 1;">Protein synthesis</text></g><g class="ytick"><text text-anchor="end" x="253" y="4.199999999999999" transform="translate(0,441.72)" style="font-family: 'Open Sans', verdana, arial, sans-serif; font-size: 12px; fill: rgb(42, 63, 95); fill-opacity: 1; white-space: pre; opacity: 1;">Pyoverdine biosynthesis</text></g><g class="ytick"><text text-anchor="end" x="253" y="4.199999999999999" transform="translate(0,413.35)" style="font-family: 'Open Sans', verdana, arial, sans-serif; font-size: 12px; fill: rgb(42, 63, 95); fill-opacity: 1; white-space: pre; opacity: 1;">Redox state homeostasis</text></g><g class="ytick"><text text-anchor="end" x="253" y="4.199999999999999" transform="translate(0,384.97)" style="font-family: 'Open Sans', verdana, arial, sans-serif; font-size: 12px; fill: rgb(42, 63, 95); fill-opacity: 1; white-space: pre; opacity: 1;">Ribose and lipid catabolism</text></g><g class="ytick"><text text-anchor="end" x="253" y="4.199999999999999" transform="translate(0,356.59)" style="font-family: 'Open Sans', verdana, arial, sans-serif; font-size: 12px; fill: rgb(42, 63, 95); fill-opacity: 1; white-space: pre; opacity: 1;">Ribose, nicotinic acid catabolism</text></g><g class="ytick"><text text-anchor="end" x="253" y="4.199999999999999" transform="translate(0,328.22)" style="font-family: 'Open Sans', verdana, arial, sans-serif; font-size: 12px; fill: rgb(42, 63, 95); fill-opacity: 1; white-space: pre; opacity: 1;">Starvation response</text></g><g class="ytick"><text text-anchor="end" x="253" y="4.199999999999999" transform="translate(0,299.84000000000003)" style="font-family: 'Open Sans', verdana, arial, sans-serif; font-size: 12px; fill: rgb(42, 63, 95); fill-opacity: 1; white-space: pre; opacity: 1;">Stationary phase response</text></g><g class="ytick"><text text-anchor="end" x="253" y="4.199999999999999" transform="translate(0,271.47)" style="font-family: 'Open Sans', verdana, arial, sans-serif; font-size: 12px; fill: rgb(42, 63, 95); fill-opacity: 1; white-space: pre; opacity: 1;">Sugar catabolism</text></g><g class="ytick"><text text-anchor="end" x="253" y="4.199999999999999" transform="translate(0,243.09)" style="font-family: 'Open Sans', verdana, arial, sans-serif; font-size: 12px; fill: rgb(42, 63, 95); fill-opacity: 1; white-space: pre; opacity: 1;">Sulfur metabolism</text></g><g class="ytick"><text text-anchor="end" x="253" y="4.199999999999999" transform="translate(0,214.70999999999998)" style="font-family: 'Open Sans', verdana, arial, sans-serif; font-size: 12px; fill: rgb(42, 63, 95); fill-opacity: 1; white-space: pre; opacity: 1;">TCA cycle</text></g><g class="ytick"><text text-anchor="end" x="253" y="4.199999999999999" transform="translate(0,186.34)" style="font-family: 'Open Sans', verdana, arial, sans-serif; font-size: 12px; fill: rgb(42, 63, 95); fill-opacity: 1; white-space: pre; opacity: 1;">Translation</text></g><g class="ytick"><text text-anchor="end" x="253" y="4.199999999999999" transform="translate(0,157.96)" style="font-family: 'Open Sans', verdana, arial, sans-serif; font-size: 12px; fill: rgb(42, 63, 95); fill-opacity: 1; white-space: pre; opacity: 1;">Unknown</text></g></g><g class="overaxes-above"/></g></g><g class="polarlayer"/><g class="smithlayer"/><g class="ternarylayer"/><g class="geolayer"/><g class="funnelarealayer"/><g class="pielayer"/><g class="iciclelayer"/><g class="treemaplayer"/><g class="sunburstlayer"/><g class="glimages"/><defs id="topdefs-530aef"><g class="clips"/></defs><g class="layer-above"><g class="imagelayer"/><g class="shapelayer"/></g><g class="infolayer"><g class="g-gtitle"><text class="gtitle" x="310.20000000000005" y="60" text-anchor="middle" dy="0.7em" style="font-family: 'Open Sans', verdana, arial, sans-serif; font-size: 16px; fill: rgb(42, 63, 95); opacity: 1; font-weight: normal; white-space: pre;">Percentage of iModulon functions in BARs &amp; NBRs</text></g><g class="g-xtitle"/><g class="g-ytitle"/></g></svg>