<svg class="main-svg" xmlns="http://www.w3.org/2000/svg" xmlns:xlink="http://www.w3.org/1999/xlink" width="1000" height="800" style="" viewBox="0 0 1000 800"><rect x="0" y="0" width="1000" height="800" style="fill: rgb(255, 255, 255); fill-opacity: 1;"/><defs id="defs-1cad45"><g class="clips"><clipPath id="clip1cad45xyplot" class="plotclip"><rect width="770" height="680"/></clipPath><clipPath class="axesclip" id="clip1cad45x"><rect x="150" y="0" width="770" height="800"/></clipPath><clipPath class="axesclip" id="clip1cad45y"><rect x="0" y="40" width="1000" height="680"/></clipPath><clipPath class="axesclip" id="clip1cad45xy"><rect x="150" y="40" width="770" height="680"/></clipPath></g><g class="gradients"/><g class="patterns"/></defs><g class="bglayer"><rect class="bg" x="150" y="40" width="770" height="680" style="fill: rgb(255, 255, 255); fill-opacity: 1; stroke-width: 0;"/></g><g class="layer-below"><g class="imagelayer"/><g class="shapelayer"/></g><g class="cartesianlayer"><g class="subplot xy"><g class="layer-subplot"><g class="shapelayer"/><g class="imagelayer"/></g><g class="minor-gridlayer"><g class="x"/><g class="y"/></g><g class="gridlayer"><g class="x"/><g class="y"><path class="ygrid crisp" transform="translate(0,668.14)" d="M150,0h770" style="stroke: rgb(255, 255, 255); stroke-opacity: 1; stroke-width: 1px;"/><path class="ygrid crisp" transform="translate(0,585.81)" d="M150,0h770" style="stroke: rgb(255, 255, 255); stroke-opacity: 1; stroke-width: 1px;"/><path class="ygrid crisp" transform="translate(0,503.49)" d="M150,0h770" style="stroke: rgb(255, 255, 255); stroke-opacity: 1; stroke-width: 1px;"/><path class="ygrid crisp" transform="translate(0,421.16)" d="M150,0h770" style="stroke: rgb(255, 255, 255); stroke-opacity: 1; stroke-width: 1px;"/><path class="ygrid crisp" transform="translate(0,338.84)" d="M150,0h770" style="stroke: rgb(255, 255, 255); stroke-opacity: 1; stroke-width: 1px;"/><path class="ygrid crisp" transform="translate(0,256.51)" d="M150,0h770" style="stroke: rgb(255, 255, 255); stroke-opacity: 1; stroke-width: 1px;"/><path class="ygrid crisp" transform="translate(0,174.19)" d="M150,0h770" style="stroke: rgb(255, 255, 255); stroke-opacity: 1; stroke-width: 1px;"/><path class="ygrid crisp" transform="translate(0,91.86)" d="M150,0h770" style="stroke: rgb(255, 255, 255); stroke-opacity: 1; stroke-width: 1px;"/></g></g><g class="zerolinelayer"/><path class="xlines-below"/><path class="ylines-below"/><g class="overlines-below"/><g class="xaxislayer-below"/><g class="yaxislayer-below"/><g class="overaxes-below"/><g class="plot" transform="translate(150,40)" clip-path="url(#clip1cad45xyplot)"><g class="barlayer mlayer"><g class="trace bars" style="opacity: 1;"><g class="points"><g class="point"><path d="M543.92,298.84V51.86H597.12V298.84Z" style="vector-effect: non-scaling-stroke; opacity: 1; stroke-width: 0.5px; fill: rgb(0, 0, 0); fill-opacity: 1; stroke: rgb(229, 236, 246); stroke-opacity: 1;"/><text class="bartext bartext-outside" text-anchor="middle" data-notex="1" x="0" y="0" style="font-family: 'Open Sans', verdana, arial, sans-serif; font-size: 12px; fill: rgb(42, 63, 95); fill-opacity: 1; white-space: pre;" transform="translate(570.3559375,45.86)">3</text></g><g class="point"><path d="M610.41,298.84V134.19H663.61V298.84Z" style="vector-effect: non-scaling-stroke; opacity: 1; stroke-width: 0.5px; fill: rgb(0, 0, 0); fill-opacity: 1; stroke: rgb(229, 236, 246); stroke-opacity: 1;"/><text class="bartext bartext-outside" text-anchor="middle" data-notex="1" x="0" y="0" style="font-family: 'Open Sans', verdana, arial, sans-serif; font-size: 12px; fill: rgb(42, 63, 95); fill-opacity: 1; white-space: pre;" transform="translate(636.8459375,128.19)">2</text></g><g class="point"><path d="M676.91,298.84V216.51H730.1V298.84Z" style="vector-effect: non-scaling-stroke; opacity: 1; stroke-width: 0.5px; fill: rgb(0, 0, 0); fill-opacity: 1; stroke: rgb(229, 236, 246); stroke-opacity: 1;"/><text class="bartext bartext-outside" text-anchor="middle" data-notex="1" x="0" y="0" style="font-family: 'Open Sans', verdana, arial, sans-serif; font-size: 12px; fill: rgb(42, 63, 95); fill-opacity: 1; white-space: pre;" transform="translate(703.3409375,210.51)">1</text></g></g></g></g><g class="scatterlayer mlayer"><g class="trace scatter trace166c4f" style="stroke-miterlimit: 2; opacity: 1;"><g class="fills"/><g class="errorbars"/><g class="lines"/><g class="points"><path class="point" transform="translate(570.52,326)" d="M11.9,0A11.9,11.9 0 1,1 0,-11.9A11.9,11.9 0 0,1 11.9,0Z" style="opacity: 1; stroke-width: 0px; fill: rgb(201, 201, 201); fill-opacity: 1;"/><path class="point" transform="translate(570.52,364.81)" d="M11.9,0A11.9,11.9 0 1,1 0,-11.9A11.9,11.9 0 0,1 11.9,0Z" style="opacity: 1; stroke-width: 0px; fill: rgb(201, 201, 201); fill-opacity: 1;"/><path class="point" transform="translate(570.52,403.63)" d="M11.9,0A11.9,11.9 0 1,1 0,-11.9A11.9,11.9 0 0,1 11.9,0Z" style="opacity: 1; stroke-width: 0px; fill: rgb(201, 201, 201); fill-opacity: 1;"/><path class="point" transform="translate(570.52,442.44)" d="M11.9,0A11.9,11.9 0 1,1 0,-11.9A11.9,11.9 0 0,1 11.9,0Z" style="opacity: 1; stroke-width: 0px; fill: rgb(201, 201, 201); fill-opacity: 1;"/><path class="point" transform="translate(570.52,481.25)" d="M11.9,0A11.9,11.9 0 1,1 0,-11.9A11.9,11.9 0 0,1 11.9,0Z" style="opacity: 1; stroke-width: 0px; fill: rgb(201, 201, 201); fill-opacity: 1;"/><path class="point" transform="translate(570.52,520.06)" d="M11.9,0A11.9,11.9 0 1,1 0,-11.9A11.9,11.9 0 0,1 11.9,0Z" style="opacity: 1; stroke-width: 0px; fill: rgb(201, 201, 201); fill-opacity: 1;"/><path class="point" transform="translate(570.52,558.87)" d="M11.9,0A11.9,11.9 0 1,1 0,-11.9A11.9,11.9 0 0,1 11.9,0Z" style="opacity: 1; stroke-width: 0px; fill: rgb(201, 201, 201); fill-opacity: 1;"/><path class="point" transform="translate(637.01,326)" d="M11.9,0A11.9,11.9 0 1,1 0,-11.9A11.9,11.9 0 0,1 11.9,0Z" style="opacity: 1; stroke-width: 0px; fill: rgb(201, 201, 201); fill-opacity: 1;"/><path class="point" transform="translate(637.01,364.81)" d="M11.9,0A11.9,11.9 0 1,1 0,-11.9A11.9,11.9 0 0,1 11.9,0Z" style="opacity: 1; stroke-width: 0px; fill: rgb(201, 201, 201); fill-opacity: 1;"/><path class="point" transform="translate(637.01,403.63)" d="M11.9,0A11.9,11.9 0 1,1 0,-11.9A11.9,11.9 0 0,1 11.9,0Z" style="opacity: 1; stroke-width: 0px; fill: rgb(201, 201, 201); fill-opacity: 1;"/><path class="point" transform="translate(637.01,442.44)" d="M11.9,0A11.9,11.9 0 1,1 0,-11.9A11.9,11.9 0 0,1 11.9,0Z" style="opacity: 1; stroke-width: 0px; fill: rgb(201, 201, 201); fill-opacity: 1;"/><path class="point" transform="translate(637.01,481.25)" d="M11.9,0A11.9,11.9 0 1,1 0,-11.9A11.9,11.9 0 0,1 11.9,0Z" style="opacity: 1; stroke-width: 0px; fill: rgb(201, 201, 201); fill-opacity: 1;"/><path class="point" transform="translate(637.01,520.06)" d="M11.9,0A11.9,11.9 0 1,1 0,-11.9A11.9,11.9 0 0,1 11.9,0Z" style="opacity: 1; stroke-width: 0px; fill: rgb(201, 201, 201); fill-opacity: 1;"/><path class="point" transform="translate(637.01,558.87)" d="M11.9,0A11.9,11.9 0 1,1 0,-11.9A11.9,11.9 0 0,1 11.9,0Z" style="opacity: 1; stroke-width: 0px; fill: rgb(201, 201, 201); fill-opacity: 1;"/><path class="point" transform="translate(703.51,326)" d="M11.9,0A11.9,11.9 0 1,1 0,-11.9A11.9,11.9 0 0,1 11.9,0Z" style="opacity: 1; stroke-width: 0px; fill: rgb(201, 201, 201); fill-opacity: 1;"/><path class="point" transform="translate(703.51,364.81)" d="M11.9,0A11.9,11.9 0 1,1 0,-11.9A11.9,11.9 0 0,1 11.9,0Z" style="opacity: 1; stroke-width: 0px; fill: rgb(201, 201, 201); fill-opacity: 1;"/><path class="point" transform="translate(703.51,403.63)" d="M11.9,0A11.9,11.9 0 1,1 0,-11.9A11.9,11.9 0 0,1 11.9,0Z" style="opacity: 1; stroke-width: 0px; fill: rgb(201, 201, 201); fill-opacity: 1;"/><path class="point" transform="translate(703.51,442.44)" d="M11.9,0A11.9,11.9 0 1,1 0,-11.9A11.9,11.9 0 0,1 11.9,0Z" style="opacity: 1; stroke-width: 0px; fill: rgb(201, 201, 201); fill-opacity: 1;"/><path class="point" transform="translate(703.51,481.25)" d="M11.9,0A11.9,11.9 0 1,1 0,-11.9A11.9,11.9 0 0,1 11.9,0Z" style="opacity: 1; stroke-width: 0px; fill: rgb(201, 201, 201); fill-opacity: 1;"/><path class="point" transform="translate(703.51,520.06)" d="M11.9,0A11.9,11.9 0 1,1 0,-11.9A11.9,11.9 0 0,1 11.9,0Z" style="opacity: 1; stroke-width: 0px; fill: rgb(201, 201, 201); fill-opacity: 1;"/><path class="point" transform="translate(703.51,558.87)" d="M11.9,0A11.9,11.9 0 1,1 0,-11.9A11.9,11.9 0 0,1 11.9,0Z" style="opacity: 1; stroke-width: 0px; fill: rgb(201, 201, 201); fill-opacity: 1;"/></g><g class="text"/></g><g class="trace scatter trace0f1f2c" style="stroke-miterlimit: 2; opacity: 1;"><g class="fills"/><g class="errorbars"/><g class="lines"/><g class="points"><path class="point" transform="translate(570.52,326)" d="M11.9,0A11.9,11.9 0 1,1 0,-11.9A11.9,11.9 0 0,1 11.9,0Z" style="opacity: 1; stroke-width: 0px; fill: rgb(0, 0, 0); fill-opacity: 1;"/></g><g class="text"/></g><g class="trace scatter trace62a905" style="stroke-miterlimit: 2; opacity: 1;"><g class="fills"/><g class="errorbars"/><g class="lines"/><g class="points"><path class="point" transform="translate(570.52,326)" d="M11.9,0A11.9,11.9 0 1,1 0,-11.9A11.9,11.9 0 0,1 11.9,0Z" style="opacity: 1; stroke-width: 0px; fill: rgb(0, 0, 0); fill-opacity: 1;"/><path class="point" transform="translate(570.52,364.81)" d="M11.9,0A11.9,11.9 0 1,1 0,-11.9A11.9,11.9 0 0,1 11.9,0Z" style="opacity: 1; stroke-width: 0px; fill: rgb(0, 0, 0); fill-opacity: 1;"/></g><g class="text"/></g><g class="trace scatter traceeec1e9" style="stroke-miterlimit: 2; opacity: 1;"><g class="fills"/><g class="errorbars"/><g class="lines"/><g class="points"><path class="point" transform="translate(570.52,326)" d="M11.9,0A11.9,11.9 0 1,1 0,-11.9A11.9,11.9 0 0,1 11.9,0Z" style="opacity: 1; stroke-width: 0px; fill: rgb(0, 0, 0); fill-opacity: 1;"/><path class="point" transform="translate(570.52,364.81)" d="M11.9,0A11.9,11.9 0 1,1 0,-11.9A11.9,11.9 0 0,1 11.9,0Z" style="opacity: 1; stroke-width: 0px; fill: rgb(0, 0, 0); fill-opacity: 1;"/><path class="point" transform="translate(570.52,403.63)" d="M11.9,0A11.9,11.9 0 1,1 0,-11.9A11.9,11.9 0 0,1 11.9,0Z" style="opacity: 1; stroke-width: 0px; fill: rgb(0, 0, 0); fill-opacity: 1;"/></g><g class="text"/></g><g class="trace scatter tracec53353" style="stroke-miterlimit: 2; opacity: 1;"><g class="fills"/><g class="errorbars"/><g class="lines"/><g class="points"><path class="point" transform="translate(570.52,326)" d="M11.9,0A11.9,11.9 0 1,1 0,-11.9A11.9,11.9 0 0,1 11.9,0Z" style="opacity: 1; stroke-width: 0px; fill: rgb(0, 0, 0); fill-opacity: 1;"/><path class="point" transform="translate(570.52,364.81)" d="M11.9,0A11.9,11.9 0 1,1 0,-11.9A11.9,11.9 0 0,1 11.9,0Z" style="opacity: 1; stroke-width: 0px; fill: rgb(0, 0, 0); fill-opacity: 1;"/><path class="point" transform="translate(570.52,403.63)" d="M11.9,0A11.9,11.9 0 1,1 0,-11.9A11.9,11.9 0 0,1 11.9,0Z" style="opacity: 1; stroke-width: 0px; fill: rgb(0, 0, 0); fill-opacity: 1;"/><path class="point" transform="translate(570.52,442.44)" d="M11.9,0A11.9,11.9 0 1,1 0,-11.9A11.9,11.9 0 0,1 11.9,0Z" style="opacity: 1; stroke-width: 0px; fill: rgb(0, 0, 0); fill-opacity: 1;"/></g><g class="text"/></g><g class="trace scatter trace6c2663" style="stroke-miterlimit: 2; opacity: 1;"><g class="fills"/><g class="errorbars"/><g class="lines"/><g class="points"><path class="point" transform="translate(570.52,326)" d="M11.9,0A11.9,11.9 0 1,1 0,-11.9A11.9,11.9 0 0,1 11.9,0Z" style="opacity: 1; stroke-width: 0px; fill: rgb(0, 0, 0); fill-opacity: 1;"/><path class="point" transform="translate(570.52,364.81)" d="M11.9,0A11.9,11.9 0 1,1 0,-11.9A11.9,11.9 0 0,1 11.9,0Z" style="opacity: 1; stroke-width: 0px; fill: rgb(0, 0, 0); fill-opacity: 1;"/><path class="point" transform="translate(570.52,403.63)" d="M11.9,0A11.9,11.9 0 1,1 0,-11.9A11.9,11.9 0 0,1 11.9,0Z" style="opacity: 1; stroke-width: 0px; fill: rgb(0, 0, 0); fill-opacity: 1;"/><path class="point" transform="translate(570.52,442.44)" d="M11.9,0A11.9,11.9 0 1,1 0,-11.9A11.9,11.9 0 0,1 11.9,0Z" style="opacity: 1; stroke-width: 0px; fill: rgb(0, 0, 0); fill-opacity: 1;"/><path class="point" transform="translate(570.52,481.25)" d="M11.9,0A11.9,11.9 0 1,1 0,-11.9A11.9,11.9 0 0,1 11.9,0Z" style="opacity: 1; stroke-width: 0px; fill: rgb(0, 0, 0); fill-opacity: 1;"/></g><g class="text"/></g><g class="trace scatter trace1a3b69" style="stroke-miterlimit: 2; opacity: 1;"><g class="fills"/><g class="errorbars"/><g class="lines"/><g class="points"><path class="point" transform="translate(570.52,326)" d="M11.9,0A11.9,11.9 0 1,1 0,-11.9A11.9,11.9 0 0,1 11.9,0Z" style="opacity: 1; stroke-width: 0px; fill: rgb(0, 0, 0); fill-opacity: 1;"/><path class="point" transform="translate(570.52,364.81)" d="M11.9,0A11.9,11.9 0 1,1 0,-11.9A11.9,11.9 0 0,1 11.9,0Z" style="opacity: 1; stroke-width: 0px; fill: rgb(0, 0, 0); fill-opacity: 1;"/><path class="point" transform="translate(570.52,403.63)" d="M11.9,0A11.9,11.9 0 1,1 0,-11.9A11.9,11.9 0 0,1 11.9,0Z" style="opacity: 1; stroke-width: 0px; fill: rgb(0, 0, 0); fill-opacity: 1;"/><path class="point" transform="translate(570.52,442.44)" d="M11.9,0A11.9,11.9 0 1,1 0,-11.9A11.9,11.9 0 0,1 11.9,0Z" style="opacity: 1; stroke-width: 0px; fill: rgb(0, 0, 0); fill-opacity: 1;"/><path class="point" transform="translate(570.52,481.25)" d="M11.9,0A11.9,11.9 0 1,1 0,-11.9A11.9,11.9 0 0,1 11.9,0Z" style="opacity: 1; stroke-width: 0px; fill: rgb(0, 0, 0); fill-opacity: 1;"/><path class="point" transform="translate(570.52,520.06)" d="M11.9,0A11.9,11.9 0 1,1 0,-11.9A11.9,11.9 0 0,1 11.9,0Z" style="opacity: 1; stroke-width: 0px; fill: rgb(0, 0, 0); fill-opacity: 1;"/></g><g class="text"/></g><g class="trace scatter tracec3a162" style="stroke-miterlimit: 2; opacity: 1;"><g class="fills"/><g class="errorbars"/><g class="lines"/><g class="points"><path class="point" transform="translate(570.52,326)" d="M11.9,0A11.9,11.9 0 1,1 0,-11.9A11.9,11.9 0 0,1 11.9,0Z" style="opacity: 1; stroke-width: 0px; fill: rgb(0, 0, 0); fill-opacity: 1;"/><path class="point" transform="translate(570.52,364.81)" d="M11.9,0A11.9,11.9 0 1,1 0,-11.9A11.9,11.9 0 0,1 11.9,0Z" style="opacity: 1; stroke-width: 0px; fill: rgb(0, 0, 0); fill-opacity: 1;"/><path class="point" transform="translate(570.52,403.63)" d="M11.9,0A11.9,11.9 0 1,1 0,-11.9A11.9,11.9 0 0,1 11.9,0Z" style="opacity: 1; stroke-width: 0px; fill: rgb(0, 0, 0); fill-opacity: 1;"/><path class="point" transform="translate(570.52,442.44)" d="M11.9,0A11.9,11.9 0 1,1 0,-11.9A11.9,11.9 0 0,1 11.9,0Z" style="opacity: 1; stroke-width: 0px; fill: rgb(0, 0, 0); fill-opacity: 1;"/><path class="point" transform="translate(570.52,481.25)" d="M11.9,0A11.9,11.9 0 1,1 0,-11.9A11.9,11.9 0 0,1 11.9,0Z" style="opacity: 1; stroke-width: 0px; fill: rgb(0, 0, 0); fill-opacity: 1;"/><path class="point" transform="translate(570.52,520.06)" d="M11.9,0A11.9,11.9 0 1,1 0,-11.9A11.9,11.9 0 0,1 11.9,0Z" style="opacity: 1; stroke-width: 0px; fill: rgb(0, 0, 0); fill-opacity: 1;"/><path class="point" transform="translate(570.52,558.87)" d="M11.9,0A11.9,11.9 0 1,1 0,-11.9A11.9,11.9 0 0,1 11.9,0Z" style="opacity: 1; stroke-width: 0px; fill: rgb(0, 0, 0); fill-opacity: 1;"/></g><g class="text"/></g><g class="trace scatter trace4c8d97" style="stroke-miterlimit: 2; opacity: 1;"><g class="fills"/><g class="errorbars"/><g class="lines"/><g class="points"><path class="point" transform="translate(637.01,326)" d="M11.9,0A11.9,11.9 0 1,1 0,-11.9A11.9,11.9 0 0,1 11.9,0Z" style="opacity: 1; stroke-width: 0px; fill: rgb(0, 0, 0); fill-opacity: 1;"/></g><g class="text"/></g><g class="trace scatter traced627e0" style="stroke-miterlimit: 2; opacity: 1;"><g class="fills"/><g class="errorbars"/><g class="lines"/><g class="points"><path class="point" transform="translate(637.01,326)" d="M11.9,0A11.9,11.9 0 1,1 0,-11.9A11.9,11.9 0 0,1 11.9,0Z" style="opacity: 1; stroke-width: 0px; fill: rgb(0, 0, 0); fill-opacity: 1;"/><path class="point" transform="translate(637.01,364.81)" d="M11.9,0A11.9,11.9 0 1,1 0,-11.9A11.9,11.9 0 0,1 11.9,0Z" style="opacity: 1; stroke-width: 0px; fill: rgb(0, 0, 0); fill-opacity: 1;"/></g><g class="text"/></g><g class="trace scatter trace565a87" style="stroke-miterlimit: 2; opacity: 1;"><g class="fills"/><g class="errorbars"/><g class="lines"/><g class="points"><path class="point" transform="translate(637.01,326)" d="M11.9,0A11.9,11.9 0 1,1 0,-11.9A11.9,11.9 0 0,1 11.9,0Z" style="opacity: 1; stroke-width: 0px; fill: rgb(0, 0, 0); fill-opacity: 1;"/><path class="point" transform="translate(637.01,364.81)" d="M11.9,0A11.9,11.9 0 1,1 0,-11.9A11.9,11.9 0 0,1 11.9,0Z" style="opacity: 1; stroke-width: 0px; fill: rgb(0, 0, 0); fill-opacity: 1;"/><path class="point" transform="translate(637.01,442.44)" d="M11.9,0A11.9,11.9 0 1,1 0,-11.9A11.9,11.9 0 0,1 11.9,0Z" style="opacity: 1; stroke-width: 0px; fill: rgb(0, 0, 0); fill-opacity: 1;"/></g><g class="text"/></g><g class="trace scatter trace73d41e" style="stroke-miterlimit: 2; opacity: 1;"><g class="fills"/><g class="errorbars"/><g class="lines"/><g class="points"><path class="point" transform="translate(637.01,326)" d="M11.9,0A11.9,11.9 0 1,1 0,-11.9A11.9,11.9 0 0,1 11.9,0Z" style="opacity: 1; stroke-width: 0px; fill: rgb(0, 0, 0); fill-opacity: 1;"/><path class="point" transform="translate(637.01,364.81)" d="M11.9,0A11.9,11.9 0 1,1 0,-11.9A11.9,11.9 0 0,1 11.9,0Z" style="opacity: 1; stroke-width: 0px; fill: rgb(0, 0, 0); fill-opacity: 1;"/><path class="point" transform="translate(637.01,442.44)" d="M11.9,0A11.9,11.9 0 1,1 0,-11.9A11.9,11.9 0 0,1 11.9,0Z" style="opacity: 1; stroke-width: 0px; fill: rgb(0, 0, 0); fill-opacity: 1;"/><path class="point" transform="translate(637.01,520.06)" d="M11.9,0A11.9,11.9 0 1,1 0,-11.9A11.9,11.9 0 0,1 11.9,0Z" style="opacity: 1; stroke-width: 0px; fill: rgb(0, 0, 0); fill-opacity: 1;"/></g><g class="text"/></g><g class="trace scatter trace2eb487" style="stroke-miterlimit: 2; opacity: 1;"><g class="fills"/><g class="errorbars"/><g class="lines"/><g class="points"><path class="point" transform="translate(637.01,326)" d="M11.9,0A11.9,11.9 0 1,1 0,-11.9A11.9,11.9 0 0,1 11.9,0Z" style="opacity: 1; stroke-width: 0px; fill: rgb(0, 0, 0); fill-opacity: 1;"/><path class="point" transform="translate(637.01,364.81)" d="M11.9,0A11.9,11.9 0 1,1 0,-11.9A11.9,11.9 0 0,1 11.9,0Z" style="opacity: 1; stroke-width: 0px; fill: rgb(0, 0, 0); fill-opacity: 1;"/><path class="point" transform="translate(637.01,442.44)" d="M11.9,0A11.9,11.9 0 1,1 0,-11.9A11.9,11.9 0 0,1 11.9,0Z" style="opacity: 1; stroke-width: 0px; fill: rgb(0, 0, 0); fill-opacity: 1;"/><path class="point" transform="translate(637.01,520.06)" d="M11.9,0A11.9,11.9 0 1,1 0,-11.9A11.9,11.9 0 0,1 11.9,0Z" style="opacity: 1; stroke-width: 0px; fill: rgb(0, 0, 0); fill-opacity: 1;"/><path class="point" transform="translate(637.01,558.87)" d="M11.9,0A11.9,11.9 0 1,1 0,-11.9A11.9,11.9 0 0,1 11.9,0Z" style="opacity: 1; stroke-width: 0px; fill: rgb(0, 0, 0); fill-opacity: 1;"/></g><g class="text"/></g><g class="trace scatter trace73e3fe" style="stroke-miterlimit: 2; opacity: 1;"><g class="fills"/><g class="errorbars"/><g class="lines"/><g class="points"><path class="point" transform="translate(703.51,326)" d="M11.9,0A11.9,11.9 0 1,1 0,-11.9A11.9,11.9 0 0,1 11.9,0Z" style="opacity: 1; stroke-width: 0px; fill: rgb(0, 0, 0); fill-opacity: 1;"/></g><g class="text"/></g><g class="trace scatter trace1e3237" style="stroke-miterlimit: 2; opacity: 1;"><g class="fills"/><g class="errorbars"/><g class="lines"/><g class="points"><path class="point" transform="translate(703.51,326)" d="M11.9,0A11.9,11.9 0 1,1 0,-11.9A11.9,11.9 0 0,1 11.9,0Z" style="opacity: 1; stroke-width: 0px; fill: rgb(0, 0, 0); fill-opacity: 1;"/><path class="point" transform="translate(703.51,364.81)" d="M11.9,0A11.9,11.9 0 1,1 0,-11.9A11.9,11.9 0 0,1 11.9,0Z" style="opacity: 1; stroke-width: 0px; fill: rgb(0, 0, 0); fill-opacity: 1;"/></g><g class="text"/></g><g class="trace scatter trace6c192a" style="stroke-miterlimit: 2; opacity: 1;"><g class="fills"/><g class="errorbars"/><g class="lines"/><g class="points"><path class="point" transform="translate(703.51,326)" d="M11.9,0A11.9,11.9 0 1,1 0,-11.9A11.9,11.9 0 0,1 11.9,0Z" style="opacity: 1; stroke-width: 0px; fill: rgb(0, 0, 0); fill-opacity: 1;"/><path class="point" transform="translate(703.51,364.81)" d="M11.9,0A11.9,11.9 0 1,1 0,-11.9A11.9,11.9 0 0,1 11.9,0Z" style="opacity: 1; stroke-width: 0px; fill: rgb(0, 0, 0); fill-opacity: 1;"/><path class="point" transform="translate(703.51,442.44)" d="M11.9,0A11.9,11.9 0 1,1 0,-11.9A11.9,11.9 0 0,1 11.9,0Z" style="opacity: 1; stroke-width: 0px; fill: rgb(0, 0, 0); fill-opacity: 1;"/></g><g class="text"/></g><g class="trace scatter trace3bb1f6" style="stroke-miterlimit: 2; opacity: 1;"><g class="fills"/><g class="errorbars"/><g class="lines"/><g class="points"><path class="point" transform="translate(703.51,326)" d="M11.9,0A11.9,11.9 0 1,1 0,-11.9A11.9,11.9 0 0,1 11.9,0Z" style="opacity: 1; stroke-width: 0px; fill: rgb(0, 0, 0); fill-opacity: 1;"/><path class="point" transform="translate(703.51,364.81)" d="M11.9,0A11.9,11.9 0 1,1 0,-11.9A11.9,11.9 0 0,1 11.9,0Z" style="opacity: 1; stroke-width: 0px; fill: rgb(0, 0, 0); fill-opacity: 1;"/><path class="point" transform="translate(703.51,442.44)" d="M11.9,0A11.9,11.9 0 1,1 0,-11.9A11.9,11.9 0 0,1 11.9,0Z" style="opacity: 1; stroke-width: 0px; fill: rgb(0, 0, 0); fill-opacity: 1;"/><path class="point" transform="translate(703.51,481.25)" d="M11.9,0A11.9,11.9 0 1,1 0,-11.9A11.9,11.9 0 0,1 11.9,0Z" style="opacity: 1; stroke-width: 0px; fill: rgb(0, 0, 0); fill-opacity: 1;"/></g><g class="text"/></g><g class="trace scatter trace49bad3" style="stroke-miterlimit: 2; opacity: 1;"><g class="fills"/><g class="errorbars"/><g class="lines"/><g class="points"><path class="point" transform="translate(703.51,326)" d="M11.9,0A11.9,11.9 0 1,1 0,-11.9A11.9,11.9 0 0,1 11.9,0Z" style="opacity: 1; stroke-width: 0px; fill: rgb(0, 0, 0); fill-opacity: 1;"/><path class="point" transform="translate(703.51,364.81)" d="M11.9,0A11.9,11.9 0 1,1 0,-11.9A11.9,11.9 0 0,1 11.9,0Z" style="opacity: 1; stroke-width: 0px; fill: rgb(0, 0, 0); fill-opacity: 1;"/><path class="point" transform="translate(703.51,442.44)" d="M11.9,0A11.9,11.9 0 1,1 0,-11.9A11.9,11.9 0 0,1 11.9,0Z" style="opacity: 1; stroke-width: 0px; fill: rgb(0, 0, 0); fill-opacity: 1;"/><path class="point" transform="translate(703.51,481.25)" d="M11.9,0A11.9,11.9 0 1,1 0,-11.9A11.9,11.9 0 0,1 11.9,0Z" style="opacity: 1; stroke-width: 0px; fill: rgb(0, 0, 0); fill-opacity: 1;"/><path class="point" transform="translate(703.51,558.87)" d="M11.9,0A11.9,11.9 0 1,1 0,-11.9A11.9,11.9 0 0,1 11.9,0Z" style="opacity: 1; stroke-width: 0px; fill: rgb(0, 0, 0); fill-opacity: 1;"/></g><g class="text"/></g><g class="trace scatter trace9a372b" style="stroke-miterlimit: 2; opacity: 1;"><g class="fills"/><g class="errorbars"/><g class="lines"/><g class="points"/><g class="text"><g class="textpoint" transform="translate(0,3)"><text x="526.63" y="326" text-anchor="end" style="font-family: 'Open Sans', verdana, arial, sans-serif; font-size: 12px; fill: rgb(42, 63, 95); fill-opacity: 1; white-space: pre;">m9-EX_glc_e7.44-EX_h2o2_e0.5-oxidative_stress_7min_NBR-Function-1</text></g><g class="textpoint" transform="translate(0,3)"><text x="526.63" y="364.81" text-anchor="end" style="font-family: 'Open Sans', verdana, arial, sans-serif; font-size: 12px; fill: rgb(42, 63, 95); fill-opacity: 1; white-space: pre;">m9-EX_glc_e7.44-osmotic_stress_60min_NBR-Function-1</text></g><g class="textpoint" transform="translate(0,3)"><text x="526.63" y="403.63" text-anchor="end" style="font-family: 'Open Sans', verdana, arial, sans-serif; font-size: 12px; fill: rgb(42, 63, 95); fill-opacity: 1; white-space: pre;">m9-EX_glc_e7.44-osmotic_stress_7min_NBR-Function-1</text></g><g class="textpoint" transform="translate(0,3)"><text x="526.63" y="442.44" text-anchor="end" style="font-family: 'Open Sans', verdana, arial, sans-serif; font-size: 12px; fill: rgb(42, 63, 95); fill-opacity: 1; white-space: pre;">m9-EX_glc_e7.44-EX_h2o2_e0.5-oxidative_stress_60min_NBR-Function-1</text></g><g class="textpoint" transform="translate(0,3)"><text x="526.63" y="481.25" text-anchor="end" style="font-family: 'Open Sans', verdana, arial, sans-serif; font-size: 12px; fill: rgb(42, 63, 95); fill-opacity: 1; white-space: pre;">m9-EX_glc_e7.44-imipenem_7min_NBR-Function-1</text></g><g class="textpoint" transform="translate(0,3)"><text x="526.63" y="520.06" text-anchor="end" style="font-family: 'Open Sans', verdana, arial, sans-serif; font-size: 12px; fill: rgb(42, 63, 95); fill-opacity: 1; white-space: pre;">m9-EX_glc_e7.44-imipenem_60min_NBR-Function-1</text></g><g class="textpoint" transform="translate(0,3)"><text x="526.63" y="558.87" text-anchor="end" style="font-family: 'Open Sans', verdana, arial, sans-serif; font-size: 12px; fill: rgb(42, 63, 95); fill-opacity: 1; white-space: pre;">m9-EX_glc_e7.44-control_NBR-Function-1</text></g></g></g></g></g><g class="overplot"/><path class="xlines-above crisp" d="M0,0" style="fill: none;"/><path class="ylines-above crisp" d="M0,0" style="fill: none;"/><g class="overlines-above"/><g class="xaxislayer-above"/><g class="yaxislayer-above"/><g class="overaxes-above"/></g></g><g class="polarlayer"/><g class="smithlayer"/><g class="ternarylayer"/><g class="geolayer"/><g class="funnelarealayer"/><g class="pielayer"/><g class="iciclelayer"/><g class="treemaplayer"/><g class="sunburstlayer"/><g class="glimages"/><defs id="topdefs-1cad45"><g class="clips"/></defs><g class="layer-above"><g class="imagelayer"/><g class="shapelayer"/></g><g class="infolayer"><g class="g-gtitle"><text class="gtitle" x="500" y="20" text-anchor="middle" dy="0em" style="font-family: 'Open Sans', verdana, arial, sans-serif; font-size: 17px; fill: rgb(42, 63, 95); opacity: 1; font-weight: normal; white-space: pre;"><tspan style="font-weight:bold">Intersections<tspan style="font-weight:bold"></tspan></tspan></text></g><g class="g-xtitle"/><g class="g-ytitle"/></g></svg>