<svg class="main-svg" xmlns="http://www.w3.org/2000/svg" xmlns:xlink="http://www.w3.org/1999/xlink" width="600" height="1200" style="" viewBox="0 0 600 1200"><rect x="0" y="0" width="600" height="1200" style="fill: rgb(255, 255, 255); fill-opacity: 1;"/><defs id="defs-d37247"><g class="clips"><clipPath id="clipd37247xyplot" class="plotclip"><rect width="233" height="1020"/></clipPath><clipPath class="axesclip" id="clipd37247x"><rect x="287" y="0" width="233" height="1200"/></clipPath><clipPath class="axesclip" id="clipd37247y"><rect x="0" y="100" width="600" height="1020"/></clipPath><clipPath class="axesclip" id="clipd37247xy"><rect x="287" y="100" width="233" height="1020"/></clipPath></g><g class="gradients"/><g class="patterns"/></defs><g class="bglayer"><rect class="bg" x="287" y="100" width="233" height="1020" style="fill: rgb(229, 236, 246); fill-opacity: 1; stroke-width: 0;"/></g><g class="layer-below"><g class="imagelayer"/><g class="shapelayer"/></g><g class="cartesianlayer"><g class="subplot xy"><g class="layer-subplot"><g class="shapelayer"/><g class="imagelayer"/></g><g class="minor-gridlayer"><g class="x"/><g class="y"/></g><g class="gridlayer"><g class="x"><path class="xgrid crisp" transform="translate(317.74,0)" d="M0,100v1020" style="stroke: rgb(255, 255, 255); stroke-opacity: 1; stroke-width: 1px;"/><path class="xgrid crisp" transform="translate(496.56,0)" d="M0,100v1020" style="stroke: rgb(255, 255, 255); stroke-opacity: 1; stroke-width: 1px;"/></g><g class="y"><path class="ygrid crisp" transform="translate(0,1066)" d="M287,0h233" style="stroke: rgb(255, 255, 255); stroke-opacity: 1; stroke-width: 1px;"/><path class="ygrid crisp" transform="translate(0,1039.99)" d="M287,0h233" style="stroke: rgb(255, 255, 255); stroke-opacity: 1; stroke-width: 1px;"/><path class="ygrid crisp" transform="translate(0,1013.97)" d="M287,0h233" style="stroke: rgb(255, 255, 255); stroke-opacity: 1; stroke-width: 1px;"/><path class="ygrid crisp" transform="translate(0,987.96)" d="M287,0h233" style="stroke: rgb(255, 255, 255); stroke-opacity: 1; stroke-width: 1px;"/><path class="ygrid crisp" transform="translate(0,961.95)" d="M287,0h233" style="stroke: rgb(255, 255, 255); stroke-opacity: 1; stroke-width: 1px;"/><path class="ygrid crisp" transform="translate(0,935.93)" d="M287,0h233" style="stroke: rgb(255, 255, 255); stroke-opacity: 1; stroke-width: 1px;"/><path class="ygrid crisp" transform="translate(0,909.92)" d="M287,0h233" style="stroke: rgb(255, 255, 255); stroke-opacity: 1; stroke-width: 1px;"/><path class="ygrid crisp" transform="translate(0,883.91)" d="M287,0h233" style="stroke: rgb(255, 255, 255); stroke-opacity: 1; stroke-width: 1px;"/><path class="ygrid crisp" transform="translate(0,857.89)" d="M287,0h233" style="stroke: rgb(255, 255, 255); stroke-opacity: 1; stroke-width: 1px;"/><path class="ygrid crisp" transform="translate(0,831.88)" d="M287,0h233" style="stroke: rgb(255, 255, 255); stroke-opacity: 1; stroke-width: 1px;"/><path class="ygrid crisp" transform="translate(0,805.87)" d="M287,0h233" style="stroke: rgb(255, 255, 255); stroke-opacity: 1; stroke-width: 1px;"/><path class="ygrid crisp" transform="translate(0,779.85)" d="M287,0h233" style="stroke: rgb(255, 255, 255); stroke-opacity: 1; stroke-width: 1px;"/><path class="ygrid crisp" transform="translate(0,753.84)" d="M287,0h233" style="stroke: rgb(255, 255, 255); stroke-opacity: 1; stroke-width: 1px;"/><path class="ygrid crisp" transform="translate(0,727.83)" d="M287,0h233" style="stroke: rgb(255, 255, 255); stroke-opacity: 1; stroke-width: 1px;"/><path class="ygrid crisp" transform="translate(0,701.81)" d="M287,0h233" style="stroke: rgb(255, 255, 255); stroke-opacity: 1; stroke-width: 1px;"/><path class="ygrid crisp" transform="translate(0,675.8)" d="M287,0h233" style="stroke: rgb(255, 255, 255); stroke-opacity: 1; stroke-width: 1px;"/><path class="ygrid crisp" transform="translate(0,649.79)" d="M287,0h233" style="stroke: rgb(255, 255, 255); stroke-opacity: 1; stroke-width: 1px;"/><path class="ygrid crisp" transform="translate(0,623.77)" d="M287,0h233" style="stroke: rgb(255, 255, 255); stroke-opacity: 1; stroke-width: 1px;"/><path class="ygrid crisp" transform="translate(0,597.76)" d="M287,0h233" style="stroke: rgb(255, 255, 255); stroke-opacity: 1; stroke-width: 1px;"/><path class="ygrid crisp" transform="translate(0,571.75)" d="M287,0h233" style="stroke: rgb(255, 255, 255); stroke-opacity: 1; stroke-width: 1px;"/><path class="ygrid crisp" transform="translate(0,545.74)" d="M287,0h233" style="stroke: rgb(255, 255, 255); stroke-opacity: 1; stroke-width: 1px;"/><path class="ygrid crisp" transform="translate(0,519.72)" d="M287,0h233" style="stroke: rgb(255, 255, 255); stroke-opacity: 1; stroke-width: 1px;"/><path class="ygrid crisp" transform="translate(0,493.71)" d="M287,0h233" style="stroke: rgb(255, 255, 255); stroke-opacity: 1; stroke-width: 1px;"/><path class="ygrid crisp" transform="translate(0,467.7)" d="M287,0h233" style="stroke: rgb(255, 255, 255); stroke-opacity: 1; stroke-width: 1px;"/><path class="ygrid crisp" transform="translate(0,441.68)" d="M287,0h233" style="stroke: rgb(255, 255, 255); stroke-opacity: 1; stroke-width: 1px;"/><path class="ygrid crisp" transform="translate(0,415.67)" d="M287,0h233" style="stroke: rgb(255, 255, 255); stroke-opacity: 1; stroke-width: 1px;"/><path class="ygrid crisp" transform="translate(0,389.66)" d="M287,0h233" style="stroke: rgb(255, 255, 255); stroke-opacity: 1; stroke-width: 1px;"/><path class="ygrid crisp" transform="translate(0,363.64)" d="M287,0h233" style="stroke: rgb(255, 255, 255); stroke-opacity: 1; stroke-width: 1px;"/><path class="ygrid crisp" transform="translate(0,337.63)" d="M287,0h233" style="stroke: rgb(255, 255, 255); stroke-opacity: 1; stroke-width: 1px;"/><path class="ygrid crisp" transform="translate(0,311.62)" d="M287,0h233" style="stroke: rgb(255, 255, 255); stroke-opacity: 1; stroke-width: 1px;"/><path class="ygrid crisp" transform="translate(0,285.6)" d="M287,0h233" style="stroke: rgb(255, 255, 255); stroke-opacity: 1; stroke-width: 1px;"/><path class="ygrid crisp" transform="translate(0,259.59000000000003)" d="M287,0h233" style="stroke: rgb(255, 255, 255); stroke-opacity: 1; stroke-width: 1px;"/><path class="ygrid crisp" transform="translate(0,233.58)" d="M287,0h233" style="stroke: rgb(255, 255, 255); stroke-opacity: 1; stroke-width: 1px;"/><path class="ygrid crisp" transform="translate(0,207.56)" d="M287,0h233" style="stroke: rgb(255, 255, 255); stroke-opacity: 1; stroke-width: 1px;"/><path class="ygrid crisp" transform="translate(0,181.55)" d="M287,0h233" style="stroke: rgb(255, 255, 255); stroke-opacity: 1; stroke-width: 1px;"/><path class="ygrid crisp" transform="translate(0,155.54)" d="M287,0h233" style="stroke: rgb(255, 255, 255); stroke-opacity: 1; stroke-width: 1px;"/></g></g><g class="zerolinelayer"/><path class="xlines-below"/><path class="ylines-below"/><g class="overlines-below"/><g class="xaxislayer-below"/><g class="yaxislayer-below"/><g class="overaxes-below"/><g class="plot" transform="translate(287,100)" clip-path="url(#clipd37247xyplot)"><g class="scatterlayer mlayer"><g class="trace scatter tracef6f2fe" style="stroke-miterlimit: 2; opacity: 1;"><g class="fills"/><g class="errorbars"/><g class="lines"/><g class="points"><path class="point" transform="translate(30.74,966)" d="M1.35,0A1.35,1.35 0 1,1 0,-1.35A1.35,1.35 0 0,1 1.35,0Z" style="opacity: 0.7; stroke-width: 2px; fill: rgb(31, 119, 180); fill-opacity: 1; stroke: rgb(255, 255, 255); stroke-opacity: 1;"/><path class="point" transform="translate(30.74,939.99)" d="M2.4,0A2.4,2.4 0 1,1 0,-2.4A2.4,2.4 0 0,1 2.4,0Z" style="opacity: 0.7; stroke-width: 2px; fill: rgb(31, 119, 180); fill-opacity: 1; stroke: rgb(255, 255, 255); stroke-opacity: 1;"/><path class="point" transform="translate(30.74,913.97)" d="M0,0A0,0 0 1,1 0,-0A0,0 0 0,1 0,0Z" style="opacity: 0.7; stroke-width: 2px; fill: rgb(31, 119, 180); fill-opacity: 1; stroke: rgb(255, 255, 255); stroke-opacity: 1;"/><path class="point" transform="translate(30.74,887.96)" d="M1.65,0A1.65,1.65 0 1,1 0,-1.65A1.65,1.65 0 0,1 1.65,0Z" style="opacity: 0.7; stroke-width: 2px; fill: rgb(31, 119, 180); fill-opacity: 1; stroke: rgb(255, 255, 255); stroke-opacity: 1;"/><path class="point" transform="translate(30.74,861.95)" d="M2.85,0A2.85,2.85 0 1,1 0,-2.85A2.85,2.85 0 0,1 2.85,0Z" style="opacity: 0.7; stroke-width: 2px; fill: rgb(31, 119, 180); fill-opacity: 1; stroke: rgb(255, 255, 255); stroke-opacity: 1;"/><path class="point" transform="translate(30.74,835.93)" d="M15.27,0A15.27,15.27 0 1,1 0,-15.27A15.27,15.27 0 0,1 15.27,0Z" style="opacity: 0.7; stroke-width: 2px; fill: rgb(31, 119, 180); fill-opacity: 1; stroke: rgb(255, 255, 255); stroke-opacity: 1;"/><path class="point" transform="translate(30.74,809.92)" d="M1.8,0A1.8,1.8 0 1,1 0,-1.8A1.8,1.8 0 0,1 1.8,0Z" style="opacity: 0.7; stroke-width: 2px; fill: rgb(31, 119, 180); fill-opacity: 1; stroke: rgb(255, 255, 255); stroke-opacity: 1;"/><path class="point" transform="translate(30.74,783.91)" d="M0,0A0,0 0 1,1 0,-0A0,0 0 0,1 0,0Z" style="opacity: 0.7; stroke-width: 2px; fill: rgb(31, 119, 180); fill-opacity: 1; stroke: rgb(255, 255, 255); stroke-opacity: 1;"/><path class="point" transform="translate(30.74,757.89)" d="M4.04,0A4.04,4.04 0 1,1 0,-4.04A4.04,4.04 0 0,1 4.04,0Z" style="opacity: 0.7; stroke-width: 2px; fill: rgb(31, 119, 180); fill-opacity: 1; stroke: rgb(255, 255, 255); stroke-opacity: 1;"/><path class="point" transform="translate(30.74,731.88)" d="M0,0A0,0 0 1,1 0,-0A0,0 0 0,1 0,0Z" style="opacity: 0.7; stroke-width: 2px; fill: rgb(31, 119, 180); fill-opacity: 1; stroke: rgb(255, 255, 255); stroke-opacity: 1;"/><path class="point" transform="translate(30.74,705.87)" d="M3,0A3,3 0 1,1 0,-3A3,3 0 0,1 3,0Z" style="opacity: 0.7; stroke-width: 2px; fill: rgb(31, 119, 180); fill-opacity: 1; stroke: rgb(255, 255, 255); stroke-opacity: 1;"/><path class="point" transform="translate(30.74,679.85)" d="M2.25,0A2.25,2.25 0 1,1 0,-2.25A2.25,2.25 0 0,1 2.25,0Z" style="opacity: 0.7; stroke-width: 2px; fill: rgb(31, 119, 180); fill-opacity: 1; stroke: rgb(255, 255, 255); stroke-opacity: 1;"/><path class="point" transform="translate(30.74,653.84)" d="M1.35,0A1.35,1.35 0 1,1 0,-1.35A1.35,1.35 0 0,1 1.35,0Z" style="opacity: 0.7; stroke-width: 2px; fill: rgb(31, 119, 180); fill-opacity: 1; stroke: rgb(255, 255, 255); stroke-opacity: 1;"/><path class="point" transform="translate(30.74,627.83)" d="M0,0A0,0 0 1,1 0,-0A0,0 0 0,1 0,0Z" style="opacity: 0.7; stroke-width: 2px; fill: rgb(31, 119, 180); fill-opacity: 1; stroke: rgb(255, 255, 255); stroke-opacity: 1;"/><path class="point" transform="translate(30.74,601.81)" d="M1.35,0A1.35,1.35 0 1,1 0,-1.35A1.35,1.35 0 0,1 1.35,0Z" style="opacity: 0.7; stroke-width: 2px; fill: rgb(31, 119, 180); fill-opacity: 1; stroke: rgb(255, 255, 255); stroke-opacity: 1;"/><path class="point" transform="translate(30.74,575.8)" d="M0,0A0,0 0 1,1 0,-0A0,0 0 0,1 0,0Z" style="opacity: 0.7; stroke-width: 2px; fill: rgb(31, 119, 180); fill-opacity: 1; stroke: rgb(255, 255, 255); stroke-opacity: 1;"/><path class="point" transform="translate(30.74,549.79)" d="M0.6,0A0.6,0.6 0 1,1 0,-0.6A0.6,0.6 0 0,1 0.6,0Z" style="opacity: 0.7; stroke-width: 2px; fill: rgb(31, 119, 180); fill-opacity: 1; stroke: rgb(255, 255, 255); stroke-opacity: 1;"/><path class="point" transform="translate(30.74,523.77)" d="M1.2,0A1.2,1.2 0 1,1 0,-1.2A1.2,1.2 0 0,1 1.2,0Z" style="opacity: 0.7; stroke-width: 2px; fill: rgb(31, 119, 180); fill-opacity: 1; stroke: rgb(255, 255, 255); stroke-opacity: 1;"/><path class="point" transform="translate(30.74,497.76)" d="M0,0A0,0 0 1,1 0,-0A0,0 0 0,1 0,0Z" style="opacity: 0.7; stroke-width: 2px; fill: rgb(31, 119, 180); fill-opacity: 1; stroke: rgb(255, 255, 255); stroke-opacity: 1;"/><path class="point" transform="translate(30.74,471.75)" d="M1.05,0A1.05,1.05 0 1,1 0,-1.05A1.05,1.05 0 0,1 1.05,0Z" style="opacity: 0.7; stroke-width: 2px; fill: rgb(31, 119, 180); fill-opacity: 1; stroke: rgb(255, 255, 255); stroke-opacity: 1;"/><path class="point" transform="translate(30.74,445.74)" d="M2.85,0A2.85,2.85 0 1,1 0,-2.85A2.85,2.85 0 0,1 2.85,0Z" style="opacity: 0.7; stroke-width: 2px; fill: rgb(31, 119, 180); fill-opacity: 1; stroke: rgb(255, 255, 255); stroke-opacity: 1;"/><path class="point" transform="translate(30.74,419.72)" d="M1.8,0A1.8,1.8 0 1,1 0,-1.8A1.8,1.8 0 0,1 1.8,0Z" style="opacity: 0.7; stroke-width: 2px; fill: rgb(31, 119, 180); fill-opacity: 1; stroke: rgb(255, 255, 255); stroke-opacity: 1;"/><path class="point" transform="translate(30.74,393.71)" d="M6.14,0A6.14,6.14 0 1,1 0,-6.14A6.14,6.14 0 0,1 6.14,0Z" style="opacity: 0.7; stroke-width: 2px; fill: rgb(31, 119, 180); fill-opacity: 1; stroke: rgb(255, 255, 255); stroke-opacity: 1;"/><path class="point" transform="translate(30.74,367.7)" d="M3.89,0A3.89,3.89 0 1,1 0,-3.89A3.89,3.89 0 0,1 3.89,0Z" style="opacity: 0.7; stroke-width: 2px; fill: rgb(31, 119, 180); fill-opacity: 1; stroke: rgb(255, 255, 255); stroke-opacity: 1;"/><path class="point" transform="translate(30.74,341.68)" d="M3,0A3,3 0 1,1 0,-3A3,3 0 0,1 3,0Z" style="opacity: 0.7; stroke-width: 2px; fill: rgb(31, 119, 180); fill-opacity: 1; stroke: rgb(255, 255, 255); stroke-opacity: 1;"/><path class="point" transform="translate(30.74,315.67)" d="M1.95,0A1.95,1.95 0 1,1 0,-1.95A1.95,1.95 0 0,1 1.95,0Z" style="opacity: 0.7; stroke-width: 2px; fill: rgb(31, 119, 180); fill-opacity: 1; stroke: rgb(255, 255, 255); stroke-opacity: 1;"/><path class="point" transform="translate(30.74,289.66)" d="M1.5,0A1.5,1.5 0 1,1 0,-1.5A1.5,1.5 0 0,1 1.5,0Z" style="opacity: 0.7; stroke-width: 2px; fill: rgb(31, 119, 180); fill-opacity: 1; stroke: rgb(255, 255, 255); stroke-opacity: 1;"/><path class="point" transform="translate(30.74,263.64)" d="M0.9,0A0.9,0.9 0 1,1 0,-0.9A0.9,0.9 0 0,1 0.9,0Z" style="opacity: 0.7; stroke-width: 2px; fill: rgb(31, 119, 180); fill-opacity: 1; stroke: rgb(255, 255, 255); stroke-opacity: 1;"/><path class="point" transform="translate(30.74,237.63)" d="M0,0A0,0 0 1,1 0,-0A0,0 0 0,1 0,0Z" style="opacity: 0.7; stroke-width: 2px; fill: rgb(31, 119, 180); fill-opacity: 1; stroke: rgb(255, 255, 255); stroke-opacity: 1;"/><path class="point" transform="translate(30.74,211.62)" d="M1.5,0A1.5,1.5 0 1,1 0,-1.5A1.5,1.5 0 0,1 1.5,0Z" style="opacity: 0.7; stroke-width: 2px; fill: rgb(31, 119, 180); fill-opacity: 1; stroke: rgb(255, 255, 255); stroke-opacity: 1;"/><path class="point" transform="translate(30.74,185.6)" d="M2.1,0A2.1,2.1 0 1,1 0,-2.1A2.1,2.1 0 0,1 2.1,0Z" style="opacity: 0.7; stroke-width: 2px; fill: rgb(31, 119, 180); fill-opacity: 1; stroke: rgb(255, 255, 255); stroke-opacity: 1;"/><path class="point" transform="translate(30.74,159.59)" d="M0,0A0,0 0 1,1 0,-0A0,0 0 0,1 0,0Z" style="opacity: 0.7; stroke-width: 2px; fill: rgb(31, 119, 180); fill-opacity: 1; stroke: rgb(255, 255, 255); stroke-opacity: 1;"/><path class="point" transform="translate(30.74,133.58)" d="M6.29,0A6.29,6.29 0 1,1 0,-6.29A6.29,6.29 0 0,1 6.29,0Z" style="opacity: 0.7; stroke-width: 2px; fill: rgb(31, 119, 180); fill-opacity: 1; stroke: rgb(255, 255, 255); stroke-opacity: 1;"/><path class="point" transform="translate(30.74,107.56)" d="M2.1,0A2.1,2.1 0 1,1 0,-2.1A2.1,2.1 0 0,1 2.1,0Z" style="opacity: 0.7; stroke-width: 2px; fill: rgb(31, 119, 180); fill-opacity: 1; stroke: rgb(255, 255, 255); stroke-opacity: 1;"/><path class="point" transform="translate(30.74,81.55)" d="M1.8,0A1.8,1.8 0 1,1 0,-1.8A1.8,1.8 0 0,1 1.8,0Z" style="opacity: 0.7; stroke-width: 2px; fill: rgb(31, 119, 180); fill-opacity: 1; stroke: rgb(255, 255, 255); stroke-opacity: 1;"/><path class="point" transform="translate(30.74,55.54)" d="M0,0A0,0 0 1,1 0,-0A0,0 0 0,1 0,0Z" style="opacity: 0.7; stroke-width: 2px; fill: rgb(31, 119, 180); fill-opacity: 1; stroke: rgb(255, 255, 255); stroke-opacity: 1;"/></g><g class="text"/></g><g class="trace scatter traceef70b7" style="stroke-miterlimit: 2; opacity: 1;"><g class="fills"/><g class="errorbars"/><g class="lines"/><g class="points"><path class="point" transform="translate(209.56,966)" d="M2.18,0A2.18,2.18 0 1,1 0,-2.18A2.18,2.18 0 0,1 2.18,0Z" style="opacity: 0.7; stroke-width: 2px; fill: rgb(255, 127, 14); fill-opacity: 1; stroke: rgb(255, 255, 255); stroke-opacity: 1;"/><path class="point" transform="translate(209.56,939.99)" d="M9.44,0A9.44,9.44 0 1,1 0,-9.44A9.44,9.44 0 0,1 9.44,0Z" style="opacity: 0.7; stroke-width: 2px; fill: rgb(255, 127, 14); fill-opacity: 1; stroke: rgb(255, 255, 255); stroke-opacity: 1;"/><path class="point" transform="translate(209.56,913.97)" d="M2.18,0A2.18,2.18 0 1,1 0,-2.18A2.18,2.18 0 0,1 2.18,0Z" style="opacity: 0.7; stroke-width: 2px; fill: rgb(255, 127, 14); fill-opacity: 1; stroke: rgb(255, 255, 255); stroke-opacity: 1;"/><path class="point" transform="translate(209.56,887.96)" d="M0,0A0,0 0 1,1 0,-0A0,0 0 0,1 0,0Z" style="opacity: 0.7; stroke-width: 2px; fill: rgb(255, 127, 14); fill-opacity: 1; stroke: rgb(255, 255, 255); stroke-opacity: 1;"/><path class="point" transform="translate(209.56,861.95)" d="M0,0A0,0 0 1,1 0,-0A0,0 0 0,1 0,0Z" style="opacity: 0.7; stroke-width: 2px; fill: rgb(255, 127, 14); fill-opacity: 1; stroke: rgb(255, 255, 255); stroke-opacity: 1;"/><path class="point" transform="translate(209.56,835.93)" d="M0,0A0,0 0 1,1 0,-0A0,0 0 0,1 0,0Z" style="opacity: 0.7; stroke-width: 2px; fill: rgb(255, 127, 14); fill-opacity: 1; stroke: rgb(255, 255, 255); stroke-opacity: 1;"/><path class="point" transform="translate(209.56,809.92)" d="M1.45,0A1.45,1.45 0 1,1 0,-1.45A1.45,1.45 0 0,1 1.45,0Z" style="opacity: 0.7; stroke-width: 2px; fill: rgb(255, 127, 14); fill-opacity: 1; stroke: rgb(255, 255, 255); stroke-opacity: 1;"/><path class="point" transform="translate(209.56,783.91)" d="M5.81,0A5.81,5.81 0 1,1 0,-5.81A5.81,5.81 0 0,1 5.81,0Z" style="opacity: 0.7; stroke-width: 2px; fill: rgb(255, 127, 14); fill-opacity: 1; stroke: rgb(255, 255, 255); stroke-opacity: 1;"/><path class="point" transform="translate(209.56,757.89)" d="M0,0A0,0 0 1,1 0,-0A0,0 0 0,1 0,0Z" style="opacity: 0.7; stroke-width: 2px; fill: rgb(255, 127, 14); fill-opacity: 1; stroke: rgb(255, 255, 255); stroke-opacity: 1;"/><path class="point" transform="translate(209.56,731.88)" d="M1.45,0A1.45,1.45 0 1,1 0,-1.45A1.45,1.45 0 0,1 1.45,0Z" style="opacity: 0.7; stroke-width: 2px; fill: rgb(255, 127, 14); fill-opacity: 1; stroke: rgb(255, 255, 255); stroke-opacity: 1;"/><path class="point" transform="translate(209.56,705.87)" d="M3.63,0A3.63,3.63 0 1,1 0,-3.63A3.63,3.63 0 0,1 3.63,0Z" style="opacity: 0.7; stroke-width: 2px; fill: rgb(255, 127, 14); fill-opacity: 1; stroke: rgb(255, 255, 255); stroke-opacity: 1;"/><path class="point" transform="translate(209.56,679.85)" d="M0.73,0A0.73,0.73 0 1,1 0,-0.73A0.73,0.73 0 0,1 0.73,0Z" style="opacity: 0.7; stroke-width: 2px; fill: rgb(255, 127, 14); fill-opacity: 1; stroke: rgb(255, 255, 255); stroke-opacity: 1;"/><path class="point" transform="translate(209.56,653.84)" d="M1.45,0A1.45,1.45 0 1,1 0,-1.45A1.45,1.45 0 0,1 1.45,0Z" style="opacity: 0.7; stroke-width: 2px; fill: rgb(255, 127, 14); fill-opacity: 1; stroke: rgb(255, 255, 255); stroke-opacity: 1;"/><path class="point" transform="translate(209.56,627.83)" d="M1.45,0A1.45,1.45 0 1,1 0,-1.45A1.45,1.45 0 0,1 1.45,0Z" style="opacity: 0.7; stroke-width: 2px; fill: rgb(255, 127, 14); fill-opacity: 1; stroke: rgb(255, 255, 255); stroke-opacity: 1;"/><path class="point" transform="translate(209.56,601.81)" d="M1.45,0A1.45,1.45 0 1,1 0,-1.45A1.45,1.45 0 0,1 1.45,0Z" style="opacity: 0.7; stroke-width: 2px; fill: rgb(255, 127, 14); fill-opacity: 1; stroke: rgb(255, 255, 255); stroke-opacity: 1;"/><path class="point" transform="translate(209.56,575.8)" d="M2.18,0A2.18,2.18 0 1,1 0,-2.18A2.18,2.18 0 0,1 2.18,0Z" style="opacity: 0.7; stroke-width: 2px; fill: rgb(255, 127, 14); fill-opacity: 1; stroke: rgb(255, 255, 255); stroke-opacity: 1;"/><path class="point" transform="translate(209.56,549.79)" d="M1.45,0A1.45,1.45 0 1,1 0,-1.45A1.45,1.45 0 0,1 1.45,0Z" style="opacity: 0.7; stroke-width: 2px; fill: rgb(255, 127, 14); fill-opacity: 1; stroke: rgb(255, 255, 255); stroke-opacity: 1;"/><path class="point" transform="translate(209.56,523.77)" d="M2.9,0A2.9,2.9 0 1,1 0,-2.9A2.9,2.9 0 0,1 2.9,0Z" style="opacity: 0.7; stroke-width: 2px; fill: rgb(255, 127, 14); fill-opacity: 1; stroke: rgb(255, 255, 255); stroke-opacity: 1;"/><path class="point" transform="translate(209.56,497.76)" d="M1.45,0A1.45,1.45 0 1,1 0,-1.45A1.45,1.45 0 0,1 1.45,0Z" style="opacity: 0.7; stroke-width: 2px; fill: rgb(255, 127, 14); fill-opacity: 1; stroke: rgb(255, 255, 255); stroke-opacity: 1;"/><path class="point" transform="translate(209.56,471.75)" d="M1.45,0A1.45,1.45 0 1,1 0,-1.45A1.45,1.45 0 0,1 1.45,0Z" style="opacity: 0.7; stroke-width: 2px; fill: rgb(255, 127, 14); fill-opacity: 1; stroke: rgb(255, 255, 255); stroke-opacity: 1;"/><path class="point" transform="translate(209.56,445.74)" d="M5.81,0A5.81,5.81 0 1,1 0,-5.81A5.81,5.81 0 0,1 5.81,0Z" style="opacity: 0.7; stroke-width: 2px; fill: rgb(255, 127, 14); fill-opacity: 1; stroke: rgb(255, 255, 255); stroke-opacity: 1;"/><path class="point" transform="translate(209.56,419.72)" d="M0.73,0A0.73,0.73 0 1,1 0,-0.73A0.73,0.73 0 0,1 0.73,0Z" style="opacity: 0.7; stroke-width: 2px; fill: rgb(255, 127, 14); fill-opacity: 1; stroke: rgb(255, 255, 255); stroke-opacity: 1;"/><path class="point" transform="translate(209.56,393.71)" d="M4.35,0A4.35,4.35 0 1,1 0,-4.35A4.35,4.35 0 0,1 4.35,0Z" style="opacity: 0.7; stroke-width: 2px; fill: rgb(255, 127, 14); fill-opacity: 1; stroke: rgb(255, 255, 255); stroke-opacity: 1;"/><path class="point" transform="translate(209.56,367.7)" d="M5.08,0A5.08,5.08 0 1,1 0,-5.08A5.08,5.08 0 0,1 5.08,0Z" style="opacity: 0.7; stroke-width: 2px; fill: rgb(255, 127, 14); fill-opacity: 1; stroke: rgb(255, 255, 255); stroke-opacity: 1;"/><path class="point" transform="translate(209.56,341.68)" d="M2.9,0A2.9,2.9 0 1,1 0,-2.9A2.9,2.9 0 0,1 2.9,0Z" style="opacity: 0.7; stroke-width: 2px; fill: rgb(255, 127, 14); fill-opacity: 1; stroke: rgb(255, 255, 255); stroke-opacity: 1;"/><path class="point" transform="translate(209.56,315.67)" d="M0.73,0A0.73,0.73 0 1,1 0,-0.73A0.73,0.73 0 0,1 0.73,0Z" style="opacity: 0.7; stroke-width: 2px; fill: rgb(255, 127, 14); fill-opacity: 1; stroke: rgb(255, 255, 255); stroke-opacity: 1;"/><path class="point" transform="translate(209.56,289.66)" d="M0,0A0,0 0 1,1 0,-0A0,0 0 0,1 0,0Z" style="opacity: 0.7; stroke-width: 2px; fill: rgb(255, 127, 14); fill-opacity: 1; stroke: rgb(255, 255, 255); stroke-opacity: 1;"/><path class="point" transform="translate(209.56,263.64)" d="M3.63,0A3.63,3.63 0 1,1 0,-3.63A3.63,3.63 0 0,1 3.63,0Z" style="opacity: 0.7; stroke-width: 2px; fill: rgb(255, 127, 14); fill-opacity: 1; stroke: rgb(255, 255, 255); stroke-opacity: 1;"/><path class="point" transform="translate(209.56,237.63)" d="M2.18,0A2.18,2.18 0 1,1 0,-2.18A2.18,2.18 0 0,1 2.18,0Z" style="opacity: 0.7; stroke-width: 2px; fill: rgb(255, 127, 14); fill-opacity: 1; stroke: rgb(255, 255, 255); stroke-opacity: 1;"/><path class="point" transform="translate(209.56,211.62)" d="M0,0A0,0 0 1,1 0,-0A0,0 0 0,1 0,0Z" style="opacity: 0.7; stroke-width: 2px; fill: rgb(255, 127, 14); fill-opacity: 1; stroke: rgb(255, 255, 255); stroke-opacity: 1;"/><path class="point" transform="translate(209.56,185.6)" d="M3.63,0A3.63,3.63 0 1,1 0,-3.63A3.63,3.63 0 0,1 3.63,0Z" style="opacity: 0.7; stroke-width: 2px; fill: rgb(255, 127, 14); fill-opacity: 1; stroke: rgb(255, 255, 255); stroke-opacity: 1;"/><path class="point" transform="translate(209.56,159.59)" d="M2.9,0A2.9,2.9 0 1,1 0,-2.9A2.9,2.9 0 0,1 2.9,0Z" style="opacity: 0.7; stroke-width: 2px; fill: rgb(255, 127, 14); fill-opacity: 1; stroke: rgb(255, 255, 255); stroke-opacity: 1;"/><path class="point" transform="translate(209.56,133.58)" d="M7.98,0A7.98,7.98 0 1,1 0,-7.98A7.98,7.98 0 0,1 7.98,0Z" style="opacity: 0.7; stroke-width: 2px; fill: rgb(255, 127, 14); fill-opacity: 1; stroke: rgb(255, 255, 255); stroke-opacity: 1;"/><path class="point" transform="translate(209.56,107.56)" d="M0,0A0,0 0 1,1 0,-0A0,0 0 0,1 0,0Z" style="opacity: 0.7; stroke-width: 2px; fill: rgb(255, 127, 14); fill-opacity: 1; stroke: rgb(255, 255, 255); stroke-opacity: 1;"/><path class="point" transform="translate(209.56,81.55)" d="M2.9,0A2.9,2.9 0 1,1 0,-2.9A2.9,2.9 0 0,1 2.9,0Z" style="opacity: 0.7; stroke-width: 2px; fill: rgb(255, 127, 14); fill-opacity: 1; stroke: rgb(255, 255, 255); stroke-opacity: 1;"/><path class="point" transform="translate(209.56,55.54)" d="M3.63,0A3.63,3.63 0 1,1 0,-3.63A3.63,3.63 0 0,1 3.63,0Z" style="opacity: 0.7; stroke-width: 2px; fill: rgb(255, 127, 14); fill-opacity: 1; stroke: rgb(255, 255, 255); stroke-opacity: 1;"/></g><g class="text"/></g></g></g><g class="overplot"/><path class="xlines-above crisp" d="M0,0" style="fill: none;"/><path class="ylines-above crisp" d="M0,0" style="fill: none;"/><g class="overlines-above"/><g class="xaxislayer-above"><g class="xtick"><text text-anchor="middle" x="0" y="1133" transform="translate(317.74,0)" style="font-family: 'Open Sans', verdana, arial, sans-serif; font-size: 12px; fill: rgb(42, 63, 95); fill-opacity: 1; white-space: pre; opacity: 1;">BAR_Set_percentage</text></g><g class="xtick"><text text-anchor="middle" x="0" y="1133" transform="translate(496.56,0)" style="font-family: 'Open Sans', verdana, arial, sans-serif; font-size: 12px; fill: rgb(42, 63, 95); fill-opacity: 1; white-space: pre; opacity: 1;">NBR_Set_percentage</text></g></g><g class="yaxislayer-above"><g class="ytick"><text text-anchor="end" x="286" y="4.199999999999999" transform="translate(0,1066)" style="font-family: 'Open Sans', verdana, arial, sans-serif; font-size: 12px; fill: rgb(42, 63, 95); fill-opacity: 1; white-space: pre; opacity: 1;">Alanine, aspartate and glutamate metabolism</text></g><g class="ytick"><text text-anchor="end" x="286" y="4.199999999999999" transform="translate(0,1039.99)" style="font-family: 'Open Sans', verdana, arial, sans-serif; font-size: 12px; fill: rgb(42, 63, 95); fill-opacity: 1; white-space: pre; opacity: 1;">Arginine and proline metabolism</text></g><g class="ytick"><text text-anchor="end" x="286" y="4.199999999999999" transform="translate(0,1013.97)" style="font-family: 'Open Sans', verdana, arial, sans-serif; font-size: 12px; fill: rgb(42, 63, 95); fill-opacity: 1; white-space: pre; opacity: 1;">Biotin metabolism</text></g><g class="ytick"><text text-anchor="end" x="286" y="4.199999999999999" transform="translate(0,987.96)" style="font-family: 'Open Sans', verdana, arial, sans-serif; font-size: 12px; fill: rgb(42, 63, 95); fill-opacity: 1; white-space: pre; opacity: 1;">Carotenoid Biosynthesis</text></g><g class="ytick"><text text-anchor="end" x="286" y="4.199999999999999" transform="translate(0,961.95)" style="font-family: 'Open Sans', verdana, arial, sans-serif; font-size: 12px; fill: rgb(42, 63, 95); fill-opacity: 1; white-space: pre; opacity: 1;">Extracellular exchange</text></g><g class="ytick"><text text-anchor="end" x="286" y="4.199999999999999" transform="translate(0,935.93)" style="font-family: 'Open Sans', verdana, arial, sans-serif; font-size: 12px; fill: rgb(42, 63, 95); fill-opacity: 1; white-space: pre; opacity: 1;">Fatty acid biosynthesis</text></g><g class="ytick"><text text-anchor="end" x="286" y="4.199999999999999" transform="translate(0,909.92)" style="font-family: 'Open Sans', verdana, arial, sans-serif; font-size: 12px; fill: rgb(42, 63, 95); fill-opacity: 1; white-space: pre; opacity: 1;">Folate biosynthesis</text></g><g class="ytick"><text text-anchor="end" x="286" y="4.199999999999999" transform="translate(0,883.91)" style="font-family: 'Open Sans', verdana, arial, sans-serif; font-size: 12px; fill: rgb(42, 63, 95); fill-opacity: 1; white-space: pre; opacity: 1;">Fructose and mannose metabolism</text></g><g class="ytick"><text text-anchor="end" x="286" y="4.199999999999999" transform="translate(0,857.89)" style="font-family: 'Open Sans', verdana, arial, sans-serif; font-size: 12px; fill: rgb(42, 63, 95); fill-opacity: 1; white-space: pre; opacity: 1;">Galactolipids metabolism</text></g><g class="ytick"><text text-anchor="end" x="286" y="4.199999999999999" transform="translate(0,831.88)" style="font-family: 'Open Sans', verdana, arial, sans-serif; font-size: 12px; fill: rgb(42, 63, 95); fill-opacity: 1; white-space: pre; opacity: 1;">Glutathione metabolism</text></g><g class="ytick"><text text-anchor="end" x="286" y="4.199999999999999" transform="translate(0,805.87)" style="font-family: 'Open Sans', verdana, arial, sans-serif; font-size: 12px; fill: rgb(42, 63, 95); fill-opacity: 1; white-space: pre; opacity: 1;">Glycolysis/Gluconeogenesis</text></g><g class="ytick"><text text-anchor="end" x="286" y="4.199999999999999" transform="translate(0,779.85)" style="font-family: 'Open Sans', verdana, arial, sans-serif; font-size: 12px; fill: rgb(42, 63, 95); fill-opacity: 1; white-space: pre; opacity: 1;">Glyoxylate and dicarboxylate metabolism</text></g><g class="ytick"><text text-anchor="end" x="286" y="4.199999999999999" transform="translate(0,753.84)" style="font-family: 'Open Sans', verdana, arial, sans-serif; font-size: 12px; fill: rgb(42, 63, 95); fill-opacity: 1; white-space: pre; opacity: 1;">Histidine metabolism</text></g><g class="ytick"><text text-anchor="end" x="286" y="4.199999999999999" transform="translate(0,727.83)" style="font-family: 'Open Sans', verdana, arial, sans-serif; font-size: 12px; fill: rgb(42, 63, 95); fill-opacity: 1; white-space: pre; opacity: 1;">Inositol phosphate metabolism</text></g><g class="ytick"><text text-anchor="end" x="286" y="4.199999999999999" transform="translate(0,701.81)" style="font-family: 'Open Sans', verdana, arial, sans-serif; font-size: 12px; fill: rgb(42, 63, 95); fill-opacity: 1; white-space: pre; opacity: 1;">Lysine metabolism</text></g><g class="ytick"><text text-anchor="end" x="286" y="4.199999999999999" transform="translate(0,675.8)" style="font-family: 'Open Sans', verdana, arial, sans-serif; font-size: 12px; fill: rgb(42, 63, 95); fill-opacity: 1; white-space: pre; opacity: 1;">Nucleotide sugars metabolism</text></g><g class="ytick"><text text-anchor="end" x="286" y="4.199999999999999" transform="translate(0,649.79)" style="font-family: 'Open Sans', verdana, arial, sans-serif; font-size: 12px; fill: rgb(42, 63, 95); fill-opacity: 1; white-space: pre; opacity: 1;">Others</text></g><g class="ytick"><text text-anchor="end" x="286" y="4.199999999999999" transform="translate(0,623.77)" style="font-family: 'Open Sans', verdana, arial, sans-serif; font-size: 12px; fill: rgb(42, 63, 95); fill-opacity: 1; white-space: pre; opacity: 1;">Oxidative phosphorylation</text></g><g class="ytick"><text text-anchor="end" x="286" y="4.199999999999999" transform="translate(0,597.76)" style="font-family: 'Open Sans', verdana, arial, sans-serif; font-size: 12px; fill: rgb(42, 63, 95); fill-opacity: 1; white-space: pre; opacity: 1;">PHB byosynthesis</text></g><g class="ytick"><text text-anchor="end" x="286" y="4.199999999999999" transform="translate(0,571.75)" style="font-family: 'Open Sans', verdana, arial, sans-serif; font-size: 12px; fill: rgb(42, 63, 95); fill-opacity: 1; white-space: pre; opacity: 1;">Pentose phosphate pathway</text></g><g class="ytick"><text text-anchor="end" x="286" y="4.199999999999999" transform="translate(0,545.74)" style="font-family: 'Open Sans', verdana, arial, sans-serif; font-size: 12px; fill: rgb(42, 63, 95); fill-opacity: 1; white-space: pre; opacity: 1;">Phenylalanine tyrosine and tryptophan biosynthesis</text></g><g class="ytick"><text text-anchor="end" x="286" y="4.199999999999999" transform="translate(0,519.72)" style="font-family: 'Open Sans', verdana, arial, sans-serif; font-size: 12px; fill: rgb(42, 63, 95); fill-opacity: 1; white-space: pre; opacity: 1;">Photosynthesis</text></g><g class="ytick"><text text-anchor="end" x="286" y="4.199999999999999" transform="translate(0,493.71)" style="font-family: 'Open Sans', verdana, arial, sans-serif; font-size: 12px; fill: rgb(42, 63, 95); fill-opacity: 1; white-space: pre; opacity: 1;">Porphyrin and chlorophyll metabolism</text></g><g class="ytick"><text text-anchor="end" x="286" y="4.199999999999999" transform="translate(0,467.7)" style="font-family: 'Open Sans', verdana, arial, sans-serif; font-size: 12px; fill: rgb(42, 63, 95); fill-opacity: 1; white-space: pre; opacity: 1;">Purine metabolism</text></g><g class="ytick"><text text-anchor="end" x="286" y="4.199999999999999" transform="translate(0,441.68)" style="font-family: 'Open Sans', verdana, arial, sans-serif; font-size: 12px; fill: rgb(42, 63, 95); fill-opacity: 1; white-space: pre; opacity: 1;">Pyrimidine metabolism</text></g><g class="ytick"><text text-anchor="end" x="286" y="4.199999999999999" transform="translate(0,415.67)" style="font-family: 'Open Sans', verdana, arial, sans-serif; font-size: 12px; fill: rgb(42, 63, 95); fill-opacity: 1; white-space: pre; opacity: 1;">Pyruvate metabolism</text></g><g class="ytick"><text text-anchor="end" x="286" y="4.199999999999999" transform="translate(0,389.66)" style="font-family: 'Open Sans', verdana, arial, sans-serif; font-size: 12px; fill: rgb(42, 63, 95); fill-opacity: 1; white-space: pre; opacity: 1;">Riboflavin metabolism</text></g><g class="ytick"><text text-anchor="end" x="286" y="4.199999999999999" transform="translate(0,363.64)" style="font-family: 'Open Sans', verdana, arial, sans-serif; font-size: 12px; fill: rgb(42, 63, 95); fill-opacity: 1; white-space: pre; opacity: 1;">Starch and sucrose metabolism</text></g><g class="ytick"><text text-anchor="end" x="286" y="4.199999999999999" transform="translate(0,337.63)" style="font-family: 'Open Sans', verdana, arial, sans-serif; font-size: 12px; fill: rgb(42, 63, 95); fill-opacity: 1; white-space: pre; opacity: 1;">Steroid biosynthesis</text></g><g class="ytick"><text text-anchor="end" x="286" y="4.199999999999999" transform="translate(0,311.62)" style="font-family: 'Open Sans', verdana, arial, sans-serif; font-size: 12px; fill: rgb(42, 63, 95); fill-opacity: 1; white-space: pre; opacity: 1;">Sulfolipid Biosynthesis</text></g><g class="ytick"><text text-anchor="end" x="286" y="4.199999999999999" transform="translate(0,285.6)" style="font-family: 'Open Sans', verdana, arial, sans-serif; font-size: 12px; fill: rgb(42, 63, 95); fill-opacity: 1; white-space: pre; opacity: 1;">Sulfur Cysteine and methionine metabolism</text></g><g class="ytick"><text text-anchor="end" x="286" y="4.199999999999999" transform="translate(0,259.59000000000003)" style="font-family: 'Open Sans', verdana, arial, sans-serif; font-size: 12px; fill: rgb(42, 63, 95); fill-opacity: 1; white-space: pre; opacity: 1;">Thiamine metabolism</text></g><g class="ytick"><text text-anchor="end" x="286" y="4.199999999999999" transform="translate(0,233.58)" style="font-family: 'Open Sans', verdana, arial, sans-serif; font-size: 12px; fill: rgb(42, 63, 95); fill-opacity: 1; white-space: pre; opacity: 1;">Transport</text></g><g class="ytick"><text text-anchor="end" x="286" y="4.199999999999999" transform="translate(0,207.56)" style="font-family: 'Open Sans', verdana, arial, sans-serif; font-size: 12px; fill: rgb(42, 63, 95); fill-opacity: 1; white-space: pre; opacity: 1;">Ubiquinone and other pterpenoids biosynthesis</text></g><g class="ytick"><text text-anchor="end" x="286" y="4.199999999999999" transform="translate(0,181.55)" style="font-family: 'Open Sans', verdana, arial, sans-serif; font-size: 12px; fill: rgb(42, 63, 95); fill-opacity: 1; white-space: pre; opacity: 1;">Valine leucine and isoleucine biosynthesis</text></g><g class="ytick"><text text-anchor="end" x="286" y="4.199999999999999" transform="translate(0,155.54)" style="font-family: 'Open Sans', verdana, arial, sans-serif; font-size: 12px; fill: rgb(42, 63, 95); fill-opacity: 1; white-space: pre; opacity: 1;">Vitamin B6 metabolism</text></g></g><g class="overaxes-above"/></g></g><g class="polarlayer"/><g class="smithlayer"/><g class="ternarylayer"/><g class="geolayer"/><g class="funnelarealayer"/><g class="pielayer"/><g class="iciclelayer"/><g class="treemaplayer"/><g class="sunburstlayer"/><g class="glimages"/><defs id="topdefs-d37247"><g class="clips"/></defs><g class="layer-above"><g class="imagelayer"/><g class="shapelayer"/></g><g class="infolayer"><g class="g-gtitle"><text class="gtitle" x="330" y="60" text-anchor="middle" dy="0.7em" style="font-family: 'Open Sans', verdana, arial, sans-serif; font-size: 16px; fill: rgb(42, 63, 95); opacity: 1; font-weight: normal; white-space: pre;">Percentage of Subsystem functions in BARs &amp; NBRs</text></g><g class="g-xtitle"/><g class="g-ytitle"/></g></svg>