<svg class="main-svg" xmlns="http://www.w3.org/2000/svg" xmlns:xlink="http://www.w3.org/1999/xlink" width="426" height="1200" style="" viewBox="0 0 426 1200"><rect x="0" y="0" width="426" height="1200" style="fill: rgb(255, 255, 255); fill-opacity: 1;"/><defs id="defs-c9298e"><g class="clips"><clipPath id="clipc9298exyplot" class="plotclip"><rect width="203" height="1020"/></clipPath><clipPath class="axesclip" id="clipc9298ex"><rect x="143" y="0" width="203" height="1200"/></clipPath><clipPath class="axesclip" id="clipc9298ey"><rect x="0" y="100" width="426" height="1020"/></clipPath><clipPath class="axesclip" id="clipc9298exy"><rect x="143" y="100" width="203" height="1020"/></clipPath></g><g class="gradients"/><g class="patterns"/></defs><g class="bglayer"><rect class="bg" x="143" y="100" width="203" height="1020" style="fill: rgb(229, 236, 246); fill-opacity: 1; stroke-width: 0;"/></g><g class="layer-below"><g class="imagelayer"/><g class="shapelayer"/></g><g class="cartesianlayer"><g class="subplot xy"><g class="layer-subplot"><g class="shapelayer"/><g class="imagelayer"/></g><g class="minor-gridlayer"><g class="x"/><g class="y"/></g><g class="gridlayer"><g class="x"><path class="xgrid crisp" transform="translate(172.67000000000002,0)" d="M0,100v1020" style="stroke: rgb(255, 255, 255); stroke-opacity: 1; stroke-width: 1px;"/><path class="xgrid crisp" transform="translate(305.51,0)" d="M0,100v1020" style="stroke: rgb(255, 255, 255); stroke-opacity: 1; stroke-width: 1px;"/></g><g class="y"><path class="ygrid crisp" transform="translate(0,1052.22)" d="M143,0h203" style="stroke: rgb(255, 255, 255); stroke-opacity: 1; stroke-width: 1px;"/><path class="ygrid crisp" transform="translate(0,953.74)" d="M143,0h203" style="stroke: rgb(255, 255, 255); stroke-opacity: 1; stroke-width: 1px;"/><path class="ygrid crisp" transform="translate(0,855.26)" d="M143,0h203" style="stroke: rgb(255, 255, 255); stroke-opacity: 1; stroke-width: 1px;"/><path class="ygrid crisp" transform="translate(0,756.78)" d="M143,0h203" style="stroke: rgb(255, 255, 255); stroke-opacity: 1; stroke-width: 1px;"/><path class="ygrid crisp" transform="translate(0,658.3)" d="M143,0h203" style="stroke: rgb(255, 255, 255); stroke-opacity: 1; stroke-width: 1px;"/><path class="ygrid crisp" transform="translate(0,559.8199999999999)" d="M143,0h203" style="stroke: rgb(255, 255, 255); stroke-opacity: 1; stroke-width: 1px;"/><path class="ygrid crisp" transform="translate(0,461.34)" d="M143,0h203" style="stroke: rgb(255, 255, 255); stroke-opacity: 1; stroke-width: 1px;"/><path class="ygrid crisp" transform="translate(0,362.86)" d="M143,0h203" style="stroke: rgb(255, 255, 255); stroke-opacity: 1; stroke-width: 1px;"/><path class="ygrid crisp" transform="translate(0,264.38)" d="M143,0h203" style="stroke: rgb(255, 255, 255); stroke-opacity: 1; stroke-width: 1px;"/><path class="ygrid crisp" transform="translate(0,165.9)" d="M143,0h203" style="stroke: rgb(255, 255, 255); stroke-opacity: 1; stroke-width: 1px;"/></g></g><g class="zerolinelayer"/><path class="xlines-below"/><path class="ylines-below"/><g class="overlines-below"/><g class="xaxislayer-below"/><g class="yaxislayer-below"/><g class="overaxes-below"/><g class="plot" transform="translate(143,100)" clip-path="url(#clipc9298exyplot)"><g class="scatterlayer mlayer"><g class="trace scatter tracee49c57" style="stroke-miterlimit: 2; opacity: 1;"><g class="fills"/><g class="errorbars"/><g class="lines"/><g class="points"><path class="point" transform="translate(29.67,952.22)" d="M13.42,0A13.42,13.42 0 1,1 0,-13.42A13.42,13.42 0 0,1 13.42,0Z" style="opacity: 0.7; stroke-width: 2px; fill: rgb(31, 119, 180); fill-opacity: 1; stroke: rgb(255, 255, 255); stroke-opacity: 1;"/><path class="point" transform="translate(29.67,853.74)" d="M4.66,0A4.66,4.66 0 1,1 0,-4.66A4.66,4.66 0 0,1 4.66,0Z" style="opacity: 0.7; stroke-width: 2px; fill: rgb(31, 119, 180); fill-opacity: 1; stroke: rgb(255, 255, 255); stroke-opacity: 1;"/><path class="point" transform="translate(29.67,755.26)" d="M15.62,0A15.62,15.62 0 1,1 0,-15.62A15.62,15.62 0 0,1 15.62,0Z" style="opacity: 0.7; stroke-width: 2px; fill: rgb(31, 119, 180); fill-opacity: 1; stroke: rgb(255, 255, 255); stroke-opacity: 1;"/><path class="point" transform="translate(29.67,656.78)" d="M3.84,0A3.84,3.84 0 1,1 0,-3.84A3.84,3.84 0 0,1 3.84,0Z" style="opacity: 0.7; stroke-width: 2px; fill: rgb(31, 119, 180); fill-opacity: 1; stroke: rgb(255, 255, 255); stroke-opacity: 1;"/><path class="point" transform="translate(29.67,558.3)" d="M4.66,0A4.66,4.66 0 1,1 0,-4.66A4.66,4.66 0 0,1 4.66,0Z" style="opacity: 0.7; stroke-width: 2px; fill: rgb(31, 119, 180); fill-opacity: 1; stroke: rgb(255, 255, 255); stroke-opacity: 1;"/><path class="point" transform="translate(29.67,459.82)" d="M6.44,0A6.44,6.44 0 1,1 0,-6.44A6.44,6.44 0 0,1 6.44,0Z" style="opacity: 0.7; stroke-width: 2px; fill: rgb(31, 119, 180); fill-opacity: 1; stroke: rgb(255, 255, 255); stroke-opacity: 1;"/><path class="point" transform="translate(29.67,361.34)" d="M3.56,0A3.56,3.56 0 1,1 0,-3.56A3.56,3.56 0 0,1 3.56,0Z" style="opacity: 0.7; stroke-width: 2px; fill: rgb(31, 119, 180); fill-opacity: 1; stroke: rgb(255, 255, 255); stroke-opacity: 1;"/><path class="point" transform="translate(29.67,262.86)" d="M4.52,0A4.52,4.52 0 1,1 0,-4.52A4.52,4.52 0 0,1 4.52,0Z" style="opacity: 0.7; stroke-width: 2px; fill: rgb(31, 119, 180); fill-opacity: 1; stroke: rgb(255, 255, 255); stroke-opacity: 1;"/><path class="point" transform="translate(29.67,164.38)" d="M2.47,0A2.47,2.47 0 1,1 0,-2.47A2.47,2.47 0 0,1 2.47,0Z" style="opacity: 0.7; stroke-width: 2px; fill: rgb(31, 119, 180); fill-opacity: 1; stroke: rgb(255, 255, 255); stroke-opacity: 1;"/><path class="point" transform="translate(29.67,65.9)" d="M11.92,0A11.92,11.92 0 1,1 0,-11.92A11.92,11.92 0 0,1 11.92,0Z" style="opacity: 0.7; stroke-width: 2px; fill: rgb(31, 119, 180); fill-opacity: 1; stroke: rgb(255, 255, 255); stroke-opacity: 1;"/></g><g class="text"/></g><g class="trace scatter tracebed900" style="stroke-miterlimit: 2; opacity: 1;"><g class="fills"/><g class="errorbars"/><g class="lines"/><g class="points"><path class="point" transform="translate(162.51,952.22)" d="M9.1,0A9.1,9.1 0 1,1 0,-9.1A9.1,9.1 0 0,1 9.1,0Z" style="opacity: 0.7; stroke-width: 2px; fill: rgb(255, 127, 14); fill-opacity: 1; stroke: rgb(255, 255, 255); stroke-opacity: 1;"/><path class="point" transform="translate(162.51,853.74)" d="M2.53,0A2.53,2.53 0 1,1 0,-2.53A2.53,2.53 0 0,1 2.53,0Z" style="opacity: 0.7; stroke-width: 2px; fill: rgb(255, 127, 14); fill-opacity: 1; stroke: rgb(255, 255, 255); stroke-opacity: 1;"/><path class="point" transform="translate(162.51,755.26)" d="M24.27,0A24.27,24.27 0 1,1 0,-24.27A24.27,24.27 0 0,1 24.27,0Z" style="opacity: 0.7; stroke-width: 2px; fill: rgb(255, 127, 14); fill-opacity: 1; stroke: rgb(255, 255, 255); stroke-opacity: 1;"/><path class="point" transform="translate(162.51,656.78)" d="M2.53,0A2.53,2.53 0 1,1 0,-2.53A2.53,2.53 0 0,1 2.53,0Z" style="opacity: 0.7; stroke-width: 2px; fill: rgb(255, 127, 14); fill-opacity: 1; stroke: rgb(255, 255, 255); stroke-opacity: 1;"/><path class="point" transform="translate(162.51,558.3)" d="M6.32,0A6.32,6.32 0 1,1 0,-6.32A6.32,6.32 0 0,1 6.32,0Z" style="opacity: 0.7; stroke-width: 2px; fill: rgb(255, 127, 14); fill-opacity: 1; stroke: rgb(255, 255, 255); stroke-opacity: 1;"/><path class="point" transform="translate(162.51,459.82)" d="M8.85,0A8.85,8.85 0 1,1 0,-8.85A8.85,8.85 0 0,1 8.85,0Z" style="opacity: 0.7; stroke-width: 2px; fill: rgb(255, 127, 14); fill-opacity: 1; stroke: rgb(255, 255, 255); stroke-opacity: 1;"/><path class="point" transform="translate(162.51,361.34)" d="M4.04,0A4.04,4.04 0 1,1 0,-4.04A4.04,4.04 0 0,1 4.04,0Z" style="opacity: 0.7; stroke-width: 2px; fill: rgb(255, 127, 14); fill-opacity: 1; stroke: rgb(255, 255, 255); stroke-opacity: 1;"/><path class="point" transform="translate(162.51,262.86)" d="M4.8,0A4.8,4.8 0 1,1 0,-4.8A4.8,4.8 0 0,1 4.8,0Z" style="opacity: 0.7; stroke-width: 2px; fill: rgb(255, 127, 14); fill-opacity: 1; stroke: rgb(255, 255, 255); stroke-opacity: 1;"/><path class="point" transform="translate(162.51,164.38)" d="M3.29,0A3.29,3.29 0 1,1 0,-3.29A3.29,3.29 0 0,1 3.29,0Z" style="opacity: 0.7; stroke-width: 2px; fill: rgb(255, 127, 14); fill-opacity: 1; stroke: rgb(255, 255, 255); stroke-opacity: 1;"/><path class="point" transform="translate(162.51,65.9)" d="M9.86,0A9.86,9.86 0 1,1 0,-9.86A9.86,9.86 0 0,1 9.86,0Z" style="opacity: 0.7; stroke-width: 2px; fill: rgb(255, 127, 14); fill-opacity: 1; stroke: rgb(255, 255, 255); stroke-opacity: 1;"/></g><g class="text"/></g></g></g><g class="overplot"/><path class="xlines-above crisp" d="M0,0" style="fill: none;"/><path class="ylines-above crisp" d="M0,0" style="fill: none;"/><g class="overlines-above"/><g class="xaxislayer-above"><g class="xtick"><text text-anchor="middle" x="0" y="1133" transform="translate(172.67000000000002,0)" style="font-family: 'Open Sans', verdana, arial, sans-serif; font-size: 12px; fill: rgb(42, 63, 95); fill-opacity: 1; white-space: pre; opacity: 1;">BAR_Set_percentage</text></g><g class="xtick"><text text-anchor="middle" x="0" y="1133" transform="translate(305.51,0)" style="font-family: 'Open Sans', verdana, arial, sans-serif; font-size: 12px; fill: rgb(42, 63, 95); fill-opacity: 1; white-space: pre; opacity: 1;">NBR_Set_percentage</text></g></g><g class="yaxislayer-above"><g class="ytick"><text text-anchor="end" x="142" y="4.199999999999999" transform="translate(0,1052.22)" style="font-family: 'Open Sans', verdana, arial, sans-serif; font-size: 12px; fill: rgb(42, 63, 95); fill-opacity: 1; white-space: pre; opacity: 1;">Amino Acid Metabolism</text></g><g class="ytick"><text text-anchor="end" x="142" y="4.199999999999999" transform="translate(0,953.74)" style="font-family: 'Open Sans', verdana, arial, sans-serif; font-size: 12px; fill: rgb(42, 63, 95); fill-opacity: 1; white-space: pre; opacity: 1;">Anaerobiosis</text></g><g class="ytick"><text text-anchor="end" x="142" y="4.199999999999999" transform="translate(0,855.26)" style="font-family: 'Open Sans', verdana, arial, sans-serif; font-size: 12px; fill: rgb(42, 63, 95); fill-opacity: 1; white-space: pre; opacity: 1;">Carbon Metabolism</text></g><g class="ytick"><text text-anchor="end" x="142" y="4.199999999999999" transform="translate(0,756.78)" style="font-family: 'Open Sans', verdana, arial, sans-serif; font-size: 12px; fill: rgb(42, 63, 95); fill-opacity: 1; white-space: pre; opacity: 1;">Energy Metabolism</text></g><g class="ytick"><text text-anchor="end" x="142" y="4.199999999999999" transform="translate(0,658.3)" style="font-family: 'Open Sans', verdana, arial, sans-serif; font-size: 12px; fill: rgb(42, 63, 95); fill-opacity: 1; white-space: pre; opacity: 1;">Membrane Homeostasis</text></g><g class="ytick"><text text-anchor="end" x="142" y="4.199999999999999" transform="translate(0,559.8199999999999)" style="font-family: 'Open Sans', verdana, arial, sans-serif; font-size: 12px; fill: rgb(42, 63, 95); fill-opacity: 1; white-space: pre; opacity: 1;">Metal Homeostasis</text></g><g class="ytick"><text text-anchor="end" x="142" y="4.199999999999999" transform="translate(0,461.34)" style="font-family: 'Open Sans', verdana, arial, sans-serif; font-size: 12px; fill: rgb(42, 63, 95); fill-opacity: 1; white-space: pre; opacity: 1;">Nitrogen Metabolism</text></g><g class="ytick"><text text-anchor="end" x="142" y="4.199999999999999" transform="translate(0,362.86)" style="font-family: 'Open Sans', verdana, arial, sans-serif; font-size: 12px; fill: rgb(42, 63, 95); fill-opacity: 1; white-space: pre; opacity: 1;">Redox Stress</text></g><g class="ytick"><text text-anchor="end" x="142" y="4.199999999999999" transform="translate(0,264.38)" style="font-family: 'Open Sans', verdana, arial, sans-serif; font-size: 12px; fill: rgb(42, 63, 95); fill-opacity: 1; white-space: pre; opacity: 1;">Stringent Response</text></g><g class="ytick"><text text-anchor="end" x="142" y="4.199999999999999" transform="translate(0,165.9)" style="font-family: 'Open Sans', verdana, arial, sans-serif; font-size: 12px; fill: rgb(42, 63, 95); fill-opacity: 1; white-space: pre; opacity: 1;">Unknown</text></g></g><g class="overaxes-above"/></g></g><g class="polarlayer"/><g class="smithlayer"/><g class="ternarylayer"/><g class="geolayer"/><g class="funnelarealayer"/><g class="pielayer"/><g class="iciclelayer"/><g class="treemaplayer"/><g class="sunburstlayer"/><g class="glimages"/><defs id="topdefs-c9298e"><g class="clips"/></defs><g class="layer-above"><g class="imagelayer"/><g class="shapelayer"/></g><g class="infolayer"><g class="g-gtitle"><text class="gtitle" x="234.3" y="60" text-anchor="middle" dy="0.7em" style="font-family: 'Open Sans', verdana, arial, sans-serif; font-size: 16px; fill: rgb(42, 63, 95); opacity: 1; font-weight: normal; white-space: pre;">Percentage of iModulon functions in BARs &amp; NBRs</text></g><g class="g-xtitle"/><g class="g-ytitle"/></g></svg>