<svg class="main-svg" xmlns="http://www.w3.org/2000/svg" xmlns:xlink="http://www.w3.org/1999/xlink" width="600" height="1200" style="" viewBox="0 0 600 1200"><rect x="0" y="0" width="600" height="1200" style="fill: rgb(255, 255, 255); fill-opacity: 1;"/><defs id="defs-a682a1"><g class="clips"><clipPath id="clipa682a1xyplot" class="plotclip"><rect width="225" height="1020"/></clipPath><clipPath class="axesclip" id="clipa682a1x"><rect x="295" y="0" width="225" height="1200"/></clipPath><clipPath class="axesclip" id="clipa682a1y"><rect x="0" y="100" width="600" height="1020"/></clipPath><clipPath class="axesclip" id="clipa682a1xy"><rect x="295" y="100" width="225" height="1020"/></clipPath></g><g class="gradients"/><g class="patterns"/></defs><g class="bglayer"><rect class="bg" x="295" y="100" width="225" height="1020" style="fill: rgb(229, 236, 246); fill-opacity: 1; stroke-width: 0;"/></g><g class="layer-below"><g class="imagelayer"/><g class="shapelayer"/></g><g class="cartesianlayer"><g class="subplot xy"><g class="layer-subplot"><g class="shapelayer"/><g class="imagelayer"/></g><g class="minor-gridlayer"><g class="x"/><g class="y"/></g><g class="gridlayer"><g class="x"><path class="xgrid crisp" transform="translate(328.78,0)" d="M0,100v1020" style="stroke: rgb(255, 255, 255); stroke-opacity: 1; stroke-width: 1px;"/><path class="xgrid crisp" transform="translate(459.28999999999996,0)" d="M0,100v1020" style="stroke: rgb(255, 255, 255); stroke-opacity: 1; stroke-width: 1px;"/></g><g class="y"><path class="ygrid crisp" transform="translate(0,1063.53)" d="M295,0h225" style="stroke: rgb(255, 255, 255); stroke-opacity: 1; stroke-width: 1px;"/><path class="ygrid crisp" transform="translate(0,1020.22)" d="M295,0h225" style="stroke: rgb(255, 255, 255); stroke-opacity: 1; stroke-width: 1px;"/><path class="ygrid crisp" transform="translate(0,976.91)" d="M295,0h225" style="stroke: rgb(255, 255, 255); stroke-opacity: 1; stroke-width: 1px;"/><path class="ygrid crisp" transform="translate(0,933.6)" d="M295,0h225" style="stroke: rgb(255, 255, 255); stroke-opacity: 1; stroke-width: 1px;"/><path class="ygrid crisp" transform="translate(0,890.28)" d="M295,0h225" style="stroke: rgb(255, 255, 255); stroke-opacity: 1; stroke-width: 1px;"/><path class="ygrid crisp" transform="translate(0,846.97)" d="M295,0h225" style="stroke: rgb(255, 255, 255); stroke-opacity: 1; stroke-width: 1px;"/><path class="ygrid crisp" transform="translate(0,803.66)" d="M295,0h225" style="stroke: rgb(255, 255, 255); stroke-opacity: 1; stroke-width: 1px;"/><path class="ygrid crisp" transform="translate(0,760.35)" d="M295,0h225" style="stroke: rgb(255, 255, 255); stroke-opacity: 1; stroke-width: 1px;"/><path class="ygrid crisp" transform="translate(0,717.04)" d="M295,0h225" style="stroke: rgb(255, 255, 255); stroke-opacity: 1; stroke-width: 1px;"/><path class="ygrid crisp" transform="translate(0,673.73)" d="M295,0h225" style="stroke: rgb(255, 255, 255); stroke-opacity: 1; stroke-width: 1px;"/><path class="ygrid crisp" transform="translate(0,630.42)" d="M295,0h225" style="stroke: rgb(255, 255, 255); stroke-opacity: 1; stroke-width: 1px;"/><path class="ygrid crisp" transform="translate(0,587.11)" d="M295,0h225" style="stroke: rgb(255, 255, 255); stroke-opacity: 1; stroke-width: 1px;"/><path class="ygrid crisp" transform="translate(0,543.8)" d="M295,0h225" style="stroke: rgb(255, 255, 255); stroke-opacity: 1; stroke-width: 1px;"/><path class="ygrid crisp" transform="translate(0,500.49)" d="M295,0h225" style="stroke: rgb(255, 255, 255); stroke-opacity: 1; stroke-width: 1px;"/><path class="ygrid crisp" transform="translate(0,457.18)" d="M295,0h225" style="stroke: rgb(255, 255, 255); stroke-opacity: 1; stroke-width: 1px;"/><path class="ygrid crisp" transform="translate(0,413.87)" d="M295,0h225" style="stroke: rgb(255, 255, 255); stroke-opacity: 1; stroke-width: 1px;"/><path class="ygrid crisp" transform="translate(0,370.55)" d="M295,0h225" style="stroke: rgb(255, 255, 255); stroke-opacity: 1; stroke-width: 1px;"/><path class="ygrid crisp" transform="translate(0,327.24)" d="M295,0h225" style="stroke: rgb(255, 255, 255); stroke-opacity: 1; stroke-width: 1px;"/><path class="ygrid crisp" transform="translate(0,283.93)" d="M295,0h225" style="stroke: rgb(255, 255, 255); stroke-opacity: 1; stroke-width: 1px;"/><path class="ygrid crisp" transform="translate(0,240.62)" d="M295,0h225" style="stroke: rgb(255, 255, 255); stroke-opacity: 1; stroke-width: 1px;"/><path class="ygrid crisp" transform="translate(0,197.31)" d="M295,0h225" style="stroke: rgb(255, 255, 255); stroke-opacity: 1; stroke-width: 1px;"/><path class="ygrid crisp" transform="translate(0,154)" d="M295,0h225" style="stroke: rgb(255, 255, 255); stroke-opacity: 1; stroke-width: 1px;"/></g></g><g class="zerolinelayer"/><path class="xlines-below"/><path class="ylines-below"/><g class="overlines-below"/><g class="xaxislayer-below"/><g class="yaxislayer-below"/><g class="overaxes-below"/><g class="plot" transform="translate(295,100)" clip-path="url(#clipa682a1xyplot)"><g class="scatterlayer mlayer"><g class="trace scatter trace3e6c02" style="stroke-miterlimit: 2; opacity: 1;"><g class="fills"/><g class="errorbars"/><g class="lines"/><g class="points"><path class="point" transform="translate(33.78,963.53)" d="M2.56,0A2.56,2.56 0 1,1 0,-2.56A2.56,2.56 0 0,1 2.56,0Z" style="opacity: 0.7; stroke-width: 2px; fill: rgb(31, 119, 180); fill-opacity: 1; stroke: rgb(255, 255, 255); stroke-opacity: 1;"/><path class="point" transform="translate(33.78,920.22)" d="M1.61,0A1.61,1.61 0 1,1 0,-1.61A1.61,1.61 0 0,1 1.61,0Z" style="opacity: 0.7; stroke-width: 2px; fill: rgb(31, 119, 180); fill-opacity: 1; stroke: rgb(255, 255, 255); stroke-opacity: 1;"/><path class="point" transform="translate(33.78,876.91)" d="M4.3,0A4.3,4.3 0 1,1 0,-4.3A4.3,4.3 0 0,1 4.3,0Z" style="opacity: 0.7; stroke-width: 2px; fill: rgb(31, 119, 180); fill-opacity: 1; stroke: rgb(255, 255, 255); stroke-opacity: 1;"/><path class="point" transform="translate(33.78,833.6)" d="M1.08,0A1.08,1.08 0 1,1 0,-1.08A1.08,1.08 0 0,1 1.08,0Z" style="opacity: 0.7; stroke-width: 2px; fill: rgb(31, 119, 180); fill-opacity: 1; stroke: rgb(255, 255, 255); stroke-opacity: 1;"/><path class="point" transform="translate(33.78,790.28)" d="M18.03,0A18.03,18.03 0 1,1 0,-18.03A18.03,18.03 0 0,1 18.03,0Z" style="opacity: 0.7; stroke-width: 2px; fill: rgb(31, 119, 180); fill-opacity: 1; stroke: rgb(255, 255, 255); stroke-opacity: 1;"/><path class="point" transform="translate(33.78,746.97)" d="M6.19,0A6.19,6.19 0 1,1 0,-6.19A6.19,6.19 0 0,1 6.19,0Z" style="opacity: 0.7; stroke-width: 2px; fill: rgb(31, 119, 180); fill-opacity: 1; stroke: rgb(255, 255, 255); stroke-opacity: 1;"/><path class="point" transform="translate(33.78,703.66)" d="M3.63,0A3.63,3.63 0 1,1 0,-3.63A3.63,3.63 0 0,1 3.63,0Z" style="opacity: 0.7; stroke-width: 2px; fill: rgb(31, 119, 180); fill-opacity: 1; stroke: rgb(255, 255, 255); stroke-opacity: 1;"/><path class="point" transform="translate(33.78,660.35)" d="M1.88,0A1.88,1.88 0 1,1 0,-1.88A1.88,1.88 0 0,1 1.88,0Z" style="opacity: 0.7; stroke-width: 2px; fill: rgb(31, 119, 180); fill-opacity: 1; stroke: rgb(255, 255, 255); stroke-opacity: 1;"/><path class="point" transform="translate(33.78,617.04)" d="M1.35,0A1.35,1.35 0 1,1 0,-1.35A1.35,1.35 0 0,1 1.35,0Z" style="opacity: 0.7; stroke-width: 2px; fill: rgb(31, 119, 180); fill-opacity: 1; stroke: rgb(255, 255, 255); stroke-opacity: 1;"/><path class="point" transform="translate(33.78,573.73)" d="M3.63,0A3.63,3.63 0 1,1 0,-3.63A3.63,3.63 0 0,1 3.63,0Z" style="opacity: 0.7; stroke-width: 2px; fill: rgb(31, 119, 180); fill-opacity: 1; stroke: rgb(255, 255, 255); stroke-opacity: 1;"/><path class="point" transform="translate(33.78,530.42)" d="M4.3,0A4.3,4.3 0 1,1 0,-4.3A4.3,4.3 0 0,1 4.3,0Z" style="opacity: 0.7; stroke-width: 2px; fill: rgb(31, 119, 180); fill-opacity: 1; stroke: rgb(255, 255, 255); stroke-opacity: 1;"/><path class="point" transform="translate(33.78,487.11)" d="M4.71,0A4.71,4.71 0 1,1 0,-4.71A4.71,4.71 0 0,1 4.71,0Z" style="opacity: 0.7; stroke-width: 2px; fill: rgb(31, 119, 180); fill-opacity: 1; stroke: rgb(255, 255, 255); stroke-opacity: 1;"/><path class="point" transform="translate(33.78,443.8)" d="M1.48,0A1.48,1.48 0 1,1 0,-1.48A1.48,1.48 0 0,1 1.48,0Z" style="opacity: 0.7; stroke-width: 2px; fill: rgb(31, 119, 180); fill-opacity: 1; stroke: rgb(255, 255, 255); stroke-opacity: 1;"/><path class="point" transform="translate(33.78,400.49)" d="M6.86,0A6.86,6.86 0 1,1 0,-6.86A6.86,6.86 0 0,1 6.86,0Z" style="opacity: 0.7; stroke-width: 2px; fill: rgb(31, 119, 180); fill-opacity: 1; stroke: rgb(255, 255, 255); stroke-opacity: 1;"/><path class="point" transform="translate(33.78,357.18)" d="M1.21,0A1.21,1.21 0 1,1 0,-1.21A1.21,1.21 0 0,1 1.21,0Z" style="opacity: 0.7; stroke-width: 2px; fill: rgb(31, 119, 180); fill-opacity: 1; stroke: rgb(255, 255, 255); stroke-opacity: 1;"/><path class="point" transform="translate(33.78,313.87)" d="M1.75,0A1.75,1.75 0 1,1 0,-1.75A1.75,1.75 0 0,1 1.75,0Z" style="opacity: 0.7; stroke-width: 2px; fill: rgb(31, 119, 180); fill-opacity: 1; stroke: rgb(255, 255, 255); stroke-opacity: 1;"/><path class="point" transform="translate(33.78,270.55)" d="M7.4,0A7.4,7.4 0 1,1 0,-7.4A7.4,7.4 0 0,1 7.4,0Z" style="opacity: 0.7; stroke-width: 2px; fill: rgb(31, 119, 180); fill-opacity: 1; stroke: rgb(255, 255, 255); stroke-opacity: 1;"/><path class="point" transform="translate(33.78,227.24)" d="M0.27,0A0.27,0.27 0 1,1 0,-0.27A0.27,0.27 0 0,1 0.27,0Z" style="opacity: 0.7; stroke-width: 2px; fill: rgb(31, 119, 180); fill-opacity: 1; stroke: rgb(255, 255, 255); stroke-opacity: 1;"/><path class="point" transform="translate(33.78,183.93)" d="M6.05,0A6.05,6.05 0 1,1 0,-6.05A6.05,6.05 0 0,1 6.05,0Z" style="opacity: 0.7; stroke-width: 2px; fill: rgb(31, 119, 180); fill-opacity: 1; stroke: rgb(255, 255, 255); stroke-opacity: 1;"/><path class="point" transform="translate(33.78,140.62)" d="M2.42,0A2.42,2.42 0 1,1 0,-2.42A2.42,2.42 0 0,1 2.42,0Z" style="opacity: 0.7; stroke-width: 2px; fill: rgb(31, 119, 180); fill-opacity: 1; stroke: rgb(255, 255, 255); stroke-opacity: 1;"/><path class="point" transform="translate(33.78,97.31)" d="M1.21,0A1.21,1.21 0 1,1 0,-1.21A1.21,1.21 0 0,1 1.21,0Z" style="opacity: 0.7; stroke-width: 2px; fill: rgb(31, 119, 180); fill-opacity: 1; stroke: rgb(255, 255, 255); stroke-opacity: 1;"/><path class="point" transform="translate(33.78,54)" d="M0,0A0,0 0 1,1 0,-0A0,0 0 0,1 0,0Z" style="opacity: 0.7; stroke-width: 2px; fill: rgb(31, 119, 180); fill-opacity: 1; stroke: rgb(255, 255, 255); stroke-opacity: 1;"/></g><g class="text"/></g><g class="trace scatter trace5d7c83" style="stroke-miterlimit: 2; opacity: 1;"><g class="fills"/><g class="errorbars"/><g class="lines"/><g class="points"><path class="point" transform="translate(164.29,963.53)" d="M4.38,0A4.38,4.38 0 1,1 0,-4.38A4.38,4.38 0 0,1 4.38,0Z" style="opacity: 0.7; stroke-width: 2px; fill: rgb(255, 127, 14); fill-opacity: 1; stroke: rgb(255, 255, 255); stroke-opacity: 1;"/><path class="point" transform="translate(164.29,920.22)" d="M0.7,0A0.7,0.7 0 1,1 0,-0.7A0.7,0.7 0 0,1 0.7,0Z" style="opacity: 0.7; stroke-width: 2px; fill: rgb(255, 127, 14); fill-opacity: 1; stroke: rgb(255, 255, 255); stroke-opacity: 1;"/><path class="point" transform="translate(164.29,876.91)" d="M4.73,0A4.73,4.73 0 1,1 0,-4.73A4.73,4.73 0 0,1 4.73,0Z" style="opacity: 0.7; stroke-width: 2px; fill: rgb(255, 127, 14); fill-opacity: 1; stroke: rgb(255, 255, 255); stroke-opacity: 1;"/><path class="point" transform="translate(164.29,833.6)" d="M0.35,0A0.35,0.35 0 1,1 0,-0.35A0.35,0.35 0 0,1 0.35,0Z" style="opacity: 0.7; stroke-width: 2px; fill: rgb(255, 127, 14); fill-opacity: 1; stroke: rgb(255, 255, 255); stroke-opacity: 1;"/><path class="point" transform="translate(164.29,790.28)" d="M2.28,0A2.28,2.28 0 1,1 0,-2.28A2.28,2.28 0 0,1 2.28,0Z" style="opacity: 0.7; stroke-width: 2px; fill: rgb(255, 127, 14); fill-opacity: 1; stroke: rgb(255, 255, 255); stroke-opacity: 1;"/><path class="point" transform="translate(164.29,746.97)" d="M0.18,0A0.18,0.18 0 1,1 0,-0.18A0.18,0.18 0 0,1 0.18,0Z" style="opacity: 0.7; stroke-width: 2px; fill: rgb(255, 127, 14); fill-opacity: 1; stroke: rgb(255, 255, 255); stroke-opacity: 1;"/><path class="point" transform="translate(164.29,703.66)" d="M4.73,0A4.73,4.73 0 1,1 0,-4.73A4.73,4.73 0 0,1 4.73,0Z" style="opacity: 0.7; stroke-width: 2px; fill: rgb(255, 127, 14); fill-opacity: 1; stroke: rgb(255, 255, 255); stroke-opacity: 1;"/><path class="point" transform="translate(164.29,660.35)" d="M0.18,0A0.18,0.18 0 1,1 0,-0.18A0.18,0.18 0 0,1 0.18,0Z" style="opacity: 0.7; stroke-width: 2px; fill: rgb(255, 127, 14); fill-opacity: 1; stroke: rgb(255, 255, 255); stroke-opacity: 1;"/><path class="point" transform="translate(164.29,617.04)" d="M0,0A0,0 0 1,1 0,-0A0,0 0 0,1 0,0Z" style="opacity: 0.7; stroke-width: 2px; fill: rgb(255, 127, 14); fill-opacity: 1; stroke: rgb(255, 255, 255); stroke-opacity: 1;"/><path class="point" transform="translate(164.29,573.73)" d="M1.58,0A1.58,1.58 0 1,1 0,-1.58A1.58,1.58 0 0,1 1.58,0Z" style="opacity: 0.7; stroke-width: 2px; fill: rgb(255, 127, 14); fill-opacity: 1; stroke: rgb(255, 255, 255); stroke-opacity: 1;"/><path class="point" transform="translate(164.29,530.42)" d="M2.28,0A2.28,2.28 0 1,1 0,-2.28A2.28,2.28 0 0,1 2.28,0Z" style="opacity: 0.7; stroke-width: 2px; fill: rgb(255, 127, 14); fill-opacity: 1; stroke: rgb(255, 255, 255); stroke-opacity: 1;"/><path class="point" transform="translate(164.29,487.11)" d="M0.18,0A0.18,0.18 0 1,1 0,-0.18A0.18,0.18 0 0,1 0.18,0Z" style="opacity: 0.7; stroke-width: 2px; fill: rgb(255, 127, 14); fill-opacity: 1; stroke: rgb(255, 255, 255); stroke-opacity: 1;"/><path class="point" transform="translate(164.29,443.8)" d="M0.18,0A0.18,0.18 0 1,1 0,-0.18A0.18,0.18 0 0,1 0.18,0Z" style="opacity: 0.7; stroke-width: 2px; fill: rgb(255, 127, 14); fill-opacity: 1; stroke: rgb(255, 255, 255); stroke-opacity: 1;"/><path class="point" transform="translate(164.29,400.49)" d="M6.13,0A6.13,6.13 0 1,1 0,-6.13A6.13,6.13 0 0,1 6.13,0Z" style="opacity: 0.7; stroke-width: 2px; fill: rgb(255, 127, 14); fill-opacity: 1; stroke: rgb(255, 255, 255); stroke-opacity: 1;"/><path class="point" transform="translate(164.29,357.18)" d="M0.18,0A0.18,0.18 0 1,1 0,-0.18A0.18,0.18 0 0,1 0.18,0Z" style="opacity: 0.7; stroke-width: 2px; fill: rgb(255, 127, 14); fill-opacity: 1; stroke: rgb(255, 255, 255); stroke-opacity: 1;"/><path class="point" transform="translate(164.29,313.87)" d="M0.53,0A0.53,0.53 0 1,1 0,-0.53A0.53,0.53 0 0,1 0.53,0Z" style="opacity: 0.7; stroke-width: 2px; fill: rgb(255, 127, 14); fill-opacity: 1; stroke: rgb(255, 255, 255); stroke-opacity: 1;"/><path class="point" transform="translate(164.29,270.55)" d="M13.83,0A13.83,13.83 0 1,1 0,-13.83A13.83,13.83 0 0,1 13.83,0Z" style="opacity: 0.7; stroke-width: 2px; fill: rgb(255, 127, 14); fill-opacity: 1; stroke: rgb(255, 255, 255); stroke-opacity: 1;"/><path class="point" transform="translate(164.29,227.24)" d="M3.68,0A3.68,3.68 0 1,1 0,-3.68A3.68,3.68 0 0,1 3.68,0Z" style="opacity: 0.7; stroke-width: 2px; fill: rgb(255, 127, 14); fill-opacity: 1; stroke: rgb(255, 255, 255); stroke-opacity: 1;"/><path class="point" transform="translate(164.29,183.93)" d="M39.57,0A39.57,39.57 0 1,1 0,-39.57A39.57,39.57 0 0,1 39.57,0Z" style="opacity: 0.7; stroke-width: 2px; fill: rgb(255, 127, 14); fill-opacity: 1; stroke: rgb(255, 255, 255); stroke-opacity: 1;"/><path class="point" transform="translate(164.29,140.62)" d="M0.18,0A0.18,0.18 0 1,1 0,-0.18A0.18,0.18 0 0,1 0.18,0Z" style="opacity: 0.7; stroke-width: 2px; fill: rgb(255, 127, 14); fill-opacity: 1; stroke: rgb(255, 255, 255); stroke-opacity: 1;"/><path class="point" transform="translate(164.29,97.31)" d="M0,0A0,0 0 1,1 0,-0A0,0 0 0,1 0,0Z" style="opacity: 0.7; stroke-width: 2px; fill: rgb(255, 127, 14); fill-opacity: 1; stroke: rgb(255, 255, 255); stroke-opacity: 1;"/><path class="point" transform="translate(164.29,54)" d="M1.4,0A1.4,1.4 0 1,1 0,-1.4A1.4,1.4 0 0,1 1.4,0Z" style="opacity: 0.7; stroke-width: 2px; fill: rgb(255, 127, 14); fill-opacity: 1; stroke: rgb(255, 255, 255); stroke-opacity: 1;"/></g><g class="text"/></g></g></g><g class="overplot"/><path class="xlines-above crisp" d="M0,0" style="fill: none;"/><path class="ylines-above crisp" d="M0,0" style="fill: none;"/><g class="overlines-above"/><g class="xaxislayer-above"><g class="xtick"><text text-anchor="middle" x="0" y="1133" transform="translate(328.78,0)" style="font-family: 'Open Sans', verdana, arial, sans-serif; font-size: 12px; fill: rgb(42, 63, 95); fill-opacity: 1; white-space: pre; opacity: 1;">BAR_Set_percentage</text></g><g class="xtick"><text text-anchor="middle" x="0" y="1133" transform="translate(459.28999999999996,0)" style="font-family: 'Open Sans', verdana, arial, sans-serif; font-size: 12px; fill: rgb(42, 63, 95); fill-opacity: 1; white-space: pre; opacity: 1;">NBR_Set_percentage</text></g></g><g class="yaxislayer-above"><g class="ytick"><text text-anchor="end" x="294" y="4.199999999999999" transform="translate(0,1063.53)" style="font-family: 'Open Sans', verdana, arial, sans-serif; font-size: 12px; fill: rgb(42, 63, 95); fill-opacity: 1; white-space: pre; opacity: 1;">Alternate Carbon Metabolism</text></g><g class="ytick"><text text-anchor="end" x="294" y="4.199999999999999" transform="translate(0,1020.22)" style="font-family: 'Open Sans', verdana, arial, sans-serif; font-size: 12px; fill: rgb(42, 63, 95); fill-opacity: 1; white-space: pre; opacity: 1;">Arginine and Proline Metabolism</text></g><g class="ytick"><text text-anchor="end" x="294" y="4.199999999999999" transform="translate(0,976.91)" style="font-family: 'Open Sans', verdana, arial, sans-serif; font-size: 12px; fill: rgb(42, 63, 95); fill-opacity: 1; white-space: pre; opacity: 1;">Cell Envelope Biosynthesis</text></g><g class="ytick"><text text-anchor="end" x="294" y="4.199999999999999" transform="translate(0,933.6)" style="font-family: 'Open Sans', verdana, arial, sans-serif; font-size: 12px; fill: rgb(42, 63, 95); fill-opacity: 1; white-space: pre; opacity: 1;">Citric Acid Cycle</text></g><g class="ytick"><text text-anchor="end" x="294" y="4.199999999999999" transform="translate(0,890.28)" style="font-family: 'Open Sans', verdana, arial, sans-serif; font-size: 12px; fill: rgb(42, 63, 95); fill-opacity: 1; white-space: pre; opacity: 1;">Cofactor and Prosthetic Group Biosynthesis</text></g><g class="ytick"><text text-anchor="end" x="294" y="4.199999999999999" transform="translate(0,846.97)" style="font-family: 'Open Sans', verdana, arial, sans-serif; font-size: 12px; fill: rgb(42, 63, 95); fill-opacity: 1; white-space: pre; opacity: 1;">Extracellular exchange</text></g><g class="ytick"><text text-anchor="end" x="294" y="4.199999999999999" transform="translate(0,803.66)" style="font-family: 'Open Sans', verdana, arial, sans-serif; font-size: 12px; fill: rgb(42, 63, 95); fill-opacity: 1; white-space: pre; opacity: 1;">Glycerophospholipid Metabolism</text></g><g class="ytick"><text text-anchor="end" x="294" y="4.199999999999999" transform="translate(0,760.35)" style="font-family: 'Open Sans', verdana, arial, sans-serif; font-size: 12px; fill: rgb(42, 63, 95); fill-opacity: 1; white-space: pre; opacity: 1;">Glycolysis/Gluconeogenesis</text></g><g class="ytick"><text text-anchor="end" x="294" y="4.199999999999999" transform="translate(0,717.04)" style="font-family: 'Open Sans', verdana, arial, sans-serif; font-size: 12px; fill: rgb(42, 63, 95); fill-opacity: 1; white-space: pre; opacity: 1;">Histidine Metabolism</text></g><g class="ytick"><text text-anchor="end" x="294" y="4.199999999999999" transform="translate(0,673.73)" style="font-family: 'Open Sans', verdana, arial, sans-serif; font-size: 12px; fill: rgb(42, 63, 95); fill-opacity: 1; white-space: pre; opacity: 1;">Inorganic Ion Transport and Metabolism</text></g><g class="ytick"><text text-anchor="end" x="294" y="4.199999999999999" transform="translate(0,630.42)" style="font-family: 'Open Sans', verdana, arial, sans-serif; font-size: 12px; fill: rgb(42, 63, 95); fill-opacity: 1; white-space: pre; opacity: 1;">Lipopolysaccharide Biosynthesis / Recycling</text></g><g class="ytick"><text text-anchor="end" x="294" y="4.199999999999999" transform="translate(0,587.11)" style="font-family: 'Open Sans', verdana, arial, sans-serif; font-size: 12px; fill: rgb(42, 63, 95); fill-opacity: 1; white-space: pre; opacity: 1;">Membrane Lipid Metabolism</text></g><g class="ytick"><text text-anchor="end" x="294" y="4.199999999999999" transform="translate(0,543.8)" style="font-family: 'Open Sans', verdana, arial, sans-serif; font-size: 12px; fill: rgb(42, 63, 95); fill-opacity: 1; white-space: pre; opacity: 1;">Murein Biosynthesis</text></g><g class="ytick"><text text-anchor="end" x="294" y="4.199999999999999" transform="translate(0,500.49)" style="font-family: 'Open Sans', verdana, arial, sans-serif; font-size: 12px; fill: rgb(42, 63, 95); fill-opacity: 1; white-space: pre; opacity: 1;">Nucleotide Salvage Pathway</text></g><g class="ytick"><text text-anchor="end" x="294" y="4.199999999999999" transform="translate(0,457.18)" style="font-family: 'Open Sans', verdana, arial, sans-serif; font-size: 12px; fill: rgb(42, 63, 95); fill-opacity: 1; white-space: pre; opacity: 1;">Purine and Pyrimidine Biosynthesis</text></g><g class="ytick"><text text-anchor="end" x="294" y="4.199999999999999" transform="translate(0,413.87)" style="font-family: 'Open Sans', verdana, arial, sans-serif; font-size: 12px; fill: rgb(42, 63, 95); fill-opacity: 1; white-space: pre; opacity: 1;">Threonine and Lysine Metabolism</text></g><g class="ytick"><text text-anchor="end" x="294" y="4.199999999999999" transform="translate(0,370.55)" style="font-family: 'Open Sans', verdana, arial, sans-serif; font-size: 12px; fill: rgb(42, 63, 95); fill-opacity: 1; white-space: pre; opacity: 1;">Transport, Inner Membrane</text></g><g class="ytick"><text text-anchor="end" x="294" y="4.199999999999999" transform="translate(0,327.24)" style="font-family: 'Open Sans', verdana, arial, sans-serif; font-size: 12px; fill: rgb(42, 63, 95); fill-opacity: 1; white-space: pre; opacity: 1;">Transport, Outer Membrane</text></g><g class="ytick"><text text-anchor="end" x="294" y="4.199999999999999" transform="translate(0,283.93)" style="font-family: 'Open Sans', verdana, arial, sans-serif; font-size: 12px; fill: rgb(42, 63, 95); fill-opacity: 1; white-space: pre; opacity: 1;">Transport, Outer Membrane Porin</text></g><g class="ytick"><text text-anchor="end" x="294" y="4.199999999999999" transform="translate(0,240.62)" style="font-family: 'Open Sans', verdana, arial, sans-serif; font-size: 12px; fill: rgb(42, 63, 95); fill-opacity: 1; white-space: pre; opacity: 1;">Tyrosine, Tryptophan, and Phenylalanine Metabolism</text></g><g class="ytick"><text text-anchor="end" x="294" y="4.199999999999999" transform="translate(0,197.31)" style="font-family: 'Open Sans', verdana, arial, sans-serif; font-size: 12px; fill: rgb(42, 63, 95); fill-opacity: 1; white-space: pre; opacity: 1;">Valine, Leucine, and Isoleucine Metabolism</text></g><g class="ytick"><text text-anchor="end" x="294" y="4.199999999999999" transform="translate(0,154)" style="font-family: 'Open Sans', verdana, arial, sans-serif; font-size: 12px; fill: rgb(42, 63, 95); fill-opacity: 1; white-space: pre; opacity: 1;">tRNA Charging</text></g></g><g class="overaxes-above"/></g></g><g class="polarlayer"/><g class="smithlayer"/><g class="ternarylayer"/><g class="geolayer"/><g class="funnelarealayer"/><g class="pielayer"/><g class="iciclelayer"/><g class="treemaplayer"/><g class="sunburstlayer"/><g class="glimages"/><defs id="topdefs-a682a1"><g class="clips"/></defs><g class="layer-above"><g class="imagelayer"/><g class="shapelayer"/></g><g class="infolayer"><g class="g-gtitle"><text class="gtitle" x="330" y="60" text-anchor="middle" dy="0.7em" style="font-family: 'Open Sans', verdana, arial, sans-serif; font-size: 16px; fill: rgb(42, 63, 95); opacity: 1; font-weight: normal; white-space: pre;">Percentage of Subsystem functions in BARs &amp; NBRs</text></g><g class="g-xtitle"/><g class="g-ytitle"/></g></svg>