<svg class="main-svg" xmlns="http://www.w3.org/2000/svg" xmlns:xlink="http://www.w3.org/1999/xlink" width="564" height="1200" style="" viewBox="0 0 564 1200"><rect x="0" y="0" width="564" height="1200" style="fill: rgb(255, 255, 255); fill-opacity: 1;"/><defs id="defs-a4e4ba"><g class="clips"><clipPath id="clipa4e4baxyplot" class="plotclip"><rect width="230" height="1020"/></clipPath><clipPath class="axesclip" id="clipa4e4bax"><rect x="254" y="0" width="230" height="1200"/></clipPath><clipPath class="axesclip" id="clipa4e4bay"><rect x="0" y="100" width="564" height="1020"/></clipPath><clipPath class="axesclip" id="clipa4e4baxy"><rect x="254" y="100" width="230" height="1020"/></clipPath></g><g class="gradients"/><g class="patterns"/></defs><g class="bglayer"><rect class="bg" x="254" y="100" width="230" height="1020" style="fill: rgb(229, 236, 246); fill-opacity: 1; stroke-width: 0;"/></g><g class="layer-below"><g class="imagelayer"/><g class="shapelayer"/></g><g class="cartesianlayer"><g class="subplot xy"><g class="layer-subplot"><g class="shapelayer"/><g class="imagelayer"/></g><g class="minor-gridlayer"><g class="x"/><g class="y"/></g><g class="gridlayer"><g class="x"><path class="xgrid crisp" transform="translate(281.45,0)" d="M0,100v1020" style="stroke: rgb(255, 255, 255); stroke-opacity: 1; stroke-width: 1px;"/><path class="xgrid crisp" transform="translate(462.43,0)" d="M0,100v1020" style="stroke: rgb(255, 255, 255); stroke-opacity: 1; stroke-width: 1px;"/></g><g class="y"><path class="ygrid crisp" transform="translate(0,1066)" d="M254,0h230" style="stroke: rgb(255, 255, 255); stroke-opacity: 1; stroke-width: 1px;"/><path class="ygrid crisp" transform="translate(0,1037.62)" d="M254,0h230" style="stroke: rgb(255, 255, 255); stroke-opacity: 1; stroke-width: 1px;"/><path class="ygrid crisp" transform="translate(0,1009.25)" d="M254,0h230" style="stroke: rgb(255, 255, 255); stroke-opacity: 1; stroke-width: 1px;"/><path class="ygrid crisp" transform="translate(0,980.87)" d="M254,0h230" style="stroke: rgb(255, 255, 255); stroke-opacity: 1; stroke-width: 1px;"/><path class="ygrid crisp" transform="translate(0,952.49)" d="M254,0h230" style="stroke: rgb(255, 255, 255); stroke-opacity: 1; stroke-width: 1px;"/><path class="ygrid crisp" transform="translate(0,924.11)" d="M254,0h230" style="stroke: rgb(255, 255, 255); stroke-opacity: 1; stroke-width: 1px;"/><path class="ygrid crisp" transform="translate(0,895.74)" d="M254,0h230" style="stroke: rgb(255, 255, 255); stroke-opacity: 1; stroke-width: 1px;"/><path class="ygrid crisp" transform="translate(0,867.36)" d="M254,0h230" style="stroke: rgb(255, 255, 255); stroke-opacity: 1; stroke-width: 1px;"/><path class="ygrid crisp" transform="translate(0,838.98)" d="M254,0h230" style="stroke: rgb(255, 255, 255); stroke-opacity: 1; stroke-width: 1px;"/><path class="ygrid crisp" transform="translate(0,810.6)" d="M254,0h230" style="stroke: rgb(255, 255, 255); stroke-opacity: 1; stroke-width: 1px;"/><path class="ygrid crisp" transform="translate(0,782.23)" d="M254,0h230" style="stroke: rgb(255, 255, 255); stroke-opacity: 1; stroke-width: 1px;"/><path class="ygrid crisp" transform="translate(0,753.85)" d="M254,0h230" style="stroke: rgb(255, 255, 255); stroke-opacity: 1; stroke-width: 1px;"/><path class="ygrid crisp" transform="translate(0,725.47)" d="M254,0h230" style="stroke: rgb(255, 255, 255); stroke-opacity: 1; stroke-width: 1px;"/><path class="ygrid crisp" transform="translate(0,697.09)" d="M254,0h230" style="stroke: rgb(255, 255, 255); stroke-opacity: 1; stroke-width: 1px;"/><path class="ygrid crisp" transform="translate(0,668.72)" d="M254,0h230" style="stroke: rgb(255, 255, 255); stroke-opacity: 1; stroke-width: 1px;"/><path class="ygrid crisp" transform="translate(0,640.34)" d="M254,0h230" style="stroke: rgb(255, 255, 255); stroke-opacity: 1; stroke-width: 1px;"/><path class="ygrid crisp" transform="translate(0,611.96)" d="M254,0h230" style="stroke: rgb(255, 255, 255); stroke-opacity: 1; stroke-width: 1px;"/><path class="ygrid crisp" transform="translate(0,583.5799999999999)" d="M254,0h230" style="stroke: rgb(255, 255, 255); stroke-opacity: 1; stroke-width: 1px;"/><path class="ygrid crisp" transform="translate(0,555.21)" d="M254,0h230" style="stroke: rgb(255, 255, 255); stroke-opacity: 1; stroke-width: 1px;"/><path class="ygrid crisp" transform="translate(0,526.8299999999999)" d="M254,0h230" style="stroke: rgb(255, 255, 255); stroke-opacity: 1; stroke-width: 1px;"/><path class="ygrid crisp" transform="translate(0,498.45)" d="M254,0h230" style="stroke: rgb(255, 255, 255); stroke-opacity: 1; stroke-width: 1px;"/><path class="ygrid crisp" transform="translate(0,470.07)" d="M254,0h230" style="stroke: rgb(255, 255, 255); stroke-opacity: 1; stroke-width: 1px;"/><path class="ygrid crisp" transform="translate(0,441.7)" d="M254,0h230" style="stroke: rgb(255, 255, 255); stroke-opacity: 1; stroke-width: 1px;"/><path class="ygrid crisp" transform="translate(0,413.32)" d="M254,0h230" style="stroke: rgb(255, 255, 255); stroke-opacity: 1; stroke-width: 1px;"/><path class="ygrid crisp" transform="translate(0,384.94)" d="M254,0h230" style="stroke: rgb(255, 255, 255); stroke-opacity: 1; stroke-width: 1px;"/><path class="ygrid crisp" transform="translate(0,356.56)" d="M254,0h230" style="stroke: rgb(255, 255, 255); stroke-opacity: 1; stroke-width: 1px;"/><path class="ygrid crisp" transform="translate(0,328.19)" d="M254,0h230" style="stroke: rgb(255, 255, 255); stroke-opacity: 1; stroke-width: 1px;"/><path class="ygrid crisp" transform="translate(0,299.81)" d="M254,0h230" style="stroke: rgb(255, 255, 255); stroke-opacity: 1; stroke-width: 1px;"/><path class="ygrid crisp" transform="translate(0,271.43)" d="M254,0h230" style="stroke: rgb(255, 255, 255); stroke-opacity: 1; stroke-width: 1px;"/><path class="ygrid crisp" transform="translate(0,243.06)" d="M254,0h230" style="stroke: rgb(255, 255, 255); stroke-opacity: 1; stroke-width: 1px;"/><path class="ygrid crisp" transform="translate(0,214.68)" d="M254,0h230" style="stroke: rgb(255, 255, 255); stroke-opacity: 1; stroke-width: 1px;"/><path class="ygrid crisp" transform="translate(0,186.3)" d="M254,0h230" style="stroke: rgb(255, 255, 255); stroke-opacity: 1; stroke-width: 1px;"/><path class="ygrid crisp" transform="translate(0,157.92000000000002)" d="M254,0h230" style="stroke: rgb(255, 255, 255); stroke-opacity: 1; stroke-width: 1px;"/></g></g><g class="zerolinelayer"/><path class="xlines-below"/><path class="ylines-below"/><g class="overlines-below"/><g class="xaxislayer-below"/><g class="yaxislayer-below"/><g class="overaxes-below"/><g class="plot" transform="translate(254,100)" clip-path="url(#clipa4e4baxyplot)"><g class="scatterlayer mlayer"><g class="trace scatter tracec18914" style="stroke-miterlimit: 2; opacity: 1;"><g class="fills"/><g class="errorbars"/><g class="lines"/><g class="points"><path class="point" transform="translate(27.45,966)" d="M0.4,0A0.4,0.4 0 1,1 0,-0.4A0.4,0.4 0 0,1 0.4,0Z" style="opacity: 0.7; stroke-width: 2px; fill: rgb(31, 119, 180); fill-opacity: 1; stroke: rgb(255, 255, 255); stroke-opacity: 1;"/><path class="point" transform="translate(27.45,937.62)" d="M0,0A0,0 0 1,1 0,-0A0,0 0 0,1 0,0Z" style="opacity: 0.7; stroke-width: 2px; fill: rgb(31, 119, 180); fill-opacity: 1; stroke: rgb(255, 255, 255); stroke-opacity: 1;"/><path class="point" transform="translate(27.45,909.25)" d="M1.19,0A1.19,1.19 0 1,1 0,-1.19A1.19,1.19 0 0,1 1.19,0Z" style="opacity: 0.7; stroke-width: 2px; fill: rgb(31, 119, 180); fill-opacity: 1; stroke: rgb(255, 255, 255); stroke-opacity: 1;"/><path class="point" transform="translate(27.45,880.87)" d="M1.19,0A1.19,1.19 0 1,1 0,-1.19A1.19,1.19 0 0,1 1.19,0Z" style="opacity: 0.7; stroke-width: 2px; fill: rgb(31, 119, 180); fill-opacity: 1; stroke: rgb(255, 255, 255); stroke-opacity: 1;"/><path class="point" transform="translate(27.45,852.49)" d="M1.78,0A1.78,1.78 0 1,1 0,-1.78A1.78,1.78 0 0,1 1.78,0Z" style="opacity: 0.7; stroke-width: 2px; fill: rgb(31, 119, 180); fill-opacity: 1; stroke: rgb(255, 255, 255); stroke-opacity: 1;"/><path class="point" transform="translate(27.45,824.11)" d="M0,0A0,0 0 1,1 0,-0A0,0 0 0,1 0,0Z" style="opacity: 0.7; stroke-width: 2px; fill: rgb(31, 119, 180); fill-opacity: 1; stroke: rgb(255, 255, 255); stroke-opacity: 1;"/><path class="point" transform="translate(27.45,795.74)" d="M2.57,0A2.57,2.57 0 1,1 0,-2.57A2.57,2.57 0 0,1 2.57,0Z" style="opacity: 0.7; stroke-width: 2px; fill: rgb(31, 119, 180); fill-opacity: 1; stroke: rgb(255, 255, 255); stroke-opacity: 1;"/><path class="point" transform="translate(27.45,767.36)" d="M0.3,0A0.3,0.3 0 1,1 0,-0.3A0.3,0.3 0 0,1 0.3,0Z" style="opacity: 0.7; stroke-width: 2px; fill: rgb(31, 119, 180); fill-opacity: 1; stroke: rgb(255, 255, 255); stroke-opacity: 1;"/><path class="point" transform="translate(27.45,738.98)" d="M0.79,0A0.79,0.79 0 1,1 0,-0.79A0.79,0.79 0 0,1 0.79,0Z" style="opacity: 0.7; stroke-width: 2px; fill: rgb(31, 119, 180); fill-opacity: 1; stroke: rgb(255, 255, 255); stroke-opacity: 1;"/><path class="point" transform="translate(27.45,710.6)" d="M2.77,0A2.77,2.77 0 1,1 0,-2.77A2.77,2.77 0 0,1 2.77,0Z" style="opacity: 0.7; stroke-width: 2px; fill: rgb(31, 119, 180); fill-opacity: 1; stroke: rgb(255, 255, 255); stroke-opacity: 1;"/><path class="point" transform="translate(27.45,682.23)" d="M3.16,0A3.16,3.16 0 1,1 0,-3.16A3.16,3.16 0 0,1 3.16,0Z" style="opacity: 0.7; stroke-width: 2px; fill: rgb(31, 119, 180); fill-opacity: 1; stroke: rgb(255, 255, 255); stroke-opacity: 1;"/><path class="point" transform="translate(27.45,653.85)" d="M0.89,0A0.89,0.89 0 1,1 0,-0.89A0.89,0.89 0 0,1 0.89,0Z" style="opacity: 0.7; stroke-width: 2px; fill: rgb(31, 119, 180); fill-opacity: 1; stroke: rgb(255, 255, 255); stroke-opacity: 1;"/><path class="point" transform="translate(27.45,625.47)" d="M1.29,0A1.29,1.29 0 1,1 0,-1.29A1.29,1.29 0 0,1 1.29,0Z" style="opacity: 0.7; stroke-width: 2px; fill: rgb(31, 119, 180); fill-opacity: 1; stroke: rgb(255, 255, 255); stroke-opacity: 1;"/><path class="point" transform="translate(27.45,597.09)" d="M1.29,0A1.29,1.29 0 1,1 0,-1.29A1.29,1.29 0 0,1 1.29,0Z" style="opacity: 0.7; stroke-width: 2px; fill: rgb(31, 119, 180); fill-opacity: 1; stroke: rgb(255, 255, 255); stroke-opacity: 1;"/><path class="point" transform="translate(27.45,568.72)" d="M2.67,0A2.67,2.67 0 1,1 0,-2.67A2.67,2.67 0 0,1 2.67,0Z" style="opacity: 0.7; stroke-width: 2px; fill: rgb(31, 119, 180); fill-opacity: 1; stroke: rgb(255, 255, 255); stroke-opacity: 1;"/><path class="point" transform="translate(27.45,540.34)" d="M2.08,0A2.08,2.08 0 1,1 0,-2.08A2.08,2.08 0 0,1 2.08,0Z" style="opacity: 0.7; stroke-width: 2px; fill: rgb(31, 119, 180); fill-opacity: 1; stroke: rgb(255, 255, 255); stroke-opacity: 1;"/><path class="point" transform="translate(27.45,511.96)" d="M12.76,0A12.76,12.76 0 1,1 0,-12.76A12.76,12.76 0 0,1 12.76,0Z" style="opacity: 0.7; stroke-width: 2px; fill: rgb(31, 119, 180); fill-opacity: 1; stroke: rgb(255, 255, 255); stroke-opacity: 1;"/><path class="point" transform="translate(27.45,483.58)" d="M0.4,0A0.4,0.4 0 1,1 0,-0.4A0.4,0.4 0 0,1 0.4,0Z" style="opacity: 0.7; stroke-width: 2px; fill: rgb(31, 119, 180); fill-opacity: 1; stroke: rgb(255, 255, 255); stroke-opacity: 1;"/><path class="point" transform="translate(27.45,455.21)" d="M1.09,0A1.09,1.09 0 1,1 0,-1.09A1.09,1.09 0 0,1 1.09,0Z" style="opacity: 0.7; stroke-width: 2px; fill: rgb(31, 119, 180); fill-opacity: 1; stroke: rgb(255, 255, 255); stroke-opacity: 1;"/><path class="point" transform="translate(27.45,426.83)" d="M0.4,0A0.4,0.4 0 1,1 0,-0.4A0.4,0.4 0 0,1 0.4,0Z" style="opacity: 0.7; stroke-width: 2px; fill: rgb(31, 119, 180); fill-opacity: 1; stroke: rgb(255, 255, 255); stroke-opacity: 1;"/><path class="point" transform="translate(27.45,398.45)" d="M0.99,0A0.99,0.99 0 1,1 0,-0.99A0.99,0.99 0 0,1 0.99,0Z" style="opacity: 0.7; stroke-width: 2px; fill: rgb(31, 119, 180); fill-opacity: 1; stroke: rgb(255, 255, 255); stroke-opacity: 1;"/><path class="point" transform="translate(27.45,370.07)" d="M2.37,0A2.37,2.37 0 1,1 0,-2.37A2.37,2.37 0 0,1 2.37,0Z" style="opacity: 0.7; stroke-width: 2px; fill: rgb(31, 119, 180); fill-opacity: 1; stroke: rgb(255, 255, 255); stroke-opacity: 1;"/><path class="point" transform="translate(27.45,341.7)" d="M1.98,0A1.98,1.98 0 1,1 0,-1.98A1.98,1.98 0 0,1 1.98,0Z" style="opacity: 0.7; stroke-width: 2px; fill: rgb(31, 119, 180); fill-opacity: 1; stroke: rgb(255, 255, 255); stroke-opacity: 1;"/><path class="point" transform="translate(27.45,313.32)" d="M1.09,0A1.09,1.09 0 1,1 0,-1.09A1.09,1.09 0 0,1 1.09,0Z" style="opacity: 0.7; stroke-width: 2px; fill: rgb(31, 119, 180); fill-opacity: 1; stroke: rgb(255, 255, 255); stroke-opacity: 1;"/><path class="point" transform="translate(27.45,284.94)" d="M3.76,0A3.76,3.76 0 1,1 0,-3.76A3.76,3.76 0 0,1 3.76,0Z" style="opacity: 0.7; stroke-width: 2px; fill: rgb(31, 119, 180); fill-opacity: 1; stroke: rgb(255, 255, 255); stroke-opacity: 1;"/><path class="point" transform="translate(27.45,256.56)" d="M0.99,0A0.99,0.99 0 1,1 0,-0.99A0.99,0.99 0 0,1 0.99,0Z" style="opacity: 0.7; stroke-width: 2px; fill: rgb(31, 119, 180); fill-opacity: 1; stroke: rgb(255, 255, 255); stroke-opacity: 1;"/><path class="point" transform="translate(27.45,228.19)" d="M2.37,0A2.37,2.37 0 1,1 0,-2.37A2.37,2.37 0 0,1 2.37,0Z" style="opacity: 0.7; stroke-width: 2px; fill: rgb(31, 119, 180); fill-opacity: 1; stroke: rgb(255, 255, 255); stroke-opacity: 1;"/><path class="point" transform="translate(27.45,199.81)" d="M3.46,0A3.46,3.46 0 1,1 0,-3.46A3.46,3.46 0 0,1 3.46,0Z" style="opacity: 0.7; stroke-width: 2px; fill: rgb(31, 119, 180); fill-opacity: 1; stroke: rgb(255, 255, 255); stroke-opacity: 1;"/><path class="point" transform="translate(27.45,171.43)" d="M1.29,0A1.29,1.29 0 1,1 0,-1.29A1.29,1.29 0 0,1 1.29,0Z" style="opacity: 0.7; stroke-width: 2px; fill: rgb(31, 119, 180); fill-opacity: 1; stroke: rgb(255, 255, 255); stroke-opacity: 1;"/><path class="point" transform="translate(27.45,143.06)" d="M0.4,0A0.4,0.4 0 1,1 0,-0.4A0.4,0.4 0 0,1 0.4,0Z" style="opacity: 0.7; stroke-width: 2px; fill: rgb(31, 119, 180); fill-opacity: 1; stroke: rgb(255, 255, 255); stroke-opacity: 1;"/><path class="point" transform="translate(27.45,114.68)" d="M1.48,0A1.48,1.48 0 1,1 0,-1.48A1.48,1.48 0 0,1 1.48,0Z" style="opacity: 0.7; stroke-width: 2px; fill: rgb(31, 119, 180); fill-opacity: 1; stroke: rgb(255, 255, 255); stroke-opacity: 1;"/><path class="point" transform="translate(27.45,86.3)" d="M2.47,0A2.47,2.47 0 1,1 0,-2.47A2.47,2.47 0 0,1 2.47,0Z" style="opacity: 0.7; stroke-width: 2px; fill: rgb(31, 119, 180); fill-opacity: 1; stroke: rgb(255, 255, 255); stroke-opacity: 1;"/><path class="point" transform="translate(27.45,57.92)" d="M5.54,0A5.54,5.54 0 1,1 0,-5.54A5.54,5.54 0 0,1 5.54,0Z" style="opacity: 0.7; stroke-width: 2px; fill: rgb(31, 119, 180); fill-opacity: 1; stroke: rgb(255, 255, 255); stroke-opacity: 1;"/></g><g class="text"/></g><g class="trace scatter trace2023a9" style="stroke-miterlimit: 2; opacity: 1;"><g class="fills"/><g class="errorbars"/><g class="lines"/><g class="points"><path class="point" transform="translate(208.43,966)" d="M1.22,0A1.22,1.22 0 1,1 0,-1.22A1.22,1.22 0 0,1 1.22,0Z" style="opacity: 0.7; stroke-width: 2px; fill: rgb(255, 127, 14); fill-opacity: 1; stroke: rgb(255, 255, 255); stroke-opacity: 1;"/><path class="point" transform="translate(208.43,937.62)" d="M1.22,0A1.22,1.22 0 1,1 0,-1.22A1.22,1.22 0 0,1 1.22,0Z" style="opacity: 0.7; stroke-width: 2px; fill: rgb(255, 127, 14); fill-opacity: 1; stroke: rgb(255, 255, 255); stroke-opacity: 1;"/><path class="point" transform="translate(208.43,909.25)" d="M1.82,0A1.82,1.82 0 1,1 0,-1.82A1.82,1.82 0 0,1 1.82,0Z" style="opacity: 0.7; stroke-width: 2px; fill: rgb(255, 127, 14); fill-opacity: 1; stroke: rgb(255, 255, 255); stroke-opacity: 1;"/><path class="point" transform="translate(208.43,880.87)" d="M2.74,0A2.74,2.74 0 1,1 0,-2.74A2.74,2.74 0 0,1 2.74,0Z" style="opacity: 0.7; stroke-width: 2px; fill: rgb(255, 127, 14); fill-opacity: 1; stroke: rgb(255, 255, 255); stroke-opacity: 1;"/><path class="point" transform="translate(208.43,852.49)" d="M1.37,0A1.37,1.37 0 1,1 0,-1.37A1.37,1.37 0 0,1 1.37,0Z" style="opacity: 0.7; stroke-width: 2px; fill: rgb(255, 127, 14); fill-opacity: 1; stroke: rgb(255, 255, 255); stroke-opacity: 1;"/><path class="point" transform="translate(208.43,824.11)" d="M0.61,0A0.61,0.61 0 1,1 0,-0.61A0.61,0.61 0 0,1 0.61,0Z" style="opacity: 0.7; stroke-width: 2px; fill: rgb(255, 127, 14); fill-opacity: 1; stroke: rgb(255, 255, 255); stroke-opacity: 1;"/><path class="point" transform="translate(208.43,795.74)" d="M1.67,0A1.67,1.67 0 1,1 0,-1.67A1.67,1.67 0 0,1 1.67,0Z" style="opacity: 0.7; stroke-width: 2px; fill: rgb(255, 127, 14); fill-opacity: 1; stroke: rgb(255, 255, 255); stroke-opacity: 1;"/><path class="point" transform="translate(208.43,767.36)" d="M0.61,0A0.61,0.61 0 1,1 0,-0.61A0.61,0.61 0 0,1 0.61,0Z" style="opacity: 0.7; stroke-width: 2px; fill: rgb(255, 127, 14); fill-opacity: 1; stroke: rgb(255, 255, 255); stroke-opacity: 1;"/><path class="point" transform="translate(208.43,738.98)" d="M0.61,0A0.61,0.61 0 1,1 0,-0.61A0.61,0.61 0 0,1 0.61,0Z" style="opacity: 0.7; stroke-width: 2px; fill: rgb(255, 127, 14); fill-opacity: 1; stroke: rgb(255, 255, 255); stroke-opacity: 1;"/><path class="point" transform="translate(208.43,710.6)" d="M4.1,0A4.1,4.1 0 1,1 0,-4.1A4.1,4.1 0 0,1 4.1,0Z" style="opacity: 0.7; stroke-width: 2px; fill: rgb(255, 127, 14); fill-opacity: 1; stroke: rgb(255, 255, 255); stroke-opacity: 1;"/><path class="point" transform="translate(208.43,682.23)" d="M2.89,0A2.89,2.89 0 1,1 0,-2.89A2.89,2.89 0 0,1 2.89,0Z" style="opacity: 0.7; stroke-width: 2px; fill: rgb(255, 127, 14); fill-opacity: 1; stroke: rgb(255, 255, 255); stroke-opacity: 1;"/><path class="point" transform="translate(208.43,653.85)" d="M1.52,0A1.52,1.52 0 1,1 0,-1.52A1.52,1.52 0 0,1 1.52,0Z" style="opacity: 0.7; stroke-width: 2px; fill: rgb(255, 127, 14); fill-opacity: 1; stroke: rgb(255, 255, 255); stroke-opacity: 1;"/><path class="point" transform="translate(208.43,625.47)" d="M1.37,0A1.37,1.37 0 1,1 0,-1.37A1.37,1.37 0 0,1 1.37,0Z" style="opacity: 0.7; stroke-width: 2px; fill: rgb(255, 127, 14); fill-opacity: 1; stroke: rgb(255, 255, 255); stroke-opacity: 1;"/><path class="point" transform="translate(208.43,597.09)" d="M1.06,0A1.06,1.06 0 1,1 0,-1.06A1.06,1.06 0 0,1 1.06,0Z" style="opacity: 0.7; stroke-width: 2px; fill: rgb(255, 127, 14); fill-opacity: 1; stroke: rgb(255, 255, 255); stroke-opacity: 1;"/><path class="point" transform="translate(208.43,568.72)" d="M1.98,0A1.98,1.98 0 1,1 0,-1.98A1.98,1.98 0 0,1 1.98,0Z" style="opacity: 0.7; stroke-width: 2px; fill: rgb(255, 127, 14); fill-opacity: 1; stroke: rgb(255, 255, 255); stroke-opacity: 1;"/><path class="point" transform="translate(208.43,540.34)" d="M1.82,0A1.82,1.82 0 1,1 0,-1.82A1.82,1.82 0 0,1 1.82,0Z" style="opacity: 0.7; stroke-width: 2px; fill: rgb(255, 127, 14); fill-opacity: 1; stroke: rgb(255, 255, 255); stroke-opacity: 1;"/><path class="point" transform="translate(208.43,511.96)" d="M8.06,0A8.06,8.06 0 1,1 0,-8.06A8.06,8.06 0 0,1 8.06,0Z" style="opacity: 0.7; stroke-width: 2px; fill: rgb(255, 127, 14); fill-opacity: 1; stroke: rgb(255, 255, 255); stroke-opacity: 1;"/><path class="point" transform="translate(208.43,483.58)" d="M0.76,0A0.76,0.76 0 1,1 0,-0.76A0.76,0.76 0 0,1 0.76,0Z" style="opacity: 0.7; stroke-width: 2px; fill: rgb(255, 127, 14); fill-opacity: 1; stroke: rgb(255, 255, 255); stroke-opacity: 1;"/><path class="point" transform="translate(208.43,455.21)" d="M1.06,0A1.06,1.06 0 1,1 0,-1.06A1.06,1.06 0 0,1 1.06,0Z" style="opacity: 0.7; stroke-width: 2px; fill: rgb(255, 127, 14); fill-opacity: 1; stroke: rgb(255, 255, 255); stroke-opacity: 1;"/><path class="point" transform="translate(208.43,426.83)" d="M0.76,0A0.76,0.76 0 1,1 0,-0.76A0.76,0.76 0 0,1 0.76,0Z" style="opacity: 0.7; stroke-width: 2px; fill: rgb(255, 127, 14); fill-opacity: 1; stroke: rgb(255, 255, 255); stroke-opacity: 1;"/><path class="point" transform="translate(208.43,398.45)" d="M0.61,0A0.61,0.61 0 1,1 0,-0.61A0.61,0.61 0 0,1 0.61,0Z" style="opacity: 0.7; stroke-width: 2px; fill: rgb(255, 127, 14); fill-opacity: 1; stroke: rgb(255, 255, 255); stroke-opacity: 1;"/><path class="point" transform="translate(208.43,370.07)" d="M0.15,0A0.15,0.15 0 1,1 0,-0.15A0.15,0.15 0 0,1 0.15,0Z" style="opacity: 0.7; stroke-width: 2px; fill: rgb(255, 127, 14); fill-opacity: 1; stroke: rgb(255, 255, 255); stroke-opacity: 1;"/><path class="point" transform="translate(208.43,341.7)" d="M0.15,0A0.15,0.15 0 1,1 0,-0.15A0.15,0.15 0 0,1 0.15,0Z" style="opacity: 0.7; stroke-width: 2px; fill: rgb(255, 127, 14); fill-opacity: 1; stroke: rgb(255, 255, 255); stroke-opacity: 1;"/><path class="point" transform="translate(208.43,313.32)" d="M0,0A0,0 0 1,1 0,-0A0,0 0 0,1 0,0Z" style="opacity: 0.7; stroke-width: 2px; fill: rgb(255, 127, 14); fill-opacity: 1; stroke: rgb(255, 255, 255); stroke-opacity: 1;"/><path class="point" transform="translate(208.43,284.94)" d="M5.78,0A5.78,5.78 0 1,1 0,-5.78A5.78,5.78 0 0,1 5.78,0Z" style="opacity: 0.7; stroke-width: 2px; fill: rgb(255, 127, 14); fill-opacity: 1; stroke: rgb(255, 255, 255); stroke-opacity: 1;"/><path class="point" transform="translate(208.43,256.56)" d="M1.22,0A1.22,1.22 0 1,1 0,-1.22A1.22,1.22 0 0,1 1.22,0Z" style="opacity: 0.7; stroke-width: 2px; fill: rgb(255, 127, 14); fill-opacity: 1; stroke: rgb(255, 255, 255); stroke-opacity: 1;"/><path class="point" transform="translate(208.43,228.19)" d="M2.89,0A2.89,2.89 0 1,1 0,-2.89A2.89,2.89 0 0,1 2.89,0Z" style="opacity: 0.7; stroke-width: 2px; fill: rgb(255, 127, 14); fill-opacity: 1; stroke: rgb(255, 255, 255); stroke-opacity: 1;"/><path class="point" transform="translate(208.43,199.81)" d="M2.74,0A2.74,2.74 0 1,1 0,-2.74A2.74,2.74 0 0,1 2.74,0Z" style="opacity: 0.7; stroke-width: 2px; fill: rgb(255, 127, 14); fill-opacity: 1; stroke: rgb(255, 255, 255); stroke-opacity: 1;"/><path class="point" transform="translate(208.43,171.43)" d="M0.76,0A0.76,0.76 0 1,1 0,-0.76A0.76,0.76 0 0,1 0.76,0Z" style="opacity: 0.7; stroke-width: 2px; fill: rgb(255, 127, 14); fill-opacity: 1; stroke: rgb(255, 255, 255); stroke-opacity: 1;"/><path class="point" transform="translate(208.43,143.06)" d="M1.82,0A1.82,1.82 0 1,1 0,-1.82A1.82,1.82 0 0,1 1.82,0Z" style="opacity: 0.7; stroke-width: 2px; fill: rgb(255, 127, 14); fill-opacity: 1; stroke: rgb(255, 255, 255); stroke-opacity: 1;"/><path class="point" transform="translate(208.43,114.68)" d="M0.61,0A0.61,0.61 0 1,1 0,-0.61A0.61,0.61 0 0,1 0.61,0Z" style="opacity: 0.7; stroke-width: 2px; fill: rgb(255, 127, 14); fill-opacity: 1; stroke: rgb(255, 255, 255); stroke-opacity: 1;"/><path class="point" transform="translate(208.43,86.3)" d="M2.13,0A2.13,2.13 0 1,1 0,-2.13A2.13,2.13 0 0,1 2.13,0Z" style="opacity: 0.7; stroke-width: 2px; fill: rgb(255, 127, 14); fill-opacity: 1; stroke: rgb(255, 255, 255); stroke-opacity: 1;"/><path class="point" transform="translate(208.43,57.92)" d="M3.04,0A3.04,3.04 0 1,1 0,-3.04A3.04,3.04 0 0,1 3.04,0Z" style="opacity: 0.7; stroke-width: 2px; fill: rgb(255, 127, 14); fill-opacity: 1; stroke: rgb(255, 255, 255); stroke-opacity: 1;"/></g><g class="text"/></g></g></g><g class="overplot"/><path class="xlines-above crisp" d="M0,0" style="fill: none;"/><path class="ylines-above crisp" d="M0,0" style="fill: none;"/><g class="overlines-above"/><g class="xaxislayer-above"><g class="xtick"><text text-anchor="middle" x="0" y="1133" transform="translate(281.45,0)" style="font-family: 'Open Sans', verdana, arial, sans-serif; font-size: 12px; fill: rgb(42, 63, 95); fill-opacity: 1; white-space: pre; opacity: 1;">BAR_Set_percentage</text></g><g class="xtick"><text text-anchor="middle" x="0" y="1133" transform="translate(462.43,0)" style="font-family: 'Open Sans', verdana, arial, sans-serif; font-size: 12px; fill: rgb(42, 63, 95); fill-opacity: 1; white-space: pre; opacity: 1;">NBR_Set_percentage</text></g></g><g class="yaxislayer-above"><g class="ytick"><text text-anchor="end" x="253" y="4.199999999999999" transform="translate(0,1066)" style="font-family: 'Open Sans', verdana, arial, sans-serif; font-size: 12px; fill: rgb(42, 63, 95); fill-opacity: 1; white-space: pre; opacity: 1;">Alcohol/aromatics catabolism</text></g><g class="ytick"><text text-anchor="end" x="253" y="4.199999999999999" transform="translate(0,1037.62)" style="font-family: 'Open Sans', verdana, arial, sans-serif; font-size: 12px; fill: rgb(42, 63, 95); fill-opacity: 1; white-space: pre; opacity: 1;">Alginate biosynthesis</text></g><g class="ytick"><text text-anchor="end" x="253" y="4.199999999999999" transform="translate(0,1009.25)" style="font-family: 'Open Sans', verdana, arial, sans-serif; font-size: 12px; fill: rgb(42, 63, 95); fill-opacity: 1; white-space: pre; opacity: 1;">Amino acid transportation</text></g><g class="ytick"><text text-anchor="end" x="253" y="4.199999999999999" transform="translate(0,980.87)" style="font-family: 'Open Sans', verdana, arial, sans-serif; font-size: 12px; fill: rgb(42, 63, 95); fill-opacity: 1; white-space: pre; opacity: 1;">Aromatic acid catabolism</text></g><g class="ytick"><text text-anchor="end" x="253" y="4.199999999999999" transform="translate(0,952.49)" style="font-family: 'Open Sans', verdana, arial, sans-serif; font-size: 12px; fill: rgb(42, 63, 95); fill-opacity: 1; white-space: pre; opacity: 1;">C2 carbon metabolism</text></g><g class="ytick"><text text-anchor="end" x="253" y="4.199999999999999" transform="translate(0,924.11)" style="font-family: 'Open Sans', verdana, arial, sans-serif; font-size: 12px; fill: rgb(42, 63, 95); fill-opacity: 1; white-space: pre; opacity: 1;">Citrate transportation</text></g><g class="ytick"><text text-anchor="end" x="253" y="4.199999999999999" transform="translate(0,895.74)" style="font-family: 'Open Sans', verdana, arial, sans-serif; font-size: 12px; fill: rgb(42, 63, 95); fill-opacity: 1; white-space: pre; opacity: 1;">Fatty acid catabolism</text></g><g class="ytick"><text text-anchor="end" x="253" y="4.199999999999999" transform="translate(0,867.36)" style="font-family: 'Open Sans', verdana, arial, sans-serif; font-size: 12px; fill: rgb(42, 63, 95); fill-opacity: 1; white-space: pre; opacity: 1;">FleQ related exporters, aldehyde stress</text></g><g class="ytick"><text text-anchor="end" x="253" y="4.199999999999999" transform="translate(0,838.98)" style="font-family: 'Open Sans', verdana, arial, sans-serif; font-size: 12px; fill: rgb(42, 63, 95); fill-opacity: 1; white-space: pre; opacity: 1;">Galactose ALE specific</text></g><g class="ytick"><text text-anchor="end" x="253" y="4.199999999999999" transform="translate(0,810.6)" style="font-family: 'Open Sans', verdana, arial, sans-serif; font-size: 12px; fill: rgb(42, 63, 95); fill-opacity: 1; white-space: pre; opacity: 1;">Glycine Betaine Catabolism</text></g><g class="ytick"><text text-anchor="end" x="253" y="4.199999999999999" transform="translate(0,782.23)" style="font-family: 'Open Sans', verdana, arial, sans-serif; font-size: 12px; fill: rgb(42, 63, 95); fill-opacity: 1; white-space: pre; opacity: 1;">Glycine metabolism</text></g><g class="ytick"><text text-anchor="end" x="253" y="4.199999999999999" transform="translate(0,753.85)" style="font-family: 'Open Sans', verdana, arial, sans-serif; font-size: 12px; fill: rgb(42, 63, 95); fill-opacity: 1; white-space: pre; opacity: 1;">Histidine metabolism</text></g><g class="ytick"><text text-anchor="end" x="253" y="4.199999999999999" transform="translate(0,725.47)" style="font-family: 'Open Sans', verdana, arial, sans-serif; font-size: 12px; fill: rgb(42, 63, 95); fill-opacity: 1; white-space: pre; opacity: 1;">Metal related response</text></g><g class="ytick"><text text-anchor="end" x="253" y="4.199999999999999" transform="translate(0,697.09)" style="font-family: 'Open Sans', verdana, arial, sans-serif; font-size: 12px; fill: rgb(42, 63, 95); fill-opacity: 1; white-space: pre; opacity: 1;">Muconate production study</text></g><g class="ytick"><text text-anchor="end" x="253" y="4.199999999999999" transform="translate(0,668.72)" style="font-family: 'Open Sans', verdana, arial, sans-serif; font-size: 12px; fill: rgb(42, 63, 95); fill-opacity: 1; white-space: pre; opacity: 1;">Multiple stress response</text></g><g class="ytick"><text text-anchor="end" x="253" y="4.199999999999999" transform="translate(0,640.34)" style="font-family: 'Open Sans', verdana, arial, sans-serif; font-size: 12px; fill: rgb(42, 63, 95); fill-opacity: 1; white-space: pre; opacity: 1;">Noise, PP_0943, hypothetical protein, 393 bp</text></g><g class="ytick"><text text-anchor="end" x="253" y="4.199999999999999" transform="translate(0,611.96)" style="font-family: 'Open Sans', verdana, arial, sans-serif; font-size: 12px; fill: rgb(42, 63, 95); fill-opacity: 1; white-space: pre; opacity: 1;">Null</text></g><g class="ytick"><text text-anchor="end" x="253" y="4.199999999999999" transform="translate(0,583.5799999999999)" style="font-family: 'Open Sans', verdana, arial, sans-serif; font-size: 12px; fill: rgb(42, 63, 95); fill-opacity: 1; white-space: pre; opacity: 1;">Osmotic stress response</text></g><g class="ytick"><text text-anchor="end" x="253" y="4.199999999999999" transform="translate(0,555.21)" style="font-family: 'Open Sans', verdana, arial, sans-serif; font-size: 12px; fill: rgb(42, 63, 95); fill-opacity: 1; white-space: pre; opacity: 1;">Oxidative stress</text></g><g class="ytick"><text text-anchor="end" x="253" y="4.199999999999999" transform="translate(0,526.8299999999999)" style="font-family: 'Open Sans', verdana, arial, sans-serif; font-size: 12px; fill: rgb(42, 63, 95); fill-opacity: 1; white-space: pre; opacity: 1;">Pentose and glucuronate interconversions</text></g><g class="ytick"><text text-anchor="end" x="253" y="4.199999999999999" transform="translate(0,498.45)" style="font-family: 'Open Sans', verdana, arial, sans-serif; font-size: 12px; fill: rgb(42, 63, 95); fill-opacity: 1; white-space: pre; opacity: 1;">Polyamine metabolism</text></g><g class="ytick"><text text-anchor="end" x="253" y="4.199999999999999" transform="translate(0,470.07)" style="font-family: 'Open Sans', verdana, arial, sans-serif; font-size: 12px; fill: rgb(42, 63, 95); fill-opacity: 1; white-space: pre; opacity: 1;">Protein synthesis</text></g><g class="ytick"><text text-anchor="end" x="253" y="4.199999999999999" transform="translate(0,441.7)" style="font-family: 'Open Sans', verdana, arial, sans-serif; font-size: 12px; fill: rgb(42, 63, 95); fill-opacity: 1; white-space: pre; opacity: 1;">Pyoverdine biosynthesis</text></g><g class="ytick"><text text-anchor="end" x="253" y="4.199999999999999" transform="translate(0,413.32)" style="font-family: 'Open Sans', verdana, arial, sans-serif; font-size: 12px; fill: rgb(42, 63, 95); fill-opacity: 1; white-space: pre; opacity: 1;">Redox state homeostasis</text></g><g class="ytick"><text text-anchor="end" x="253" y="4.199999999999999" transform="translate(0,384.94)" style="font-family: 'Open Sans', verdana, arial, sans-serif; font-size: 12px; fill: rgb(42, 63, 95); fill-opacity: 1; white-space: pre; opacity: 1;">Ribose and lipid catabolism</text></g><g class="ytick"><text text-anchor="end" x="253" y="4.199999999999999" transform="translate(0,356.56)" style="font-family: 'Open Sans', verdana, arial, sans-serif; font-size: 12px; fill: rgb(42, 63, 95); fill-opacity: 1; white-space: pre; opacity: 1;">Ribose, nicotinic acid catabolism</text></g><g class="ytick"><text text-anchor="end" x="253" y="4.199999999999999" transform="translate(0,328.19)" style="font-family: 'Open Sans', verdana, arial, sans-serif; font-size: 12px; fill: rgb(42, 63, 95); fill-opacity: 1; white-space: pre; opacity: 1;">Starvation response</text></g><g class="ytick"><text text-anchor="end" x="253" y="4.199999999999999" transform="translate(0,299.81)" style="font-family: 'Open Sans', verdana, arial, sans-serif; font-size: 12px; fill: rgb(42, 63, 95); fill-opacity: 1; white-space: pre; opacity: 1;">Stationary phase response</text></g><g class="ytick"><text text-anchor="end" x="253" y="4.199999999999999" transform="translate(0,271.43)" style="font-family: 'Open Sans', verdana, arial, sans-serif; font-size: 12px; fill: rgb(42, 63, 95); fill-opacity: 1; white-space: pre; opacity: 1;">Sugar catabolism</text></g><g class="ytick"><text text-anchor="end" x="253" y="4.199999999999999" transform="translate(0,243.06)" style="font-family: 'Open Sans', verdana, arial, sans-serif; font-size: 12px; fill: rgb(42, 63, 95); fill-opacity: 1; white-space: pre; opacity: 1;">Sulfur metabolism</text></g><g class="ytick"><text text-anchor="end" x="253" y="4.199999999999999" transform="translate(0,214.68)" style="font-family: 'Open Sans', verdana, arial, sans-serif; font-size: 12px; fill: rgb(42, 63, 95); fill-opacity: 1; white-space: pre; opacity: 1;">TCA cycle</text></g><g class="ytick"><text text-anchor="end" x="253" y="4.199999999999999" transform="translate(0,186.3)" style="font-family: 'Open Sans', verdana, arial, sans-serif; font-size: 12px; fill: rgb(42, 63, 95); fill-opacity: 1; white-space: pre; opacity: 1;">Translation</text></g><g class="ytick"><text text-anchor="end" x="253" y="4.199999999999999" transform="translate(0,157.92000000000002)" style="font-family: 'Open Sans', verdana, arial, sans-serif; font-size: 12px; fill: rgb(42, 63, 95); fill-opacity: 1; white-space: pre; opacity: 1;">Unknown</text></g></g><g class="overaxes-above"/></g></g><g class="polarlayer"/><g class="smithlayer"/><g class="ternarylayer"/><g class="geolayer"/><g class="funnelarealayer"/><g class="pielayer"/><g class="iciclelayer"/><g class="treemaplayer"/><g class="sunburstlayer"/><g class="glimages"/><defs id="topdefs-a4e4ba"><g class="clips"/></defs><g class="layer-above"><g class="imagelayer"/><g class="shapelayer"/></g><g class="infolayer"><g class="g-gtitle"><text class="gtitle" x="310.20000000000005" y="60" text-anchor="middle" dy="0.7em" style="font-family: 'Open Sans', verdana, arial, sans-serif; font-size: 16px; fill: rgb(42, 63, 95); opacity: 1; font-weight: normal; white-space: pre;">Percentage of iModulon functions in BARs &amp; NBRs</text></g><g class="g-xtitle"/><g class="g-ytitle"/></g></svg>