<svg class="main-svg" xmlns="http://www.w3.org/2000/svg" xmlns:xlink="http://www.w3.org/1999/xlink" width="1000" height="800" style="" viewBox="0 0 1000 800"><rect x="0" y="0" width="1000" height="800" style="fill: rgb(255, 255, 255); fill-opacity: 1;"/><defs id="defs-05c30f"><g class="clips"><clipPath id="clip05c30fxyplot" class="plotclip"><rect width="770" height="680"/></clipPath><clipPath class="axesclip" id="clip05c30fx"><rect x="150" y="0" width="770" height="800"/></clipPath><clipPath class="axesclip" id="clip05c30fy"><rect x="0" y="40" width="1000" height="680"/></clipPath><clipPath class="axesclip" id="clip05c30fxy"><rect x="150" y="40" width="770" height="680"/></clipPath></g><g class="gradients"/><g class="patterns"/></defs><g class="bglayer"><rect class="bg" x="150" y="40" width="770" height="680" style="fill: rgb(255, 255, 255); fill-opacity: 1; stroke-width: 0;"/></g><g class="layer-below"><g class="imagelayer"/><g class="shapelayer"/></g><g class="cartesianlayer"><g class="subplot xy"><g class="layer-subplot"><g class="shapelayer"/><g class="imagelayer"/></g><g class="minor-gridlayer"><g class="x"/><g class="y"/></g><g class="gridlayer"><g class="x"/><g class="y"><path class="ygrid crisp" transform="translate(0,602.85)" d="M150,0h770" style="stroke: rgb(255, 255, 255); stroke-opacity: 1; stroke-width: 1px;"/><path class="ygrid crisp" transform="translate(0,475.51)" d="M150,0h770" style="stroke: rgb(255, 255, 255); stroke-opacity: 1; stroke-width: 1px;"/><path class="ygrid crisp" transform="translate(0,348.16)" d="M150,0h770" style="stroke: rgb(255, 255, 255); stroke-opacity: 1; stroke-width: 1px;"/><path class="ygrid crisp" transform="translate(0,220.82)" d="M150,0h770" style="stroke: rgb(255, 255, 255); stroke-opacity: 1; stroke-width: 1px;"/><path class="ygrid crisp" transform="translate(0,93.47999999999999)" d="M150,0h770" style="stroke: rgb(255, 255, 255); stroke-opacity: 1; stroke-width: 1px;"/></g></g><g class="zerolinelayer"/><path class="xlines-below"/><path class="ylines-below"/><g class="overlines-below"/><g class="xaxislayer-below"/><g class="yaxislayer-below"/><g class="overaxes-below"/><g class="plot" transform="translate(150,40)" clip-path="url(#clip05c30fxyplot)"><g class="barlayer mlayer"><g class="trace bars" style="opacity: 1;"><g class="points"><g class="point"><path d="M355.9,308.16V53.48H400.67V308.16Z" style="vector-effect: non-scaling-stroke; opacity: 1; stroke-width: 0.5px; fill: rgb(0, 0, 0); fill-opacity: 1; stroke: rgb(229, 236, 246); stroke-opacity: 1;"/><text class="bartext bartext-outside" text-anchor="middle" data-notex="1" x="0" y="0" style="font-family: 'Open Sans', verdana, arial, sans-serif; font-size: 12px; fill: rgb(42, 63, 95); fill-opacity: 1; white-space: pre;" transform="translate(378.12093749999997,47.48)">4</text></g><g class="point"><path d="M411.86,308.16V180.82H456.63V308.16Z" style="vector-effect: non-scaling-stroke; opacity: 1; stroke-width: 0.5px; fill: rgb(0, 0, 0); fill-opacity: 1; stroke: rgb(229, 236, 246); stroke-opacity: 1;"/><text class="bartext bartext-outside" text-anchor="middle" data-notex="1" x="0" y="0" style="font-family: 'Open Sans', verdana, arial, sans-serif; font-size: 12px; fill: rgb(42, 63, 95); fill-opacity: 1; white-space: pre;" transform="translate(434.0809375,174.82)">2</text></g><g class="point"><path d="M467.82,308.16V180.82H512.59V308.16Z" style="vector-effect: non-scaling-stroke; opacity: 1; stroke-width: 0.5px; fill: rgb(0, 0, 0); fill-opacity: 1; stroke: rgb(229, 236, 246); stroke-opacity: 1;"/><text class="bartext bartext-outside" text-anchor="middle" data-notex="1" x="0" y="0" style="font-family: 'Open Sans', verdana, arial, sans-serif; font-size: 12px; fill: rgb(42, 63, 95); fill-opacity: 1; white-space: pre;" transform="translate(490.04093750000004,174.82)">2</text></g><g class="point"><path d="M523.78,308.16V244.49H568.55V308.16Z" style="vector-effect: non-scaling-stroke; opacity: 1; stroke-width: 0.5px; fill: rgb(0, 0, 0); fill-opacity: 1; stroke: rgb(229, 236, 246); stroke-opacity: 1;"/><text class="bartext bartext-outside" text-anchor="middle" data-notex="1" x="0" y="0" style="font-family: 'Open Sans', verdana, arial, sans-serif; font-size: 12px; fill: rgb(42, 63, 95); fill-opacity: 1; white-space: pre;" transform="translate(546.0009375,238.49)">1</text></g><g class="point"><path d="M579.74,308.16V244.49H624.51V308.16Z" style="vector-effect: non-scaling-stroke; opacity: 1; stroke-width: 0.5px; fill: rgb(0, 0, 0); fill-opacity: 1; stroke: rgb(229, 236, 246); stroke-opacity: 1;"/><text class="bartext bartext-outside" text-anchor="middle" data-notex="1" x="0" y="0" style="font-family: 'Open Sans', verdana, arial, sans-serif; font-size: 12px; fill: rgb(42, 63, 95); fill-opacity: 1; white-space: pre;" transform="translate(601.9609375,238.49)">1</text></g><g class="point"><path d="M635.7,308.16V244.49H680.47V308.16Z" style="vector-effect: non-scaling-stroke; opacity: 1; stroke-width: 0.5px; fill: rgb(0, 0, 0); fill-opacity: 1; stroke: rgb(229, 236, 246); stroke-opacity: 1;"/><text class="bartext bartext-outside" text-anchor="middle" data-notex="1" x="0" y="0" style="font-family: 'Open Sans', verdana, arial, sans-serif; font-size: 12px; fill: rgb(42, 63, 95); fill-opacity: 1; white-space: pre;" transform="translate(657.9209375,238.49)">1</text></g><g class="point"><path d="M691.66,308.16V244.49H736.42V308.16Z" style="vector-effect: non-scaling-stroke; opacity: 1; stroke-width: 0.5px; fill: rgb(0, 0, 0); fill-opacity: 1; stroke: rgb(229, 236, 246); stroke-opacity: 1;"/><text class="bartext bartext-outside" text-anchor="middle" data-notex="1" x="0" y="0" style="font-family: 'Open Sans', verdana, arial, sans-serif; font-size: 12px; fill: rgb(42, 63, 95); fill-opacity: 1; white-space: pre;" transform="translate(713.8759375,238.49)">1</text></g></g></g></g><g class="scatterlayer mlayer"><g class="trace scatter traceb8eab9" style="stroke-miterlimit: 2; opacity: 1;"><g class="fills"/><g class="errorbars"/><g class="lines"/><g class="points"><path class="point" transform="translate(378.28,336.18)" d="M8.93,0A8.93,8.93 0 1,1 0,-8.93A8.93,8.93 0 0,1 8.93,0Z" style="opacity: 1; stroke-width: 0px; fill: rgb(201, 201, 201); fill-opacity: 1;"/><path class="point" transform="translate(378.28,406.22)" d="M8.93,0A8.93,8.93 0 1,1 0,-8.93A8.93,8.93 0 0,1 8.93,0Z" style="opacity: 1; stroke-width: 0px; fill: rgb(201, 201, 201); fill-opacity: 1;"/><path class="point" transform="translate(378.28,476.25)" d="M8.93,0A8.93,8.93 0 1,1 0,-8.93A8.93,8.93 0 0,1 8.93,0Z" style="opacity: 1; stroke-width: 0px; fill: rgb(201, 201, 201); fill-opacity: 1;"/><path class="point" transform="translate(378.28,546.29)" d="M8.93,0A8.93,8.93 0 1,1 0,-8.93A8.93,8.93 0 0,1 8.93,0Z" style="opacity: 1; stroke-width: 0px; fill: rgb(201, 201, 201); fill-opacity: 1;"/><path class="point" transform="translate(434.24,336.18)" d="M8.93,0A8.93,8.93 0 1,1 0,-8.93A8.93,8.93 0 0,1 8.93,0Z" style="opacity: 1; stroke-width: 0px; fill: rgb(201, 201, 201); fill-opacity: 1;"/><path class="point" transform="translate(434.24,406.22)" d="M8.93,0A8.93,8.93 0 1,1 0,-8.93A8.93,8.93 0 0,1 8.93,0Z" style="opacity: 1; stroke-width: 0px; fill: rgb(201, 201, 201); fill-opacity: 1;"/><path class="point" transform="translate(434.24,476.25)" d="M8.93,0A8.93,8.93 0 1,1 0,-8.93A8.93,8.93 0 0,1 8.93,0Z" style="opacity: 1; stroke-width: 0px; fill: rgb(201, 201, 201); fill-opacity: 1;"/><path class="point" transform="translate(434.24,546.29)" d="M8.93,0A8.93,8.93 0 1,1 0,-8.93A8.93,8.93 0 0,1 8.93,0Z" style="opacity: 1; stroke-width: 0px; fill: rgb(201, 201, 201); fill-opacity: 1;"/><path class="point" transform="translate(490.2,336.18)" d="M8.93,0A8.93,8.93 0 1,1 0,-8.93A8.93,8.93 0 0,1 8.93,0Z" style="opacity: 1; stroke-width: 0px; fill: rgb(201, 201, 201); fill-opacity: 1;"/><path class="point" transform="translate(490.2,406.22)" d="M8.93,0A8.93,8.93 0 1,1 0,-8.93A8.93,8.93 0 0,1 8.93,0Z" style="opacity: 1; stroke-width: 0px; fill: rgb(201, 201, 201); fill-opacity: 1;"/><path class="point" transform="translate(490.2,476.25)" d="M8.93,0A8.93,8.93 0 1,1 0,-8.93A8.93,8.93 0 0,1 8.93,0Z" style="opacity: 1; stroke-width: 0px; fill: rgb(201, 201, 201); fill-opacity: 1;"/><path class="point" transform="translate(490.2,546.29)" d="M8.93,0A8.93,8.93 0 1,1 0,-8.93A8.93,8.93 0 0,1 8.93,0Z" style="opacity: 1; stroke-width: 0px; fill: rgb(201, 201, 201); fill-opacity: 1;"/><path class="point" transform="translate(546.16,336.18)" d="M8.93,0A8.93,8.93 0 1,1 0,-8.93A8.93,8.93 0 0,1 8.93,0Z" style="opacity: 1; stroke-width: 0px; fill: rgb(201, 201, 201); fill-opacity: 1;"/><path class="point" transform="translate(546.16,406.22)" d="M8.93,0A8.93,8.93 0 1,1 0,-8.93A8.93,8.93 0 0,1 8.93,0Z" style="opacity: 1; stroke-width: 0px; fill: rgb(201, 201, 201); fill-opacity: 1;"/><path class="point" transform="translate(546.16,476.25)" d="M8.93,0A8.93,8.93 0 1,1 0,-8.93A8.93,8.93 0 0,1 8.93,0Z" style="opacity: 1; stroke-width: 0px; fill: rgb(201, 201, 201); fill-opacity: 1;"/><path class="point" transform="translate(546.16,546.29)" d="M8.93,0A8.93,8.93 0 1,1 0,-8.93A8.93,8.93 0 0,1 8.93,0Z" style="opacity: 1; stroke-width: 0px; fill: rgb(201, 201, 201); fill-opacity: 1;"/><path class="point" transform="translate(602.12,336.18)" d="M8.93,0A8.93,8.93 0 1,1 0,-8.93A8.93,8.93 0 0,1 8.93,0Z" style="opacity: 1; stroke-width: 0px; fill: rgb(201, 201, 201); fill-opacity: 1;"/><path class="point" transform="translate(602.12,406.22)" d="M8.93,0A8.93,8.93 0 1,1 0,-8.93A8.93,8.93 0 0,1 8.93,0Z" style="opacity: 1; stroke-width: 0px; fill: rgb(201, 201, 201); fill-opacity: 1;"/><path class="point" transform="translate(602.12,476.25)" d="M8.93,0A8.93,8.93 0 1,1 0,-8.93A8.93,8.93 0 0,1 8.93,0Z" style="opacity: 1; stroke-width: 0px; fill: rgb(201, 201, 201); fill-opacity: 1;"/><path class="point" transform="translate(602.12,546.29)" d="M8.93,0A8.93,8.93 0 1,1 0,-8.93A8.93,8.93 0 0,1 8.93,0Z" style="opacity: 1; stroke-width: 0px; fill: rgb(201, 201, 201); fill-opacity: 1;"/><path class="point" transform="translate(658.08,336.18)" d="M8.93,0A8.93,8.93 0 1,1 0,-8.93A8.93,8.93 0 0,1 8.93,0Z" style="opacity: 1; stroke-width: 0px; fill: rgb(201, 201, 201); fill-opacity: 1;"/><path class="point" transform="translate(658.08,406.22)" d="M8.93,0A8.93,8.93 0 1,1 0,-8.93A8.93,8.93 0 0,1 8.93,0Z" style="opacity: 1; stroke-width: 0px; fill: rgb(201, 201, 201); fill-opacity: 1;"/><path class="point" transform="translate(658.08,476.25)" d="M8.93,0A8.93,8.93 0 1,1 0,-8.93A8.93,8.93 0 0,1 8.93,0Z" style="opacity: 1; stroke-width: 0px; fill: rgb(201, 201, 201); fill-opacity: 1;"/><path class="point" transform="translate(658.08,546.29)" d="M8.93,0A8.93,8.93 0 1,1 0,-8.93A8.93,8.93 0 0,1 8.93,0Z" style="opacity: 1; stroke-width: 0px; fill: rgb(201, 201, 201); fill-opacity: 1;"/><path class="point" transform="translate(714.04,336.18)" d="M8.93,0A8.93,8.93 0 1,1 0,-8.93A8.93,8.93 0 0,1 8.93,0Z" style="opacity: 1; stroke-width: 0px; fill: rgb(201, 201, 201); fill-opacity: 1;"/><path class="point" transform="translate(714.04,406.22)" d="M8.93,0A8.93,8.93 0 1,1 0,-8.93A8.93,8.93 0 0,1 8.93,0Z" style="opacity: 1; stroke-width: 0px; fill: rgb(201, 201, 201); fill-opacity: 1;"/><path class="point" transform="translate(714.04,476.25)" d="M8.93,0A8.93,8.93 0 1,1 0,-8.93A8.93,8.93 0 0,1 8.93,0Z" style="opacity: 1; stroke-width: 0px; fill: rgb(201, 201, 201); fill-opacity: 1;"/><path class="point" transform="translate(714.04,546.29)" d="M8.93,0A8.93,8.93 0 1,1 0,-8.93A8.93,8.93 0 0,1 8.93,0Z" style="opacity: 1; stroke-width: 0px; fill: rgb(201, 201, 201); fill-opacity: 1;"/></g><g class="text"/></g><g class="trace scatter traceb722d8" style="stroke-miterlimit: 2; opacity: 1;"><g class="fills"/><g class="errorbars"/><g class="lines"/><g class="points"><path class="point" transform="translate(378.28,336.18)" d="M8.93,0A8.93,8.93 0 1,1 0,-8.93A8.93,8.93 0 0,1 8.93,0Z" style="opacity: 1; stroke-width: 0px; fill: rgb(0, 0, 0); fill-opacity: 1;"/></g><g class="text"/></g><g class="trace scatter trace10fb6e" style="stroke-miterlimit: 2; opacity: 1;"><g class="fills"/><g class="errorbars"/><g class="lines"/><g class="points"><path class="point" transform="translate(378.28,336.18)" d="M8.93,0A8.93,8.93 0 1,1 0,-8.93A8.93,8.93 0 0,1 8.93,0Z" style="opacity: 1; stroke-width: 0px; fill: rgb(0, 0, 0); fill-opacity: 1;"/><path class="point" transform="translate(378.28,406.22)" d="M8.93,0A8.93,8.93 0 1,1 0,-8.93A8.93,8.93 0 0,1 8.93,0Z" style="opacity: 1; stroke-width: 0px; fill: rgb(0, 0, 0); fill-opacity: 1;"/></g><g class="text"/></g><g class="trace scatter trace20274a" style="stroke-miterlimit: 2; opacity: 1;"><g class="fills"/><g class="errorbars"/><g class="lines"/><g class="points"><path class="point" transform="translate(378.28,336.18)" d="M8.93,0A8.93,8.93 0 1,1 0,-8.93A8.93,8.93 0 0,1 8.93,0Z" style="opacity: 1; stroke-width: 0px; fill: rgb(0, 0, 0); fill-opacity: 1;"/><path class="point" transform="translate(378.28,406.22)" d="M8.93,0A8.93,8.93 0 1,1 0,-8.93A8.93,8.93 0 0,1 8.93,0Z" style="opacity: 1; stroke-width: 0px; fill: rgb(0, 0, 0); fill-opacity: 1;"/><path class="point" transform="translate(378.28,476.25)" d="M8.93,0A8.93,8.93 0 1,1 0,-8.93A8.93,8.93 0 0,1 8.93,0Z" style="opacity: 1; stroke-width: 0px; fill: rgb(0, 0, 0); fill-opacity: 1;"/></g><g class="text"/></g><g class="trace scatter trace97a211" style="stroke-miterlimit: 2; opacity: 1;"><g class="fills"/><g class="errorbars"/><g class="lines"/><g class="points"><path class="point" transform="translate(434.24,336.18)" d="M8.93,0A8.93,8.93 0 1,1 0,-8.93A8.93,8.93 0 0,1 8.93,0Z" style="opacity: 1; stroke-width: 0px; fill: rgb(0, 0, 0); fill-opacity: 1;"/></g><g class="text"/></g><g class="trace scatter trace5aeba3" style="stroke-miterlimit: 2; opacity: 1;"><g class="fills"/><g class="errorbars"/><g class="lines"/><g class="points"><path class="point" transform="translate(434.24,336.18)" d="M8.93,0A8.93,8.93 0 1,1 0,-8.93A8.93,8.93 0 0,1 8.93,0Z" style="opacity: 1; stroke-width: 0px; fill: rgb(0, 0, 0); fill-opacity: 1;"/><path class="point" transform="translate(434.24,476.25)" d="M8.93,0A8.93,8.93 0 1,1 0,-8.93A8.93,8.93 0 0,1 8.93,0Z" style="opacity: 1; stroke-width: 0px; fill: rgb(0, 0, 0); fill-opacity: 1;"/></g><g class="text"/></g><g class="trace scatter tracecaad74" style="stroke-miterlimit: 2; opacity: 1;"><g class="fills"/><g class="errorbars"/><g class="lines"/><g class="points"><path class="point" transform="translate(490.2,336.18)" d="M8.93,0A8.93,8.93 0 1,1 0,-8.93A8.93,8.93 0 0,1 8.93,0Z" style="opacity: 1; stroke-width: 0px; fill: rgb(0, 0, 0); fill-opacity: 1;"/></g><g class="text"/></g><g class="trace scatter traceef8672" style="stroke-miterlimit: 2; opacity: 1;"><g class="fills"/><g class="errorbars"/><g class="lines"/><g class="points"><path class="point" transform="translate(490.2,336.18)" d="M8.93,0A8.93,8.93 0 1,1 0,-8.93A8.93,8.93 0 0,1 8.93,0Z" style="opacity: 1; stroke-width: 0px; fill: rgb(0, 0, 0); fill-opacity: 1;"/><path class="point" transform="translate(490.2,406.22)" d="M8.93,0A8.93,8.93 0 1,1 0,-8.93A8.93,8.93 0 0,1 8.93,0Z" style="opacity: 1; stroke-width: 0px; fill: rgb(0, 0, 0); fill-opacity: 1;"/></g><g class="text"/></g><g class="trace scatter trace7b36ed" style="stroke-miterlimit: 2; opacity: 1;"><g class="fills"/><g class="errorbars"/><g class="lines"/><g class="points"><path class="point" transform="translate(490.2,336.18)" d="M8.93,0A8.93,8.93 0 1,1 0,-8.93A8.93,8.93 0 0,1 8.93,0Z" style="opacity: 1; stroke-width: 0px; fill: rgb(0, 0, 0); fill-opacity: 1;"/><path class="point" transform="translate(490.2,406.22)" d="M8.93,0A8.93,8.93 0 1,1 0,-8.93A8.93,8.93 0 0,1 8.93,0Z" style="opacity: 1; stroke-width: 0px; fill: rgb(0, 0, 0); fill-opacity: 1;"/><path class="point" transform="translate(490.2,476.25)" d="M8.93,0A8.93,8.93 0 1,1 0,-8.93A8.93,8.93 0 0,1 8.93,0Z" style="opacity: 1; stroke-width: 0px; fill: rgb(0, 0, 0); fill-opacity: 1;"/></g><g class="text"/></g><g class="trace scatter trace954d18" style="stroke-miterlimit: 2; opacity: 1;"><g class="fills"/><g class="errorbars"/><g class="lines"/><g class="points"><path class="point" transform="translate(490.2,336.18)" d="M8.93,0A8.93,8.93 0 1,1 0,-8.93A8.93,8.93 0 0,1 8.93,0Z" style="opacity: 1; stroke-width: 0px; fill: rgb(0, 0, 0); fill-opacity: 1;"/><path class="point" transform="translate(490.2,406.22)" d="M8.93,0A8.93,8.93 0 1,1 0,-8.93A8.93,8.93 0 0,1 8.93,0Z" style="opacity: 1; stroke-width: 0px; fill: rgb(0, 0, 0); fill-opacity: 1;"/><path class="point" transform="translate(490.2,476.25)" d="M8.93,0A8.93,8.93 0 1,1 0,-8.93A8.93,8.93 0 0,1 8.93,0Z" style="opacity: 1; stroke-width: 0px; fill: rgb(0, 0, 0); fill-opacity: 1;"/><path class="point" transform="translate(490.2,546.29)" d="M8.93,0A8.93,8.93 0 1,1 0,-8.93A8.93,8.93 0 0,1 8.93,0Z" style="opacity: 1; stroke-width: 0px; fill: rgb(0, 0, 0); fill-opacity: 1;"/></g><g class="text"/></g><g class="trace scatter trace9da00d" style="stroke-miterlimit: 2; opacity: 1;"><g class="fills"/><g class="errorbars"/><g class="lines"/><g class="points"><path class="point" transform="translate(546.16,336.18)" d="M8.93,0A8.93,8.93 0 1,1 0,-8.93A8.93,8.93 0 0,1 8.93,0Z" style="opacity: 1; stroke-width: 0px; fill: rgb(0, 0, 0); fill-opacity: 1;"/></g><g class="text"/></g><g class="trace scatter trace95355f" style="stroke-miterlimit: 2; opacity: 1;"><g class="fills"/><g class="errorbars"/><g class="lines"/><g class="points"><path class="point" transform="translate(602.12,476.25)" d="M8.93,0A8.93,8.93 0 1,1 0,-8.93A8.93,8.93 0 0,1 8.93,0Z" style="opacity: 1; stroke-width: 0px; fill: rgb(0, 0, 0); fill-opacity: 1;"/></g><g class="text"/></g><g class="trace scatter trace2d42b7" style="stroke-miterlimit: 2; opacity: 1;"><g class="fills"/><g class="errorbars"/><g class="lines"/><g class="points"><path class="point" transform="translate(658.08,406.22)" d="M8.93,0A8.93,8.93 0 1,1 0,-8.93A8.93,8.93 0 0,1 8.93,0Z" style="opacity: 1; stroke-width: 0px; fill: rgb(0, 0, 0); fill-opacity: 1;"/></g><g class="text"/></g><g class="trace scatter tracec4fac4" style="stroke-miterlimit: 2; opacity: 1;"><g class="fills"/><g class="errorbars"/><g class="lines"/><g class="points"><path class="point" transform="translate(658.08,406.22)" d="M8.93,0A8.93,8.93 0 1,1 0,-8.93A8.93,8.93 0 0,1 8.93,0Z" style="opacity: 1; stroke-width: 0px; fill: rgb(0, 0, 0); fill-opacity: 1;"/><path class="point" transform="translate(658.08,476.25)" d="M8.93,0A8.93,8.93 0 1,1 0,-8.93A8.93,8.93 0 0,1 8.93,0Z" style="opacity: 1; stroke-width: 0px; fill: rgb(0, 0, 0); fill-opacity: 1;"/></g><g class="text"/></g><g class="trace scatter tracea9b9b8" style="stroke-miterlimit: 2; opacity: 1;"><g class="fills"/><g class="errorbars"/><g class="lines"/><g class="points"><path class="point" transform="translate(714.04,406.22)" d="M8.93,0A8.93,8.93 0 1,1 0,-8.93A8.93,8.93 0 0,1 8.93,0Z" style="opacity: 1; stroke-width: 0px; fill: rgb(0, 0, 0); fill-opacity: 1;"/></g><g class="text"/></g><g class="trace scatter trace33182d" style="stroke-miterlimit: 2; opacity: 1;"><g class="fills"/><g class="errorbars"/><g class="lines"/><g class="points"><path class="point" transform="translate(714.04,406.22)" d="M8.93,0A8.93,8.93 0 1,1 0,-8.93A8.93,8.93 0 0,1 8.93,0Z" style="opacity: 1; stroke-width: 0px; fill: rgb(0, 0, 0); fill-opacity: 1;"/><path class="point" transform="translate(714.04,546.29)" d="M8.93,0A8.93,8.93 0 1,1 0,-8.93A8.93,8.93 0 0,1 8.93,0Z" style="opacity: 1; stroke-width: 0px; fill: rgb(0, 0, 0); fill-opacity: 1;"/></g><g class="text"/></g><g class="trace scatter trace71031e" style="stroke-miterlimit: 2; opacity: 1;"><g class="fills"/><g class="errorbars"/><g class="lines"/><g class="points"/><g class="text"><g class="textpoint" transform="translate(0,3)"><text x="349.19" y="336.18" text-anchor="end" style="font-family: 'Open Sans', verdana, arial, sans-serif; font-size: 12px; fill: rgb(42, 63, 95); fill-opacity: 1; white-space: pre;">bg11-EX_photon_e95.61-wt_30_NBR-Function-2</text></g><g class="textpoint" transform="translate(0,3)"><text x="349.19" y="406.22" text-anchor="end" style="font-family: 'Open Sans', verdana, arial, sans-serif; font-size: 12px; fill: rgb(42, 63, 95); fill-opacity: 1; white-space: pre;">bg11-EX_photon_e95.61-rnase_mutant_39_NBR-Function-2</text></g><g class="textpoint" transform="translate(0,3)"><text x="349.19" y="476.25" text-anchor="end" style="font-family: 'Open Sans', verdana, arial, sans-serif; font-size: 12px; fill: rgb(42, 63, 95); fill-opacity: 1; white-space: pre;">bg11-EX_photon_e95.61-rnase_mutant_30_NBR-Function-2</text></g><g class="textpoint" transform="translate(0,3)"><text x="349.19" y="546.29" text-anchor="end" style="font-family: 'Open Sans', verdana, arial, sans-serif; font-size: 12px; fill: rgb(42, 63, 95); fill-opacity: 1; white-space: pre;">bg11-EX_photon_e95.61-wt_39_NBR-Function-2</text></g></g></g></g></g><g class="overplot"/><path class="xlines-above crisp" d="M0,0" style="fill: none;"/><path class="ylines-above crisp" d="M0,0" style="fill: none;"/><g class="overlines-above"/><g class="xaxislayer-above"/><g class="yaxislayer-above"/><g class="overaxes-above"/></g></g><g class="polarlayer"/><g class="smithlayer"/><g class="ternarylayer"/><g class="geolayer"/><g class="funnelarealayer"/><g class="pielayer"/><g class="iciclelayer"/><g class="treemaplayer"/><g class="sunburstlayer"/><g class="glimages"/><defs id="topdefs-05c30f"><g class="clips"/></defs><g class="layer-above"><g class="imagelayer"/><g class="shapelayer"/></g><g class="infolayer"><g class="g-gtitle"><text class="gtitle" x="500" y="20" text-anchor="middle" dy="0em" style="font-family: 'Open Sans', verdana, arial, sans-serif; font-size: 17px; fill: rgb(42, 63, 95); opacity: 1; font-weight: normal; white-space: pre;"><tspan style="font-weight:bold">Intersections<tspan style="font-weight:bold"></tspan></tspan></text></g><g class="g-xtitle"/><g class="g-ytitle"/></g></svg>