<?xml version="1.0" encoding="UTF-8" standalone="no"?>
<svg
   xmlns:dc="http://purl.org/dc/elements/1.1/"
   xmlns:cc="http://creativecommons.org/ns#"
   xmlns:rdf="http://www.w3.org/1999/02/22-rdf-syntax-ns#"
   xmlns:svg="http://www.w3.org/2000/svg"
   xmlns="http://www.w3.org/2000/svg"
   xmlns:sodipodi="http://sodipodi.sourceforge.net/DTD/sodipodi-0.dtd"
   xmlns:inkscape="http://www.inkscape.org/namespaces/inkscape"
   class="main-svg"
   width="1000"
   height="800"
   style=""
   viewBox="0 0 1000 800"
   version="1.1"
   id="svg360"
   sodipodi:docname="BAR_shared_iModulon_function_functions_between_conditions.svg"
   inkscape:version="0.92.5 (2060ec1f9f, 2020-04-08)">
  <metadata
     id="metadata364">
    <rdf:RDF>
      <cc:Work
         rdf:about="">
        <dc:format>image/svg+xml</dc:format>
        <dc:type
           rdf:resource="http://purl.org/dc/dcmitype/StillImage" />
      </cc:Work>
    </rdf:RDF>
  </metadata>
  <sodipodi:namedview
     pagecolor="#ffffff"
     bordercolor="#666666"
     borderopacity="1"
     objecttolerance="10"
     gridtolerance="10"
     guidetolerance="10"
     inkscape:pageopacity="0"
     inkscape:pageshadow="2"
     inkscape:window-width="1848"
     inkscape:window-height="1016"
     id="namedview362"
     showgrid="false"
     inkscape:zoom="0.95028738"
     inkscape:cx="439.77705"
     inkscape:cy="395.25102"
     inkscape:window-x="1992"
     inkscape:window-y="27"
     inkscape:window-maximized="1"
     inkscape:current-layer="svg360" />
  <defs
     id="defs-58a22c">
    <g
       class="clips"
       id="g16">
      <clipPath
         id="clip58a22cxyplot"
         class="plotclip">
        <rect
           width="770"
           height="680"
           id="rect4" />
      </clipPath>
      <clipPath
         class="axesclip"
         id="clip58a22cx">
        <rect
           x="150"
           y="0"
           width="770"
           height="800"
           id="rect7" />
      </clipPath>
      <clipPath
         class="axesclip"
         id="clip58a22cy">
        <rect
           x="0"
           y="40"
           width="1000"
           height="680"
           id="rect10" />
      </clipPath>
      <clipPath
         class="axesclip"
         id="clip58a22cxy">
        <rect
           x="150"
           y="40"
           width="770"
           height="680"
           id="rect13" />
      </clipPath>
    </g>
    <g
       class="gradients"
       id="g18" />
    <g
       class="patterns"
       id="g20" />
  </defs>
  <g
     class="layer-below"
     id="g31">
    <g
       class="imagelayer"
       id="g27" />
    <g
       class="shapelayer"
       id="g29" />
  </g>
  <g
     id="g33"
     class="shapelayer" />
  <g
     id="g35"
     class="imagelayer" />
  <g
     id="g39"
     class="x" />
  <g
     id="g41"
     class="y" />
  <g
     id="g45"
     class="x" />
  <path
     class="xlines-below"
     id="path71"
     d=""
     inkscape:connector-curvature="0" />
  <path
     class="ylines-below"
     id="path73"
     d=""
     inkscape:connector-curvature="0" />
  <g
     id="g1858"
     transform="translate(16.731257)">
    <g
       transform="translate(46.66071,40)"
       id="g87"
       class="point">
      <path
         inkscape:connector-curvature="0"
         id="path83"
         style="opacity:1;vector-effect:non-scaling-stroke;fill:#000000;fill-opacity:1;stroke:#e5ecf6;stroke-width:0.5px;stroke-opacity:1"
         d="M 443.29,321.05 V 55.72 h 59.4 v 265.33 z" />
      <text
         id="text85"
         transform="translate(472.82594,49.72)"
         style="font-size:12px;font-family:'Open Sans', verdana, arial, sans-serif;text-anchor:middle;white-space:pre;fill:#2a3f5f;fill-opacity:1"
         y="0"
         x="0"
         data-notex="1"
         class="bartext bartext-outside">7</text>
    </g>
    <g
       transform="translate(55.96918,40)"
       id="g93"
       class="point">
      <path
         inkscape:connector-curvature="0"
         id="path89"
         style="opacity:1;vector-effect:non-scaling-stroke;fill:#000000;fill-opacity:1;stroke:#e5ecf6;stroke-width:0.5px;stroke-opacity:1"
         d="m 517.54,321.05 v -75.81 h 59.4 v 75.81 z" />
      <text
         id="text91"
         transform="translate(547.07594,239.24)"
         style="font-size:12px;font-family:'Open Sans', verdana, arial, sans-serif;text-anchor:middle;white-space:pre;fill:#2a3f5f;fill-opacity:1"
         y="0"
         x="0"
         data-notex="1"
         class="bartext bartext-outside">2</text>
    </g>
    <g
       transform="translate(65.27264,40)"
       id="g99"
       class="point">
      <path
         inkscape:connector-curvature="0"
         id="path95"
         style="opacity:1;vector-effect:non-scaling-stroke;fill:#000000;fill-opacity:1;stroke:#e5ecf6;stroke-width:0.5px;stroke-opacity:1"
         d="m 591.79,321.05 v -75.81 h 59.41 v 75.81 z" />
      <text
         id="text97"
         transform="translate(621.33094,239.24)"
         style="font-size:12px;font-family:'Open Sans', verdana, arial, sans-serif;text-anchor:middle;white-space:pre;fill:#2a3f5f;fill-opacity:1"
         y="0"
         x="0"
         data-notex="1"
         class="bartext bartext-outside">2</text>
    </g>
    <g
       transform="translate(74.57928,40)"
       id="g105"
       class="point">
      <path
         inkscape:connector-curvature="0"
         id="path101"
         style="opacity:1;vector-effect:non-scaling-stroke;fill:#000000;fill-opacity:1;stroke:#e5ecf6;stroke-width:0.5px;stroke-opacity:1"
         d="m 666.05,321.05 v -37.91 h 59.4 v 37.91 z" />
      <text
         id="text103"
         transform="translate(695.58594,277.14)"
         style="font-size:12px;font-family:'Open Sans', verdana, arial, sans-serif;text-anchor:middle;white-space:pre;fill:#2a3f5f;fill-opacity:1"
         y="0"
         x="0"
         data-notex="1"
         class="bartext bartext-outside">1</text>
    </g>
    <path
       inkscape:connector-curvature="0"
       id="path119"
       style="opacity:1;fill:#c9c9c9;fill-opacity:1;stroke-width:0px;stroke-miterlimit:2"
       d="m 559.31143,414.41183 a 39.660716,39.660716 0 1 1 -39.66071,-39.66072 39.660716,39.660716 0 0 1 39.66071,39.66072 z"
       class="point" />
    <path
       inkscape:connector-curvature="0"
       id="path121"
       style="opacity:1;fill:#c9c9c9;fill-opacity:1;stroke-width:0px;stroke-miterlimit:2"
       d="m 559.31143,511.28056 a 39.660716,39.660716 0 1 1 -39.66071,-39.66072 39.660716,39.660716 0 0 1 39.66071,39.66072 z"
       class="point" />
    <path
       inkscape:connector-curvature="0"
       id="path123"
       style="opacity:1;fill:#c9c9c9;fill-opacity:1;stroke-width:0px;stroke-miterlimit:2"
       d="m 559.31143,610.14928 a 39.660716,39.660716 0 1 1 -39.66071,-39.66071 39.660716,39.660716 0 0 1 39.66071,39.66071 z"
       class="point" />
    <path
       inkscape:connector-curvature="0"
       id="path125"
       style="opacity:1;fill:#c9c9c9;fill-opacity:1;stroke-width:0px;stroke-miterlimit:2"
       d="m 642.8699,414.41183 a 39.660716,39.660716 0 1 1 -39.66072,-39.66072 39.660716,39.660716 0 0 1 39.66072,39.66072 z"
       class="point" />
    <path
       inkscape:connector-curvature="0"
       id="path127"
       style="opacity:1;fill:#c9c9c9;fill-opacity:1;stroke-width:0px;stroke-miterlimit:2"
       d="m 642.8699,511.28056 a 39.660716,39.660716 0 1 1 -39.66072,-39.66072 39.660716,39.660716 0 0 1 39.66072,39.66072 z"
       class="point" />
    <path
       inkscape:connector-curvature="0"
       id="path129"
       style="opacity:1;fill:#c9c9c9;fill-opacity:1;stroke-width:0px;stroke-miterlimit:2"
       d="m 642.8699,610.14928 a 39.660716,39.660716 0 1 1 -39.66072,-39.66071 39.660716,39.660716 0 0 1 39.66072,39.66071 z"
       class="point" />
    <path
       inkscape:connector-curvature="0"
       id="path131"
       style="opacity:1;fill:#c9c9c9;fill-opacity:1;stroke-width:0px;stroke-miterlimit:2"
       d="m 726.42836,414.41183 a 39.660716,39.660716 0 1 1 -39.66071,-39.66072 39.660716,39.660716 0 0 1 39.66071,39.66072 z"
       class="point" />
    <path
       inkscape:connector-curvature="0"
       id="path133"
       style="opacity:1;fill:#c9c9c9;fill-opacity:1;stroke-width:0px;stroke-miterlimit:2"
       d="m 726.42836,511.28056 a 39.660716,39.660716 0 1 1 -39.66071,-39.66072 39.660716,39.660716 0 0 1 39.66071,39.66072 z"
       class="point" />
    <path
       inkscape:connector-curvature="0"
       id="path135"
       style="opacity:1;fill:#c9c9c9;fill-opacity:1;stroke-width:0px;stroke-miterlimit:2"
       d="m 726.42836,610.14928 a 39.660716,39.660716 0 1 1 -39.66071,-39.66071 39.660716,39.660716 0 0 1 39.66071,39.66071 z"
       class="point" />
    <path
       inkscape:connector-curvature="0"
       id="path137"
       style="opacity:1;fill:#c9c9c9;fill-opacity:1;stroke-width:0px;stroke-miterlimit:2"
       d="M 809.99,414.41183 A 39.660716,39.660716 0 1 1 770.32928,374.75111 39.660716,39.660716 0 0 1 809.99,414.41183 Z"
       class="point" />
    <path
       inkscape:connector-curvature="0"
       id="path139"
       style="opacity:1;fill:#c9c9c9;fill-opacity:1;stroke-width:0px;stroke-miterlimit:2"
       d="M 809.99,511.28056 A 39.660716,39.660716 0 1 1 770.32928,471.61984 39.660716,39.660716 0 0 1 809.99,511.28056 Z"
       class="point" />
    <path
       inkscape:connector-curvature="0"
       id="path141"
       style="opacity:1;fill:#c9c9c9;fill-opacity:1;stroke-width:0px;stroke-miterlimit:2"
       d="M 809.99,610.14928 A 39.660716,39.660716 0 1 1 770.32928,570.48857 39.660716,39.660716 0 0 1 809.99,610.14928 Z"
       class="point" />
    <path
       inkscape:connector-curvature="0"
       id="path155"
       style="opacity:1;fill:#000000;fill-opacity:1;stroke-width:0px;stroke-miterlimit:2"
       d="m 559.31143,414.41183 a 39.660716,39.660716 0 1 1 -39.66071,-39.66072 39.660716,39.660716 0 0 1 39.66071,39.66072 z"
       class="point" />
    <path
       inkscape:connector-curvature="0"
       id="path169"
       style="opacity:1;fill:#000000;fill-opacity:1;stroke-width:0px;stroke-miterlimit:2"
       d="m 559.31143,414.41183 a 39.660716,39.660716 0 1 1 -39.66071,-39.66072 39.660716,39.660716 0 0 1 39.66071,39.66072 z"
       class="point" />
    <path
       inkscape:connector-curvature="0"
       id="path171"
       style="opacity:1;fill:#000000;fill-opacity:1;stroke-width:0px;stroke-miterlimit:2"
       d="m 559.31143,511.28056 a 39.660716,39.660716 0 1 1 -39.66071,-39.66072 39.660716,39.660716 0 0 1 39.66071,39.66072 z"
       class="point" />
    <path
       inkscape:connector-curvature="0"
       id="path185"
       style="opacity:1;fill:#000000;fill-opacity:1;stroke-width:0px;stroke-miterlimit:2"
       d="m 559.31143,414.41183 a 39.660716,39.660716 0 1 1 -39.66071,-39.66072 39.660716,39.660716 0 0 1 39.66071,39.66072 z"
       class="point" />
    <path
       inkscape:connector-curvature="0"
       id="path187"
       style="opacity:1;fill:#000000;fill-opacity:1;stroke-width:0px;stroke-miterlimit:2"
       d="m 559.31143,511.28056 a 39.660716,39.660716 0 1 1 -39.66071,-39.66072 39.660716,39.660716 0 0 1 39.66071,39.66072 z"
       class="point" />
    <path
       inkscape:connector-curvature="0"
       id="path189"
       style="opacity:1;fill:#000000;fill-opacity:1;stroke-width:0px;stroke-miterlimit:2"
       d="m 559.31143,610.14928 a 39.660716,39.660716 0 1 1 -39.66071,-39.66071 39.660716,39.660716 0 0 1 39.66071,39.66071 z"
       class="point" />
    <path
       inkscape:connector-curvature="0"
       id="path203"
       style="opacity:1;fill:#000000;fill-opacity:1;stroke-width:0px;stroke-miterlimit:2"
       d="m 642.8699,511.28056 a 39.660716,39.660716 0 1 1 -39.66072,-39.66072 39.660716,39.660716 0 0 1 39.66072,39.66072 z"
       class="point" />
    <path
       inkscape:connector-curvature="0"
       id="path217"
       style="opacity:1;fill:#000000;fill-opacity:1;stroke-width:0px;stroke-miterlimit:2"
       d="m 726.42836,511.28056 a 39.660716,39.660716 0 1 1 -39.66071,-39.66072 39.660716,39.660716 0 0 1 39.66071,39.66072 z"
       class="point" />
    <path
       inkscape:connector-curvature="0"
       id="path231"
       style="opacity:1;fill:#000000;fill-opacity:1;stroke-width:0px;stroke-miterlimit:2"
       d="m 726.42836,511.28056 a 39.660716,39.660716 0 1 1 -39.66071,-39.66072 39.660716,39.660716 0 0 1 39.66071,39.66072 z"
       class="point" />
    <path
       inkscape:connector-curvature="0"
       id="path233"
       style="opacity:1;fill:#000000;fill-opacity:1;stroke-width:0px;stroke-miterlimit:2"
       d="m 726.42836,610.14928 a 39.660716,39.660716 0 1 1 -39.66071,-39.66071 39.660716,39.660716 0 0 1 39.66071,39.66071 z"
       class="point" />
    <path
       inkscape:connector-curvature="0"
       id="path247"
       style="opacity:1;fill:#000000;fill-opacity:1;stroke-width:0px;stroke-miterlimit:2"
       d="M 809.99,414.41183 A 39.660716,39.660716 0 1 1 770.32928,374.75111 39.660716,39.660716 0 0 1 809.99,414.41183 Z"
       class="point" />
    <path
       inkscape:connector-curvature="0"
       id="path261"
       style="opacity:1;fill:#000000;fill-opacity:1;stroke-width:0px;stroke-miterlimit:2"
       d="M 809.99,414.41183 A 39.660716,39.660716 0 1 1 770.32928,374.75111 39.660716,39.660716 0 0 1 809.99,414.41183 Z"
       class="point" />
    <path
       inkscape:connector-curvature="0"
       id="path263"
       style="opacity:1;fill:#000000;fill-opacity:1;stroke-width:0px;stroke-miterlimit:2"
       d="M 809.99,610.14928 A 39.660716,39.660716 0 1 1 770.32928,570.48857 39.660716,39.660716 0 0 1 809.99,610.14928 Z"
       class="point" />
    <g
       transform="translate(28,66)"
       id="g293"
       style="opacity:1;stroke-miterlimit:2"
       class="trace scatter trace11c3cf">
      <g
         id="g271"
         class="fills" />
      <g
         id="g273"
         class="errorbars" />
      <g
         id="g275"
         class="lines" />
      <g
         id="g277"
         class="points" />
      <g
         id="g291"
         class="text">
        <g
           id="g281"
           transform="translate(0,3)"
           class="textpoint">
          <text
             id="text279"
             style="font-size:12px;font-family:'Open Sans', verdana, arial, sans-serif;text-anchor:end;white-space:pre;fill:#2a3f5f;fill-opacity:1"
             y="350.23001"
             x="436.60999">m9-EX_glc__D_e10.0-EX_thr__L_e6.67_BAR-Function-1</text>
        </g>
        <g
           id="g285"
           transform="translate(0,3)"
           class="textpoint">
          <text
             id="text283"
             style="font-size:12px;font-family:'Open Sans', verdana, arial, sans-serif;text-anchor:end;white-space:pre;fill:#2a3f5f;fill-opacity:1"
             y="447.51999"
             x="436.60999">m9-EX_glc__D_e10.0-EX_glu__L_e8.33_BAR-Function-1</text>
        </g>
        <g
           id="g289"
           transform="translate(0,3)"
           class="textpoint">
          <text
             id="text287"
             style="font-size:12px;font-family:'Open Sans', verdana, arial, sans-serif;text-anchor:end;white-space:pre;fill:#2a3f5f;fill-opacity:1"
             y="544.81"
             x="436.60999">m9-EX_glc__D_e10.0-EX_gly_e3.33_BAR-Function-1</text>
        </g>
      </g>
    </g>
  </g>
  <path
     class="xlines-above crisp"
     d="M 0,0"
     style="fill:none"
     id="path301"
     inkscape:connector-curvature="0" />
  <path
     class="ylines-above crisp"
     d="M 0,0"
     style="fill:none"
     id="path303"
     inkscape:connector-curvature="0" />
  <g
     class="polarlayer"
     id="g317" />
  <g
     class="smithlayer"
     id="g319" />
  <g
     class="ternarylayer"
     id="g321" />
  <g
     class="geolayer"
     id="g323" />
  <g
     class="funnelarealayer"
     id="g325" />
  <g
     class="pielayer"
     id="g327" />
  <g
     class="iciclelayer"
     id="g329" />
  <g
     class="treemaplayer"
     id="g331" />
  <g
     class="sunburstlayer"
     id="g333" />
  <g
     class="glimages"
     id="g335" />
  <defs
     id="topdefs-58a22c">
    <g
       class="clips"
       id="g337" />
  </defs>
  <g
     class="layer-above"
     id="g344">
    <g
       class="imagelayer"
       id="g340" />
    <g
       class="shapelayer"
       id="g342" />
  </g>
  <text
     class="gtitle"
     x="500"
     y="20"
     dy="0"
     style="font-weight:normal;font-size:17px;font-family:'Open Sans', verdana, arial, sans-serif;text-anchor:middle;white-space:pre;opacity:1;fill:#2a3f5f"
     id="text350">
    <tspan
       style="font-weight:bold"
       id="tspan348">Intersections<tspan
   style="font-weight:bold"
   id="tspan346" />
</tspan>
  </text>
</svg>
