<?xml version="1.0" encoding="UTF-8" standalone="no"?>
<svg
   xmlns:dc="http://purl.org/dc/elements/1.1/"
   xmlns:cc="http://creativecommons.org/ns#"
   xmlns:rdf="http://www.w3.org/1999/02/22-rdf-syntax-ns#"
   xmlns:svg="http://www.w3.org/2000/svg"
   xmlns="http://www.w3.org/2000/svg"
   xmlns:sodipodi="http://sodipodi.sourceforge.net/DTD/sodipodi-0.dtd"
   xmlns:inkscape="http://www.inkscape.org/namespaces/inkscape"
   class="main-svg"
   width="1000"
   height="800"
   style=""
   viewBox="0 0 1000 800"
   version="1.1"
   id="svg340"
   sodipodi:docname="BAR_shared_Subsystem_function_functions_between_conditions.svg"
   inkscape:version="0.92.5 (2060ec1f9f, 2020-04-08)">
  <metadata
     id="metadata344">
    <rdf:RDF>
      <cc:Work
         rdf:about="">
        <dc:format>image/svg+xml</dc:format>
        <dc:type
           rdf:resource="http://purl.org/dc/dcmitype/StillImage" />
      </cc:Work>
    </rdf:RDF>
  </metadata>
  <sodipodi:namedview
     pagecolor="#ffffff"
     bordercolor="#666666"
     borderopacity="1"
     objecttolerance="10"
     gridtolerance="10"
     guidetolerance="10"
     inkscape:pageopacity="0"
     inkscape:pageshadow="2"
     inkscape:window-width="1848"
     inkscape:window-height="1016"
     id="namedview342"
     showgrid="false"
     inkscape:zoom="0.81322609"
     inkscape:cx="313.95929"
     inkscape:cy="450.46333"
     inkscape:window-x="1992"
     inkscape:window-y="27"
     inkscape:window-maximized="1"
     inkscape:current-layer="svg340" />
  <defs
     id="defs-0e6df0">
    <g
       class="clips"
       id="g16">
      <clipPath
         id="clip0e6df0xyplot"
         class="plotclip">
        <rect
           width="770"
           height="680"
           id="rect4" />
      </clipPath>
      <clipPath
         class="axesclip"
         id="clip0e6df0x">
        <rect
           x="150"
           y="0"
           width="770"
           height="800"
           id="rect7" />
      </clipPath>
      <clipPath
         class="axesclip"
         id="clip0e6df0y">
        <rect
           x="0"
           y="40"
           width="1000"
           height="680"
           id="rect10" />
      </clipPath>
      <clipPath
         class="axesclip"
         id="clip0e6df0xy">
        <rect
           x="150"
           y="40"
           width="770"
           height="680"
           id="rect13" />
      </clipPath>
    </g>
    <g
       class="gradients"
       id="g18" />
    <g
       class="patterns"
       id="g20" />
  </defs>
  <g
     class="layer-below"
     id="g31">
    <g
       class="imagelayer"
       id="g27" />
    <g
       class="shapelayer"
       id="g29" />
  </g>
  <g
     id="g33"
     class="shapelayer" />
  <g
     id="g35"
     class="imagelayer" />
  <g
     id="g39"
     class="x" />
  <g
     id="g41"
     class="y" />
  <g
     id="g45"
     class="x" />
  <path
     class="xlines-below"
     id="path67"
     d=""
     inkscape:connector-curvature="0" />
  <path
     class="ylines-below"
     id="path69"
     d=""
     inkscape:connector-curvature="0" />
  <g
     class="point"
     id="g83"
     transform="translate(66,40)">
    <path
       d="M 443.29,335.22 V 58.18 h 59.4 v 277.04 z"
       style="opacity:1;vector-effect:non-scaling-stroke;fill:#000000;fill-opacity:1;stroke:#e5ecf6;stroke-width:0.5px;stroke-opacity:1"
       id="path79"
       inkscape:connector-curvature="0" />
    <text
       class="bartext bartext-outside"
       data-notex="1"
       x="0"
       y="0"
       style="font-size:12px;font-family:'Open Sans', verdana, arial, sans-serif;text-anchor:middle;white-space:pre;fill:#2a3f5f;fill-opacity:1"
       transform="translate(472.83375,52.18)"
       id="text81">29</text>
  </g>
  <g
     class="point"
     id="g89"
     transform="translate(84,40)">
    <path
       d="m 517.54,335.22 v -19.1 h 59.4 v 19.1 z"
       style="opacity:1;vector-effect:non-scaling-stroke;fill:#000000;fill-opacity:1;stroke:#e5ecf6;stroke-width:0.5px;stroke-opacity:1"
       id="path85"
       inkscape:connector-curvature="0" />
    <text
       class="bartext bartext-outside"
       data-notex="1"
       x="0"
       y="0"
       style="font-size:12px;font-family:'Open Sans', verdana, arial, sans-serif;text-anchor:middle;white-space:pre;fill:#2a3f5f;fill-opacity:1"
       transform="translate(547.07594,310.12)"
       id="text87">2</text>
  </g>
  <g
     class="point"
     id="g95"
     transform="translate(100,40)">
    <path
       d="m 591.79,335.22 v -9.55 h 59.41 v 9.55 z"
       style="opacity:1;vector-effect:non-scaling-stroke;fill:#000000;fill-opacity:1;stroke:#e5ecf6;stroke-width:0.5px;stroke-opacity:1"
       id="path91"
       inkscape:connector-curvature="0" />
    <text
       class="bartext bartext-outside"
       data-notex="1"
       x="0"
       y="0"
       style="font-size:12px;font-family:'Open Sans', verdana, arial, sans-serif;text-anchor:middle;white-space:pre;fill:#2a3f5f;fill-opacity:1"
       transform="translate(621.33094,319.67)"
       id="text93">1</text>
  </g>
  <g
     class="point"
     id="g101"
     transform="translate(120,40)">
    <path
       d="m 666.05,335.22 v -9.55 h 59.4 v 9.55 z"
       style="opacity:1;vector-effect:non-scaling-stroke;fill:#000000;fill-opacity:1;stroke:#e5ecf6;stroke-width:0.5px;stroke-opacity:1"
       id="path97"
       inkscape:connector-curvature="0" />
    <text
       class="bartext bartext-outside"
       data-notex="1"
       x="0"
       y="0"
       style="font-size:12px;font-family:'Open Sans', verdana, arial, sans-serif;text-anchor:middle;white-space:pre;fill:#2a3f5f;fill-opacity:1"
       transform="translate(695.58594,319.67)"
       id="text99">1</text>
  </g>
  <path
     class="point"
     d="m 584.59954,428.79814 a 42.304766,42.304766 0 1 1 -42.30477,-42.30477 42.304766,42.304766 0 0 1 42.30477,42.30477 z"
     style="opacity:1;fill:#c9c9c9;fill-opacity:1;stroke-width:0px;stroke-miterlimit:2"
     id="path115"
     inkscape:connector-curvature="0" />
  <path
     class="point"
     d="m 584.59954,533.17669 a 42.304766,42.304766 0 1 1 -42.30477,-42.30477 42.304766,42.304766 0 0 1 42.30477,42.30477 z"
     style="opacity:1;fill:#c9c9c9;fill-opacity:1;stroke-width:0px;stroke-miterlimit:2"
     id="path117"
     inkscape:connector-curvature="0" />
  <path
     class="point"
     d="m 584.59954,631.55523 a 42.304766,42.304766 0 1 1 -42.30477,-42.30477 42.304766,42.304766 0 0 1 42.30477,42.30477 z"
     style="opacity:1;fill:#c9c9c9;fill-opacity:1;stroke-width:0px;stroke-miterlimit:2"
     id="path119"
     inkscape:connector-curvature="0" />
  <path
     class="point"
     d="m 675.72856,428.79814 a 42.304766,42.304766 0 1 1 -42.30477,-42.30477 42.304766,42.304766 0 0 1 42.30477,42.30477 z"
     style="opacity:1;fill:#c9c9c9;fill-opacity:1;stroke-width:0px;stroke-miterlimit:2"
     id="path121"
     inkscape:connector-curvature="0" />
  <path
     class="point"
     d="m 675.72856,533.17669 a 42.304766,42.304766 0 1 1 -42.30477,-42.30477 42.304766,42.304766 0 0 1 42.30477,42.30477 z"
     style="opacity:1;fill:#c9c9c9;fill-opacity:1;stroke-width:0px;stroke-miterlimit:2"
     id="path123"
     inkscape:connector-curvature="0" />
  <path
     class="point"
     d="m 675.72856,631.55523 a 42.304766,42.304766 0 1 1 -42.30477,-42.30477 42.304766,42.304766 0 0 1 42.30477,42.30477 z"
     style="opacity:1;fill:#c9c9c9;fill-opacity:1;stroke-width:0px;stroke-miterlimit:2"
     id="path125"
     inkscape:connector-curvature="0" />
  <path
     class="point"
     d="m 766.85759,428.79814 a 42.304766,42.304766 0 1 1 -42.30476,-42.30477 42.304766,42.304766 0 0 1 42.30476,42.30477 z"
     style="opacity:1;fill:#c9c9c9;fill-opacity:1;stroke-width:0px;stroke-miterlimit:2"
     id="path127"
     inkscape:connector-curvature="0" />
  <path
     class="point"
     d="m 766.85759,533.17669 a 42.304766,42.304766 0 1 1 -42.30476,-42.30477 42.304766,42.304766 0 0 1 42.30476,42.30477 z"
     style="opacity:1;fill:#c9c9c9;fill-opacity:1;stroke-width:0px;stroke-miterlimit:2"
     id="path129"
     inkscape:connector-curvature="0" />
  <path
     class="point"
     d="m 766.85759,631.55523 a 42.304766,42.304766 0 1 1 -42.30476,-42.30477 42.304766,42.304766 0 0 1 42.30476,42.30477 z"
     style="opacity:1;fill:#c9c9c9;fill-opacity:1;stroke-width:0px;stroke-miterlimit:2"
     id="path131"
     inkscape:connector-curvature="0" />
  <path
     class="point"
     d="M 857.99,428.79814 A 42.304766,42.304766 0 1 1 815.68525,386.49337 42.304766,42.304766 0 0 1 857.99,428.79814 Z"
     style="opacity:1;fill:#c9c9c9;fill-opacity:1;stroke-width:0px;stroke-miterlimit:2"
     id="path133"
     inkscape:connector-curvature="0" />
  <path
     class="point"
     d="M 857.99,533.17669 A 42.304766,42.304766 0 1 1 815.68525,490.87192 42.304766,42.304766 0 0 1 857.99,533.17669 Z"
     style="opacity:1;fill:#c9c9c9;fill-opacity:1;stroke-width:0px;stroke-miterlimit:2"
     id="path135"
     inkscape:connector-curvature="0" />
  <path
     class="point"
     d="M 857.99,631.55523 A 42.304766,42.304766 0 1 1 815.68525,589.25046 42.304766,42.304766 0 0 1 857.99,631.55523 Z"
     style="opacity:1;fill:#c9c9c9;fill-opacity:1;stroke-width:0px;stroke-miterlimit:2"
     id="path137"
     inkscape:connector-curvature="0" />
  <path
     class="point"
     d="m 584.59954,428.79814 a 42.304766,42.304766 0 1 1 -42.30477,-42.30477 42.304766,42.304766 0 0 1 42.30477,42.30477 z"
     style="opacity:1;fill:#000000;fill-opacity:1;stroke-width:0px;stroke-miterlimit:2"
     id="path151"
     inkscape:connector-curvature="0" />
  <path
     class="point"
     d="m 584.59954,428.79814 a 42.304766,42.304766 0 1 1 -42.30477,-42.30477 42.304766,42.304766 0 0 1 42.30477,42.30477 z"
     style="opacity:1;fill:#000000;fill-opacity:1;stroke-width:0px;stroke-miterlimit:2"
     id="path165"
     inkscape:connector-curvature="0" />
  <path
     class="point"
     d="m 584.59954,533.17669 a 42.304766,42.304766 0 1 1 -42.30477,-42.30477 42.304766,42.304766 0 0 1 42.30477,42.30477 z"
     style="opacity:1;fill:#000000;fill-opacity:1;stroke-width:0px;stroke-miterlimit:2"
     id="path167"
     inkscape:connector-curvature="0" />
  <path
     class="point"
     d="m 584.59954,428.79814 a 42.304766,42.304766 0 1 1 -42.30477,-42.30477 42.304766,42.304766 0 0 1 42.30477,42.30477 z"
     style="opacity:1;fill:#000000;fill-opacity:1;stroke-width:0px;stroke-miterlimit:2"
     id="path181"
     inkscape:connector-curvature="0" />
  <path
     class="point"
     d="m 584.59954,533.17669 a 42.304766,42.304766 0 1 1 -42.30477,-42.30477 42.304766,42.304766 0 0 1 42.30477,42.30477 z"
     style="opacity:1;fill:#000000;fill-opacity:1;stroke-width:0px;stroke-miterlimit:2"
     id="path183"
     inkscape:connector-curvature="0" />
  <path
     class="point"
     d="m 584.59954,631.55523 a 42.304766,42.304766 0 1 1 -42.30477,-42.30477 42.304766,42.304766 0 0 1 42.30477,42.30477 z"
     style="opacity:1;fill:#000000;fill-opacity:1;stroke-width:0px;stroke-miterlimit:2"
     id="path185"
     inkscape:connector-curvature="0" />
  <path
     class="point"
     d="m 675.72856,533.17669 a 42.304766,42.304766 0 1 1 -42.30477,-42.30477 42.304766,42.304766 0 0 1 42.30477,42.30477 z"
     style="opacity:1;fill:#000000;fill-opacity:1;stroke-width:0px;stroke-miterlimit:2"
     id="path199"
     inkscape:connector-curvature="0" />
  <path
     class="point"
     d="m 675.72856,533.17669 a 42.304766,42.304766 0 1 1 -42.30477,-42.30477 42.304766,42.304766 0 0 1 42.30477,42.30477 z"
     style="opacity:1;fill:#000000;fill-opacity:1;stroke-width:0px;stroke-miterlimit:2"
     id="path213"
     inkscape:connector-curvature="0" />
  <path
     class="point"
     d="m 675.72856,631.55523 a 42.304766,42.304766 0 1 1 -42.30477,-42.30477 42.304766,42.304766 0 0 1 42.30477,42.30477 z"
     style="opacity:1;fill:#000000;fill-opacity:1;stroke-width:0px;stroke-miterlimit:2"
     id="path215"
     inkscape:connector-curvature="0" />
  <path
     class="point"
     d="m 766.85759,428.79814 a 42.304766,42.304766 0 1 1 -42.30476,-42.30477 42.304766,42.304766 0 0 1 42.30476,42.30477 z"
     style="opacity:1;fill:#000000;fill-opacity:1;stroke-width:0px;stroke-miterlimit:2"
     id="path229"
     inkscape:connector-curvature="0" />
  <path
     class="point"
     d="M 857.99,533.17669 A 42.304766,42.304766 0 1 1 815.68525,490.87192 42.304766,42.304766 0 0 1 857.99,533.17669 Z"
     style="opacity:1;fill:#000000;fill-opacity:1;stroke-width:0px;stroke-miterlimit:2"
     id="path243"
     inkscape:connector-curvature="0" />
  <g
     class="trace scatter trace7b9a01"
     style="opacity:1;stroke-miterlimit:2"
     id="g273"
     transform="translate(52,64)">
    <g
       class="fills"
       id="g251" />
    <g
       class="errorbars"
       id="g253" />
    <g
       class="lines"
       id="g255" />
    <g
       class="points"
       id="g257" />
    <g
       class="text"
       id="g271">
      <g
         class="textpoint"
         transform="translate(0,3)"
         id="g261">
        <text
           x="436.60999"
           y="365.70001"
           style="font-size:12px;font-family:'Open Sans', verdana, arial, sans-serif;text-anchor:end;white-space:pre;fill:#2a3f5f;fill-opacity:1"
           id="text259">m9-EX_glc__D_e10.0-EX_thr__L_e6.67_BAR-Function-2</text>
      </g>
      <g
         class="textpoint"
         transform="translate(0,3)"
         id="g265">
        <text
           x="436.60999"
           y="467.28"
           style="font-size:12px;font-family:'Open Sans', verdana, arial, sans-serif;text-anchor:end;white-space:pre;fill:#2a3f5f;fill-opacity:1"
           id="text263">m9-EX_glc__D_e10.0-EX_gly_e3.33_BAR-Function-2</text>
      </g>
      <g
         class="textpoint"
         transform="translate(0,3)"
         id="g269">
        <text
           x="436.60999"
           y="568.85999"
           style="font-size:12px;font-family:'Open Sans', verdana, arial, sans-serif;text-anchor:end;white-space:pre;fill:#2a3f5f;fill-opacity:1"
           id="text267">m9-EX_glc__D_e10.0-EX_glu__L_e8.33_BAR-Function-2</text>
      </g>
    </g>
  </g>
  <path
     class="xlines-above crisp"
     d="M 0,0"
     style="fill:none"
     id="path281"
     inkscape:connector-curvature="0" />
  <path
     class="ylines-above crisp"
     d="M 0,0"
     style="fill:none"
     id="path283"
     inkscape:connector-curvature="0" />
  <g
     class="polarlayer"
     id="g297" />
  <g
     class="smithlayer"
     id="g299" />
  <g
     class="ternarylayer"
     id="g301" />
  <g
     class="geolayer"
     id="g303" />
  <g
     class="funnelarealayer"
     id="g305" />
  <g
     class="pielayer"
     id="g307" />
  <g
     class="iciclelayer"
     id="g309" />
  <g
     class="treemaplayer"
     id="g311" />
  <g
     class="sunburstlayer"
     id="g313" />
  <g
     class="glimages"
     id="g315" />
  <defs
     id="topdefs-0e6df0">
    <g
       class="clips"
       id="g317" />
  </defs>
  <g
     class="layer-above"
     id="g324">
    <g
       class="imagelayer"
       id="g320" />
    <g
       class="shapelayer"
       id="g322" />
  </g>
  <text
     class="gtitle"
     x="500"
     y="20"
     dy="0"
     style="font-weight:normal;font-size:17px;font-family:'Open Sans', verdana, arial, sans-serif;text-anchor:middle;white-space:pre;opacity:1;fill:#2a3f5f"
     id="text330">
    <tspan
       style="font-weight:bold"
       id="tspan328">Intersections<tspan
   style="font-weight:bold"
   id="tspan326" />
</tspan>
  </text>
</svg>
