<?xml version="1.0" encoding="UTF-8" standalone="no"?>
<svg
   xmlns:dc="http://purl.org/dc/elements/1.1/"
   xmlns:cc="http://creativecommons.org/ns#"
   xmlns:rdf="http://www.w3.org/1999/02/22-rdf-syntax-ns#"
   xmlns:svg="http://www.w3.org/2000/svg"
   xmlns="http://www.w3.org/2000/svg"
   xmlns:sodipodi="http://sodipodi.sourceforge.net/DTD/sodipodi-0.dtd"
   xmlns:inkscape="http://www.inkscape.org/namespaces/inkscape"
   class="main-svg"
   width="1000"
   height="800"
   style=""
   viewBox="0 0 1000 800"
   version="1.1"
   id="svg420"
   sodipodi:docname="NBR_shared_Subsystem_function_functions_between_conditions.svg"
   inkscape:version="0.92.5 (2060ec1f9f, 2020-04-08)">
  <metadata
     id="metadata424">
    <rdf:RDF>
      <cc:Work
         rdf:about="">
        <dc:format>image/svg+xml</dc:format>
        <dc:type
           rdf:resource="http://purl.org/dc/dcmitype/StillImage" />
      </cc:Work>
    </rdf:RDF>
  </metadata>
  <sodipodi:namedview
     pagecolor="#ffffff"
     bordercolor="#666666"
     borderopacity="1"
     objecttolerance="10"
     gridtolerance="10"
     guidetolerance="10"
     inkscape:pageopacity="0"
     inkscape:pageshadow="2"
     inkscape:window-width="1848"
     inkscape:window-height="1016"
     id="namedview422"
     showgrid="false"
     inkscape:zoom="0.91825455"
     inkscape:cx="479.66102"
     inkscape:cy="401.69492"
     inkscape:window-x="1992"
     inkscape:window-y="27"
     inkscape:window-maximized="1"
     inkscape:current-layer="svg420" />
  <defs
     id="defs-2087aa">
    <g
       class="clips"
       id="g16">
      <clipPath
         id="clip2087aaxyplot"
         class="plotclip">
        <rect
           width="770"
           height="680"
           id="rect4" />
      </clipPath>
      <clipPath
         class="axesclip"
         id="clip2087aax">
        <rect
           x="150"
           y="0"
           width="770"
           height="800"
           id="rect7" />
      </clipPath>
      <clipPath
         class="axesclip"
         id="clip2087aay">
        <rect
           x="0"
           y="40"
           width="1000"
           height="680"
           id="rect10" />
      </clipPath>
      <clipPath
         class="axesclip"
         id="clip2087aaxy">
        <rect
           x="150"
           y="40"
           width="770"
           height="680"
           id="rect13" />
      </clipPath>
    </g>
    <g
       class="gradients"
       id="g18" />
    <g
       class="patterns"
       id="g20" />
  </defs>
  <g
     class="layer-below"
     id="g31">
    <g
       class="imagelayer"
       id="g27" />
    <g
       class="shapelayer"
       id="g29" />
  </g>
  <g
     id="g33"
     class="shapelayer" />
  <g
     id="g35"
     class="imagelayer" />
  <g
     id="g39"
     class="x" />
  <g
     id="g41"
     class="y" />
  <g
     id="g45"
     class="x" />
  <path
     class="xlines-below"
     id="path63"
     d=""
     inkscape:connector-curvature="0" />
  <path
     class="ylines-below"
     id="path65"
     d=""
     inkscape:connector-curvature="0" />
  <g
     id="g2111"
     transform="translate(-39.595)">
    <g
       class="y"
       id="g57">
      <path
         class="ygrid crisp"
         transform="translate(0,663.58)"
         d="M 150,0 H 920"
         style="stroke:#ffffff;stroke-width:1px;stroke-opacity:1"
         id="path47"
         inkscape:connector-curvature="0" />
      <path
         class="ygrid crisp"
         transform="translate(0,514.33)"
         d="M 150,0 H 920"
         style="stroke:#ffffff;stroke-width:1px;stroke-opacity:1"
         id="path49"
         inkscape:connector-curvature="0" />
      <path
         class="ygrid crisp"
         transform="translate(0,365.07)"
         d="M 150,0 H 920"
         style="stroke:#ffffff;stroke-width:1px;stroke-opacity:1"
         id="path51"
         inkscape:connector-curvature="0" />
      <path
         class="ygrid crisp"
         transform="translate(0,215.82)"
         d="M 150,0 H 920"
         style="stroke:#ffffff;stroke-width:1px;stroke-opacity:1"
         id="path53"
         inkscape:connector-curvature="0" />
      <path
         class="ygrid crisp"
         transform="translate(0,66.57)"
         d="M 150,0 H 920"
         style="stroke:#ffffff;stroke-width:1px;stroke-opacity:1"
         id="path55"
         inkscape:connector-curvature="0" />
    </g>
    <g
       transform="translate(150,40)"
       id="g79"
       class="point">
      <path
         inkscape:connector-curvature="0"
         id="path75"
         style="opacity:1;vector-effect:non-scaling-stroke;fill:#000000;fill-opacity:1;stroke:#e5ecf6;stroke-width:0.5px;stroke-opacity:1"
         d="M 371.62,325.07 V 56.42 h 49.79 v 268.65 z" />
      <text
         id="text77"
         transform="translate(396.35094,50.42)"
         style="font-size:12px;font-family:'Open Sans', verdana, arial, sans-serif;text-anchor:middle;white-space:pre;fill:#2a3f5f;fill-opacity:1"
         y="0"
         x="0"
         data-notex="1"
         class="bartext bartext-outside">9</text>
    </g>
    <g
       transform="translate(158,40)"
       id="g85"
       class="point">
      <path
         inkscape:connector-curvature="0"
         id="path81"
         style="opacity:1;vector-effect:non-scaling-stroke;fill:#000000;fill-opacity:1;stroke:#e5ecf6;stroke-width:0.5px;stroke-opacity:1"
         d="m 433.86,325.07 v -119.4 h 49.8 v 119.4 z" />
      <text
         id="text83"
         transform="translate(458.59594,199.67)"
         style="font-size:12px;font-family:'Open Sans', verdana, arial, sans-serif;text-anchor:middle;white-space:pre;fill:#2a3f5f;fill-opacity:1"
         y="0"
         x="0"
         data-notex="1"
         class="bartext bartext-outside">4</text>
    </g>
    <g
       transform="translate(164,40)"
       id="g91"
       class="point">
      <path
         inkscape:connector-curvature="0"
         id="path87"
         style="opacity:1;vector-effect:non-scaling-stroke;fill:#000000;fill-opacity:1;stroke:#e5ecf6;stroke-width:0.5px;stroke-opacity:1"
         d="m 496.11,325.07 v -59.7 h 49.8 v 59.7 z" />
      <text
         id="text89"
         transform="translate(520.84594,259.37)"
         style="font-size:12px;font-family:'Open Sans', verdana, arial, sans-serif;text-anchor:middle;white-space:pre;fill:#2a3f5f;fill-opacity:1"
         y="0"
         x="0"
         data-notex="1"
         class="bartext bartext-outside">2</text>
    </g>
    <g
       transform="translate(172,40)"
       id="g97"
       class="point">
      <path
         inkscape:connector-curvature="0"
         id="path93"
         style="opacity:1;vector-effect:non-scaling-stroke;fill:#000000;fill-opacity:1;stroke:#e5ecf6;stroke-width:0.5px;stroke-opacity:1"
         d="m 558.36,325.07 v -29.85 h 49.8 v 29.85 z" />
      <text
         id="text95"
         transform="translate(583.09594,289.22)"
         style="font-size:12px;font-family:'Open Sans', verdana, arial, sans-serif;text-anchor:middle;white-space:pre;fill:#2a3f5f;fill-opacity:1"
         y="0"
         x="0"
         data-notex="1"
         class="bartext bartext-outside">1</text>
    </g>
    <g
       transform="translate(180,40)"
       id="g103"
       class="point">
      <path
         inkscape:connector-curvature="0"
         id="path99"
         style="opacity:1;vector-effect:non-scaling-stroke;fill:#000000;fill-opacity:1;stroke:#e5ecf6;stroke-width:0.5px;stroke-opacity:1"
         d="m 620.61,325.07 v -29.85 h 49.79 v 29.85 z" />
      <text
         id="text101"
         transform="translate(645.34094,289.22)"
         style="font-size:12px;font-family:'Open Sans', verdana, arial, sans-serif;text-anchor:middle;white-space:pre;fill:#2a3f5f;fill-opacity:1"
         y="0"
         x="0"
         data-notex="1"
         class="bartext bartext-outside">1</text>
    </g>
    <g
       transform="translate(188,40)"
       id="g109"
       class="point">
      <path
         inkscape:connector-curvature="0"
         id="path105"
         style="opacity:1;vector-effect:non-scaling-stroke;fill:#000000;fill-opacity:1;stroke:#e5ecf6;stroke-width:0.5px;stroke-opacity:1"
         d="m 682.85,325.07 v -29.85 h 49.8 v 29.85 z" />
      <text
         id="text107"
         transform="translate(707.58594,289.22)"
         style="font-size:12px;font-family:'Open Sans', verdana, arial, sans-serif;text-anchor:middle;white-space:pre;fill:#2a3f5f;fill-opacity:1"
         y="0"
         x="0"
         data-notex="1"
         class="bartext bartext-outside">1</text>
    </g>
    <path
       inkscape:connector-curvature="0"
       id="path123"
       style="opacity:1;fill:#c9c9c9;fill-opacity:1;stroke-width:0px;stroke-miterlimit:2"
       d="m 578.93827,409.64593 a 34.874134,34.874134 0 1 1 -34.87414,-34.87413 34.874134,34.874134 0 0 1 34.87414,34.87413 z"
       class="point" />
    <path
       inkscape:connector-curvature="0"
       id="path125"
       style="opacity:1;fill:#c9c9c9;fill-opacity:1;stroke-width:0px;stroke-miterlimit:2"
       d="m 578.93827,508.86881 a 34.874134,34.874134 0 1 1 -34.87414,-34.87414 34.874134,34.874134 0 0 1 34.87414,34.87414 z"
       class="point" />
    <path
       inkscape:connector-curvature="0"
       id="path127"
       style="opacity:1;fill:#c9c9c9;fill-opacity:1;stroke-width:0px;stroke-miterlimit:2"
       d="m 578.93827,606.09587 a 34.874134,34.874134 0 1 1 -34.87414,-34.87414 34.874134,34.874134 0 0 1 34.87414,34.87414 z"
       class="point" />
    <path
       inkscape:connector-curvature="0"
       id="path129"
       style="opacity:1;fill:#c9c9c9;fill-opacity:1;stroke-width:0px;stroke-miterlimit:2"
       d="M 648.9861,409.64593 A 34.874134,34.874134 0 1 1 614.11197,374.7718 34.874134,34.874134 0 0 1 648.9861,409.64593 Z"
       class="point" />
    <path
       inkscape:connector-curvature="0"
       id="path131"
       style="opacity:1;fill:#c9c9c9;fill-opacity:1;stroke-width:0px;stroke-miterlimit:2"
       d="m 648.9861,508.86881 a 34.874134,34.874134 0 1 1 -34.87413,-34.87414 34.874134,34.874134 0 0 1 34.87413,34.87414 z"
       class="point" />
    <path
       inkscape:connector-curvature="0"
       id="path133"
       style="opacity:1;fill:#c9c9c9;fill-opacity:1;stroke-width:0px;stroke-miterlimit:2"
       d="m 648.9861,606.09587 a 34.874134,34.874134 0 1 1 -34.87413,-34.87414 34.874134,34.874134 0 0 1 34.87413,34.87414 z"
       class="point" />
    <path
       inkscape:connector-curvature="0"
       id="path135"
       style="opacity:1;fill:#c9c9c9;fill-opacity:1;stroke-width:0px;stroke-miterlimit:2"
       d="m 719.03812,409.64593 a 34.874134,34.874134 0 1 1 -34.87413,-34.87413 34.874134,34.874134 0 0 1 34.87413,34.87413 z"
       class="point" />
    <path
       inkscape:connector-curvature="0"
       id="path137"
       style="opacity:1;fill:#c9c9c9;fill-opacity:1;stroke-width:0px;stroke-miterlimit:2"
       d="m 719.03812,508.86881 a 34.874134,34.874134 0 1 1 -34.87413,-34.87414 34.874134,34.874134 0 0 1 34.87413,34.87414 z"
       class="point" />
    <path
       inkscape:connector-curvature="0"
       id="path139"
       style="opacity:1;fill:#c9c9c9;fill-opacity:1;stroke-width:0px;stroke-miterlimit:2"
       d="m 719.03812,606.09587 a 34.874134,34.874134 0 1 1 -34.87413,-34.87414 34.874134,34.874134 0 0 1 34.87413,34.87414 z"
       class="point" />
    <path
       inkscape:connector-curvature="0"
       id="path141"
       style="opacity:1;fill:#c9c9c9;fill-opacity:1;stroke-width:0px;stroke-miterlimit:2"
       d="m 789.09014,409.64593 a 34.874134,34.874134 0 1 1 -34.87413,-34.87413 34.874134,34.874134 0 0 1 34.87413,34.87413 z"
       class="point" />
    <path
       inkscape:connector-curvature="0"
       id="path143"
       style="opacity:1;fill:#c9c9c9;fill-opacity:1;stroke-width:0px;stroke-miterlimit:2"
       d="m 789.09014,508.86881 a 34.874134,34.874134 0 1 1 -34.87413,-34.87414 34.874134,34.874134 0 0 1 34.87413,34.87414 z"
       class="point" />
    <path
       inkscape:connector-curvature="0"
       id="path145"
       style="opacity:1;fill:#c9c9c9;fill-opacity:1;stroke-width:0px;stroke-miterlimit:2"
       d="m 789.09014,606.09587 a 34.874134,34.874134 0 1 1 -34.87413,-34.87414 34.874134,34.874134 0 0 1 34.87413,34.87414 z"
       class="point" />
    <path
       inkscape:connector-curvature="0"
       id="path147"
       style="opacity:1;fill:#c9c9c9;fill-opacity:1;stroke-width:0px;stroke-miterlimit:2"
       d="m 859.14216,409.64593 a 34.874134,34.874134 0 1 1 -34.87413,-34.87413 34.874134,34.874134 0 0 1 34.87413,34.87413 z"
       class="point" />
    <path
       inkscape:connector-curvature="0"
       id="path149"
       style="opacity:1;fill:#c9c9c9;fill-opacity:1;stroke-width:0px;stroke-miterlimit:2"
       d="m 859.14216,508.86881 a 34.874134,34.874134 0 1 1 -34.87413,-34.87414 34.874134,34.874134 0 0 1 34.87413,34.87414 z"
       class="point" />
    <path
       inkscape:connector-curvature="0"
       id="path151"
       style="opacity:1;fill:#c9c9c9;fill-opacity:1;stroke-width:0px;stroke-miterlimit:2"
       d="m 859.14216,606.09587 a 34.874134,34.874134 0 1 1 -34.87413,-34.87414 34.874134,34.874134 0 0 1 34.87413,34.87414 z"
       class="point" />
    <path
       inkscape:connector-curvature="0"
       id="path153"
       style="opacity:1;fill:#c9c9c9;fill-opacity:1;stroke-width:0px;stroke-miterlimit:2"
       d="M 929.19,409.64593 A 34.874134,34.874134 0 1 1 894.31587,374.7718 34.874134,34.874134 0 0 1 929.19,409.64593 Z"
       class="point" />
    <path
       inkscape:connector-curvature="0"
       id="path155"
       style="opacity:1;fill:#c9c9c9;fill-opacity:1;stroke-width:0px;stroke-miterlimit:2"
       d="M 929.19,508.86881 A 34.874134,34.874134 0 1 1 894.31587,473.99467 34.874134,34.874134 0 0 1 929.19,508.86881 Z"
       class="point" />
    <path
       inkscape:connector-curvature="0"
       id="path157"
       style="opacity:1;fill:#c9c9c9;fill-opacity:1;stroke-width:0px;stroke-miterlimit:2"
       d="M 929.19,606.09587 A 34.874134,34.874134 0 1 1 894.31587,571.22173 34.874134,34.874134 0 0 1 929.19,606.09587 Z"
       class="point" />
    <path
       inkscape:connector-curvature="0"
       id="path171"
       style="opacity:1;fill:#000000;fill-opacity:1;stroke-width:0px;stroke-miterlimit:2"
       d="m 578.93827,409.64593 a 34.874134,34.874134 0 1 1 -34.87414,-34.87413 34.874134,34.874134 0 0 1 34.87414,34.87413 z"
       class="point" />
    <path
       inkscape:connector-curvature="0"
       id="path185"
       style="opacity:1;fill:#000000;fill-opacity:1;stroke-width:0px;stroke-miterlimit:2"
       d="m 578.93827,409.64593 a 34.874134,34.874134 0 1 1 -34.87414,-34.87413 34.874134,34.874134 0 0 1 34.87414,34.87413 z"
       class="point" />
    <path
       inkscape:connector-curvature="0"
       id="path187"
       style="opacity:1;fill:#000000;fill-opacity:1;stroke-width:0px;stroke-miterlimit:2"
       d="m 578.93827,508.86881 a 34.874134,34.874134 0 1 1 -34.87414,-34.87414 34.874134,34.874134 0 0 1 34.87414,34.87414 z"
       class="point" />
    <path
       inkscape:connector-curvature="0"
       id="path201"
       style="opacity:1;fill:#000000;fill-opacity:1;stroke-width:0px;stroke-miterlimit:2"
       d="m 578.93827,409.64593 a 34.874134,34.874134 0 1 1 -34.87414,-34.87413 34.874134,34.874134 0 0 1 34.87414,34.87413 z"
       class="point" />
    <path
       inkscape:connector-curvature="0"
       id="path203"
       style="opacity:1;fill:#000000;fill-opacity:1;stroke-width:0px;stroke-miterlimit:2"
       d="m 578.93827,508.86881 a 34.874134,34.874134 0 1 1 -34.87414,-34.87414 34.874134,34.874134 0 0 1 34.87414,34.87414 z"
       class="point" />
    <path
       inkscape:connector-curvature="0"
       id="path205"
       style="opacity:1;fill:#000000;fill-opacity:1;stroke-width:0px;stroke-miterlimit:2"
       d="m 578.93827,606.09587 a 34.874134,34.874134 0 1 1 -34.87414,-34.87414 34.874134,34.874134 0 0 1 34.87414,34.87414 z"
       class="point" />
    <path
       inkscape:connector-curvature="0"
       id="path219"
       style="opacity:1;fill:#000000;fill-opacity:1;stroke-width:0px;stroke-miterlimit:2"
       d="m 648.9861,508.86881 a 34.874134,34.874134 0 1 1 -34.87413,-34.87414 34.874134,34.874134 0 0 1 34.87413,34.87414 z"
       class="point" />
    <path
       inkscape:connector-curvature="0"
       id="path233"
       style="opacity:1;fill:#000000;fill-opacity:1;stroke-width:0px;stroke-miterlimit:2"
       d="m 648.9861,508.86881 a 34.874134,34.874134 0 1 1 -34.87413,-34.87414 34.874134,34.874134 0 0 1 34.87413,34.87414 z"
       class="point" />
    <path
       inkscape:connector-curvature="0"
       id="path235"
       style="opacity:1;fill:#000000;fill-opacity:1;stroke-width:0px;stroke-miterlimit:2"
       d="m 648.9861,606.09587 a 34.874134,34.874134 0 1 1 -34.87413,-34.87414 34.874134,34.874134 0 0 1 34.87413,34.87414 z"
       class="point" />
    <path
       inkscape:connector-curvature="0"
       id="path249"
       style="opacity:1;fill:#000000;fill-opacity:1;stroke-width:0px;stroke-miterlimit:2"
       d="m 719.03812,409.64593 a 34.874134,34.874134 0 1 1 -34.87413,-34.87413 34.874134,34.874134 0 0 1 34.87413,34.87413 z"
       class="point" />
    <path
       inkscape:connector-curvature="0"
       id="path263"
       style="opacity:1;fill:#000000;fill-opacity:1;stroke-width:0px;stroke-miterlimit:2"
       d="m 719.03812,409.64593 a 34.874134,34.874134 0 1 1 -34.87413,-34.87413 34.874134,34.874134 0 0 1 34.87413,34.87413 z"
       class="point" />
    <path
       inkscape:connector-curvature="0"
       id="path265"
       style="opacity:1;fill:#000000;fill-opacity:1;stroke-width:0px;stroke-miterlimit:2"
       d="m 719.03812,508.86881 a 34.874134,34.874134 0 1 1 -34.87413,-34.87414 34.874134,34.874134 0 0 1 34.87413,34.87414 z"
       class="point" />
    <path
       inkscape:connector-curvature="0"
       id="path279"
       style="opacity:1;fill:#000000;fill-opacity:1;stroke-width:0px;stroke-miterlimit:2"
       d="m 789.09014,409.64593 a 34.874134,34.874134 0 1 1 -34.87413,-34.87413 34.874134,34.874134 0 0 1 34.87413,34.87413 z"
       class="point" />
    <path
       inkscape:connector-curvature="0"
       id="path293"
       style="opacity:1;fill:#000000;fill-opacity:1;stroke-width:0px;stroke-miterlimit:2"
       d="m 859.14216,508.86881 a 34.874134,34.874134 0 1 1 -34.87413,-34.87414 34.874134,34.874134 0 0 1 34.87413,34.87414 z"
       class="point" />
    <path
       inkscape:connector-curvature="0"
       id="path307"
       style="opacity:1;fill:#000000;fill-opacity:1;stroke-width:0px;stroke-miterlimit:2"
       d="M 929.19,409.64593 A 34.874134,34.874134 0 1 1 894.31587,374.7718 34.874134,34.874134 0 0 1 929.19,409.64593 Z"
       class="point" />
    <path
       inkscape:connector-curvature="0"
       id="path321"
       style="opacity:1;fill:#000000;fill-opacity:1;stroke-width:0px;stroke-miterlimit:2"
       d="M 929.19,409.64593 A 34.874134,34.874134 0 1 1 894.31587,374.7718 34.874134,34.874134 0 0 1 929.19,409.64593 Z"
       class="point" />
    <path
       inkscape:connector-curvature="0"
       id="path323"
       style="opacity:1;fill:#000000;fill-opacity:1;stroke-width:0px;stroke-miterlimit:2"
       d="M 929.19,606.09587 A 34.874134,34.874134 0 1 1 894.31587,571.22173 34.874134,34.874134 0 0 1 929.19,606.09587 Z"
       class="point" />
    <g
       transform="translate(138,56)"
       id="g353"
       style="opacity:1;stroke-miterlimit:2"
       class="trace scatter trace1f34ce">
      <g
         id="g331"
         class="fills" />
      <g
         id="g333"
         class="errorbars" />
      <g
         id="g335"
         class="lines" />
      <g
         id="g337"
         class="points" />
      <g
         id="g351"
         class="text">
        <g
           id="g341"
           transform="translate(0,3)"
           class="textpoint">
          <text
             id="text339"
             style="font-size:12px;font-family:'Open Sans', verdana, arial, sans-serif;text-anchor:end;white-space:pre;fill:#2a3f5f;fill-opacity:1"
             y="354.63"
             x="366.01001">m9-EX_glc__D_e10.0-EX_thr__L_e6.67_NBR-Function-2</text>
        </g>
        <g
           id="g345"
           transform="translate(0,3)"
           class="textpoint">
          <text
             id="text343"
             style="font-size:12px;font-family:'Open Sans', verdana, arial, sans-serif;text-anchor:end;white-space:pre;fill:#2a3f5f;fill-opacity:1"
             y="453.13"
             x="366.01001">m9-EX_glc__D_e10.0-EX_glu__L_e8.33_NBR-Function-2</text>
        </g>
        <g
           id="g349"
           transform="translate(0,3)"
           class="textpoint">
          <text
             id="text347"
             style="font-size:12px;font-family:'Open Sans', verdana, arial, sans-serif;text-anchor:end;white-space:pre;fill:#2a3f5f;fill-opacity:1"
             y="551.64001"
             x="366.01001">m9-EX_glc__D_e10.0-EX_gly_e3.33_NBR-Function-2</text>
        </g>
      </g>
    </g>
  </g>
  <path
     class="xlines-above crisp"
     d="M 0,0"
     style="fill:none"
     id="path361"
     inkscape:connector-curvature="0" />
  <path
     class="ylines-above crisp"
     d="M 0,0"
     style="fill:none"
     id="path363"
     inkscape:connector-curvature="0" />
  <g
     class="polarlayer"
     id="g377" />
  <g
     class="smithlayer"
     id="g379" />
  <g
     class="ternarylayer"
     id="g381" />
  <g
     class="geolayer"
     id="g383" />
  <g
     class="funnelarealayer"
     id="g385" />
  <g
     class="pielayer"
     id="g387" />
  <g
     class="iciclelayer"
     id="g389" />
  <g
     class="treemaplayer"
     id="g391" />
  <g
     class="sunburstlayer"
     id="g393" />
  <g
     class="glimages"
     id="g395" />
  <defs
     id="topdefs-2087aa">
    <g
       class="clips"
       id="g397" />
  </defs>
  <g
     class="layer-above"
     id="g404">
    <g
       class="imagelayer"
       id="g400" />
    <g
       class="shapelayer"
       id="g402" />
  </g>
  <text
     class="gtitle"
     x="500"
     y="20"
     dy="0"
     style="font-weight:normal;font-size:17px;font-family:'Open Sans', verdana, arial, sans-serif;text-anchor:middle;white-space:pre;opacity:1;fill:#2a3f5f"
     id="text410">
    <tspan
       style="font-weight:bold"
       id="tspan408">Intersections<tspan
   style="font-weight:bold"
   id="tspan406" />
</tspan>
  </text>
</svg>
