<svg class="main-svg" xmlns="http://www.w3.org/2000/svg" xmlns:xlink="http://www.w3.org/1999/xlink" width="1000" height="800" style="" viewBox="0 0 1000 800"><rect x="0" y="0" width="1000" height="800" style="fill: rgb(255, 255, 255); fill-opacity: 1;"/><defs id="defs-5b9574"><g class="clips"><clipPath id="clip5b9574xyplot" class="plotclip"><rect width="770" height="680"/></clipPath><clipPath class="axesclip" id="clip5b9574x"><rect x="150" y="0" width="770" height="800"/></clipPath><clipPath class="axesclip" id="clip5b9574y"><rect x="0" y="40" width="1000" height="680"/></clipPath><clipPath class="axesclip" id="clip5b9574xy"><rect x="150" y="40" width="770" height="680"/></clipPath></g><g class="gradients"/><g class="patterns"/></defs><g class="bglayer"><rect class="bg" x="150" y="40" width="770" height="680" style="fill: rgb(255, 255, 255); fill-opacity: 1; stroke-width: 0;"/></g><g class="layer-below"><g class="imagelayer"/><g class="shapelayer"/></g><g class="cartesianlayer"><g class="subplot xy"><g class="layer-subplot"><g class="shapelayer"/><g class="imagelayer"/></g><g class="minor-gridlayer"><g class="x"/><g class="y"/></g><g class="gridlayer"><g class="x"/><g class="y"><path class="ygrid crisp" transform="translate(0,678.25)" d="M150,0h770" style="stroke: rgb(255, 255, 255); stroke-opacity: 1; stroke-width: 1px;"/><path class="ygrid crisp" transform="translate(0,578.83)" d="M150,0h770" style="stroke: rgb(255, 255, 255); stroke-opacity: 1; stroke-width: 1px;"/><path class="ygrid crisp" transform="translate(0,479.42)" d="M150,0h770" style="stroke: rgb(255, 255, 255); stroke-opacity: 1; stroke-width: 1px;"/><path class="ygrid crisp" transform="translate(0,380)" d="M150,0h770" style="stroke: rgb(255, 255, 255); stroke-opacity: 1; stroke-width: 1px;"/><path class="ygrid crisp" transform="translate(0,280.58000000000004)" d="M150,0h770" style="stroke: rgb(255, 255, 255); stroke-opacity: 1; stroke-width: 1px;"/><path class="ygrid crisp" transform="translate(0,181.17)" d="M150,0h770" style="stroke: rgb(255, 255, 255); stroke-opacity: 1; stroke-width: 1px;"/><path class="ygrid crisp" transform="translate(0,81.75)" d="M150,0h770" style="stroke: rgb(255, 255, 255); stroke-opacity: 1; stroke-width: 1px;"/></g></g><g class="zerolinelayer"/><path class="xlines-below"/><path class="ylines-below"/><g class="overlines-below"/><g class="xaxislayer-below"/><g class="yaxislayer-below"/><g class="overaxes-below"/><g class="plot" transform="translate(150,40)" clip-path="url(#clip5b9574xyplot)"><g class="barlayer mlayer"><g class="trace bars" style="opacity: 1;"><g class="points"><g class="point"><path d="M565.12,240.58V41.75H633.41V240.58Z" style="vector-effect: non-scaling-stroke; opacity: 1; stroke-width: 0.5px; fill: rgb(0, 0, 0); fill-opacity: 1; stroke: rgb(229, 236, 246); stroke-opacity: 1;"/><text class="bartext bartext-outside" text-anchor="middle" data-notex="1" x="0" y="0" style="font-family: 'Open Sans', verdana, arial, sans-serif; font-size: 12px; fill: rgb(42, 63, 95); fill-opacity: 1; white-space: pre;" transform="translate(599.1009375,35.75)">1</text></g><g class="point"><path d="M650.49,240.58V41.75H718.78V240.58Z" style="vector-effect: non-scaling-stroke; opacity: 1; stroke-width: 0.5px; fill: rgb(0, 0, 0); fill-opacity: 1; stroke: rgb(229, 236, 246); stroke-opacity: 1;"/><text class="bartext bartext-outside" text-anchor="middle" data-notex="1" x="0" y="0" style="font-family: 'Open Sans', verdana, arial, sans-serif; font-size: 12px; fill: rgb(42, 63, 95); fill-opacity: 1; white-space: pre;" transform="translate(684.4709375,35.75)">1</text></g></g></g></g><g class="scatterlayer mlayer"><g class="trace scatter traced483ee" style="stroke-miterlimit: 2; opacity: 1;"><g class="fills"/><g class="errorbars"/><g class="lines"/><g class="points"><path class="point" transform="translate(599.27,262.46)" d="M25,0A25,25 0 1,1 0,-25A25,25 0 0,1 25,0Z" style="opacity: 1; stroke-width: 0px; fill: rgb(201, 201, 201); fill-opacity: 1;"/><path class="point" transform="translate(599.27,306.2)" d="M25,0A25,25 0 1,1 0,-25A25,25 0 0,1 25,0Z" style="opacity: 1; stroke-width: 0px; fill: rgb(201, 201, 201); fill-opacity: 1;"/><path class="point" transform="translate(599.27,349.94)" d="M25,0A25,25 0 1,1 0,-25A25,25 0 0,1 25,0Z" style="opacity: 1; stroke-width: 0px; fill: rgb(201, 201, 201); fill-opacity: 1;"/><path class="point" transform="translate(599.27,393.68)" d="M25,0A25,25 0 1,1 0,-25A25,25 0 0,1 25,0Z" style="opacity: 1; stroke-width: 0px; fill: rgb(201, 201, 201); fill-opacity: 1;"/><path class="point" transform="translate(599.27,437.43)" d="M25,0A25,25 0 1,1 0,-25A25,25 0 0,1 25,0Z" style="opacity: 1; stroke-width: 0px; fill: rgb(201, 201, 201); fill-opacity: 1;"/><path class="point" transform="translate(684.63,262.46)" d="M25,0A25,25 0 1,1 0,-25A25,25 0 0,1 25,0Z" style="opacity: 1; stroke-width: 0px; fill: rgb(201, 201, 201); fill-opacity: 1;"/><path class="point" transform="translate(684.63,306.2)" d="M25,0A25,25 0 1,1 0,-25A25,25 0 0,1 25,0Z" style="opacity: 1; stroke-width: 0px; fill: rgb(201, 201, 201); fill-opacity: 1;"/><path class="point" transform="translate(684.63,349.94)" d="M25,0A25,25 0 1,1 0,-25A25,25 0 0,1 25,0Z" style="opacity: 1; stroke-width: 0px; fill: rgb(201, 201, 201); fill-opacity: 1;"/><path class="point" transform="translate(684.63,393.68)" d="M25,0A25,25 0 1,1 0,-25A25,25 0 0,1 25,0Z" style="opacity: 1; stroke-width: 0px; fill: rgb(201, 201, 201); fill-opacity: 1;"/><path class="point" transform="translate(684.63,437.43)" d="M25,0A25,25 0 1,1 0,-25A25,25 0 0,1 25,0Z" style="opacity: 1; stroke-width: 0px; fill: rgb(201, 201, 201); fill-opacity: 1;"/></g><g class="text"/></g><g class="trace scatter traceec00eb" style="stroke-miterlimit: 2; opacity: 1;"><g class="fills"/><g class="errorbars"/><g class="lines"/><g class="points"><path class="point" transform="translate(599.27,306.2)" d="M25,0A25,25 0 1,1 0,-25A25,25 0 0,1 25,0Z" style="opacity: 1; stroke-width: 0px; fill: rgb(0, 0, 0); fill-opacity: 1;"/></g><g class="text"/></g><g class="trace scatter trace41add7" style="stroke-miterlimit: 2; opacity: 1;"><g class="fills"/><g class="errorbars"/><g class="lines"/><g class="points"><path class="point" transform="translate(684.63,262.46)" d="M25,0A25,25 0 1,1 0,-25A25,25 0 0,1 25,0Z" style="opacity: 1; stroke-width: 0px; fill: rgb(0, 0, 0); fill-opacity: 1;"/></g><g class="text"/></g><g class="trace scatter trace4d862a" style="stroke-miterlimit: 2; opacity: 1;"><g class="fills"/><g class="errorbars"/><g class="lines"/><g class="points"><path class="point" transform="translate(684.63,262.46)" d="M25,0A25,25 0 1,1 0,-25A25,25 0 0,1 25,0Z" style="opacity: 1; stroke-width: 0px; fill: rgb(0, 0, 0); fill-opacity: 1;"/><path class="point" transform="translate(684.63,393.68)" d="M25,0A25,25 0 1,1 0,-25A25,25 0 0,1 25,0Z" style="opacity: 1; stroke-width: 0px; fill: rgb(0, 0, 0); fill-opacity: 1;"/></g><g class="text"/></g><g class="trace scatter trace11383b" style="stroke-miterlimit: 2; opacity: 1;"><g class="fills"/><g class="errorbars"/><g class="lines"/><g class="points"><path class="point" transform="translate(684.63,262.46)" d="M25,0A25,25 0 1,1 0,-25A25,25 0 0,1 25,0Z" style="opacity: 1; stroke-width: 0px; fill: rgb(0, 0, 0); fill-opacity: 1;"/><path class="point" transform="translate(684.63,393.68)" d="M25,0A25,25 0 1,1 0,-25A25,25 0 0,1 25,0Z" style="opacity: 1; stroke-width: 0px; fill: rgb(0, 0, 0); fill-opacity: 1;"/><path class="point" transform="translate(684.63,437.43)" d="M25,0A25,25 0 1,1 0,-25A25,25 0 0,1 25,0Z" style="opacity: 1; stroke-width: 0px; fill: rgb(0, 0, 0); fill-opacity: 1;"/></g><g class="text"/></g><g class="trace scatter trace59f30b" style="stroke-miterlimit: 2; opacity: 1;"><g class="fills"/><g class="errorbars"/><g class="lines"/><g class="points"/><g class="text"><g class="textpoint" transform="translate(0,3)"><text x="553.17" y="262.46" text-anchor="end" style="font-family: 'Open Sans', verdana, arial, sans-serif; font-size: 12px; fill: rgb(42, 63, 95); fill-opacity: 1; white-space: pre;">bg11-EX_photon_e706.676-6_a_sunrise_30_NBR-Function-1</text></g><g class="textpoint" transform="translate(0,3)"><text x="553.17" y="306.2" text-anchor="end" style="font-family: 'Open Sans', verdana, arial, sans-serif; font-size: 12px; fill: rgb(42, 63, 95); fill-opacity: 1; white-space: pre;">bg11-EX_photon_e5.41-13_a_sunrise_30_NBR-Function-1</text></g><g class="textpoint" transform="translate(0,3)"><text x="553.17" y="349.94" text-anchor="end" style="font-family: 'Open Sans', verdana, arial, sans-serif; font-size: 12px; fill: rgb(42, 63, 95); fill-opacity: 1; white-space: pre;">bg11-EX_photon_e5.41-1_b_sunrise_30_NBR-Function-1</text></g><g class="textpoint" transform="translate(0,3)"><text x="553.17" y="393.68" text-anchor="end" style="font-family: 'Open Sans', verdana, arial, sans-serif; font-size: 12px; fill: rgb(42, 63, 95); fill-opacity: 1; white-space: pre;">bg11-EX_photon_e706.676-11_a_sunrise_30_NBR-Function-1</text></g><g class="textpoint" transform="translate(0,3)"><text x="553.17" y="437.43" text-anchor="end" style="font-family: 'Open Sans', verdana, arial, sans-serif; font-size: 12px; fill: rgb(42, 63, 95); fill-opacity: 1; white-space: pre;">bg11-EX_photon_e706.676-1_a_sunrise_30_NBR-Function-1</text></g></g></g></g></g><g class="overplot"/><path class="xlines-above crisp" d="M0,0" style="fill: none;"/><path class="ylines-above crisp" d="M0,0" style="fill: none;"/><g class="overlines-above"/><g class="xaxislayer-above"/><g class="yaxislayer-above"/><g class="overaxes-above"/></g></g><g class="polarlayer"/><g class="smithlayer"/><g class="ternarylayer"/><g class="geolayer"/><g class="funnelarealayer"/><g class="pielayer"/><g class="iciclelayer"/><g class="treemaplayer"/><g class="sunburstlayer"/><g class="glimages"/><defs id="topdefs-5b9574"><g class="clips"/></defs><g class="layer-above"><g class="imagelayer"/><g class="shapelayer"/></g><g class="infolayer"><g class="g-gtitle"><text class="gtitle" x="500" y="20" text-anchor="middle" dy="0em" style="font-family: 'Open Sans', verdana, arial, sans-serif; font-size: 17px; fill: rgb(42, 63, 95); opacity: 1; font-weight: normal; white-space: pre;"><tspan style="font-weight:bold">Intersections<tspan style="font-weight:bold"></tspan></tspan></text></g><g class="g-xtitle"/><g class="g-ytitle"/></g></svg>