<svg class="main-svg" xmlns="http://www.w3.org/2000/svg" xmlns:xlink="http://www.w3.org/1999/xlink" width="1000" height="800" style="" viewBox="0 0 1000 800"><rect x="0" y="0" width="1000" height="800" style="fill: rgb(255, 255, 255); fill-opacity: 1;"/><defs id="defs-6afdc2"><g class="clips"><clipPath id="clip6afdc2xyplot" class="plotclip"><rect width="770" height="680"/></clipPath><clipPath class="axesclip" id="clip6afdc2x"><rect x="150" y="0" width="770" height="800"/></clipPath><clipPath class="axesclip" id="clip6afdc2y"><rect x="0" y="40" width="1000" height="680"/></clipPath><clipPath class="axesclip" id="clip6afdc2xy"><rect x="150" y="40" width="770" height="680"/></clipPath></g><g class="gradients"/><g class="patterns"/></defs><g class="bglayer"><rect class="bg" x="150" y="40" width="770" height="680" style="fill: rgb(255, 255, 255); fill-opacity: 1; stroke-width: 0;"/></g><g class="layer-below"><g class="imagelayer"/><g class="shapelayer"/></g><g class="cartesianlayer"><g class="subplot xy"><g class="layer-subplot"><g class="shapelayer"/><g class="imagelayer"/></g><g class="minor-gridlayer"><g class="x"/><g class="y"/></g><g class="gridlayer"><g class="x"/><g class="y"><path class="ygrid crisp" transform="translate(0,661.4)" d="M150,0h770" style="stroke: rgb(255, 255, 255); stroke-opacity: 1; stroke-width: 1px;"/><path class="ygrid crisp" transform="translate(0,566.81)" d="M150,0h770" style="stroke: rgb(255, 255, 255); stroke-opacity: 1; stroke-width: 1px;"/><path class="ygrid crisp" transform="translate(0,472.22)" d="M150,0h770" style="stroke: rgb(255, 255, 255); stroke-opacity: 1; stroke-width: 1px;"/><path class="ygrid crisp" transform="translate(0,377.64)" d="M150,0h770" style="stroke: rgb(255, 255, 255); stroke-opacity: 1; stroke-width: 1px;"/><path class="ygrid crisp" transform="translate(0,283.05)" d="M150,0h770" style="stroke: rgb(255, 255, 255); stroke-opacity: 1; stroke-width: 1px;"/><path class="ygrid crisp" transform="translate(0,188.46)" d="M150,0h770" style="stroke: rgb(255, 255, 255); stroke-opacity: 1; stroke-width: 1px;"/><path class="ygrid crisp" transform="translate(0,93.87)" d="M150,0h770" style="stroke: rgb(255, 255, 255); stroke-opacity: 1; stroke-width: 1px;"/></g></g><g class="zerolinelayer"/><path class="xlines-below"/><path class="ylines-below"/><g class="overlines-below"/><g class="xaxislayer-below"/><g class="yaxislayer-below"/><g class="overaxes-below"/><g class="plot" transform="translate(150,40)" clip-path="url(#clip6afdc2xyplot)"><g class="barlayer mlayer"><g class="trace bars" style="opacity: 1;"><g class="points"><g class="point"><path d="M271.05,337.64V58.6H324.99V337.64Z" style="vector-effect: non-scaling-stroke; opacity: 1; stroke-width: 0.5px; fill: rgb(0, 0, 0); fill-opacity: 1; stroke: rgb(229, 236, 246); stroke-opacity: 1;"/><text class="bartext bartext-outside" text-anchor="middle" data-notex="1" x="0" y="0" style="font-family: 'Open Sans', verdana, arial, sans-serif; font-size: 12px; fill: rgb(42, 63, 95); fill-opacity: 1; white-space: pre;" transform="translate(297.86375,52.6)">59</text></g><g class="point"><path d="M338.48,337.64V332.91H392.42V337.64Z" style="vector-effect: non-scaling-stroke; opacity: 1; stroke-width: 0.5px; fill: rgb(0, 0, 0); fill-opacity: 1; stroke: rgb(229, 236, 246); stroke-opacity: 1;"/><text class="bartext bartext-outside" text-anchor="middle" data-notex="1" x="0" y="0" style="font-family: 'Open Sans', verdana, arial, sans-serif; font-size: 12px; fill: rgb(42, 63, 95); fill-opacity: 1; white-space: pre;" transform="translate(365.28593750000005,326.91)">1</text></g><g class="point"><path d="M405.9,337.64V332.91H459.84V337.64Z" style="vector-effect: non-scaling-stroke; opacity: 1; stroke-width: 0.5px; fill: rgb(0, 0, 0); fill-opacity: 1; stroke: rgb(229, 236, 246); stroke-opacity: 1;"/><text class="bartext bartext-outside" text-anchor="middle" data-notex="1" x="0" y="0" style="font-family: 'Open Sans', verdana, arial, sans-serif; font-size: 12px; fill: rgb(42, 63, 95); fill-opacity: 1; white-space: pre;" transform="translate(432.7059375,326.91)">1</text></g><g class="point"><path d="M473.33,337.64V332.91H527.27V337.64Z" style="vector-effect: non-scaling-stroke; opacity: 1; stroke-width: 0.5px; fill: rgb(0, 0, 0); fill-opacity: 1; stroke: rgb(229, 236, 246); stroke-opacity: 1;"/><text class="bartext bartext-outside" text-anchor="middle" data-notex="1" x="0" y="0" style="font-family: 'Open Sans', verdana, arial, sans-serif; font-size: 12px; fill: rgb(42, 63, 95); fill-opacity: 1; white-space: pre;" transform="translate(500.13593749999995,326.91)">1</text></g><g class="point"><path d="M540.75,337.64V332.91H594.69V337.64Z" style="vector-effect: non-scaling-stroke; opacity: 1; stroke-width: 0.5px; fill: rgb(0, 0, 0); fill-opacity: 1; stroke: rgb(229, 236, 246); stroke-opacity: 1;"/><text class="bartext bartext-outside" text-anchor="middle" data-notex="1" x="0" y="0" style="font-family: 'Open Sans', verdana, arial, sans-serif; font-size: 12px; fill: rgb(42, 63, 95); fill-opacity: 1; white-space: pre;" transform="translate(567.5559375,326.91)">1</text></g><g class="point"><path d="M608.18,337.64V332.91H662.12V337.64Z" style="vector-effect: non-scaling-stroke; opacity: 1; stroke-width: 0.5px; fill: rgb(0, 0, 0); fill-opacity: 1; stroke: rgb(229, 236, 246); stroke-opacity: 1;"/><text class="bartext bartext-outside" text-anchor="middle" data-notex="1" x="0" y="0" style="font-family: 'Open Sans', verdana, arial, sans-serif; font-size: 12px; fill: rgb(42, 63, 95); fill-opacity: 1; white-space: pre;" transform="translate(634.9859375,326.91)">1</text></g><g class="point"><path d="M675.6,337.64V332.91H729.54V337.64Z" style="vector-effect: non-scaling-stroke; opacity: 1; stroke-width: 0.5px; fill: rgb(0, 0, 0); fill-opacity: 1; stroke: rgb(229, 236, 246); stroke-opacity: 1;"/><text class="bartext bartext-outside" text-anchor="middle" data-notex="1" x="0" y="0" style="font-family: 'Open Sans', verdana, arial, sans-serif; font-size: 12px; fill: rgb(42, 63, 95); fill-opacity: 1; white-space: pre;" transform="translate(702.4059374999999,326.91)">1</text></g></g></g></g><g class="scatterlayer mlayer"><g class="trace scatter tracec68855" style="stroke-miterlimit: 2; opacity: 1;"><g class="fills"/><g class="errorbars"/><g class="lines"/><g class="points"><path class="point" transform="translate(298.02,368.33)" d="M53.57,0A53.57,53.57 0 1,1 0,-53.57A53.57,53.57 0 0,1 53.57,0Z" style="opacity: 1; stroke-width: 0px; fill: rgb(201, 201, 201); fill-opacity: 1;"/><path class="point" transform="translate(298.02,445.06)" d="M53.57,0A53.57,53.57 0 1,1 0,-53.57A53.57,53.57 0 0,1 53.57,0Z" style="opacity: 1; stroke-width: 0px; fill: rgb(201, 201, 201); fill-opacity: 1;"/><path class="point" transform="translate(298.02,521.8)" d="M53.57,0A53.57,53.57 0 1,1 0,-53.57A53.57,53.57 0 0,1 53.57,0Z" style="opacity: 1; stroke-width: 0px; fill: rgb(201, 201, 201); fill-opacity: 1;"/><path class="point" transform="translate(298.02,598.54)" d="M53.57,0A53.57,53.57 0 1,1 0,-53.57A53.57,53.57 0 0,1 53.57,0Z" style="opacity: 1; stroke-width: 0px; fill: rgb(201, 201, 201); fill-opacity: 1;"/><path class="point" transform="translate(365.45,368.33)" d="M53.57,0A53.57,53.57 0 1,1 0,-53.57A53.57,53.57 0 0,1 53.57,0Z" style="opacity: 1; stroke-width: 0px; fill: rgb(201, 201, 201); fill-opacity: 1;"/><path class="point" transform="translate(365.45,445.06)" d="M53.57,0A53.57,53.57 0 1,1 0,-53.57A53.57,53.57 0 0,1 53.57,0Z" style="opacity: 1; stroke-width: 0px; fill: rgb(201, 201, 201); fill-opacity: 1;"/><path class="point" transform="translate(365.45,521.8)" d="M53.57,0A53.57,53.57 0 1,1 0,-53.57A53.57,53.57 0 0,1 53.57,0Z" style="opacity: 1; stroke-width: 0px; fill: rgb(201, 201, 201); fill-opacity: 1;"/><path class="point" transform="translate(365.45,598.54)" d="M53.57,0A53.57,53.57 0 1,1 0,-53.57A53.57,53.57 0 0,1 53.57,0Z" style="opacity: 1; stroke-width: 0px; fill: rgb(201, 201, 201); fill-opacity: 1;"/><path class="point" transform="translate(432.87,368.33)" d="M53.57,0A53.57,53.57 0 1,1 0,-53.57A53.57,53.57 0 0,1 53.57,0Z" style="opacity: 1; stroke-width: 0px; fill: rgb(201, 201, 201); fill-opacity: 1;"/><path class="point" transform="translate(432.87,445.06)" d="M53.57,0A53.57,53.57 0 1,1 0,-53.57A53.57,53.57 0 0,1 53.57,0Z" style="opacity: 1; stroke-width: 0px; fill: rgb(201, 201, 201); fill-opacity: 1;"/><path class="point" transform="translate(432.87,521.8)" d="M53.57,0A53.57,53.57 0 1,1 0,-53.57A53.57,53.57 0 0,1 53.57,0Z" style="opacity: 1; stroke-width: 0px; fill: rgb(201, 201, 201); fill-opacity: 1;"/><path class="point" transform="translate(432.87,598.54)" d="M53.57,0A53.57,53.57 0 1,1 0,-53.57A53.57,53.57 0 0,1 53.57,0Z" style="opacity: 1; stroke-width: 0px; fill: rgb(201, 201, 201); fill-opacity: 1;"/><path class="point" transform="translate(500.3,368.33)" d="M53.57,0A53.57,53.57 0 1,1 0,-53.57A53.57,53.57 0 0,1 53.57,0Z" style="opacity: 1; stroke-width: 0px; fill: rgb(201, 201, 201); fill-opacity: 1;"/><path class="point" transform="translate(500.3,445.06)" d="M53.57,0A53.57,53.57 0 1,1 0,-53.57A53.57,53.57 0 0,1 53.57,0Z" style="opacity: 1; stroke-width: 0px; fill: rgb(201, 201, 201); fill-opacity: 1;"/><path class="point" transform="translate(500.3,521.8)" d="M53.57,0A53.57,53.57 0 1,1 0,-53.57A53.57,53.57 0 0,1 53.57,0Z" style="opacity: 1; stroke-width: 0px; fill: rgb(201, 201, 201); fill-opacity: 1;"/><path class="point" transform="translate(500.3,598.54)" d="M53.57,0A53.57,53.57 0 1,1 0,-53.57A53.57,53.57 0 0,1 53.57,0Z" style="opacity: 1; stroke-width: 0px; fill: rgb(201, 201, 201); fill-opacity: 1;"/><path class="point" transform="translate(567.72,368.33)" d="M53.57,0A53.57,53.57 0 1,1 0,-53.57A53.57,53.57 0 0,1 53.57,0Z" style="opacity: 1; stroke-width: 0px; fill: rgb(201, 201, 201); fill-opacity: 1;"/><path class="point" transform="translate(567.72,445.06)" d="M53.57,0A53.57,53.57 0 1,1 0,-53.57A53.57,53.57 0 0,1 53.57,0Z" style="opacity: 1; stroke-width: 0px; fill: rgb(201, 201, 201); fill-opacity: 1;"/><path class="point" transform="translate(567.72,521.8)" d="M53.57,0A53.57,53.57 0 1,1 0,-53.57A53.57,53.57 0 0,1 53.57,0Z" style="opacity: 1; stroke-width: 0px; fill: rgb(201, 201, 201); fill-opacity: 1;"/><path class="point" transform="translate(567.72,598.54)" d="M53.57,0A53.57,53.57 0 1,1 0,-53.57A53.57,53.57 0 0,1 53.57,0Z" style="opacity: 1; stroke-width: 0px; fill: rgb(201, 201, 201); fill-opacity: 1;"/><path class="point" transform="translate(635.15,368.33)" d="M53.57,0A53.57,53.57 0 1,1 0,-53.57A53.57,53.57 0 0,1 53.57,0Z" style="opacity: 1; stroke-width: 0px; fill: rgb(201, 201, 201); fill-opacity: 1;"/><path class="point" transform="translate(635.15,445.06)" d="M53.57,0A53.57,53.57 0 1,1 0,-53.57A53.57,53.57 0 0,1 53.57,0Z" style="opacity: 1; stroke-width: 0px; fill: rgb(201, 201, 201); fill-opacity: 1;"/><path class="point" transform="translate(635.15,521.8)" d="M53.57,0A53.57,53.57 0 1,1 0,-53.57A53.57,53.57 0 0,1 53.57,0Z" style="opacity: 1; stroke-width: 0px; fill: rgb(201, 201, 201); fill-opacity: 1;"/><path class="point" transform="translate(635.15,598.54)" d="M53.57,0A53.57,53.57 0 1,1 0,-53.57A53.57,53.57 0 0,1 53.57,0Z" style="opacity: 1; stroke-width: 0px; fill: rgb(201, 201, 201); fill-opacity: 1;"/><path class="point" transform="translate(702.57,368.33)" d="M53.57,0A53.57,53.57 0 1,1 0,-53.57A53.57,53.57 0 0,1 53.57,0Z" style="opacity: 1; stroke-width: 0px; fill: rgb(201, 201, 201); fill-opacity: 1;"/><path class="point" transform="translate(702.57,445.06)" d="M53.57,0A53.57,53.57 0 1,1 0,-53.57A53.57,53.57 0 0,1 53.57,0Z" style="opacity: 1; stroke-width: 0px; fill: rgb(201, 201, 201); fill-opacity: 1;"/><path class="point" transform="translate(702.57,521.8)" d="M53.57,0A53.57,53.57 0 1,1 0,-53.57A53.57,53.57 0 0,1 53.57,0Z" style="opacity: 1; stroke-width: 0px; fill: rgb(201, 201, 201); fill-opacity: 1;"/><path class="point" transform="translate(702.57,598.54)" d="M53.57,0A53.57,53.57 0 1,1 0,-53.57A53.57,53.57 0 0,1 53.57,0Z" style="opacity: 1; stroke-width: 0px; fill: rgb(201, 201, 201); fill-opacity: 1;"/></g><g class="text"/></g><g class="trace scatter trace6d6f71" style="stroke-miterlimit: 2; opacity: 1;"><g class="fills"/><g class="errorbars"/><g class="lines"/><g class="points"><path class="point" transform="translate(298.02,368.33)" d="M53.57,0A53.57,53.57 0 1,1 0,-53.57A53.57,53.57 0 0,1 53.57,0Z" style="opacity: 1; stroke-width: 0px; fill: rgb(0, 0, 0); fill-opacity: 1;"/></g><g class="text"/></g><g class="trace scatter tracefe5908" style="stroke-miterlimit: 2; opacity: 1;"><g class="fills"/><g class="errorbars"/><g class="lines"/><g class="points"><path class="point" transform="translate(298.02,368.33)" d="M53.57,0A53.57,53.57 0 1,1 0,-53.57A53.57,53.57 0 0,1 53.57,0Z" style="opacity: 1; stroke-width: 0px; fill: rgb(0, 0, 0); fill-opacity: 1;"/><path class="point" transform="translate(298.02,445.06)" d="M53.57,0A53.57,53.57 0 1,1 0,-53.57A53.57,53.57 0 0,1 53.57,0Z" style="opacity: 1; stroke-width: 0px; fill: rgb(0, 0, 0); fill-opacity: 1;"/></g><g class="text"/></g><g class="trace scatter trace400626" style="stroke-miterlimit: 2; opacity: 1;"><g class="fills"/><g class="errorbars"/><g class="lines"/><g class="points"><path class="point" transform="translate(298.02,368.33)" d="M53.57,0A53.57,53.57 0 1,1 0,-53.57A53.57,53.57 0 0,1 53.57,0Z" style="opacity: 1; stroke-width: 0px; fill: rgb(0, 0, 0); fill-opacity: 1;"/><path class="point" transform="translate(298.02,445.06)" d="M53.57,0A53.57,53.57 0 1,1 0,-53.57A53.57,53.57 0 0,1 53.57,0Z" style="opacity: 1; stroke-width: 0px; fill: rgb(0, 0, 0); fill-opacity: 1;"/><path class="point" transform="translate(298.02,521.8)" d="M53.57,0A53.57,53.57 0 1,1 0,-53.57A53.57,53.57 0 0,1 53.57,0Z" style="opacity: 1; stroke-width: 0px; fill: rgb(0, 0, 0); fill-opacity: 1;"/></g><g class="text"/></g><g class="trace scatter traceeb0885" style="stroke-miterlimit: 2; opacity: 1;"><g class="fills"/><g class="errorbars"/><g class="lines"/><g class="points"><path class="point" transform="translate(298.02,368.33)" d="M53.57,0A53.57,53.57 0 1,1 0,-53.57A53.57,53.57 0 0,1 53.57,0Z" style="opacity: 1; stroke-width: 0px; fill: rgb(0, 0, 0); fill-opacity: 1;"/><path class="point" transform="translate(298.02,445.06)" d="M53.57,0A53.57,53.57 0 1,1 0,-53.57A53.57,53.57 0 0,1 53.57,0Z" style="opacity: 1; stroke-width: 0px; fill: rgb(0, 0, 0); fill-opacity: 1;"/><path class="point" transform="translate(298.02,521.8)" d="M53.57,0A53.57,53.57 0 1,1 0,-53.57A53.57,53.57 0 0,1 53.57,0Z" style="opacity: 1; stroke-width: 0px; fill: rgb(0, 0, 0); fill-opacity: 1;"/><path class="point" transform="translate(298.02,598.54)" d="M53.57,0A53.57,53.57 0 1,1 0,-53.57A53.57,53.57 0 0,1 53.57,0Z" style="opacity: 1; stroke-width: 0px; fill: rgb(0, 0, 0); fill-opacity: 1;"/></g><g class="text"/></g><g class="trace scatter trace88ceb4" style="stroke-miterlimit: 2; opacity: 1;"><g class="fills"/><g class="errorbars"/><g class="lines"/><g class="points"><path class="point" transform="translate(365.45,368.33)" d="M53.57,0A53.57,53.57 0 1,1 0,-53.57A53.57,53.57 0 0,1 53.57,0Z" style="opacity: 1; stroke-width: 0px; fill: rgb(0, 0, 0); fill-opacity: 1;"/></g><g class="text"/></g><g class="trace scatter tracebecc80" style="stroke-miterlimit: 2; opacity: 1;"><g class="fills"/><g class="errorbars"/><g class="lines"/><g class="points"><path class="point" transform="translate(432.87,368.33)" d="M53.57,0A53.57,53.57 0 1,1 0,-53.57A53.57,53.57 0 0,1 53.57,0Z" style="opacity: 1; stroke-width: 0px; fill: rgb(0, 0, 0); fill-opacity: 1;"/></g><g class="text"/></g><g class="trace scatter trace56a7f5" style="stroke-miterlimit: 2; opacity: 1;"><g class="fills"/><g class="errorbars"/><g class="lines"/><g class="points"><path class="point" transform="translate(432.87,368.33)" d="M53.57,0A53.57,53.57 0 1,1 0,-53.57A53.57,53.57 0 0,1 53.57,0Z" style="opacity: 1; stroke-width: 0px; fill: rgb(0, 0, 0); fill-opacity: 1;"/><path class="point" transform="translate(432.87,521.8)" d="M53.57,0A53.57,53.57 0 1,1 0,-53.57A53.57,53.57 0 0,1 53.57,0Z" style="opacity: 1; stroke-width: 0px; fill: rgb(0, 0, 0); fill-opacity: 1;"/></g><g class="text"/></g><g class="trace scatter tracec81a5f" style="stroke-miterlimit: 2; opacity: 1;"><g class="fills"/><g class="errorbars"/><g class="lines"/><g class="points"><path class="point" transform="translate(500.3,445.06)" d="M53.57,0A53.57,53.57 0 1,1 0,-53.57A53.57,53.57 0 0,1 53.57,0Z" style="opacity: 1; stroke-width: 0px; fill: rgb(0, 0, 0); fill-opacity: 1;"/></g><g class="text"/></g><g class="trace scatter trace05b378" style="stroke-miterlimit: 2; opacity: 1;"><g class="fills"/><g class="errorbars"/><g class="lines"/><g class="points"><path class="point" transform="translate(500.3,445.06)" d="M53.57,0A53.57,53.57 0 1,1 0,-53.57A53.57,53.57 0 0,1 53.57,0Z" style="opacity: 1; stroke-width: 0px; fill: rgb(0, 0, 0); fill-opacity: 1;"/><path class="point" transform="translate(500.3,598.54)" d="M53.57,0A53.57,53.57 0 1,1 0,-53.57A53.57,53.57 0 0,1 53.57,0Z" style="opacity: 1; stroke-width: 0px; fill: rgb(0, 0, 0); fill-opacity: 1;"/></g><g class="text"/></g><g class="trace scatter tracec34759" style="stroke-miterlimit: 2; opacity: 1;"><g class="fills"/><g class="errorbars"/><g class="lines"/><g class="points"><path class="point" transform="translate(567.72,521.8)" d="M53.57,0A53.57,53.57 0 1,1 0,-53.57A53.57,53.57 0 0,1 53.57,0Z" style="opacity: 1; stroke-width: 0px; fill: rgb(0, 0, 0); fill-opacity: 1;"/></g><g class="text"/></g><g class="trace scatter trace295e05" style="stroke-miterlimit: 2; opacity: 1;"><g class="fills"/><g class="errorbars"/><g class="lines"/><g class="points"><path class="point" transform="translate(567.72,521.8)" d="M53.57,0A53.57,53.57 0 1,1 0,-53.57A53.57,53.57 0 0,1 53.57,0Z" style="opacity: 1; stroke-width: 0px; fill: rgb(0, 0, 0); fill-opacity: 1;"/><path class="point" transform="translate(567.72,598.54)" d="M53.57,0A53.57,53.57 0 1,1 0,-53.57A53.57,53.57 0 0,1 53.57,0Z" style="opacity: 1; stroke-width: 0px; fill: rgb(0, 0, 0); fill-opacity: 1;"/></g><g class="text"/></g><g class="trace scatter trace610ac7" style="stroke-miterlimit: 2; opacity: 1;"><g class="fills"/><g class="errorbars"/><g class="lines"/><g class="points"><path class="point" transform="translate(635.15,368.33)" d="M53.57,0A53.57,53.57 0 1,1 0,-53.57A53.57,53.57 0 0,1 53.57,0Z" style="opacity: 1; stroke-width: 0px; fill: rgb(0, 0, 0); fill-opacity: 1;"/></g><g class="text"/></g><g class="trace scatter traceaa4ba6" style="stroke-miterlimit: 2; opacity: 1;"><g class="fills"/><g class="errorbars"/><g class="lines"/><g class="points"><path class="point" transform="translate(635.15,368.33)" d="M53.57,0A53.57,53.57 0 1,1 0,-53.57A53.57,53.57 0 0,1 53.57,0Z" style="opacity: 1; stroke-width: 0px; fill: rgb(0, 0, 0); fill-opacity: 1;"/><path class="point" transform="translate(635.15,445.06)" d="M53.57,0A53.57,53.57 0 1,1 0,-53.57A53.57,53.57 0 0,1 53.57,0Z" style="opacity: 1; stroke-width: 0px; fill: rgb(0, 0, 0); fill-opacity: 1;"/></g><g class="text"/></g><g class="trace scatter tracee76d21" style="stroke-miterlimit: 2; opacity: 1;"><g class="fills"/><g class="errorbars"/><g class="lines"/><g class="points"><path class="point" transform="translate(635.15,368.33)" d="M53.57,0A53.57,53.57 0 1,1 0,-53.57A53.57,53.57 0 0,1 53.57,0Z" style="opacity: 1; stroke-width: 0px; fill: rgb(0, 0, 0); fill-opacity: 1;"/><path class="point" transform="translate(635.15,445.06)" d="M53.57,0A53.57,53.57 0 1,1 0,-53.57A53.57,53.57 0 0,1 53.57,0Z" style="opacity: 1; stroke-width: 0px; fill: rgb(0, 0, 0); fill-opacity: 1;"/><path class="point" transform="translate(635.15,521.8)" d="M53.57,0A53.57,53.57 0 1,1 0,-53.57A53.57,53.57 0 0,1 53.57,0Z" style="opacity: 1; stroke-width: 0px; fill: rgb(0, 0, 0); fill-opacity: 1;"/></g><g class="text"/></g><g class="trace scatter trace2fa580" style="stroke-miterlimit: 2; opacity: 1;"><g class="fills"/><g class="errorbars"/><g class="lines"/><g class="points"><path class="point" transform="translate(702.57,368.33)" d="M53.57,0A53.57,53.57 0 1,1 0,-53.57A53.57,53.57 0 0,1 53.57,0Z" style="opacity: 1; stroke-width: 0px; fill: rgb(0, 0, 0); fill-opacity: 1;"/></g><g class="text"/></g><g class="trace scatter traced1f000" style="stroke-miterlimit: 2; opacity: 1;"><g class="fills"/><g class="errorbars"/><g class="lines"/><g class="points"><path class="point" transform="translate(702.57,368.33)" d="M53.57,0A53.57,53.57 0 1,1 0,-53.57A53.57,53.57 0 0,1 53.57,0Z" style="opacity: 1; stroke-width: 0px; fill: rgb(0, 0, 0); fill-opacity: 1;"/><path class="point" transform="translate(702.57,445.06)" d="M53.57,0A53.57,53.57 0 1,1 0,-53.57A53.57,53.57 0 0,1 53.57,0Z" style="opacity: 1; stroke-width: 0px; fill: rgb(0, 0, 0); fill-opacity: 1;"/></g><g class="text"/></g><g class="trace scatter trace0b9311" style="stroke-miterlimit: 2; opacity: 1;"><g class="fills"/><g class="errorbars"/><g class="lines"/><g class="points"><path class="point" transform="translate(702.57,368.33)" d="M53.57,0A53.57,53.57 0 1,1 0,-53.57A53.57,53.57 0 0,1 53.57,0Z" style="opacity: 1; stroke-width: 0px; fill: rgb(0, 0, 0); fill-opacity: 1;"/><path class="point" transform="translate(702.57,445.06)" d="M53.57,0A53.57,53.57 0 1,1 0,-53.57A53.57,53.57 0 0,1 53.57,0Z" style="opacity: 1; stroke-width: 0px; fill: rgb(0, 0, 0); fill-opacity: 1;"/><path class="point" transform="translate(702.57,598.54)" d="M53.57,0A53.57,53.57 0 1,1 0,-53.57A53.57,53.57 0 0,1 53.57,0Z" style="opacity: 1; stroke-width: 0px; fill: rgb(0, 0, 0); fill-opacity: 1;"/></g><g class="text"/></g><g class="trace scatter trace268628" style="stroke-miterlimit: 2; opacity: 1;"><g class="fills"/><g class="errorbars"/><g class="lines"/><g class="points"/><g class="text"><g class="textpoint" transform="translate(0,3)"><text x="275.1" y="368.33" text-anchor="end" style="font-family: 'Open Sans', verdana, arial, sans-serif; font-size: 12px; fill: rgb(42, 63, 95); fill-opacity: 1; white-space: pre;">m9-EX_glc_e7.44_BAR-Function-2</text></g><g class="textpoint" transform="translate(0,3)"><text x="275.1" y="445.06" text-anchor="end" style="font-family: 'Open Sans', verdana, arial, sans-serif; font-size: 12px; fill: rgb(42, 63, 95); fill-opacity: 1; white-space: pre;">m9-EX_ser__L_e14.88_BAR-Function-2</text></g><g class="textpoint" transform="translate(0,3)"><text x="275.1" y="521.8" text-anchor="end" style="font-family: 'Open Sans', verdana, arial, sans-serif; font-size: 12px; fill: rgb(42, 63, 95); fill-opacity: 1; white-space: pre;">m9-EX_cit_e7.44_BAR-Function-2</text></g><g class="textpoint" transform="translate(0,3)"><text x="275.1" y="598.54" text-anchor="end" style="font-family: 'Open Sans', verdana, arial, sans-serif; font-size: 12px; fill: rgb(42, 63, 95); fill-opacity: 1; white-space: pre;">m9-EX_fer_e2.91_BAR-Function-2</text></g></g></g></g></g><g class="overplot"/><path class="xlines-above crisp" d="M0,0" style="fill: none;"/><path class="ylines-above crisp" d="M0,0" style="fill: none;"/><g class="overlines-above"/><g class="xaxislayer-above"/><g class="yaxislayer-above"/><g class="overaxes-above"/></g></g><g class="polarlayer"/><g class="smithlayer"/><g class="ternarylayer"/><g class="geolayer"/><g class="funnelarealayer"/><g class="pielayer"/><g class="iciclelayer"/><g class="treemaplayer"/><g class="sunburstlayer"/><g class="glimages"/><defs id="topdefs-6afdc2"><g class="clips"/></defs><g class="layer-above"><g class="imagelayer"/><g class="shapelayer"/></g><g class="infolayer"><g class="g-gtitle"><text class="gtitle" x="500" y="20" text-anchor="middle" dy="0em" style="font-family: 'Open Sans', verdana, arial, sans-serif; font-size: 17px; fill: rgb(42, 63, 95); opacity: 1; font-weight: normal; white-space: pre;"><tspan style="font-weight:bold">Intersections<tspan style="font-weight:bold"></tspan></tspan></text></g><g class="g-xtitle"/><g class="g-ytitle"/></g></svg>