<svg class="main-svg" xmlns="http://www.w3.org/2000/svg" xmlns:xlink="http://www.w3.org/1999/xlink" width="1300" height="500" style="" viewBox="0 0 1300 500"><rect x="0" y="0" width="1300" height="500" style="fill: rgb(255, 255, 255); fill-opacity: 1;"/><defs id="defs-f94bf6"><g class="clips"/><g class="gradients"/><g class="patterns"/></defs><g class="bglayer"/><g class="layer-below"><g class="imagelayer"/><g class="shapelayer"/></g><g class="cartesianlayer"/><g class="polarlayer"/><g class="smithlayer"/><g class="ternarylayer"/><g class="geolayer"/><g class="funnelarealayer"/><g class="pielayer"><g class="trace" stroke-linejoin="round" style="opacity: 1;"><g class="slice"><path class="surface" d="M381.75483399593907,305.25483399593907a64,64 0 0 0 -45.254833995939045,-109.25483399593905l0,-96a160,160 0 0 1 113.13708498984761,273.1370849898476Z" style="pointer-events: all; stroke-width: 0; fill: rgb(99, 110, 250); fill-opacity: 1; stroke: rgb(68, 68, 68); stroke-opacity: 1;"/><g class="slicetext"><text data-notex="1" class="slicetext" transform="translate(439.8104451412641,213.33476807510993)" text-anchor="middle" x="0" y="0" style="font-family: 'Open Sans', verdana, arial, sans-serif; font-size: 12px; fill: rgb(255, 255, 255); fill-opacity: 1; white-space: pre;"><tspan class="line" dy="0em" x="0" y="0">AAM</tspan><tspan class="line" dy="1.3em" x="0" y="0">37.5%</tspan></text></g></g><g class="slice"><path class="surface" d="M336.5,196a64,64 0 0 0 -31.999999999999996,8.574374157795921l-47.99999999999999,-83.13843876330611a160,160 0 0 1 79.99999999999999,-21.435935394489803Z" style="pointer-events: all; stroke-width: 0; fill: rgb(237, 173, 8); fill-opacity: 1; stroke: rgb(68, 68, 68); stroke-opacity: 1;"/><g class="slicetext"><text data-notex="1" class="slicetext" transform="translate(310.43213177241137,148.01320766079195)rotate(75)" text-anchor="middle" x="0" y="0" style="font-family: 'Open Sans', verdana, arial, sans-serif; font-size: 12px; fill: rgb(68, 68, 68); fill-opacity: 1; white-space: pre;"><tspan class="line" dy="0em" x="0" y="0">Maintenance</tspan><tspan class="line" dy="1.3em" x="0" y="0">8.33%</tspan></text></g></g><g class="slice"><path class="surface" d="M304.5,204.57437415779592a64,64 0 0 0 -13.254833995939045,10.170791846265026l-67.88225099390856,-67.88225099390858a160,160 0 0 1 33.13708498984761,-25.42697961566256Z" style="pointer-events: all; stroke-width: 0; fill: rgb(95, 70, 144); fill-opacity: 1; stroke: rgb(68, 68, 68); stroke-opacity: 1;"/><g class="slicetext"><text data-notex="1" class="slicetext" transform="translate(266.86356653574717,165.20940205207586)scale(0.6461930890608079)rotate(52.5)" text-anchor="middle" x="0" y="0" style="font-family: 'Open Sans', verdana, arial, sans-serif; font-size: 12px; fill: rgb(255, 255, 255); fill-opacity: 1; white-space: pre;"><tspan class="line" dy="0em" x="0" y="0"> Outer Membrane Porin</tspan><tspan class="line" dy="1.3em" x="0" y="0">4.17%</tspan></text></g></g><g class="slice"><path class="surface" d="M291.24516600406093,214.74516600406093a64,64 0 0 0 -10.17079184626503,13.25483399593905l-83.1384387633061,-48.00000000000001a160,160 0 0 1 25.426979615662574,-33.13708498984762Z" style="pointer-events: all; stroke-width: 0; fill: rgb(56, 166, 165); fill-opacity: 1; stroke: rgb(68, 68, 68); stroke-opacity: 1;"/><g class="slicetext"><text data-notex="1" class="slicetext" transform="translate(247.34731143148932,188.78221306563123)scale(0.5856331327066734)rotate(37.5)" text-anchor="middle" x="0" y="0" style="font-family: 'Open Sans', verdana, arial, sans-serif; font-size: 12px; fill: rgb(68, 68, 68); fill-opacity: 1; white-space: pre;"><tspan class="line" dy="0em" x="0" y="0">Glycolysis/Gluconeogenesis</tspan><tspan class="line" dy="1.3em" x="0" y="0">4.17%</tspan></text></g></g><g class="slice"><path class="surface" d="M281.07437415779594,228a64,64 0 0 0 -6.393627040296304,15.43558111343868l-92.72887932375055,-24.84662832984199a160,160 0 0 1 15.984067600740758,-38.588952783596696Z" style="pointer-events: all; stroke-width: 0; fill: rgb(15, 133, 84); fill-opacity: 1; stroke: rgb(68, 68, 68); stroke-opacity: 1;"/><g class="slicetext"><text data-notex="1" class="slicetext" transform="translate(207.9377526021531,202.6296094440967)rotate(22.5)" text-anchor="middle" x="0" y="0" style="font-family: 'Open Sans', verdana, arial, sans-serif; font-size: 12px; fill: rgb(255, 255, 255); fill-opacity: 1; white-space: pre;"><tspan class="line" dy="0em" x="0" y="0">TCA</tspan><tspan class="line" dy="1.3em" x="0" y="0">4.17%</tspan></text></g></g><g class="slice"><path class="surface" d="M274.6807471174996,243.43558111343867a64,64 0 0 0 -2.1807471174996294,16.564418886561338l-96,1.543797743689571e-14a160,160 0 0 1 5.451867793749074,-41.41104721640335Z" style="pointer-events: all; stroke-width: 0; fill: rgb(115, 175, 72); fill-opacity: 1; stroke: rgb(68, 68, 68); stroke-opacity: 1;"/><g class="slicetext"><text data-notex="1" class="slicetext" transform="translate(197.46985525181753,237.85881620550734)rotate(7.5)" text-anchor="middle" x="0" y="0" style="font-family: 'Open Sans', verdana, arial, sans-serif; font-size: 12px; fill: rgb(68, 68, 68); fill-opacity: 1; white-space: pre;"><tspan class="line" dy="0em" x="0" y="0">CPGB</tspan><tspan class="line" dy="1.3em" x="0" y="0">4.17%</tspan></text></g></g><g class="slice"><path class="surface" d="M272.5,260a64,64 0 0 0 2.180747117499641,16.564418886561338l-92.72887932375053,24.846628329842023a160,160 0 0 1 -5.451867793749102,-41.41104721640335Z" style="pointer-events: all; stroke-width: 0; fill: rgb(225, 124, 5); fill-opacity: 1; stroke: rgb(68, 68, 68); stroke-opacity: 1;"/><g class="slicetext"><text data-notex="1" class="slicetext" transform="translate(225.30275636094493,272.75772632452816)scale(0.4903347752750751)rotate(-7.5)" text-anchor="middle" x="0" y="0" style="font-family: 'Open Sans', verdana, arial, sans-serif; font-size: 12px; fill: rgb(68, 68, 68); fill-opacity: 1; white-space: pre;"><tspan class="line" dy="0em" x="0" y="0">Purine and Pyrimidine Biosynthesis</tspan><tspan class="line" dy="1.3em" x="0" y="0">4.17%</tspan></text></g></g><g class="slice"><path class="surface" d="M274.68074711749966,276.5644188865613a64,64 0 0 0 6.393627040296292,15.435581113438662l-83.1384387633061,48.000000000000014a160,160 0 0 1 -15.98406760074073,-38.58895278359665Z" style="pointer-events: all; stroke-width: 0; fill: rgb(204, 80, 62); fill-opacity: 1; stroke: rgb(68, 68, 68); stroke-opacity: 1;"/><g class="slicetext"><text data-notex="1" class="slicetext" transform="translate(224.020667237857,303.7124119779769)scale(0.6988680117349872)rotate(-22.5)" text-anchor="middle" x="0" y="0" style="font-family: 'Open Sans', verdana, arial, sans-serif; font-size: 12px; fill: rgb(255, 255, 255); fill-opacity: 1; white-space: pre;"><tspan class="line" dy="0em" x="0" y="0">Murein Biosynthesis</tspan><tspan class="line" dy="1.3em" x="0" y="0">4.17%</tspan></text></g></g><g class="slice"><path class="surface" d="M281.07437415779594,292a64,64 0 0 0 10.170791846265026,13.254833995939027l-67.88225099390856,67.88225099390856a160,160 0 0 1 -25.42697961566256,-33.137084989847565Z" style="pointer-events: all; stroke-width: 0; fill: rgb(148, 52, 110); fill-opacity: 1; stroke: rgb(68, 68, 68); stroke-opacity: 1;"/><g class="slicetext"><text data-notex="1" class="slicetext" transform="translate(245.06109662966276,327.39735510550486)scale(0.5768044505547332)rotate(-37.5)" text-anchor="middle" x="0" y="0" style="font-family: 'Open Sans', verdana, arial, sans-serif; font-size: 12px; fill: rgb(255, 255, 255); fill-opacity: 1; white-space: pre;"><tspan class="line" dy="0em" x="0" y="0">Pentose Phosphate Pathway</tspan><tspan class="line" dy="1.3em" x="0" y="0">4.17%</tspan></text></g></g><g class="slice"><path class="surface" d="M291.24516600406093,305.25483399593907a64,64 0 0 0 13.254833995939022,10.17079184626503l-48.000000000000036,83.1384387633061a160,160 0 0 1 -33.13708498984755,-25.426979615662574Z" style="pointer-events: all; stroke-width: 0; fill: rgb(111, 64, 112); fill-opacity: 1; stroke: rgb(68, 68, 68); stroke-opacity: 1;"/><g class="slicetext"><text data-notex="1" class="slicetext" transform="translate(250.9478809547882,365.5216270540902)scale(0.9555483694098268)rotate(-52.5)" text-anchor="middle" x="0" y="0" style="font-family: 'Open Sans', verdana, arial, sans-serif; font-size: 12px; fill: rgb(255, 255, 255); fill-opacity: 1; white-space: pre;"><tspan class="line" dy="0em" x="0" y="0">GPL Met</tspan><tspan class="line" dy="1.3em" x="0" y="0">4.17%</tspan></text></g></g><g class="slice"><path class="surface" d="M304.5,315.42562584220406a64,64 0 0 0 15.435581113438651,6.393627040296292l-24.84662832984206,92.72887932375053a160,160 0 0 1 -38.588952783596625,-15.98406760074073Z" style="pointer-events: all; stroke-width: 0; fill: rgb(239, 85, 59); fill-opacity: 1; stroke: rgb(68, 68, 68); stroke-opacity: 1;"/><g class="slicetext"><text data-notex="1" class="slicetext" transform="translate(284.300960933183,377.72804376826673)scale(0.8339849030232802)rotate(-67.5)" text-anchor="middle" x="0" y="0" style="font-family: 'Open Sans', verdana, arial, sans-serif; font-size: 12px; fill: rgb(68, 68, 68); fill-opacity: 1; white-space: pre;"><tspan class="line" dy="0em" x="0" y="0">Ion Transport</tspan><tspan class="line" dy="1.3em" x="0" y="0">4.17%</tspan></text></g></g><g class="slice"><path class="surface" d="M319.9355811134386,321.81925288250034a64,64 0 0 0 16.56441888656131,2.180747117499641l-9.702173756302661e-14,96a160,160 0 0 1 -41.41104721640327,-5.451867793749102Z" style="pointer-events: all; stroke-width: 0; fill: rgb(0, 204, 150); fill-opacity: 1; stroke: rgb(68, 68, 68); stroke-opacity: 1;"/><g class="slicetext"><text data-notex="1" class="slicetext" transform="translate(314.3588162055072,399.0301447481824)rotate(-82.5)" text-anchor="middle" x="0" y="0" style="font-family: 'Open Sans', verdana, arial, sans-serif; font-size: 12px; fill: rgb(68, 68, 68); fill-opacity: 1; white-space: pre;"><tspan class="line" dy="0em" x="0" y="0">NSP</tspan><tspan class="line" dy="1.3em" x="0" y="0">4.17%</tspan></text></g></g><g class="slice"><path class="surface" d="M336.49999999999994,324a64,64 0 0 0 16.56441888656131,-2.1807471174996067l24.846628329841867,92.72887932375059a160,160 0 0 1 -41.411047216403276,5.451867793749017Z" style="pointer-events: all; stroke-width: 0; fill: rgb(171, 99, 250); fill-opacity: 1; stroke: rgb(68, 68, 68); stroke-opacity: 1;"/><g class="slicetext"><text data-notex="1" class="slicetext" transform="translate(358.59835488767027,398.7048269030442)rotate(82.5)" text-anchor="middle" x="0" y="0" style="font-family: 'Open Sans', verdana, arial, sans-serif; font-size: 12px; fill: rgb(68, 68, 68); fill-opacity: 1; white-space: pre;"><tspan class="line" dy="0em" x="0" y="0">OP</tspan><tspan class="line" dy="1.3em" x="0" y="0">4.17%</tspan></text></g></g><g class="slice"><path class="surface" d="M353.06441888656127,321.8192528825004a64,64 0 0 0 15.435581113438666,-6.39362704029627l47.999999999999865,83.13843876330618a160,160 0 0 1 -38.58895278359666,15.984067600740673Z" style="pointer-events: all; stroke-width: 0; fill: rgb(255, 161, 90); fill-opacity: 1; stroke: rgb(68, 68, 68); stroke-opacity: 1;"/><g class="slicetext"><text data-notex="1" class="slicetext" transform="translate(384.75505086003756,369.69323457630395)scale(0.684437372317979)rotate(67.50000000000011)" text-anchor="middle" x="0" y="0" style="font-family: 'Open Sans', verdana, arial, sans-serif; font-size: 12px; fill: rgb(68, 68, 68); fill-opacity: 1; white-space: pre;"><tspan class="line" dy="0em" x="0" y="0">Pyruvate Metabolism</tspan><tspan class="line" dy="1.3em" x="0" y="0">4.17%</tspan></text></g></g><g class="slice"><path class="surface" d="M368.4999999999999,315.4256258422041a64,64 0 0 0 13.254833995939045,-10.170791846264997l67.88225099390843,67.88225099390868a160,160 0 0 1 -33.13708498984761,25.42697961566249Z" style="pointer-events: all; stroke-width: 0; fill: rgb(25, 211, 243); fill-opacity: 1; stroke: rgb(68, 68, 68); stroke-opacity: 1;"/><g class="slicetext"><text data-notex="1" class="slicetext" transform="translate(424.99015016608854,369.0727262817244)rotate(52.500000000000114)" text-anchor="middle" x="0" y="0" style="font-family: 'Open Sans', verdana, arial, sans-serif; font-size: 12px; fill: rgb(68, 68, 68); fill-opacity: 1; white-space: pre;"><tspan class="line" dy="0em" x="0" y="0">CEB</tspan><tspan class="line" dy="1.3em" x="0" y="0">4.17%</tspan></text></g></g><g class="slice"><path class="surface" d="M381.75483399593895,305.2548339959391a64,64 0 0 0 0,0l67.88225099390843,67.88225099390868a160,160 0 0 1 0,0Z" style="pointer-events: all; stroke-width: 0; fill: rgb(29, 105, 150); fill-opacity: 1; stroke: rgb(68, 68, 68); stroke-opacity: 1;"/><g class="slicetext"><text data-notex="1" class="slicetext" transform="translate(336.5,100)scale(0)" text-anchor="middle" x="0" y="0" style="font-family: 'Open Sans', verdana, arial, sans-serif; font-size: 12px; fill: rgb(255, 255, 255); fill-opacity: 1; white-space: pre;"><tspan class="line" dy="0em" x="0" y="0"> Inner Membrane</tspan><tspan class="line" dy="1.3em" x="0" y="0">0%</tspan></text></g></g><g class="slice"><path class="surface" d="M381.75483399593895,305.2548339959391a64,64 0 0 0 0,0l67.88225099390843,67.88225099390868a160,160 0 0 1 0,0Z" style="pointer-events: all; stroke-width: 0; fill: rgb(102, 102, 102); fill-opacity: 1; stroke: rgb(68, 68, 68); stroke-opacity: 1;"/><g class="slicetext"><text data-notex="1" class="slicetext" transform="translate(336.5,100)scale(0)" text-anchor="middle" x="0" y="0" style="font-family: 'Open Sans', verdana, arial, sans-serif; font-size: 12px; fill: rgb(255, 255, 255); fill-opacity: 1; white-space: pre;"><tspan class="line" dy="0em" x="0" y="0">AC</tspan><tspan class="line" dy="1.3em" x="0" y="0">0%</tspan></text></g></g><g class="slice"><path class="surface" d="M381.75483399593895,305.2548339959391a64,64 0 0 0 0,0l67.88225099390843,67.88225099390868a160,160 0 0 1 0,0Z" style="pointer-events: all; stroke-width: 0; fill: rgb(255, 102, 146); fill-opacity: 1; stroke: rgb(68, 68, 68); stroke-opacity: 1;"/><g class="slicetext"><text data-notex="1" class="slicetext" transform="translate(336.5,100)scale(0)" text-anchor="middle" x="0" y="0" style="font-family: 'Open Sans', verdana, arial, sans-serif; font-size: 12px; fill: rgb(68, 68, 68); fill-opacity: 1; white-space: pre;"><tspan class="line" dy="0em" x="0" y="0">Nitrogen Metabolism</tspan><tspan class="line" dy="1.3em" x="0" y="0">0%</tspan></text></g></g><g class="slice"><path class="surface" d="M381.75483399593895,305.2548339959391a64,64 0 0 0 0,0l67.88225099390843,67.88225099390868a160,160 0 0 1 0,0Z" style="pointer-events: all; stroke-width: 0; fill: rgb(182, 232, 128); fill-opacity: 1; stroke: rgb(68, 68, 68); stroke-opacity: 1;"/><g class="slicetext"><text data-notex="1" class="slicetext" transform="translate(336.5,100)scale(0)" text-anchor="middle" x="0" y="0" style="font-family: 'Open Sans', verdana, arial, sans-serif; font-size: 12px; fill: rgb(68, 68, 68); fill-opacity: 1; white-space: pre;"><tspan class="line" dy="0em" x="0" y="0">MR</tspan><tspan class="line" dy="1.3em" x="0" y="0">0%</tspan></text></g></g><g class="slice"><path class="surface" d="M381.75483399593895,305.2548339959391a64,64 0 0 0 0,0l67.88225099390843,67.88225099390868a160,160 0 0 1 0,0Z" style="pointer-events: all; stroke-width: 0; fill: rgb(255, 151, 255); fill-opacity: 1; stroke: rgb(68, 68, 68); stroke-opacity: 1;"/><g class="slicetext"><text data-notex="1" class="slicetext" transform="translate(336.5,100)scale(0)" text-anchor="middle" x="0" y="0" style="font-family: 'Open Sans', verdana, arial, sans-serif; font-size: 12px; fill: rgb(68, 68, 68); fill-opacity: 1; white-space: pre;"><tspan class="line" dy="0em" x="0" y="0">MGlx Met</tspan><tspan class="line" dy="1.3em" x="0" y="0">0%</tspan></text></g></g></g><g class="trace" stroke-linejoin="round" style="opacity: 1;"><g class="slice"><path class="surface" d="M1004.6384070199385,210.97315564038541a64,64 0 0 0 -41.13840701993851,-14.973155640385409l0,-96a160,160 0 0 1 102.84601754984628,37.43288910096352Z" style="pointer-events: all; stroke-width: 0; fill: rgb(29, 105, 150); fill-opacity: 1; stroke: rgb(68, 68, 68); stroke-opacity: 1;"/><g class="slicetext"><text data-notex="1" class="slicetext" transform="translate(998.0526032481946,153.94696783357602)scale(0.999673944419981)rotate(-70)" text-anchor="middle" x="0" y="0" style="font-family: 'Open Sans', verdana, arial, sans-serif; font-size: 12px; fill: rgb(255, 255, 255); fill-opacity: 1; white-space: pre;"><tspan class="line" dy="0em" x="0" y="0"> Inner Membrane</tspan><tspan class="line" dy="1.3em" x="0" y="0">11.1%</tspan></text></g></g><g class="slice"><path class="surface" d="M963.5,196a64,64 0 0 0 -41.13840701993851,14.973155640385409l-61.70761052990777,-73.54026653942188a160,160 0 0 1 102.84601754984628,-37.43288910096352Z" style="pointer-events: all; stroke-width: 0; fill: rgb(111, 64, 112); fill-opacity: 1; stroke: rgb(68, 68, 68); stroke-opacity: 1;"/><g class="slicetext"><text data-notex="1" class="slicetext" transform="translate(922.3951227252562,144.16210638644642)" text-anchor="middle" x="0" y="0" style="font-family: 'Open Sans', verdana, arial, sans-serif; font-size: 12px; fill: rgb(255, 255, 255); fill-opacity: 1; white-space: pre;"><tspan class="line" dy="0em" x="0" y="0">GPL Met</tspan><tspan class="line" dy="1.3em" x="0" y="0">11.1%</tspan></text></g></g><g class="slice"><path class="surface" d="M922.3615929800615,210.97315564038541a64,64 0 0 0 -21.889289172842798,37.913360988931046l-94.54154428917197,-16.67022505602532a160,160 0 0 1 54.72322293210699,-94.78340247232761Z" style="pointer-events: all; stroke-width: 0; fill: rgb(102, 102, 102); fill-opacity: 1; stroke: rgb(68, 68, 68); stroke-opacity: 1;"/><g class="slicetext"><text data-notex="1" class="slicetext" transform="translate(860.0855762482429,196.5836886373719)" text-anchor="middle" x="0" y="0" style="font-family: 'Open Sans', verdana, arial, sans-serif; font-size: 12px; fill: rgb(255, 255, 255); fill-opacity: 1; white-space: pre;"><tspan class="line" dy="0em" x="0" y="0">AC</tspan><tspan class="line" dy="1.3em" x="0" y="0">11.1%</tspan></text></g></g><g class="slice"><path class="surface" d="M900.4723038072187,248.88651662931645a64,64 0 0 0 7.602070350577231,43.11348337068354l-83.13843876330611,47.99999999999998a160,160 0 0 1 -19.005175876443076,-107.78370842670884Z" style="pointer-events: all; stroke-width: 0; fill: rgb(99, 110, 250); fill-opacity: 1; stroke: rgb(68, 68, 68); stroke-opacity: 1;"/><g class="slicetext"><text data-notex="1" class="slicetext" transform="translate(845.9239588008726,276.8982122030237)" text-anchor="middle" x="0" y="0" style="font-family: 'Open Sans', verdana, arial, sans-serif; font-size: 12px; fill: rgb(255, 255, 255); fill-opacity: 1; white-space: pre;"><tspan class="line" dy="0em" x="0" y="0">AAM</tspan><tspan class="line" dy="1.3em" x="0" y="0">11.1%</tspan></text></g></g><g class="slice"><path class="surface" d="M908.0743741577959,292a64,64 0 0 0 33.53633666936127,28.140327730298146l-32.83393375926421,90.2104915954472a160,160 0 0 1 -83.84084167340318,-70.35081932574536Z" style="pointer-events: all; stroke-width: 0; fill: rgb(0, 204, 150); fill-opacity: 1; stroke: rgb(68, 68, 68); stroke-opacity: 1;"/><g class="slicetext"><text data-notex="1" class="slicetext" transform="translate(886.7007110756165,347.52561891052983)" text-anchor="middle" x="0" y="0" style="font-family: 'Open Sans', verdana, arial, sans-serif; font-size: 12px; fill: rgb(68, 68, 68); fill-opacity: 1; white-space: pre;"><tspan class="line" dy="0em" x="0" y="0">NSP</tspan><tspan class="line" dy="1.3em" x="0" y="0">11.1%</tspan></text></g></g><g class="slice"><path class="surface" d="M941.6107108271572,320.14032773029817a64,64 0 0 0 43.77857834568561,1.1368683772161604e-14l32.83393375926419,90.21049159544721a160,160 0 0 1 -109.44644586421401,-2.842170943040401e-14Z" style="pointer-events: all; stroke-width: 0; fill: rgb(171, 99, 250); fill-opacity: 1; stroke: rgb(68, 68, 68); stroke-opacity: 1;"/><g class="slicetext"><text data-notex="1" class="slicetext" transform="translate(963.3359375,375.41856022525616)" text-anchor="middle" x="0" y="0" style="font-family: 'Open Sans', verdana, arial, sans-serif; font-size: 12px; fill: rgb(68, 68, 68); fill-opacity: 1; white-space: pre;"><tspan class="line" dy="0em" x="0" y="0">OP</tspan><tspan class="line" dy="1.3em" x="0" y="0">11.1%</tspan></text></g></g><g class="slice"><path class="surface" d="M985.3892891728428,320.14032773029817a64,64 0 0 0 33.536336669361276,-28.140327730298118l83.1384387633061,48.00000000000004a160,160 0 0 1 -83.84084167340319,70.35081932574529Z" style="pointer-events: all; stroke-width: 0; fill: rgb(255, 102, 146); fill-opacity: 1; stroke: rgb(68, 68, 68); stroke-opacity: 1;"/><g class="slicetext"><text data-notex="1" class="slicetext" transform="translate(1037.7604097786946,343.5576212557057)scale(0.8350148643374432)rotate(50)" text-anchor="middle" x="0" y="0" style="font-family: 'Open Sans', verdana, arial, sans-serif; font-size: 12px; fill: rgb(68, 68, 68); fill-opacity: 1; white-space: pre;"><tspan class="line" dy="0em" x="0" y="0">Nitrogen Metabolism</tspan><tspan class="line" dy="1.3em" x="0" y="0">11.1%</tspan></text></g></g><g class="slice"><path class="surface" d="M1018.9256258422041,292a64,64 0 0 0 7.602070350577264,-43.1134833706835l94.541544289172,-16.670225056025192a160,160 0 0 1 -19.00517587644316,107.78370842670873Z" style="pointer-events: all; stroke-width: 0; fill: rgb(182, 232, 128); fill-opacity: 1; stroke: rgb(68, 68, 68); stroke-opacity: 1;"/><g class="slicetext"><text data-notex="1" class="slicetext" transform="translate(1080.7479161991273,276.89821220302383)" text-anchor="middle" x="0" y="0" style="font-family: 'Open Sans', verdana, arial, sans-serif; font-size: 12px; fill: rgb(68, 68, 68); fill-opacity: 1; white-space: pre;"><tspan class="line" dy="0em" x="0" y="0">MR</tspan><tspan class="line" dy="1.3em" x="0" y="0">11.1%</tspan></text></g></g><g class="slice"><path class="surface" d="M1026.5276961927814,248.88651662931653a64,64 0 0 0 -21.889289172842712,-37.913360988931046l61.707610529907925,-73.54026653942175a160,160 0 0 1 54.72322293210678,94.78340247232761Z" style="pointer-events: all; stroke-width: 0; fill: rgb(255, 151, 255); fill-opacity: 1; stroke: rgb(68, 68, 68); stroke-opacity: 1;"/><g class="slicetext"><text data-notex="1" class="slicetext" transform="translate(1066.414423751757,196.5836886373721)" text-anchor="middle" x="0" y="0" style="font-family: 'Open Sans', verdana, arial, sans-serif; font-size: 12px; fill: rgb(68, 68, 68); fill-opacity: 1; white-space: pre;"><tspan class="line" dy="0em" x="0" y="0">MGlx Met</tspan><tspan class="line" dy="1.3em" x="0" y="0">11.1%</tspan></text></g></g><g class="slice"><path class="surface" d="M1004.6384070199387,210.9731556403855a64,64 0 0 0 0,0l61.707610529907925,-73.54026653942175a160,160 0 0 1 0,0Z" style="pointer-events: all; stroke-width: 0; fill: rgb(95, 70, 144); fill-opacity: 1; stroke: rgb(68, 68, 68); stroke-opacity: 1;"/><g class="slicetext"><text data-notex="1" class="slicetext" transform="translate(963.5,100)scale(0)" text-anchor="middle" x="0" y="0" style="font-family: 'Open Sans', verdana, arial, sans-serif; font-size: 12px; fill: rgb(255, 255, 255); fill-opacity: 1; white-space: pre;"><tspan class="line" dy="0em" x="0" y="0"> Outer Membrane Porin</tspan><tspan class="line" dy="1.3em" x="0" y="0">0%</tspan></text></g></g><g class="slice"><path class="surface" d="M1004.6384070199387,210.9731556403855a64,64 0 0 0 0,0l61.707610529907925,-73.54026653942175a160,160 0 0 1 0,0Z" style="pointer-events: all; stroke-width: 0; fill: rgb(56, 166, 165); fill-opacity: 1; stroke: rgb(68, 68, 68); stroke-opacity: 1;"/><g class="slicetext"><text data-notex="1" class="slicetext" transform="translate(963.5,100)scale(0)" text-anchor="middle" x="0" y="0" style="font-family: 'Open Sans', verdana, arial, sans-serif; font-size: 12px; fill: rgb(68, 68, 68); fill-opacity: 1; white-space: pre;"><tspan class="line" dy="0em" x="0" y="0">Glycolysis/Gluconeogenesis</tspan><tspan class="line" dy="1.3em" x="0" y="0">0%</tspan></text></g></g><g class="slice"><path class="surface" d="M1004.6384070199387,210.9731556403855a64,64 0 0 0 0,0l61.707610529907925,-73.54026653942175a160,160 0 0 1 0,0Z" style="pointer-events: all; stroke-width: 0; fill: rgb(15, 133, 84); fill-opacity: 1; stroke: rgb(68, 68, 68); stroke-opacity: 1;"/><g class="slicetext"><text data-notex="1" class="slicetext" transform="translate(963.5,100)scale(0)" text-anchor="middle" x="0" y="0" style="font-family: 'Open Sans', verdana, arial, sans-serif; font-size: 12px; fill: rgb(255, 255, 255); fill-opacity: 1; white-space: pre;"><tspan class="line" dy="0em" x="0" y="0">TCA</tspan><tspan class="line" dy="1.3em" x="0" y="0">0%</tspan></text></g></g><g class="slice"><path class="surface" d="M1004.6384070199387,210.9731556403855a64,64 0 0 0 0,0l61.707610529907925,-73.54026653942175a160,160 0 0 1 0,0Z" style="pointer-events: all; stroke-width: 0; fill: rgb(115, 175, 72); fill-opacity: 1; stroke: rgb(68, 68, 68); stroke-opacity: 1;"/><g class="slicetext"><text data-notex="1" class="slicetext" transform="translate(963.5,100)scale(0)" text-anchor="middle" x="0" y="0" style="font-family: 'Open Sans', verdana, arial, sans-serif; font-size: 12px; fill: rgb(68, 68, 68); fill-opacity: 1; white-space: pre;"><tspan class="line" dy="0em" x="0" y="0">CPGB</tspan><tspan class="line" dy="1.3em" x="0" y="0">0%</tspan></text></g></g><g class="slice"><path class="surface" d="M1004.6384070199387,210.9731556403855a64,64 0 0 0 0,0l61.707610529907925,-73.54026653942175a160,160 0 0 1 0,0Z" style="pointer-events: all; stroke-width: 0; fill: rgb(237, 173, 8); fill-opacity: 1; stroke: rgb(68, 68, 68); stroke-opacity: 1;"/><g class="slicetext"><text data-notex="1" class="slicetext" transform="translate(963.5,100)scale(0)" text-anchor="middle" x="0" y="0" style="font-family: 'Open Sans', verdana, arial, sans-serif; font-size: 12px; fill: rgb(68, 68, 68); fill-opacity: 1; white-space: pre;"><tspan class="line" dy="0em" x="0" y="0">Maintenance</tspan><tspan class="line" dy="1.3em" x="0" y="0">0%</tspan></text></g></g><g class="slice"><path class="surface" d="M1004.6384070199387,210.9731556403855a64,64 0 0 0 0,0l61.707610529907925,-73.54026653942175a160,160 0 0 1 0,0Z" style="pointer-events: all; stroke-width: 0; fill: rgb(225, 124, 5); fill-opacity: 1; stroke: rgb(68, 68, 68); stroke-opacity: 1;"/><g class="slicetext"><text data-notex="1" class="slicetext" transform="translate(963.5,100)scale(0)" text-anchor="middle" x="0" y="0" style="font-family: 'Open Sans', verdana, arial, sans-serif; font-size: 12px; fill: rgb(68, 68, 68); fill-opacity: 1; white-space: pre;"><tspan class="line" dy="0em" x="0" y="0">Purine and Pyrimidine Biosynthesis</tspan><tspan class="line" dy="1.3em" x="0" y="0">0%</tspan></text></g></g><g class="slice"><path class="surface" d="M1004.6384070199387,210.9731556403855a64,64 0 0 0 0,0l61.707610529907925,-73.54026653942175a160,160 0 0 1 0,0Z" style="pointer-events: all; stroke-width: 0; fill: rgb(204, 80, 62); fill-opacity: 1; stroke: rgb(68, 68, 68); stroke-opacity: 1;"/><g class="slicetext"><text data-notex="1" class="slicetext" transform="translate(963.5,100)scale(0)" text-anchor="middle" x="0" y="0" style="font-family: 'Open Sans', verdana, arial, sans-serif; font-size: 12px; fill: rgb(255, 255, 255); fill-opacity: 1; white-space: pre;"><tspan class="line" dy="0em" x="0" y="0">Murein Biosynthesis</tspan><tspan class="line" dy="1.3em" x="0" y="0">0%</tspan></text></g></g><g class="slice"><path class="surface" d="M1004.6384070199387,210.9731556403855a64,64 0 0 0 0,0l61.707610529907925,-73.54026653942175a160,160 0 0 1 0,0Z" style="pointer-events: all; stroke-width: 0; fill: rgb(148, 52, 110); fill-opacity: 1; stroke: rgb(68, 68, 68); stroke-opacity: 1;"/><g class="slicetext"><text data-notex="1" class="slicetext" transform="translate(963.5,100)scale(0)" text-anchor="middle" x="0" y="0" style="font-family: 'Open Sans', verdana, arial, sans-serif; font-size: 12px; fill: rgb(255, 255, 255); fill-opacity: 1; white-space: pre;"><tspan class="line" dy="0em" x="0" y="0">Pentose Phosphate Pathway</tspan><tspan class="line" dy="1.3em" x="0" y="0">0%</tspan></text></g></g><g class="slice"><path class="surface" d="M1004.6384070199387,210.9731556403855a64,64 0 0 0 0,0l61.707610529907925,-73.54026653942175a160,160 0 0 1 0,0Z" style="pointer-events: all; stroke-width: 0; fill: rgb(239, 85, 59); fill-opacity: 1; stroke: rgb(68, 68, 68); stroke-opacity: 1;"/><g class="slicetext"><text data-notex="1" class="slicetext" transform="translate(963.5,100)scale(0)" text-anchor="middle" x="0" y="0" style="font-family: 'Open Sans', verdana, arial, sans-serif; font-size: 12px; fill: rgb(68, 68, 68); fill-opacity: 1; white-space: pre;"><tspan class="line" dy="0em" x="0" y="0">Ion Transport</tspan><tspan class="line" dy="1.3em" x="0" y="0">0%</tspan></text></g></g><g class="slice"><path class="surface" d="M1004.6384070199387,210.9731556403855a64,64 0 0 0 0,0l61.707610529907925,-73.54026653942175a160,160 0 0 1 0,0Z" style="pointer-events: all; stroke-width: 0; fill: rgb(255, 161, 90); fill-opacity: 1; stroke: rgb(68, 68, 68); stroke-opacity: 1;"/><g class="slicetext"><text data-notex="1" class="slicetext" transform="translate(963.5,100)scale(0)" text-anchor="middle" x="0" y="0" style="font-family: 'Open Sans', verdana, arial, sans-serif; font-size: 12px; fill: rgb(68, 68, 68); fill-opacity: 1; white-space: pre;"><tspan class="line" dy="0em" x="0" y="0">Pyruvate Metabolism</tspan><tspan class="line" dy="1.3em" x="0" y="0">0%</tspan></text></g></g><g class="slice"><path class="surface" d="M1004.6384070199387,210.9731556403855a64,64 0 0 0 0,0l61.707610529907925,-73.54026653942175a160,160 0 0 1 0,0Z" style="pointer-events: all; stroke-width: 0; fill: rgb(25, 211, 243); fill-opacity: 1; stroke: rgb(68, 68, 68); stroke-opacity: 1;"/><g class="slicetext"><text data-notex="1" class="slicetext" transform="translate(963.5,100)scale(0)" text-anchor="middle" x="0" y="0" style="font-family: 'Open Sans', verdana, arial, sans-serif; font-size: 12px; fill: rgb(68, 68, 68); fill-opacity: 1; white-space: pre;"><tspan class="line" dy="0em" x="0" y="0">CEB</tspan><tspan class="line" dy="1.3em" x="0" y="0">0%</tspan></text></g></g></g></g><g class="iciclelayer"/><g class="treemaplayer"/><g class="sunburstlayer"/><g class="glimages"/><defs id="topdefs-f94bf6"><g class="clips"/></defs><g class="layer-above"><g class="imagelayer"/><g class="shapelayer"/></g><g class="infolayer"><g class="g-gtitle"/><g class="annotation" data-index="0" style="opacity: 1;"><g class="annotation-text-g" transform="rotate(0,330.5,260)"><g class="cursor-pointer" transform="translate(308,247)"><rect class="bg" x="0.5" y="0.5" width="44" height="25" style="stroke-width: 1px; stroke: rgb(0, 0, 0); stroke-opacity: 0; fill: rgb(0, 0, 0); fill-opacity: 0;"/><text class="annotation-text" text-anchor="middle" x="22.5625" y="20" style="font-family: 'Open Sans', verdana, arial, sans-serif; font-size: 20px; fill: rgb(42, 63, 95); fill-opacity: 1; white-space: pre;">BAR</text></g></g></g><g class="annotation" data-index="1" style="opacity: 1;"><g class="annotation-text-g" transform="rotate(0,969,260)"><g class="cursor-pointer" transform="translate(946,247)"><rect class="bg" x="0.5" y="0.5" width="45" height="25" style="stroke-width: 1px; stroke: rgb(0, 0, 0); stroke-opacity: 0; fill: rgb(0, 0, 0); fill-opacity: 0;"/><text class="annotation-text" text-anchor="middle" x="23.125" y="20" style="font-family: 'Open Sans', verdana, arial, sans-serif; font-size: 20px; fill: rgb(42, 63, 95); fill-opacity: 1; white-space: pre;">NBR</text></g></g></g></g></svg>